<svg viewBox="0 0 70 70" fill="none" xmlns="http://www.w3.org/2000/svg">
  <path d="M67.127 39.879C64.72 55.496 50.934 67.5 34.752 67.5 16.956 67.5 2.5 52.966 2.5 35S16.956 2.5 34.752 2.5c1.764 0 2.73.495 3.362 1.116.703.693 1.275 1.824 1.685 3.57.408 1.735.6 3.822.734 6.204.044.773.081 1.587.12 2.423.077 1.649.157 3.382.293 5.047.407 4.97 1.366 10.55 5.09 14.326 3.892 3.946 10.072 5.268 19.251 3.508.586-.112 1.137.057 1.481.334.308.247.41.523.36.85Z" stroke="currentColor" stroke-width="5"/>
</svg>
