<svg xmlns="http://www.w3.org/2000/svg" fill="none" viewBox="0 0 256 256"><path fill="#000B1D" d="M196 0H60C26.863 0 0 26.863 0 60v136c0 33.137 26.863 60 60 60h136c33.137 0 60-26.863 60-60V60c0-33.137-26.863-60-60-60"/><path fill="#fff" d="M199.711 146.6c-11.1-11.8-41.8-7-49-5.8a125 125 0 0 1-20.5-27 120.3 120.3 0 0 0 7-35.4c0-10.8-4.3-22.4-16.3-22.4a12.17 12.17 0 0 0-10.1 5.9c-5.1 8.8-3.1 27 5.1 45.4-4.8 13.5-11.7 33-20.8 48.8-12.3 4.9-38.4 16.9-40.9 30.2a11.23 11.23 0 0 0 3.6 10.6 15.22 15.22 0 0 0 10.6 3.8c15.7 0 31.4-21.8 42-40.5a267 267 0 0 1 37.401-9.8c16.599 14.5 31.399 16.7 38.899 16.7 10.2 0 14-4.4 15.4-8.1a12.48 12.48 0 0 0-2.4-12.4m-10.8 7.6c-.5 2.9-4.199 5.8-11.099 4.3a55.55 55.55 0 0 1-21.801-11c5.4-.9 18-2.1 26.9-.4 3.2.6 6.9 2.4 6 7.1m-71.6-88.5a4 4 0 0 1 3.5-2.2c3.8 0 4.6 4.6 4.6 8.4a116.7 116.7 0 0 1-5 26.7c-6.4-17-5.5-28.8-3.1-32.9m-.9 83.1a251 251 0 0 0 9.9-23.8 126 126 0 0 0 13.6 17.8 225 225 0 0 0-23.5 6m-25.1 17.2c-10.1 16.2-20 26.4-25.8 26.4a4.1 4.1 0 0 1-2.6-.9 3.73 3.73 0 0 1-1.3-3.7c1.1-5.8 12.6-14.2 29.7-21.8"/></svg>