<svg xmlns="http://www.w3.org/2000/svg" width="256" height="256" fill="none"><path fill="#370000" d="M196 0H60C26.863 0 0 26.863 0 60v136c0 33.137 26.863 60 60 60h136c33.137 0 60-26.863 60-60V60c0-33.137-26.863-60-60-60"/><path fill="#FA0F00" d="M80.065 166.55a80 80 0 0 1-16.34-1.53 53.2 53.2 0 0 1-12.32-3.94c-.86-.43-1.29-1.34-1.29-2.74v-19.17a1 1 0 0 1 .4-.88 1.06 1.06 0 0 1 1 .08 56.25 56.25 0 0 0 29.14 8.37q9.18 0 13.12-2.82a8.35 8.35 0 0 0 4-7 9.45 9.45 0 0 0-1.29-4.91 13.95 13.95 0 0 0-4.51-4.27 53 53 0 0 0-8.85-4.34l-8-3.39q-9.82-4.18-15.38-8.93a25.8 25.8 0 0 1-7.65-10.22 32.8 32.8 0 0 1-2.09-11.76 28.91 28.91 0 0 1 17.23-27q8.53-4.09 21.25-4.1c4.821-.014 9.637.32 14.41 1 3.71.41 7.328 1.423 10.71 3a2.23 2.23 0 0 1 1.12 2.1v18.24a1.05 1.05 0 0 1-.4.72c-.27.27-.62.25-1-.08a45 45 0 0 0-11.27-4 60.4 60.4 0 0 0-13.45-1.43 33 33 0 0 0-7.89.81 19 19 0 0 0-5.23 2 7.73 7.73 0 0 0-3 3.06 8.1 8.1 0 0 0-1 3.78 7.68 7.68 0 0 0 1.44 4.59 16 16 0 0 0 4.83 4 101 101 0 0 0 9.39 4.76l6 2.26q10.62 4.35 16.58 9.25a28.3 28.3 0 0 1 8.37 10.63 31.3 31.3 0 0 1 2.42 12.32 28.1 28.1 0 0 1-5.07 16.66 32.4 32.4 0 0 1-14.09 11q-9.05 3.88-21.29 3.88m84.54-83.24c6.22-.151 12.406.95 18.19 3.24a35 35 0 0 1 12.56 8.77 37.6 37.6 0 0 1 7.48 12.48 42.7 42.7 0 0 1 2.5 14.65 42.64 42.64 0 0 1-4.11 19.32 39.8 39.8 0 0 1-11.16 13.78 49.1 49.1 0 0 1-15.85 8.3 60.7 60.7 0 0 1-18.12 2.7 11 11 0 0 1-1.28-.08c-.54 0-1.61-.08-2.26-.08v27.36a1.31 1.31 0 0 1-1.16 1.44h-.12c-1.61.11-3 .27-5.24.48s-4.32.43-6.36.65-3.81.37-5.31.48c-.92.036-1.836.143-2.74.32-.64 0-1-.43-1-1.28v-94.5c0-.75 0-1.83-.08-3.22s-.11-2.76-.17-4.11a31 31 0 0 0-.24-3.14.87.87 0 0 1 .65-1q4-1.45 9.25-2.9c3.49-1 7.3-1.82 11.44-2.58a73.4 73.4 0 0 1 13.13-1.08m-1.94 19a35 35 0 0 0-5 .33c-1.5.21-3.58 0-5.19.43v44c.981.325 1.984.583 3 .77 1 0 1.85.08 2.5.08a29 29 0 0 0 11.41-2.37 21.1 21.1 0 0 0 9.25-7.64q3.71-5.33 3.71-14 0-10.31-5.16-15.94t-14.49-5.67z"/></svg>