<svg xmlns="http://www.w3.org/2000/svg" width="256" height="256" fill="none"><path fill="#013301" d="M196 0H60C26.863 0 0 26.863 0 60v136c0 33.137 26.863 60 60 60h136c33.137 0 60-26.863 60-60V60c0-33.137-26.863-60-60-60"/><path fill="#3F6" d="M116.71 155.9h-37.2l-7.6 23.6a1.75 1.75 0 0 1-1.9 1.4h-18.8c-1.1 0-1.4-.6-1.1-1.8l32.2-92.4c.3-1 .6-1.9 1-3.1a35 35 0 0 0 .6-6.5 1 1 0 0 1 .8-1.1h25.9c.8 0 1.2.3 1.3.8l36.5 102.5c.3 1.1 0 1.6-1 1.6h-20.9a1.51 1.51 0 0 1-1.6-1.1zM85.31 136h25.4c-.6-2.1-1.4-4.6-2.3-7.2s-1.8-5.6-2.7-8.6-1.9-6.1-2.9-9.2-1.9-6-2.7-8.9-1.5-5.4-2.2-7.8h-.2a123 123 0 0 1-3.4 12.9c-1.5 4.8-3 9.8-4.6 14.8-1.4 5.1-2.9 9.8-4.4 14m73.8-35.1h17.5a2.25 2.25 0 0 1 2.1 1.6c.371.831.639 1.704.8 2.6.2 1 .4 2.1.5 3.1s.2 2.3.2 3.6a37.2 37.2 0 0 1 10.7-8.6 27.66 27.66 0 0 1 14.3-3.6 1.24 1.24 0 0 1 1.4 1.1v19.9c0 .8-.5 1.1-1.6 1.1-3.35-.216-6.713.02-10 .7a41 41 0 0 0-8.4 2.7c-2.3 1.1-4.8 2.3-6 3.7v50.7c0 1-.4 1.4-1.3 1.4h-18.8a1.383 1.383 0 0 1-1.6-1.2v-55.4c0-2.4 0-4.9-.1-7.5s-.1-5.2-.2-7.8c-.1-2.3-.3-4.7-.6-7a.9.9 0 0 1 .121-.696.92.92 0 0 1 .579-.404z"/></svg>