<svg xmlns="http://www.w3.org/2000/svg" fill="none" viewBox="0 0 256 256"><path fill="#F4F2ED" d="M196 0H60C26.863 0 0 26.863 0 60v136c0 33.137 26.863 60 60 60h136c33.137 0 60-26.863 60-60V60c0-33.137-26.863-60-60-60"/><path fill="#363FF9" d="M192.561 151.288 131.487 47.696a3.4 3.4 0 0 0-1.241-1.236 3.47 3.47 0 0 0-3.419-.021 3.4 3.4 0 0 0-1.257 1.22l-18.291 31.04a6.6 6.6 0 0 0-.914 3.342c0 1.174.315 2.326.914 3.342l39.824 67.581a6.75 6.75 0 0 0 2.501 2.448 6.94 6.94 0 0 0 3.416.894h36.582a3.5 3.5 0 0 0 1.705-.451 3.4 3.4 0 0 0 1.248-1.224 3.3 3.3 0 0 0 .006-3.343M32.47 205.43l61.074-103.593c.3-.508.73-.929 1.25-1.222a3.47 3.47 0 0 1 3.41 0c.518.293.949.714 1.248 1.222l18.301 31.013a6.6 6.6 0 0 1 .914 3.346c0 1.175-.315 2.33-.914 3.347l-39.824 67.581a6.73 6.73 0 0 1-2.496 2.448 6.9 6.9 0 0 1-3.412.894H35.43a3.46 3.46 0 0 1-1.718-.445 3.4 3.4 0 0 1-1.257-1.23 3.29 3.29 0 0 1 .016-3.361m66.973 5.014H221.59a3.5 3.5 0 0 0 1.706-.45 3.4 3.4 0 0 0 1.248-1.225 3.29 3.29 0 0 0-.005-3.343l-18.272-31.031a6.76 6.76 0 0 0-2.501-2.449 6.95 6.95 0 0 0-3.417-.894h-79.647a6.95 6.95 0 0 0-3.417.894 6.76 6.76 0 0 0-2.501 2.449l-18.29 31.031a3.29 3.29 0 0 0-.006 3.343c.3.509.73.931 1.248 1.225a3.5 3.5 0 0 0 1.707.45"/></svg>