<svg xmlns="http://www.w3.org/2000/svg" width="256" height="256" fill="none"><path fill="#F4F2ED" d="M196 0H60C26.863 0 0 26.863 0 60v136c0 33.137 26.863 60 60 60h136c33.137 0 60-26.863 60-60V60c0-33.137-26.863-60-60-60"/><path fill="#A4C639" d="M55.435 93.078q-5.193 0-8.813 3.622Q43 100.32 43 105.393v51.917c0 3.466 1.207 6.401 3.622 8.816q3.62 3.621 8.813 3.622 5.19 0 8.755-3.622c2.373-2.415 3.562-5.35 3.562-8.816v-51.917q0-5.072-3.622-8.693-3.622-3.622-8.695-3.622m99.974-46.606 8.572-15.815q.845-1.57-.602-2.414c-1.047-.487-1.852-.24-2.414.723l-8.693 15.94q-11.474-5.074-24.269-5.075-12.8.002-24.27 5.075l-8.693-15.94c-.565-.963-1.37-1.208-2.414-.723-.967.567-1.167 1.367-.602 2.414l8.573 15.815c-8.693 4.433-15.617 10.607-20.768 18.535-5.151 7.932-7.728 16.601-7.728 26.02h111.682c0-9.417-2.578-18.086-7.728-26.02-5.152-7.928-12.036-14.102-20.646-18.535m-49.564 23.002q-1.39 1.392-3.321 1.391c-1.29 0-2.374-.462-3.26-1.391-.884-.925-1.327-2.028-1.327-3.32q0-1.93 1.328-3.319 1.328-1.387 3.259-1.387t3.321 1.387c.925.93 1.39 2.032 1.39 3.32q-.005 1.932-1.39 3.319m50.891 0q-1.331 1.392-3.259 1.391-1.935.001-3.322-1.391c-.927-.925-1.39-2.028-1.39-3.32q0-1.93 1.39-3.319 1.387-1.387 3.322-1.387 1.93 0 3.259 1.387c.885.93 1.327 2.032 1.327 3.32q0 1.932-1.327 3.319M72.58 175.783q0 5.559 3.862 9.418 3.864 3.862 9.418 3.862h8.935l.123 27.411q0 5.193 3.621 8.815 3.623 3.622 8.693 3.622 5.19 0 8.813-3.622 3.622-3.621 3.622-8.815v-27.408h16.661v27.408q0 5.193 3.622 8.815t8.813 3.622 8.813-3.622q3.622-3.621 3.622-8.815v-27.408h9.056q5.43 0 9.297-3.862 3.862-3.86 3.862-9.418V95.37H72.581zm127.985-82.705q-5.071.002-8.693 3.562-3.622 3.566-3.622 8.753v51.917c0 3.466 1.207 6.401 3.622 8.816q3.623 3.621 8.693 3.622 5.191 0 8.813-3.622c2.415-2.415 3.622-5.35 3.622-8.816v-51.917q0-5.188-3.622-8.753-3.622-3.56-8.813-3.562"/></svg>