<svg xmlns="http://www.w3.org/2000/svg" fill="none" viewBox="0 0 256 256"><rect width="256" height="256" fill="#282828" rx="60"/><path fill="#FFF" d="M103.856 227.535c-3.375-.802-6.202-2.675-10.156-6.731-6.605-6.776-11.967-9.599-21.284-11.201-9.666-1.664-13.96-5.258-16.542-13.838-3.189-10.593-6.52-15.665-13.84-21.072-8.305-6.134-10.434-11.542-8.409-21.345 1.878-9.078 1.16-15.533-2.654-23.832-4.55-9.901-3.988-15.191 2.473-23.303 5.924-7.438 7.783-12.353 8.67-22.924.895-10.669 3.863-15.044 12.604-18.586 7.294-2.956 13.536-8.088 16.995-13.974 4-6.808 4.584-7.588 7.064-9.438 4-2.985 7.234-3.81 13.394-3.425 10.701.67 16.435-.615 23.62-5.293 9.368-6.097 15.05-6.097 24.417 0 7.187 4.678 12.922 5.963 23.621 5.293 10.119-.635 14.329 2.02 20.497 12.931 3.057 5.405 9.303 10.667 16.142 13.594 9.738 4.168 12.567 7.972 13.286 17.857.778 10.706 2.973 16.691 8.788 23.965 6.475 8.096 7.04 13.392 2.486 23.303-3.811 8.299-4.531 14.754-2.654 23.832 2.028 9.803-.104 15.211-8.407 21.345-7.32 5.407-10.651 10.479-13.839 21.072-2.582 8.58-6.878 12.174-16.543 13.838-9.339 1.606-14.704 4.437-21.285 11.223-7.295 7.523-12.524 8.764-22.721 5.393-8.341-2.758-14.763-2.77-23.069-.043-5.82 1.91-8.921 2.243-12.654 1.359"/><path fill="#3DDC84" d="M163.849 119.518a2.584 2.584 0 0 1 1.195-3.458 2.584 2.584 0 0 1 3.458 1.195 2.585 2.585 0 0 1-1.195 3.458 2.585 2.585 0 0 1-3.458-1.195m12.505 25.702a2.583 2.583 0 0 1 1.195-3.457 2.583 2.583 0 0 1 3.457 1.196 2.58 2.58 0 0 1-1.194 3.456 2.583 2.583 0 0 1-3.458-1.195m1.092-33.35c-8.224-5.872-18.956-7.39-28.89-3.546l27.155 55.839c9.151-5.436 14.575-14.83 15.037-24.919l10.307.733a1.06 1.06 0 0 0 .781-.263 1.07 1.07 0 0 0 .362-.74 1.07 1.07 0 0 0-1.002-1.143l-10.436-.746c-.102-4.395-1.155-8.88-3.251-13.198-2.094-4.306-4.973-7.904-8.366-10.706l5.86-8.675c.155-.235.21-.521.155-.797a1.073 1.073 0 0 0-1.928-.411l-5.784 8.56"/><path fill="#4285F4" d="M152.411 132.895c-7.659 3.702-15.897 5.577-24.482 5.577a56.33 56.33 0 0 1-47.152-25.445 2.57 2.57 0 0 0-3.674-.655l-9.858 7.26c-1.118.823-1.376 2.391-.592 3.548a73.7 73.7 0 0 0 61.276 32.668c11.22 0 22.002-2.454 32.039-7.3zm-29.904-61.777h10.667V59.335A5.336 5.336 0 0 0 127.84 54a5.335 5.335 0 0 0-5.333 5.333z"/><path fill="#4285F4" d="m113.96 94.123-36.666 75.464a12.5 12.5 0 0 0-1.26 5.217l-.218 9.883c-.051 2.558 2.905 3.997 4.884 2.378l7.634-6.273a12.5 12.5 0 0 0 3.328-4.213l36.139-74.399-13.829-8.045zm65.696 80.669a12.6 12.6 0 0 0-1.259-5.217l-36.664-75.466-13.83 8.071 36.139 74.371a12.65 12.65 0 0 0 3.328 4.216l7.634 6.272c1.98 1.62 4.948.179 4.885-2.377l-.219-9.884z"/><path fill="#073042" d="M127.839 70.18c-8.829 0-16 7.185-16 16s7.185 16 16 16 16-7.184 16-16-7.184-16-16-16m0 24.803c-4.844 0-8.803-3.944-8.803-8.803 0-4.857 3.945-8.803 8.803-8.803s8.804 3.946 8.804 8.803c0 4.859-3.946 8.803-8.804 8.803"/></svg>