<svg xmlns="http://www.w3.org/2000/svg" fill="none" viewBox="0 0 256 256"><path fill="#00005B" d="M196 0H60C26.863 0 0 26.863 0 60v136c0 33.137 26.863 60 60 60h136c33.137 0 60-26.863 60-60V60c0-33.137-26.863-60-60-60"/><path fill="#99F" d="M104.81 155.9h-37.1l-7.6 23.5a1.75 1.75 0 0 1-1.9 1.4h-19c-1.1 0-1.4-.6-1.1-1.8l32.3-92.3c.3-1 .6-1.8 1-3.1a35 35 0 0 0 .6-6.5 1 1 0 0 1 .8-1.1h26c.8 0 1.2.3 1.3.8l36.4 102.3c.3 1.1 0 1.6-1 1.6h-20.9a1.51 1.51 0 0 1-1.6-1.1zM73.51 136h25.4c-.6-2.1-1.4-4.6-2.3-7.2s-1.8-5.6-2.7-8.6-1.9-6.1-2.9-9.2-1.9-6-2.7-8.9-1.5-5.4-2.2-7.8h-.2a123 123 0 0 1-3.4 12.9c-1.5 4.8-3 9.8-4.6 14.8-1.4 5.1-2.9 9.8-4.4 14m74.3 43.3v-59.4c0-1.8 0-3.9-.1-6.1s-.1-4.4-.2-6.4-.2-3.9-.3-5.1a1 1 0 0 1 .2-1 1.7 1.7 0 0 1 1-.3h16.1a4.1 4.1 0 0 1 1.6.3 1.55 1.55 0 0 1 .8 1.1c.2.6.5 1.4.7 2.2.296 1.08.497 2.185.6 3.3a33.2 33.2 0 0 1 10.6-6.2 38.4 38.4 0 0 1 12.1-2 29.8 29.8 0 0 1 9.4 1.5 24 24 0 0 1 15.2 14.8c1.6 4.1 2.2 9.5 2.2 16v47.3c0 1-.4 1.4-1.3 1.4l-18.8.2a1.4 1.4 0 0 1-1.058-.257 1.38 1.38 0 0 1-.542-.943v-45.2a23.5 23.5 0 0 0-1.9-8.7 10.995 10.995 0 0 0-10.9-6.8 19.7 19.7 0 0 0-7.6 1.4 21 21 0 0 0-6 3.8v55.2c0 1-.4 1.4-1.3 1.4h-19a1.24 1.24 0 0 1-1.253-.629 1.3 1.3 0 0 1-.147-.471c-.2-.2-.2-.3-.1-.4"/></svg>