<svg xmlns="http://www.w3.org/2000/svg" width="256" height="256" fill="none"><rect width="256" height="256" fill="#282828" rx="60"/><path fill="url(#gradient_1)" d="m176.619 164.288-3-2.993-.562-.513a64.05 64.05 0 0 0-44.648-18.118 64 64 0 0 0-44.648 18.124l-.388.375-2.962 3-6.344 6.331a19.32 19.32 0 0 1-13.724 5.731 19.37 19.37 0 0 1-13.68-5.649 19.275 19.275 0 0 1-4.191-21.029 19.3 19.3 0 0 1 4.19-6.258l13.68-13.649-13.511-13.431a19.28 19.28 0 0 1-4.377-21.14 19.3 19.3 0 0 1 4.208-6.315 19.374 19.374 0 0 1 27.362 0l9.905 9.875a64.08 64.08 0 0 0 44.655 18.105 64.1 64.1 0 0 0 44.648-18.105q.182-.245.431-.425l5.612-5.65 3.737-3.675a19.13 19.13 0 0 1 13.637-5.65 19.38 19.38 0 0 1 13.675 5.65 19.27 19.27 0 0 1 4.181 21.099 19 19 0 0 1-4.3 6.275l-13.556 13.518 13.556 13.518a19.14 19.14 0 0 1 5.787 13.768 19.25 19.25 0 0 1-5.668 13.637 19.33 19.33 0 0 1-27.318 0l-6.431-6.412z"/><path fill="url(#gradient_2)" d="M163.17 42.456a19.3 19.3 0 0 1 6.275 4.188 19.27 19.27 0 0 1-.044 27.248L155.72 87.536l-.344.3a38.653 38.653 0 0 1-53.953 0l-.344-.3-13.687-13.644a19.27 19.27 0 0 1 .087-27.205 19.33 19.33 0 0 1 27.28-.043l13.687 13.643 13.637-13.643A19.35 19.35 0 0 1 155.764 41a19.3 19.3 0 0 1 7.406 1.456"/><path fill="url(#gradient_3)" d="M93.71 214.536a19.3 19.3 0 0 1-6.274-4.187 19.27 19.27 0 0 1 .043-27.249l13.687-13.649.338-.294a38.65 38.65 0 0 1 53.96 0l.344.294 13.68 13.649a19.267 19.267 0 0 1-.087 27.205 19.33 19.33 0 0 1-27.28.044l-13.681-13.65-13.637 13.65a19.35 19.35 0 0 1-13.687 5.643 19.3 19.3 0 0 1-7.406-1.456"/><linearGradient id="gradient_1" x1="41" x2="215.992" y1="84.742" y2="177.713" gradientUnits="userSpaceOnUse"><stop stop-color="#3BF"/><stop offset="1" stop-color="#33F"/></linearGradient><linearGradient id="gradient_2" x1="177.713" x2="76.542" y1="101.154" y2="38.263" gradientUnits="userSpaceOnUse"><stop stop-color="#99C2FF"/><stop offset="1" stop-color="#EBF3FF"/></linearGradient><linearGradient id="gradient_3" x1="128.39" x2="103.885" y1="215.992" y2="161.307" gradientUnits="userSpaceOnUse"><stop stop-color="#99C2FF"/><stop offset="1" stop-color="#EBF3FF"/></linearGradient></svg>