<svg xmlns="http://www.w3.org/2000/svg" width="256" height="256" fill="none"><path fill="#F4F2ED" d="M196 0H60C26.863 0 0 26.863 0 60v136c0 33.137 26.863 60 60 60h136c33.137 0 60-26.863 60-60V60c0-33.137-26.863-60-60-60"/><path fill="#247CE6" d="M192.228 181.184 221 105.041l-86.897-19.763-11.334 32.55z"/><path fill="url(#paint0_linear_61_15)" d="M221 184.091 177.116 221l-87.479-22.669 23.541-42.431z"/><path fill="url(#paint1_linear_61_15)" d="M60.575 127.419 38.487 63.772 137.01 35l-7.847 82.537z"/><path fill="url(#paint2_linear_61_15)" d="m197.169 142.531-27.61-47.081.582-.29L137.009 35 35 145.147V221l185.419-36.909z"/><path fill="#000" d="M186.125 69.875H69.875v116.25h116.25z"/><path fill="#fff" d="M80.628 164.328h43.594v7.266H80.628zm19.181-79.34h9.591l20.344 47.953H118.7l-4.359-10.754H94.288l-4.36 10.754H79.175zm11.044 28.19-6.394-15.403-6.393 15.403zm16.275-3.778a24.703 24.703 0 0 1 25.284-25.285c9.01 0 14.532 2.907 19.182 7.557l-6.685 7.847c-3.778-3.488-7.556-5.522-12.497-5.522-8.137 0-13.95 6.684-13.95 15.112s5.813 15.113 13.95 15.113c5.522 0 9.01-2.325 12.788-5.813l6.684 6.975c-4.94 5.232-10.462 8.719-19.762 8.719a24.38 24.38 0 0 1-24.994-24.703"/><defs><linearGradient id="paint0_linear_61_15" x1="104.169" x2="13225.9" y1="3410.9" y2="3410.9" gradientUnits="userSpaceOnUse"><stop offset=".19" stop-color="#00DAF0"/><stop offset=".9" stop-color="#247CE6"/></linearGradient><linearGradient id="paint1_linear_61_15" x1="22994.1" x2="691958" y1="-6290540" y2="-6290540" gradientUnits="userSpaceOnUse"><stop offset=".19" stop-color="#00DAF0"/><stop offset=".9" stop-color="#247CE6"/></linearGradient><linearGradient id="paint2_linear_61_15" x1="12222.4" x2="2968.57" y1="19225" y2="6392.27" gradientUnits="userSpaceOnUse"><stop offset=".09" stop-color="#1DDF93"/><stop offset=".48" stop-color="#00DAF0"/><stop offset=".9" stop-color="#247CE6"/></linearGradient></defs></svg>