<svg xmlns="http://www.w3.org/2000/svg" width="256" height="256" fill="none"><g id="Aqua"><path id="Vector" fill="#282828" d="M196 0H60C26.863 0 0 26.863 0 60v136c0 33.137 26.863 60 60 60h136c33.137 0 60-26.863 60-60V60c0-33.137-26.863-60-60-60"/><g id="Group 20"><path id="Vector_2" fill="url(#paint0_linear_8_470)" d="m122.162 100.033-82.47-20.156L30 102.808l29.728 95.087L138.716 225l34-55.621z"/><path id="Vector_3" fill="url(#paint1_linear_8_470)" d="M39.69 79.877 30 102.808l29.728 95.087 13.964-39.18 3.047-22.851z"/><path id="Vector_4" fill="url(#paint2_linear_8_470)" d="m122.162 99.667-82.47-20.155L30 102.442l96.973 33.534z"/><path id="Vector_5" fill="url(#paint3_linear_8_470)" d="M39.69 79.877 30 102.811l32.242 11.152z"/><path id="Vector_6" fill="url(#paint4_linear_8_470)" d="m225 85.782-19.82-38.81L104.039 30 59.725 197.898 138.712 225z"/><path id="Vector_7" fill="url(#paint5_linear_8_470)" d="m225 85.782-19.817-38.81L138.722 225z"/><path id="Vector_8" fill="url(#paint6_linear_8_470)" d="m225 85.782-19.82-38.81L104.039 30l33.638 51.02z"/><path id="Vector_9" fill="url(#paint7_linear_8_470)" d="m225 85.782-19.82-38.81L104.039 30l33.638 51.02z"/><path id="Vector_10" fill="url(#paint8_linear_8_470)" d="m225 85.782-19.817-38.81-13.805 36.976z"/><path id="Vector_11" fill="url(#paint9_linear_8_470)" d="m76.74 135.864-.458-.689-16.55 62.723L138.718 225l33.997-55.62z"/><path id="Vector_12" fill="url(#paint10_linear_8_470)" d="m172.716 169.382-44.18-68.555-40.758-9.198L59.73 197.898 138.72 225z"/><path id="Vector_13" fill="url(#paint11_linear_8_470)" d="M137.677 81.02 104.039 30 59.731 197.898l41.383-39.183z"/><path id="Vector_14" fill="url(#paint12_linear_8_470)" d="m59.731 197.895 41.383-39.18 5.795-12.315-30.17-10.536-.457-.689-7.849 29.753z"/><path id="Vector_15" fill="url(#paint13_linear_8_470)" d="m80.243 120.181 33.546 11.603 14.747-30.957-40.761-9.198z"/><path id="Vector_16" fill="url(#paint14_linear_8_470)" d="m138.719 225 33.997-55.618-8.379-13.004z"/><path id="Vector_17" fill="url(#paint15_linear_8_470)" d="m172.715 169.382-8.378-13.004-3.331 8.916z"/><path id="Vector_18" fill="url(#paint16_linear_8_470)" d="m101.114 158.715-41.383 39.183L138.72 225z"/><path id="Vector_19" fill="url(#paint17_linear_8_470)" d="M191.378 83.948 138.719 225 225 85.779z"/><path id="Vector_20" fill="url(#paint18_linear_8_470)" d="M188.438 66.563H66.563v121.875h121.875z"/><g id="Group" opacity=".2"><path id="Vector_21" fill="url(#paint19_linear_8_470)" d="M66.584 86.553v101.888h94.087l11.645-19.058-50.548-69.341z"/><path id="Vector_22" fill="url(#paint20_linear_8_470)" d="m66.584 177.576 6.718-18.858 3.047-22.848-9.766-14.759z"/><path id="Vector_23" fill="url(#paint21_linear_8_470)" d="m66.584 115.599 59.992 20.749-4.808-36.306-55.184-13.489z"/><path id="Vector_24" fill="url(#paint22_linear_8_470)" d="M188.446 144.121v-77.55H94.002L66.581 170.459v17.98h94.398z"/><path id="Vector_25" fill="url(#paint23_linear_8_470)" d="m137.28 81.032 51.169 2.788V66.575h-60.697z"/><path id="Vector_26" fill="url(#paint24_linear_8_470)" d="M66.584 170.461v17.977h2.748l31.389-29.72 36.562-77.686-9.533-14.46H94.002L66.581 170.458z"/><path id="Vector_27" fill="url(#paint25_linear_8_470)" d="m160.982 188.438 27.467-44.317v-53.39l-36.477 97.707z"/></g><path id="Vector_28" fill="#fff" d="M127.5 165.434H81.797v7.617H127.5z"/><path id="Vector_29" fill="#fff" d="M147.902 81.882h8.927l18.872 45.588h-10.124l-4.025-10.153h-18.617l-4.022 10.153h-9.874zm10.189 26.642-5.85-14.68-5.85 14.68z"/><path id="Vector_30" fill="#fff" d="m121.348 128.828-4.841-4.463a23.5 23.5 0 0 1-13.08 3.882c-13.583 0-23.333-10.412-23.333-23.279v-.131c0-12.87 9.872-23.409 23.461-23.409 13.583 0 23.33 10.411 23.33 23.278v.131c0 4.784-1.448 9.248-3.9 12.998l4.527 3.943zm-12.01-10.993-7.17-6.273 6.164-7.115 7.23 6.728a16.3 16.3 0 0 0 1.198-6.21v-.128c0-7.76-5.536-14.228-13.333-14.228-7.8 0-13.208 6.337-13.208 14.097v.131c0 7.761 5.536 14.226 13.333 14.226 2.139 0 4.089-.387 5.786-1.228"/></g></g><defs><linearGradient id="paint0_linear_8_470" x1="66.697" x2="111.355" y1="68.948" y2="172.365" gradientUnits="userSpaceOnUse"><stop offset=".068" stop-color="#FF4EFD"/><stop offset=".964" stop-color="#484DFC"/></linearGradient><linearGradient id="paint1_linear_8_470" x1="30" x2="83.476" y1="74.18" y2="202.179" gradientUnits="userSpaceOnUse"><stop stop-color="#DA38FF"/><stop offset=".223" stop-color="#DA38FF"/><stop offset=".828" stop-color="#087CFA"/></linearGradient><linearGradient id="paint2_linear_8_470" x1="130.547" x2="100.288" y1="148.082" y2="58.702" gradientUnits="userSpaceOnUse"><stop offset=".281" stop-color="#6B57FF"/><stop offset=".875" stop-color="#9E3DFF"/></linearGradient><linearGradient id="paint3_linear_8_470" x1="45.996" x2="45.996" y1="85.225" y2="120.264" gradientUnits="userSpaceOnUse"><stop stop-color="#E19AFB"/><stop offset=".688" stop-color="#EB73FF" stop-opacity=".69"/></linearGradient><linearGradient id="paint4_linear_8_470" x1="181.56" x2="24.198" y1="92.915" y2="183.346" gradientUnits="userSpaceOnUse"><stop offset=".044" stop-color="#3BEA62"/><stop offset=".98" stop-color="#009AE5"/></linearGradient><linearGradient id="paint5_linear_8_470" x1="208.053" x2="93.668" y1="115.236" y2="180.973" gradientUnits="userSpaceOnUse"><stop offset=".01" stop-color="#3BEA62"/><stop offset=".3" stop-color="#2BD486"/><stop offset=".76" stop-color="#009AE5"/></linearGradient><linearGradient id="paint6_linear_8_470" x1="144.946" x2="185.418" y1="14.202" y2="104.533" gradientUnits="userSpaceOnUse"><stop offset=".193" stop-color="#3BEA62"/><stop offset=".333" stop-color="#39E766"/><stop offset=".474" stop-color="#33E072"/><stop offset=".616" stop-color="#2AD386"/><stop offset=".759" stop-color="#1DC2A2"/><stop offset=".9" stop-color="#0DACC6"/><stop offset="1" stop-color="#009AE5"/></linearGradient><linearGradient id="paint7_linear_8_470" x1="108.46" x2="171.223" y1="50.463" y2="63.951" gradientUnits="userSpaceOnUse"><stop offset=".097" stop-color="#A8FF68"/><stop offset=".501" stop-color="#2BD486" stop-opacity="0"/></linearGradient><linearGradient id="paint8_linear_8_470" x1="238.477" x2="186.859" y1="75.508" y2="62.605" gradientUnits="userSpaceOnUse"><stop offset=".463" stop-color="#3BEA62"/><stop offset=".98" stop-color="#009AE5"/></linearGradient><linearGradient id="paint9_linear_8_470" x1="125.553" x2="101.178" y1="235.451" y2="100.084" gradientUnits="userSpaceOnUse"><stop offset=".044" stop-color="#3BEA62"/><stop offset=".98" stop-color="#009AE5"/></linearGradient><linearGradient id="paint10_linear_8_470" x1="78.485" x2="115.416" y1="96.245" y2="181.768" gradientUnits="userSpaceOnUse"><stop stop-color="#C7489F"/><stop offset=".072" stop-color="#C34DA5" stop-opacity=".914"/><stop offset=".216" stop-color="#B95CB4" stop-opacity=".69"/><stop offset=".415" stop-color="#A974CD" stop-opacity=".332"/><stop offset=".585" stop-color="#9B8BE5" stop-opacity="0"/></linearGradient><linearGradient id="paint11_linear_8_470" x1="152.637" x2="48.281" y1="70.371" y2="97.793" gradientUnits="userSpaceOnUse"><stop offset=".044" stop-color="#3BEA62"/><stop offset=".98" stop-color="#009AE5"/></linearGradient><linearGradient id="paint12_linear_8_470" x1="90.176" x2="72.318" y1="208.242" y2="125.696" gradientUnits="userSpaceOnUse"><stop offset=".373" stop-color="#3BEA62" stop-opacity="0"/><stop offset="1" stop-color="#C931FF"/></linearGradient><linearGradient id="paint13_linear_8_470" x1="71.76" x2="119.066" y1="115.696" y2="109.191" gradientUnits="userSpaceOnUse"><stop stop-color="#26B2C4" stop-opacity="0"/><stop offset=".287" stop-color="#43C3AA" stop-opacity=".285"/><stop offset=".953" stop-color="#8CF06A" stop-opacity=".994"/><stop offset=".958" stop-color="#8DF16A"/></linearGradient><linearGradient id="paint14_linear_8_470" x1="193.224" x2="114.91" y1="139.325" y2="235.795" gradientUnits="userSpaceOnUse"><stop stop-color="#C7489F"/><stop offset=".072" stop-color="#C34DA5" stop-opacity=".914"/><stop offset=".216" stop-color="#B95CB4" stop-opacity=".69"/><stop offset=".415" stop-color="#A974CD" stop-opacity=".332"/><stop offset=".585" stop-color="#9B8BE5" stop-opacity="0"/></linearGradient><linearGradient id="paint15_linear_8_470" x1="172.618" x2="162.441" y1="157.838" y2="170.373" gradientUnits="userSpaceOnUse"><stop offset=".306" stop-color="#EB73FF" stop-opacity="0"/><stop offset="1" stop-color="#BD31FF"/></linearGradient><linearGradient id="paint16_linear_8_470" x1="51.328" x2="119.121" y1="138.926" y2="225" gradientUnits="userSpaceOnUse"><stop offset=".212" stop-color="#3BEA62"/><stop offset=".98" stop-color="#009AE5"/></linearGradient><linearGradient id="paint17_linear_8_470" x1="207.938" x2="182.128" y1="80.715" y2="154.623" gradientUnits="userSpaceOnUse"><stop offset=".097" stop-color="#95F286"/><stop offset=".501" stop-color="#2BD486" stop-opacity="0"/></linearGradient><linearGradient id="paint18_linear_8_470" x1="65.03" x2="186.213" y1="66.858" y2="184.498" gradientUnits="userSpaceOnUse"><stop stop-color="#007859"/><stop offset=".088" stop-color="#00533E"/><stop offset=".192" stop-color="#002F23"/><stop offset=".289" stop-color="#001510"/><stop offset=".377" stop-color="#000604"/><stop offset=".445"/><stop offset=".914"/></linearGradient><linearGradient id="paint19_linear_8_470" x1="77.729" x2="111.604" y1="82.294" y2="160.742" gradientUnits="userSpaceOnUse"><stop offset=".326" stop-color="#FF318C"/><stop offset=".384" stop-color="#F4358F"/><stop offset=".484" stop-color="#D84099"/><stop offset=".614" stop-color="#AA53A9"/><stop offset=".769" stop-color="#6B6DBF"/><stop offset=".944" stop-color="#1B8EDB"/><stop offset="1" stop-color="#009AE5"/></linearGradient><linearGradient id="paint20_linear_8_470" x1="60.258" x2="80.648" y1="130.769" y2="177.984" gradientUnits="userSpaceOnUse"><stop offset=".058" stop-color="#FF318C"/><stop offset=".141" stop-color="#F43492"/><stop offset=".285" stop-color="#D83DA4"/><stop offset=".47" stop-color="#AB4CC1"/><stop offset=".584" stop-color="#8C57D5"/><stop offset=".71" stop-color="#5C6DDA"/><stop offset=".933" stop-color="#009AE5"/></linearGradient><linearGradient id="paint21_linear_8_470" x1="74.828" x2="143.736" y1="84.713" y2="167.009" gradientUnits="userSpaceOnUse"><stop offset=".191" stop-color="#FF318C"/><stop offset=".464" stop-color="#8363B7"/><stop offset=".764" stop-color="#009AE5"/></linearGradient><linearGradient id="paint22_linear_8_470" x1="168.559" x2="38.504" y1="103.905" y2="178.645" gradientUnits="userSpaceOnUse"><stop offset=".044" stop-color="#3BEA62"/><stop offset=".877" stop-color="#024546"/></linearGradient><linearGradient id="paint23_linear_8_470" x1="143.572" x2="189.507" y1="61.864" y2="90.285" gradientUnits="userSpaceOnUse"><stop offset=".097" stop-color="#A8FF68"/><stop offset=".501" stop-color="#2BD486"/><stop offset="1" stop-color="#1686E6"/></linearGradient><linearGradient id="paint24_linear_8_470" x1="118.042" x2="53.138" y1="72.154" y2="199.233" gradientUnits="userSpaceOnUse"><stop offset=".044" stop-color="#99EA51"/><stop offset=".98" stop-color="#009AE5"/></linearGradient><linearGradient id="paint25_linear_8_470" x1="185.646" x2="161.402" y1="106.775" y2="200.226" gradientUnits="userSpaceOnUse"><stop offset=".097" stop-color="#95F286"/><stop offset=".501" stop-color="#2BD486"/></linearGradient></defs></svg>