<svg xmlns="http://www.w3.org/2000/svg" width="256" height="256" fill="none"><rect width="256" height="256" fill="#F4F2ED" rx="60"/><path stroke="#fff" stroke-linejoin="round" stroke-width="16" d="m168.784 118.005-27.156-57.13a20.54 20.54 0 0 0-18.537-11.719 20.43 20.43 0 0 0-18.536 11.775l-27.692 58.257c7.775 10.283 21.522 18.734 35.185 21.636l8.959-18.819a2.34 2.34 0 0 1 2.112-1.332 2.34 2.34 0 0 1 2.113 1.332l8.761 18.424m34.791-22.424s0 .028-.028.028c0 0 0-.028.028-.028Zm0 0c6.367-7.803 10.987-16.987 12.959-26.846 2.225-11.128 13.043-18.311 24.17-16.114a20.53 20.53 0 0 1 13.064 8.747 20.54 20.54 0 0 1 3.05 15.423c-4.564 22.79-17.297 43.158-34.537 58.117l9.859 20.733c5.465 11.494-.253 25.551-12.367 29.157l-.366.113a20.3 20.3 0 0 1-5.465.76c-7.691 0-15.043-4.338-18.565-11.719l-8.761-18.423-17.832-37.524m0 0h.057m-55.356-19.015c-.14-.141-.253-.31-.394-.451l-.254-.31c-.084-.112-.169-.197-.253-.31l-.93-1.183-.028-.028c-1.944-2.563-3.521-5.24-4.62-7.972-4.254-10.536-16.227-15.607-26.734-11.353s-15.579 16.226-11.353 26.734l.14.366c4.874 11.776 13.298 22.621 23.862 31.551l-9.353 19.664c-4.761 10.028-1.183 22.311 8.62 27.522a20.53 20.53 0 0 0 16.088 1.384 20.54 20.54 0 0 0 12.111-10.68l8.536-17.945c9.071 2.902 18.423 4.508 27.663 4.508 10.255 0 20.368-1.775 30.002-5.015l-17.832-37.523c-4 .958-8.085 1.465-12.17 1.465h-.394c-3.071-.028-6.226-.395-9.381-1.071-7.437-1.577-14.902-4.789-21.41-9.071-.112-.056-.197-.141-.31-.197a74 74 0 0 1-3.38-2.423 55 55 0 0 1-6.451-5.718c-.028 0-.028-.028-.056-.057-.592-.619-1.184-1.239-1.719-1.887Zm0 0c.028.028.056.056.056.084z"/><path fill="#1A007F" fill-rule="evenodd" d="m94.132 178.403 17.888-37.636c-13.663-2.901-27.41-11.353-35.185-21.635L58.13 158.458c10.395 8.818 22.874 15.748 36.002 19.945" clip-rule="evenodd"/><path fill="#4E000A" fill-rule="evenodd" d="M168.784 118.005c-8.986 11.015-21.466 19.185-34.819 22.368l17.832 37.523c13.015-4.394 25.185-11.493 35.693-20.593z" clip-rule="evenodd"/><path fill="#1A007F" fill-rule="evenodd" d="m58.13 158.458-9.353 19.664c-4.761 10-1.183 22.311 8.62 27.522 10.395 5.522 23.185 1.212 28.199-9.296l8.536-17.945a106.7 106.7 0 0 1-36.003-19.945" clip-rule="evenodd"/><path fill="#FF9396" fill-rule="evenodd" d="M205.913 75.073a20.537 20.537 0 0 0-24.17 16.114c-1.972 9.859-6.592 19.043-12.959 26.846l18.677 39.327c17.241-14.959 29.974-35.326 34.538-58.117 2.225-11.155-4.987-21.973-16.086-24.17" clip-rule="evenodd"/><path fill="#002DC8" fill-rule="evenodd" d="M133.965 140.373c-4 .958-8.085 1.465-12.17 1.465-3.183 0-6.479-.367-9.775-1.071-13.663-2.901-27.41-11.353-35.185-21.635-1.944-2.563-3.521-5.24-4.62-7.972-4.254-10.508-16.227-15.579-26.734-11.353-10.508 4.254-15.579 16.226-11.353 26.734 4.817 11.944 13.325 22.903 24.002 31.917a106.6 106.6 0 0 0 35.973 19.945c9.043 2.902 18.424 4.508 27.664 4.508 10.254 0 20.368-1.775 30.002-5.015z" clip-rule="evenodd"/><path fill="#FF536A" fill-rule="evenodd" d="m197.321 178.037-9.86-20.734-18.677-39.298-.028.028s0-.028.028-.028l-27.156-57.13a20.54 20.54 0 0 0-18.537-11.719 20.54 20.54 0 0 0-18.536 11.719l-27.692 58.257c7.775 10.282 21.522 18.734 35.185 21.635l8.959-18.818c.845-1.775 3.38-1.775 4.225 0l8.761 18.424 17.832 37.523 8.761 18.424a20.51 20.51 0 0 0 18.565 11.719 20.2 20.2 0 0 0 5.465-.761c12.367-3.408 18.227-17.635 12.705-29.241" clip-rule="evenodd"/></svg>