<svg xmlns="http://www.w3.org/2000/svg" width="256" height="256" fill="none"><path fill="#F4F2ED" d="M196 0H60C26.863 0 0 26.863 0 60v136c0 33.137 26.863 60 60 60h136c33.137 0 60-26.863 60-60V60c0-33.137-26.863-60-60-60"/><g clip-path="url(#clip0_420_73)"><path fill="#E9654B" d="M93.405 173.49s-1.489 4.482-3.735 6.721a6.75 6.75 0 0 1-5.224 2.245 88 88 0 0 1-11.215 2.24s5.233.748 11.215 1.495c2.237 0 2.237 0 3.733.749 3.737 0 5.226-2.244 5.226-2.244zm68.748 0s1.496 4.482 3.736 6.721a6.77 6.77 0 0 0 5.231 2.245 88 88 0 0 0 11.206 2.24s-5.226.748-11.953 1.495c-2.239 0-2.239 0-3.737.749-4.483 0-5.231-2.244-5.231-2.244z"/><path fill="#B6CFEA" d="M209.229 99.51c0 44.569-36.132 80.701-80.701 80.701-44.571 0-80.701-36.132-80.701-80.7 0-44.565 36.13-80.695 80.701-80.695 44.569 0 80.701 36.13 80.701 80.694"/><path fill="#E6F5F8" d="M206.243 99.51c0 42.922-34.793 77.713-77.715 77.713-42.915 0-77.707-34.791-77.707-77.713 0-42.915 34.792-77.71 77.707-77.71 42.922 0 77.713 34.793 77.713 77.708z"/><path fill="#D0E8F0" d="M192.042 101.008c0 35.079-28.433 63.513-63.514 63.513-35.075 0-63.515-28.434-63.515-63.515 0-35.074 28.442-63.513 63.515-63.513 35.081 0 63.514 28.443 63.514 63.515"/><path fill="#EE794B" d="M91.168 130.896s5.23 84.437 5.23 85.934c0 .742.75 2.238-2.993 3.736-3.735 1.49-15.69 4.482-15.69 4.482H95.65c8.22 0 8.22-6.727 8.22-8.218 0-1.497 2.239-33.625 2.239-33.625s.747 38.109.747 39.598c0 1.498-.747 3.736-5.973 5.233-3.735.749-14.948 2.989-14.948 2.989h17.188c10.464 0 10.464-6.724 10.464-6.724l2.237-33.625s.749 33.625.749 37.36c0 2.989-2.239 5.233-10.464 6.722-5.226 1.498-11.955 2.994-11.955 2.994h19.433c9.708-.747 11.206-7.478 11.206-7.478l16.437-83.688z"/><path fill="#EE794B" d="M165.889 130.896s-5.226 84.436-5.226 85.934c0 .742-.749 2.238 2.988 3.735 3.733 1.491 15.688 4.483 15.688 4.483h-17.935c-8.219 0-8.219-6.727-8.219-8.218 0-1.498-2.238-33.625-2.238-33.625s-.749 38.109-.749 39.598c0 1.498.749 3.735 5.98 5.233l14.942 2.988h-17.185c-10.459 0-10.459-6.723-10.459-6.723l-2.244-33.625s-.749 33.625-.749 37.36c0 2.988 2.246 5.233 10.466 6.722 5.231 1.498 11.953 2.994 11.953 2.994h-19.426c-9.717-.748-11.214-7.478-11.214-7.478l-16.436-83.686zm.747-41.096c0 20.923-17.186 37.361-37.361 37.361-20.173 0-37.36-17.187-37.36-37.361s17.187-37.36 37.36-37.36c20.175 0 37.361 16.439 37.361 37.36"/><mask id="mask0_420_73" width="79" height="90" x="89" y="88" maskUnits="userSpaceOnUse" style="mask-type:luminance"><path fill="#fff" d="M89.828 88.07h77.344v89.649H89.828z"/></mask><g mask="url(#mask0_420_73)"><mask id="mask1_420_73" width="76" height="103" x="91" y="88" maskUnits="userSpaceOnUse" style="mask-type:luminance"><path fill="#fff" d="m166.636 88.304-4.483 102.372h-67.25L91.167 88.304"/></mask><g mask="url(#mask1_420_73)"><path fill="#EE794B" d="M195.777 109.973c0 36.729-29.773 66.503-66.502 66.503s-66.502-29.774-66.502-66.502c0-36.729 29.774-66.501 66.502-66.501 36.729 0 66.502 29.77 66.502 66.5"/></g></g><mask id="mask2_420_73" width="225" height="225" x="16" y="16" maskUnits="userSpaceOnUse" style="mask-type:luminance"><path fill="#000" fill-opacity=".22" d="M16 16h225v225H16z"/></mask><g mask="url(#mask2_420_73)"><mask id="mask3_420_73" width="225" height="225" x="16" y="16" maskUnits="userSpaceOnUse" style="mask-type:luminance"><path fill="#fff" d="M16 16h225v225H16z"/></mask><g mask="url(#mask3_420_73)"><path fill="#E34E3B" d="M164.398 130.896s4.482-39.605-1.498-54.547c-11.206-26.154-37.36-23.91-37.36-23.91s14.941 5.975 15.69 28.395c.749 15.69 0 38.856 0 38.856z"/></g></g><mask id="mask4_420_73" width="225" height="225" x="16" y="16" maskUnits="userSpaceOnUse" style="mask-type:luminance"><path fill="#000" fill-opacity=".502" d="M16 16h225v225H16z"/></mask><g mask="url(#mask4_420_73)"><mask id="mask5_420_73" width="225" height="225" x="16" y="16" maskUnits="userSpaceOnUse" style="mask-type:luminance"><path fill="#fff" d="M16 16h225v225H16z"/></mask><g mask="url(#mask5_420_73)"><path fill="#FBDFC3" d="M118.811 69.627a5.22 5.22 0 0 1-1.533 3.696 5.226 5.226 0 0 1-8.526-1.7 5.23 5.23 0 0 1 1.136-5.696 5.229 5.229 0 0 1 8.923 3.7"/></g></g><path fill="#010101" d="M141.979 145.837c0 12.704-5.98 20.931-13.451 20.931-7.47 0-13.452-9.718-13.452-22.42 0 0 5.982 11.954 14.199 11.954 8.22 0 12.704-10.465 12.704-10.465"/><path fill="#fff" d="M141.979 145.837c0 8.227-5.98 12.704-13.451 12.704s-12.704-5.975-12.704-13.446c0 0 5.981 7.471 14.2 7.471 8.22 0 11.955-6.729 11.955-6.729"/><path fill="#E9654B" d="M177.842 110.723c0 12.792-10.368 23.159-23.159 23.159-12.794 0-23.168-10.367-23.168-23.159 0-12.793 10.374-23.168 23.168-23.168 12.791 0 23.159 10.375 23.159 23.168m-52.302 0c0 12.792-10.375 23.159-23.168 23.159s-23.16-10.367-23.16-23.159c0-12.793 10.368-23.168 23.162-23.168 12.791 0 23.166 10.375 23.166 23.168"/><path fill="#fff" d="M172.618 110.723c0 9.902-8.034 17.935-17.935 17.935-9.902 0-17.937-8.033-17.937-17.935 0-9.908 8.033-17.935 17.937-17.935 9.9 0 17.935 8.027 17.935 17.935m-53.807 0c0 9.902-8.026 17.935-17.928 17.935-9.909 0-17.935-8.033-17.935-17.935a17.935 17.935 0 0 1 11.071-16.57 17.9 17.9 0 0 1 6.864-1.365c9.902 0 17.928 8.027 17.928 17.935"/><path fill="#010101" d="M106.109 108.478a5.24 5.24 0 0 1-3.226 4.834 5.24 5.24 0 0 1-4.002.002 5.25 5.25 0 0 1-2.832-2.829 5.23 5.23 0 0 1 1.13-5.7 5.231 5.231 0 0 1 8.93 3.693m53.805 0a5.233 5.233 0 0 1-5.23 5.328 5.2 5.2 0 0 1-2.024-.407 5.22 5.22 0 0 1-2.836-2.888 5.23 5.23 0 1 1 10.09-2.033"/><path fill="#B6CFEA" d="M46.336 119.69a3.52 3.52 0 0 1-2.71-1.026 3.52 3.52 0 0 1-1.025-2.709V86.067a3.53 3.53 0 0 1 1.023-2.713 3.53 3.53 0 0 1 2.712-1.023 3.525 3.525 0 0 1 3.736 3.736v29.889a3.538 3.538 0 0 1-3.738 3.736zm162.893 0a3.52 3.52 0 0 1-2.707-1.03 3.52 3.52 0 0 1-1.028-2.705V86.067a3.53 3.53 0 0 1 1.03-2.713 3.52 3.52 0 0 1 2.705-1.023 3.52 3.52 0 0 1 2.705 1.023 3.53 3.53 0 0 1 1.031 2.713v29.889a3.5 3.5 0 0 1-1.031 2.707 3.52 3.52 0 0 1-2.707 1.029z"/><path fill="#fff" d="M106.858 39.738a3.737 3.737 0 0 1-3.735 3.735 3.737 3.737 0 0 1-2.642-6.377 3.737 3.737 0 0 1 6.377 2.642M76.226 140.61a2.74 2.74 0 0 1-2.246-.747c-8.967-11.206-13.451-25.405-13.451-39.605a66.7 66.7 0 0 1 8.968-33.627 73.2 73.2 0 0 1 23.908-23.906 3.29 3.29 0 0 1 3.745.747 3.295 3.295 0 0 1-.751 3.735A60.3 60.3 0 0 0 65.76 99.51a58.86 58.86 0 0 0 12.704 36.619c.749.749.749 2.988-.749 3.735-.747.749-.747.747-1.489.747"/><mask id="mask6_420_73" width="225" height="225" x="16" y="16" maskUnits="userSpaceOnUse" style="mask-type:luminance"><path fill="#000" fill-opacity=".251" d="M16 16h225v225H16z"/></mask><g mask="url(#mask6_420_73)"><mask id="mask7_420_73" width="225" height="225" x="16" y="16" maskUnits="userSpaceOnUse" style="mask-type:luminance"><path fill="#fff" d="M16 16h225v225H16z"/></mask><g mask="url(#mask7_420_73)"><path fill="#E9654B" d="M162.153 175.727v-5.971c-10.459 5.973-21.672 11.953-35.115 11.953-14.949 0-24.664-6.722-34.374-11.953l.741 5.973s11.215 11.962 34.374 11.962c21.671-.749 34.374-11.964 34.374-11.964"/></g></g></g><defs><clipPath id="clip0_420_73"><path fill="#fff" d="M16 16h225v225H16z"/></clipPath></defs></svg>