<svg xmlns="http://www.w3.org/2000/svg" width="256" height="256" fill="none"><g clip-path="url(#clip0_382_469)"><path fill="#25344C" d="M196 0H60C26.863 0 0 26.863 0 60v136c0 33.137 26.863 60 60 60h136c33.137 0 60-26.863 60-60V60c0-33.137-26.863-60-60-60"/><path fill="#F4F2ED" d="M44.683 90.089H62.11l26.139 74.059H71.366l-4.9-15.247H39.237l-4.901 15.247H18zm-1.089 46.287h19.06l-9.258-29.406zm65.347 4.901c.544 3.268 1.633 5.99 2.722 7.624 2.723 3.267 7.079 4.356 13.07 4.356 3.811 0 6.534-.544 9.257-1.089 4.356-1.633 6.535-4.356 6.535-8.713 0-2.178-1.089-4.356-3.268-5.445s-5.445-2.723-10.346-3.267l-8.168-1.634c-7.624-1.634-13.07-3.812-16.337-5.446-4.901-3.267-7.624-8.713-7.624-15.792 0-6.534 2.178-11.98 7.079-16.336C106.762 91.178 113.842 89 123.643 89c8.169 0 14.703 2.178 20.149 5.99s8.713 10.347 8.713 17.97h-14.703c-.545-4.356-2.178-7.623-5.99-9.257-2.723-1.089-5.446-1.634-9.258-1.634-4.356 0-7.623.545-9.802 2.178s-3.811 3.812-3.811 6.535 1.089 4.357 3.811 5.99c1.634 1.089 4.901 1.634 9.802 3.268l13.07 3.267c5.445 1.089 9.802 3.267 13.069 5.445 4.356 3.268 6.535 8.713 6.535 15.248s-2.723 12.525-7.624 16.881c-5.446 4.357-12.525 6.535-22.327 6.535q-14.703 0-22.871-6.535-8.169-6.534-8.169-17.97h14.704zm106.732-51.188H238v74.059h-14.703v-62.079l-14.158 62.079h-15.248l-14.158-62.079v62.079H165.03v-74.06h22.326l15.248 58.268z"/></g><defs><clipPath id="clip0_382_469"><path fill="#fff" d="M0 0h256v256H0z"/></clipPath></defs></svg>