<svg xmlns="http://www.w3.org/2000/svg" fill="none" viewBox="0 0 256 256"><rect width="256" height="256" fill="#F4F2ED" rx="60"/><path fill="url(#gradient-1)" fill-rule="evenodd" d="M220.578 54.178 62.618 174.353C43.221 139.183 36.502 96.756 36 71.309V55.734c0-2.265 2.458-3.587 3.687-3.964 25.997-7.835 78.787-23.731 81.963-24.637 3.177-.906 5.861-1.133 6.808-1.133h.085c.946 0 3.63.227 6.807 1.133 3.176.906 55.966 16.802 81.964 24.637.914.28 2.508 1.084 3.264 2.408" clip-rule="evenodd"/><path fill="url(#gradient-2)" fill-rule="evenodd" d="m62.617 174.549 157.96-120.174a3.1 3.1 0 0 1 .423 1.556v15.575c-.851 43.139-19.57 135.079-87.636 157.734-.945.377-3.176 1.133-4.538 1.133h-.653c-1.361 0-3.593-.756-4.538-1.133-27.916-9.292-47.532-30.237-61.018-54.691" clip-rule="evenodd"/><path fill="url(#gradient-3)" fill-opacity=".21" d="M134.831 27.135c-3.178-.908-5.864-1.135-6.81-1.135l-.284 204.583h.568c1.362 0 3.594-.756 4.54-1.135 68.1-22.7 86.827-114.824 87.678-158.048V55.794c0-2.27-2.459-3.594-3.689-3.973-26.01-7.85-78.825-23.778-82.003-24.686"/><path fill="#E3E2FA" d="M128.786 169.01c23.35 0 42.278-18.802 42.278-41.995S152.136 85.02 128.786 85.02s-42.279 18.802-42.279 41.995 18.929 41.995 42.279 41.995"/><path fill="url(#gradient-4)" fill-rule="evenodd" d="M121.125 136.095c-3.216.284-11.35-1.135-15.323-4.54-4.265-3.657-6.526-8.512-6.526-15.607 0-8.8 7.945-18.16 19.011-17.876 10.511.27 17.6 6.195 19.012 15.606.737 4.912-.014 7.273-.598 9.106-.09.286-.177.558-.253.826-.284.946-.681 3.008 0 3.689.68.681 11.066 10.688 16.173 15.605.473.568 1.419 1.987 1.419 3.122v5.391c0 .851-.227 1.135-1.135 1.135h-11.35c-.662-.094-1.987-.737-1.987-2.553 0-1.936-.206-2.221-.619-2.792a11 11 0 0 1-.232-.33c-.567-.851-1.702-.851-2.837-.851q-1.702 0-2.553-.851c-.568-.568-.568-1.419-.284-2.554s0-2.27-.568-2.554a6 6 0 0 1-.312-.172c-.623-.353-1.616-.918-2.809-.679-1.419.284-3.406 0-4.54-1.135-1.135-1.135-2.554-2.052-3.689-1.986m-7.662-21.565a4.256 4.256 0 1 0 .002-8.512 4.256 4.256 0 0 0-.002 8.512" clip-rule="evenodd"/><linearGradient id="gradient-1" x1="53.309" x2="122.26" y1="111.409" y2="39.336" gradientUnits="userSpaceOnUse"><stop stop-color="#45FFC8"/><stop offset="1" stop-color="#1DBBF1"/></linearGradient><linearGradient id="gradient-2" x1="101.261" x2="186.954" y1="153.12" y2="194.832" gradientUnits="userSpaceOnUse"><stop stop-color="#D14AE8"/><stop offset=".552" stop-color="#B628E3"/><stop offset="1" stop-color="#8315FD"/></linearGradient><linearGradient id="gradient-3" x1="173.902" x2="173.902" y1="45.295" y2="187.454" gradientUnits="userSpaceOnUse"><stop stop-color="#20ABF5"/><stop offset=".398" stop-color="#2A8CC3"/><stop offset="1" stop-color="#A104DC"/></linearGradient><linearGradient id="gradient-4" x1="115.734" x2="150.351" y1="113.962" y2="148.864" gradientUnits="userSpaceOnUse"><stop stop-color="#FE5B01"/><stop offset="1" stop-color="#FFB200"/></linearGradient></svg>