<svg xmlns="http://www.w3.org/2000/svg" width="256" height="256" fill="none"><rect width="256" height="256" fill="#0D6EFD" rx="60"/><path fill="#fff" d="M128.751 100.849c-15.261 0-27.632 12.369-27.632 27.627 0 15.259 12.371 27.628 27.632 27.628s27.632-12.369 27.632-27.628c0-15.258-12.371-27.627-27.632-27.627"/><path fill="#fff" fill-rule="evenodd" d="M194.651 216h-67.684C79.347 215.174 41 176.307 41 128.5 41 80.175 80.182 41 128.516 41c47.548 0 86.239 37.913 87.484 85.153l-.151 71.044C214.589 207.802 205.597 216 194.651 216M72.443 115.923c5.731-25.817 28.768-45.122 56.315-45.122 31.859 0 57.685 25.822 57.685 57.674 0 .24.003.498.007.765.006.551.012 1.133-.007 1.626v54.894h-30.011v-6.667c-8.215 4.5-17.645 7.058-27.674 7.058-27.547 0-50.584-19.306-56.315-45.123 5.487-1.538 9.51-6.575 9.51-12.553 0-5.977-4.023-11.014-9.51-12.552m-3.807 21.745c5.098 0 9.231-4.133 9.231-9.23s-4.133-9.229-9.23-9.229a9.23 9.23 0 1 0-.001 18.459" clip-rule="evenodd"/></svg>