<svg xmlns="http://www.w3.org/2000/svg" fill="none" viewBox="0 0 256 256"><g clip-path="url(#clip0_37_6)"><path fill="#F4F2ED" d="M196 0H60C26.863 0 0 26.863 0 60v136c0 33.137 26.863 60 60 60h136c33.137 0 60-26.863 60-60V60c0-33.137-26.863-60-60-60"/><path fill="url(#paint0_linear_37_6)" d="M226.938 77.653v97.888L177.719 208.5l-76.289-22.713v22.517l-43.186-46.149 125.873 8.05V82.057zm-41.963 4.922L114.353 47.5v23.011L49.497 86.095l-19.434 20.401v46.334l27.815 10.039v-59.375z"/></g><defs><linearGradient id="paint0_linear_37_6" x1="128.5" x2="128.5" y1="207.994" y2="47.799" gradientUnits="userSpaceOnUse"><stop stop-color="#0078D4"/><stop offset=".16" stop-color="#1380DA"/><stop offset=".53" stop-color="#3C91E5"/><stop offset=".82" stop-color="#559CEC"/><stop offset="1" stop-color="#5EA0EF"/></linearGradient><clipPath id="clip0_37_6"><path fill="#fff" d="M0 0h256v256H0z"/></clipPath></defs></svg>