<svg xmlns="http://www.w3.org/2000/svg" fill="none" viewBox="0 0 256 256"><rect width="256" height="256" fill="#2E5BDC" rx="60"/><path fill="#fff" d="M132.187 105.134V36H74v183.901h50.299c2.353.279 4.705.411 7.205.411 31.729 0 57.496-25.852 57.496-57.659a57.545 57.545 0 0 0-56.813-57.527zm-6.925.419a57.37 57.37 0 0 0-44.33 29.866v-92.51h44.33zm-44.33 84.621a58.3 58.3 0 0 0 22.437 22.809H80.933zm50.564 23.229c-27.84 0-50.563-22.677-50.563-50.61 0-28.065 22.723-50.75 50.563-50.75 27.855 0 50.579 22.677 50.579 50.75.14 27.933-22.592 50.61-50.571 50.61z"/></svg>