<svg xmlns="http://www.w3.org/2000/svg" width="256" height="256" fill="none"><path fill="#F4F2ED" d="M196 0H60C26.863 0 0 26.863 0 60v136c0 33.137 26.863 60 60 60h136c33.137 0 60-26.863 60-60V60c0-33.137-26.863-60-60-60"/><path fill="#D80C9C" fill-rule="evenodd" d="M179.973 33.203c5.91-1.852 11.712-1.564 17.407.854 4.272 1.564 8.653 4.381 13.137 8.436q5.66 5.448 9.185 10.894 4.166 7.268 4.272 13.35c.216 4.418-.925 8.615-3.417 12.604q-2.67 4.382-7.797 8.544-6.407 5.127-16.448 9.721-11.32 4.806-26.702 8.224a208 208 0 0 1-10.787 1.923c7.192 2.561 13.707 6.195 19.545 10.894q7.905 6.515 13.135 16.13a57.5 57.5 0 0 1 6.09 18.261q3.205 19.763-2.136 34.287-1.603 4.163-3.631 7.156c3.915 4.202 6.372 7.617 7.369 10.255q.747 2.241.107 2.987-.747.644-2.99-.214c-2.561-.854-5.875-3.166-9.931-6.942l-.32.213q-3.525 2.778-7.05 3.847-3.95 1.389-7.476 1.494c-4.202.07-8.758-.923-13.671-2.987q-5.017-2.246-10.465-6.194-7.263-5.235-15.273-14.099a153 153 0 0 1-17.73-24.994q-2.883-5.126-5.767-11.64-.001 9.4-2.989 23.818-3.31 14.845-8.33 26.592-4.272 9.825-9.72 16.555-3.739 4.698-8.544 7.585c-3.916 2.561-8.188 3.738-12.817 3.52q-6.514-.533-13.032-4.588-4.166-2.352-10.894-9.187-6.196-6.94-8.438-13.242-3.309-8.443-.748-17.409 2.03-7.48 9.079-15.596 5.34-6.087 13.669-12.283c8.474-6.267 19.797-12.85 33.964-19.759l1.175-.638h-.319q-9.185-1.39-17.088-8.974-4.7-5.019-7.586-10.785-3.525-8.119-3.095-15.487l.107-.854q-4.273-2.885-8.865-2.137c-.284-.07-.604-.038-.961.105-.641.218-.998.32-1.068.32l-1.71.43c-.283.14-1.138.534-2.562 1.173q-1.602 1.068-2.777 1.281l-.853.11q-.215-.212-.215-.855c0-.855.356-2.027 1.068-3.525a22 22 0 0 1 2.352-2.775c.07-.07.747-.572 2.027-1.497a18 18 0 0 1 1.283-.748q.855-.532 1.496-.638 2.669-.75 3.738-.855h4.272q2.458.425 4.486 1.282 1.175-3.311 4.7-8.436c2.206-3.063 4.663-5.558 7.369-7.476q2.562-1.819 4.163-2.457-1.067-3.954.216-7.796 1.066-3.95 3.631-6.518c2.277-2.42 4.843-3.7 7.69-3.843q2.137-.106 3.418.64l.534.533-.425.752q-.214.32-2.136 1.816-2.884 2.776-3.738 4.486c-1.64 2.56-2.1 5.16-1.389 7.797q5.981-.645 12.069 1.602 5.874 2.346 10.894 6.728 5.127 4.59 8.224 10.997 3.526 6.734 3.848 14.205.213 1.816-.321 4.702l4.486-1.068c-.071-1.286.179-2.991.75-5.127q1.173-4.17 3.311-8.758 10.36-21.257 19.865-34.178 6.302-8.335 12.39-13.67c5.186-4.493 10.42-7.452 15.69-8.874m14.632 7.905q-6.303-2.35-12.71-.429-5.767 1.602-12.496 7.585-5.341 4.591-11.108 12.497-8.545 11.746-18.798 32.68-2.244 4.7-4.699 8.119-.64.86-1.175 1.602l2.991.109q8.114.322 15.7 2.35 9.506-1.923 16.555-3.847 14.418-4.164 25.313-9.504 8.974-4.38 14.739-9.398c5.981-5.34 8.685-10.72 8.117-16.13-.214-2.916-1.425-6.159-3.631-9.717-1.564-2.495-4.234-5.554-8.011-9.188-3.774-3.277-7.369-5.517-10.787-6.729m-60.24 86.726a58 58 0 0 0-4.698 4.589l-3.204 3.313q-3.205 3.736-4.272 3.629-.215 0-.216-1.068.107-1.602 1.068-4.806.535-1.386 2.136-4.486a57 57 0 0 1 4.273-5.979c2.279-2.779 6.194-6.479 11.748-11.11l-14.632-.959-9.079-.854c-.711-.714-1.211-2.098-1.495-4.164l-.427-5.34q-.214-5.664-2.884-11a31.2 31.2 0 0 0-6.515-8.759q-3.953-3.53-8.438-5.236-4.7-1.6-8.971-1.068c-4.984.573-9.472 3.489-13.458 8.758q-2.564 3.312-3.954 6.627-1.173 2.987-1.493 6.942c-.572 8.045 2.066 15.341 7.902 21.895q6.197 6.94 13.884 8.861 5.234 1.39 10.363.109l3.097-.534.425 4.058q3.844 11.216 12.498 24.779 8.546 12.922 18.476 23.284c2.849 2.845 5.483 5.34 7.903 7.476q.215-2.776.641-4.486c1.284-5.629 4.236-11.573 8.865-17.841q5.019-6.94 11.108-11.853c6.408-5.199 12.853-8.685 19.331-10.467a7.5 7.5 0 0 1 1.816-.213q-1.066-2.35-1.816-3.525c-1.922-3.7-4.413-7.122-7.476-10.255-.854.217-2.029.463-3.525.751-5.41.851-10.571 2.955-15.486 6.3q-4.377 2.884-9.826 8.224-3.417 3.524-10.04 12.603-2.562 3.949-3.845 5.34l-.961.855c-.141-.141-.214-.573-.214-1.282q.001-2.565 1.386-6.838 2.994-8.117 8.545-15.166a55 55 0 0 1 10.467-10.256q7.37-5.126 14.846-7.367-7.264-4.701-16.662-7.367l-.216.104a1789 1789 0 0 1-9.826 7.906c-3.339 2.634-5.725 4.59-7.149 5.876m52.123 22.212c-5.27 1.427-10.822 4.272-16.662 8.544a91.6 91.6 0 0 0-10.68 10.255q-6.732 7.906-10.147 14.953l-2.243 4.272-.109.534q.428.426 4.7 3.418 5.019 3.312 9.399 5.127 6.085 2.458 10.68 2.136c4.057-.355 7.513-1.782 10.36-4.272q4.274-3.526 6.729-10.572 4.484-12.711 1.386-30.226l-1.386-5.34a4.5 4.5 0 0 1-2.027 1.171m-79.25-7.045c-1.354-3.634-2.352-7.084-2.99-10.36-2.136 2.206-5.768 4.517-10.895 6.942q-20.4 9.931-32.895 18.905-7.905 6.087-12.497 11.105c-3.776 4.413-6.23 8.615-7.37 12.603-1.283 4.413-1.104 8.654.535 12.708 1.138 3.349 3.381 6.942 6.726 10.789 3.702 3.847 6.802 6.55 9.295 8.12q5.125 3.203 9.826 3.52c3.133.07 6.09-.709 8.864-2.35q3.631-2.135 7.156-6.088 5.128-6.302 9.295-14.843 5.232-10.684 9.503-25.209a268 268 0 0 0 5.449-25.633v-.209z" clip-rule="evenodd"/></svg>