<svg xmlns="http://www.w3.org/2000/svg" fill="none" viewBox="0 0 256 256"><path fill="#282828" d="M196 0H60C26.863 0 0 26.863 0 60v136c0 33.137 26.863 60 60 60h136c33.137 0 60-26.863 60-60V60c0-33.137-26.863-60-60-60"/><path fill="#F4F2ED" d="M166.982 128.568c29.245-40.347 5.715-81.8-27.618-95.338C103.005 18.462 55.844 43.514 54 90.455V226h79.187c38.198-11.594 36.042-43.655 24.817-60.785-29.53-36.611-83.717-3.56-66.543 38.059l10.881-6.1-11.28 26.189-27.928-4.277 9.836-5.48c-13.174-25.052-5.797-60.257 22.875-77.183-39.562-16.609-42.031-86.132 17.172-94.14 32.494-4.395 73.583 38.401 42.493 79.715l6.124 4.634-21.743.038-5.688-20.966 7.268 5.319c24.371-35.996-24.766-69.486-49.532-38.633-8.673 10.805-11.724 33.096 8.827 46.677 6.508 4.162 24.518 6.796 39.116 10.46 7.742 1.943 17.751 7.6 21.349 10.504 28.718 24.261 34.015 56.528 11.755 85.969h17.227c22.395-31.909 11.065-78.321-23.231-97.432"/></svg>