<svg xmlns="http://www.w3.org/2000/svg" width="256" height="256" fill="none"><path fill="#000B1D" d="M196 0H60C26.863 0 0 26.863 0 60v136c0 33.137 26.863 60 60 60h136c33.137 0 60-26.863 60-60V60c0-33.137-26.863-60-60-60"/><path fill="#fff" d="M47 178.3V76.1c0-1 .3-1.5 1-1.6 1.8-.1 4.6-.2 8.4-.2s7.8-.1 12.2-.2S77 74 80.7 74c8.8 0 15.8 1 21 2.9a31.5 31.5 0 0 1 12 7.3 22.8 22.8 0 0 1 5.6 9.3 29.6 29.6 0 0 1 1.4 8.9 25.2 25.2 0 0 1-1.6 9.4 21.9 21.9 0 0 1-3.9 6.8 18.1 18.1 0 0 1-4.3 4 34.7 34.7 0 0 1 6.4 4.4 24.8 24.8 0 0 1 6 8 27.9 27.9 0 0 1 2.6 12.4 28.5 28.5 0 0 1-5.4 17.1A34.4 34.4 0 0 1 105 176c-6.7 2.7-14.7 4.1-24.1 4.1H70.3c-3.4 0-6.5 0-9.3-.1s-5.3-.1-7.4-.2-3.9-.1-5.4-.1c-.8 0-1.2-.5-1.2-1.4m21.7-85.1v22.4h10.9c2.9 0 5.7.1 8.5.2a30.5 30.5 0 0 1 6 .6 16.1 16.1 0 0 0 3.5-4.3 14.2 14.2 0 0 0 1.4-6.4 11.4 11.4 0 0 0-2.1-7.1 13 13 0 0 0-6-4.1 31.6 31.6 0 0 0-10.1-1.4h-4.7c-1.4 0-2.7 0-3.8.1-1.1-.1-2.3 0-3.6 0m0 41.3v26.6c1.8.1 3.6.2 5.5.2s4 .1 6.6.1a42 42 0 0 0 11.7-1.4 15.2 15.2 0 0 0 7.6-4.5 11.5 11.5 0 0 0 2.6-7.6 13.64 13.64 0 0 0-2.1-7.6c-1.4-2.1-4-3.7-7.7-4.7a34 34 0 0 0-4.4-.8c-1.96-.2-3.93-.3-5.9-.3zm121.9 11.2h-31.7a20.35 20.35 0 0 0 3.1 8.5 15.86 15.86 0 0 0 7.3 6 30.9 30.9 0 0 0 12.8 2.3 60 60 0 0 0 10.4-.9 44.2 44.2 0 0 0 9.4-2.8c.5-.4.8-.2.8.8v15.3c-.018.407-.085.81-.2 1.2a2.3 2.3 0 0 1-.7.7 46.2 46.2 0 0 1-10.5 3.5 67.5 67.5 0 0 1-14.2 1.2c-7.6 0-14-1.2-19.2-3.5a33.7 33.7 0 0 1-12.6-9.5 36.7 36.7 0 0 1-6.9-13.1 51.8 51.8 0 0 1 .4-30.5 40.8 40.8 0 0 1 7.5-13.7 36.2 36.2 0 0 1 12.1-9.5 38.54 38.54 0 0 1 16.7-3.5 36.1 36.1 0 0 1 15.5 3.1 27.54 27.54 0 0 1 10.5 8.3 36.6 36.6 0 0 1 6 11.4 39.3 39.3 0 0 1 1.9 12.2c0 2.4-.1 4.5-.2 6.4s-.3 3.3-.4 4.2a1.49 1.49 0 0 1-1.4 1.3c-.6 0-1.7.1-3.3.2a47 47 0 0 1-5.8.3c-2.3 0-4.7.1-7.3.1M158.9 130H180c2.6 0 4.5 0 5.7-.1q1.157-.019 2.3-.2v-1a11.5 11.5 0 0 0-.6-3.7 13.236 13.236 0 0 0-13-9.2 14.08 14.08 0 0 0-13.3 7.6 19.8 19.8 0 0 0-2.2 6.6"/></svg>