<svg xmlns="http://www.w3.org/2000/svg" width="256" height="256" fill="none"><rect width="256" height="256" fill="#F4F2ED" rx="60"/><path fill="#4683EA" d="m71.95 207.94-40.994-71.008a17.96 17.96 0 0 1 0-17.958L71.95 47.967a17.96 17.96 0 0 1 15.555-8.98h81.99a17.96 17.96 0 0 1 15.553 8.98l40.995 71.007a17.96 17.96 0 0 1 0 17.96l-40.995 71.006a17.97 17.97 0 0 1-15.553 8.979h-81.99a17.97 17.97 0 0 1-15.555-8.979"/><path fill="#000" d="m214.753 163.061-60.289-60.292-25.963-6.948-23.322 8.668-9.006 23.465 7.242 26.126 63.933 63.933 13.567-.603z" opacity=".075"/><path fill="#FFF" d="M128.501 91.728c-20.006 0-36.225 16.219-36.225 36.226 0 20.005 16.219 36.224 36.225 36.224 20.005 0 36.222-16.219 36.222-36.224 0-20.007-16.218-36.226-36.222-36.226m0 63.71c-15.18 0-27.487-12.306-27.487-27.486s12.307-27.485 27.487-27.485 27.486 12.307 27.486 27.487-12.307 27.484-27.486 27.484"/><path fill="#FFF" d="M111.306 126.554v11.26a20 20 0 0 0 6.84 6.989v-18.249zm13.564-9.492v30.315c1.163.214 2.353.343 3.576.343 1.115 0 2.202-.117 3.269-.295v-30.363zm14.197 14.171v13.372a20 20 0 0 0 6.844-7.34v-6.03zm15.5 19.033-3.753 3.756a1.7 1.7 0 0 0 0 2.4l14.235 14.231a1.703 1.703 0 0 0 2.401 0l3.753-3.752a1.71 1.71 0 0 0 0-2.398l-14.237-14.237a1.7 1.7 0 0 0-2.399 0"/></svg>