<svg xmlns="http://www.w3.org/2000/svg" fill="none" viewBox="0 0 256 256"><path fill="#282828" d="M196 0H60C26.863 0 0 26.863 0 60v136c0 33.137 26.863 60 60 60h136c33.137 0 60-26.863 60-60V60c0-33.137-26.863-60-60-60"/><path fill="#5C2D91" d="M232.534 93.487a123.2 123.2 0 0 1-41.277 74.011 122.74 122.74 0 0 1-79.236 29.732 89 89 0 0 1-17.614-1.062 53.95 53.95 0 0 1-31.442-17.545 54.16 54.16 0 0 1-13.45-33.45 52.6 52.6 0 0 1 15.293-36.882 52.36 52.36 0 0 1 36.754-15.444 52.36 52.36 0 0 1 36.968 14.921 52.58 52.58 0 0 1 15.811 36.661c.221 8.701-3.542 16.341-11.28 16.562-8.268 0-12.137-5.913-12.137-13.871v-22.129a13.57 13.57 0 0 0-3.92-9.56 13.5 13.5 0 0 0-9.507-4.01H98.983a32.2 32.2 0 0 0-15.437 3.83 32.25 32.25 0 0 0-11.728 10.762 32.35 32.35 0 0 0-2.507 30.784 32.3 32.3 0 0 0 9.832 12.525 32.18 32.18 0 0 0 30.447 4.807 32.2 32.2 0 0 0 13.198-8.889l.645-.974.654 1.071a22.8 22.8 0 0 0 8.555 7.083 22.75 22.75 0 0 0 10.878 2.194 25.68 25.68 0 0 0 17.367-8.601 25.78 25.78 0 0 0 6.439-18.309 70.2 70.2 0 0 0-1.917-17.11 65.55 65.55 0 0 0-25.695-39.303 65.3 65.3 0 0 0-45.342-11.968 65.36 65.36 0 0 0-41.683 21.517 65.62 65.62 0 0 0-16.6 43.943 66.43 66.43 0 0 0 19.084 45.822 66.16 66.16 0 0 0 45.47 19.726s4.85.443 10.309.31a139.4 139.4 0 0 0 74.862-22.378c.318-.221.636.222.424.54a109.9 109.9 0 0 1-38.935 27.002 109.7 109.7 0 0 1-46.66 8.078 77.1 77.1 0 0 1-30.456-5.671 77.2 77.2 0 0 1-25.784-17.207A77.4 77.4 0 0 1 27.44 175.03a77.55 77.55 0 0 1-5.413-30.565 80.2 80.2 0 0 1 8.484-35.88 80.06 80.06 0 0 1 23.625-28.27 78.2 78.2 0 0 1 46.189-15.278h24.849a69.8 69.8 0 0 0 28.186-5.969 69.9 69.9 0 0 0 23.391-16.85.985.985 0 0 1 1.582.168c.104.179.15.386.132.592a70.3 70.3 0 0 1-10.838 31.416.94.94 0 0 0-.124.53.98.98 0 0 0 1.192.877 75.1 75.1 0 0 0 31.243-15.35 75.3 75.3 0 0 0 20.989-27.812 1.323 1.323 0 0 1 1.784-.47c.196.115.36.276.477.47a95.62 95.62 0 0 1 9.346 60.848m-131.961 31.22a19.3 19.3 0 0 0-10.738 3.264 19.36 19.36 0 0 0-7.118 8.692 19.4 19.4 0 0 0-1.1 11.191 19.4 19.4 0 0 0 5.29 9.916 19.3 19.3 0 0 0 21.063 4.199 19.34 19.34 0 0 0 8.673-7.134 19.4 19.4 0 0 0 3.257-10.76V126a1.397 1.397 0 0 0-1.325-1.328z"/></svg>