<svg xmlns="http://www.w3.org/2000/svg" width="256" height="256" fill="none"><path fill="#282828" d="M196 0H60C26.863 0 0 26.863 0 60v136c0 33.137 26.863 60 60 60h136c33.137 0 60-26.863 60-60V60c0-33.137-26.863-60-60-60"/><path fill="#23B355" d="M160.039 52.372a125 125 0 0 0-8.272-9.777c-9.114-9.687-13.985-11.603-16.85-12.194a23.2 23.2 0 0 0-5.372-.376c-7.699.358-12.963 4.423-17.619 8.004a56.5 56.5 0 0 0-12.14 12.874.86.86 0 0 0-.125.43v46.734a.73.73 0 0 0 .411.663.8.8 0 0 0 .341 0 .68.68 0 0 0 .447-.143l59.09-45.248a.73.73 0 0 0 .089-.967"/><path fill="#02ABAF" d="M201.885 63.76a21.7 21.7 0 0 0-3.582-4.1c-5.694-5.193-12.301-6.053-18.12-6.805a56.5 56.5 0 0 0-17.691.538.6.6 0 0 0-.376.196l-33.019 33.055a.76.76 0 0 0-.179.77.73.73 0 0 0 .609.5l73.754 9.778h.108a.75.75 0 0 0 .734-.645 123 123 0 0 0 1.056-12.767c.412-13.286-1.683-18.067-3.294-20.52"/><path fill="#4998D3" d="M225.986 129.367c-.358-7.7-4.423-12.964-8.004-17.62a56 56 0 0 0-12.874-12.122.74.74 0 0 0-.43-.143h-46.734a.72.72 0 0 0-.663.43.76.76 0 0 0 0 .77l45.248 59.089q.086.121.213.2a.73.73 0 0 0 .567.078.7.7 0 0 0 .259-.135 121 121 0 0 0 9.776-8.272c9.688-9.114 11.603-13.985 12.194-16.85.361-1.784.511-3.605.448-5.425"/><path fill="#8A278A" d="M202.512 162.368a.64.64 0 0 0-.197-.376l-33.036-33.054a.74.74 0 0 0-.36-.199.74.74 0 0 0-.41.02.73.73 0 0 0-.502.608l-9.776 73.755a.75.75 0 0 0 .644.841c4.244.573 8.541.931 12.767 1.074h3.223c10.869 0 15.059-1.79 17.297-3.33a22.2 22.2 0 0 0 4.101-3.581c5.192-5.694 6.052-12.302 6.804-18.121a56.5 56.5 0 0 0-.555-17.637"/><path fill="#ED1557" d="M156.046 157.121a.77.77 0 0 0-.788 0l-59.09 45.248a.735.735 0 0 0-.143 1.039 121 121 0 0 0 8.273 9.776c9.114 9.687 13.984 11.603 16.849 12.194 1.422.277 2.867.415 4.316.412h1.092c7.699-.34 12.964-4.405 17.619-8.004a55.8 55.8 0 0 0 12.14-12.874.86.86 0 0 0 .126-.43v-46.734a.74.74 0 0 0-.394-.627"/><path fill="#F05223" d="M127.163 168.348a.73.73 0 0 0-.608-.502l-73.754-9.83a.753.753 0 0 0-.842.645 128 128 0 0 0-1.074 12.766c-.394 13.287 1.79 18.085 3.312 20.521a21.7 21.7 0 0 0 3.581 4.1c5.694 5.193 12.302 6.052 18.121 6.804 2.375.31 4.767.466 7.162.466a57.4 57.4 0 0 0 10.583-1.003.65.65 0 0 0 .376-.197l33.054-33.054a.74.74 0 0 0 .089-.716"/><path fill="#F7AA1B" d="M98.658 155.098 53.41 96.009a.733.733 0 0 0-1.039-.143 125 125 0 0 0-9.776 8.272c-9.687 9.114-11.603 13.985-12.194 16.85a23.3 23.3 0 0 0-.376 5.371c.358 7.7 4.404 12.964 8.004 17.62a56.5 56.5 0 0 0 12.874 12.14.86.86 0 0 0 .43.125h46.734a.74.74 0 0 0 .662-.412.77.77 0 0 0-.071-.734"/><path fill="#A6CE38" d="M97.207 51.798a123 123 0 0 0-12.767-1.056c-13.286-.412-18.067 1.683-20.52 3.295a22 22 0 0 0-4.1 3.58c-5.193 5.695-6.053 12.302-6.805 18.122a56.6 56.6 0 0 0 .538 17.69c.021.15.09.288.197.394l33.054 33.037a.72.72 0 0 0 .519.215.6.6 0 0 0 .25 0 .74.74 0 0 0 .502-.609l9.777-73.754a.75.75 0 0 0-.645-.914"/></svg>