<svg xmlns="http://www.w3.org/2000/svg" fill="none" viewBox="0 0 256 256"><g clip-path="url(#clip0_139_11)"><path fill="#F4F2ED" d="M196 0H60C26.863 0 0 26.863 0 60v136c0 33.137 26.863 60 60 60h136c33.137 0 60-26.863 60-60V60c0-33.137-26.863-60-60-60"/><g clip-path="url(#clip1_139_11)"><path fill="url(#paint0_linear_139_11)" fill-rule="evenodd" d="m208.657 75.076 4.804-11.777s-6.114-6.542-13.538-13.957-23.145-3.053-23.145-3.053L158.873 26H95.989L78.085 46.289s-15.722-4.362-23.145 3.053c-7.424 7.415-13.538 13.957-13.538 13.957l4.804 11.777-6.114 17.447s17.98 68.022 20.088 76.329c4.149 16.357 6.987 22.681 18.778 30.968 11.79 8.288 33.189 22.681 36.682 24.862s7.861 5.896 11.791 5.896 8.297-3.715 11.791-5.896 24.892-16.574 36.683-24.862c11.79-8.287 14.629-14.611 18.778-30.968 2.106-8.307 20.088-76.33 20.088-76.33z" clip-rule="evenodd"/><path fill="#fff" fill-rule="evenodd" d="M171.756 59.156s23.03 27.805 23.03 33.748-2.897 7.512-5.81 10.601l-17.268 18.314c-1.634 1.733-5.035 4.36-3.034 9.089 2 4.728 4.952 10.745 1.67 16.848s-8.905 10.176-12.508 9.503c-3.602-.674-12.063-5.09-15.175-7.107s-12.973-10.141-12.973-13.249 10.194-8.688 12.077-9.956c1.884-1.268 10.474-6.175 10.65-8.101.175-1.927.109-2.491-2.426-7.251s-7.101-11.111-6.341-15.338c.76-4.225 8.123-6.422 13.377-8.404 5.253-1.982 15.37-5.725 16.633-6.307 1.264-.582.938-1.136-2.891-1.499-3.828-.362-14.691-1.802-19.588-.439-4.898 1.364-13.265 3.438-13.943 4.538s-1.276 1.137-.579 4.932c.695 3.794 4.279 22.003 4.626 25.237s1.029 5.372-2.463 6.17c-3.491.797-9.369 2.181-11.389 2.181s-7.897-1.384-11.389-2.181-2.811-2.936-2.463-6.17 3.931-21.443 4.627-25.237c.696-3.795.098-3.832-.579-4.932-.678-1.1-9.046-3.174-13.943-4.538-4.898-1.363-15.76.077-19.589.44-3.828.362-4.154.916-2.89 1.498s11.38 4.325 16.633 6.307c5.254 1.982 12.617 4.179 13.377 8.404.759 4.227-3.806 10.578-6.341 15.338s-2.602 5.324-2.426 7.251c.175 1.926 8.766 6.833 10.649 8.101 1.884 1.268 12.077 6.848 12.077 9.956s-9.861 11.231-12.972 13.249c-3.112 2.017-11.573 6.433-15.176 7.107-3.602.673-9.225-3.4-12.507-9.503s-.33-12.12 1.67-16.848c2-4.729-1.4-7.356-3.035-9.089l-17.268-18.314c-2.912-3.089-5.81-4.658-5.81-10.6 0-5.944 23.03-33.75 23.03-33.75s19.434 3.708 22.054 3.708 8.297-2.18 13.537-3.925 8.734-1.758 8.734-1.758 3.494.013 8.734 1.758c5.241 1.744 10.918 3.925 13.538 3.925s22.053-3.707 22.053-3.707m-17.264 106.362c1.425.892.556 2.573-.743 3.489-1.298.917-18.749 14.414-20.443 15.906s-4.183 3.956-5.875 3.956-4.181-2.464-5.875-3.956-19.144-14.989-20.443-15.906-2.168-2.597-.742-3.489 5.886-3.14 12.04-6.321 13.823-5.885 15.02-5.885 8.867 2.705 15.021 5.885c6.154 3.181 10.614 5.43 12.04 6.321" clip-rule="evenodd"/><path fill="url(#paint1_linear_139_11)" d="M176.778 46.289 158.874 26H95.989L78.085 46.29s-15.722-4.362-23.145 3.053c0 0 20.961-1.89 28.167 9.814 0 0 19.433 3.707 22.053 3.707s8.297-2.18 13.537-3.925 8.734-1.758 8.734-1.758 3.494.013 8.734 1.758c5.241 1.744 10.918 3.925 13.538 3.925s22.053-3.707 22.053-3.707c7.206-11.704 28.167-9.814 28.167-9.814-7.424-7.415-23.145-3.053-23.145-3.053"/></g></g><defs><linearGradient id="paint0_linear_139_11" x1="40.092" x2="17508" y1="10399.2" y2="10399.2" gradientUnits="userSpaceOnUse"><stop stop-color="#F50"/><stop offset=".41" stop-color="#F50"/><stop offset=".582" stop-color="#FF2000"/><stop offset="1" stop-color="#FF2000"/></linearGradient><linearGradient id="paint1_linear_139_11" x1="366.428" x2="14553.3" y1="1895.15" y2="1895.15" gradientUnits="userSpaceOnUse"><stop stop-color="#FF452A"/><stop offset="1" stop-color="#FF2000"/></linearGradient><clipPath id="clip0_139_11"><path fill="#fff" d="M0 0h256v256H0z"/></clipPath><clipPath id="clip1_139_11"><path fill="#fff" d="M40 26h175v205H40z"/></clipPath></defs></svg>