<svg xmlns="http://www.w3.org/2000/svg" fill="none" viewBox="0 0 256 256"><rect width="256" height="256" fill="#4AB2B0" rx="60"/><path fill="#F3C14B" d="M196 0H60C26.863 0 0 26.863 0 60v136c0 33.137 26.863 60 60 60h136c33.137 0 60-26.863 60-60V60c0-33.137-26.863-60-60-60"/><circle cx="128" cy="128" r="92" fill="#fff"/><circle cx="128.5" cy="127.5" r="84.5" fill="#F3C14B"/><path fill="#fff" d="m180.846 74.923-53.077 52.846V90.615l15.462-15.461h37.615zm-53.077 52.846 53.077 53.077v-37.384l-15.692-15.693zm-15.461 53.077 15.461-15.461v-37.616l-52.846 53.077zm-37.385-68.538 15.462 15.461h37.384L74.923 74.923z"/></svg>