<svg xmlns="http://www.w3.org/2000/svg" width="256" height="256" fill="none"><path fill="#000B1D" d="M196 0H60C26.863 0 0 26.863 0 60v136c0 33.137 26.863 60 60 60h136c33.137 0 60-26.863 60-60V60c0-33.137-26.863-60-60-60"/><path fill="#fff" d="M58.1 179.3 58 77.1c0-1 .3-1.5 1-1.6 1.8-.1 4.6-.2 8.4-.2s7.4-.1 11.8-.2 8.4-.1 12.1-.1c8.8 0 16 .6 21.2 2.6a31.5 31.5 0 0 1 12 7.3 23.45 23.45 0 0 1 5.9 9.3 29.6 29.6 0 0 1 1.4 8.9 25.4 25.4 0 0 1-1.9 9.4 21.9 21.9 0 0 1-3.9 6.8 18.1 18.1 0 0 1-4.3 4 34.7 34.7 0 0 1 6.4 4.4 24.8 24.8 0 0 1 6 8 26 26 0 0 1 2.8 12.2 29.06 29.06 0 0 1-5.6 17.3 34.4 34.4 0 0 1-15.5 11.5 62 62 0 0 1-24.1 4.3H81.1c-3.4 0-6.2 0-9.1-.1s-5.3-.1-7.4-.2-3.9-.1-5.4-.1c-.8 0-1.1-.5-1.1-1.3M79.8 94l.1 22.3h10.5c2.9 0 5.7.1 8.5.2a30.5 30.5 0 0 1 6 .6 16.1 16.1 0 0 0 3.5-4.3 12.2 12.2 0 0 0 1.6-6.2 12.57 12.57 0 0 0-2.4-7.4 13 13 0 0 0-6-4.1 31.8 31.8 0 0 0-10.2-1.3h-4.7c-1.4 0-2.3 0-3.4.1s-2.2.1-3.5.1m.1 41v26.8c1.8.1 3.2.2 5.1.2s4 .1 6.6.1a42 42 0 0 0 11.7-1.4 15.2 15.2 0 0 0 7.6-4.5 12 12 0 0 0 3.1-7.6 13.26 13.26 0 0 0-2.7-7.6c-1.4-2.1-4-3.9-7.7-4.9a34 34 0 0 0-4.4-.8c-1.96-.2-3.93-.3-5.9-.3zm71.3-34.9h17.5a2.25 2.25 0 0 1 2.1 1.6c.413.708.685 1.489.8 2.3.2 1 .4 2.1.5 3.1s.2 2.7.2 4a38.6 38.6 0 0 1 10.7-9c4.3-2.4 8.9-3 14.5-3a1.24 1.24 0 0 1 1.4 1.1v19.6c0 .8-.5 1.1-1.6 1.1a39 39 0 0 0-10.2.7 41 41 0 0 0-8.4 2.7 19 19 0 0 0-5.9 3.7v50.7c0 1-.4 1.4-1.3 1.4h-19a1.38 1.38 0 0 1-1.426-.673 1.4 1.4 0 0 1-.174-.527v-55.4c0-2.4 0-4.9-.1-7.5s-.1-5.2-.2-7.8c-.1-2.3-.3-4.7-.6-7a.9.9 0 0 1 .121-.695.92.92 0 0 1 .579-.405z"/></svg>