<svg xmlns="http://www.w3.org/2000/svg" width="256" height="256" fill="none"><rect width="256" height="256" fill="#F4F2ED" rx="60"/><path fill="#0A8" d="m80.688 60.929 62.504 34.975 20.035-34.653zm19.817 97.27-18.147 35.535H163.7l20.547-35.535z"/><path fill="#0CF" d="m80.688 60.929 62.504 34.975h-42.934l-17.89 30.924 18.137 31.371-18.147 35.525-39.235-67.844z"/><path fill="url(#paint0_linear_105_2)" d="m43.123 125.88 39.244.948 1.091 1.888-39.111-.787z"/><path fill="url(#paint1_linear_105_2)" d="M143.192 95.904 80.688 60.929l-4.743 8.556 47.374 26.23z"/><path fill="url(#paint2_linear_105_2)" d="m99.945 95.581 63.661-35.885-20.575 33.742z"/><path fill="#0A8" d="m100.258 95.904 62.969-34.653-20.035 34.653zM43.123 125.88l57.135-29.976-17.89 30.924z"/><path fill="url(#paint3_linear_105_2)" d="m43.123 125.88 57.135-29.976-3.86-6.024-49.243 28.487z"/><path fill="#0A8" d="m100.258 95.904-19.57-34.975 1.68 65.918z"/><path fill="#0CF" d="m100.505 158.199 63.196 35.535 20.547-35.535z"/><path fill="url(#paint4_linear_105_2)" d="m80.688 60.929-4.752 8.547.455 57.077 5.976.285z"/><path fill="#0A8" d="m82.367 126.838-29.976 14.988 29.976 51.908z"/><path fill="url(#paint5_linear_105_2)" d="M82.367 126.838v66.886l7.342-14.295.57-39.216z"/><path fill="url(#paint6_linear_105_2)" d="m82.367 193.724-2.836-5.075 18.213-35.098 2.751 4.648z"/><path fill="url(#paint7_linear_105_2)" d="m52.4 141.835 29.967-14.997-5.976-.285-25.992 12.399z"/><path fill="#0A8" d="m52.4 141.835 48.095 16.364-18.128-31.361z"/><path fill="url(#paint8_linear_105_2)" d="M100.505 158.199 52.41 141.835l5.218 9.012 39.528 14.324z"/><path fill="url(#paint9_linear_105_2)" d="m100.505 158.199 63.196 35.535 7.579-13.47-40.676-22.416z"/><path fill="#0CF" d="M199.42 157.443c7.462 0 13.51-6.038 13.51-13.485 0-7.448-6.048-13.486-13.51-13.486s-13.51 6.038-13.51 13.486c0 7.447 6.049 13.485 13.51 13.485"/><path fill="url(#paint10_linear_105_2)" d="M199.602 157.303c7.461 0 13.51-6.037 13.51-13.485s-6.049-13.485-13.51-13.485c-7.462 0-13.51 6.038-13.51 13.485 0 7.448 6.048 13.485 13.51 13.485"/><path fill="#0CF" d="M170.971 122.735c5.664 0 10.256-4.584 10.256-10.238s-4.592-10.238-10.256-10.238-10.257 4.584-10.257 10.238 4.592 10.238 10.257 10.238"/><path fill="url(#paint11_linear_105_2)" d="M171.111 122.629c5.665 0 10.257-4.584 10.257-10.238s-4.592-10.238-10.257-10.238c-5.664 0-10.257 4.584-10.257 10.238s4.593 10.238 10.257 10.238"/><path fill="#0CF" d="M185.09 82.28a5.277 5.277 0 0 0 5.282-5.271 5.277 5.277 0 0 0-5.282-5.272 5.277 5.277 0 0 0-5.282 5.272 5.277 5.277 0 0 0 5.282 5.272"/><path fill="url(#paint12_linear_105_2)" d="M185.16 82.227a5.277 5.277 0 0 0 5.282-5.273 5.277 5.277 0 0 0-5.282-5.272 5.277 5.277 0 0 0-5.282 5.272 5.277 5.277 0 0 0 5.282 5.273"/><path fill="url(#paint13_linear_105_2)" d="m100.258 95.904-19.57-34.975 4.98-.067 18.403 32.69z"/><linearGradient id="paint0_linear_105_2" x1="62.206" x2="62.155" y1="124.62" y2="127.96" gradientUnits="userSpaceOnUse"><stop stop-color="#001313"/><stop offset="1" stop-color="#001313" stop-opacity="0"/></linearGradient><linearGradient id="paint1_linear_105_2" x1="112.934" x2="103.009" y1="63.033" y2="81.771" gradientUnits="userSpaceOnUse"><stop stop-color="#020202"/><stop offset="1" stop-color="#020202" stop-opacity="0"/></linearGradient><linearGradient id="paint2_linear_105_2" x1="129.623" x2="126.682" y1="85.406" y2="79.991" gradientUnits="userSpaceOnUse"><stop stop-color="#020202"/><stop offset="1" stop-color="#020202" stop-opacity="0"/></linearGradient><linearGradient id="paint3_linear_105_2" x1="69.531" x2="61.698" y1="126.135" y2="111.782" gradientUnits="userSpaceOnUse"><stop stop-color="#020202"/><stop offset="1" stop-color="#020202" stop-opacity="0"/></linearGradient><linearGradient id="paint4_linear_105_2" x1="89.62" x2="78.494" y1="93.389" y2="93.309" gradientUnits="userSpaceOnUse"><stop stop-color="#020202"/><stop offset="1" stop-color="#020202" stop-opacity="0"/></linearGradient><linearGradient id="paint5_linear_105_2" x1="74.16" x2="86.244" y1="160.713" y2="160.633" gradientUnits="userSpaceOnUse"><stop stop-color="#020202"/><stop offset="1" stop-color="#020202" stop-opacity="0"/></linearGradient><linearGradient id="paint6_linear_105_2" x1="94.869" x2="88.407" y1="182.044" y2="178.779" gradientUnits="userSpaceOnUse"><stop stop-color="#001313"/><stop offset="1" stop-color="#001313" stop-opacity="0"/></linearGradient><linearGradient id="paint7_linear_105_2" x1="66.266" x2="63.91" y1="139.122" y2="134.497" gradientUnits="userSpaceOnUse"><stop stop-color="#020202"/><stop offset="1" stop-color="#020202" stop-opacity="0"/></linearGradient><linearGradient id="paint8_linear_105_2" x1="77.432" x2="70.781" y1="130.995" y2="152.673" gradientUnits="userSpaceOnUse"><stop stop-color="#020202"/><stop offset="1" stop-color="#020202" stop-opacity="0"/></linearGradient><linearGradient id="paint9_linear_105_2" x1="123.622" x2="129.592" y1="180.95" y2="170.663" gradientUnits="userSpaceOnUse"><stop stop-color="#020202"/><stop offset="1" stop-color="#020202" stop-opacity="0"/></linearGradient><linearGradient id="paint10_linear_105_2" x1="200.805" x2="199.395" y1="126.821" y2="148.493" gradientUnits="userSpaceOnUse"><stop stop-color="#008066" stop-opacity="0"/><stop offset="1" stop-color="#0FC"/></linearGradient><linearGradient id="paint11_linear_105_2" x1="172.027" x2="170.957" y1="99.488" y2="115.941" gradientUnits="userSpaceOnUse"><stop stop-color="#008066" stop-opacity="0"/><stop offset="1" stop-color="#0FC"/></linearGradient><linearGradient id="paint12_linear_105_2" x1="185.636" x2="185.085" y1="70.319" y2="78.791" gradientUnits="userSpaceOnUse"><stop stop-color="#008066" stop-opacity="0"/><stop offset="1" stop-color="#0FC"/></linearGradient><linearGradient id="paint13_linear_105_2" x1="87.183" x2="92.766" y1="83.484" y2="80.28" gradientUnits="userSpaceOnUse"><stop stop-color="#001313"/><stop offset="1" stop-color="#001313" stop-opacity="0"/></linearGradient></svg>