<svg xmlns="http://www.w3.org/2000/svg" width="256" height="256" fill="none"><rect width="256" height="256" fill="#282828" rx="60"/><path fill="#FF4A4A" fill-rule="evenodd" d="M115.057 48.15c-55.838 10.126-83.76 73.612-53.923 122.6 5.244 8.608 4.661 8.444 8.83 2.487 5.382-7.691 15.223-18.896 21.953-24.996 12.679-11.491 13.421-12.557 15.387-22.126 3.052-14.853 7.54-20.611 18.246-23.403 14.296-3.728 38.801-.208 38.801 5.575 0 1.039-.315 1.18-1.862.84-5.154-1.134-14.06 2.126-16.819 6.156-1.665 2.431-1.692 4.566-.338 26.269.398 6.382.383 6.47-.85 5.37-6.397-5.706-20.821-3.749-37.939 5.147-9.064 4.711-10.995 6.618-4.361 4.307 16.651-5.799 33.14-6.816 39.787-2.455 10.378 6.81 2.941 34.759-13.536 50.867-4.104 4.012-3.945 4.173 3.683 3.729 53.061-3.089 88.232-57.069 70.377-108.015-12.687-36.2-50.769-59.001-87.436-52.352m16.337 12.21c-7.062 2.56-11.355 10.421-9.759 17.874 3.836 17.91 30.405 15.255 30.405-3.039 0-11.088-10.388-18.553-20.646-14.835" clip-rule="evenodd"/></svg>