<svg xmlns="http://www.w3.org/2000/svg" width="256" height="256" fill="none"><rect width="256" height="256" fill="#282828" rx="60"/><path fill="#53B9FF" d="m68.248 77.995-27.035 27.07 41.694 41.822L41 188.917l26.954 27.088 41.993-42.046 41.764 41.742 27.039-27.071z"/><path fill="#119EFF" d="m137.056 146.889-27.109 27.07 41.764 41.742 27.039-27.071z"/><path fill="#000" fill-opacity=".2" d="m137.056 146.889-27.109 27.07 10.436 10.377z"/><path fill="#53B9FF" d="M174.007 110.032 216 67.986 188.95 41l-41.977 41.96-41.774-41.747-27.033 27.072 110.496 110.636 27.039-27.071z"/><path fill="#119EFF" d="m119.859 110.032 27.109-27.07-41.769-41.75-27.033 27.073z"/><path fill="#000" fill-opacity=".2" d="m119.859 110.032 27.109-27.07-10.436-10.383z"/></svg>