<svg xmlns="http://www.w3.org/2000/svg" fill="none" viewBox="0 0 256 256"><path fill="#000B1D" d="M196 0H60C26.863 0 0 26.863 0 60v136c0 33.137 26.863 60 60 60h136c33.137 0 60-26.863 60-60V60c0-33.137-26.863-60-60-60"/><path fill="#fff" d="M130.437 164.258v16.94a2.4 2.4 0 0 1-.273 1.467 2.25 2.25 0 0 1-1.08.989 40.6 40.6 0 0 1-10.076 2.972c-4.62.473-9.263.671-13.905.593a80 80 0 0 1-19.68-2.776 54.2 54.2 0 0 1-16.151-7.192 50 50 0 0 1-12.519-11.84 55.3 55.3 0 0 1-9.154-16.313 77.3 77.3 0 0 1-4.59-22.126c-.175-10.295 2.466-20.432 7.618-29.234 5.12-9.433 12.804-17.094 22.095-22.025 10.446-5.133 21.87-7.766 33.429-7.704 4.785-.058 9.57.156 14.332.64a38 38 0 0 1 8.879 2.105c.309.242.55.564.699.934s.201.774.15 1.171l.607 19.934c0 1.052-.398 1.402-1.186 1.052a35.6 35.6 0 0 0-9.98-3.07 88 88 0 0 0-13.34-.965c-6.554-.2-13.038 1.436-18.77 4.736-5.288 3.03-9.63 7.564-12.515 13.068a41.7 41.7 0 0 0-4.4 19.733 44.2 44.2 0 0 0 2.116 14.384 33.2 33.2 0 0 0 5.153 10.7 36.4 36.4 0 0 0 9.14 8.319 36 36 0 0 0 9.383 3.947c3.406.859 6.897 1.3 10.402 1.316 4.283 0 9.549-.176 12.875-.527a40.2 40.2 0 0 0 9.388-2.105q.675-.527 1.016-.263a1.42 1.42 0 0 1 .337 1.14m46.406-68.133c7.025-.325 14.005 1.311 20.212 4.736 4.966 2.973 8.947 7.438 11.418 12.804a42.7 42.7 0 0 1 3.721 18.067v33.854q0 3.335.085 6.315c.055 1.99.14 5.429.252 7.535q0 .702-.337.877-7.61 2.984-13.532 4.736a72.4 72.4 0 0 1-11.502 2.455c-3.929.48-7.883.714-11.839.702a44.9 44.9 0 0 1-17.17-3.157c-5.017-2.469-9.308-6.282-12.431-11.044-3.299-4.798-4.965-10.599-4.734-16.488-.196-5.709 1.572-11.304 4.989-15.786 3.602-4.407 8.317-7.687 13.616-9.472a57.3 57.3 0 0 1 19.788-3.157h6.174a27 27 0 0 1 3.808.175v-1.053a12 12 0 0 0-.594-3.069 9.2 9.2 0 0 0-2.283-3.771 12.6 12.6 0 0 0-4.82-2.894 25.1 25.1 0 0 0-8.374-1.141 54.7 54.7 0 0 0-11.886.927 54 54 0 0 0-10.319 3.332 1.5 1.5 0 0 1-1.014 0 .8.8 0 0 1-.405-.344.83.83 0 0 1-.104-.532v-17.716a2 2 0 0 1 .286-1.168c.214-.347.529-.614.9-.762a52 52 0 0 1 12.6-3.947 71 71 0 0 1 13.495-1.014m13.552 69.725.423-18.156c-1.355-.232-4.109-.653-5.35-.771q-1.861-.174-4.567-.176a22.2 22.2 0 0 0-12.937 3.053 8.86 8.86 0 0 0-2.863 3.35 9.24 9.24 0 0 0-.943 4.368 7.63 7.63 0 0 0 1.015 4.648 10.44 10.44 0 0 0 4.734 3.772 20.4 20.4 0 0 0 8.375 1.491 36 36 0 0 0 5.75-.439 59 59 0 0 0 6.363-1.14"/></svg>