<svg xmlns="http://www.w3.org/2000/svg" width="256" height="256" fill="none"><rect width="256" height="256" fill="#91D630" rx="60"/><path fill="#fff" d="M78.871 159.549a27.9 27.9 0 0 0 9.376 13.603 27.755 27.755 0 0 0 31.443 1.993 27.85 27.85 0 0 0 11.011-12.311h50.164c2.725 0 5.387-.27 7.964-.783V177.5a22.53 22.53 0 0 1-6.574 15.91 22.42 22.42 0 0 1-15.873 6.59H44.447a22.42 22.42 0 0 1-15.873-6.59A22.53 22.53 0 0 1 22 177.5v-52.547c0-5.967 2.365-11.69 6.575-15.909a22.42 22.42 0 0 1 15.872-6.591h10.128a41 41 0 0 0-.135 3.339v16.547a40.6 40.6 0 0 0 6.654 22.276 40.43 40.43 0 0 0 17.777 14.934M86.153 56h121.94c5.953 0 11.663 2.37 15.872 6.59a22.53 22.53 0 0 1 6.575 15.91v52.547c0 5.967-2.365 11.69-6.575 15.909a22.42 22.42 0 0 1-15.872 6.591H86.153a22.42 22.42 0 0 1-15.872-6.591 22.53 22.53 0 0 1-6.575-15.909V78.5c0-5.967 2.365-11.69 6.575-15.91A22.42 22.42 0 0 1 86.153 56m60.97 76.644a27.7 27.7 0 0 0 10.749-2.019 27.8 27.8 0 0 0 9.142-6.018 27.9 27.9 0 0 0 8.269-19.834 27.9 27.9 0 0 0-8.269-19.834 27.8 27.8 0 0 0-9.142-6.018 27.8 27.8 0 0 0-10.749-2.019 27.78 27.78 0 0 0-19.434 8.288 27.9 27.9 0 0 0-8.02 19.583 27.9 27.9 0 0 0 8.02 19.584 27.78 27.78 0 0 0 19.434 8.287"/></svg>