<svg xmlns="http://www.w3.org/2000/svg" fill="none" viewBox="0 0 256 256"><path fill="#00005B" d="M196 0H60C26.863 0 0 26.863 0 60v136c0 33.137 26.863 60 60 60h136c33.137 0 60-26.863 60-60V60c0-33.137-26.863-60-60-60"/><path fill="#99F" d="M124.907 164.015v16.6a2.21 2.21 0 0 1-1.3 2.3 43.7 43.7 0 0 1-9.5 2.2c-4.182.483-8.389.716-12.6.7a71 71 0 0 1-17.8-2.2 55.1 55.1 0 0 1-15.4-6.6 45.8 45.8 0 0 1-11.9-10.9 47.5 47.5 0 0 1-7.7-15 63.4 63.4 0 0 1-2.7-19.3c0-10.8 2.4-20.4 7.1-28.6a48.9 48.9 0 0 1 20.1-19.2 65.8 65.8 0 0 1 31.1-7.2c4.2 0 8.3.2 12.5.6 2.892.335 5.741.972 8.5 1.9a2.08 2.08 0 0 1 .8 1.9v18.1c0 1-.4 1.3-1.1 1a35.5 35.5 0 0 0-9.6-2.9 77 77 0 0 0-11.8-.9 37 37 0 0 0-18.5 4.5 29.9 29.9 0 0 0-11.9 12 37.94 37.94 0 0 0-4.2 18.1 39.6 39.6 0 0 0 2 13.2 29 29 0 0 0 5.6 9.8 28.2 28.2 0 0 0 8 6.6 39.5 39.5 0 0 0 9.6 3.6 41.6 41.6 0 0 0 9.9 1.5c3.64.033 7.279-.134 10.9-.5a37 37 0 0 0 8.7-2.2c.4-.3.7-.4 1-.2a1.4 1.4 0 0 1 .2 1.1m37-38v56.4c0 .9-.4 1.3-1.1 1.3h-20.1a1.22 1.22 0 0 1-.932-.254 1.23 1.23 0 0 1-.468-.846v-111.5c0-.7.4-1.1 1.3-1.1h20.3a.94.94 0 0 1 1.1.8v.3l.1 38a45 45 0 0 1 9.3-4.7c3.4-1.2 7.3-1.5 11.8-1.5 3.185.01 6.351.481 9.4 1.4a23.5 23.5 0 0 1 8.8 4.7c2.7 2.4 4.6 5.7 6.2 9.8s2.4 9.5 2.4 16v47.4c0 1-.4 1.4-1.3 1.4h-18.9a1.37 1.37 0 0 1-1.057-.257 1.37 1.37 0 0 1-.543-.943v-45.4a20.6 20.6 0 0 0-1.5-8.5 12.2 12.2 0 0 0-4.2-5.1 13.57 13.57 0 0 0-7.4-1.8 24.4 24.4 0 0 0-7.1 1 26 26 0 0 0-6.1 3.4"/></svg>