<svg xmlns="http://www.w3.org/2000/svg" width="256" height="256" fill="none"><rect width="256" height="256" fill="#F4F2ED" rx="60"/><path fill="#36A2EB" d="M210.922 128.725c-28.246.554-22.362 18.434-42.269 22.957-20.222 4.594-23.414-49.389-43.631-49.389-20.22 0-24.699 52.437-50.017 88.438l-.72 1.02 54.28 31.334 82.359-47.544v-46.816z"/><path fill="#FFCE56" d="M210.922 127.097c-9.455-12.135-15.869-26.087-29.667-26.087-24.42 0-17.994 39.835-44.981 39.835-26.99 0-29.827-42.848-60.402-2.57-9.743 12.834-17.585 27.142-23.743 40.684l76.433 44.124 82.359-47.543z"/><path fill="#FE6184" d="M46.204 143.598c9.266-25.66 13.264-46.443 30.955-46.443 26.985 0 33.411 75.815 56.544 68.102 23.132-7.709 20.562-48.829 56.546-48.829 6.848 0 13.843 4.196 20.673 10.985v48.127l-82.358 47.543-82.361-47.543z" opacity=".8"/><path fill="#E7E9ED" d="M128.499 229.045 41 178.534V77.511L128.499 27 216 77.511v101.023zM51.28 172.6l77.219 44.576L205.72 172.6V83.446L128.499 38.87 51.28 83.446z"/></svg>