<svg xmlns="http://www.w3.org/2000/svg" width="256" height="256" fill="none"><path fill="#282828" d="M196 0H60C26.863 0 0 26.863 0 60v136c0 33.137 26.863 60 60 60h136c33.137 0 60-26.863 60-60V60c0-33.137-26.863-60-60-60"/><g clip-path="url(#clip0_80_13)"><path fill="#fff" d="M127.5 171.23c24.162 0 43.75-19.587 43.75-43.75 0-24.162-19.588-43.75-43.75-43.75s-43.75 19.588-43.75 43.75c0 24.163 19.588 43.75 43.75 43.75"/><path fill="url(#paint0_linear_80_13)" d="M127.5 83.75h75.765A87.48 87.48 0 0 0 127.494 40 87.48 87.48 0 0 0 51.73 83.76l37.882 65.615.034-.009A43.695 43.695 0 0 1 127.5 83.75"/><path fill="#1A73E8" d="M127.5 162.136c19.129 0 34.635-15.507 34.635-34.636 0-19.128-15.506-34.635-34.635-34.635S92.865 108.372 92.865 127.5c0 19.129 15.506 34.636 34.635 34.636"/><path fill="url(#paint1_linear_80_13)" d="M165.385 149.385 127.503 215A87.478 87.478 0 0 0 203.26 83.761h-75.764l-.009.034a43.695 43.695 0 0 1 37.898 65.59"/><path fill="url(#paint2_linear_80_13)" d="M89.615 149.386 51.732 83.772A87.478 87.478 0 0 0 127.51 215l37.882-65.614-.024-.025a43.69 43.69 0 0 1-37.869 21.92 43.69 43.69 0 0 1-37.883-21.895"/></g><defs><linearGradient id="paint0_linear_80_13" x1="51.73" x2="203.265" y1="94.688" y2="94.688" gradientUnits="userSpaceOnUse"><stop stop-color="#D93025"/><stop offset="1" stop-color="#EA4335"/></linearGradient><linearGradient id="paint1_linear_80_13" x1="115.549" x2="191.316" y1="213.83" y2="82.597" gradientUnits="userSpaceOnUse"><stop stop-color="#FCC934"/><stop offset="1" stop-color="#FBBC04"/></linearGradient><linearGradient id="paint2_linear_80_13" x1="136.972" x2="61.205" y1="209.537" y2="78.303" gradientUnits="userSpaceOnUse"><stop stop-color="#1E8E3E"/><stop offset="1" stop-color="#34A853"/></linearGradient><clipPath id="clip0_80_13"><path fill="#fff" d="M40 40h175v175H40z"/></clipPath></defs></svg>