<svg xmlns="http://www.w3.org/2000/svg" width="256" height="256" fill="none"><g clip-path="url(#clip0_183_8)"><path fill="#F4F2ED" d="M196 0H60C26.863 0 0 26.863 0 60v136c0 33.137 26.863 60 60 60h136c33.137 0 60-26.863 60-60V60c0-33.137-26.863-60-60-60"/><g clip-path="url(#clip1_183_8)"><path fill="url(#paint0_linear_183_8)" d="m127.5 128.501 37.89 21.874L127.5 216c48.325 0 87.5-39.175 87.5-87.499a87.07 87.07 0 0 0-11.735-43.75h-75.766z"/><path fill="url(#paint1_linear_183_8)" d="M127.499 41c-32.386 0-60.64 17.608-75.77 43.76l37.88 65.615 37.89-21.874v-43.75h75.766C188.133 58.603 159.882 41 127.499 41"/><path fill="url(#paint2_linear_183_8)" d="M40 128.501C40 176.825 79.175 216 127.5 216l37.89-65.625-37.89-21.874-37.89 21.874-37.88-65.614A87.06 87.06 0 0 0 40 128.499"/><path fill="#fff" d="M171.251 128.501c0 24.162-19.588 43.75-43.751 43.75s-43.75-19.588-43.75-43.75c0-24.163 19.588-43.75 43.75-43.75 24.163 0 43.751 19.587 43.751 43.75"/><path fill="url(#paint3_linear_183_8)" d="M163.048 128.501c0 19.632-15.916 35.547-35.548 35.547s-35.547-15.915-35.547-35.547 15.915-35.547 35.547-35.547 35.548 15.915 35.548 35.547"/></g></g><defs><linearGradient id="paint0_linear_183_8" x1="171.437" x2="171.25" y1="84.57" y2="216" gradientUnits="userSpaceOnUse"><stop stop-color="#AFCCFB"/><stop offset="1" stop-color="#8BB5F8"/></linearGradient><linearGradient id="paint1_linear_183_8" x1="114.81" x2="122.042" y1="42.333" y2="159.918" gradientUnits="userSpaceOnUse"><stop stop-color="#1972E7"/><stop offset="1" stop-color="#1969D5"/></linearGradient><linearGradient id="paint2_linear_183_8" x1="102.695" x2="102.695" y1="84.761" y2="216" gradientUnits="userSpaceOnUse"><stop stop-color="#659CF6"/><stop offset="1" stop-color="#4285F4"/></linearGradient><linearGradient id="paint3_linear_183_8" x1="127.138" x2="127.5" y1="93.089" y2="164.048" gradientUnits="userSpaceOnUse"><stop stop-color="#3680F0"/><stop offset="1" stop-color="#2678EC"/></linearGradient><clipPath id="clip0_183_8"><path fill="#fff" d="M0 0h256v256H0z"/></clipPath><clipPath id="clip1_183_8"><path fill="#fff" d="M40 41h175v175H40z"/></clipPath></defs></svg>