<svg xmlns="http://www.w3.org/2000/svg" fill="none" viewBox="0 0 256 256"><rect width="256" height="256" fill="#282828" rx="60"/><path fill="#F4F2ED" d="M38.128 105.991C48.249 66.911 84.228 38 127.139 38 177.833 38 219 78.46 219 128.376s-41.125 90.375-91.861 90.375c-42.911 0-78.89-28.911-89.011-67.991a3.1 3.1 0 0 1-.128-.878c0-2.385 1.956-4.31 4.38-4.31h37.042a4.39 4.39 0 0 1 3.955 2.511c7.57 16.276 24.284 27.615 43.72 27.615 26.537 0 48.099-21.172 48.099-47.322 0-26.109-21.519-47.322-48.099-47.322-19.393 0-36.107 11.339-43.72 27.615a4.39 4.39 0 0 1-3.955 2.51H42.38c-2.424 0-4.38-1.924-4.38-4.309q0-.44.128-.879m88.969.879c-12.079 0-21.86 9.623-21.86 21.506s9.781 21.506 21.86 21.506 21.859-9.623 21.859-21.506-9.781-21.506-21.859-21.506"/><path fill="#F4F2ED" d="M42.38 145.572h37.042a4.39 4.39 0 0 1 3.955 2.511c7.57 16.276 24.284 27.615 43.72 27.615 26.537 0 48.099-21.172 48.099-47.322 0-26.109-21.519-47.322-48.099-47.322-19.393 0-36.107 11.339-43.72 27.615a4.39 4.39 0 0 1-3.955 2.51H42.38c-2.424 0-4.38-1.924-4.38-4.309q0-.44.128-.879C48.249 66.911 84.228 38 127.139 38 177.833 38 219 78.46 219 128.376s-41.125 90.375-91.861 90.375c-42.911 0-78.89-28.911-89.011-67.991a3.1 3.1 0 0 1-.128-.878c0-2.385 1.956-4.31 4.38-4.31"/></svg>