<svg xmlns="http://www.w3.org/2000/svg" fill="none" viewBox="0 0 256 256"><g clip-path="url(#clip0_1_31)"><path fill="#654BF6" d="M196 0H60C26.863 0 0 26.863 0 60v136c0 33.137 26.863 60 60 60h136c33.137 0 60-26.863 60-60V60c0-33.137-26.863-60-60-60"/><path fill="#F4F2ED" d="M138.5 158.969c16.828 0 30.469-13.641 30.469-30.468 0-16.828-13.641-30.47-30.469-30.47-16.827 0-30.468 13.642-30.468 30.47s13.641 30.468 30.468 30.468m54.898 41.672c2.592 2.593 2.332 6.884-.714 8.925C177.187 219.946 158.547 226 138.493 226s-38.694-6.054-54.191-16.434c-3.046-2.041-3.307-6.332-.714-8.925l22.266-22.267c2.012-2.012 5.134-2.33 7.667-1.032 7.49 3.837 15.978 6.001 24.972 6.001s17.482-2.164 24.972-6.001c2.533-1.298 5.654-.98 7.667 1.032z"/><path fill="#F4F2ED" fill-opacity=".5" d="M192.691 47.435c3.047 2.04 3.307 6.332.714 8.924l-22.266 22.267c-2.012 2.012-5.135 2.33-7.667 1.032-7.491-3.837-15.978-6.002-24.972-6.002-30.289 0-54.844 24.555-54.844 54.845 0 8.993 2.165 17.481 6.002 24.972 1.298 2.532.98 5.654-1.033 7.666L66.36 183.406c-2.592 2.592-6.884 2.332-8.924-.714C47.055 167.194 41 148.554 41 128.501 41 74.653 84.652 31 138.5 31c20.054 0 38.694 6.054 54.191 16.435"/></g><defs><clipPath id="clip0_1_31"><path fill="#fff" d="M0 0h256v256H0z"/></clipPath></defs></svg>