<svg xmlns="http://www.w3.org/2000/svg" fill="none" viewBox="0 0 256 256"><rect width="256" height="256" fill="#F4F2ED" rx="60"/><path fill="url(#gradient)" d="M170.523 158.696a97.55 97.55 0 0 0-2.208-54.525 97.23 97.23 0 0 0-31.131-44.742 86.25 86.25 0 0 1 43.287-11.553 87.3 87.3 0 0 1 17.153 1.692L200 39.985A97 97 0 0 0 180.471 38a96 96 0 0 0-51.963 15.168A96.03 96.03 0 0 0 76.544 38 97.3 97.3 0 0 0 57 39.985l2.376 9.583a87.3 87.3 0 0 1 17.168-1.692 86.4 86.4 0 0 1 43.303 11.537 97.15 97.15 0 0 0-27.464 35.435 97.5 97.5 0 0 0-8.67 44.04 97.5 97.5 0 0 0 11.973 43.253 97.1 97.1 0 0 0 30.062 33.242l2.79 1.922 2.775-1.922c19.538-13.454 33.495-33.618 39.241-56.687zm-46.936 42.58A87.35 87.35 0 0 1 96.78 159.12a87.6 87.6 0 0 1 .641-50.004 97.7 97.7 0 0 0 18.288 22.244 23.95 23.95 0 0 1 7.878 17.798zm4.921-72.147a87.4 87.4 0 0 1-17.444-17.29 24.2 24.2 0 0 1-4.91-14.614c0-5.28 1.725-10.412 4.91-14.614a87 87 0 0 1 17.474-17.429 87.4 87.4 0 0 1 17.644 17.675 23.95 23.95 0 0 1 0 28.628 88.1 88.1 0 0 1-17.674 17.644m4.905 72.147v-52.118a24 24 0 0 1 2.059-9.742 23.9 23.9 0 0 1 5.835-8.056 97.3 97.3 0 0 0 18.272-22.244 87.4 87.4 0 0 1 3.97 26.151 87.6 87.6 0 0 1-7.911 36.295 87.3 87.3 0 0 1-22.225 29.714"/><linearGradient id="gradient" x1="128.5" x2="128.5" y1="38" y2="217.305" gradientUnits="userSpaceOnUse"><stop stop-color="#6833FF"/><stop offset=".25" stop-color="#17EBED"/><stop offset=".75" stop-color="#4A74FA"/><stop offset="1" stop-color="#0A54FF"/></linearGradient></svg>