<svg xmlns="http://www.w3.org/2000/svg" fill="none" viewBox="0 0 256 256"><rect width="256" height="256" fill="#F4F2ED" rx="60"/><path fill="#2185D0" d="M129.879 78.674a1.1 1.1 0 0 0-.367.064.9.9 0 0 0-.296.175.6.6 0 0 0-.17.252.5.5 0 0 0-.014.282l38.523 144.394a100 100 0 0 0 45.172-38.727l-82.086-106.12a.8.8 0 0 0-.323-.236 1.1 1.1 0 0 0-.439-.084" opacity=".3"/><path fill="#2185D0" d="M128 32C72.77 32 28 76.77 28 131.998a100 100 0 0 0 15.27 53.112l83.375-107.787c.599-.779 2.107-.779 2.705 0l83.375 107.791A100 100 0 0 0 228 131.998C228 76.771 183.229 32 128 32"/></svg>