<svg xmlns="http://www.w3.org/2000/svg" width="256" height="256" fill="none"><rect width="256" height="256" fill="#282828" rx="60"/><path fill="#EE4323" d="M97.358 229.967c-12.17-5.279-23.547-18.725-23.58-32.47-.034-14.99 9.412-27.723 21.169-36.072-1.42 5.361-2.18 10.275 1.32 15.073 3.254 4.465 8.951 6.623 14.334 5.461 12.566-2.772 13.144-16.667 5.697-24.768-7.365-8.017-14.498-17.081-11.691-28.701 1.403-5.827 4.97-11.288 9.478-15.189-3.468 9.163 6.39 18.193 12.88 22.692 11.262 7.802 23.613 13.712 33.966 22.858 10.882 9.612 18.924 22.61 17.306 37.7-1.767 16.351-14.68 27.705-29.162 33.449 30.615-6.789 62.27-30.694 62.914-64.824.545-28.087-18.627-49.701-42.372-62.085l-1.238-.68c.644 1.593.858 2.938.842 4.15.214-.897.363-1.81.396-2.756a13.4 13.4 0 0 1-.429 3.337l.033-.581a13.9 13.9 0 0 1-1.751 4.216l.347-.382c-4.739 7.902-17.553 9.612-23.894 1.428-10.188-13.147.215-27.34 1.668-41.268 1.784-17.464-9.115-34.412-22.622-44.555 7.431 12.102-2.362 28.104-10.205 37.035-7.596 8.665-16.843 15.92-25.231 23.788-9.016 8.466-17.686 17.381-25.083 27.308-14.829 19.887-23.894 44.903-17.223 69.704 6.655 24.784 28.006 40.554 52.13 46.132"/></svg>