<svg xmlns="http://www.w3.org/2000/svg" width="256" height="256" fill="none"><rect width="256" height="256" fill="#282828" rx="60"/><path fill="#6359FF" d="M41 178.932V86.761c0-2.555 2.74-4.143 4.937-2.874l79.275 46.082a6.64 6.64 0 0 1 3.291 5.74v92.172c0 2.554-2.74 4.143-4.937 2.873l-79.274-46.075A6.64 6.64 0 0 1 41 178.94z"/><path fill="#FFC806" d="m51.29 70.257 78.036-45.368a6.54 6.54 0 0 1 6.583 0l78.036 45.368c2.74 1.596 2.74 5.58 0 7.176l-78.036 45.368a6.54 6.54 0 0 1-6.583 0L51.289 77.433c-2.74-1.596-2.74-5.58 0-7.176"/><path fill="#0BBFBF" d="M136.731 227.888v-85.475c0-2.554 2.74-4.142 4.937-2.873l72.276 42.023c2.741 1.596 2.741 5.579 0 7.176l-72.276 42.022c-2.197 1.277-4.937-.319-4.937-2.873"/></svg>