<svg xmlns="http://www.w3.org/2000/svg" fill="none" viewBox="0 0 256 256"><rect width="256" height="256" fill="#282828" rx="60"/><path fill="#000" d="M101.711 219.829c-.76-.703-.301-2.526 1.048-4.177.804-.961 2.713-3.674 4.22-6.028 3.372-5.238 4.635-6.487 5.841-5.74.703.445.847 1.205.746 3.975l-.143 3.502 1.435-1.751c2.712-3.531 5.267-6.042 6.128-6.042 1.909 0 2.21 1.263 1.435 5.841-.559 3.359-.559 4.521-.1 5.267 1.306 2.11.201 3.976-2.368 3.976-1.608 0-2.21-1.765-1.808-5.224l.358-3.072-1.162 1.436c-2.655 3.573-5.167 5.74-6.588 5.74s-1.55-.258-2.009-3.214c-.101-.661-.804 0-2.512 2.411-2.138 3.243-3.573 4.104-4.521 3.1"/><path fill="#000" d="M91.852 217.863c-1.005-1.263-1.106-1.866-.905-4.306a13.38 13.38 0 0 1 3.875-8.611c1.436-1.435 2.21-1.909 3.56-1.909a4.2 4.2 0 0 0 2.31-.545c1.019-1.005 3.129 0 4.033 1.75 2.412 5.139-3.315 13.879-9.76 14.74-1.75.287-2.152.144-3.114-1.119m6.688-3.631a9.4 9.4 0 0 0 2.683-6.014c-.1-1.062-.459-1.435-1.564-1.521-2.253-.244-4.306 2.066-5.124 5.841-.574 2.957 1.493 3.861 4.005 1.694"/><path fill="#000" d="M137.104 217.92c-1.435-1.435-1.364-5.985.201-9.3 1.349-3.014 3.315-4.679 9.042-7.994 2.411-1.435 4.176-2.612 3.975-2.871s-1.004-.559-1.765-.904c-1.306-.56-1.608-.359-6.128 3.818-3.517 3.215-4.88 4.88-5.325 6.286-.603 2.11-3.115 4.162-6.688 5.569-2.01.76-2.311 1.105-2.871 3.028-.559 2.21-1.765 3.114-3.372 2.454-1.105-.402-.847-2.253 1.306-8.74a56 56 0 0 0 1.908-6.286c-.1-.101-5.927-1.307-12.916-2.77l-12.817-2.613-12.673-.244c-9.96-.157-12.716-.358-12.716-.861 0-.846 1.249-1.105 9.042-1.808 7.12-.539 14.273-.419 21.37.359 2.612.244 3.359.201 2.957-.259-1.048-1.162-24.327-7.29-26.638-6.989-1.148.158-1.004.301 1.608 2.368 1.708 1.349 2.612 2.354 2.21 2.454-.947.359-12.056-5.525-12.056-6.372 0-.603 1.048-.66 6.688-.402 3.484.17 6.958.52 10.406 1.048a14.6 14.6 0 0 0 4.018.459c.144-.1-.402-.804-1.162-1.435-1.148-1.005-1.35-1.435-1.105-2.871.301-1.664.301-1.664-10.248-9.4-6.286-4.579-10.606-8.095-10.606-8.611 0-1.436-1.263-2.613-3.574-3.474l-2.21-.846-.301-7.995c-.201-4.42-.36-12.414-.402-17.739 0-9.099-.1-9.802-1.163-11.166-1.062-1.363-1.047-1.751-.545-4.305.603-3.258.402-3.66-2.167-3.66s-2.785-.474-1.952-9.257c.46-4.421.861-8.152 1.005-8.253a29.6 29.6 0 0 1 6.53 1.263c.904.259 1.162-.1 1.923-2.87l.847-3.172-1.565-3.473c-1.248-2.77-1.708-3.373-2.454-3.115-1.564.445-2.87-3.315-1.363-4.119.602-.359.358-1.607-1.436-7.491-5.382-17.223-6.185-23.222-3.214-23.323 1.047 0 3.258 2.656 5.525 6.689 3.775 6.63 3.316 6.43 5.741 2.511 5.325-8.611 7.032-10.046 9.501-8.496a5 5 0 0 0 2.253.803c1.436 0 10.047-3.215 14.223-5.382s5.741-2.052 5.54.36c0 1.506-.603 2.252-3.975 5.367l-3.875 3.63.904 3.058c.283 1.18.768 2.301 1.435 3.315a158 158 0 0 0 13.821-8.094c7.334-4.564 13.721-8.239 14.18-8.181a1.15 1.15 0 0 1 .804 1.105c0 .703-2.411 2.512-8.612 6.53-4.779 3.072-8.396 5.741-8.051 5.741a8.3 8.3 0 0 1 1.722 1.206c1.909 1.75 1.435 3.315-2.224 7.176-4.091 4.205-5.756 6.788-9.43 14.251-2.87 5.741-3.617 6.53-7.736 8.612-1.55.76-2.167 1.435-2.167 2.167a3.16 3.16 0 0 1-.803 1.952c-1.005 1.105-2.87 7.549-2.311 8.051a47 47 0 0 0 5.037 1.435 17 17 0 0 1 4.622 1.436c0 .703-3.014 12.113-3.315 12.63-.158.243-.804.301-1.507.143-1.005-.258-1.206-.143-1.163.861q.098 1.223.402 2.411c.301 1.048.56.804 2.267-2.368a66.6 66.6 0 0 1 11.855-14.122 60 60 0 0 1 6.789-4.177 21.2 21.2 0 0 1 9.3-3.014 24.4 24.4 0 0 1 7.693 0c4.305.804 9.845 3.674 12.156 6.229l1.923 2.153h4.823c4.162 0 5.166.201 7.391 1.435a31 31 0 0 1 4.119 2.655 40.4 40.4 0 0 1 7.836 10.262c.861 1.808 1.263 2.311 1.435 1.665a6.9 6.9 0 0 0-1.047-3.215l-1.306-2.368 1.004-1.909c.546-1.105 1.048-2.167 1.148-2.368.101-.201-.301-.201-.904.158s-1.306.402-1.435.143c-1.048-1.047-8.095-14.352-7.894-14.926a17.4 17.4 0 0 1 4.823-1.966 14.6 14.6 0 0 0 4.578-1.808 21 21 0 0 0-.703-2.756 10.8 10.8 0 0 0-3.316-4.837 12.7 12.7 0 0 0-3.214-2.511c-1.106 0-7.593-3.359-9.961-5.167-3.157-2.469-4.305-3.028-10.305-4.88-4.922-1.564-5.166-1.708-5.166-3.014 0-2.612 1.306-3.473 7.032-4.52 2.871-.56 5.483-1.12 5.741-1.163.703-.259-4.564-5.741-8.611-8.942-5.985-4.779-6.129-4.88-6.129-6.142 0-1.852 1.708-3.057 4.119-3.014a11.4 11.4 0 0 1 5.555 2.497l3.573 2.354-4.707-4.765c-4.363-4.478-4.607-4.937-4.607-6.918s.201-2.167 1.249-2.569a1.72 1.72 0 0 0 1.262-1.435c0-1.435 1.651-2.167 4.622-1.765s11.209 4.721 16.993 9.099a22.7 22.7 0 0 0 3.817 2.512 19.4 19.4 0 0 0-1.664-4.622c-1.766-4.09-1.881-4.463-1.163-5.712a3.344 3.344 0 0 1 5.138-.56c2.555 2.01 9.444 14.625 11.31 20.71a74.7 74.7 0 0 1 2.511 17.998c-.1 2.87.201 4.076 2.009 8.798a43 43 0 0 0 2.57 5.927c.244.258 2.87-.301 6.128-1.349a24.8 24.8 0 0 1 6.028-1.435c.402.46-.703 14.74-1.206 15.543a4 4 0 0 1-1.866.904c-.846.201-1.435.503-1.435.646a15.3 15.3 0 0 0 2.009 2.871c1.436 1.607 1.967 2.77 1.723 3.272a3.8 3.8 0 0 0-.259 1.306c0 .301.158 2.21.259 4.306.1 2.095.344 4.678.545 5.74.402 2.311-.301 4.464-4.779 15.228a92.5 92.5 0 0 0-5.626 22.217 35 35 0 0 1-2.21 7.635 15.55 15.55 0 0 0-1.708 6.445c0 2.109.143 2.554.746 2.31a21.3 21.3 0 0 1 5.741-.703 51 51 0 0 1-4.119 4.306l-4.134 4.104 2.871-.961c3.473-1.148 6.989-1.809 6.989-1.206 0 .259-.846.861-1.851 1.435-2.268 1.163-7.348 5.081-5.942 4.579a27.6 27.6 0 0 1 5.038-.546c4.722-.258 4.922-.358-8.612 3.459a166 166 0 0 0-27.197 9.673c-4.305 2.168-4.305 2.268-3.559 3.172s1.148 2.713.603 5.928c-.302 1.765-.259 2.11.445 2.11a5.94 5.94 0 0 1 2.511 1.765 5.86 5.86 0 0 0 2.77 1.765c1.263 0 1.206-.158-1.708-4.306-2.167-2.956-2.21-4.42-.301-6.372 2.87-2.87 9.099-1.162 7.793 2.253a1.52 1.52 0 0 1-1.156.791 1.52 1.52 0 0 1-1.313-.489 2.58 2.58 0 0 0-3.013 0 9.85 9.85 0 0 0 2.009 3.574c2.712 3.717 3.014 5.984.961 7.29-1.105.747-1.607.804-3.817.244-3.229-.703-5.842-2.31-6.243-3.774-.244-1.005-.402-.904-2.612 1.22a11.75 11.75 0 0 1-7.334 3.516 3.3 3.3 0 0 1-1.809-1.005zm6.53-4.176c2.11-2.11 3.373-5.382 2.411-6.488-.746-.961-3.114-.803-4.076.244-1.952 2.168-3.114 7.176-1.708 7.794 1.149.502 1.407.373 3.316-1.55zm-12.414-4.88c1.966-1.435 2.411-2.612 1.105-3.115-1.005-.358-2.569 1.048-3.215 2.871s-.359 1.851 2.052.244zm8.797-10.047a37 37 0 0 0 3.416-3.243c.101-.144-.918-.746-2.224-1.249-3.416-1.435-7.535-1.263-12.315.503a19.3 19.3 0 0 0-3.918 1.707 17.3 17.3 0 0 0 3.674 1.665 37 37 0 0 1 5.124 2.354c.65.473 1.386.814 2.167 1.005a15.4 15.4 0 0 0 4.033-2.799zm23.968-7.391c3.33-1.607 8.454-3.861 11.482-5.023 3.215-1.263 5.425-2.411 5.425-2.871a6.5 6.5 0 0 1 1.048-2.368c.56-.947.904-1.708.703-1.708a196 196 0 0 0-17.94 7.894c-7.291 3.516-7.937 3.976-7.937 5.181s.445 2.153.947 1.852c.044-.043 2.9-1.45 6.215-3.014zm-5.123-75.349a13 13 0 0 0-2.469-2.066c-.847-.603-.545-.201.761 1.004 2.454 2.268 3.215 2.713 1.708 1.062m23.566 99.819a38 38 0 0 0-3.316-3.258 8.3 8.3 0 0 0-.545 2.311 8 8 0 0 1-.861 3.014c-.804.962-2.87.861-3.315-.158a27.4 27.4 0 0 1 1.105-6.63c1.866-7.837 2.411-8.841 4.578-8.296.603.158 1.249 0 1.435-.244.603-.904 4.076-.66 4.98.345 1.436 1.664.747 5.841-1.435 7.592-.703.603-.703.76 0 1.909a10.8 10.8 0 0 0 2.77 2.468c2.11 1.349 2.512 2.871.962 3.717-2.067 1.062-3.215.56-6.444-2.77zm-.244-7.936c1.248-1.163 1.435-2.368.402-2.368-1.034 0-2.871 2.368-2.871 3.372s.761.503 2.469-1.004"/><path fill="#000" d="M161.775 218.107c-.804-.302-1.105-.747-.904-1.306a93 93 0 0 1 3.157-9.946 23 23 0 0 1 2.067-1.909c1.564-1.263 2.067-1.435 5.927-1.435 3.861 0 4.306.1 4.306.961 0 1.435-1.263 2.153-5.138 2.512-2.87.244-3.66.502-3.818 1.205s.201.861 2.368.861c2.168 0 2.555.101 2.555 1.206 0 1.55-.646 1.952-3.717 2.311-3.071.358-3.66 1.306-.545 1.105 3.616-.302 4.865.201 4.664 1.751-.144 1.306-.344 1.435-3.961 1.966-2.11.301-4.22.703-4.779.847a3.8 3.8 0 0 1-2.182-.129m-84.003-.847c-1.909-3.617 1.507-11.611 6.042-13.922 2.713-1.435 6.473-.703 6.473 1.249 0 1.263-1.65 2.11-3.215 1.708-1.851-.445-3.258.603-4.621 3.473-2.01 4.306-1.607 4.621 3.416 2.77 3.473-1.263 4.535-.861 3.516 1.349-.746 1.608-5.368 3.875-8.683 4.177-2.024.2-2.44.043-2.928-.804"/><path fill="#6A5439" d="M107.84 191.268c-1.005-.344-3.473-1.047-5.482-1.55-2.311-.559-3.718-1.162-3.876-1.664a17 17 0 0 0-.947-2.369 5.2 5.2 0 0 1-.459-3.257l.301-1.766-6.43-4.779c-3.516-2.655-8.295-6.128-10.548-7.678-4.134-2.871-6.186-5.038-6.186-6.488.14-.884.39-1.747.746-2.569.962-2.21.1-2.511-1.75-.545-1.106 1.148-1.206 1.148-2.67.445s-1.564-.847-.703-8.238c0-.402-.1-4.306-.302-8.611-.2-4.306-.502-10.147-.66-13.018a18.7 18.7 0 0 0-1.005-6.587c-1.105-1.852-.344-5.741 1.063-5.741 2.11.1 16.634 2.368 17.595 2.712.962.345 1.148 1.163 1.708 4.636.344 2.253.904 5.124 1.148 6.272a3.44 3.44 0 0 1-.703 3.775c-3.014 4.119-7.434 16.433-7.377 20.509v2.77l.76-1.766c1.048-2.511 5.325-9.544 5.828-9.544.2 0 .244.747.1 1.651-.502 2.468 1.005 10.663 2.21 12.371 1.436 1.952 3.976 4.062 4.923 4.062.703 0 .703-.101 0-.904a3.24 3.24 0 0 1-.847-2.01c0-1.047 0-1.047 1.206.158 1.13.972 2.38 1.796 3.717 2.454 2.368 1.206 2.569 1.436 2.871 3.632a40.5 40.5 0 0 1-.603 10.749c-.345 1.263-.345 1.263 1.263-.244a29.6 29.6 0 0 0 3.358-3.875l1.765-2.368 1.436.904c1.708 1.062 5.482 4.478 5.482 4.98a8.7 8.7 0 0 1-1.062 2.067c-.847 1.435-.947 2.153-.646 5.066.302 3.172.244 3.474-.76 4.033a3.73 3.73 0 0 0-1.565 1.809c-.545 1.349-.603 1.349-3.057.445z"/><path fill="#6A5439" d="M127.057 187.207a12.2 12.2 0 0 1-6.027-5.282 46.9 46.9 0 0 0-10.808-11.209c-2.87-1.966-5.525-4.679-6.027-6.286a2.36 2.36 0 0 0-1.665-1.435 19 19 0 0 1-2.368-.646c-1.249-.502-4.665-6.186-5.067-8.454-.358-1.951.144-2.755 3.115-4.463 3.875-2.311 7.176-3.114 15.026-3.717 9.1-.703 12.314-1.435 17.137-3.976a12.1 12.1 0 0 1 3.731-1.564 12.1 12.1 0 0 1-2.569 2.712c-2.77 2.526-2.569 2.727 1.507 1.436a13.82 13.82 0 0 0 7.636-6.631l.732-1.464 1.664 2.569c2.871 4.421 12.515 10.85 18.041 12.056a7.46 7.46 0 0 1 3.33 1.435c.746.847.803 1.206.244 2.512a3.7 3.7 0 0 0-.402 1.808c.359.359 1.966-2.21 2.368-3.717s1.005-1.809 2.009-1.163c.603.402.603.804-.201 2.871-1.205 3.128-3.717 5.741-5.64 5.741-1.148 0-1.651.459-2.756 2.511a14.77 14.77 0 0 1-7.176 6.143c-1.751.603-2.31 1.435-1.004 1.435a9 9 0 0 0 2.066-.502c1.306-.503 1.436-.459 1.062.847a29.6 29.6 0 0 1-5.583 10.046c-2.669 3.014-7.491 5.368-13.074 6.43-4.823.961-7.033.904-9.301 0zm-1.004-6.043c0-2.009 1.435-3.616 4.478-4.721 2.669-1.005 3.372-1.062 5.281-.56 3.014.761 3.258.718 1.852-.445-1.407-1.163-5.741-1.306-9.344-.1-2.21.746-2.612 1.105-3.171 2.87-.704 2.052-.402 4.521.401 4.019a1.29 1.29 0 0 0 .431-1.005zm-.904-9.099c2.267-.803 2.468-.803 4.42.101s2.11.904 5.282-.201a10.16 10.16 0 0 1 4.406-.79c1.306.302 2.253-.459 1.435-1.263-.402-.401-6.372.503-8.339 1.306a2.73 2.73 0 0 1-2.167-.502c-1.349-.904-3.114-.847-6.874.158-2.369.646-2.871 1.005-1.866 1.607s.918.589 3.631-.416zm9.96-5.927c.67-1.062 1.52-2 2.512-2.77a.473.473 0 0 0 .502-.502c0-1.149-1.866-.345-3.818 1.564-1.665 1.607-2.368 2.009-3.229 1.708a2.8 2.8 0 0 1-1.48-1.539 2.8 2.8 0 0 1 .045-2.135c.603-1.55 0-4.966-1.163-7.076-.947-1.665-.947-1.722 0-2.77a6.92 6.92 0 0 0 2.024-4.406c0-1.062-.201-.962-2.009 1.048-1.809 2.009-2.11 2.167-4.119 1.866-3.718-.56-10.65-1.307-12.056-1.307a5.47 5.47 0 0 0-3.028 1.436l-1.608 1.435 3.775-.172c4.42-.302 13.376 1.062 14.581 2.167.905.804 1.952 4.305 1.952 6.43a5.2 5.2 0 0 1-1.248 2.712c-1.206 1.435-1.206 1.565-.359 1.823a9.8 9.8 0 0 1 2.368 1.808c2.253 2.282 3.818 1.995 6.286-1.32zm-34.445-8.698a14.8 14.8 0 0 1-1.564-2.77c-.905-2.21-1.751-2.411-1.751-.444a4.78 4.78 0 0 0 1.851 3.114c1.851 1.765 3.014 1.808 1.45.1zm52.672-.401a19.3 19.3 0 0 0 2.871-2.512 9.4 9.4 0 0 0-2.368 1.005 17.7 17.7 0 0 1-5.426 1.564c-2.511.244-3.272.144-4.621-.703-.919-.603-1.665-1.263-1.665-1.522 0-.258 1.435-.444 3.172-.444 2.756 0 7.98-1.163 8.999-2.067.244-.201-1.722-.244-4.306-.144-4.98.201-11.668-.559-12.816-1.507a9.7 9.7 0 0 1-1.436-2.368c-.846-2.052-1.435-1.349-.947 1.163a5.74 5.74 0 0 0 4.119 4.305c.948.259 1.436.761 1.608 1.436.201 1.162 2.411 2.612 4.018 2.612a2.42 2.42 0 0 1 1.436.459 7.9 7.9 0 0 0 3.817 1.005 10.7 10.7 0 0 0 3.617-2.268zm-33.871.803a9.9 9.9 0 0 1 3.516-1.004c1.665 0 2.067-.747.603-1.105a12.5 12.5 0 0 0-3.516.1 28.4 28.4 0 0 1-5.181 0c-2.871-.344-4.822-.144-5.282.56-.143.244.503.445 1.436.445a6.75 6.75 0 0 1 3.171 1.004c1.866 1.263 2.799 1.263 5.239 0z"/><path fill="#6A5439" d="M156.996 186.145a52 52 0 0 1-1.852-4.822l-1.105-3.373 1.809-4.478c1.004-2.454 1.808-4.621 1.808-4.765a12 12 0 0 1 1.952-2.268l1.894-1.908.56 3.616c.503 3.775 3.674 11.31 4.679 11.31.301 0 .445-.302.301-.646a42 42 0 0 1-.904-4.435 18.75 18.75 0 0 1 0-7.477l.703-3.775.402 2.713c.445 3.415 1.708 6.688 3.014 7.893 1.048.947 1.048.947.747-1.306a49.9 49.9 0 0 1 .545-17.495c.301-1.163.301-1.163 1.808-.258a19.3 19.3 0 0 1 5.626 7.391c.503 1.062 1.005 1.808 1.163 1.708.402-.445-1.163-7.176-2.11-9.042a28.7 28.7 0 0 0-4.176-4.88l-3.387-3.215 4.162.402c2.113.13 4.206.486 6.243 1.062a5.9 5.9 0 0 0 2.31.503c.345-.359-2.21-3.273-4.305-4.88a14.4 14.4 0 0 0-3.559-2.009c-2.526-.804-3.129-1.436-3.129-2.871a26 26 0 0 0-1.048-4.722l-1.033-3.415 1.148-3.574 1.162-3.559-1.449-2.627-1.435-2.655 1.306-1.765a5.4 5.4 0 0 0 1.248-2.871c-.143-1.019.503-1.435 5.885-3.372 3.315-1.206 7.09-2.67 8.396-3.215a13.6 13.6 0 0 1 2.971-1.005 8.6 8.6 0 0 1 2.511 2.052c1.751 1.866 1.909 2.268 1.651 3.976-.201 1.162-.101 2.009.258 2.21.603.402.746 3.316.201 3.316a16 16 0 0 1-2.311-.546 6.1 6.1 0 0 0-2.77-.201c-.646.244 0 .747 2.167 1.852a15 15 0 0 1 3.588 2.224c.761.904-.244 5.339-1.951 8.956-4.177 8.611-6.028 14.926-7.794 26.738a31.8 31.8 0 0 1-2.569 9.702 16.96 16.96 0 0 0-1.952 7.434c-.358 4.306-.358 4.306-1.865 4.78-.804.258-2.612 1.004-4.019 1.664-2.11.948-5.884 2.612-15.184 6.588-1.55.703-1.651.646-2.311-.66m-53.634-13.922c0-2.971.66-3.875 1.909-2.669.703.76.703 1.004-.144 2.87-1.363 2.957-1.765 2.914-1.765-.201"/><path fill="#6A5439" d="M163.483 168.305c-.961-4.722-.603-6.487 1.306-6.487 1.062 0 1.062-.1.201 3.933-.804 3.659-1.162 4.262-1.507 2.554M92.268 150.15c0-2.454 2.067-5.067 5.138-6.588a71 71 0 0 1 10.707-3.014c15.27-3.315 23.867-7.535 23.867-11.711v-1.249l-2.354 1.751q-2.186 1.564-4.535 2.871c-2.956 1.435-11.352 3.43-17.682 4.133-8.697.847-14.538 2.756-18.098 5.741l-1.708 1.435.345-1.435c.603-2.512 6.588-11.008 9.659-13.821 9.946-9.142 17.682-12.357 28.848-12.013 5.525.158 5.927.258 9.042 1.966 7.85 4.306 8.611 10.205 2.267 16.634a39.2 39.2 0 0 1-12.816 7.995c-2.713.846-4.521 1.105-19.447 2.669-7.693.847-9.803 1.651-11.367 4.306-1.364 2.396-1.866 2.497-1.866.33m67.641-1.306a10.5 10.5 0 0 1-3.76-1.708s2.311-.144 5.124-.201c3.674 0 5.626.158 6.889.703 1.607.66 1.708.804.804 1.163a27.2 27.2 0 0 1-9.057.043"/><path fill="#6A5439" d="M156.695 144.481c-7.033-1.924-13.621-6.588-14.683-10.363-.545-2.109.201-6.932 1.062-6.932.259 0 .905.646 1.436 1.435a86.5 86.5 0 0 0 12.816 11.209 49 49 0 0 0 12.386 2.641c2.87.302 6.042 1.349 6.042 2.01-2.209.19-4.429.242-6.645.157-3.66 0-7.334.101-8.195.244a12.3 12.3 0 0 1-4.219-.401m-65.288-1.062c.1-1.206.703-1.665 3.617-3.072 2.913-1.406 4.621-1.808 11.309-2.655 4.306-.502 8.941-1.162 10.247-1.435 1.307-.273 2.268-.259 2.01 0-.947.804-3.861 1.607-12.056 3.215-7.176 1.435-9.257 2.009-11.97 3.516l-3.315 1.823z"/><path fill="#6A5439" d="M164.947 140.548c-6.085-1.55-11.209-4.564-17.05-9.903-3.459-3.157-4.062-4.621-3.516-8.339l.459-2.87 3.258-.158c4.679-.201 6.946.502 11.481 3.717 7.693 5.483 9.301 8.253 2.871 4.937l-3.516-1.808 2.267 1.952c1.249 1.062 2.756 2.469 3.416 3.172 1.765 1.851 5.741 7.994 5.827 8.941s-2.138 1.22-5.497.359m-71.129-12.86c0-1.105 3.057-6.487 6.071-10.706 6.789-9.559 15.988-15.041 25.346-15.142a12.36 12.36 0 0 1 6.932 1.565c5.023 2.411 7.176 4.219 8.941 7.994a12.9 12.9 0 0 1 1.737 6.674c0 5.123-.502 5.281-4.421 1.607a14.5 14.5 0 0 0-6.688-4.119c-7.994-2.454-19.949-.502-28.001 4.621a55.5 55.5 0 0 0-5.927 4.78c-3.545 3.272-3.99 3.631-3.99 2.726"/><path fill="#6A5439" d="M159.565 120.8c-4.176-2.268-4.521-2.311-9.602-2.569l-5.224-.244-.359-3.316c-.244-2.77-.143-3.43.56-3.932 2.411-1.809 7.98.459 13.462 5.482 3.316 3.072 6.689 6.932 5.942 6.889a49 49 0 0 1-4.779-2.31m-82.539-5.225c-7.736-1.062-14.223-2.109-14.352-2.31a24 24 0 0 1 .244-5.942c.402-4.162.76-5.526 1.306-5.626.962-.201 29.163 7.176 29.709 7.736s-1.708 7.85-2.354 7.994c-.33.057-6.86-.79-14.553-1.852m-7.592-4.678a3.664 3.664 0 0 0 .215-4.521 2.263 2.263 0 0 0-3.53.143 3.93 3.93 0 0 0 .3 4.306c1.005.976 1.795.976 3.015.072m96.374-2.67c-2.87-5.023-3.674-6.587-3.215-6.831 1.148-.704 32.02-9.401 32.565-9.2a.775.775 0 0 1 .503.904 43 43 0 0 0-.546 4.679 17 17 0 0 1-.66 4.305c-.201.216-5.97 2.325-12.917 4.737-6.946 2.411-12.859 4.521-13.175 4.621s-1.464-1.306-2.555-3.215m28.044-10.65c.761-1.434.101-2.568-1.435-2.568s-2.21 1.062-1.751 2.569c.316 1.248 2.411 1.248 3.172 0zm-116.525 5.325-6.243-1.607.302-1.765a18.3 18.3 0 0 1 1.306-3.861l1.004-2.067-1.995-4.234c-1.765-3.415-1.966-4.22-1.435-4.764 1.55-1.565 20.093-12.673 21.658-12.917a5.87 5.87 0 0 0 2.87-1.608 23.7 23.7 0 0 1 5.325-3.215 43.6 43.6 0 0 0 5.74-3.014c2.01-1.435 3.718-1.162 3.919.546.1 1.004-.546 2.167-2.871 4.779-2.77 3.172-5.482 7.176-9.76 14.783a13.56 13.56 0 0 1-4.965 5.023c-2.727 1.808-3.43 2.512-3.43 3.516a5.6 5.6 0 0 1-.847 2.512 25 25 0 0 0-2.167 5.224A14.5 14.5 0 0 1 84 104.366a63 63 0 0 1-6.674-1.464m92.945-7.994c-2.167-6.028-2.77-7.434-3.373-7.434s-1.249-.861-1.909-1.909c-1.105-1.765-1.564-2.01-4.42-2.612-3.918-.804-4.177-.962-9.301-4.435a19.7 19.7 0 0 0-8.998-3.817 19.5 19.5 0 0 1-5.081-1.55c-.545-1.91 2.512-2.77 10.807-3.029 5.985-.143 6.286-.244 8.798-1.851 2.11-1.364 2.411-1.708 1.435-1.808a7.3 7.3 0 0 0-2.87.602c-2.971 1.249-3.976 1.048-5.526-1.263a62 62 0 0 0-6.989-6.788c-6.229-5.368-7.176-6.53-6.487-7.277s3.415.703 7.692 3.56c2.971 2.009 11.482 7.046 11.812 7.046 1.435 0-7.176-10.304-13.376-16.146-2.354-2.21-3.114-4.018-1.952-4.722.804-.502 3.373 1.106 11.654 7.334 7.793 5.885 10.563 7.492 7.65 4.435a110 110 0 0 0-14.123-11.108c-2.511-1.436-3.473-2.57-2.87-3.474a1.24 1.24 0 0 1 1.004-.459c1.263 0 9.344 4.306 14.18 7.492s6.889 5.44 6.071 6.645c-.818 1.206-.502 1.507.718 1.206a3.06 3.06 0 0 1 2.612.803l1.435 1.149-.301-2.555a40.2 40.2 0 0 0-2.612-7.994c-2.325-5.382-2.368-6.545-.46-6.143 2.311.416 10.047 14.984 12.071 22.533 1.607 6.028 2.009 11.553 1.105 14.567-.704 2.21-.661 2.368 1.105 6.545 2.411 5.568 3.76 9.443 3.459 9.802-.302.359-11.683 3.76-12.214 3.76-.201 0-.502-.502-.746-1.105M68.027 81.59c-.402-.704-3.817-11.482-5.382-17.036-1.607-5.842-1.851-8.195-.847-8.195.747 0 2.311 2.511 6.373 10.046 1.722 3.157 3.33 5.985 3.573 6.286.761.747.56-.56-.401-2.468l-.804-1.766 2.167-3.66c3.918-6.644 6.028-9.457 7.033-9.457.56 0 1.865 1.162 3.171 2.87a82 82 0 0 0 5.569 6.042c3.43 3.215 3.875 4.306 2.225 5.325-1.163.703-4.435-.861-7.693-3.717L80.6 63.75l-.66 1.206c-.804 1.435-.905 3.214-.201 3.66.258.157.602-.245.803-.948l.302-1.263 3.473 2.31a21 21 0 0 1 3.358 2.47c-.301.258-19.045 10.763-19.246 10.763a.66.66 0 0 1-.402-.358m22.978-16.534-2.425-2.87 1.507-1.206c3.33-2.713 3.63-2.612 5.238 2.167l1.005 2.957-1.105.86a5.5 5.5 0 0 1-1.436.905 17 17 0 0 1-2.784-2.813m-5.224-6.286c-.904-1.163-1.435-2.21-1.148-2.469a27 27 0 0 1 4.22-1.909c2.052-.846 5.525-2.454 7.692-3.616l3.861-2.11v1.306c0 .962-1.005 2.11-4.12 4.822a43 43 0 0 1-6.544 4.823l-2.368 1.22z"/><path fill="#55514C" d="M114.629 198.961a6.2 6.2 0 0 1-.804-3.114 26 26 0 0 0-.603-3.574c-.258-.545.144-1.435 1.148-2.555a3.62 3.62 0 0 0 1.263-3.516c-.301-1.765.746-5.942 1.55-6.085.259 0 1.306 1.148 2.368 2.712a14.15 14.15 0 0 0 4.923 4.521 10.8 10.8 0 0 1 3.014 2.11c0 .201-.603.359-1.349.402a22.5 22.5 0 0 0-3.918.703l-2.526.703H124c2.369 0 4.981 0 5.741.101h1.507l-1.263.559c-5.927 2.469-9.601 4.306-11.41 5.741-2.095 1.694-2.999 1.995-3.946 1.292m34.976-3.918a32.3 32.3 0 0 0-5.325-2.067c-3.832-1.148-5.483-2.21-4.306-2.712.661-.244 8.612 1.564 11.166 2.511.603.259.847.101.847-.445 0-1.105-2.956-2.31-6.372-2.669a7.6 7.6 0 0 1-2.971-.703c-.101-.244.861-.948 2.21-1.651a21 21 0 0 0 4.822-3.875c1.306-1.435 2.512-2.411 2.77-2.167a28 28 0 0 1 1.565 3.373c.947 2.411 1.047 3.114.545 4.176a7.3 7.3 0 0 0-.244 3.258 3.11 3.11 0 0 1-.56 2.971c-.976 1.249-1.88 1.249-4.147 0m-15.171-3.875c-.803-.144-1.435-.546-1.435-.947 0-.402.703-.704 2.756-.704s2.77.144 2.77.747a.73.73 0 0 1-.703.76c-.402 0-1.005.101-1.436.144a6.6 6.6 0 0 1-1.952 0"/><path fill="#55514C" d="M127.057 187.207a13.02 13.02 0 0 1-6.429-5.842 37.3 37.3 0 0 0-10.262-10.606c-2.957-1.909-5.626-4.664-6.172-6.329a2.25 2.25 0 0 0-1.664-1.435c-.747-.144-1.708-.402-2.11-.503-1.766-.445-6.028-8.74-5.382-10.448.46-1.206 4.578-3.617 8.094-4.779a51 51 0 0 1 10.363-1.55c8.611-.661 11.811-1.436 16.634-3.775a15.5 15.5 0 0 1 3.817-1.607 11.1 11.1 0 0 1-2.583 2.626c-2.87 2.469-2.555 2.77 1.435 1.564 3.047-.957 5.637-3 7.277-5.74a8.3 8.3 0 0 1 1.435-2.01 10.2 10.2 0 0 1 1.665 2.268c2.411 4.019 12.515 10.707 17.94 11.855 3.172.66 4.478 1.966 3.674 3.774s-.761 2.569.201 1.665a10.7 10.7 0 0 0 1.435-2.77c.703-2.11 1.148-2.411 2.21-1.765.603.402.546.804-.157 2.669-1.436 3.574-3.115 5.382-5.325 5.741-1.435.259-2.067.66-2.512 1.766a20.9 20.9 0 0 1-7.692 7.032c-2.512.904-2.369 1.608.2 1.206 2.01-.345 2.067-.302 1.708.803a33.6 33.6 0 0 1-5.382 9.76c-2.454 2.87-7.836 5.468-13.06 6.53-4.837.962-7.176.962-9.458 0zm-.746-6.688c.804-3.818 7.334-6.086 11.482-3.976 1.263.66 1.062-.402-.244-1.306s-6.545-1.005-9.458.1a4.13 4.13 0 0 0-2.871 2.713c-.703 1.866-.445 4.722.402 4.176a4.3 4.3 0 0 0 .617-1.707zm-1.062-8.396c2.21-.761 2.512-.761 4.306.1s2.052.847 5.181-.258a9.6 9.6 0 0 1 4.42-.79c1.349.359 2.354-.502 1.55-1.306-.402-.402-6.372.503-8.338 1.306a2.52 2.52 0 0 1-2.168-.502 5.1 5.1 0 0 0-5.066-.301 6.3 6.3 0 0 1-2.311.559 2.54 2.54 0 0 0-1.822.704c-.603.703-.345.846 1.521 1.248a20 20 0 0 0 2.655-.76zm9.602-5.483a10 10 0 0 1 2.31-2.87c1.263-.761 1.206-1.436 0-1.436a6.14 6.14 0 0 0-2.87 2.01c-2.11 2.267-2.67 2.425-3.775 1.162-.545-.66-.804-1.966-.746-4.521a9.6 9.6 0 0 0-1.277-5.454c-1.106-1.808-1.106-1.865-.158-2.87a6.92 6.92 0 0 0 2.167-4.449c0-1.062-.201-.962-2.009 1.005-1.809 1.966-2.11 2.152-3.861 1.908-2.971-.459-10.807-1.306-12.314-1.306a5.47 5.47 0 0 0-3.029 1.436l-1.607 1.435 3.775-.172c4.42-.302 13.376 1.062 14.581 2.167.905.803 1.952 4.305 1.952 6.429a5.2 5.2 0 0 1-1.248 2.713c-1.206 1.435-1.206 1.564-.359 1.808.873.49 1.671 1.104 2.368 1.823a4.03 4.03 0 0 0 3.057 1.435c1.421.015 1.823-.287 2.971-2.253zm-34.158-9.2a11.7 11.7 0 0 1-1.507-2.712c-.948-2.311-1.852-2.469-1.852-.402a3.04 3.04 0 0 0 1.105 2.411c.546.459 1.436 1.206 1.852 1.608 1.062 1.004 1.421.2.402-.905m51.667.46a19.5 19.5 0 0 0 3.028-2.512c1.005-1.105.962-1.105-1.435.158-3.473 1.751-7.492 2.153-9.745 1.004-2.87-1.435-2.526-2.066 1.048-2.023 2.87 0 7.994-1.148 9.056-2.11.244-.201-1.722-.244-4.306-.143-5.382.244-11.768-.603-12.917-1.708a5.1 5.1 0 0 1-1.148-2.268c-.459-2.311-1.507-1.808-1.162.603a5.64 5.64 0 0 0 4.076 4.88c1.047.301 1.607.746 1.708 1.435.201 1.435 1.148 2.153 3.473 2.755 1.048.259 2.612.661 3.416.905 2.353.631 2.913.531 4.966-.976zm-33.369.143a15.5 15.5 0 0 1 3.876-1.148c2.009-.301 2.21-.402 1.306-.904a8.4 8.4 0 0 0-4.033-.201c-1.91.174-3.832.174-5.741 0a9.85 9.85 0 0 0-4.019.201c-1.306.559-1.306.559.703.904a8.6 8.6 0 0 1 3.273 1.162c1.578.991 2.655.991 4.693-.014zm-42.022-42.525c-7.736-1.105-14.223-2.11-14.353-2.311-.56-.56.747-11.309 1.35-11.482.602-.172 29.364 7.176 29.866 7.736.503.56-1.866 8.253-2.41 8.152-.245-.086-6.703-.976-14.453-2.095m-7.177-4.98a3.23 3.23 0 0 0-.143-4.306 2.6 2.6 0 0 0-3.33 0 4.31 4.31 0 0 0 .201 4.621c1.005 1.048 1.952.948 3.215-.315zm96.016-2.311c-2.87-5.023-3.674-6.588-3.215-6.832s31.718-9.4 32.364-9.4.158 9.501-.502 10.147c-.201.215-5.87 2.267-12.659 4.635-6.788 2.368-12.673 4.306-13.175 4.564-.502.259-1.263-.445-2.813-3.114m28.302-11.209a1.953 1.953 0 0 0-1.564-2.512 3 3 0 0 0-2.21 2.268c.103.553.386 1.058.804 1.435.947.976 2.454.373 2.956-1.191zm-116.783 5.884-6.243-1.607.301-1.708c.33-1.325.767-2.621 1.307-3.875l1.004-2.11-1.75-3.574a17.8 17.8 0 0 1-1.81-4.52c0-.747 2.455-2.512 9.846-7.09a111 111 0 0 1 11.669-6.631 8.3 8.3 0 0 0 3.114-1.708c1.751-1.665 13.419-7.391 14.352-7.032 1.435.545.804 2.755-1.808 5.626a77.8 77.8 0 0 0-9.128 13.52 22.96 22.96 0 0 1-7.736 7.936 3 3 0 0 0-1.808 2.626 6.5 6.5 0 0 1-.962 2.613 23.6 23.6 0 0 0-1.909 4.822 15.4 15.4 0 0 1-1.765 4.176 63 63 0 0 1-6.674-1.464m92.887-8.137c-.244-.704-.502-1.436-.502-1.436 0-1.162-2.253-5.74-2.871-5.74s-1.248-.861-1.908-1.91c-1.062-1.707-1.507-1.966-5.024-2.87a21.5 21.5 0 0 1-8.453-4.09c-4.162-2.87-5.167-3.258-9.3-4.062a14.7 14.7 0 0 1-4.866-1.507c-.703-1.908 2.254-2.77 10.65-3.028 5.985-.143 6.286-.244 8.798-1.851 2.109-1.364 2.411-1.708 1.435-1.809a7.3 7.3 0 0 0-2.871.603c-2.87 1.249-3.875 1.005-5.626-1.435a74 74 0 0 0-7.291-7.09c-5.482-4.722-6.889-6.372-5.927-6.975.603-.359 3.918 1.306 7.693 3.86 2.87 1.967 11.309 6.947 11.711 6.947 1.435 0-3.975-6.588-12.214-15.041-3.473-3.516-4.305-5.124-3.171-5.827a3.64 3.64 0 0 1 2.195.502 188 188 0 0 1 15.96 11.941 2.37 2.37 0 0 0 1.708.847c.961 0 .904-.1-.445-1.55a103.3 103.3 0 0 0-14.022-11.065c-2.641-1.45-3.602-2.613-3.028-3.517s1.665-.502 5.884 1.608c5.224 2.612 11.912 7.032 14.166 9.357 1.435 1.435 1.621 1.952 1.263 2.713-.761 1.349-.603 1.607.703 1.249a2.87 2.87 0 0 1 2.569.803l1.435 1.105-.301-2.554a37.7 37.7 0 0 0-2.569-7.951 24.5 24.5 0 0 1-2.01-5.856c.46-.76 2.01-.502 2.871.46a89 89 0 0 1 7.434 12.816c3.933 8.338 5.942 19.002 4.306 23.365l-.747 2.167 2.713 6.588a68 68 0 0 1 2.713 7.176c0 .502-3.474 1.765-11.669 4.119-.631.186-1.033-.158-1.392-1.062M68.027 81.589c-.46-.76-4.98-15.529-5.927-19.203-1.105-4.305-1.206-6.085-.302-6.085s4.062 5.44 7.033 11.31c2.77 5.482 4.52 7.176 2.569 2.511l-.76-1.851 2.611-4.378c6.086-9.946 6.33-10.046 9.458-5.927a71 71 0 0 0 5.598 6.128 19.6 19.6 0 0 1 3.573 4.12c0 .401-.56.903-1.205 1.205-1.435.703-4.478-.746-7.65-3.66-1.206-1.105-2.411-1.866-2.655-1.708-.818.502-1.263 3.818-.66 4.42.603.603.66.144.86-.76l.274-1.306 3.473 2.31a18.3 18.3 0 0 1 3.315 2.412c-.258.258-19.002 10.764-19.203 10.764a.66.66 0 0 1-.402-.302M91.407 65.4a16.4 16.4 0 0 1-2.225-2.956c-.1-.259.76-1.206 1.823-2.067 2.354-1.909 2.655-1.708 4.306 2.67l1.105 3.013-1.149.905a5.5 5.5 0 0 1-1.435.904 15.8 15.8 0 0 1-2.425-2.469m-5.827-6.889c-.747-1.004-1.148-1.952-.948-2.21a27 27 0 0 1 4.22-1.909c2.052-.847 5.526-2.454 7.693-3.617l3.86-2.11v1.307c0 2.009-10.046 10.261-12.615 10.362-.445 0-1.45-.818-2.21-1.823"/><path fill="#895730" d="M103.663 172.065c.402-2.871.46-2.957 1.436-2.153.703.502.66.847-.201 2.555a6.2 6.2 0 0 1-1.306 1.966 5.4 5.4 0 0 1 .071-2.368m59.863-4.621c-.402-1.852-.445-5.081-.143-5.081a4.8 4.8 0 0 0 1.062-.345c.803-.258.846 0 .502 2.412a22 22 0 0 1-.761 3.674c-.301.803-.402.703-.66-.66m-71.732-17.797c0-2.153 1.809-4.464 4.478-5.884a79 79 0 0 1 9.903-2.727c10.047-2.254 12.415-2.957 17.223-5.124 5.181-2.368 6.989-3.818 7.692-6.229.286-.729.38-1.52.273-2.296-.158-.201-1.306.502-2.512 1.507a32 32 0 0 1-4.98 3.057c-3.516 1.607-12.07 3.53-18.959 4.305-6.171.661-12.056 2.412-15.17 4.521-1.206.804-2.268 1.263-2.368 1.005a19.6 19.6 0 0 1 2.468-4.621c5.64-9.042 14.869-16.52 23.767-19.333a31.2 31.2 0 0 1 10.305-1.349c5.885-.1 6.545 0 9.099 1.206 4.579 2.153 8.052 5.741 8.052 8.338a12.66 12.66 0 0 1-3.028 7.176 39.5 39.5 0 0 1-11.755 8.612c-2.712 1.205-9.099 2.368-17.136 3.028-12.314 1.005-13.835 1.435-16.19 5.023l-1.162 1.651zm69.622-.847a13 13 0 0 1-3.516-.861c-.847-.545-.445-.646 2.512-.746 4.937-.158 6.645 0 7.85.646.546.301.948.602.847.66-.431.402-5.482.603-7.693.301m-6.329-5.081c-7.033-2.468-12.171-6.386-12.816-9.745-.302-1.722.1-6.286.602-6.286 1.022.812 1.981 1.7 2.871 2.655 4.305 4.306 9.946 8.999 12.156 9.961 1.866.846 6.846 1.851 13.376 2.712a7.95 7.95 0 0 1 3.143.89c.661.502-.947.603-7.879.66-7.434.115-9.142-.043-11.453-.847"/><path fill="#895730" d="M91.306 143.619c0-2.268 5.928-4.578 14.568-5.583 3.717-.445 7.693-.947 8.798-1.105 4.377-.502-.402.804-8.339 2.311-6.085 1.162-8.956 1.966-11.209 3.172-1.708.904-3.215 1.65-3.416 1.75-.2.101-.402-.143-.402-.545m75.392-2.913c-5.282-1.005-9.343-2.971-14.883-7.176-6.674-5.067-7.836-6.775-7.377-11.008.244-2.756.301-2.871 2.009-3.014 3.316-.402 8.798.502 10.405 1.707.847.603 2.871 1.967 4.306 3.029 2.713 1.751 5.239 4.305 4.779 4.765a8.6 8.6 0 0 1-2.87-1.105 40 40 0 0 0-3.918-1.751c-1.206-.46-1.163-.359.402.846 4.98 3.818 10.548 10.865 10.548 13.377.115.975-.086.975-3.401.33m-72.88-13.276c0-.947 3.114-6.186 5.87-9.946a48.2 48.2 0 0 1 12.372-11.769 28.8 28.8 0 0 1 14.423-3.573 18.88 18.88 0 0 1 14.482 9.156c1.105 2.167 1.306 3.215 1.349 6.688a16.6 16.6 0 0 1-.345 4.464c-.201.201-1.435-.804-2.669-2.21-2.871-3.258-6.43-4.966-11.711-5.741-10.047-1.436-23.265 3.215-30.757 10.864-2.01 2.11-3.014 2.756-3.014 2.053z"/><path fill="#895730" d="M161.172 121.345a18.8 18.8 0 0 0-11.568-3.273 16.8 16.8 0 0 1-4.664-.344 14.6 14.6 0 0 1-.402-3.674l-.258-3.158 2.612-.143c4.306-.258 9.444 2.87 14.725 8.941 2.756 3.057 2.569 3.818-.445 1.651"/><path fill="#7B7870" d="M114.528 198.444a4.83 4.83 0 0 1-.603-2.712 10.7 10.7 0 0 0-.502-3.416c-.402-1.105-.258-1.564 1.005-2.971a3.59 3.59 0 0 0 1.148-3.674 8.44 8.44 0 0 1 .703-4.162l.962-2.21 2.253 3.157a13.1 13.1 0 0 0 5.08 4.736c3.172 1.708 3.617 2.311 1.708 2.311-1.908 0-6.329 1.105-6.028 1.55 1.861.3 3.752.353 5.626.158l5.383-.259-4.019 1.751c-4.722 1.952-8.611 4.12-9.702 5.483a1.94 1.94 0 0 1-2.297.734 1.9 1.9 0 0 1-.717-.476m35.737-3.2a27.7 27.7 0 0 0-5.526-2.21c-2.87-.905-4.478-1.708-4.578-2.211s0-.803.244-.803 8.353 2.109 10.606 2.755c.804.302 1.105.158 1.105-.445 0-1.105-2.311-2.167-6.028-2.77-1.708-.301-3.215-.602-3.315-.646a10.5 10.5 0 0 1 2.669-1.664 13 13 0 0 0 4.579-3.875 11.2 11.2 0 0 1 2.167-2.412 12.7 12.7 0 0 1 1.708 3.474c1.162 2.87 1.263 3.616.76 4.521a5.5 5.5 0 0 0-.258 3.114c.546 3.315-1.507 4.937-4.133 3.172m-15.687-4.22a2.16 2.16 0 0 1-1.435-.904c-.101-.402.645-.603 2.612-.603 1.966 0 2.87.201 2.87.704-.086.803-2.282 1.248-4.047.803"/><path fill="#7B7870" d="M128.493 187.609a17.5 17.5 0 0 1-6.071-3.431 29 29 0 0 1-1.924-2.87 36.1 36.1 0 0 0-9.903-10.348 19 19 0 0 1-6.501-6.832 2.87 2.87 0 0 0-2.009-1.162c-2.067-.244-3.517-1.808-5.583-5.827s-1.952-5.325 1.205-7.334c3.732-2.368 7.75-3.373 15.989-3.975 8.754-.646 11.409-1.249 16.289-3.775a26.5 26.5 0 0 1 3.976-1.808c.201 0-.904 1.205-2.426 2.569l-2.784 2.526 2.153-.302a13.1 13.1 0 0 0 9.501-6.688l1.004-1.622 2.067 2.713c3.56 4.564 13.319 10.807 18.141 11.611a5.74 5.74 0 0 1 2.871 1.248c.803.905.803 1.105 0 2.727-.46.947-.617 1.751-.359 1.751.703 0 2.511-3.071 2.511-4.176 0-.646.302-.904 1.163-.747 1.306.201 1.249 1.149-.258 4.306-1.105 2.311-3.416 4.119-5.325 4.119a1.62 1.62 0 0 0-1.607 1.263 17.87 17.87 0 0 1-7.349 7.09c-2.755 1.048-2.87 1.952-.244 1.435 1.967-.301 2.01-.301 1.608 1.048a34.8 34.8 0 0 1-5.325 9.659c-3.172 3.459-9.903 6.186-16.849 6.788-1.312.196-2.645.21-3.961.044m-2.311-6.846c.402-2.053 1.435-3.115 4.578-4.306a10.46 10.46 0 0 1 7.535.201c.804.301.761.1-.344-1.062s-1.766-1.435-4.019-1.435c-2.87 0-7.549 1.349-8.453 2.468a6.1 6.1 0 0 0-.847 2.454c-.445 3.287.99 4.851 1.55 1.68m-.703-8.612a3.64 3.64 0 0 1 4.018 0c1.909.861 2.067.861 5.382-.143a18.4 18.4 0 0 1 4.679-.962c.804 0 1.306-.201 1.435-.804.129-.602-.1-.846-2.511-.545a33 33 0 0 0-4.679 1.005c-1.809.603-2.21.545-4.177-.402s-2.31-1.005-3.918-.201a8.6 8.6 0 0 1-2.87.804c-1.435 0-2.713 1.248-1.708 1.65s2.296.373 4.349-.43zm7.649-3.315a20 20 0 0 0 2.354-3.014 7.7 7.7 0 0 1 2.067-2.425.473.473 0 0 0 .502-.503c0-1.205-2.268-.344-3.975 1.507a7.8 7.8 0 0 1-2.369 2.024c-1.306 0-1.951-1.766-1.951-5.239a11.64 11.64 0 0 0-1.106-5.626l-1.105-2.11.948-.932a6.4 6.4 0 0 0 2.152-3.818c.46-1.909-.645-1.866-1.951.143s-2.412 2.412-7.794 1.665a72 72 0 0 0-7.592-.66c-2.411 0-2.971.158-4.119 1.435l-1.306 1.349 5.382.101c2.979.06 5.952.314 8.898.761 3.014.545 3.56.846 4.306 2.167a12.7 12.7 0 0 1 1.206 3.76 4.53 4.53 0 0 1-.962 4.176c-1.091 1.637-1.091 1.838-.33 2.139a13.2 13.2 0 0 1 2.77 2.009c2.009 1.809 2.755 1.995 3.975 1.062zm-31.775-10.19a2.44 2.44 0 0 0-.704-1.435 9.8 9.8 0 0 1-1.507-2.569c-.76-1.866-1.564-2.311-1.966-1.163s.66 3.028 2.311 4.478c1.923 1.593 1.866 1.593 1.866.689m51.065-.746a19.6 19.6 0 0 0 2.97-2.512c.962-1.105.962-1.105-1.607.201-3.473 1.708-8.898 1.866-10.606.301-1.708-1.564-1.435-1.664 1.105-1.306 2.54.359 8.138-.803 9.702-2.009.761-.56.258-.603-3.373-.359-4.822.302-11.711-.502-13.362-1.607a3.58 3.58 0 0 1-1.363-2.21c-.445-2.11-1.349-1.952-1.349.157a6.27 6.27 0 0 0 4.305 5.325c1.106.345 1.766.904 1.866 1.665.144 1.105 1.148 1.751 4.923 3.014 3.272 1.134 4.578.947 6.789-.66m-33.47.201a13.7 13.7 0 0 1 3.804-1.106c2.21-.301 3.114-1.105 1.435-1.205-4.478-.258-12.773-.158-13.879.244-1.765.56-.861 1.435 1.149 1.005.991-.09 1.98.197 2.77.803a3.86 3.86 0 0 0 4.721.259m-43.486-42.827a110 110 0 0 1-12.817-2.21 58 58 0 0 1 1.105-11.324c.302-.302 29.508 7.176 30.01 7.65.259.2-.746 4.578-1.435 6.63-.617 1.464-1.277 1.407-16.864-.746m-5.268-5.282a2.22 2.22 0 0 0 0-2.77c-1.521-2.655-4.535-1.908-4.535 1.163s3.014 4.262 4.535 1.607m94.652-3.516a16.6 16.6 0 0 1-2.267-4.98c.603-.56 32.364-9.602 32.665-9.3.117 1.71.05 3.428-.201 5.123l-.445 4.88-12.816 4.392c-7.047 2.468-13.118 4.478-13.577 4.478s-1.852-1.88-3.359-4.593m28.59-8.296c1.708-1.564.56-4.119-1.55-3.415a2.2 2.2 0 0 0-1.395 1.588 2.2 2.2 0 0 0 .591 2.029c1.206.803 1.249.803 2.354-.201m-115.707 4.622-6.286-1.608.158-1.435a18.5 18.5 0 0 1 1.205-3.817l1.005-2.354-1.808-3.631a19.6 19.6 0 0 1-1.809-4.464c0-1.062 18.443-12.716 21.414-13.52a9.5 9.5 0 0 0 3.157-1.722c1.909-1.75 13.419-7.578 14.352-7.176 1.55.66.804 2.87-2.009 5.928a58.6 58.6 0 0 0-8.697 12.773 21.86 21.86 0 0 1-7.693 8.238 3.8 3.8 0 0 0-2.21 2.971 7.1 7.1 0 0 1-1.062 2.67 17.2 17.2 0 0 0-1.751 4.52 21.3 21.3 0 0 1-1.436 4.019 32.3 32.3 0 0 1-6.53-1.392m92.04-9.501c-.559-1.507-1.162-3.373-1.435-4.076a2.87 2.87 0 0 0-1.435-1.751 6.3 6.3 0 0 1-2.167-2.167c-.905-1.55-1.436-1.852-4.722-2.555a22.8 22.8 0 0 1-8.497-4.076c-4.305-2.87-5.382-3.315-9.257-4.076-4.305-.847-5.425-1.55-4.305-2.87.703-.847 10.864-2.067 13.677-1.608 1.909.302 2.411.144 4.923-1.564s2.713-1.91 1.435-2.053a6.16 6.16 0 0 0-2.87.603c-2.411 1.249-3.373 1.005-5.382-1.507-1.349-1.607-12.214-11.568-13.118-11.97 0 0-.144-.502-.244-1.004-.258-1.608.746-1.435 4.119.703 8.138 5.023 15.027 9.056 15.586 9.056s.302-.502-.358-1.435c-.976-1.722-11.181-13.204-13.85-15.6-2.971-2.77-2.067-5.024 1.205-3.072 2.368 1.435 13.577 9.903 15.429 11.668 2.267 2.11 3.215 1.249 1.062-1.004a96 96 0 0 0-13.85-10.937c-2.77-1.435-3.617-3.014-2.052-3.516s15.471 7.334 19.045 10.908c1.607 1.607 1.909 2.87.904 3.875-.56.545-.359.646.962.402a2.87 2.87 0 0 1 2.87.703c.703.502 1.435.746 1.55.502.459-.703-1.004-5.583-3.157-10.563a20 20 0 0 1-1.852-5.181c.46-.76 2.01-.502 2.77.46a106 106 0 0 1 7.98 13.892c3.43 7.592 5.038 17.136 3.775 22.117-.646 2.41-.603 2.554 1.435 7.534 2.311 5.426 3.516 8.755 3.215 9.057 0 0-2.612.904-5.741 1.75l-6.128 1.866c-.302.144-1.005-.961-1.608-2.569zM65.96 75.016c-4.305-13.175-5.568-18.758-4.305-18.758.847 0 1.047.359 5.827 9.056 3.774 6.89 5.124 8.899 4.42 6.53-1.148-3.817-.947-4.52 2.87-10.548 2.512-3.876 4.077-5.842 4.78-5.942s1.564.56 3.014 2.511a74 74 0 0 0 5.74 6.23 19.7 19.7 0 0 1 3.574 4.118c0 .36-.459.861-1.062 1.163-1.306.746-4.478-.76-7.692-3.574-1.25-1.105-2.512-1.909-2.756-1.708-.818.46-1.263 3.775-.617 4.42.316.302.56.36.56.101.053-.433.211-.846.459-1.205.344-.503 1.105-.201 3.56 1.435 1.707 1.148 2.87 2.31 2.669 2.511S68.745 81.92 68.443 81.92c0 0-1.148-3.13-2.41-6.89zm25.447-9.659a11.3 11.3 0 0 1-2.124-3.114c0-.804 3.272-3.072 4.076-2.87.803.2 2.87 6.185 2.511 6.845a4.05 4.05 0 0 1-1.349 1.005c-.904.488-1.263.244-3.114-1.866m-5.784-6.889c-.76-1.062-1.163-2.01-.962-2.21a33 33 0 0 1 3.373-1.435c1.708-.675 4.98-2.24 7.449-3.488 4.305-2.325 5.267-2.468 4.722-.66-.36 1.062-6.99 6.832-9.86 8.611-2.469 1.45-3.215 1.378-4.722-.818"/><path fill="#96918A" d="M114.528 198.444a4.83 4.83 0 0 1-.603-2.712 11.9 11.9 0 0 0-.459-3.373c-.345-.947-.201-1.435.861-2.871a5.74 5.74 0 0 0 1.349-4.305 15.3 15.3 0 0 1 .804-4.306l.803-1.751 1.866 2.871c1.708 2.712 6.229 6.386 7.836 6.386a.53.53 0 0 1 .503.503c0 .301-.546.502-1.249.502-2.067 0-6.286 1.048-6.042 1.435 1.893.353 3.828.421 5.741.201l5.382-.201-2.612.947a48 48 0 0 0-10.965 5.885c-1.436 1.435-2.254 1.435-3.158.603zm35.88-3.157a32.3 32.3 0 0 0-5.626-2.254c-3.172-1.062-4.722-1.865-4.722-2.368 0-.846.904-.703 7.492 1.206 1.448.483 2.945.805 4.463.961.503-.559-.444-1.865-1.65-2.31a31 31 0 0 0-4.578-1.062l-3.373-.603 2.87-1.435a15.9 15.9 0 0 0 4.736-3.99 12 12 0 0 1 2.211-2.469 15 15 0 0 1 1.665 3.473c1.162 2.871 1.263 3.617.76 4.521a5.4 5.4 0 0 0-.258 3.072c.258 1.55.158 2.11-.703 2.956-1.22 1.206-1.981 1.306-3.287.302"/><path fill="#96918A" d="M127.847 187.307a12.1 12.1 0 0 1-6.846-5.439c-1.608-3.258-6.631-8.612-10.65-11.209a16.5 16.5 0 0 1-5.281-5.081c-1.306-2.009-2.053-2.713-2.871-2.713-1.908 0-3.674-1.808-5.626-5.827-1.708-3.372-1.808-3.875-1.205-4.98.847-1.607 7.736-5.123 10.649-5.468 1.206-.158 5.282-.502 9.099-.804 7.75-.66 10.707-1.435 15.185-3.731 4.478-2.297 4.305-2.153 1.248.66-2.497 2.268-2.655 2.512-1.621 2.626 3.616 0 8.697-3.272 10.548-6.889l.933-1.865 1.062 1.708c3.172 5.123 15.285 13.017 19.95 13.017a2.66 2.66 0 0 1 2.067 1.249c.703 1.105.703 1.306 0 2.368a3.95 3.95 0 0 0-.804 1.894c0 1.306 3.014-2.411 3.014-3.774 0-.905.258-1.249 1.004-1.249 1.436 0 1.263 1.751-.502 4.923-1.349 2.31-1.808 2.712-3.818 3.215a3.99 3.99 0 0 0-3.214 2.468 17.35 17.35 0 0 1-7.449 6.53c-1.708.761-2.153 1.105-1.608 1.436a2.63 2.63 0 0 0 1.866 0c1.665-.603 1.665-.603 1.665.602 0 1.708-3.631 8.095-5.841 10.363-2.612 2.554-5.024 3.86-9.846 5.123-5.281 1.392-8.855 1.694-11.108.847m-1.436-6.789c.704-2.31 1.163-2.712 4.306-3.918a8.98 8.98 0 0 1 7.176 0c1.866.603.861-1.004-1.206-1.966-1.851-.904-4.305-.746-8.295.359a4.576 4.576 0 0 0-3.76 4.076c-.56 3.588.803 4.607 1.751 1.449zm-.789-8.352c1.708-.704 2.009-.704 3.416 0 2.067 1.004 3.114.961 6.286-.244a8.1 8.1 0 0 1 4.22-.661c1.435.259 1.507.201 1.435-.904-.101-.746-.459-1.148-.904-1.048-.445.101-2.11.402-3.775.646a14.3 14.3 0 0 0-3.559 1.005c-.46.359-1.263.201-2.67-.502-2.411-1.249-3.014-1.306-4.88-.302a7.3 7.3 0 0 1-2.511.761c-1.364 0-2.569 1.306-1.608 1.65a6.12 6.12 0 0 0 4.55-.401m7.348-3.258a9 9 0 0 0 2.211-2.713 6.1 6.1 0 0 1 2.31-2.569c.546-.201.904-.56.747-.804-.646-1.004-2.412-.358-4.306 1.55a11.1 11.1 0 0 1-2.411 2.024c-1.163 0-1.809-1.866-1.809-5.483a13.4 13.4 0 0 0-1.004-5.74c-.904-1.909-.904-1.909.143-3.014a9.3 9.3 0 0 0 2.11-4.478c0-.947-1.306-.402-2.253 1.062-1.435 2.11-2.67 2.354-7.951 1.65-2.555-.301-5.87-.602-7.435-.602-2.468 0-2.87.1-4.305 1.435l-1.436 1.564 3.014-.359c3.072-.301 13.176.862 14.884 1.809.904.459 1.65 2.425 2.21 5.54a3.28 3.28 0 0 1-.962 3.315c-1.507 1.751-1.65 2.67-.502 2.67a7.2 7.2 0 0 1 2.77 1.75c2.167 2.038 2.569 2.139 4.033 1.393zm-32.479-12.214a11.5 11.5 0 0 1-1.55-2.469c-.66-1.564-1.363-1.808-1.808-.66s.201 2.368 2.153 4.134c1.435 1.205 1.866 1.435 1.966.803a2.54 2.54 0 0 0-.761-1.808m53.247.143 2.655-2.511-2.77 1.263c-3.66 1.65-8.783 1.751-10.448.244a5.4 5.4 0 0 1-1.105-1.306 6.9 6.9 0 0 1 2.468.1 14 14 0 0 0 6.272-.803 18.3 18.3 0 0 0 4.133-1.608c.144-.258-1.621-.301-4.176-.1a45.2 45.2 0 0 1-12.917-1.105 6.03 6.03 0 0 1-2.009-2.613l-1.048-2.368-.201 1.967c-.201 2.454.947 4.219 3.818 5.568 1.148.56 2.052 1.435 2.11 1.823 0 1.148.846 1.751 4.018 2.87 4.822 1.651 6.128 1.436 9.2-1.435zm-33.742 1.005a11.3 11.3 0 0 1 3.631-1.005c1.306 0 1.952-.947.746-1.047a109.5 109.5 0 0 0-14.352.143c-1.55.56-.846 1.565.804 1.206a3.86 3.86 0 0 1 2.87.66c1.881 1.249 3.646 1.306 6.301.043m-43.932-42.64-12.917-1.808v-1.436a67 67 0 0 1 1.206-10.204c2.605.395 5.176.985 7.693 1.765 4.076 1.106 10.764 2.871 14.883 3.861 5.74 1.507 7.391 2.11 7.391 2.77a20.5 20.5 0 0 1-1.062 3.918c-1.306 3.717.402 3.56-17.194 1.134m-6.128-4.607c.76-.861.861-1.363.46-2.87-.403-1.507-.661-1.866-2.025-2.01-1.851-.201-2.87.847-2.87 2.871.014 2.856 2.626 4.018 4.435 2.009m94.91-4.176c-1.765-3.115-2.425-4.722-2.023-4.923 1.205-.646 32.12-9.544 32.378-9.257.1 1.71.033 3.426-.201 5.123l-.402 4.823-12.816 4.406c-7.047 2.44-13.104 4.449-13.577 4.449s-1.852-1.952-3.359-4.621m28.59-8.239c1.909-1.708.459-4.305-1.852-3.272a2.213 2.213 0 0 0-.66 3.516c.804.804 1.407.761 2.512-.244m-116.712 4.421c-5.281-1.364-5.281-1.435-5.123-2.87.26-1.327.665-2.622 1.205-3.861l1.048-2.469-1.909-3.875a16.6 16.6 0 0 1-1.708-4.463c.359-.905 19.146-12.415 21.528-13.075a6.8 6.8 0 0 0 3.014-1.708 24.3 24.3 0 0 1 5.368-3.172c2.526-1.206 5.339-2.713 6.387-3.315a4.45 4.45 0 0 1 2.612-.804c1.564.603.904 2.713-1.909 5.74a78.8 78.8 0 0 0-9.501 13.98 17 17 0 0 1-6.731 6.932 4.46 4.46 0 0 0-2.411 2.97 12.3 12.3 0 0 1-1.263 3.173 24.6 24.6 0 0 0-1.895 4.908c-1.076 4.019-.818 3.976-8.712 1.909m94.05-7.291a31 31 0 0 1-1.608-4.019c-.76-2.267-1.435-3.573-2.109-3.717-.675-.143-1.436-1.105-1.866-2.167-.904-1.708-1.263-1.952-3.875-2.454a25 25 0 0 1-10.606-4.937 16.9 16.9 0 0 0-8.239-3.416c-4.621-.947-5.827-1.808-4.219-2.957 1.105-.803 11.209-1.923 13.563-1.521 1.607.301 2.224.1 4.736-1.55s2.712-1.966 1.708-2.11a11 11 0 0 0-3.674.703l-2.512.905-2.713-3.014a103 103 0 0 0-7.75-7.449c-3.215-2.756-5.066-4.722-5.066-5.368 0-.904.1-.904 1.708-.258a43 43 0 0 1 4.923 2.87c4.578 3.115 12.07 7.492 12.816 7.492a.63.63 0 0 0 .66-.502c0-.603-6.688-8.195-12.673-14.352a21.1 21.1 0 0 1-3.918-4.923c0-1.062 1.651-1.062 3.416 0 2.512 1.607 14.926 11.066 15.629 11.87.704.803 2.067 1.147 2.067.444 0-1.248-10.706-10.247-15.026-12.659-2.67-1.506-3.574-2.712-2.713-3.573s14.022 6.186 18.658 10.348c1.909 1.722 2.77 3.774 1.564 3.774a.545.545 0 0 0-.502.503c0 .301.847.502 1.966.502a3.56 3.56 0 0 1 2.555.76c1.162 1.35 1.607 0 .961-2.568a57 57 0 0 0-2.54-6.918c-2.009-4.722-2.311-6.344-1.249-6.344s2.254 1.22 5.124 6.043a65.4 65.4 0 0 1 7.693 17.696c1.205 4.865 1.435 11.481.646 14.122a3.85 3.85 0 0 0 .416 3.717c1.435 2.87 4.822 11.669 4.564 11.87-.259.2-2.871 1.004-6.129 1.951-4.176 1.206-6.085 1.608-6.386 1.206M65.659 74.055c-6.33-19.864-5.569-23.122 1.909-8.454 2.727 5.282 4.305 7.894 4.736 7.492.2-.144 0-1.306-.502-2.57-.862-2.252-.862-2.252.602-4.821 3.316-5.985 6.43-10.406 7.334-10.406.873.278 1.61.872 2.067 1.665a82 82 0 0 0 5.626 6.229c2.454 2.569 4.306 4.923 4.306 5.224a2.04 2.04 0 0 1-1.263 1.005c-1.306.46-3.976-.847-7.291-3.617a17 17 0 0 0-2.655-1.952c-.56 0-1.766 3.459-1.436 4.22.445 1.105 1.264 1.004 1.565-.201.143-.56.344-1.005.502-1.005.746 0 6.172 4.177 5.827 4.478S73.667 79.02 68.63 81.79a42.4 42.4 0 0 1-2.971-7.736m25.79-8.698a11.9 11.9 0 0 1-2.166-2.87c0-.704 2.87-3.129 3.774-3.129s2.87 5.239 2.67 6.444a2.8 2.8 0 0 1-1.163 1.35c-.904.559-1.205.415-3.114-1.795m-5.683-6.745a7.1 7.1 0 0 1-1.148-2.053 13 13 0 0 1 3.516-1.636c1.852-.76 5.282-2.368 7.535-3.574 6.487-3.415 6.387-1.707-.2 3.976-4.12 3.516-6.531 5.08-7.794 5.08-.344-.071-1.206-.832-1.909-1.793"/><path fill="#BFBEBE" d="M114.83 198.516c-.661-.359-.905-1.162-.962-2.87a13 13 0 0 0-.402-3.373c-.301-.703 0-1.435.904-2.612a6.23 6.23 0 0 0 1.435-4.306 13.6 13.6 0 0 1 .747-4.305l.76-1.708 1.852 2.87a13.56 13.56 0 0 0 6.444 5.741c2.311 1.062 2.512 1.665.502 1.665-2.267 0-6.587 1.105-6.286 1.607 1.858.321 3.754.369 5.626.144 4.306-.201 5.124-.144 4.119.301-7.334 3.373-10.506 5.023-11.711 6.186-1.622 1.363-1.78 1.407-3.028.66m35.779-3.229a54 54 0 0 0-5.87-2.253c-2.971-1.005-4.678-1.866-4.678-2.311s0-.703.143-.703c.144 0 2.67.703 5.841 1.507a29 29 0 0 0 5.971 1.248c.502-.502-.445-1.808-1.751-2.31a33 33 0 0 0-4.622-1.105l-3.229-.503 2.871-1.435a13.1 13.1 0 0 0 4.736-3.947 11.3 11.3 0 0 1 2.253-2.454 12.7 12.7 0 0 1 1.665 3.416c1.105 2.87 1.206 3.717.761 4.621a5.15 5.15 0 0 0-.302 3.014c.244 1.564.101 2.167-.717 2.971-1.263 1.206-1.407 1.206-3.072.244m-17.237-4.621c-.861-.804-.143-1.149 2.412-1.149 2.109 0 2.77.144 2.77.747s-.603.76-2.412.76a6.7 6.7 0 0 1-2.77-.358"/><path fill="#BFBEBE" d="M125.177 185.987a9.5 9.5 0 0 1-4.119-4.119 37.6 37.6 0 0 0-10.706-11.252 18.4 18.4 0 0 1-5.426-5.181c-1.162-1.852-1.865-2.512-2.77-2.512-1.865 0-3.616-1.751-5.525-5.626a23.7 23.7 0 0 1-1.808-4.119c0-1.062 2.655-3.215 5.525-4.521 3.516-1.608 6.128-2.11 14.582-2.871 7.994-.602 10.506-1.205 15.572-3.731l3.731-1.852-2.726 2.512c-2.455 2.21-2.613 2.512-1.579 2.627 3.617 0 8.697-3.273 10.549-6.947l.932-1.866.804 1.436c2.426 4.678 15.386 13.275 19.964 13.275a3.47 3.47 0 0 1 2.009 1.005c.962.947.962 1.105.259 2.512-.862 1.664-.962 2.511-.316 2.511s2.569-3.215 2.569-4.478c0-.703.301-1.047 1.005-1.047 1.205 0 1.263.904.2 3.415s-3.114 4.622-4.822 4.622c-1.105 0-1.665.459-2.712 2.167a15.8 15.8 0 0 1-6.947 6.487c-2.052 1.048-2.755 1.608-2.31 1.909a2.4 2.4 0 0 0 1.865 0c1.608-.603 1.665-.603 1.665.502 0 1.665-3.53 7.994-5.741 10.262-3.774 3.818-10.764 6.387-17.696 6.387a9.48 9.48 0 0 1-6.028-1.507m1.306-5.626c1.005-2.871 4.019-4.521 8.052-4.306 1.236.098 2.46.304 3.66.617 1.435.646.961-.717-.747-1.765-2.009-1.206-4.176-1.263-8.051-.201-3.516 1.005-4.923 2.512-4.923 5.224 0 3.244 1.005 3.445 2.009.431m-.861-8.195c1.708-.704 2.009-.704 3.416 0a5.96 5.96 0 0 0 5.741 0 12.6 12.6 0 0 1 4.119-.804c1.952 0 2.153 0 2.009-1.062-.1-.646-.459-1.048-.904-.904-.445.143-1.665.258-2.77.402a24 24 0 0 0-3.861.76 3.93 3.93 0 0 1-3.444-.344c-2.167-1.005-3.014-1.005-4.88 0a3.5 3.5 0 0 1-2.11.502c-.846-.301-2.612 1.062-2.167 1.708s2.871.66 4.98-.201zm9.358-5.469a17 17 0 0 1 2.87-3.229c.646-.402.703-.502 0-1.047-.961-.804-2.21-.158-3.975 1.951-1.436 1.565-3.014 1.967-3.718.905a17 17 0 0 1-.401-4.421 13.8 13.8 0 0 0-.962-5.568c-.904-1.823-.904-1.823.359-3.172s2.21-3.904 1.55-4.88c-.201-.344-1.005.201-2.153 1.607l-1.866 2.11-6.028-.545c-3.272-.359-6.788-.66-7.793-.703a5.87 5.87 0 0 0-4.88 2.655c-.444.703-.201.76 2.067.359a20 20 0 0 1 4.88-.101c3.425.343 6.831.86 10.204 1.55 2.253.603 3.258 7.75 1.349 9.458-1.148 1.048-1.306 2.268-.301 2.268a7.5 7.5 0 0 1 2.669 1.751c2.713 2.468 3.718 2.31 6.186-.948zm-33.469-8.252a22 22 0 0 0-1.163-2.11 20 20 0 0 1-1.306-2.267c-.76-1.349-1.909-1.249-2.11.1-.1.804.503 1.823 2.01 3.33 2.167 2.196 3.114 2.554 2.569.947m51.969-1.765c3.473-3.029 3.616-3.976.258-1.866a11 11 0 0 1-5.339 1.306c-3.258.201-3.76.1-5.023-.962l-1.435-1.205h3.43a23.5 23.5 0 0 0 6.329-.947c4.306-1.436 4.219-2.01-.258-1.608-3.919.345-12.515-.459-14.123-1.306a3.2 3.2 0 0 1-1.134-1.88 4.4 4.4 0 0 0-.947-2.067c-.603-.445-.703-.201-.703 1.665 0 2.655 1.349 4.421 4.219 5.626 1.149.502 1.809 1.105 1.809 1.708 0 .962.746 1.435 4.521 2.77s5.683 1.076 8.396-1.234m-34.13 1.435a16.7 16.7 0 0 1 3.517-1.048c1.162-.201 2.109-.56 2.109-.803 0-.603.259-.56-7.291-.661-6.53-.1-9.142.259-8.539 1.206a3.57 3.57 0 0 0 2.21.502 5.9 5.9 0 0 1 2.871.761 5.14 5.14 0 0 0 5.123.072zm-33.914-41.693c-2.21-.344-8.152-1.148-13.175-1.808l-9.2-1.206v-1.263c.243-3.521.665-7.027 1.263-10.506 0 0 3.46.761 7.593 1.866l14.954 3.875c4.306 1.105 7.392 2.153 7.392 2.512a30 30 0 0 1-1.005 3.918c-1.205 3.775-.804 3.674-7.822 2.612m-15.672-5.741c1.851-1.708.803-5.167-1.622-5.167s-3.717 3.115-1.909 5.426a2.616 2.616 0 0 0 3.56-.201zm97.235-.689c-.344-.66-1.607-2.712-2.712-4.678-1.809-3.057-1.909-3.574-1.206-3.919 1.608-.703 31.919-9.4 32.12-9.2a27 27 0 0 1-.158 4.98c-.244 3.761-.502 4.866-1.148 5.125-2.167.904-25.389 8.797-25.733 8.797s-.761-.502-1.163-1.105m26.595-11.768a2.22 2.22 0 0 0 .635-1.794 2.22 2.22 0 0 0-.994-1.622c-1.851-1.148-3.818 1.765-2.411 3.516.818.904 1.765.904 2.77-.1m-114.86 4.779c-2.067-.546-4.578-1.206-5.626-1.435l-1.809-.46.646-2.41a54 54 0 0 1 1.263-3.861c.546-1.364.445-1.866-1.205-5.139a23.6 23.6 0 0 1-1.809-4.305c0-.861 18.242-12.17 21.758-13.477a7.2 7.2 0 0 0 3.072-1.765c.143-.445 2.612-1.852 5.425-3.215a73 73 0 0 0 6.515-3.402c1.306-.846 1.436-.846 2.268 0 1.105 1.063.947 1.307-3.875 7.291a70 70 0 0 0-5.74 8.698c-2.957 5.482-5.469 8.439-8.483 10.046-1.823.962-2.325 1.435-2.569 2.971a10.5 10.5 0 0 1-1.162 3.014 29.5 29.5 0 0 0-1.852 4.779c-1.292 4.076-1.335 4.076-6.817 2.67m91.279-9.602c-.445-1.205-1.105-3.071-1.435-4.176s-1.062-2.052-1.708-2.153a3.37 3.37 0 0 1-1.808-1.866c-.761-1.55-1.12-1.75-4.636-2.511a23.2 23.2 0 0 1-8.697-4.076c-4.019-2.612-5.569-3.316-8.612-3.962-2.066-.459-4.176-.904-4.621-1.062-1.306-.401-1.105-1.65.344-2.21a54.7 54.7 0 0 1 13.118-1.205c1.306.243 2.225 0 4.435-1.364a10.9 10.9 0 0 0 2.871-2.11c0-.602-3.373-.143-5.383.704l-1.607.66-3.215-3.516a107 107 0 0 0-7.85-7.45 23.5 23.5 0 0 1-4.564-4.62c0-1.206 1.65-.747 4.521 1.162 1.435 1.005 5.324 3.358 8.496 5.267 8.138 4.837 8.941 4.636 4.019-1.105-1.665-1.952-5.426-6.028-8.296-9.042-5.325-5.583-6.186-7.032-4.076-7.032 1.062 0 17.352 11.654 18.155 13.017.445.703 1.809.703 1.809 0 0-1.249-10.463-10.046-15.228-12.759-2.569-1.435-3.329-2.569-2.468-3.43s15.83 7.492 19.361 11.166c1.263 1.349 1.435 1.708.861 2.554-.861 1.436-.804 1.507 1.062 1.507a5.45 5.45 0 0 1 2.755.804c.661.46 1.306.703 1.436.56.502-.56-.905-5.74-2.871-10.262-2.167-4.966-2.411-6.186-1.349-6.186s2.153 1.22 5.167 6.287a61.4 61.4 0 0 1 7.549 17.222c1.249 4.923 1.306 6.53.646 15.787a34.6 34.6 0 0 0 2.512 7.492 27.5 27.5 0 0 1 2.21 6.588 75 75 0 0 1-11.367 3.43c-.431 0-1.076-.904-1.536-2.11M68.027 81.087c-.502-.804-5.382-17.136-6.128-20.452-.962-4.032-.46-5.238 1.205-2.87.546.804 2.656 4.535 4.622 8.195s3.774 6.947 4.018 7.176c.862.962 1.005-.143.259-1.952a9.7 9.7 0 0 1-.804-2.727 106.4 106.4 0 0 1 7.678-12.917c.66-.602 2.368.546 3.675 2.512a48.5 48.5 0 0 0 5.381 5.985c2.153 2.11 3.876 4.162 3.775 4.52-.66 1.953-4.98.503-9.056-3.114-2.411-2.066-2.411-2.066-2.87-.904-.905 2.454-1.005 3.158-.603 3.86.402.704 1.564.302 1.564-.745 0-.402.1-.704.258-.704a34 34 0 0 1 5.741 4.177c.1.445-17.222 10.405-18.055 10.405a.79.79 0 0 1-.66-.445M91.35 65.056a13.8 13.8 0 0 1-2.066-2.77 10.2 10.2 0 0 1 3.875-2.971c.86 0 2.87 6.085 2.31 6.99-.904 1.535-2.009 1.105-4.119-1.25m-5.482-6.444c-.646-.948-1.048-1.952-.904-2.21a9.6 9.6 0 0 1 2.67-1.35c1.305-.502 4.578-2.009 7.175-3.315a52 52 0 0 1 5.124-2.468c2.569 0-8.238 9.946-11.755 10.807-.904.2-1.306-.058-2.31-1.464"/><path fill="#F4E4CC" d="M115.131 198.66a4.6 4.6 0 0 1-.861-2.612 32 32 0 0 0-.603-3.617c-.302-1.105 0-1.708 1.005-3.014a3.28 3.28 0 0 0 1.062-3.129 9.4 9.4 0 0 1 .502-4.019l.847-2.511 1.062 1.435c2.956 3.861 4.621 5.425 6.889 6.588l2.511 1.205-1.664.345c-8.138 1.564-8.339 2.468-.503 2.066 4.923-.301 5.224-.258 3.617.402-4.966 1.952-9.501 4.306-11.008 5.741-1.751 1.708-2.009 1.808-2.871 1.206zm34.976-3.718a56 56 0 0 0-5.827-2.239c-2.325-.746-4.177-1.65-4.177-1.951 0-.704 4.177.1 9.2 1.808 2.756.904 2.871.904 2.871 0 0-1.435-1.306-2.153-5.426-3.057l-3.875-.861 2.426-1.148c1.776-1 3.373-2.29 4.722-3.818l2.31-2.655 1.106 2.755a12.1 12.1 0 0 1 .918 6.789 22.4 22.4 0 0 1-.459 4.478c-.517.847-2.124.804-3.789-.101m-16.232-4.219c-.847-.904-.201-1.263 2.066-1.105 1.306.1 2.354.402 2.354.646 0 .602-3.861 1.004-4.42.459m-7.636-4.277a11.13 11.13 0 0 1-5.339-5.124 44.7 44.7 0 0 0-10.304-10.706 18.3 18.3 0 0 1-6.229-6.445c-.302-.846-.948-1.248-2.455-1.507-2.224-.344-3.028-1.205-5.281-5.669-1.808-3.573-1.708-4.836.445-6.487a29.3 29.3 0 0 1 12.917-4.219c8.238 0 16.131-1.608 20.954-4.306l2.267-1.263-2.468 2.268c-1.435 1.205-2.411 2.31-2.253 2.468a9.1 9.1 0 0 0 2.712-.258 13.64 13.64 0 0 0 8.597-5.597l1.607-2.268 1.866 2.411c3.373 4.378 13.419 10.807 17.897 11.482 2.871.402 3.775 1.607 3.014 3.932-1.162 3.56.804 2.655 2.368-1.062.847-2.109 2.153-3.014 2.153-1.435 0 2.67-3.459 7.334-5.425 7.334s-2.167.359-3.774 3.114a14.95 14.95 0 0 1-7.177 5.985c-.904.302-1.664.761-1.664 1.005 0 .804 1.263 1.005 2.669.502 1.808-.703 1.765-.1-.402 4.306-3.272 6.788-7.793 10.247-15.687 11.912-4.98 1.062-8.611.962-10.95-.301zm.244-6.028c.503-1.765.904-2.21 3.172-3.272a8.9 8.9 0 0 1 7.334-.646c2.067.746 2.569.201 1.163-1.22-.962-.904-1.708-1.105-4.521-1.105-3.832 0-7.894 1.306-8.698 2.87a8.74 8.74 0 0 0-.201 5.425c.546.862 1.206.101 1.751-2.052m7.75-7.994a18.6 18.6 0 0 1 4.823-1.005c2.167 0 2.87-.76 1.866-1.808-.503-.56-1.106-.603-2.412-.201-1.098.31-2.231.479-3.372.502a3 3 0 0 0-1.909.503c-.445.746-2.167.602-3.516-.302s-1.436-.803-6.186.201c-2.612.546-3.574 1.349-2.77 2.153.56.56 2.325.459 5.985-.301a4.2 4.2 0 0 1 3.014.459q.738.364 1.435.804l2.971-1.005zm-.143-4.578a69 69 0 0 1 2.756-3.316c.846-.947 1.506-1.966 1.435-2.21-.56-.904-1.766-.402-3.918 1.55-2.426 2.225-2.871 2.368-3.976 1.263-.56-.56-.703-1.435-.502-3.674a8.96 8.96 0 0 0-.804-5.325l-1.062-2.411 1.263-1.435c1.249-1.435 2.153-4.722 1.435-5.368-.158-.201-1.205.646-2.21 1.852l-1.909 2.21-5.482-.603c-3.014-.301-6.488-.703-7.736-.847a4.18 4.18 0 0 0-4.134 1.306 8.5 8.5 0 0 0-1.908 1.909 10.3 10.3 0 0 0 3.875.201c4.076-.258 12.314.703 13.878 1.435 1.249.661 2.354 3.416 2.354 5.985a5.1 5.1 0 0 1-1.306 3.66c-1.249 1.435-1.306 1.564-.402 1.765a10.3 10.3 0 0 1 2.87 1.866c2.397 2.196 3.962 2.253 5.526.187zm-32.235-8.698a4.7 4.7 0 0 0-1.005-1.952 10.7 10.7 0 0 1-1.607-2.87c-.603-1.808-2.067-1.808-2.325-.101-.1.804.502 1.809 2.01 3.316 2.296 2.368 2.927 2.712 2.927 1.607m19.103-1.607c.402 0 1.607-.302 2.669-.445 1.435-.258 1.809-.459 1.435-.962-.688-.746-13.792-.947-15.227-.201-1.435.747-1.005 1.436 1.005 1.436 1.331.077 2.634.418 3.832 1.004 1.808.904 2.052.904 3.76.201a24 24 0 0 1 2.526-1.033m33.01-.546c3.057-2.626 2.87-3.329-.46-1.607-2.971 1.435-8.037 1.851-9.745.746s-1.564-1.564 1.249-1.435c2.468.201 10.046-1.665 10.046-2.411a40.7 40.7 0 0 0-7.893-.603 40 40 0 0 1-9.1-.804 7 7 0 0 1-2.009-2.468c-1.062-2.253-1.909-2.153-1.765.201a5.62 5.62 0 0 0 3.717 5.123 4.03 4.03 0 0 1 2.411 2.168c.359 1.004 1.105 1.507 3.43 2.31 1.66.555 3.38.912 5.124 1.062 2.038.072 2.598-.229 5.066-2.282zm-77.602-41.793c-7.291-1.062-13.319-2.009-13.52-2.167a34.4 34.4 0 0 1 .301-5.928c.56-4.721.761-5.539 1.436-5.339.445.158 7.032 1.866 14.624 3.876s14.023 3.774 14.223 3.975 0 1.952-.646 3.976c-.961 3.014-1.262 3.559-2.167 3.516-.574-.086-7.003-.933-14.251-1.909m-6.172-4.535c1.306-2.555-.401-5.971-2.67-5.325a3.19 3.19 0 0 0-2.221 2.156 3.19 3.19 0 0 0 .657 3.025c1.005 1.378 3.474 1.479 4.234.115zm94.997-4.076a20.3 20.3 0 0 1-2.368-4.779c.301-.345 32.22-9.745 32.378-9.545a39.6 39.6 0 0 1-1.062 9.545c-.445.559-24.929 9.357-26.035 9.357a29.6 29.6 0 0 1-2.913-4.578m28.604-8.195a3.2 3.2 0 0 0 .445-2.153c-.201-1.866-2.412-2.268-3.56-.603-1.607 2.182 1.407 4.794 3.115 2.684zm-116.224 4.162a55 55 0 0 1-5.74-1.665c-.302-.359.401-3.215 1.435-5.74.602-1.436.502-1.91-1.249-5.641a15.8 15.8 0 0 1-1.564-4.564c.602-.962 19.748-12.415 21.714-13.017a5.74 5.74 0 0 0 2.77-1.522 32 32 0 0 1 6.186-3.76c3.043-1.55 5.841-3.114 6.358-3.402a1.08 1.08 0 0 1 1.244-.266c.139.062.263.153.364.266 1.263 1.063.961 1.866-1.651 4.78a70 70 0 0 0-9.085 13.419 16.35 16.35 0 0 1-5.583 6.674c-1.75 1.306-3.516 2.612-3.817 2.87a2.87 2.87 0 0 0-.646 1.966 3.04 3.04 0 0 1-.747 2.053 17 17 0 0 0-2.009 4.822c-.703 2.368-1.564 4.306-1.909 4.176-.344-.129-3.071-.645-6.042-1.435zm91.839-11.123c-1.047-2.957-1.75-4.22-2.554-4.52a4.6 4.6 0 0 1-1.909-1.852c-.761-1.507-1.435-1.852-6.688-3.014a26.3 26.3 0 0 1-6.645-3.517 20.1 20.1 0 0 0-9.142-4.119 46 46 0 0 1-4.823-1.205c-.158-.1-.1-.502 0-.904.402-1.005 2.21-1.364 9.903-1.723 6.588-.301 6.846-.344 9.401-2.009 1.435-.947 2.569-1.952 2.368-2.21-.359-.603-2.87-.144-4.88.904s-2.87.56-4.621-1.909a75.5 75.5 0 0 0-7.392-7.176c-5.324-4.693-6.759-6.4-5.324-6.4.847 0 3.114 1.305 8.439 4.72 7.291 4.737 10.506 6.445 10.908 5.842.2-.301 0-1.162-.546-1.909-1.263-1.822-9.86-11.252-13.06-14.48-2.871-2.67-3.215-3.575-2.01-4.02s2.254.345 11.252 7.177c4.536 3.372 8.454 6.185 8.698 6.185 2.569 0-6.43-8.295-14.123-12.916-3.545-2.11-4.549-3.675-2.483-3.675 1.436 0 9.76 4.478 14.683 7.894 4.219 2.97 5.827 4.88 4.865 5.841s-.603 1.35 1.163 1.35a3.6 3.6 0 0 1 2.31.76c.367.421.88.688 1.435.746 1.263 0 .359-4.061-2.152-9.946a43 43 0 0 1-2.297-5.927c0-1.062 1.206-.861 2.368.445a88 88 0 0 1 7.98 13.72c3.473 7.593 5.138 17.955 3.674 22.777-.502 1.65-.402 2.254 1.062 5.626 3.158 7.392 4.019 10.047 3.359 10.262-1.708.646-10.75 3.258-11.209 3.258-.46 0-1.306-1.837-2.01-4.076M65.717 73.581c-6.287-19.964-5.741-22.074 1.85-7.693 1.723 3.158 3.431 6.229 3.833 6.789 1.206 1.607 1.435.545.502-2.124l-.818-2.54 3.574-5.742c4.822-7.75 4.822-7.75 7.09-4.937 1.004 1.263 3.66 4.177 5.97 6.487a35.5 35.5 0 0 1 4.134 4.622c0 .258-.603.603-1.306.76-1.723.445-3.976-.66-7.176-3.573-1.436-1.249-2.87-2.153-3.072-2.01a7.32 7.32 0 0 0-1.306 4.521c.402 1.106 1.708.905 1.909-.244.158-.904.46-.803 3.315 1.106a21 21 0 0 1 3.014 2.167c-.402.344-17.437 9.788-18.14 10.046-.704.259-1.264-1.09-3.374-7.635m25.532-8.784-2.167-2.554 1.765-1.435a6.7 6.7 0 0 1 2.31-1.436c.302 0 1.063 1.522 1.709 3.373 1.062 3.215 1.062 3.373.157 4.019-1.306.904-1.406.847-3.774-1.966m-5.282-6.228c-.746-1.062-1.148-1.967-.904-2.21a36 36 0 0 1 3.976-1.766 63 63 0 0 0 7.09-3.358c5.884-3.23 5.482-1.364-.962 3.96-3.56 3.015-6.688 5.139-7.592 5.139a9.2 9.2 0 0 1-1.608-1.765"/><path fill="#fff" d="M115.332 198.66c-.703-.144-.904-.704-.904-2.612 0-1.436-.201-2.613-.503-2.77-.904-.546-.502-2.555.747-3.761 1.004-.961 1.205-1.607 1.162-3.731-.009-1.465.229-2.92.703-4.306l.704-1.765 1.004 1.435a19.84 19.84 0 0 0 6.688 6.588l2.311 1.162-3.014.603c-4.306.847-4.837 1.005-4.478 1.607.201.302 2.153.402 5.425.201 3.976-.258 4.823-.201 3.818.244-6.989 3.172-9.602 4.579-11.109 5.842a4.45 4.45 0 0 1-2.554 1.248zm35.177-3.517a35 35 0 0 0-5.928-2.368c-4.621-1.435-6.085-2.612-2.612-2.052q3.08.563 6.086 1.435c2.253.66 4.219 1.062 4.305.804.904-1.435-2.511-3.316-6.932-3.818l-2.526-.301 2.268-1.148a21.4 21.4 0 0 0 4.592-3.603 18.4 18.4 0 0 1 2.512-2.569c.555.827.994 1.725 1.306 2.67.904 2.253 1.005 3.171.66 6.587-.301 3.158-.559 4.062-1.435 4.622-.875.559-1.134.488-2.296-.259m-16.677-4.578c-.158-.244.646-.545 1.851-.646 2.311-.258 3.014-.1 2.612.646s-4.061.603-4.463 0m-57.466-75.363c-7.176-1.062-13.319-2.009-13.52-2.167-.071-1.981.03-3.964.302-5.928.56-4.721.76-5.539 1.435-5.339.445.158 7.032 1.924 14.624 3.876s14.023 3.774 14.224 3.975c.2.201 0 1.952-.646 3.976-.962 3.014-1.263 3.559-2.167 3.516-.575-.086-7.004-.933-14.252-1.909m-6.172-4.535a3.89 3.89 0 0 0-.545-4.794c-1.521-1.062-2.225-1.004-3.43.201a3.244 3.244 0 0 0-.201 4.421c.947 1.406 3.416 1.507 4.176.143zm94.997-4.076a28.7 28.7 0 0 1-2.368-4.779c.1-.144 6.444-2.053 13.979-4.306l16.189-4.722 2.354-.703-.302 4.305a29 29 0 0 1-.703 5.081c-.301.545-24.929 9.602-26.178 9.602a27.6 27.6 0 0 1-2.971-4.478m28.604-8.195a3.2 3.2 0 0 0 .445-2.153c-.201-1.909-2.455-2.268-3.617-.56-1.005 1.435-1.005 1.665 0 2.612a2.124 2.124 0 0 0 3.172.029z"/></svg>