<svg xmlns="http://www.w3.org/2000/svg" width="256" height="256" fill="none"><rect width="256" height="256" fill="#F4F2ED" rx="60"/><path fill="#1773EB" d="M104.304 54.633a27.09 27.09 0 0 1 6.935 26.492 54.7 54.7 0 0 1 28.267-7.823h.208a55 55 0 0 1 38.933 16.325c8.252 8.669 21.956 9.002 30.625.763 8.668-8.253 9.001-21.956.762-30.625a14 14 0 0 0-.638-.638A98.16 98.16 0 0 0 139.839 30h-.375A97.95 97.95 0 0 0 84.54 46.713h.61a26.98 26.98 0 0 1 19.154 7.934z"/><path fill="#E44F20" d="M193.626 161.32a21.66 21.66 0 0 0-15.256 6.283 55.02 55.02 0 0 1-38.836 16.02h-.208a54.6 54.6 0 0 1-28.295-7.947c.652 2.358.971 4.799.971 7.24 0 14.965-12.122 27.088-27.088 27.088h-.707a97.9 97.9 0 0 0 54.966 16.99h.375a98 98 0 0 0 69.349-28.599c8.489-8.433 8.558-22.137.125-30.639a21.65 21.65 0 0 0-15.382-6.408v-.028z"/><path fill="#FFDA00" d="M65.732 163.748a26.84 26.84 0 0 1 19.154-7.934c2.483 0 4.952.333 7.338.999a54.99 54.99 0 0 1 .11-56.867c-14.438 3.967-29.348-4.535-33.301-18.96a27.4 27.4 0 0 1-.971-7.199v-.735c-22.65 33.288-22.76 77.02-.264 110.419v-.569a26.84 26.84 0 0 1 7.934-19.154"/><path fill="#1773EB" d="M85.15 51.512c-6.158 0-10.472 2.553-15.7 7.781-4.98 4.966-6.547 9.321-6.561 14.494 0 12.29 9.986 22.262 22.275 22.248 12.289 0 22.261-9.986 22.247-22.275 0-12.289-9.972-22.248-22.261-22.248"/><path fill="#E44F20" d="M62.57 182.93c0 6.144 2.552 10.471 7.767 15.687 4.98 4.979 9.32 6.56 14.494 6.574 12.26-.042 22.164-10 22.122-22.261-.041-12.261-10-22.164-22.26-22.123-12.234.042-22.123 9.959-22.123 22.192z"/></svg>