<svg xmlns="http://www.w3.org/2000/svg" fill="none" viewBox="0 0 256 256"><path fill="#000B1D" d="M196 0H60C26.863 0 0 26.863 0 60v136c0 33.137 26.863 60 60 60h136c33.137 0 60-26.863 60-60V60c0-33.137-26.863-60-60-60"/><path fill="#fff" d="M200.1 81.272a66.47 66.47 0 0 0-49.22-21.27c-18.2 0-36.72 7.8-48.56 20.42a58 58 0 0 0-6.54-.37c-35.69 0-57.78 30-57.78 57.84a59.56 59.56 0 0 0 16.21 40.37 56.6 56.6 0 0 0 18.905 13.341 56.6 56.6 0 0 0 22.665 4.659h55.1c37.4 0 67.82-30.66 67.82-68.35a69.3 69.3 0 0 0-18.6-46.64M94.75 186.382a47.922 47.922 0 0 1-11.68-94.45 47.92 47.92 0 0 1 43.3 10.72l.23.2 19.85 20.37a8.543 8.543 0 0 1-.26 11.998 8.543 8.543 0 0 1-12-.108l-19.66-20.18a30.57 30.57 0 0 0-50.51 23.11c0 16.79 14.3 31 31.23 31h3.93v.11c5.63 7.77 21.31 17.28 21.31 17.28zm98.17-17.24a56.88 56.88 0 0 1-41 17.57c-14.7 0-29.71-6.57-41.18-18l-26.24-26.3a8.562 8.562 0 0 1 6.03-14.55 8.46 8.46 0 0 1 6.12 2.57l26.06 26.13c8.27 8.29 18.89 13 29.13 13a39.8 39.8 0 0 0 28.85-12.47 42.38 42.38 0 0 0 12-29.54 41 41 0 0 0-41-41c-8.62 0-15.74 1.67-22.69 6.62-.08-.06-2-1.31-4.09-2.6-1.32-.8-2.74-1.6-3.86-2.21s-4.81-2.43-6.93-3.3c-.53-.22-1.21-.47-1.5-.57h.06c10.8-10.1 24.24-15 39-15a58.14 58.14 0 0 1 58.09 58.07 59.43 59.43 0 0 1-16.85 41.59z"/></svg>