<svg xmlns="http://www.w3.org/2000/svg" width="256" height="256" fill="none"><g clip-path="url(#clip0_1_17)"><path fill="#282828" d="M196 0H60C26.863 0 0 26.863 0 60v136c0 33.137 26.863 60 60 60h136c33.137 0 60-26.863 60-60V60c0-33.137-26.863-60-60-60"/><path fill="#77B900" d="M48.88 89.044s17.221-25.41 51.608-28.039v-9.218c-38.088 3.059-71.07 35.317-71.07 35.317s18.68 54.002 71.07 58.946v-9.799C62.042 131.415 48.88 89.044 48.88 89.044m51.608 27.72v8.974c-29.057-5.18-37.122-35.384-37.122-35.384s13.951-15.455 37.122-17.961v9.847c-.018 0-.03-.006-.045-.006-12.16-1.46-21.661 9.9-21.661 9.9s5.325 19.126 21.706 24.63m0-81.98v17.003a79 79 0 0 1 3.36-.197c43.301-1.46 71.514 35.513 71.514 35.513s-32.404 39.403-66.163 39.403c-3.094 0-5.991-.287-8.711-.769v10.514c2.326.296 4.738.469 7.255.469 31.416 0 54.134-16.044 76.133-35.033 3.647 2.921 18.58 10.027 21.649 13.138-20.917 17.512-69.664 31.628-97.3 31.628-2.664 0-5.223-.16-7.737-.403v14.774h119.407V34.784zm0 37.609V61.005a88 88 0 0 1 3.36-.172c31.138-.978 51.566 26.758 51.566 26.758s-22.065 30.644-45.722 30.644c-3.405 0-6.457-.547-9.204-1.471V82.24c12.122 1.464 14.561 6.818 21.848 18.967l16.209-13.667s-11.832-15.518-31.778-15.518c-2.168 0-4.242.152-6.279.37"/><path fill="#F4F2ED" d="M77.566 213.568q-1.72.75-3.125 1.406-1.375.657-3.625 1.375-1.906.594-4.156 1-2.22.438-4.907.438-5.062 0-9.218-1.407a18.95 18.95 0 0 1-7.188-4.468q-3-2.97-4.687-7.532-1.688-4.593-1.688-10.656 0-5.75 1.625-10.281t4.688-7.656q2.968-3.032 7.156-4.625 4.218-1.594 9.344-1.594 3.75 0 7.468.906 3.75.906 8.313 3.188v7.343h-.469q-3.843-3.218-7.625-4.687-3.78-1.469-8.094-1.469-3.531 0-6.375 1.156-2.813 1.125-5.03 3.532-2.157 2.343-3.376 5.937-1.187 3.563-1.187 8.25 0 4.906 1.312 8.438 1.344 3.53 3.438 5.75a13.8 13.8 0 0 0 5.093 3.437 17.6 17.6 0 0 0 6.188 1.094q4.469 0 8.375-1.531 3.907-1.531 7.312-4.594h.438zm43.781-15.313q0 5.063-1.125 8.844-1.093 3.75-3.625 6.25a14.6 14.6 0 0 1-5.625 3.469q-3.219 1.094-7.5 1.094-4.374 0-7.625-1.157-3.25-1.156-5.469-3.406-2.53-2.562-3.656-6.187-1.094-3.626-1.094-8.907v-27.843h6.188v28.156q0 3.781.5 5.969a12 12 0 0 0 1.75 3.968q1.375 2.032 3.719 3.063 2.375 1.03 5.687 1.031 3.343 0 5.688-1 2.343-1.031 3.75-3.094 1.218-1.78 1.718-4.062.532-2.313.532-5.719v-28.312h6.187zm51.125-4.531q0 6.344-2.781 11.5-2.75 5.156-7.344 8-3.187 1.97-7.125 2.844-3.906.875-10.312.875h-11.75v-46.531h11.625q6.812 0 10.812 1 4.032.968 6.813 2.687a20.8 20.8 0 0 1 7.406 7.906q2.656 4.938 2.656 11.719m-6.469-.094q0-5.468-1.906-9.218t-5.687-5.907a19 19 0 0 0-5.844-2.156q-3.094-.624-7.406-.625h-5.813v35.906h5.813q4.469 0 7.781-.656a17.5 17.5 0 0 0 6.125-2.437q3.469-2.219 5.187-5.844 1.75-3.625 1.75-9.063m53.157 23.313h-6.594l-4.563-12.969h-20.125l-4.562 12.969h-6.281l16.937-46.531h8.25zm-13.063-18.281-8.156-22.844-8.188 22.844z"/></g><defs><clipPath id="clip0_1_17"><path fill="#fff" d="M0 0h256v256H0z"/></clipPath></defs></svg>