<svg xmlns="http://www.w3.org/2000/svg" fill="none" viewBox="0 0 256 256"><g clip-path="url(#clip0_1_32)"><path fill="#F4F2ED" d="M196.005.011h-136c-33.137 0-60 26.863-60 60v136c0 33.137 26.863 60 60 60h136c33.137 0 60-26.863 60-60v-136c0-33.137-26.863-60-60-60"/><path fill="#000" d="M77.614 220.547a150 150 0 0 0-3.37 1.516q-1.482.708-3.91 1.483-2.055.64-4.481 1.078-2.393.472-5.29.472-5.46 0-9.942-1.516-4.45-1.55-7.751-4.819-3.236-3.201-5.055-8.122-1.82-4.953-1.82-11.491 0-6.201 1.753-11.087t5.055-8.257q3.2-3.268 7.717-4.987 4.549-1.719 10.076-1.719 4.043 0 8.054.978 4.044.977 8.964 3.437v7.919h-.505q-4.146-3.471-8.223-5.055t-8.728-1.584q-3.808 0-6.875 1.247-3.033 1.213-5.425 3.808-2.326 2.528-3.64 6.403-1.28 3.842-1.28 8.897 0 5.29 1.415 9.099 1.449 3.807 3.707 6.2a14.9 14.9 0 0 0 5.493 3.707q3.167 1.18 6.672 1.18 4.819 0 9.032-1.652 4.212-1.65 7.885-4.953h.472zm47.213-16.513q0 5.46-1.214 9.537-1.179 4.044-3.909 6.74a15.74 15.74 0 0 1-6.065 3.741q-3.472 1.179-8.088 1.179-4.718 0-8.223-1.247-3.504-1.246-5.897-3.673-2.73-2.763-3.943-6.672-1.18-3.91-1.18-9.605v-30.026h6.673v30.363q0 4.078.539 6.437a12.9 12.9 0 0 0 1.887 4.28q1.484 2.19 4.01 3.302 2.561 1.112 6.134 1.112 3.606 0 6.133-1.078 2.528-1.113 4.044-3.336 1.314-1.921 1.853-4.381.573-2.494.573-6.167v-30.532h6.673zm55.132-4.886q0 6.84-3 12.401-2.965 5.56-7.919 8.627-3.437 2.124-7.683 3.067-4.213.943-11.121.943h-12.671v-50.178h12.536q7.346 0 11.66 1.079 4.347 1.044 7.346 2.898 5.123 3.201 7.987 8.526 2.865 5.324 2.865 12.637m-6.976-.101q0-5.898-2.056-9.941t-6.133-6.37a20.5 20.5 0 0 0-6.302-2.325q-3.336-.674-7.987-.674h-6.268v38.721h6.268q4.82 0 8.392-.708 3.605-.708 6.605-2.629 3.74-2.392 5.594-6.301 1.887-3.91 1.887-9.773m57.322 25.139h-7.11l-4.92-13.985h-21.703l-4.92 13.985h-6.773l18.265-50.178h8.896zm-14.086-19.714-8.795-24.634-8.83 24.634z"/><path fill="#77B900" d="M46.68 86.263s18.57-27.401 55.652-30.236v-9.941c-41.072 3.299-76.64 38.085-76.64 38.085s20.145 58.234 76.64 63.566v-10.566c-41.458-5.216-55.653-50.908-55.653-50.908m55.652 29.893v9.677c-31.333-5.586-40.03-38.157-40.03-38.157s15.044-16.666 40.03-19.37v10.62c-.019 0-.032-.007-.048-.007-13.114-1.574-23.359 10.677-23.359 10.677s5.743 20.625 23.407 26.56m0-88.406v18.336a86 86 0 0 1 3.624-.213C152.65 44.3 183.074 84.17 183.074 84.17s-34.943 42.491-71.349 42.491c-3.336 0-6.46-.309-9.394-.829v11.339c2.509.318 5.11.505 7.824.505 33.878 0 58.378-17.302 82.1-37.779 3.934 3.15 20.036 10.813 23.346 14.168-22.556 18.884-75.124 34.107-104.926 34.107-2.873 0-5.632-.173-8.344-.435v15.932h128.767V27.749zm0 40.557v-12.28a95 95 0 0 1 3.624-.186c33.578-1.055 55.607 28.855 55.607 28.855s-23.793 33.046-49.305 33.046c-3.672 0-6.963-.59-9.926-1.586v-37.23c13.072 1.579 15.702 7.353 23.561 20.454l17.479-14.739s-12.759-16.733-34.268-16.733c-2.338-.001-4.575.164-6.772.399"/></g><defs><clipPath id="clip0_1_32"><path fill="#fff" d="M0 0h256v256H0z"/></clipPath></defs></svg>