<svg xmlns="http://www.w3.org/2000/svg" fill="none" viewBox="0 0 256 256"><path fill="#A40000" d="M196 0H60C26.863 0 0 26.863 0 60v136c0 33.137 26.863 60 60 60h136c33.137 0 60-26.863 60-60V60c0-33.137-26.863-60-60-60"/><path fill="#EEEEEC" d="M48.61 60.756c-2.383.294-4.251 2.198-4.26 4.501l.151 117.621a4 4 0 0 0 0 .512 4 4 0 0 0 .002.796v.114c.026.113.088.231.122.341v.057c.026.113.027.231.062.342v.113c.055.114.118.232.183.342v.056c.085.116.21.234.305.341v.057c.056.114.119.232.184.341v.114c.116.089.242.149.366.227v.114c.086.087.15.147.244.227l.122.114c.086.087.15.147.244.227h.061c.223.188.476.365.732.511h.122c.117.061.243.119.366.17h.06c.118.061.244.119.366.17.178.038.368.038.549.057.296.053.612.11.914.112l.488-.001 45.033-.179c12.873-.023 21.495-.244 26.63-.893h.121c4.914-.683 10.119-1.941 15.779-3.779 9.838-3.077 18.563-7.623 26.064-13.695 7.345-5.882 13.036-12.846 17.037-20.681 4-7.834 6.016-16.118 6.001-24.705-.021-11.953-3.636-23.146-10.89-33.216s-17.155-17.782-29.341-22.89c-12.387-5.252-28.539-7.646-48.578-7.61l-48.629.07c-.209.002-.407-.023-.61.002m26.174 24.203 20.963-.031c9.797-.017 16.767.28 20.721.823 4.007.55 8.397 1.713 13.045 3.51 4.607 1.755 8.623 3.905 12.075 6.582v.114c9.494 7.27 13.969 16.008 13.99 27.578.021 11.847-4.304 21.074-13.553 28.813-2.844 2.349-6.008 4.341-9.498 5.989-3.299 1.537-7.602 2.861-13.036 4.002-5.125 1.026-12.905 1.609-23.033 1.627l-21.572.032z"/><path fill="#EEEEEC" d="M222.212 101.896a29.15 29.15 0 0 1-2.604 12.015c-1.72 3.809-4.242 7.27-7.421 10.186s-6.954 5.229-11.109 6.807a37 37 0 0 1-13.103 2.39c-4.497 0-8.949-.812-13.104-2.39s-7.929-3.891-11.108-6.807-5.701-6.377-7.421-10.186a29.2 29.2 0 0 1-2.605-12.015c0-4.123.885-8.206 2.605-12.016 1.72-3.809 4.242-7.27 7.421-10.186s6.954-5.228 11.108-6.806a37 37 0 0 1 13.104-2.39c4.497 0 8.949.812 13.103 2.39 4.155 1.578 7.929 3.89 11.109 6.806s5.701 6.377 7.421 10.186a29.1 29.1 0 0 1 2.604 12.016m15.778-34.498a9.4 9.4 0 0 1-.837 3.86 10.1 10.1 0 0 1-2.385 3.274 11.1 11.1 0 0 1-3.569 2.187 11.9 11.9 0 0 1-4.21.768c-1.445 0-2.876-.261-4.211-.768a11.1 11.1 0 0 1-3.569-2.187 10.1 10.1 0 0 1-2.384-3.273 9.4 9.4 0 0 1-.837-3.86c0-1.326.284-2.637.837-3.861a10.1 10.1 0 0 1 2.384-3.273 11.1 11.1 0 0 1 3.569-2.187 11.9 11.9 0 0 1 4.211-.768c1.445 0 2.875.26 4.21.768a11.1 11.1 0 0 1 3.569 2.187 10.1 10.1 0 0 1 2.385 3.273 9.4 9.4 0 0 1 .837 3.86"/></svg>