<svg xmlns="http://www.w3.org/2000/svg" fill="none" viewBox="0 0 256 256"><path fill="#282828" d="M196 0H60C26.863 0 0 26.863 0 60v136c0 33.137 26.863 60 60 60h136c33.137 0 60-26.863 60-60V60c0-33.137-26.863-60-60-60"/><path fill="#fff" d="m202.271 128.431-22.791-22.684 11.389-22.677 37.025 36.858a11.986 11.986 0 0 1 0 17.008l-45.569 45.363c-4.72 4.698-12.369 4.698-17.085 0a11.986 11.986 0 0 1 0-17.005z" opacity=".56"/><path fill="#fff" d="M165.243 74.521c4.719-4.696 12.368-4.694 17.088.002l8.544 8.505-99.683 99.231c-4.716 4.694-12.368 4.694-17.085-.003l-8.544-8.506zm-42.72 31.188-17.087 17.012-22.788-22.686-28.484 28.355 22.787 22.683-11.388 22.677-37.025-36.857c-4.717-4.698-4.717-12.311 0-17.006l45.57-45.364c4.716-4.696 12.367-4.698 17.084-.002z"/></svg>