<svg xmlns="http://www.w3.org/2000/svg" width="256" height="256" fill="none"><path fill="#282828" d="M196 0H60C26.863 0 0 26.863 0 60v136c0 33.137 26.863 60 60 60h136c33.137 0 60-26.863 60-60V60c0-33.137-26.863-60-60-60"/><path fill="#1AD1A5" d="M157.75 170h-58.5C83.096 170 70 183.375 70 199.875s13.096 29.875 29.25 29.875h58.5c16.154 0 29.25-13.375 29.25-29.875S173.904 170 157.75 170"/><path fill="#000" fill-opacity=".2" d="M128.5 161c36.174 0 65.5-30.22 65.5-67.5S164.674 26 128.5 26 63 56.22 63 93.5 92.326 161 128.5 161"/><path fill="#CCC" d="M128 153c32.584 0 59-26.862 59-60 0-33.137-26.416-60-59-60S69 59.863 69 93s26.416 60 59 60"/><path fill="#fff" d="M128 150c30.927 0 56-25.519 56-57 0-31.48-25.073-57-56-57S72 61.52 72 93c0 31.481 25.073 57 56 57"/><path fill="#FF9903" d="M128.208 119.536c14.474 0 26.208-11.984 26.208-26.768S142.682 66 128.208 66 102 77.984 102 92.768s11.734 26.768 26.208 26.768"/></svg>