<svg xmlns="http://www.w3.org/2000/svg" width="256" height="256" fill="none"><g clip-path="url(#clip0_28_30)"><path fill="#632CA6" d="M196 0H60C26.863 0 0 26.863 0 60v136c0 33.137 26.863 60 60 60h136c33.137 0 60-26.863 60-60V60c0-33.137-26.863-60-60-60"/><g clip-path="url(#clip1_28_30)"><path fill="#fff" d="M103.93 72.719c7.952-5.438 18.197-3.3 16.483-1.662-3.269 3.125 1.08 2.201 1.549 7.968.345 4.247-1.037 6.585-2.226 7.916-2.483.326-5.501.934-9.134 2.12a46 46 0 0 0-5.658 2.265 13.5 13.5 0 0 1-1.456-1.11c-5.61-4.88-5.421-13.486.442-17.497m47.502 33.618c1.443-1.122 8.001-3.237 14.072-3.957 3.188-.377 7.732-.595 8.701-.051 1.925 1.066 1.925 4.367.606 7.415-1.92 4.428-4.633 9.322-7.707 9.724-5.013.664-9.753-2.059-15.165-6.115-1.932-1.458-3.119-4.99-.507-7.016m9.147-43.12c7.403 3.456 6.434 10.031 6.639 13.894.056 1.11.038 1.858-.055 2.372-1.025-.558-2.645-.967-5.214-.853-.751.03-1.481.12-2.189.232-2.731-1.468-4.364-4.341-5.858-7.395a15 15 0 0 1-.345-.779c-.043-.112-.088-.231-.132-.333-.017-.056-.03-.1-.05-.15-.819-2.608-.269-3.13.076-3.934.357-.822 1.694-1.5-.282-2.184-.17-.063-.38-.099-.618-.145 1.308-1.628 5.226-2.023 8.028-.725m-40.354 78.619c-7.975-5.138-16.227-12.508-19.836-16.587-.606-.458-.507-2.491-.507-2.491 3.256 2.54 16.765 12.225 31.05 16.647 5.039 1.563 12.771 2.153 19.478-1.661 5.125-2.917 11.295-7.998 14.977-13.235l.675 1.173c-.025.778-1.719 4.573-2.582 6.097 1.557.898 2.719 1.142 4.451 1.618l11.827-1.85c4.246-6.881 7.289-17.978 4.045-28.541-1.851-6.059-11.503-18.123-12.195-18.787-2.424-2.34.406-11.373-4.4-21.228-5.079-10.426-18.314-21.297-24.063-26.027 1.694 1.241 12.127 5.463 16.991 11.354.456-.608.644-3.771 1.062-4.573-4.177-5.489-4.501-15.255-4.501-17.866 0-4.787-2.425-10.212-2.425-10.212s4.177 3.318 5.257 9.034c1.276 6.768 3.995 12.1 7.59 16.611 6.807 8.507 12.954 12.872 16.06 9.729 3.718-3.777-3.771-20.668-13.336-30.096-11.166-11.004-14.084-9.586-20.635-7.24-5.226 1.87-8.051 16.762-21.674 16.467-2.308-.27-8.252-.415-11.191-.39 1.532-2.145 2.845-3.801 2.845-3.801s-4.57 1.845-8.465 4.183l-.299-.45c1.314-2.78 2.726-4.535 2.726-4.535s-3.652 2.201-6.984 4.838c.606-3.314 2.901-5.413 2.901-5.413s-4.613.835-10.488 7.321c-6.677 1.832-8.283 3.036-13.603 5.4-8.653-1.893-12.733-4.95-16.623-10.576-2.962-4.298-8.234-4.95-13.62-2.728-7.854 3.257-17.787 7.718-17.787 7.718s3.238-.132 6.614.013c-4.62 1.756-9.059 4.17-9.059 4.17s2.163-.076 4.834-.03c-1.844 1.537-2.863 2.27-4.62 3.438-4.226 3.08-7.652 6.637-7.652 6.637s2.869-1.31 5.445-2.046c-1.8 4.14-5.371 7.188-4.714 12.258.631 4.628 6.294 14.163 13.602 20.016.632.509 10.616 9.78 18.147 5.973 7.527-3.802 10.497-7.19 11.734-12.383 1.456-5.965.626-10.476-2.483-23.424C67.77 42.09 65.1 33.29 63.811 29.08l.287-.206c2.462 5.214 8.764 18.958 11.302 28.19 3.964 14.395 2.727 21.699.913 24.376-5.47 8.074-19.486 9.14-25.86 4.667-.977 15.499 2.474 22.324 3.643 25.762-.58 3.952 1.97 11.291 1.97 11.291s.287-3.336 1.456-5.094c.312 3.921 2.283 8.58 2.283 8.58s-.12-2.878.776-5.364c1.262 2.145 2.188 2.654 3.383 4.265 1.194 4.191 3.588 7.252 3.588 7.252s-.388-2.247-.175-4.585c5.845 5.634 6.852 13.856 7.433 20.174 1.638 17.37-27.294 31.183-32.901 42.049-4.25 6.435-6.797 16.617.4 22.62 17.397 14.497 10.715 18.487 19.423 24.859 11.947 8.738 26.893 4.824 31.98-2.283 7.083-9.904 5.265-19.245 2.633-27.984-2.057-6.832-7.646-18.184-14.56-22.576-7.064-4.492-13.934-5.332-19.754-4.731l.538-.621c8.37-1.669 17.122-.753 23.454 3.344 7.19 4.636 13.765 12.588 17.204 24.777 3.9-.557 4.451-.809 8.021-1.318l-8.039-62.793zm4.646 78.707-.926-8.708 18.079-27.671 20.523 6.016 17.648-29.577 21.154 14.003 16.073-33.824 5.713 61.6zm98.477-92.375-64.595 11.749c-1.6 2.069-5.556 5.703-7.458 6.649-8.158 4.123-13.671 2.929-18.436 1.687-3.063-.778-4.838-1.216-7.382-2.364l-15.766 2.171 9.571 80.125 110.655-20.017z"/></g></g><defs><clipPath id="clip0_28_30"><path fill="#fff" d="M0 0h256v256H0z"/></clipPath><clipPath id="clip1_28_30"><path fill="#fff" d="M27 12h203v231H27z"/></clipPath></defs></svg>