<svg xmlns="http://www.w3.org/2000/svg" width="256" height="256" fill="none"><g id="DataGrip" clip-path="url(#clip0_8_128)"><path id="Vector" fill="#F4F2ED" d="M196 0H60C26.863 0 0 26.863 0 60v136c0 33.137 26.863 60 60 60h136c33.137 0 60-26.863 60-60V60c0-33.137-26.863-60-60-60"/><g id="Group 18"><path id="Vector_2" fill="url(#paint0_linear_8_128)" d="m213.507 60.164 12.492 77.695-22.851 15.539z"/><path id="Vector_3" fill="url(#paint1_linear_8_128)" d="m225.999 137.859-22.851 15.539 3.961-36.563z"/><path id="Vector_4" fill="url(#paint2_linear_8_128)" d="M213.508 60.164 143.734 30l-19.5 16.148z"/><path id="Vector_5" fill="url(#paint3_linear_8_128)" d="M158.664 51.937 143.734 30l-19.5 16.148z"/><path id="Vector_6" fill="url(#paint4_linear_8_128)" d="M162.625 225 54.461 138.774 32.83 203.977z"/><path id="Vector_7" fill="url(#paint5_linear_8_128)" d="m162.625 224.999-86.836-38.085-42.96 17.062z"/><path id="Vector_8" fill="url(#paint6_linear_8_128)" d="M177.859 170.46 31 119.882l131.625 105.117z"/><path id="Vector_9" fill="url(#paint7_linear_8_128)" d="m177.859 170.46-9.751-3.351-14.32 18.586 8.836 39.304z"/><path id="Vector_10" fill="url(#paint8_linear_8_128)" d="M153.789 185.695 31 119.882l112.429 89.883 19.196 15.234z"/><path id="Vector_11" fill="url(#paint9_linear_8_128)" d="M31 31.523v88.36l169.101 58.195 13.406-117.914z"/><path id="Vector_12" fill="url(#paint10_linear_8_128)" d="M31 31.523v88.36l169.101 58.195-19.805-88.969z"/><path id="Vector_13" fill="url(#paint11_linear_8_128)" d="M31 31.523v88.36l40.523-24.375z"/><path id="Vector_14" fill="url(#paint12_linear_8_128)" d="m75.79 186.914 105.116-97.195L70 96.422 32.83 203.976z"/><path id="Vector_15" fill="url(#paint13_linear_8_128)" d="m75.79 186.914 3.656-28.64-24.985-19.5-21.632 65.203z"/><path id="Vector_16" fill="url(#paint14_linear_8_128)" d="m75.79 186.914 3.656-28.64-24.985-19.5-21.632 65.203z"/><path id="Vector_17" fill="url(#paint15_linear_8_128)" d="m213.507 60.164-13.406 117.913-19.805-88.968z"/><path id="Vector_18" fill="url(#paint16_linear_8_128)" d="m200.102 178.078 3.046-24.68-7.312 5.18z"/><path id="Vector_19" fill="url(#paint17_linear_8_128)" d="m200.101 178.078-22.242-7.617 17.977-11.883z"/><path id="Vector_20" fill="url(#paint18_linear_8_128)" d="m213.507 60.164-48.14 42.656-96.281-6.703 55.148-49.97z"/><path id="Vector_21" fill="url(#paint19_linear_8_128)" d="m180.296 89.11 33.211-28.946L31 31.524z"/><path id="Vector_22" fill="url(#paint20_linear_8_128)" d="m180.296 89.11 33.211-28.946L31 31.524z"/><path id="Vector_23" fill="url(#paint21_linear_8_128)" d="m107.782 61.078 72.515 28.03 2.437-2.132-24.375-35.344-34.124-5.484z"/><path id="Vector_24" fill="url(#paint22_linear_8_128)" d="M189.437 66.563H67.562v121.874h121.875z"/><g id="Group" opacity=".5"><path id="Vector_25" fill="url(#paint23_linear_8_128)" d="M67.563 149.438v38.999h49.054z" opacity=".3"/><path id="Vector_26" fill="url(#paint24_linear_8_128)" d="M67.563 149.438v38.999h5.18l3.046-1.218 18.129-16.758z" opacity=".3"/><path id="Vector_27" fill="url(#paint25_linear_8_128)" d="m67.563 149.437 49.054 39h56.367l4.875-17.672-110.297-37.933z" opacity=".3"/><path id="Vector_28" fill="url(#paint26_linear_8_128)" d="m153.789 186 .609 2.437h18.586l4.875-17.671-29.25-9.903z" opacity=".3"/><path id="Vector_29" fill="url(#paint27_linear_8_128)" d="m189.437 81.492-9.141 7.922 9.141 40.675z" opacity=".3"/><path id="Vector_30" fill="url(#paint28_linear_8_128)" d="M189.437 66.563h-68.098l58.957 22.851 9.141-7.922z" opacity=".3"/><path id="Vector_31" fill="url(#paint29_linear_8_128)" d="M189.437 174.726V130.09l-9.14-40.676-58.957-22.851H67.563v66.269z" opacity=".3"/></g><path id="Vector_32" fill="#fff" d="M128.5 165.434H82.797v7.617H128.5z"/><path id="Vector_33" fill="#fff" d="M81.425 81.876h17.761c14.32 0 24.233 9.775 24.233 22.718v.137c0 12.805-9.913 22.856-24.233 22.856H81.425zm10.05 9.087V118.5h7.711c8.261 0 13.769-5.507 13.769-13.631v-.138c0-8.123-5.508-13.768-13.769-13.768z"/><path id="Vector_34" fill="#fff" d="M127.496 104.869c0-13.08 10.051-23.683 23.957-23.683 8.261 0 13.218 2.203 17.899 6.196l-6.333 7.573c-3.58-2.891-6.609-4.681-11.979-4.681-7.298 0-13.08 6.471-13.08 14.181v.276c0 8.399 5.782 14.457 13.768 14.457 3.718 0 6.885-.964 9.501-2.754v-6.471h-10.051v-8.674h19.826v19.827c-4.681 3.993-11.152 7.297-19.551 7.297-14.182-.138-23.957-10.051-23.957-23.544"/></g></g><defs><linearGradient id="paint0_linear_8_128" x1="209.641" x2="215.343" y1="103.348" y2="152.992" gradientUnits="userSpaceOnUse"><stop offset=".16" stop-color="#21D789"/><stop offset=".54" stop-color="#419FBC"/><stop offset="1" stop-color="#6B57FF"/></linearGradient><linearGradient id="paint1_linear_8_128" x1="184.627" x2="258.731" y1="127.988" y2="154.081" gradientUnits="userSpaceOnUse"><stop offset=".021" stop-color="#B74AF7" stop-opacity="0"/><stop offset=".744" stop-color="#8053FD" stop-opacity=".739"/><stop offset="1" stop-color="#6B57FF"/></linearGradient><linearGradient id="paint2_linear_8_128" x1="157.656" x2="172.08" y1="82.05" y2="45.152" gradientUnits="userSpaceOnUse"><stop stop-color="#6B57FF"/><stop offset=".952" stop-color="#21D789"/></linearGradient><linearGradient id="paint3_linear_8_128" x1="157.907" x2="134.519" y1="36.239" y2="52.627" gradientUnits="userSpaceOnUse"><stop stop-color="#00FF6A"/><stop offset=".952" stop-color="#21D789" stop-opacity="0"/></linearGradient><linearGradient id="paint4_linear_8_128" x1="162.319" x2="25.355" y1="252.731" y2="158.932" gradientUnits="userSpaceOnUse"><stop offset=".098" stop-color="#6B57FF"/><stop offset=".118" stop-color="#685CFB"/><stop offset=".345" stop-color="#4A91CA"/><stop offset=".542" stop-color="#34B7A7"/><stop offset=".699" stop-color="#26CE91"/><stop offset=".797" stop-color="#21D789"/></linearGradient><linearGradient id="paint5_linear_8_128" x1="92.111" x2="100.142" y1="149.453" y2="242.501" gradientUnits="userSpaceOnUse"><stop offset=".098" stop-color="#6B57FF"/><stop offset=".118" stop-color="#685CFB"/><stop offset=".345" stop-color="#4A91CA"/><stop offset=".542" stop-color="#34B7A7"/><stop offset=".699" stop-color="#26CE91"/><stop offset=".797" stop-color="#21D789"/></linearGradient><linearGradient id="paint6_linear_8_128" x1="43.147" x2="214.02" y1="127.521" y2="221.866" gradientUnits="userSpaceOnUse"><stop offset=".075" stop-color="#21D789"/><stop offset=".887" stop-color="#6B57FF"/></linearGradient><linearGradient id="paint7_linear_8_128" x1="153.782" x2="177.855" y1="196.079" y2="196.079" gradientUnits="userSpaceOnUse"><stop offset=".027" stop-color="#4F46C6"/><stop offset="1" stop-color="#6B57FF"/></linearGradient><linearGradient id="paint8_linear_8_128" x1="37.107" x2="207.98" y1="138.461" y2="232.806" gradientUnits="userSpaceOnUse"><stop offset=".027" stop-color="#21D789"/><stop offset=".7" stop-color="#685CFA"/><stop offset="1" stop-color="#6B57FF"/></linearGradient><linearGradient id="paint9_linear_8_128" x1="21.529" x2="189.078" y1="78.908" y2="115.359" gradientUnits="userSpaceOnUse"><stop offset=".242" stop-color="#21D789"/><stop offset=".447" stop-color="#59A3B2"/><stop offset=".767" stop-color="#B74AF7"/><stop offset="1" stop-color="#FF45ED"/></linearGradient><linearGradient id="paint10_linear_8_128" x1="43.227" x2="202.414" y1="104.77" y2="104.77" gradientUnits="userSpaceOnUse"><stop offset=".131" stop-color="#21D789"/><stop offset=".349" stop-color="#59A3B2"/><stop offset=".69" stop-color="#B74AF7"/><stop offset="1" stop-color="#FF45ED"/></linearGradient><linearGradient id="paint11_linear_8_128" x1="33.917" x2="71.896" y1="75.695" y2="75.695" gradientUnits="userSpaceOnUse"><stop offset=".309" stop-color="#56D789"/><stop offset=".959" stop-color="#8DFC77"/><stop offset="1" stop-color="#91FF76"/></linearGradient><linearGradient id="paint12_linear_8_128" x1="97.903" x2="110.983" y1="262.306" y2="91.33" gradientUnits="userSpaceOnUse"><stop stop-color="#21D789"/><stop offset=".996" stop-color="#6B57FF" stop-opacity="0"/></linearGradient><linearGradient id="paint13_linear_8_128" x1="46.158" x2="57.902" y1="137.953" y2="189.12" gradientUnits="userSpaceOnUse"><stop offset=".206" stop-color="#6B57FF"/><stop offset=".327" stop-color="#6266F1"/><stop offset=".562" stop-color="#4B8FCC"/><stop offset=".884" stop-color="#26CF90"/><stop offset=".921" stop-color="#21D789"/></linearGradient><linearGradient id="paint14_linear_8_128" x1="31.401" x2="80.376" y1="161.919" y2="200.102" gradientUnits="userSpaceOnUse"><stop offset=".309" stop-color="#56D789" stop-opacity="0"/><stop offset=".959" stop-color="#8DFC77" stop-opacity=".94"/><stop offset="1" stop-color="#91FF76"/></linearGradient><linearGradient id="paint15_linear_8_128" x1="180.33" x2="213.564" y1="119.236" y2="119.236" gradientUnits="userSpaceOnUse"><stop offset=".261" stop-color="#B74AF7"/><stop offset="1" stop-color="#FF45ED"/></linearGradient><linearGradient id="paint16_linear_8_128" x1="207.008" x2="196.631" y1="173.792" y2="158.435" gradientUnits="userSpaceOnUse"><stop stop-color="#FF72F1"/><stop offset=".963" stop-color="#B74AF7"/></linearGradient><linearGradient id="paint17_linear_8_128" x1="208.257" x2="188.335" y1="188.084" y2="166.087" gradientUnits="userSpaceOnUse"><stop offset=".668" stop-color="#FF72F1"/><stop offset="1" stop-color="#B74AF7"/></linearGradient><linearGradient id="paint18_linear_8_128" x1="101.428" x2="152.884" y1="11.546" y2="97.475" gradientUnits="userSpaceOnUse"><stop offset=".163" stop-color="#B74AF7" stop-opacity=".5"/><stop offset=".999" stop-color="#00FF6A" stop-opacity="0"/></linearGradient><linearGradient id="paint19_linear_8_128" x1="179.35" x2="140.336" y1="115.058" y2="67.743" gradientUnits="userSpaceOnUse"><stop offset=".297" stop-color="#FF4FFF" stop-opacity=".96"/><stop offset=".999" stop-color="#FF45ED" stop-opacity="0"/></linearGradient><linearGradient id="paint20_linear_8_128" x1="118.152" x2="122.302" y1="68.978" y2="45.736" gradientUnits="userSpaceOnUse"><stop stop-color="#FF4FFF" stop-opacity=".96"/><stop offset=".993" stop-color="#FF45ED" stop-opacity="0"/></linearGradient><linearGradient id="paint21_linear_8_128" x1="168.533" x2="149.105" y1="47.181" y2="69.633" gradientUnits="userSpaceOnUse"><stop offset=".121" stop-color="#A326F7"/><stop offset=".952" stop-color="#B74AF7" stop-opacity="0"/></linearGradient><linearGradient id="paint22_linear_8_128" x1="65.925" x2="181.317" y1="64.925" y2="180.317" gradientUnits="userSpaceOnUse"><stop offset=".028" stop-color="#007E67"/><stop offset=".112" stop-color="#005344"/><stop offset=".198" stop-color="#002F27"/><stop offset=".278" stop-color="#001511"/><stop offset=".349" stop-color="#000605"/><stop offset=".406"/><stop offset=".914"/></linearGradient><linearGradient id="paint23_linear_8_128" x1="115.733" x2="53.776" y1="201.903" y2="159.472" gradientUnits="userSpaceOnUse"><stop offset=".098" stop-color="#6B57FF"/><stop offset=".118" stop-color="#685CFB"/><stop offset=".345" stop-color="#4A91CA"/><stop offset=".542" stop-color="#34B7A7"/><stop offset=".699" stop-color="#26CE91"/><stop offset=".797" stop-color="#21D789"/></linearGradient><linearGradient id="paint24_linear_8_128" x1="77.245" x2="81.311" y1="205.717" y2="152.561" gradientUnits="userSpaceOnUse"><stop offset=".075" stop-color="#21D789"/><stop offset=".887" stop-color="#6B57FF"/></linearGradient><linearGradient id="paint25_linear_8_128" x1="75.344" x2="197.91" y1="139.898" y2="207.57" gradientUnits="userSpaceOnUse"><stop stop-color="#34B7A7"/><stop offset=".887" stop-color="#000069"/></linearGradient><linearGradient id="paint26_linear_8_128" x1="148.569" x2="177.856" y1="174.616" y2="174.616" gradientUnits="userSpaceOnUse"><stop offset=".027" stop-color="#4F46C6"/><stop offset="1" stop-color="#1F2C61"/></linearGradient><linearGradient id="paint27_linear_8_128" x1="180.33" x2="189.437" y1="105.799" y2="105.799" gradientUnits="userSpaceOnUse"><stop offset=".261" stop-color="#B74AF7"/><stop offset="1" stop-color="#FF45ED"/></linearGradient><linearGradient id="paint28_linear_8_128" x1="154.598" x2="157.517" y1="78.42" y2="62.071" gradientUnits="userSpaceOnUse"><stop stop-color="#FF4FFF"/><stop offset=".993" stop-color="#FF75FF"/></linearGradient><linearGradient id="paint29_linear_8_128" x1="89.335" x2="171.861" y1="69.26" y2="169.022" gradientUnits="userSpaceOnUse"><stop stop-color="#20D185"/><stop offset=".443" stop-color="#198767"/><stop offset=".844" stop-color="#12414A"/></linearGradient><clipPath id="clip0_8_128"><path fill="#fff" d="M0 0h256v256H0z"/></clipPath></defs></svg>