<svg xmlns="http://www.w3.org/2000/svg" fill="none" viewBox="0 0 256 256"><g clip-path="url(#clip0_653_2)"><path fill="#F4F2ED" d="M196 0H60C26.863 0 0 26.863 0 60v136c0 33.137 26.863 60 60 60h136c33.137 0 60-26.863 60-60V60c0-33.137-26.863-60-60-60"/><path fill="#FF3621" fill-rule="evenodd" d="M225.351 178.76v-36.824l-3.898-2.489-93.534 52.25-88.663-49.761v-21.398l88.663 49.265 97.919-54.241V79.236l-3.897-2.488-94.022 52.748-85.253-47.772 85.253-47.772 68.69 38.317 5.359-2.986v-3.98L127.919 24 30 78.24v5.474l97.919 54.739 88.663-49.763v21.896l-88.663 49.761L33.897 107.6 30 110.088v36.824l97.919 54.241 88.663-49.265v21.398l-88.663 49.761-94.022-52.25L30 173.286v5.474L127.919 233z" clip-rule="evenodd"/></g><defs><clipPath id="clip0_653_2"><path fill="#fff" d="M0 0h256v256H0z"/></clipPath></defs></svg>