<svg xmlns="http://www.w3.org/2000/svg" width="256" height="256" fill="none"><path fill="#F4F2ED" d="M196 0H60C26.863 0 0 26.863 0 60v136c0 33.137 26.863 60 60 60h136c33.137 0 60-26.863 60-60V60c0-33.137-26.863-60-60-60"/><path fill="url(#paint0_linear_58_70)" d="m153.188 41 3.425 70.281-87.582 34.6L42 75.961z"/><path fill="#21D789" d="m215 82.088-75.688 32.797L153.188 41z"/><path fill="url(#paint1_linear_58_70)" d="M134.807 98.306 215 82.087v75.868l-55.144 20.725-22.527-20.545z"/><path fill="url(#paint2_linear_58_70)" d="m101.469 76.14 55.328 8.56L215 157.282l-55.867 21.578-21.557-21.4z"/><path fill="url(#paint3_linear_58_70)" d="m77.681 41 78.932 43.61L129.401 214H83.448l-39.826-41.088z"/><path fill="#000" d="M181.211 74.79H75.789v105.42h105.422z"/><path fill="#fff" d="M126.743 162.055h-39.24v6.443h39.24zm-38.79-73.75h15.413c12.505 0 20.94 8.434 20.94 19.484s-8.434 19.776-20.94 19.776l-15.413.292zm8.725 8.143v23.556h6.688c6.98 0 11.924-4.653 11.924-11.632 0-6.981-4.653-11.924-11.924-11.924zm31.822 25.43 5.096-6.149c3.514 2.986 7.379 4.743 11.772 4.743 3.514 0 5.797-1.406 5.797-3.689v-.176c0-2.284-1.405-3.338-7.906-5.095-8.082-1.934-13.178-4.217-13.178-12.124v-.175c0-7.205 5.799-11.948 13.881-11.948 5.798 0 10.717 1.757 14.759 5.094l-4.568 6.502c-3.514-2.46-7.028-3.865-10.366-3.865s-5.096 1.58-5.096 3.514v.175c0 2.636 1.757 3.514 8.61 5.271 8.082 2.108 12.649 4.92 12.649 11.948v.176c0 7.906-5.973 12.299-14.582 12.299-5.974-.176-12.123-2.285-16.868-6.501"/><defs><linearGradient id="paint0_linear_58_70" x1="12872.3" x2="1405.13" y1="5289.06" y2="5289.06" gradientUnits="userSpaceOnUse"><stop stop-color="#21D789"/><stop offset=".917" stop-color="#FCF84A"/></linearGradient><linearGradient id="paint1_linear_58_70" x1="4141.81" x2="4141.81" y1="967.631" y2="15279.2" gradientUnits="userSpaceOnUse"><stop stop-color="#21D789"/><stop offset="1" stop-color="#087CFA"/></linearGradient><linearGradient id="paint2_linear_58_70" x1="16908.7" x2="1216.61" y1="12894.2" y2="106.352" gradientUnits="userSpaceOnUse"><stop offset=".105" stop-color="#21D789"/><stop offset=".967" stop-color="#087CFA"/></linearGradient><linearGradient id="paint3_linear_58_70" x1="9594.43" x2="663.66" y1="-1290.67" y2="8830.9" gradientUnits="userSpaceOnUse"><stop offset=".235" stop-color="#21D789"/><stop offset=".74" stop-color="#087CFA"/></linearGradient></defs></svg>