<svg xmlns="http://www.w3.org/2000/svg" width="256" height="256" fill="none"><g clip-path="url(#clip0_667_87)"><mask id="mask0_667_87" width="256" height="256" x="0" y="0" maskUnits="userSpaceOnUse" style="mask-type:luminance"><path fill="#fff" d="M196 0H60C26.863 0 0 26.863 0 60v136c0 33.137 26.863 60 60 60h136c33.137 0 60-26.863 60-60V60c0-33.137-26.863-60-60-60"/></mask><g mask="url(#mask0_667_87)"><path fill="#000" d="m114.52 152.544 66.18-66.18-11.437-11.436-66.179 66.18z"/><path fill="#0019FF" d="m180.7 86.363 66.179-66.18-11.436-11.435-66.179 66.18z"/><path fill="#0015FF" d="m181.418 87.29 67.325-65.014-11.235-11.634-67.325 65.015z"/><path fill="#01F" d="M182.121 88.23 250.57 24.4l-11.03-11.828-68.449 63.83z"/><path fill="#000CFF" d="m182.806 89.181 69.553-62.625-10.822-12.02-69.553 62.626z"/><path fill="#0008FF" d="m183.476 90.144 70.634-61.402-10.61-12.206-70.635 61.402z"/><path fill="#0004FF" d="m184.128 91.119 71.695-60.16-10.396-12.39-71.695 60.16z"/><path fill="#00F" d="m184.763 92.105 72.735-58.9-10.179-12.568-72.734 58.9z"/><path fill="#0500FF" d="m185.381 93.102 73.751-57.621-9.957-12.745-73.751 57.62z"/><path fill="#0900FF" d="m185.982 94.109 74.746-56.325-9.734-12.917-74.746 56.325z"/><path fill="#0D00FF" d="m186.564 95.128 75.718-55.012-9.507-13.085-75.717 55.012z"/><path fill="#10F" d="m187.129 96.155 76.666-53.682-9.277-13.248-76.666 53.682z"/><path fill="#1600FF" d="m187.675 97.193 77.591-52.337-9.044-13.408-77.591 52.336z"/><path fill="#1A00FF" d="m188.203 98.24 78.493-50.974-8.808-13.564-78.493 50.974z"/><path fill="#1E00FF" d="m188.714 99.295 79.37-49.596-8.57-13.716-79.371 49.597z"/><path fill="#20F" d="m189.206 100.361 80.224-48.203-8.33-13.864-80.224 48.204z"/><path fill="#2700FF" d="m189.678 101.433 81.053-46.797-8.086-14.006-81.053 46.796z"/><path fill="#2B00FF" d="m190.132 102.515 81.858-45.374-7.841-14.146-81.858 45.375z"/><path fill="#2F00FF" d="m190.569 103.603 82.637-43.938-7.593-14.28-82.637 43.938z"/><path fill="#30F" d="m190.985 104.7 83.391-42.49-7.343-14.41-83.391 42.49z"/><path fill="#3800FF" d="m191.382 105.803 84.12-41.028-7.09-14.536-84.12 41.028z"/><path fill="#3C00FF" d="m191.759 106.914 84.824-39.554-6.836-14.658-84.823 39.553z"/><path fill="#4000FF" d="m192.118 108.03 85.501-38.068-6.579-14.775-85.5 38.067z"/><path fill="#40F" d="m192.456 109.153 86.152-36.57-6.319-14.887-86.152 36.57z"/><path fill="#4800FF" d="m192.776 110.281 86.777-35.06-6.058-14.995-86.777 35.06z"/><path fill="#4D00FF" d="m193.075 111.415 87.376-33.54-5.796-15.1-87.376 33.54z"/><path fill="#5100FF" d="m193.354 112.553 87.948-32.01-5.532-15.198-87.948 32.01z"/><path fill="#50F" d="m193.614 113.698 88.493-30.471-5.265-15.292-88.493 30.47z"/><path fill="#5900FF" d="m193.854 114.845 89.011-28.921-4.998-15.382-89.011 28.922z"/><path fill="#5E00FF" d="m194.074 115.998 89.502-27.364-4.728-15.466-89.503 27.363z"/><path fill="#6200FF" d="m194.271 117.153 89.967-25.798-4.458-15.546-89.967 25.797z"/><path fill="#60F" d="m194.452 118.312 90.403-24.223-4.186-15.623-90.403 24.224z"/><path fill="#6A00FF" d="m194.61 119.474 90.812-22.642-3.912-15.692-90.812 22.642z"/><path fill="#6F00FF" d="m194.749 120.639 91.193-21.054-3.638-15.758-91.193 21.053z"/><path fill="#7300FF" d="m194.867 121.806 91.547-19.459-3.363-15.82-91.546 19.459z"/><path fill="#70F" d="m194.965 122.975 91.872-17.858-3.086-15.877-91.872 17.859z"/><path fill="#7B00FF" d="m195.043 124.144 92.17-16.252-2.809-15.928-92.17 16.253z"/><path fill="#8000FF" d="m195.1 125.315 92.44-14.641-2.53-15.974-92.44 14.641z"/><path fill="#8400FF" d="m195.136 126.488 92.681-13.026-2.251-16.016-92.681 13.026z"/><path fill="#80F" d="m195.153 127.661 92.894-11.406-1.971-16.053-92.894 11.406z"/><path fill="#8C00FF" d="m195.149 128.834 93.079-9.783-1.691-16.085-93.079 9.783z"/><path fill="#9100FF" d="m195.124 130.005 93.236-8.157-1.41-16.112-93.236 8.157z"/><path fill="#9500FF" d="m195.079 131.178 93.364-6.529-1.128-16.133-93.364 6.528z"/><path fill="#90F" d="m195.013 132.348 93.464-4.898-.846-16.151-93.464 4.898z"/><path fill="#9D00FF" d="m194.927 133.519 93.535-3.267-.564-16.163-93.535 3.266z"/><path fill="#A100FF" d="m194.82 134.686 93.578-1.634-.282-16.171-93.578 1.634z"/><path fill="#A600FF" d="M194.694 135.852h93.592v-16.173h-93.592z"/><path fill="#A0F" d="m194.547 137.015 93.578 1.633.282-16.17-93.578-1.634z"/><path fill="#AE00FF" d="m194.379 138.176 93.535 3.266.565-16.163-93.536-3.266z"/><path fill="#B200FF" d="m194.191 139.334 93.464 4.898.846-16.151-93.464-4.898z"/><path fill="#B700FF" d="m193.984 140.487 93.364 6.529 1.128-16.134-93.364-6.528z"/><path fill="#B0F" d="m193.756 141.639 93.236 8.157 1.41-16.112-93.236-8.157z"/><path fill="#BF00FF" d="m193.507 142.785 93.079 9.783 1.691-16.085-93.08-9.783z"/><path fill="#C300FF" d="m193.239 143.926 92.895 11.406 1.971-16.053-92.895-11.406z"/><path fill="#C800FF" d="m192.951 145.063 92.681 13.026 2.251-16.016-92.681-13.026z"/><path fill="#C0F" d="m192.644 146.195 92.439 14.641 2.531-15.974-92.44-14.641z"/><path fill="#D000FF" d="m192.317 147.321 92.17 16.252 2.808-15.928-92.17-16.252z"/><path fill="#D400FF" d="m191.969 148.442 91.873 17.858 3.086-15.876-91.873-17.859z"/><path fill="#D900FF" d="m191.603 149.555 91.547 19.459 3.363-15.82-91.547-19.459z"/><path fill="#D0F" d="m191.218 150.662 91.193 21.054 3.638-15.759-91.193-21.054z"/><path fill="#E100FF" d="m190.813 151.763 90.812 22.642 3.912-15.693-90.812-22.642z"/><path fill="#E500FF" d="m190.387 152.856 90.403 24.224 4.186-15.623-90.403-24.223z"/><path fill="#EA00FF" d="m189.943 153.942 89.967 25.798 4.458-15.547-89.967-25.797z"/><path fill="#E0F" d="m189.482 155.019 89.502 27.363 4.729-15.466-89.503-27.364z"/><path fill="#F200FF" d="m189.001 156.089 89.012 28.922 4.998-15.382-89.012-28.922z"/><path fill="#F600FF" d="m188.502 157.15 88.493 30.471 5.265-15.292-88.493-30.471z"/><path fill="#FA00FF" d="m187.984 158.203 87.948 32.01 5.532-15.198-87.948-32.01z"/><path fill="#F0F" d="m187.448 159.245 87.375 33.541 5.796-15.099-87.375-33.541z"/><path fill="#FF00FB" d="m186.893 160.279 86.777 35.06 6.059-14.995-86.777-35.06z"/><path fill="#FF00F7" d="m186.32 161.303 86.152 36.57 6.319-14.888-86.152-36.569z"/><path fill="#FF00F3" d="m185.731 162.316 85.5 38.067 6.579-14.775-85.501-38.067z"/><path fill="#F0E" d="m185.123 163.319 84.823 39.554 6.835-14.658-84.823-39.554z"/><path fill="#FF00EA" d="m184.498 164.311 84.12 41.028 7.09-14.536-84.12-41.028z"/><path fill="#FF00E6" d="m183.855 165.292 83.391 42.49 7.343-14.41-83.392-42.49z"/><path fill="#FF00E2" d="m183.197 166.261 82.636 43.939 7.593-14.28-82.636-43.939z"/><path fill="#F0D" d="m182.52 167.22 81.857 45.374 7.841-14.145-81.858-45.375z"/><path fill="#FF00D9" d="m181.827 168.167 81.053 46.796 8.087-14.007-81.053-46.796z"/><path fill="#FF00D5" d="m181.118 169.101 80.224 48.204 8.33-13.864-80.224-48.203z"/><path fill="#FF00D1" d="m180.393 170.021 79.37 49.597 8.571-13.716-79.371-49.596z"/><path fill="#F0C" d="m179.651 170.931 78.493 50.974 8.809-13.564-78.493-50.974z"/><path fill="#FF00C8" d="m178.894 171.826 77.591 52.336 9.044-13.408-77.591-52.336z"/><path fill="#FF00C4" d="m178.122 172.708 76.666 53.682 9.277-13.248-76.666-53.682z"/><path fill="#FF00C0" d="m177.334 173.577 75.717 55.012 9.507-13.085-75.718-55.012z"/><path fill="#F0B" d="m176.532 174.432 74.746 56.325 9.733-12.917-74.746-56.325z"/><path fill="#FF00B7" d="m175.713 175.273 73.752 57.621 9.957-12.745-73.751-57.621z"/><path fill="#FF00B3" d="m174.882 176.099 72.734 58.9 10.178-12.569-72.734-58.9z"/><path fill="#FF00AF" d="m174.034 176.911 71.696 60.159 10.396-12.389-71.696-60.16z"/><path fill="#FF00AB" d="m173.173 177.706 70.635 61.402 10.611-12.206-70.635-61.402z"/><path fill="#FF00A6" d="m172.3 178.488 69.552 62.626 10.822-12.019-69.552-62.626z"/><path fill="#FF00A2" d="m171.411 179.254 68.449 63.83 11.031-11.828-68.449-63.83z"/><path fill="#FF009E" d="m170.51 180.005 67.325 65.015 11.235-11.635-67.325-65.014z"/><path fill="#FF009A" d="m169.596 180.739 66.18 66.18 11.436-11.436-66.179-66.18z"/><path fill="#FF0095" d="m168.669 181.459 65.015 67.324 11.634-11.235-65.015-67.324z"/><path fill="#FF0091" d="m167.731 182.161 63.83 68.449 11.828-11.03-63.83-68.449z"/><path fill="#FF008D" d="m166.779 182.846 62.625 69.552 12.019-10.822-62.625-69.552z"/><path fill="#FF0089" d="m165.815 183.516 61.402 70.634 12.206-10.61-61.401-70.635z"/><path fill="#FF0084" d="M164.841 184.169 225 255.864l12.39-10.396-60.16-71.695z"/><path fill="#FF0080" d="m163.855 184.803 58.899 72.735 12.569-10.179-58.899-72.734z"/><path fill="#FF007C" d="m162.858 185.421 57.621 73.752 12.745-9.957-57.621-73.752z"/><path fill="#FF0078" d="m161.851 186.022 56.325 74.746 12.917-9.734-56.325-74.746z"/><path fill="#FF0073" d="m160.833 186.604 55.012 75.717 13.085-9.506-55.012-75.718z"/><path fill="#FF006F" d="m159.806 187.168 53.682 76.666 13.248-9.276-53.682-76.666z"/><path fill="#FF006B" d="m158.768 187.715 52.336 77.591 13.409-9.044-52.336-77.591z"/><path fill="#FF0067" d="m157.72 188.243 50.974 78.493 13.564-8.808-50.973-78.493z"/><path fill="#FF0062" d="m156.665 188.754 49.596 79.371 13.715-8.571-49.596-79.371z"/><path fill="#FF005E" d="m155.6 189.246 48.203 80.224 13.863-8.33-48.203-80.224z"/><path fill="#FF005A" d="m154.527 189.719 46.796 81.053 14.006-8.087-46.796-81.053z"/><path fill="#FF0056" d="m153.446 190.173 45.374 81.858 14.146-7.841-45.375-81.858z"/><path fill="#FF0052" d="m152.357 190.608 43.939 82.637 14.28-7.593-43.939-82.637z"/><path fill="#FF004D" d="m151.261 191.024 42.49 83.391 14.41-7.342-42.489-83.392z"/><path fill="#FF0049" d="m150.157 191.422 41.028 84.12 14.537-7.09-41.029-84.12z"/><path fill="#FF0045" d="m149.046 191.799 39.554 84.824 14.658-6.836-39.554-84.823z"/><path fill="#FF0041" d="m147.931 192.158 38.067 85.5 14.775-6.578-38.067-85.501z"/><path fill="#FF003C" d="m146.807 192.496 36.569 86.152 14.888-6.319-36.569-86.152z"/><path fill="#FF0038" d="m145.679 192.816 35.06 86.777 14.996-6.058-35.06-86.777z"/><path fill="#FF0034" d="m144.546 193.115 33.54 87.376 15.099-5.796-33.54-87.376z"/><path fill="#FF0030" d="m143.406 193.395 32.011 87.948 15.197-5.532-32.01-87.948z"/><path fill="#FF002B" d="m142.263 193.654 30.47 88.493 15.293-5.266-30.471-88.493z"/><path fill="#FF0027" d="m141.115 193.894 28.921 89.011 15.382-4.998-28.922-89.011z"/><path fill="#FF0023" d="m139.963 194.113 27.363 89.503 15.467-4.729-27.364-89.502z"/><path fill="#FF001F" d="m138.807 194.312 25.797 89.967 15.547-4.458-25.798-89.967z"/><path fill="#FF001A" d="m137.648 194.492 24.224 90.403 15.622-4.186-24.224-90.403z"/><path fill="#FF0016" d="m136.486 194.651 22.642 90.812 15.693-3.913-22.642-90.812z"/><path fill="#FF0012" d="m135.322 194.789 21.053 91.193 15.759-3.638-21.053-91.194z"/><path fill="#FF000E" d="m134.155 194.907 19.459 91.547 15.82-3.363-19.459-91.546z"/><path fill="#FF0009" d="m132.987 195.005 17.858 91.873 15.876-3.086-17.858-91.873z"/><path fill="#FF0005" d="m131.816 195.083 16.252 92.17 15.928-2.808-16.252-92.17z"/><path fill="#FF0001" d="m130.644 195.14 14.641 92.44 15.974-2.53-14.641-92.44z"/><path fill="#FF0300" d="m129.473 195.177 13.025 92.681 16.016-2.25-13.026-92.682z"/><path fill="#FF0700" d="m128.3 195.193 11.406 92.894 16.053-1.971-11.406-92.894z"/><path fill="#FF0C00" d="m127.127 195.188 9.783 93.08 16.085-1.691-9.783-93.079z"/><path fill="#FF1000" d="m125.955 195.164 8.157 93.236 16.112-1.41-8.158-93.236z"/><path fill="#FF1400" d="m124.783 195.119 6.529 93.364 16.133-1.128-6.528-93.364z"/><path fill="#FF1800" d="m123.612 195.053 4.898 93.464 16.151-.846-4.898-93.464z"/><path fill="#FF1D00" d="m122.442 194.967 3.266 93.535 16.164-.564-3.266-93.535z"/><path fill="#FF2100" d="m121.275 194.86 1.633 93.578 16.171-.283-1.633-93.578z"/><path fill="#FF2500" d="M120.108 194.734v93.592h16.174v-93.592z"/><path fill="#FF2900" d="m118.945 194.586-1.633 93.578 16.171.282 1.633-93.577z"/><path fill="#FF2E00" d="m117.785 194.419-3.266 93.535 16.163.564 3.266-93.535z"/><path fill="#FF3200" d="m116.627 194.231-4.898 93.464 16.151.846 4.898-93.463z"/><path fill="#FF3600" d="m115.472 194.023-6.529 93.364 16.134 1.128 6.529-93.364z"/><path fill="#FF3A00" d="m114.322 193.796-8.157 93.236 16.111 1.409 8.157-93.236z"/><path fill="#FF3F00" d="m113.176 193.548-9.783 93.079 16.084 1.691 9.783-93.079z"/><path fill="#FF4300" d="m112.034 193.278-11.406 92.895 16.053 1.971 11.406-92.895z"/><path fill="#FF4700" d="m110.898 192.991-13.025 92.681 16.015 2.251 13.026-92.681z"/><path fill="#FF4B00" d="m109.766 192.683-14.642 92.44 15.975 2.53 14.641-92.44z"/><path fill="#FF5000" d="m108.64 192.356-16.252 92.17 15.927 2.809 16.252-92.17z"/><path fill="#FF5400" d="m107.519 192.009-17.858 91.873 15.876 3.086 17.858-91.873z"/><path fill="#FF5800" d="M106.406 191.643 86.947 283.19l15.82 3.363 19.459-91.547z"/><path fill="#FF5C00" d="M105.298 191.257 84.245 282.45l15.758 3.638 21.054-91.193z"/><path fill="#FF6000" d="m104.197 190.852-22.641 90.812 15.693 3.912 22.641-90.812z"/><path fill="#FF6500" d="m103.104 190.428-24.223 90.403 15.623 4.186 24.222-90.403z"/><path fill="#FF6900" d="m102.019 189.984-25.797 89.967 15.547 4.458 25.796-89.967z"/><path fill="#FF6D00" d="m100.94 189.522-27.363 89.502 15.467 4.729 27.363-89.502z"/><path fill="#FF7100" d="m99.87 189.04-28.92 89.012 15.38 4.998 28.922-89.012z"/><path fill="#FF7600" d="m98.81 188.542-30.47 88.493 15.292 5.265 30.47-88.493z"/><path fill="#FF7A00" d="m97.758 188.024-32.01 87.948 15.198 5.532 32.01-87.948z"/><path fill="#FF7E00" d="m96.715 187.487-33.54 87.376 15.099 5.796 33.54-87.376z"/><path fill="#FF8200" d="m95.682 186.933-35.06 86.777 14.996 6.059 35.059-86.777z"/><path fill="#FF8700" d="m94.659 186.36-36.57 86.152 14.888 6.32 36.569-86.152z"/><path fill="#FF8B00" d="m93.645 185.77-38.067 85.501 14.775 6.578 38.067-85.5z"/><path fill="#FF8F00" d="m92.643 185.163-39.554 84.823 14.658 6.835 39.553-84.823z"/><path fill="#FF9300" d="m91.65 184.538-41.028 84.12 14.537 7.09 41.027-84.12z"/><path fill="#FF9800" d="m90.669 183.895-42.49 83.392 14.41 7.342 42.49-83.391z"/><path fill="#FF9C00" d="m89.7 183.236-43.94 82.637 14.28 7.592 43.939-82.636z"/><path fill="#FFA000" d="m88.74 182.56-45.374 81.857 14.146 7.841 45.374-81.857z"/><path fill="#FFA400" d="M87.794 181.867 40.998 262.92l14.007 8.087 46.796-81.053z"/><path fill="#FFA900" d="m86.86 181.157-48.203 80.224 13.863 8.33 48.203-80.224z"/><path fill="#FFAD00" d="m85.94 180.433-49.596 79.371 13.715 8.57 49.597-79.37z"/><path fill="#FFB100" d="m85.03 179.692-50.974 78.493 13.564 8.808L98.594 188.5z"/><path fill="#FFB500" d="m84.134 178.934-52.336 77.591 13.409 9.044 52.336-77.591z"/><path fill="#FFB900" d="m83.251 178.161-53.682 76.666 13.248 9.277L96.5 187.438z"/><path fill="#FFBE00" d="m82.384 177.373-55.012 75.718 13.085 9.506 55.012-75.717z"/><path fill="#FFC200" d="m81.529 176.571-56.325 74.746 12.916 9.733 56.325-74.746z"/><path fill="#FFC600" d="m80.688 175.753-57.621 73.751 12.745 9.958 57.62-73.752z"/><path fill="#FFCA00" d="m79.861 174.92-58.9 72.735 12.57 10.178 58.9-72.735z"/><path fill="#FFCF00" d="M79.05 174.074 18.89 245.77l12.39 10.396 60.16-71.696z"/><path fill="#FFD300" d="m78.254 173.213-61.402 70.635 12.206 10.611 61.402-70.635z"/><path fill="gold" d="m77.473 172.339-62.625 69.552 12.019 10.822 62.625-69.552z"/><path fill="#FFDB00" d="M76.706 171.451 12.876 239.9l11.829 11.031 63.83-68.449z"/><path fill="#FFE000" d="m75.955 170.55-65.014 67.325 11.634 11.234 65.015-67.324z"/><path fill="#FFE400" d="M75.22 169.636 9.042 235.815l11.436 11.437 66.18-66.18z"/><path fill="#FFE800" d="M74.502 168.709 7.178 233.724l11.235 11.634 67.324-65.015z"/><path fill="#FFEC00" d="M73.8 167.77 5.351 231.6l11.03 11.828 68.45-63.83z"/><path fill="#FFF100" d="M73.115 166.82 3.562 229.445l10.822 12.019 69.553-62.625z"/><path fill="#FFF500" d="M72.445 165.856 1.81 227.258l10.61 12.206 70.636-61.402z"/><path fill="#FFF900" d="M71.793 164.88.097 225.04l10.396 12.389L82.19 177.27z"/><path fill="#FFFD00" d="m71.158 163.895-72.735 58.899L8.6 235.363l72.735-58.899z"/><path fill="#FCFF00" d="M70.54 162.899-3.212 220.52l9.957 12.745 73.752-57.621z"/><path fill="#F8FF00" d="m69.939 161.891-74.746 56.325 9.733 12.917 74.746-56.325z"/><path fill="#F4FF00" d="M69.356 160.873-6.36 215.885l9.506 13.084 75.718-55.012z"/><path fill="#F0FF00" d="m68.793 159.845-76.666 53.682 9.277 13.249 76.666-53.682z"/><path fill="#ECFF00" d="m68.246 158.809-77.591 52.336 9.044 13.408 77.591-52.336z"/><path fill="#E7FF00" d="m67.717 157.761-78.493 50.974 8.808 13.564 78.493-50.973z"/><path fill="#E3FF00" d="m67.207 156.705-79.37 49.596 8.57 13.716 79.37-49.597z"/><path fill="#DFFF00" d="m66.715 155.64-80.224 48.203 8.33 13.863 80.224-48.203z"/><path fill="#DBFF00" d="m66.242 154.567-81.053 46.796 8.087 14.007 81.053-46.796z"/><path fill="#D6FF00" d="M65.788 153.486-16.07 198.86l7.841 14.146 81.858-45.374z"/><path fill="#D2FF00" d="m65.352 152.397-82.637 43.939 7.593 14.28 82.637-43.939z"/><path fill="#CEFF00" d="m64.936 151.3-83.391 42.49 7.342 14.411 83.392-42.49z"/><path fill="#CAFF00" d="m64.54 150.197-84.12 41.028 7.09 14.536 84.12-41.028z"/><path fill="#C5FF00" d="m64.16 149.087-84.823 39.554 6.835 14.658 84.823-39.554z"/><path fill="#C1FF00" d="m63.803 147.97-85.5 38.068 6.578 14.775 85.5-38.068z"/><path fill="#BDFF00" d="m63.464 146.848-86.152 36.569 6.32 14.888 86.151-36.569z"/><path fill="#B9FF00" d="m63.146 145.719-86.777 35.06 6.058 14.996 86.777-35.06z"/><path fill="#B4FF00" d="m62.846 144.585-87.376 33.54 5.796 15.1 87.376-33.541z"/><path fill="#B0FF00" d="m62.567 143.447-87.948 32.01 5.532 15.198 87.947-32.01z"/><path fill="#ACFF00" d="m62.307 142.303-88.493 30.47 5.265 15.293 88.494-30.471z"/><path fill="#A8FF00" d="m62.067 141.156-89.011 28.921 4.997 15.382 89.012-28.922z"/><path fill="#A3FF00" d="m61.847 140.003-89.503 27.363 4.729 15.467 89.502-27.364z"/><path fill="#9FFF00" d="m61.648 138.848-89.967 25.797 4.458 15.547 89.967-25.798z"/><path fill="#9BFF00" d="m61.469 137.688-90.403 24.224 4.186 15.622 90.403-24.224z"/><path fill="#97FF00" d="m61.31 136.526-90.812 22.642 3.913 15.693 90.812-22.642z"/><path fill="#93FF00" d="m61.172 135.361-91.193 21.054 3.638 15.758L64.81 151.12z"/><path fill="#8EFF00" d="m61.053 134.195-91.547 19.459 3.363 15.82 91.547-19.459z"/><path fill="#8AFF00" d="m60.955 133.026-91.872 17.858 3.086 15.876 91.872-17.858z"/><path fill="#86FF00" d="m60.878 131.856-92.17 16.252 2.809 15.927 92.17-16.252z"/><path fill="#82FF00" d="m60.82 130.685-92.44 14.641 2.53 15.974 92.44-14.641z"/><path fill="#7DFF00" d="m60.784 129.513-92.681 13.025 2.25 16.016 92.682-13.026z"/><path fill="#79FF00" d="m60.768 128.339-92.895 11.406 1.971 16.053 92.895-11.406z"/><path fill="#75FF00" d="m60.773 127.167-93.08 9.783 1.69 16.085 93.08-9.783z"/><path fill="#71FF00" d="m60.797 125.994-93.236 8.157 1.41 16.112 93.236-8.157z"/><path fill="#6CFF00" d="m60.842 124.823-93.364 6.529 1.128 16.133 93.364-6.528z"/><path fill="#68FF00" d="m60.908 123.652-93.464 4.898.846 16.151 93.464-4.898z"/><path fill="#64FF00" d="m60.994 122.482-93.535 3.266.564 16.163 93.535-3.266z"/><path fill="#60FF00" d="m61.1 121.314-93.577 1.634.282 16.171 93.578-1.634z"/><path fill="#5BFF00" d="M61.228 120.148h-93.592v16.174h93.592z"/><path fill="#57FF00" d="m61.374 118.985-93.578-1.633-.282 16.171 93.577 1.633z"/><path fill="#53FF00" d="m61.541 117.825-93.535-3.266-.564 16.163 93.535 3.266z"/><path fill="#4FFF00" d="m61.73 116.667-93.464-4.898-.847 16.151 93.464 4.898z"/><path fill="#4AFF00" d="m61.938 115.513-93.365-6.529-1.128 16.134 93.364 6.529z"/><path fill="#46FF00" d="m62.165 114.361-93.236-8.157-1.41 16.112 93.236 8.157z"/><path fill="#42FF00" d="m62.413 113.215-93.08-9.783-1.69 16.085 93.08 9.783z"/><path fill="#3EFF00" d="m62.682 112.074-92.895-11.406-1.97 16.053 92.894 11.406z"/><path fill="#3AFF00" d="m62.97 110.937-92.682-13.025-2.25 16.016 92.68 13.025z"/><path fill="#35FF00" d="m63.277 109.805-92.44-14.64-2.53 15.973 92.44 14.641z"/><path fill="#31FF00" d="m63.604 108.679-92.17-16.252-2.809 15.928 92.17 16.252z"/><path fill="#2DFF00" d="M63.951 107.559-27.92 89.701l-3.086 15.876 91.872 17.859z"/><path fill="#29FF00" d="M64.318 106.445-27.23 86.986l-3.363 15.82 91.547 19.459z"/><path fill="#24FF00" d="m64.703 105.338-91.194-21.053-3.638 15.758 91.193 21.054z"/><path fill="#20FF00" d="m65.108 104.238-90.812-22.642-3.913 15.693 90.812 22.642z"/><path fill="#1CFF00" d="M65.533 103.144-24.87 78.921l-4.186 15.622 90.403 24.224z"/><path fill="#18FF00" d="M65.977 102.059-23.99 76.262l-4.458 15.546 89.967 25.798z"/><path fill="#13FF00" d="m66.438 100.981-89.503-27.364-4.728 15.467 89.502 27.363z"/><path fill="#0FFF00" d="m66.92 99.91-89.012-28.92-4.997 15.381 89.01 28.922z"/><path fill="#0BFF00" d="m67.42 98.851-88.493-30.47-5.266 15.292 88.493 30.47z"/><path fill="#07FF00" d="m67.937 97.798-87.947-32.01-5.532 15.197 87.948 32.01z"/><path fill="#02FF00" d="m68.473 96.756-87.376-33.54-5.796 15.098 87.376 33.541z"/><path fill="#00FF02" d="m69.027 95.721-86.777-35.06-6.059 14.996 86.777 35.06z"/><path fill="#00FF06" d="m69.6 94.698-86.152-36.57-6.32 14.888 86.153 36.57z"/><path fill="#00FF0A" d="m70.19 93.685-85.5-38.068-6.58 14.775 85.501 38.068z"/><path fill="#00FF0F" d="m70.798 92.682-84.823-39.554-6.835 14.658 84.823 39.554z"/><path fill="#00FF13" d="m71.422 91.69-84.12-41.029-7.09 14.537 84.12 41.028z"/><path fill="#00FF17" d="m72.065 90.708-83.391-42.49-7.343 14.41 83.392 42.491z"/><path fill="#00FF1B" d="M72.724 89.74-9.913 45.8l-7.593 14.28 82.637 43.939z"/><path fill="#00FF1F" d="M73.4 88.78-8.457 43.406l-7.84 14.145 81.857 45.375z"/><path fill="#00FF24" d="M74.094 87.834-6.96 41.038l-8.087 14.006 81.053 46.796z"/><path fill="#00FF28" d="M74.802 86.9-5.422 38.696l-8.33 13.864 80.224 48.203z"/><path fill="#00FF2C" d="m75.528 85.979-79.37-49.596-8.571 13.715 79.37 49.597z"/><path fill="#00FF30" d="M76.27 85.07-2.225 34.096l-8.808 13.564L67.46 98.634z"/><path fill="#00FF35" d="M77.026 84.173-.565 31.837-9.61 45.246l77.59 52.336z"/><path fill="#00FF39" d="M77.799 83.292 1.133 29.61l-9.277 13.248L68.522 96.54z"/><path fill="#00FF3D" d="M78.587 82.424 2.87 27.412l-9.507 13.085 75.718 55.012z"/><path fill="#00FF41" d="M79.39 81.569 4.644 25.244-5.089 38.16l74.746 56.325z"/><path fill="#00FF46" d="M80.208 80.727 6.457 23.106-3.5 35.851 70.25 93.47z"/><path fill="#00FF4A" d="M81.04 79.901 8.306 21.002-1.873 33.571l72.735 58.9z"/><path fill="#00FF4E" d="M81.887 79.09 10.19 18.93-.205 31.32 71.49 91.48z"/><path fill="#00FF52" d="M82.747 78.295 12.113 16.893 1.502 29.099 72.137 90.5z"/><path fill="#00FF57" d="M83.622 77.512 14.07 14.886 3.248 26.906 72.8 89.53z"/><path fill="#00FF5B" d="m84.51 76.746-68.449-63.83-11.03 11.829 68.45 63.83z"/><path fill="#00FF5F" d="M85.41 75.996 18.088 10.98 6.852 22.615 74.176 87.63z"/><path fill="#00FF63" d="M86.325 75.26 20.145 9.082 8.71 20.517l66.18 66.18z"/><path fill="#00FF68" d="M87.252 74.543 22.238 7.218 10.604 18.453l65.014 67.325z"/><path fill="#00FF6C" d="M88.191 73.84 24.361 5.39 12.534 16.42l63.83 68.45z"/><path fill="#00FF70" d="M89.142 73.155 26.515 3.602 14.497 14.424l62.625 69.553z"/><path fill="#00FF74" d="M90.106 72.485 28.704 1.851 16.498 12.46 77.9 83.096z"/><path fill="#00FF78" d="M91.08 71.832 30.92.137 18.53 10.533l60.16 71.695z"/><path fill="#00FF7D" d="m92.066 71.198-58.9-72.735L20.599 8.64l58.9 72.735z"/><path fill="#00FF81" d="M93.063 70.58 35.44-3.172 22.697 6.785l57.62 73.752z"/><path fill="#00FF85" d="M94.07 69.98 37.745-4.768 24.83 4.967l56.325 74.746z"/><path fill="#00FF89" d="M95.088 69.397 40.076-6.32 26.992 3.186l55.012 75.718z"/><path fill="#00FF8E" d="M96.115 68.832 42.433-7.834 29.185 1.443l53.682 76.666z"/><path fill="#00FF92" d="M97.153 68.286 44.816-9.306 31.408-.262 83.744 77.33z"/><path fill="#00FF96" d="M98.2 67.757 47.226-10.736 33.662-1.928l50.974 78.493z"/><path fill="#00FF9A" d="M99.257 67.247 49.66-12.123l-13.716 8.57 49.596 79.37z"/><path fill="#00FF9F" d="M100.32 66.754 52.117-13.47 38.253-5.14l48.204 80.224z"/><path fill="#00FFA3" d="M101.394 66.281 54.598-14.772 40.59-6.685l46.796 81.053z"/><path fill="#00FFA7" d="M102.474 65.828 57.1-16.03 42.954-8.189 88.328 73.67z"/><path fill="#00FFAB" d="M103.563 65.393 59.625-17.244l-14.28 7.593 43.939 82.637z"/><path fill="#00FFB0" d="M104.66 64.976 62.17-18.415l-14.41 7.342 42.49 83.391z"/><path fill="#00FFB4" d="m105.763 64.579-41.027-84.12-14.537 7.09 41.028 84.12z"/><path fill="#00FFB8" d="M106.873 64.2 67.319-20.623l-14.658 6.835 39.554 84.823z"/><path fill="#00FFBC" d="m107.991 63.843-38.068-85.5-14.775 6.578 38.068 85.5z"/><path fill="#00FFC1" d="m109.113 63.504-36.57-86.152-14.887 6.32 36.57 86.151z"/><path fill="#00FFC5" d="m110.241 63.184-35.06-86.777-14.995 6.059 35.06 86.777z"/><path fill="#00FFC9" d="m111.376 62.885-33.54-87.376-15.1 5.796 33.541 87.376z"/><path fill="#00FFCD" d="m112.514 62.606-32.01-87.948-15.198 5.532 32.01 87.948z"/><path fill="#00FFD1" d="m113.658 62.347-30.47-88.493-15.293 5.265 30.471 88.493z"/><path fill="#00FFD6" d="M114.805 62.106 85.884-26.905l-15.382 4.998 28.922 89.01z"/><path fill="#00FFDA" d="M115.959 61.887 88.595-27.615 73.13-22.887l27.363 89.503z"/><path fill="#00FFDE" d="M117.113 61.688 91.316-28.278 75.77-23.82l25.798 89.966z"/><path fill="#00FFE2" d="M118.273 61.508 94.049-28.894 78.427-24.71l24.224 90.403z"/><path fill="#00FFE7" d="M119.434 61.35 96.793-29.462 81.1-25.55l22.642 90.812z"/><path fill="#00FFEB" d="M120.598 61.212 99.545-29.981l-15.759 3.638L104.84 64.85z"/><path fill="#00FFEF" d="m121.765 61.093-19.459-91.547-15.82 3.363 19.459 91.546z"/><path fill="#00FFF3" d="m122.934 60.995-17.858-91.872L89.2-27.791l17.858 91.872z"/><path fill="#00FFF8" d="m124.104 60.918-16.252-92.17-15.928 2.808 16.252 92.17z"/><path fill="#00FFFC" d="m125.276 60.86-14.641-92.44-15.974 2.53 14.641 92.44z"/><path fill="#00FEFF" d="m126.447 60.823-13.025-92.68-16.016 2.25 13.025 92.681z"/><path fill="#00FAFF" d="m127.621 60.808-11.406-92.894-16.053 1.97 11.406 92.895z"/><path fill="#00F5FF" d="m128.793 60.812-9.783-93.08-16.084 1.691 9.783 93.08z"/><path fill="#00F1FF" d="m129.966 60.837-8.157-93.236-16.112 1.41 8.157 93.236z"/><path fill="#00EDFF" d="m131.137 60.881-6.529-93.364-16.133 1.128 6.528 93.364z"/><path fill="#00E9FF" d="m132.309 60.948-4.898-93.464-16.151.846 4.898 93.464z"/><path fill="#00E4FF" d="m133.478 61.033-3.266-93.535-16.164.564 3.267 93.535z"/><path fill="#00E0FF" d="m134.646 61.14-1.633-93.577-16.171.282 1.633 93.578z"/><path fill="#00DCFF" d="M135.812 61.267v-93.592h-16.173v93.592z"/><path fill="#00D8FF" d="m136.975 61.414 1.634-93.578-16.171-.282-1.633 93.578z"/><path fill="#00D4FF" d="m138.136 61.581 3.266-93.535-16.163-.564-3.266 93.535z"/><path fill="#00CFFF" d="m139.294 61.769 4.898-93.464-16.151-.846-4.898 93.463z"/><path fill="#00CBFF" d="m140.448 61.977 6.529-93.364-16.134-1.128-6.529 93.364z"/><path fill="#00C7FF" d="m141.598 62.205 8.157-93.236-16.112-1.41-8.157 93.236z"/><path fill="#00C3FF" d="m142.744 62.453 9.783-93.08-16.085-1.69-9.783 93.079z"/><path fill="#00BEFF" d="m143.885 62.722 11.406-92.895-16.053-1.971-11.406 92.894z"/><path fill="#00BAFF" d="m145.023 63.01 13.025-92.682-16.016-2.25-13.025 92.68z"/><path fill="#00B6FF" d="m146.155 63.317 14.641-92.44-15.974-2.53-14.641 92.44z"/><path fill="#00B2FF" d="m147.281 63.644 16.252-92.17-15.927-2.808-16.252 92.17z"/><path fill="#00ADFF" d="m148.401 63.99 17.858-91.872-15.876-3.086-17.859 91.873z"/><path fill="#00A9FF" d="m149.515 64.358 19.459-91.547-15.82-3.363-19.459 91.547z"/><path fill="#00A5FF" d="m150.623 64.743 21.053-91.193-15.759-3.638-21.053 91.193z"/><path fill="#00A1FF" d="m151.723 65.149 22.642-90.812-15.693-3.913-22.642 90.812z"/><path fill="#009CFF" d="m152.815 65.573 24.224-90.403-15.623-4.186-24.223 90.403z"/><path fill="#0098FF" d="m153.901 66.016 25.797-89.967-15.547-4.458-25.797 89.967z"/><path fill="#0094FF" d="m154.98 66.48 27.363-89.503-15.466-4.729-27.364 89.503z"/><path fill="#0090FF" d="m156.05 66.96 28.921-89.011-15.382-4.998-28.921 89.011z"/><path fill="#008BFF" d="m157.11 67.458 30.471-88.493-15.292-5.265-30.471 88.493z"/><path fill="#0087FF" d="m158.163 67.976 32.01-87.948-15.198-5.531-32.01 87.947z"/><path fill="#0083FF" d="m159.205 68.513 33.541-87.376-15.099-5.796-33.541 87.376z"/><path fill="#007FFF" d="m160.239 69.068 35.06-86.777-14.996-6.06-35.06 86.778z"/><path fill="#007BFF" d="m161.262 69.639 36.569-86.152-14.888-6.32-36.569 86.152z"/><path fill="#0076FF" d="m162.276 70.23 38.067-85.5-14.775-6.58-38.067 85.502z"/><path fill="#0072FF" d="m163.278 70.837 39.554-84.824-14.658-6.835-39.554 84.823z"/><path fill="#006EFF" d="m164.27 71.462 41.028-84.12-14.536-7.09-41.028 84.12z"/><path fill="#006AFF" d="m165.253 72.105 42.49-83.39-14.411-7.343-42.49 83.39z"/><path fill="#0065FF" d="m166.222 72.764 43.939-82.637-14.28-7.593-43.939 82.637z"/><path fill="#0061FF" d="m167.181 73.44 45.374-81.857-14.145-7.841-45.375 81.857z"/><path fill="#005DFF" d="M168.127 74.134 214.923-6.92l-14.006-8.086-46.796 81.053z"/><path fill="#0059FF" d="m169.061 74.843 48.203-80.224-13.863-8.33-48.204 80.224z"/><path fill="#0054FF" d="m169.982 75.568 49.596-79.371-13.716-8.57-49.596 79.37z"/><path fill="#0050FF" d="m170.89 76.308 50.974-78.493-13.564-8.808L157.326 67.5z"/><path fill="#004CFF" d="M171.786 77.067 224.122-.524l-13.408-9.044-52.336 77.591z"/><path fill="#0048FF" d="M172.668 77.84 226.35 1.172l-13.248-9.277-53.682 76.667z"/><path fill="#0043FF" d="M173.537 78.626 228.549 2.91l-13.085-9.507-55.012 75.718z"/><path fill="#003FFF" d="m174.392 79.43 56.325-74.746L217.8-5.05l-56.325 74.746z"/><path fill="#003BFF" d="m175.233 80.247 57.621-73.751-12.745-9.957-57.621 73.751z"/><path fill="#0037FF" d="m176.059 81.08 58.899-72.735-12.569-10.178-58.899 72.735z"/><path fill="#0032FF" d="m176.87 81.926 60.16-71.696L224.641-.166l-60.16 71.696z"/><path fill="#002EFF" d="m177.667 82.787 61.402-70.635-12.206-10.61-61.402 70.634z"/><path fill="#002AFF" d="m178.449 83.66 62.625-69.552-12.019-10.822L166.43 72.84z"/><path fill="#0026FF" d="M179.215 84.549 243.044 16.1 231.216 5.07l-63.83 68.449z"/><path fill="#02F" d="m179.965 85.45 65.015-67.324L233.346 6.89l-65.015 67.324z"/><path fill="#383838" d="M193 3H63C29.863 3 3 29.863 3 63v130c0 33.137 26.863 60 60 60h130c33.137 0 60-26.863 60-60V63c0-33.137-26.863-60-60-60"/><path fill="url(#paint0_radial_667_87)" d="M94.834 84.449c-.094 2.47.345 5.17 1.073 7.872 1.386 5.14 3.685 9.849 6.395 14.298 6.173 10.116 13.955 18.777 22.398 26.818a9.4 9.4 0 0 0 2.396 1.645c.883.459 1.764.459 2.676.066a7 7 0 0 0 2.333-1.681c2.93-3.03 5.826-6.064 8.599-9.194 3.906-4.449 7.625-9.025 10.996-13.935 3.058-4.448 5.797-9.127 7.811-14.2 2.015-5.044 2.994-10.245 2.332-15.714-1.102-9.024-4.787-16.67-11.372-22.666-7.787-7.078-16.857-9.912-27.064-8.333-16.602 2.572-28.637 17.86-28.573 35.024" style="mix-blend-mode:lighten"/><path fill="url(#paint1_radial_667_87)" d="M180.752 207.454c-2.09.064-4.436-.195-6.782-.693-6.939-1.519-12.834-4.674-17.363-10.268-2.755-3.412-5.071-7.108-7.067-10.996-2.347-4.582-4.308-9.355-6.018-14.187-2.09-5.844-3.864-11.816-5.23-17.852-.758-3.382.094-5.501 3.834-6.666 4.752-1.484 9.538-2.811 14.417-3.888 8.078-1.77 16.22-2.905 24.525-2.625 2.346.094 4.687.346 7.003.756 6.718 1.171 12.42 4.268 17.077 9.164 7.955 8.341 11.119 18.295 9.157 29.64-2.819 16.212-17.205 27.743-33.553 27.615"/><path fill="url(#paint2_radial_667_87)" d="M76.119 207.454c2.09.064 4.436-.195 6.781-.693 6.94-1.519 12.834-4.674 17.364-10.268 2.755-3.412 5.07-7.108 7.067-10.996 2.347-4.582 4.308-9.355 6.018-14.187 2.089-5.844 3.863-11.816 5.229-17.852.759-3.382-.094-5.501-3.834-6.666-4.751-1.484-9.538-2.811-14.417-3.888-8.077-1.77-16.22-2.905-24.524-2.625a52 52 0 0 0-7.004.756c-6.717 1.171-12.42 4.268-17.076 9.164-7.955 8.341-11.12 18.295-9.158 29.64 2.82 16.212 17.206 27.743 33.554 27.615"/></g></g><defs><radialGradient id="paint0_radial_667_87" cx="0" cy="0" r="1" gradientTransform="matrix(35.5791 3.00176 -5.54874 65.76795 129.086 130.955)" gradientUnits="userSpaceOnUse"><stop stop-color="#fff"/><stop offset="1" stop-color="#009BD8"/></radialGradient><radialGradient id="paint1_radial_667_87" cx="0" cy="0" r="1" gradientTransform="rotate(21.776 -324.323 435.485)scale(78.7378 42.0757)" gradientUnits="userSpaceOnUse"><stop stop-color="#fff"/><stop offset="1" stop-color="#FF3044"/></radialGradient><radialGradient id="paint2_radial_667_87" cx="0" cy="0" r="1" gradientTransform="matrix(-66.21493 44.12482 -20.05703 -30.09814 118.04 148.539)" gradientUnits="userSpaceOnUse"><stop stop-color="#fff"/><stop offset="1" stop-color="#FCFF7C"/></radialGradient><clipPath id="clip0_667_87"><path fill="#fff" d="M0 0h256v256H0z"/></clipPath></defs></svg>