<svg xmlns="http://www.w3.org/2000/svg" fill="none" viewBox="0 0 256 256"><path fill="#F4F2ED" d="M196 0H60C26.863 0 0 26.863 0 60v136c0 33.137 26.863 60 60 60h136c33.137 0 60-26.863 60-60V60c0-33.137-26.863-60-60-60"/><path fill="#382A24" d="M120.656 14.812h15.238c43.191 4.45 74.633 25.954 94.316 64.52q8.801 19.326 10.53 40.324v15.238c-4.45 43.191-25.954 74.633-64.521 94.316-12.884 5.867-26.323 9.378-40.325 10.53h-15.236q-64.787-6.673-94.323-64.52c-5.867-12.885-9.371-26.324-10.523-40.326v-15.236q6.673-64.787 64.52-94.323c12.885-5.867 26.324-9.371 40.324-10.523"/><path fill="#E1D7CB" d="M214.752 126.377c-.484-11.989-3.619-23.195-9.408-33.605a24.9 24.9 0 0 0 1.124-10.75c-.925-2.298-2.64-3.563-5.156-3.812a152 152 0 0 0-11.646-.22q1.204-.547 2.687-.676a80 80 0 0 0-18.822-19.938c-9.435-7.78-20.342-11.663-32.707-11.648-9.785.2-18.901 2.809-27.334 7.836-17.856 10.212-32.638 23.8-44.363 40.779-3.64.419-7.303.64-10.973.668-19.048-2.993-24.574 4.332-16.581 21.958a289 289 0 0 1 8.96 19.718 404 404 0 0 0-.896 16.128 453 453 0 0 0-16.358 28.675q-.448.896-.895 0-21.932-41.094-9.635-86.031c12.324-36.81 36.898-61.385 73.708-73.708 39.97-10.514 75.518-2.303 106.647 24.647 28.506 27.858 39.635 61.541 33.384 101.04q-7.679 38.341-36.967 63.853-1.474 1.291-3.136 1.793c-2.794-8.335-2.275-16.469 1.565-24.418a132.7 132.7 0 0 0 13.445-29.575c3.2-10.772 4.316-21.672 3.357-32.714"/><path fill="#FCFCFC" d="M173.531 57.376a80 80 0 0 1 18.822 19.938 8.2 8.2 0 0 0-2.687.674 77.4 77.4 0 0 0-22.406 4.929c-7.019.34-14.037.56-21.061.668q-2.677 1.089-5.375.228c-5.057-.213-9.239-2.234-12.552-6.051q-7.455-4.553-15.678-1.793c-3.877 2.66-5.297 6.316-4.259 10.98 2.381 4.23 3.05 8.71 2.02 13.445a17.4 17.4 0 0 0-1.125 2.239 223 223 0 0 0-33.155 38.088 73 73 0 0 0-6.719 15.678c-.895 7.779 2.318 13.077 9.635 15.914a48.7 48.7 0 0 0 12.542 3.136c-3.582 2.723-7.622 3.619-12.094 2.687a65 65 0 0 1-16.354-5.155 456 456 0 0 0-15.012 29.572 300 300 0 0 1-8.737-10.303 1.9 1.9 0 0 1 0-1.791 358 358 0 0 1 12.542-26.436c2.333 4.13 5.697 6.897 10.084 8.29-3.513-3.37-5.683-7.482-6.5-12.324a56.6 56.6 0 0 1 2.246-22.852c8.989-28.834 25.193-52.662 48.615-71.47q15.156-10.824 33.605-13.894c11.655-.795 22.861 1.067 33.605 5.605z"/><path fill="#382A24" d="M140.824 83.813a163 163 0 0 0-18.375 7.843 183 183 0 0 0-11.875 9.635 1.11 1.11 0 0 1-.219-.897c1.03-4.735.361-9.215-2.02-13.445-1.038-4.665.382-8.319 4.259-10.98q8.223-2.76 15.678 1.793c3.313 3.817 7.495 5.838 12.552 6.05"/><path fill="#372923" d="M189.666 77.988c3.881-.077 7.764 0 11.647.222 2.517.249 4.23 1.514 5.155 3.811a24.9 24.9 0 0 1-1.124 10.751c-2.745 7.664-6.933 14.455-12.541 20.393-3.927 2.652-8.108 3.1-12.552 1.343q-14.742-4.394-23.522-16.808c-1.864-4.7-.597-8.363 3.812-10.971 2.239-1.275 4.478-2.54 6.719-3.812a77.4 77.4 0 0 1 22.406-4.93"/><path fill="#887363" d="M167.26 82.917c-2.239 1.272-4.48 2.537-6.719 3.812-4.409 2.608-5.676 6.27-3.812 10.97q8.78 12.417 23.522 16.809 6.664 2.635 12.55-1.343c5.61-5.938 9.798-12.728 12.542-20.393 5.788 10.41 8.925 21.616 9.409 33.603a101 101 0 0 1-8.732 20.167 62 62 0 0 1-5.603 6.947 94 94 0 0 0-6.271 4.707l-.45-.674a59.2 59.2 0 0 0 1.566-23.076 17.2 17.2 0 0 0-2.239-5.823 78.6 78.6 0 0 1-7.616 28.677c-5.774 10.831-14.656 14.641-26.659 11.421-17.948-5.121-33.703-14.009-47.277-26.659a68.5 68.5 0 0 0 4.485 15.686q4.15 12.522 2.239 25.535a28.6 28.6 0 0 1-1.791 5.383 214 214 0 0 0-15.686 30.916 94 94 0 0 0-3.582 12.094 1.7 1.7 0 0 1-1.125.898c-18.67-5.862-34.657-15.864-47.94-30.023a456 456 0 0 1 15.012-29.572 65 65 0 0 0 16.354 5.155c4.473.932 8.512.036 12.094-2.687a48.7 48.7 0 0 1-12.542-3.136c-7.317-2.836-10.53-8.135-9.635-15.914a73 73 0 0 1 6.72-15.678 223 223 0 0 1 33.156-38.085q.483-1.163 1.123-2.238a1.1 1.1 0 0 0 .221.895 183 183 0 0 1 11.875-9.635 163 163 0 0 1 18.375-7.844c1.798.576 3.589.497 5.375-.227a654 654 0 0 0 21.061-.668"/><path fill="#FBFBFB" d="M197.728 162.228a160.6 160.6 0 0 1-10.53 30.468q-1.42 2.657-4.26 3.586l-.448-.677a45.8 45.8 0 0 0 2.689-16.801 79.3 79.3 0 0 1-7.389 19.269c-3.44 1.415-6.953 1.635-10.53.669a14.2 14.2 0 0 1-2.468-4.7 101 101 0 0 1-2.012-17.031c14.208.961 25.854-3.969 34.95-14.781z"/></svg>