<svg xmlns="http://www.w3.org/2000/svg" width="256" height="256" fill="none"><g clip-path="url(#clip0_521_28)"><path fill="#128341" d="M196 0H60C26.863 0 0 26.863 0 60v136c0 33.137 26.863 60 60 60h136c33.137 0 60-26.863 60-60V60c0-33.137-26.863-60-60-60"/><path fill="#FCFCFC" d="M19 16.178C28.584 48.388 52.589 126.435 66.12 147c4.88-4.814 9.11-8.685 13.88-13.39C64.19 106.008 44.099 36.467 35.449 5A55.5 55.5 0 0 0 19 16.178"/><path fill="#FCFCFC" d="M173.176 169.698c-21.767 0-35.41-41.698-66.348-41.698-30.341 0-47.897 41.779-66.646 41.92h-.11c-13.357 0-25.35-18.266-40.072-30.092v25.867C12.768 177.791 24.843 189 40.182 189c28.626 0 46.593-42.683 66.646-42.683 18.414 0 37.088 42.683 66.646 42.683 28.254 0 49.165-42.84 66.498-42.876h.036c7.339 0 13.366 4.862 15.992 7.375v-21.474A35.6 35.6 0 0 0 239.525 128c-29.633 0-45.401 41.698-66.349 41.698"/><path fill="#FCFCFC" d="M81 171.836C88.898 182.263 103.362 202 126.371 202h.141c19.806-.069 29.488-13.28 29.488-13.28-5.174-2.624-14.912-11.116-14.912-11.116-5.063 3.903-9.967 5.463-14.588 5.463-16.455 0-29.3-19.787-32.732-24.067zm79-17.207s5.641 6.941 16.055 9.371C203.631 121.547 224.793 51.11 234 13.5c-4.5-4-10.702-7.582-16.5-9.5-3.581 13.418-29.022 107.592-57.5 150.629"/></g><defs><clipPath id="clip0_521_28"><path fill="#fff" d="M0 0h256v256H0z"/></clipPath></defs></svg>