<svg xmlns="http://www.w3.org/2000/svg" fill="none" viewBox="0 0 256 256"><g id="DO" clip-path="url(#clip0_1_61)"><path id="Vector" fill="#282828" d="M60 0h136c33.1 0 60 26.9 60 60v136c0 33.1-26.9 60-60 60H60c-33.1 0-60-26.9-60-60V60C0 26.9 26.9 0 60 0"/><g id="Group 14" fill="#fff"><path id="Vector_2" d="M128 222.994v-36.8c39 0 69.2-38.6 54.3-79.7-5.5-15.2-17.6-27.3-32.9-32.8-41-14.9-79.6 15.3-79.6 54.3H33c0-62.2 60.1-110.6 125.3-90.3 28.5 8.9 51.1 31.5 60 60 20.3 65.2-28.1 125.3-90.3 125.3"/><path id="Vector_3" fill-rule="evenodd" d="M128.1 186.294H91.4v-36.7h36.7z" clip-rule="evenodd"/><path id="Vector_4" fill-rule="evenodd" d="M91.4 214.494H63.2v-28.2h28.2z" clip-rule="evenodd"/><path id="Vector_5" fill-rule="evenodd" d="M63.2 186.293H39.6v-23.6h23.6z" clip-rule="evenodd"/></g></g><defs><clipPath id="clip0_1_61"><path fill="#fff" d="M0 0h256v256H0z"/></clipPath></defs></svg>