<svg xmlns="http://www.w3.org/2000/svg" width="256" height="256" fill="none"><path fill="#013301" d="M196 0H60C26.863 0 0 26.863 0 60v136c0 33.137 26.863 60 60 60h136c33.137 0 60-26.863 60-60V60c0-33.137-26.863-60-60-60"/><path fill="#3F6" d="M43.004 179.2V76.8a1.21 1.21 0 0 1 1.1-1.3h.1c1.6-.1 4-.2 7.1-.2s6.8-.1 10.9-.2 8.6-.1 13.4-.1c12.9 0 23.6 2.2 32 6.6a45.1 45.1 0 0 1 19.1 18.1 54.4 54.4 0 0 1 6.4 26.5 59.6 59.6 0 0 1-3.3 20.5 48.7 48.7 0 0 1-9 15.4 53.9 53.9 0 0 1-13 10.7 56.8 56.8 0 0 1-15.5 6.3 68.6 68.6 0 0 1-16.3 2h-12c-4.2 0-8.2 0-11.8-.1s-6.4-.1-8.2-.2c-.7 0-1-.6-1-1.6m22.2-84.4v66.7a31 31 0 0 1 3.2.1c1 .1 2 .1 3 .2s2.2.1 3.5.1a40.8 40.8 0 0 0 14.3-2.3 28.6 28.6 0 0 0 11-6.8 30.2 30.2 0 0 0 7.1-11.1 42.6 42.6 0 0 0 2.5-15 37.7 37.7 0 0 0-2.4-14.1 25.56 25.56 0 0 0-7-10.1 27.9 27.9 0 0 0-10.9-6 46.7 46.7 0 0 0-13.9-1.9c-2.1 0-3.9 0-5.4.1a43 43 0 0 0-5 .1m77.6 84.5v-59.9c0-1.8 0-3.9-.1-6.1s-.1-4.4-.2-6.4q-.15-3-.3-4.8a1 1 0 0 1 .2-1 1.7 1.7 0 0 1 1-.3h16.6a4.1 4.1 0 0 1 1.6.3 1.55 1.55 0 0 1 .8 1.1c.2.6.5 1.4.7 2.2.296.978.497 1.983.6 3a33.2 33.2 0 0 1 10.6-6.2 38.4 38.4 0 0 1 12.1-2c3.193-.006 6.367.5 9.4 1.5a24 24 0 0 1 15.2 14.8c1.6 4.1 2.4 9.5 2.4 16v47.8c0 1-.4 1.4-1.3 1.4h-19.5a1.38 1.38 0 0 1-1.426-.673 1.4 1.4 0 0 1-.174-.527v-46.1a20.8 20.8 0 0 0-1.4-8.2 11 11 0 0 0-10.9-6.8 19.7 19.7 0 0 0-7.6 1.4 21 21 0 0 0-6 3.8v55.7c0 1-.4 1.4-1.3 1.4h-19.6a1.25 1.25 0 0 1-1.252-.629 1.2 1.2 0 0 1-.148-.471z"/></svg>