<svg xmlns="http://www.w3.org/2000/svg" fill="none" viewBox="0 0 256 256"><rect width="256" height="256" fill="#945EF5" rx="60"/><g filter="url(#shadow)"><path fill="#fff" fill-rule="evenodd" d="M190.925 144.955c-.975-.244-1.787-.487-2.518-.812a6 6 0 0 1-1.388-.854c-.262-.218-.375-.562-.343-.903.392-4.079-.039-7.678.35-11.724 1.625-16.404 11.94-11.207 21.198-13.886 5.317-1.498 10.634-4.445 12.577-10.243.318-.949.038-1.98-.623-2.732-6.065-6.895-12.78-12.988-20.076-18.21-24.459-17.411-56.246-24.641-85.438-20.412-1.106.16-1.686 1.385-1.081 2.325a45 45 0 0 0 14.168 13.925c1.017.63.608 1.99-.559 1.728-2.743-.614-6.268-1.814-9.583-4.153a1.16 1.16 0 0 0-1.094-.137c-1.482.59-3.622 1.443-5.39 2.206a1.47 1.47 0 0 0-.388 2.479c14.663 12.707 35.993 14.64 52.695 4.47 1.018-.62 2.647.653 2.319 1.798-.525 1.835-1.138 4.357-1.791 7.79-4.142 20.952-16.081 19.328-30.863 14.049-29.537-10.703-46.294-1.563-61.192-19.657-1.035-1.257-2.854-1.693-4.086-.627a14.15 14.15 0 0 0-4.895 10.702c0 4.92 2.54 9.134 6.304 11.657.471.315 1.097.182 1.448-.263.918-1.161 1.668-1.93 2.603-2.417 1.022-.533 1.521.93.658 1.695-3.164 2.801-4.072 6.138-6.14 12.716-3.249 10.313-1.868 20.87-17.056 23.631-8.04.407-7.878 5.848-10.802 13.968-3.394 9.802-7.837 14.144-16.061 22.709-1.125 1.171-1.221 3.044.015 4.098 3.285 2.799 6.673 2.953 10.117 1.535 8.528-3.573 15.106-14.617 21.279-21.764 6.904-7.958 23.472-4.547 35.98-12.343 6.746-4.136 10.799-9.419 9.503-17.333-.209-1.274 1.249-2.04 1.778-.862a23.7 23.7 0 0 1 1.937 7.089 1.237 1.237 0 0 0 1.299 1.088c13.532-.761 31.032 14.163 47.385 18.201.995.246 1.702-.903 1.14-1.759a30 30 0 0 1-2.615-4.881 33 33 0 0 1-1.659-5.045c-.303-1.271 1.554-1.613 2.189-.47 4.194 7.559 12.576 14.657 24.242 15.503 3.979.325 8.365-.162 12.914-1.543 5.441-1.624 10.477-3.735 16.487-2.598 4.467.812 8.609 3.085 11.208 6.902 3.647 5.318 11.346 6.727 15.449 1.169.558-.756.605-1.767.236-2.632-9.035-21.174-31.976-22.629-41.837-25.173" clip-rule="evenodd"/></g><filter id="shadow" width="330" height="248.285" x="-37" y="16" color-interpolation-filters="sRGB" filterUnits="userSpaceOnUse"><feDropShadow dx="0" dy="4" flood-color="rgba(0, 0, 0, 0.25)" stdDeviation="4"/></filter></svg>