<svg xmlns="http://www.w3.org/2000/svg" fill="none" viewBox="0 0 256 256"><g clip-path="url(#clip0_382_495)"><path fill="#282828" d="M256 50v156c0 27.596-22.404 50-50 50H50c-27.596 0-50-22.404-50-50V50C0 22.404 22.404 0 50 0h156c27.596 0 50 22.404 50 50"/><mask id="mask0_382_495" width="159" height="195" x="48" y="30" maskUnits="userSpaceOnUse" style="mask-type:luminance"><path fill="#fff" d="M207 30H48v195h159z"/></mask><g mask="url(#mask0_382_495)"><mask id="mask1_382_495" width="110" height="71" x="48" y="30" maskUnits="userSpaceOnUse" style="mask-type:luminance"><path fill="#fff" d="M48 30v4.788a73.4 73.4 0 0 0 4.183 24.474c8.543 24.204 29.337 41.317 53.679 41.317 9.716 0 18.868-2.726 26.902-7.542 5.74-3.44 10.906-7.945 15.304-13.285a64 64 0 0 0 2.544-3.301 67.5 67.5 0 0 0 6.42-10.993c.026-.075-12.773-3.26-13.703-3.427-7.92-1.42-14.773-2.237-22.201-2.7-10.368-.646-20.742-1.113-30.903-4.2-15.79-4.795-30.16-13.486-42.02-24.935z"/></mask><g mask="url(#mask1_382_495)"><path fill="url(#paint0_linear_382_495)" d="M48 30v4.788a73.4 73.4 0 0 0 4.183 24.474c8.543 24.204 29.337 41.317 53.679 41.317 9.716 0 18.868-2.726 26.902-7.542 5.74-3.44 10.906-7.945 15.304-13.285a64 64 0 0 0 2.544-3.301 67.5 67.5 0 0 0 6.42-10.993c.026-.075-12.773-3.26-13.703-3.427-7.92-1.42-14.773-2.237-22.201-2.7-10.368-.646-20.742-1.113-30.903-4.2-15.79-4.795-30.16-13.486-42.02-24.935z"/></g><mask id="mask2_382_495" width="1" height="1" x="48" y="224" maskUnits="userSpaceOnUse" style="mask-type:luminance"><path fill="#fff" d="M48 224.999h.123l-.123-.107z"/></mask><g mask="url(#mask2_382_495)"><path fill="url(#paint1_linear_382_495)" d="M48 224.999h.123l-.123-.107z"/></g><mask id="mask3_382_495" width="120" height="75" x="48" y="150" maskUnits="userSpaceOnUse" style="mask-type:luminance"><path fill="#fff" d="m124.058 183.512-2.116 2.726c-.021.029-.26.336-.742.958-24.262 31.266-69.51 37.25-72.874 37.656l-.326.04v.107h73.112c13.842 0 26.365-2.416 37.365-6.809 11.76-20.021 11.474-44.501 1.164-67.349-2.73 18.206-14.431 31.18-35.583 32.671"/></mask><g mask="url(#mask3_382_495)"><path fill="url(#paint2_linear_382_495)" d="m124.058 183.512-2.116 2.726c-.021.029-.26.336-.742.958-24.262 31.266-69.51 37.25-72.874 37.656l-.326.04v.107h73.112c13.842 0 26.365-2.416 37.365-6.809 11.76-20.021 11.474-44.501 1.164-67.349-2.73 18.206-14.431 31.18-35.583 32.671"/></g><mask id="mask4_382_495" width="103" height="89" x="105" y="65" maskUnits="userSpaceOnUse" style="mask-type:luminance"><path fill="#fff" d="M150.613 76.451a65 65 0 0 1-2.545 3.302c-4.397 5.34-9.563 9.844-15.303 13.284-8.034 4.816-17.186 7.543-26.902 7.543h14.067c14.991 0 25.686 5.266 32.288 14.039 2.974 3.95 5.054 8.656 6.367 13.881-.085-.4-.153-.745-.248-1.17 14.619 14.738 31.461 22.548 48.006 26.132.407-3.676.658-7.439.658-11.329 0-17.174-4.075-32.293-11.469-44.787-8.623-14.576-21.781-25.565-38.499-31.888a67.5 67.5 0 0 1-6.42 10.993"/></mask><g mask="url(#mask4_382_495)"><path fill="url(#paint3_linear_382_495)" d="M150.613 76.451a65 65 0 0 1-2.545 3.302c-4.397 5.34-9.563 9.844-15.303 13.284-8.034 4.816-17.186 7.543-26.902 7.543h14.067c14.991 0 25.686 5.266 32.288 14.039 2.974 3.95 5.054 8.656 6.367 13.881-.085-.4-.153-.745-.248-1.17 14.619 14.738 31.461 22.548 48.006 26.132.407-3.676.658-7.439.658-11.329 0-17.174-4.075-32.293-11.469-44.787-8.623-14.576-21.781-25.565-38.499-31.888a67.5 67.5 0 0 1-6.42 10.993"/></g><mask id="mask5_382_495" width="49" height="92" x="158" y="127" maskUnits="userSpaceOnUse" style="mask-type:luminance"><path fill="#fff" d="M158.584 128.499c.335 1.328.591 2.704.82 4.101q.239 1.338.398 2.435c.549 3.783.466 5.606.466 7.097 0 3.01-.21 5.92-.627 8.709 10.31 22.847 10.596 47.328-1.164 67.348 26.964-10.776 44.445-33.821 47.865-64.728-16.545-3.584-33.478-11.525-48.095-26.263.095.426.252.901.337 1.301"/></mask><g mask="url(#mask5_382_495)"><path fill="url(#paint4_linear_382_495)" d="M158.584 128.499c.335 1.328.591 2.704.82 4.101q.239 1.338.398 2.435c.549 3.783.466 5.606.466 7.097 0 3.01-.21 5.92-.627 8.709 10.31 22.847 10.596 47.328-1.164 67.348 26.964-10.776 44.445-33.821 47.865-64.728-16.545-3.584-33.478-11.525-48.095-26.263.095.426.252.901.337 1.301"/></g><mask id="mask6_382_495" width="77" height="111" x="48" y="114" maskUnits="userSpaceOnUse" style="mask-type:luminance"><path fill="#fff" d="M48 119.508c0 1.381.102 2.733.178 4.092h-.057v60.083H48v41.209l.326-.04c3.365-.408 48.612-6.39 72.874-37.656.482-.622.721-.928.742-.958l2.116-2.726c-.494.007-14.865.041-30.98.076v-42.962a69 69 0 0 1-2.853-.775C78.73 136.359 68 130.78 58.43 123.6a108 108 0 0 1-10.226-8.685c-.083-.078-.204-.197-.204-.197z"/></mask><g mask="url(#mask6_382_495)"><path fill="url(#paint5_linear_382_495)" d="M48 119.508c0 1.381.102 2.733.178 4.092h-.057v60.083H48v41.209l.326-.04c3.365-.408 48.612-6.39 72.874-37.656.482-.622.721-.928.742-.958l2.116-2.726c-.494.007-14.865.041-30.98.076v-42.962a69 69 0 0 1-2.853-.775C78.73 136.359 68 130.78 58.43 123.6a108 108 0 0 1-10.226-8.685c-.083-.078-.204-.197-.204-.197z"/></g></g></g><defs><linearGradient id="paint0_linear_382_495" x1="43.652" x2="163.99" y1="65.289" y2="65.289" gradientUnits="userSpaceOnUse"><stop stop-color="#FF0D57"/><stop offset="1" stop-color="#112146"/></linearGradient><linearGradient id="paint1_linear_382_495" x1="48.061" x2="48.061" y1="59.351" y2="224.999" gradientUnits="userSpaceOnUse"><stop stop-color="#FF0D57"/><stop offset="1" stop-color="#112146"/></linearGradient><linearGradient id="paint2_linear_382_495" x1="95.316" x2="170.737" y1="187.92" y2="187.92" gradientUnits="userSpaceOnUse"><stop stop-color="#FF0D57"/><stop offset=".88" stop-color="#112146"/><stop offset="1" stop-color="#112146"/></linearGradient><linearGradient id="paint3_linear_382_495" x1="94.288" x2="239.817" y1="124.097" y2="99.757" gradientUnits="userSpaceOnUse"><stop stop-color="#FF0D57"/><stop offset=".75" stop-color="#112146"/><stop offset="1" stop-color="#112146"/></linearGradient><linearGradient id="paint4_linear_382_495" x1="182.294" x2="182.294" y1="91.324" y2="205.453" gradientUnits="userSpaceOnUse"><stop stop-color="#FF0D57"/><stop offset="1" stop-color="#112146"/></linearGradient><linearGradient id="paint5_linear_382_495" x1="33.261" x2="88.854" y1="118.279" y2="208.68" gradientUnits="userSpaceOnUse"><stop stop-color="#FF0D57"/><stop offset=".75" stop-color="#112146"/><stop offset="1" stop-color="#112146"/></linearGradient><clipPath id="clip0_382_495"><path fill="#fff" d="M0 0h256v256H0z"/></clipPath></defs></svg>