<svg xmlns="http://www.w3.org/2000/svg" fill="none" viewBox="0 0 256 256"><rect width="256" height="256" fill="#282828" rx="60"/><path fill="#2ECE53" d="M216 149.5c0-48.325-39.175-87.5-87.5-87.5S41 101.175 41 149.5s41.044 44.269 89.369 44.269S216 197.825 216 149.5"/><path stroke="#0E1320" stroke-width="4" d="M216 149.5c0-48.325-39.175-87.5-87.5-87.5S41 101.175 41 149.5s41.044 44.269 89.369 44.269S216 197.825 216 149.5Z"/><path fill="#000" d="M98.839 127.927c5.733 0 10.381-4.648 10.381-10.382 0-5.733-4.648-10.381-10.381-10.381s-10.381 4.648-10.381 10.381 4.648 10.382 10.381 10.382m65.254 0c5.734 0 10.382-4.648 10.382-10.382 0-5.733-4.648-10.381-10.382-10.381-5.733 0-10.381 4.648-10.381 10.381s4.648 10.382 10.381 10.382"/><path fill="#fff" d="M61.763 120.511a2.966 2.966 0 1 0 0-5.932 2.966 2.966 0 0 0 0 5.932"/><path fill="#fff" fill-rule="evenodd" d="M99.919 83.79c.719-.37.862-1.157.3-1.78l-1.966-2.184c-.553-.615-1.603-.81-2.316-.443 0 0-5.71 2.81-10.559 6.228s-4.827 3.52-6.715 5.22c-5.25 4.727-13.624 16.476-13.624 16.476-.47.65-.411 1.665.15 2.289l1.967 2.184c.553.614 1.358.562 1.813-.127 0 0 3.47-5.458 7.613-10.261 4.142-4.804 2.619-3.048 5.593-6.23 4.38-4.69 17.744-11.373 17.744-11.373" clip-rule="evenodd"/><path fill="#000" fill-rule="evenodd" d="M129.242 177.32c14.333 0 25.953-11.62 25.953-25.954s-10.843-6.441-25.177-6.441-26.73-7.893-26.73 6.441 11.62 25.954 25.954 25.954" clip-rule="evenodd"/></svg>