<svg xmlns="http://www.w3.org/2000/svg" fill="none" viewBox="0 0 256 256"><path fill="#470137" d="M196 0H60C26.863 0 0 26.863 0 60v136c0 33.137 26.863 60 60 60h136c33.137 0 60-26.863 60-60V60c0-33.137-26.863-60-60-60"/><path fill="#FF61F6" d="M29.006 179.2V76.8a1.2 1.2 0 0 1 1-1.3h.1c1.5-.1 3.8-.2 6.7-.2s6.4-.1 10.4-.2 8.2-.1 12.7-.1c12.2 0 22.4 2.2 30.4 6.6a43.85 43.85 0 0 1 18.1 18.1c4 7.7 6 16.5 6 26.5a61.9 61.9 0 0 1-3.1 20.5 48.7 48.7 0 0 1-8.6 15.4 52.4 52.4 0 0 1-12.3 10.7 54.9 54.9 0 0 1-14.7 6.3 61.4 61.4 0 0 1-15.4 2h-11.3c-4 0-7.8 0-11.2-.1s-6.1-.1-7.8-.2c-.7 0-1-.6-1-1.6m21.1-84.4v66.7c1.1 0 2.1 0 3.1.1s1.9.1 2.8.2 2.1.1 3.3.1a37.4 37.4 0 0 0 13.6-2.3 26.84 26.84 0 0 0 10.5-6.8 30.9 30.9 0 0 0 6.7-11.1 47.6 47.6 0 0 0 2.4-15 39.7 39.7 0 0 0-2.3-14.1 26.08 26.08 0 0 0-17.1-16.2 42.2 42.2 0 0 0-13.2-1.9c-2 0-3.7 0-5.1.1s-3 .1-4.7.2m153.9 86h-18.7a1.36 1.36 0 0 1-1.2-.4 3.4 3.4 0 0 1-.6-1.2c-1.9-8-3.5-15.2-4.8-21.3s-2.4-11.4-3.2-15.7-1.5-7.9-2.1-10.9-1-5.5-1.3-7.6h-.1c-1 4.4-1.9 8.7-2.8 12.8s-1.8 8.3-2.8 12.5-2.1 8.8-3.4 13.8-2.6 10.5-4.1 16.4c-.2 1.1-.7 1.6-1.6 1.6h-18.7a2.23 2.23 0 0 1-1.4-.3 4.1 4.1 0 0 1-.7-1.1l-19.5-77.3c-.3-.9.1-1.3 1.2-1.3h18.9c.9 0 1.4.3 1.5 1 2 8.8 3.7 16.4 5 22.8s2.4 11.8 3.1 16.3 1.4 8.2 1.9 11 .9 5.2 1.2 7h.3c.2-1.6.4-3.1.7-4.7q.6-2.85 1.5-7.5c.6-3.1 1.3-6.7 2.2-10.9s1.9-9 3.1-14.6 2.7-11.8 4.6-18.9c.04-.457.176-.9.4-1.3.1-.2.5-.3 1.1-.3h19.6c.6 0 .9.4 1 1.1 1.7 7.3 3.1 13.7 4.3 19.2s2.1 10.4 3 14.7 1.5 7.9 1.9 10.9.9 5.6 1.3 7.7c.331 1.685.565 3.388.7 5.1h.3c.5-2 .9-4.4 1.3-7.1s.9-5.7 1.6-9.1 1.3-7.1 2.1-11.2 1.7-8.6 2.8-13.7 2.3-10.5 3.7-16.4c.2-.9.6-1.3 1.3-1.3h17.5c.9 0 1.2.5 1 1.4l-21.6 77.1a2.4 2.4 0 0 1-.6 1.1c0 .5-.4.7-.9.6"/></svg>