<svg xmlns="http://www.w3.org/2000/svg" width="256" height="256"><path d="M256 50v156c0 27.596-22.404 50-50 50H50c-27.596 0-50-22.404-50-50V50C0 22.404 22.404 0 50 0h156c27.596 0 50 22.404 50 50" style="fill:#f4f2ed"/><path d="M0 107.005c-.8 1.749-2.614 4.669-5.063 4.759-4.365.159-4.832-2.078-8.058-6.853-7.083-10.481-68.896-75.084-80.458-87.577-10.169-10.99-1.432-18.737 2.621-22.797 5.085-5.094 19.928-19.928 19.928-19.928s44.258 41.992 62.694 70.684C10.1 73.984 3.746 98.812 0 107.005m-71.026 60.177c-20.495 0-37.108-16.614-37.109-37.108v-.001c0-9.395 3.736-17.768 9.25-24.51 6.691-8.183 27.854-31.196 27.854-31.196s20.839 23.351 27.804 31.117a36.3 36.3 0 0 1 9.31 24.589c0 20.495-16.615 37.109-37.109 37.109m-62.037-55.466c-6.616-.226-31.033-42.31 14.264-87.12l29.974 32.742a2.564 2.564 0 0 1-.2 3.823c-7.153 7.336-37.639 37.907-41.428 48.479-.782 2.181-1.925 2.099-2.61 2.076M-26.627-27.411c-19.839-19.831-38.769-38.734-44.402-60.055-5.634 21.321-24.566 40.224-44.403 60.055-29.755 29.736-63.491 63.438-63.491 113.984 0 59.59 48.307 107.898 107.897 107.898 59.589 0 107.897-48.308 107.897-107.898 0-50.543-33.733-84.248-63.498-113.984" style="fill:#009cde;fill-rule:nonzero" transform="translate(175.396 92.266)scale(.6673)"/></svg>