<svg xmlns="http://www.w3.org/2000/svg" width="256" height="256" fill="none"><path fill="#DE5833" d="M196 0H60C26.863 0 0 26.863 0 60v136c0 33.137 26.863 60 60 60h136c33.137 0 60-26.863 60-60V60c0-33.137-26.863-60-60-60"/><path fill="#D5D7D8" d="M172.899 291.514c-3.856-17.747-26.267-57.922-34.767-74.909s-17.004-40.915-13.131-56.385c.703-2.811-7.36-24.223-5.043-25.738 18.029-11.782 22.775 1.285 29.994-3.989 3.715-2.726 8.783 2.243 10.068-2.27 4.623-16.21-6.439-44.47-18.786-56.822-4.038-4.027-10.218-6.555-17.201-7.898-2.686-3.67-7.016-7.198-13.149-10.454-6.829-3.635-21.678-8.435-29.383-9.714-5.338-.857-6.544.615-8.826.985 2.125.189 12.21 5.171 14.17 5.463-1.962 1.328-7.726-.06-11.404 1.59-1.853.839-3.239 4.02-3.226 5.526 10.496-1.063 26.935-.035 36.63 4.284-7.716.857-19.45 1.857-24.497 4.51-14.67 7.728-21.15 25.78-17.287 47.411 3.864 21.582 20.86 100.358 26.267 126.663 5.409 26.271-11.585 43.271-22.396 47.885l11.584.778-3.855 8.498c13.89 1.542 29.336-3.085 29.336-3.085-3.08 8.493-23.94 11.593-23.94 11.593s10.067 3.08 26.258-3.1l26.268-10.042 7.721 20.078 14.682-14.667 6.18 15.423c.03-.002 11.619-3.872 7.754-21.641z"/><path fill="#fff" d="M177.562 287.914c-3.845-17.78-26.254-57.93-34.762-74.932-8.509-17.002-16.998-40.94-13.131-56.38.717-2.785.728-14.284 3.063-15.809 17.994-11.769 16.734-.394 23.964-5.666 3.727-2.721 6.711-6.011 8.007-10.522 4.636-16.22-6.439-44.47-18.793-56.83-4.027-4.028-10.213-6.56-17.186-7.897-2.682-3.68-7.005-7.197-13.131-10.457-11.568-6.131-25.864-8.582-39.128-6.176 2.142.214 6.975 4.58 8.928 4.869-2.956 2.005-10.824 1.746-10.775 6.204 10.531-1.054 22.07.61 31.777 4.92-7.716.857-14.899 2.785-19.922 5.448-14.682 7.717-18.542 23.16-14.682 44.8 3.87 21.629 20.868 100.407 26.254 126.655 5.413 26.262-11.572 43.245-22.386 47.885l11.585.771-3.856 8.51c13.89 1.543 29.337-3.084 29.337-3.084-3.081 8.513-23.94 11.58-23.94 11.58s10.037 3.085 26.257-3.095l26.284-10.042 7.72 20.078 14.678-14.674 6.212 15.455c-.034.015 11.542-3.849 7.669-21.609z"/><path fill="#2D4F8E" d="M88.771 110.574a8.11 8.11 0 0 1 8.119-8.112 8.095 8.095 0 0 1 8.108 8.112 8.106 8.106 0 0 1-8.108 8.11 8.105 8.105 0 0 1-8.119-8.11"/><path fill="#fff" d="M98.383 107.875a2.1 2.1 0 0 1 1.294-1.946 2.105 2.105 0 0 1 2.913 1.946 2.104 2.104 0 1 1-4.207 0"/><path fill="#2D4F8E" d="M144.139 105.765c0-3.841 3.127-6.962 6.966-6.962 3.856 0 6.975 3.121 6.975 6.962a6.97 6.97 0 0 1-6.975 6.979 6.985 6.985 0 0 1-6.966-6.979"/><path fill="#fff" d="M152.403 103.448a1.81 1.81 0 0 1 2.489-1.672 1.8 1.8 0 0 1 .982.978c.091.22.137.456.136.694a1.785 1.785 0 0 1-1.812 1.803 1.8 1.8 0 0 1-1.271-.53 1.8 1.8 0 0 1-.524-1.273"/><path fill="url(#paint0_linear_61_43)" d="M99.195 87.071s-6.114-2.785-12.06.97-5.715 7.547-5.715 7.547-3.156-7.032 5.254-10.48c8.41-3.446 12.52 1.963 12.52 1.963"/><path fill="url(#paint1_linear_61_43)" d="M155.301 86.514s-4.391-2.51-7.803-2.468c-7.005.092-8.916 3.188-8.916 3.188s1.178-7.38 10.137-5.9c4.858.808 6.582 5.18 6.582 5.18"/><path fill="#FDD20A" d="M121.717 141.86c.814-4.927 13.495-14.192 22.492-14.753 8.997-.568 11.782-.439 19.279-2.234 7.498-1.795 26.852-6.615 32.203-9.087 5.364-2.476 28.07 1.225 12.06 10.149-6.923 3.856-25.583 10.989-38.926 14.967-13.324 3.985-21.422-3.804-25.834 2.742-3.526 5.21-.716 12.343 15.209 13.823 21.5 1.992 42.114-9.682 44.384-3.481s-18.475 13.941-31.114 14.188c-12.623.214-38.065-8.346-41.889-11.005-3.824-2.658-8.922-8.846-7.862-15.311z"/><path fill="#65BC46" d="M131.449 206.759s-30.208-16.109-30.701-9.575c-.51 6.546 0 33.203 3.519 35.238s28.696-13.084 28.696-13.084zm11.574-1.015s20.639-15.606 25.178-14.599c4.499 1.028 5.531 33.203 1.5 34.767-4.028 1.499-27.651-8.168-27.651-8.168z"/><path fill="#43A244" d="M124.138 208.49c0 10.565-1.5 15.102 2.999 16.109 4.498 1.007 13.075 0 16.104-2.009s.497-15.595-.497-18.133c-1.022-2.515-18.628-.497-18.628 4.035z"/><path fill="#65BC46" d="M126.057 206.116c0 10.567-1.514 15.102 2.999 16.109 4.511 1.028 13.076 0 16.109-2.009 2.999-2.014.493-15.595-.506-18.135-1.013-2.513-18.619-.487-18.619 4.038z"/></svg>