<svg xmlns="http://www.w3.org/2000/svg" width="256" height="256" fill="none"><rect width="256" height="256" fill="#BB358B" rx="60"/><path fill="#fff" d="M115.24 141.343C89.997 115.943 83.987 78.145 97.81 47c-9.015 4.233-17.73 9.978-25.243 17.538-32.756 32.96-32.756 86.783 0 119.742s86.247 32.96 119.003 0c7.513-7.559 13.223-16.026 17.43-25.399-30.652 13.909-68.217 8.164-93.76-17.538m17.129 55.637c-19.233 0-37.263-7.559-51.087-21.166-27.347-27.517-27.948-71.664-2.404-100.088-1.503 27.214 8.114 54.428 27.947 74.386 18.031 18.142 42.373 28.423 67.916 28.423 2.104 0 3.907 0 6.011-.302-13.223 12.095-30.352 18.747-48.383 18.747"/></svg>