<svg xmlns="http://www.w3.org/2000/svg" width="256" height="256" fill="none"><rect width="256" height="256" fill="#4AB2B0" rx="60"/><path fill="#fff" fill-rule="evenodd" d="M192.304 192.471c35.595-35.633 35.595-93.114 0-128.746s-93.014-35.633-128.608 0c-35.595 35.632-35.595 93.113 0 128.746 35.335 35.372 93.014 35.372 128.608 0m-7.535-7.543c31.438-31.471 31.438-82.45 0-113.92-31.437-31.472-82.361-31.472-113.798 0-31.438 31.47-31.438 82.449 0 113.92s82.361 31.471 113.798 0"/><path fill="#fff" d="M148.46 184.403c21.441-21.277 21.441-55.788 0-77.066-21.441-21.277-56.217-21.277-77.659 0-21.44 21.278-21.44 55.789 0 77.066 21.442 21.278 56.218 21.278 77.659 0m7.321 7.525c-25.624 25.429-66.938 25.429-92.562 0a64.49 64.49 0 0 1 0-91.856c25.624-25.43 66.938-25.43 92.562 0a64.49 64.49 0 0 1 0 91.856"/><path fill="#fff" d="M111.134 184.963c11.19-11.175 11.19-29.368 0-40.543s-29.404-11.175-40.594 0c-11.189 11.175-11.189 29.368 0 40.543s29.405 11.175 40.594 0m7.547 7.537c-15.353 15.333-40.074 15.333-55.166 0-15.353-15.334-15.353-40.023 0-55.097s40.073-15.334 55.166 0 15.092 39.763 0 55.097"/></svg>