<svg xmlns="http://www.w3.org/2000/svg" fill="none" viewBox="0 0 256 256"><path fill="#282828" d="M196 0H60C26.863 0 0 26.863 0 60v136c0 33.137 26.863 60 60 60h136c33.137 0 60-26.863 60-60V60c0-33.137-26.863-60-60-60"/><g clip-path="url(#clip0_80_14)"><path fill="url(#paint0_linear_80_14)" d="M197.979 170.225a64 64 0 0 1-7.247 3.213 69.7 69.7 0 0 1-24.541 4.375c-32.334 0-60.498-22.217-60.498-50.792a21.53 21.53 0 0 1 11.211-18.662c-29.257 1.231-36.777 31.719-36.777 49.561 0 50.586 46.553 55.644 56.602 55.644 5.4 0 13.535-1.572 18.457-3.144l.888-.274a87.7 87.7 0 0 0 45.528-36.093 2.736 2.736 0 0 0-3.623-3.828"/><path fill="url(#paint1_radial_80_14)" d="M197.979 170.225a64 64 0 0 1-7.247 3.213 69.7 69.7 0 0 1-24.541 4.375c-32.334 0-60.498-22.217-60.498-50.792a21.53 21.53 0 0 1 11.211-18.662c-29.257 1.231-36.777 31.719-36.777 49.561 0 50.586 46.553 55.644 56.602 55.644 5.4 0 13.535-1.572 18.457-3.144l.888-.274a87.7 87.7 0 0 0 45.528-36.093 2.736 2.736 0 0 0-3.623-3.828" opacity=".35"/><path fill="url(#paint2_linear_80_14)" d="M112.256 204.951a54.1 54.1 0 0 1-15.518-14.56 55.17 55.17 0 0 1 20.166-82.032c2.188-1.025 5.811-2.802 10.664-2.734a22.15 22.15 0 0 1 17.569 8.887 21.8 21.8 0 0 1 4.306 12.783c0-.137 16.748-54.414-54.687-54.414-30.01 0-54.688 28.437-54.688 53.457a89 89 0 0 0 8.272 38.281 87.5 87.5 0 0 0 106.914 45.801 51.6 51.6 0 0 1-42.93-5.469z"/><path fill="url(#paint3_radial_80_14)" d="M112.256 204.951a54.1 54.1 0 0 1-15.518-14.56 55.17 55.17 0 0 1 20.166-82.032c2.188-1.025 5.811-2.802 10.664-2.734a22.15 22.15 0 0 1 17.569 8.887 21.8 21.8 0 0 1 4.306 12.783c0-.137 16.748-54.414-54.687-54.414-30.01 0-54.688 28.437-54.688 53.457a89 89 0 0 0 8.272 38.281 87.5 87.5 0 0 0 106.914 45.801 51.6 51.6 0 0 1-42.93-5.469z" opacity=".41"/><path fill="url(#paint4_radial_80_14)" d="M144.18 141.719c-.616.683-2.325 1.709-2.325 3.828 0 1.777 1.163 3.555 3.282 4.99 9.775 6.836 28.3 5.879 28.369 5.879a40.74 40.74 0 0 0 20.713-5.674A41.97 41.97 0 0 0 215 114.58c.205-15.312-5.469-25.498-7.725-30.01C192.715 56.27 161.475 40 127.5 40A87.5 87.5 0 0 0 40 126.27c.342-24.952 25.156-45.118 54.688-45.118 2.392 0 16.064.205 28.71 6.836a49.6 49.6 0 0 1 21.123 20.03c4.17 7.246 4.922 16.474 4.922 20.166 0 3.691-1.845 9.091-5.332 13.603z"/><path fill="url(#paint5_radial_80_14)" d="M144.18 141.719c-.616.683-2.325 1.709-2.325 3.828 0 1.777 1.163 3.555 3.282 4.99 9.775 6.836 28.3 5.879 28.369 5.879a40.74 40.74 0 0 0 20.713-5.674A41.97 41.97 0 0 0 215 114.58c.205-15.312-5.469-25.498-7.725-30.01C192.715 56.27 161.475 40 127.5 40A87.5 87.5 0 0 0 40 126.27c.342-24.952 25.156-45.118 54.688-45.118 2.392 0 16.064.205 28.71 6.836a49.6 49.6 0 0 1 21.123 20.03c4.17 7.246 4.922 16.474 4.922 20.166 0 3.691-1.845 9.091-5.332 13.603z"/></g><defs><radialGradient id="paint1_radial_80_14" cx="0" cy="0" r="1" gradientTransform="matrix(65.2148 0 0 61.9541 147.461 161.916)" gradientUnits="userSpaceOnUse"><stop offset=".7" stop-opacity="0"/><stop offset=".9" stop-opacity=".5"/><stop offset="1"/></radialGradient><radialGradient id="paint3_radial_80_14" cx="0" cy="0" r="1" gradientTransform="matrix(14.68419 -96.91163 78.29482 11.86334 88.23 175.991)" gradientUnits="userSpaceOnUse"><stop offset=".8" stop-opacity="0"/><stop offset=".9" stop-opacity=".5"/><stop offset="1"/></radialGradient><radialGradient id="paint4_radial_80_14" cx="0" cy="0" r="1" gradientTransform="matrix(-5.53435 138.35936 -294.67636 -11.787 57.698 72.345)" gradientUnits="userSpaceOnUse"><stop stop-color="#35C1F1"/><stop offset=".1" stop-color="#34C1ED"/><stop offset=".2" stop-color="#2FC2DF"/><stop offset=".3" stop-color="#2BC3D2"/><stop offset=".7" stop-color="#36C752"/></radialGradient><radialGradient id="paint5_radial_80_14" cx="0" cy="0" r="1" gradientTransform="matrix(18.6236 63.85322 -51.9254 15.1447 204.104 92.843)" gradientUnits="userSpaceOnUse"><stop stop-color="#66EB6E"/><stop offset="1" stop-color="#66EB6E" stop-opacity="0"/></radialGradient><linearGradient id="paint0_linear_80_14" x1="80.127" x2="202.08" y1="160.996" y2="160.996" gradientUnits="userSpaceOnUse"><stop stop-color="#0C59A4"/><stop offset="1" stop-color="#114A8B"/></linearGradient><linearGradient id="paint2_linear_80_14" x1="144.385" x2="68.301" y1="108.086" y2="191.006" gradientUnits="userSpaceOnUse"><stop stop-color="#1B9DE2"/><stop offset=".2" stop-color="#1595DF"/><stop offset=".7" stop-color="#0680D7"/><stop offset="1" stop-color="#0078D4"/></linearGradient><clipPath id="clip0_80_14"><path fill="#fff" d="M40 40h175v175H40z"/></clipPath></defs></svg>