<svg xmlns="http://www.w3.org/2000/svg" width="256" height="256" fill="none"><rect width="256" height="256" fill="#F4F2ED" rx="60"/><path fill="#FFF" d="M229.6 130.9c0-17-10.6-32-26.5-37.7.7-3.6 1-7.3 1-10.9 0-31.8-25.8-57.5-57.4-57.5-18.6 0-35.7 8.8-46.6 23.8-5.3-4.1-11.9-6.4-18.6-6.4C64.7 42.2 51 55.9 51 72.7c0 3.7.7 7.3 1.9 10.7-15.9 5.8-26.6 20.9-26.6 37.8s10.6 32.1 26.5 37.8c-.7 3.6-1 7.3-1 10.9 0 31.6 25.7 57.3 57.3 57.3 18.6 0 35.7-8.9 46.5-23.9 5.3 4.2 11.9 6.5 18.6 6.5 16.8 0 30.5-13.7 30.5-30.5 0-3.7-.7-7.3-1.9-10.7 16.1-5.6 26.7-20.7 26.8-37.7"/><path fill="#FED10A" d="m106.3 112 44.5 20.3L195.7 93q1.05-4.95.9-9.9c0-27.7-22.5-50.1-50.2-50.2-16.5 0-32 8.2-41.3 21.8l-7.5 38.8z"/><path fill="#24BBB1" d="M60.2 159.1c-.7 3.3-1 6.7-1 10.1 0 27.8 22.6 50.3 50.4 50.3 16.6 0 32.2-8.2 41.6-22l7.4-38.6-9.9-18.9-44.7-20.4z"/><path fill="#EF5098" d="m59.9 82.1 30.5 7.2 6.7-34.6c-4.1-3.2-9.3-4.9-14.6-4.9-13.3 0-24 10.8-24 24 0 2.9.5 5.7 1.4 8.3"/><path fill="#17A8E0" d="M57.3 89.4c-13.6 4.5-23.1 17.5-23.1 31.9 0 14 8.7 26.5 21.7 31.4L98.6 114l-7.8-16.8z"/><path fill="#93C83E" d="M158.9 197.4c4.2 3.2 9.3 4.9 14.5 5 13.3 0 24-10.8 24.1-24.1 0-2.8-.5-5.7-1.5-8.3l-30.4-7.1z"/><path fill="#0779A1" d="m165.1 154.9 33.5 7.8c13.8-4.6 23-17.5 23.1-32 0-13.9-8.6-26.4-21.7-31.4l-43.8 38.4z"/></svg>