<svg xmlns="http://www.w3.org/2000/svg" fill="none" viewBox="0 0 256 256"><path fill="#F4F2ED" d="M196 0H60C26.863 0 0 26.863 0 60v136c0 33.137 26.863 60 60 60h136c33.137 0 60-26.863 60-60V60c0-33.137-26.863-60-60-60"/><path fill="#409EFF" fill-rule="evenodd" d="M224 174.827c0 9.045-4.786 11.119-4.786 11.119s-81.585 47.011-86.89 50.007a9.7 9.7 0 0 1-8.764 0s-85.275-49.431-88.389-51.62A7.43 7.43 0 0 1 32 178.572V76.138c0-4.493 5.766-7.662 5.766-7.662l85.045-49.258a11.54 11.54 0 0 1 10.321 0s75.3 43.727 83.373 48.451a11.99 11.99 0 0 1 7.207 11.868v95.29zm-34.018-97.94c-17.297-10.024-58.58-33.818-58.58-33.818a9.12 9.12 0 0 0-8.13 0l-66.94 38.312s-4.44 2.65-4.382 6.222c.057 3.572 0 80.195 0 80.195a5.75 5.75 0 0 0 2.479 4.321c2.48 1.729 69.189 40.328 69.189 40.328a7.5 7.5 0 0 0 6.861 0c4.152-2.304 68.152-39.118 68.152-39.118s3.747-1.613 3.747-8.699v-19.991l-75.07 45.513v-17.284a17.27 17.27 0 0 1 5.766-11.925l66.652-40.328a14.34 14.34 0 0 0 3.171-8.412V94.516l-75.589 45.629v-18.436a12.49 12.49 0 0 1 4.786-10.312z" clip-rule="evenodd"/></svg>