<svg xmlns="http://www.w3.org/2000/svg" width="256" height="256" fill="none"><path fill="#F4F2ED" d="M196 0H60C26.863 0 0 26.863 0 60v136c0 33.137 26.863 60 60 60h136c33.137 0 60-26.863 60-60V60c0-33.137-26.863-60-60-60"/><g clip-path="url(#clip0_804_90)"><mask id="mask0_804_90" width="256" height="256" x="0" y="0" maskUnits="userSpaceOnUse" style="mask-type:luminance"><path fill="#fff" d="M196 0H60C26.863 0 0 26.863 0 60v136c0 33.137 26.863 60 60 60h136c33.137 0 60-26.863 60-60V60c0-33.137-26.863-60-60-60"/></mask><g mask="url(#mask0_804_90)"><path fill="#F0AD00" d="m128 120.979 55.322-55.323H72.678z"/><path fill="#7FD13B" d="m7.021 0 55.725 55.726h121.13L128.15 0zm248.851 127.723-60.289-60.289-60.563 60.564 60.289 60.289z"/><path fill="#60B5CC" d="M256 113.806V0H142.193z"/><path fill="#5A6378" d="M120.978 128 0 7.022v241.957z"/><path fill="#F0AD00" d="M202.333 195.311 256 248.979V141.643z"/><path fill="#60B5CC" d="M128 135.022 7.022 256h241.956z"/></g></g><defs><clipPath id="clip0_804_90"><path fill="#fff" d="M0 0h256v256H0z"/></clipPath></defs></svg>