<svg xmlns="http://www.w3.org/2000/svg" width="256" height="256" fill="none"><rect width="256" height="256" fill="#F56857" rx="60"/><path fill="#fff" d="m135.941 215.48.722-59.04c1.444-1.08 2.888-1.8 4.332-2.88 2.166-1.8 4.332-4.32 6.498-6.84 2.527 1.44 4.692 3.24 6.858 5.4 0 .36.361.72.722 1.08l-.361 58.32c-6.136 1.8-12.634 3.24-18.771 3.96m-38.624-4.32v-58.68l1.083-1.08c2.166-2.16 4.332-3.96 6.859-5.4 1.804 2.52 3.97 5.04 6.497 6.84 1.444 1.08 2.888 2.16 4.332 2.88l-.361 59.4c-6.137-.72-12.273-1.8-18.41-3.96M126.556 38c15.161 0 27.434 25.2 28.156 55.44 0 2.88 0 5.76-.361 8.64 11.912 8.28 19.493 22.32 19.493 38.16 0 6.48-1.444 12.96-3.971 18.72-4.693-10.8-13.717-19.8-24.546-24.48-5.054 9-11.551 14.4-18.771 14.4-7.219 0-13.717-5.4-18.41-14.4-11.19 4.68-20.214 13.68-24.907 24.48-2.527-5.76-3.97-11.88-3.97-18.72 0-15.84 7.94-29.52 19.853-38.16-.361-2.88-.361-5.76-.361-8.64 0-30.6 12.634-55.44 27.795-55.44m-.361 36c-6.497 0-11.912 5.4-12.273 12.24 0 6.84 5.415 12.24 12.273 12.24 6.859 0 12.273-5.4 12.273-12.24S133.054 74 126.195 74M90.82 183.8v21.96c-20.215-11.88-34.293-32.4-36.82-56.52q8.122 1.08 18.41 2.16c2.527 12.96 9.024 24.12 18.41 32.4m-18.05-55.44q-10.287 1.08-18.409 2.16C57.61 106.04 73.131 85.16 94.429 74c-.36 4.32-.722 8.64-.722 13.32v5.4c-5.775 4.68-10.468 10.44-13.717 16.92-.722 1.08-1.083 2.52-1.805 3.96-2.166 4.68-4.331 9.72-5.414 14.76m89.884 77.04v-21.96c9.385-8.28 15.883-19.44 18.409-32.4 6.859-.36 12.996-1.44 18.41-2.16-2.888 24.12-16.966 45-36.819 56.52m36.458-74.88q-8.121-1.08-18.41-2.16c-1.082-5.04-2.887-10.08-5.414-14.4-.361-1.44-1.083-2.52-1.805-3.96-3.249-6.48-7.942-12.24-13.356-16.92v-5.4c0-4.68-.361-9-.722-13.32 21.297 11.16 36.458 31.68 39.707 56.16"/></svg>