<svg xmlns="http://www.w3.org/2000/svg" width="256" height="256" fill="none"><path fill="#F4F2ED" d="M196 0H60C26.863 0 0 26.863 0 60v136c0 33.137 26.863 60 60 60h136c33.137 0 60-26.863 60-60V60c0-33.137-26.863-60-60-60"/><path fill="#A90432" d="M59.478 167.016c-15.58-16.505-24.696-39.306-24.673-66.511-.021-24.059 7.54-44.739 20.54-60.475l-.021.008H28v126.98h31.459zm143.902.011c6.712-7.187 12.726-15.65 18.176-25.329l-30.243-15.116c-10.622 17.262-26.155 33.15-47.633 33.256-31.26-.106-43.542-26.828-43.475-61.223h116.814c.156-3.883.156-5.689 0-7.558.763-20.462-4.662-37.662-14.531-51.057l-.051.038h26.301v126.98h-25.415zm-101.284-97.89c1.293-15.572 13.574-26.044 27.974-26.076 14.499.032 24.974 10.504 25.329 26.077z"/><path fill="#231F20" d="M44.634 188.56v-5.291H28.378v31.367h16.256v-5.291H34.426v-8.314h9.83v-5.291h-9.83v-7.18zm27.596 12.849c4.053-.602 6.278-4.615 6.427-8.692-.15-6.669-4.473-9.428-10.585-9.448h-8.317v31.367h6.049v-12.471l7.56 12.471h7.561zm-6.426-13.227h.756c3.3.124 5.776.877 5.67 4.913.106 3.699-2.286 4.702-5.67 4.535h-.756zm34.023-4.913H93.78v31.367h14.743v-5.291h-8.695zm39.694 24.942 2.646 6.425h6.427l-11.719-32.123h-4.915l-12.475 32.123h6.427l2.646-6.425zm-1.512-4.912h-7.561l3.403-11.715zm21.926 11.337h6.427v-21.163l16.634 21.919h4.536v-32.123h-6.427v21.164l-16.633-21.92h-4.537zm54.06-16.628v4.913h6.804c-.141 3.948-3.374 7.293-7.182 7.18-6.015.113-8.996-5.698-9.073-10.96.077-5.191 3.016-11.253 9.073-11.337 3.178.084 5.866 2.258 7.182 4.913l5.293-2.646c-2.328-4.901-7.029-7.618-12.475-7.558-9.374-.06-15.377 7.674-15.5 16.628.123 8.732 5.958 16.509 15.122 16.629 9.896-.12 14.472-8.023 14.365-17.007v-.755z"/></svg>