<svg xmlns="http://www.w3.org/2000/svg" fill="none" viewBox="0 0 256 256"><path fill="#F4F2ED" d="M196 0H60C26.863 0 0 26.863 0 60v136c0 33.137 26.863 60 60 60h136c33.137 0 60-26.863 60-60V60c0-33.137-26.863-60-60-60"/><path fill="#21A366" d="M92.548 50h113.317a6.83 6.83 0 0 1 5.021 2.158 7.7 7.7 0 0 1 2.07 5.241v140.495a7.7 7.7 0 0 1-2.07 5.241 6.82 6.82 0 0 1-5.021 2.158H92.548a7.17 7.17 0 0 1-5.054-2.211 7.18 7.18 0 0 1-1.993-5.144V57.399A7.223 7.223 0 0 1 92.505 50z"/><path fill="#185C37" d="M85.502 127.646v70.468a7.18 7.18 0 0 0 6.87 7.531h113.493a7.22 7.22 0 0 0 5.085-2.224 7.22 7.22 0 0 0 2.006-5.175v-70.467z"/><path fill="#107C41" d="M85.502 88.846h127.454v38.845H85.502z"/><path fill="#33C481" d="M205.865 50h-56.636v116.492h63.727V57.399a7.7 7.7 0 0 0-2.07-5.24A6.83 6.83 0 0 0 205.865 50"/><path fill="#21A366" d="M149.229 88.846H213v38.845h-63.771z"/><path fill="#107C41" d="M149.229 127.646H213v38.846h-63.771z"/><g fill="#000" opacity=".67"><path d="M130.6 81.71H93.561a2.73 2.73 0 0 0-2.642 2.776v86.367a2.73 2.73 0 0 0 1.604 2.577c.327.148.68.23 1.038.241H130.6a5.42 5.42 0 0 0 3.792-1.679 5.4 5.4 0 0 0 1.492-3.87V87.26a5.41 5.41 0 0 0-3.221-5.087 5.4 5.4 0 0 0-2.063-.462" opacity=".05"/><path d="M120.867 96.29H85.634v89.141h35.233a7.176 7.176 0 0 0 7.134-7.179V103.38a7.176 7.176 0 0 0-7.134-7.09" opacity=".1"/><path d="M120.867 91.136H85.634v89.053h35.233a7.18 7.18 0 0 0 7.134-7.135V98.183a7.18 7.18 0 0 0-7.134-7.047" opacity=".2"/><path d="M128.53 83.473H91.535a2.73 2.73 0 0 0-2.642 2.73v86.411a2.685 2.685 0 0 0 2.642 2.775h36.995a5.415 5.415 0 0 0 4.963-3.456 5.4 5.4 0 0 0 .366-2.093V88.978a5.4 5.4 0 0 0-.35-2.083 5.34 5.34 0 0 0-4.935-3.422z" opacity=".1"/><path d="M128.486 85.719H91.447a2.73 2.73 0 0 0-2.642 2.819v85.486a2.773 2.773 0 0 0 2.642 2.774h37.039a5.37 5.37 0 0 0 5.152-5.681V91.268a5.373 5.373 0 0 0-5.152-5.55" opacity=".1"/><path d="M122.496 79.2H85.502v72.494h-.529v11.363a2.68 2.68 0 0 0 1.618 2.509c.324.14.672.216 1.025.221l29.419-5.637c2.951 0 10.79-2.643 10.79-5.682V84.75a5.41 5.41 0 0 0-3.252-5.1 5.4 5.4 0 0 0-2.077-.45" opacity=".01"/><path d="M120.867 93.603H85.634v89.053h35.233a7.18 7.18 0 0 0 7.134-7.135v-74.872a7.177 7.177 0 0 0-7.134-7.046" opacity=".2"/><path d="M120.911 85.807H85.678v87.115h35.233a7.134 7.134 0 0 0 7.09-7.135V92.942a7.133 7.133 0 0 0-7.09-7.135" opacity=".3"/><path d="M120.867 85.807H85.634v86.851h35.233a7.133 7.133 0 0 0 7.134-7.135V92.942a7.133 7.133 0 0 0-7.134-7.135" opacity=".3"/><path d="M120.867 87.568H85.634v89.054h35.233a7.1 7.1 0 0 0 5.058-2.077 7.1 7.1 0 0 0 2.076-5.058V94.615a7.177 7.177 0 0 0-7.134-7.047" opacity=".3"/><path d="M120.867 89.241H85.634v89.054h35.233a7.223 7.223 0 0 0 7.134-7.223V96.2a7.135 7.135 0 0 0-7.134-6.959" opacity=".2"/><path d="M127.605 88.537H90.611a2.686 2.686 0 0 0-2.687 2.775v80.905a2.73 2.73 0 0 0 2.686 2.775h36.995a5.42 5.42 0 0 0 4.924-3.466 5.4 5.4 0 0 0 .361-2.083V93.866a5.37 5.37 0 0 0-5.285-5.33" opacity=".1"/><path d="M123.509 88.537h-36.95a1.5 1.5 0 0 0-.97 0v84.385q.486.061.97 0h37.038a5.4 5.4 0 0 0 3.792-1.68 5.4 5.4 0 0 0 1.493-3.87V93.866a5.36 5.36 0 0 0-1.479-3.883 5.38 5.38 0 0 0-3.806-1.667z" opacity=".2"/><path d="M114.216 83.517H87.263a2.687 2.687 0 0 0-2.642 2.774v81.038a2.73 2.73 0 0 0 2.642 2.731h37.039a5.42 5.42 0 0 0 5.285-5.506V91.488c0-3.259-7.179-5.065-7.972-6.078a15.7 15.7 0 0 0-7.399-1.893" opacity=".3"/><path d="M125.843 92.28H88.805a2.775 2.775 0 0 0-2.643 2.775v81.082a2.73 2.73 0 0 0 2.643 2.818h37.038a5.46 5.46 0 0 0 5.285-5.505V97.83a5.414 5.414 0 0 0-5.241-5.55z" opacity=".1"/><path d="M122.496 80.741H85.502v72.538h-.529v11.363a2.69 2.69 0 0 0 1.607 2.549c.327.143.679.22 1.036.225l29.419-5.681c2.951 0 10.79-2.643 10.79-5.681V86.29a5.425 5.425 0 0 0-3.252-5.099 5.4 5.4 0 0 0-2.077-.45" opacity=".1"/><path d="M122.496 82.151H85.502v72.45h-.529v11.319a2.69 2.69 0 0 0 1.607 2.549c.327.143.679.22 1.036.225l29.419-5.637c2.951 0 10.79-2.643 10.79-5.681V87.701a5.43 5.43 0 0 0-1.508-3.885 5.42 5.42 0 0 0-3.821-1.665" opacity=".15"/></g><path fill="#107C41" d="M50.093 83.252h70.818a7.31 7.31 0 0 1 7.09 7.443v73.947a7.31 7.31 0 0 1-6.958 7.575h-70.95a7.22 7.22 0 0 1-5.085-2.224 7.23 7.23 0 0 1-2.006-5.175V90.695a7.31 7.31 0 0 1 7.09-7.443"/><path fill="#fff" d="m62.292 155.393 16.692-27.219-15.327-26.865H75.99l8.323 17.176a41 41 0 0 1 1.586 3.788 50 50 0 0 1 1.761-3.788l8.809-17.044h11.318L92.24 128.174l16.075 27.174H96.248l-9.69-18.718a26 26 0 0 1-1.189-2.51 12.2 12.2 0 0 1-1.145 2.422l-9.909 18.895z"/></svg>