<svg xmlns="http://www.w3.org/2000/svg" width="256" height="256" fill="none"><path fill="#282828" d="M196 0H60C26.863 0 0 26.863 0 60v136c0 33.137 26.863 60 60 60h136c33.137 0 60-26.863 60-60V60c0-33.137-26.863-60-60-60"/><path fill="#F2F2F2" d="M122.961 103.86c1.646-2.405 3.44-2.708 4.896-2.708s3.874.303 5.521 2.708c12.913 17.624 34.233 52.742 49.963 78.658 10.262 16.886 18.14 29.865 19.76 31.515 6.067 6.198 14.387 2.335 19.223-4.697 4.758-6.92 6.075-11.782 6.075-16.965 0-3.533-68.969-130.982-75.911-141.591-6.673-10.202-8.857-12.78-20.28-12.78h-8.563c-11.396 0-13.043 2.578-19.725 12.78C96.978 61.389 28 188.838 28 192.363c0 5.191 1.326 10.053 6.093 16.973 4.836 7.032 13.156 10.895 19.222 4.688 1.612-1.65 9.49-14.62 19.752-31.515 15.73-25.907 36.98-61.025 49.902-78.657z"/></svg>