<svg xmlns="http://www.w3.org/2000/svg" width="256" height="256" fill="none"><g clip-path="url(#clip0_35_49)"><path fill="#282828" d="M196 0H60C26.863 0 0 26.863 0 60v136c0 33.137 26.863 60 60 60h136c33.137 0 60-26.863 60-60V60c0-33.137-26.863-60-60-60"/><mask id="mask0_35_49" width="183" height="197" x="37" y="30" maskUnits="userSpaceOnUse" style="mask-type:luminance"><path fill="#fff" d="M220 30H37v197h183z"/></mask><g mask="url(#mask0_35_49)"><path fill="url(#paint0_linear_35_49)" fill-rule="evenodd" d="m44.517 165.912-2.632 10.525c-1.003 3.373-2.381 8.365-3.134 12.818-1.378 3.913-1.88 8.231-1.504 12.414a30.3 30.3 0 0 0 3.635 11.874c2.006 3.643 4.889 6.611 8.148 8.905s7.019 3.643 10.904 4.183c3.635.54 7.772.54 12.284-.135l21.058-3.103c5.264-.81 9.651-4.858 11.03-10.525l14.665-57.481z" clip-rule="evenodd"/><path fill="url(#paint1_linear_35_49)" d="M65.075 168.597C42.889 172.375 38.25 190.32 38.25 190.32l21.309-84.332 111.304-16.191-15.167 59.369c-.752 3.239-3.258 5.668-6.392 6.072l-.627.135-84.355 13.224z"/><path fill="url(#paint2_linear_35_49)" fill-opacity=".8" d="M65.075 168.597C42.889 172.375 38.25 190.32 38.25 190.32l21.309-84.332 111.304-16.191-15.167 59.369c-.752 3.239-3.258 5.668-6.392 6.072l-.627.135-84.355 13.224z"/><path fill="url(#paint3_linear_35_49)" d="m77.73 114.891 123.213-19.565c1.378-.27 2.757-.945 3.885-1.89 1.128-1.078 1.88-2.428 2.256-3.912l12.785-49.52c.376-1.214.376-2.564.126-3.778-.251-1.215-.752-2.429-1.63-3.373-.752-.945-1.754-1.755-2.883-2.16-1.128-.404-2.381-.674-3.509-.404L94.151 48.775c-6.267 1.079-12.033 4.047-16.67 8.635s-8.023 10.39-9.777 17.002l-16.922 66.116c3.385-13.358 5.515-21.454 26.949-25.637"/><path fill="url(#paint4_linear_35_49)" d="m77.73 114.891 123.213-19.565c1.378-.27 2.757-.945 3.885-1.89 1.128-1.078 1.88-2.428 2.256-3.912l12.785-49.52c.376-1.214.376-2.564.126-3.778-.251-1.215-.752-2.429-1.63-3.373-.752-.945-1.754-1.755-2.883-2.16-1.128-.404-2.381-.674-3.509-.404L94.151 48.775c-6.267 1.079-12.033 4.047-16.67 8.635s-8.023 10.39-9.777 17.002l-16.922 66.116c3.385-13.358 5.515-21.454 26.949-25.637"/><path fill="url(#paint5_linear_35_49)" fill-opacity=".4" d="m77.73 114.891 123.213-19.565c1.378-.27 2.757-.945 3.885-1.89 1.128-1.078 1.88-2.428 2.256-3.912l12.785-49.52c.376-1.214.376-2.564.126-3.778-.251-1.215-.752-2.429-1.63-3.373-.752-.945-1.754-1.755-2.883-2.16-1.128-.404-2.381-.674-3.509-.404L94.151 48.775c-6.267 1.079-12.033 4.047-16.67 8.635s-8.023 10.39-9.777 17.002l-16.922 66.116c3.385-13.358 5.515-21.454 26.949-25.637"/><path fill="url(#paint6_linear_35_49)" d="M77.734 114.872c-17.798 3.508-22.31 9.715-25.193 19.295l-14.29 56.267s4.513-17.811 26.573-21.724l83.979-13.223.627-.136a7.7 7.7 0 0 0 4.011-2.023c1.128-1.08 1.88-2.564 2.382-4.048l12.534-48.845z"/><path fill="url(#paint7_linear_35_49)" fill-opacity=".2" d="M77.734 114.872c-17.798 3.508-22.31 9.715-25.193 19.295l-14.29 56.267s4.513-17.811 26.573-21.724l83.979-13.223.627-.136a7.7 7.7 0 0 0 4.011-2.023c1.128-1.08 1.88-2.564 2.382-4.048l12.534-48.845z"/><path fill="url(#paint8_linear_35_49)" fill-rule="evenodd" d="M64.823 168.733c-18.551 3.239-24.693 16.462-26.072 20.51-1.378 3.913-1.88 8.231-1.504 12.413a30.3 30.3 0 0 0 3.635 11.875c2.006 3.643 4.889 6.611 8.148 8.905s7.019 3.643 10.904 4.183c3.635.539 7.772.539 12.284-.135l21.058-3.103c5.264-.81 9.651-4.858 11.03-10.525l13.286-52.353z" clip-rule="evenodd"/></g></g><defs><linearGradient id="paint0_linear_35_49" x1="77.981" x2="77.981" y1="227.007" y2="155.395" gradientUnits="userSpaceOnUse"><stop offset=".056" stop-color="#2AAC94"/><stop offset=".155" stop-color="#239C87"/><stop offset=".372" stop-color="#177E71"/><stop offset=".588" stop-color="#0E6961"/><stop offset=".799" stop-color="#095D57"/><stop offset="1" stop-color="#085954"/></linearGradient><linearGradient id="paint1_linear_35_49" x1="147.06" x2="77.659" y1="189.881" y2="119.749" gradientUnits="userSpaceOnUse"><stop offset=".042" stop-color="#ABE88E"/><stop offset=".549" stop-color="#2AAA92"/><stop offset=".906" stop-color="#117865"/></linearGradient><linearGradient id="paint2_linear_35_49" x1="3.127" x2="65.153" y1="168.087" y2="148.43" gradientUnits="userSpaceOnUse"><stop stop-color="#6AD6F9"/><stop offset="1" stop-color="#6AD6F9" stop-opacity="0"/></linearGradient><linearGradient id="paint3_linear_35_49" x1="50.793" x2="213.557" y1="85.243" y2="85.243" gradientUnits="userSpaceOnUse"><stop offset=".043" stop-color="#25FFD4"/><stop offset=".874" stop-color="#55DDB9"/></linearGradient><linearGradient id="paint4_linear_35_49" x1="56.627" x2="206.903" y1="47.279" y2="112.107" gradientUnits="userSpaceOnUse"><stop stop-color="#6AD6F9"/><stop offset=".23" stop-color="#60E9D0"/><stop offset=".651" stop-color="#6DE9BB"/><stop offset=".994" stop-color="#ABE88E"/></linearGradient><linearGradient id="paint5_linear_35_49" x1="65.417" x2="145.651" y1="69.344" y2="85.837" gradientUnits="userSpaceOnUse"><stop stop-color="#fff" stop-opacity="0"/><stop offset=".459" stop-color="#fff"/><stop offset="1" stop-color="#fff" stop-opacity="0"/></linearGradient><linearGradient id="paint6_linear_35_49" x1="103.181" x2="105.362" y1="148.419" y2="88.249" gradientUnits="userSpaceOnUse"><stop offset=".205" stop-color="#063D3B" stop-opacity="0"/><stop offset=".586" stop-color="#063D3B" stop-opacity=".237"/><stop offset=".872" stop-color="#063D3B" stop-opacity=".75"/></linearGradient><linearGradient id="paint7_linear_35_49" x1="33.442" x2="101.899" y1="131.298" y2="143.259" gradientUnits="userSpaceOnUse"><stop stop-color="#fff" stop-opacity="0"/><stop offset=".459" stop-color="#fff"/><stop offset="1" stop-color="#fff" stop-opacity="0"/></linearGradient><linearGradient id="paint8_linear_35_49" x1="82.213" x2="66.918" y1="206.834" y2="137.314" gradientUnits="userSpaceOnUse"><stop offset=".064" stop-color="#063D3B" stop-opacity="0"/><stop offset=".17" stop-color="#063D3B" stop-opacity=".135"/><stop offset=".562" stop-color="#063D3B" stop-opacity=".599"/><stop offset=".85" stop-color="#063D3B" stop-opacity=".9"/><stop offset="1" stop-color="#063D3B"/></linearGradient><clipPath id="clip0_35_49"><path fill="#fff" d="M0 0h256v256H0z"/></clipPath></defs></svg>