<svg xmlns="http://www.w3.org/2000/svg" fill="none" viewBox="0 0 256 256"><g clip-path="url(#clip0_518_11)"><path fill="url(#paint0_linear_518_11)" d="M196 0H60C26.863 0 0 26.863 0 60v136c0 33.137 26.863 60 60 60h136c33.137 0 60-26.863 60-60V60c0-33.137-26.863-60-60-60"/><path fill="#fff" d="m174.465 164.239 5.651-34.957h-33.279v-24.344c0-9.988 3.768-17.478 18.837-17.478H182V55.624c-8.791-1.248-18.837-2.497-27.628-2.497-28.884 0-48.977 17.479-48.977 48.69v27.465H74v34.957h31.395V256h41.442v-91.761z"/></g><defs><linearGradient id="paint0_linear_518_11" x1="128" x2="128" y1="256" y2="0" gradientUnits="userSpaceOnUse"><stop stop-color="#0062E0"/><stop offset="1" stop-color="#19AFFF"/></linearGradient><clipPath id="clip0_518_11"><path fill="#fff" d="M0 0h256v256H0z"/></clipPath></defs></svg>