<svg xmlns="http://www.w3.org/2000/svg" fill="none" viewBox="0 0 256 256"><path fill="#F4F2ED" d="M196 0H60C26.863 0 0 26.863 0 60v136c0 33.137 26.863 60 60 60h136c33.137 0 60-26.863 60-60V60c0-33.137-26.863-60-60-60"/><path fill="#54A4A2" d="M106.673 74.637V53.56h25.56V28h68.61v46.637zm0 76.681v-21.076h25.56v-25.56h45.292v46.636z"/><path fill="#86D1D7" d="M81.112 28h21.076v21.076H81.112zm26.009 0h21.076v21.076h-21.076zM56 53.56h21.076v21.076H56zm25.112 25.561h21.076v21.076H81.112zm26.009 0h21.076v21.076h-21.076zM56 104.682h21.076v21.076H56zm51.121 0h21.076v21.076h-21.076zM56 155.803h21.076v21.076H56zm25.112 0h21.076v21.076H81.112zm26.009 0h21.076v21.076h-21.076zm0 25.56h21.076v21.076h-21.076zm0 25.561h21.076V228h-21.076zm-26.009 0h21.076V228H81.112z"/></svg>