<svg xmlns="http://www.w3.org/2000/svg" width="256" height="256" fill="none"><path fill="#282828" d="M196 0H60C26.863 0 0 26.863 0 60v136c0 33.137 26.863 60 60 60h136c33.137 0 60-26.863 60-60V60c0-33.137-26.863-60-60-60"/><path fill="#0B4819" d="M29.672 73.435V49.607l15.995 5.511v22.167zm12.898 97.957V82.794l15.289 3.234v82.342z"/><path fill="#105C80" d="M117.35 49.568 78.056 94.634v19.177l58.279-65.712 92.306-7.145L92.865 182.476l18.075.952 98.618-100.869v95.335l-10.955 10.299 27.785 1.501v26.385l-87.156-6.75 44.428-43.1v-21.241l-63.517 62.863-76.056-5.88L166.082 70.773l-20.077 1.086-88.146 96.512V86.029l8.349-9.857-20.541 1.112V55.118z"/><path fill="#0B4819" d="m42.57 82.795 8.843-10.645 14.795 4.022-8.35 9.857z"/><path fill="#084010" d="m63.987 91.994 14.069 2.639v19.177l-14.07-1.151z"/><path fill="#0C541E" d="m79.737 186.726 13.127-4.251 18.076.951-11.928 4.412z"/><path fill="#1A5C34" d="m105.861 43.157 11.489 6.41-39.294 45.066-14.07-2.64z"/><path fill="#0B4819" d="m63.987 112.66 62.196-71.222 10.151 6.662-58.278 65.711z"/><path fill="#1A5C34" d="m136.561 67.116 9.444 4.742-88.146 96.512-15.29 3.022z"/><path fill="#0B4819" d="M28 207.455 158.155 65.841l7.927 4.932L44.087 201.971z"/><path fill="#1A5C34" d="m177.119 146.406 6.54-1.419-63.517 62.863-11.296 6.449z"/><path fill="#0B4819" d="M177.117 169.495v-23.089l6.54-1.419v21.241z"/><path fill="#0B4819" d="m129.292 216.025 47.827-46.531 6.54-3.267-44.428 43.1z"/><path fill="#13802D" d="m205.147 182.284-11.872 11.155 5.325-5.248 10.955-10.299z"/><path fill="#0B4819" d="M99.012 187.839 205.15 78.458l4.409 4.101-98.619 100.868z"/><path fill="#084010" d="m205.148 78.458 4.409 4.101v95.335l-4.409 4.392zm18.284 116.764 2.953-5.531v26.386l-2.953 7.921z"/><path fill="#1A5C34" d="m225.88 33 2.76 7.954L92.864 182.476l-13.127 4.251z"/><path fill="url(#paint0_radial_669_29)" d="M105.861 43.158 63.987 91.994v20.666l62.196-71.222L225.881 33 79.737 186.727l19.276 1.112L205.15 78.459v103.827l-11.872 11.156 30.157 1.782V224l-94.142-7.973 47.827-46.531v-23.089L108.847 214.3 28 207.455 158.155 65.841l-21.595 1.276-93.99 104.276V82.795l8.843-10.645-21.742 1.285V49.607z"/><defs><radialGradient id="paint0_radial_669_29" cx="0" cy="0" r="1" gradientTransform="translate(67.44 69.007)scale(96.7378)" gradientUnits="userSpaceOnUse"><stop stop-color="#fff"/><stop offset="1" stop-color="#007808"/></radialGradient></defs></svg>