<svg xmlns="http://www.w3.org/2000/svg" fill="none" viewBox="0 0 256 256"><path fill="#F4F2ED" d="M196 0H60C26.863 0 0 26.863 0 60v136c0 33.137 26.863 60 60 60h136c33.137 0 60-26.863 60-60V60c0-33.137-26.863-60-60-60"/><path fill="#333" d="M78.134 101.597h37.279l-1.816 10.721H89.519l-1.812 11.199h21.705l-1.813 10.756H85.894l-3.629 21.946H69.067zm37.883 13.654h13.04l-6.814 40.958h-13.04zm1.582-11.038c.537-3.432 3.926-6.213 7.592-6.213 3.667 0 6.28 2.781 5.824 6.213-.455 3.433-3.866 6.239-7.545 6.239s-6.371-2.829-5.871-6.239m18.224-2.616h13.037l-3.385 20.667h.279c2.132-3.761 6.374-7.545 12.853-7.545 8.561 0 15.185 6.587 12.771 21.038-2.293 13.945-10.825 21.037-19.892 21.037-6.185 0-9.279-3.438-10.237-7.225h-.51l-1.066 6.643h-12.901zm12.879 45.055c4.799 0 8.225-4.293 9.279-10.905 1.053-6.611-.854-10.828-5.695-10.828-4.773 0-8.266 4.134-9.332 10.828-1.079 6.622.974 10.905 5.748 10.905m24.192-10.756c2.103-12.692 11.49-21.17 23.837-21.17 11.626 0 18.56 7.437 16.321 20.904l-.51 3.252h-27.276l-.082.481c-.826 5.201 1.626 8.225 6.719 8.225 3.388 0 6.327-1.439 7.814-4.185l11.892.345C208.705 151.802 200.891 157 190.097 157c-12.86-.019-19.418-8.016-17.203-21.104m28.744-4.587c.667-4.186-1.842-7.172-6.106-7.172-4.214 0-7.947 3.119-8.88 7.172zm17.763-16.058h12.654l-1.265 7.466h.427c2.426-5.413 6.45-8.017 10.93-8.017 1.205.008 2.404.157 3.575.443l-1.921 11.36c-1.199-.452-3.413-.692-5.039-.692-4.613 0-8.615 3.28-9.466 8.158l-3.682 22.24h-13.037z"/><path fill="#00ACD7" d="M70.073 116.095H27.52l-3.404 4.831 45.17-.025zm-1.503 10.013H13.502L10 130.92l57.782-.041zm-1.503 10.009H43.54l-3.164 4.831 25.903-.019z"/></svg>