<svg xmlns="http://www.w3.org/2000/svg" fill="none" viewBox="0 0 256 256"><path fill="#FDAE4B" d="M196 0H60C26.863 0 0 26.863 0 60v136c0 33.137 26.863 60 60 60h136c33.137 0 60-26.863 60-60V60c0-33.137-26.863-60-60-60"/><path fill="#030303" d="m132.2 102.9 3.8-9.7s-19.3.8-19.4.5l-2.4 8.7-.1.4c-.2 1.3.3 2.5 1.3 3.2l13.4 9.3-15.6 1.1c-1.3 0-2.3 1-2.6 2.4l-1.2 5.5-.1.4c-.2 1.3.3 2.5 1.3 3.2l13.4 9.3-15.6 1.1c-1.3 0-2.3 1-2.6 2.4l-1.2 5.5-.1.4c-.2 1.3.3 2.5 1.3 3.2l13.4 9.3-15.6 1.1c-1.3 0-2.3 1-2.6 2.4l-1.2 5.5-.1.4c-.2 1.3.3 2.5 1.3 3.2l13.4 9.3-15.6 1.1c-1.3 0-2.3 1-2.6 2.4L95 190l-.1.4c-.2 1.3.3 2.5 1.3 3.2l13.4 9.3L94 204c-1.3 0-2.3 1-2.6 2.4L86 227.9h17.5l2.7-11.7 21.9-1.9c1.3 0 2.3-1 2.6-2.4l1.2-5.5.1-.4c.2-1.3-.3-2.5-1.3-3.2l-13.4-9.3 15.6-1.1c1.3 0 2.3-1 2.6-2.4l1.2-5.5.1-.4c.2-1.3-.3-2.5-1.3-3.2l-13.4-9.3 15.6-1.1c1.3 0 2.3-1 2.6-2.4l1.2-5.5.1-.4c.2-1.3-.3-2.5-1.3-3.2l-13.4-9.3 15.6-1.1c1.3 0 2.3-1 2.6-2.4l1.2-5.5.1-.4c.2-1.3-.3-2.5-1.3-3.2l-13.4-9.3 15.6-1c1.3 0 2.3-1 2.6-2.4l1.2-5.5.1-.4c.2-1.3-.3-2.5-1.3-3.2zm33.1-67.6c-3.4-4.9-8.7-7.3-15.9-7.3s-13.2 1.6-18.2 4.6c-5 3.2-8.2 8.3-9.7 15.5-1.6 7.9-.6 13.9 3 18.2s8.9 6.4 16 6.4c7.2 0 13.3-1.4 18.2-4.1s8.1-8 9.7-15.8c1.4-6.8.4-12.6-3.1-17.5"/></svg>