<svg xmlns="http://www.w3.org/2000/svg" width="256" height="256" fill="none"><path fill="#80A" d="M196 0H60C26.863 0 0 26.863 0 60v136c0 33.137 26.863 60 60 60h136c33.137 0 60-26.863 60-60V60c0-33.137-26.863-60-60-60"/><path fill="#F06" d="M134.369 112.669C229.351 94.362 233 53 233 53s-7.48 128.188-76.894 134.97C68.142 196.564 55 238 55 238s23.524-114.568 79.369-125.331"/><path fill="#F60" d="M77.015 107.328C157.826 73.38 150.424 18 150.424 18s44.616 112.978-22.269 139.317C53.438 186.741 56.763 237 56.763 237S29.554 127.266 77.015 107.328"/><path fill="#FC0" d="M29.959 137.011C75.003 77.641 64.87 36 64.87 36s57.711 72.333 18.44 117.134C39.442 203.182 58.547 238 58.547 238S4.123 171.064 29.96 137.011"/></svg>