<svg xmlns="http://www.w3.org/2000/svg" fill="none" viewBox="0 0 256 256"><g id="Fleet" clip-path="url(#clip0_8_438)"><path id="Vector" fill="#F4F2ED" d="M196 0H60C26.863 0 0 26.863 0 60v136c0 33.137 26.863 60 60 60h136c33.137 0 60-26.863 60-60V60c0-33.137-26.863-60-60-60"/><g id="Group"><path id="Vector_2" fill="url(#paint0_radial_8_438)" d="M150.943 168.526c39.429 0 71.393-24.212 71.393-54.078S190.372 60.37 150.943 60.37s-71.394 24.212-71.394 54.078 31.964 54.078 71.394 54.078"/><path id="Vector_3" fill="url(#paint1_radial_8_438)" d="M150.943 168.526c39.429 0 71.393-24.212 71.393-54.078S190.372 60.37 150.943 60.37s-71.394 24.212-71.394 54.078 31.964 54.078 71.394 54.078"/><path id="Vector_4" fill="url(#paint2_radial_8_438)" d="M225 127.5c0 53.848-43.652 97.5-97.5 97.5S30 181.348 30 127.5 73.652 30 127.5 30c25.307 11.455 51.782 54.078 62.869 67.398 11.086 13.319 39.783 30.102 25.72-5.105C222.085 101.81 225 117.598 225 127.5"/><path id="Vector_5" fill="url(#paint3_radial_8_438)" d="M225 127.5c0 53.848-43.652 97.5-97.5 97.5S30 181.348 30 127.5 73.652 30 127.5 30c25.307 11.455 51.782 54.078 62.869 67.398 11.086 13.319 39.783 30.102 25.72-5.105C222.085 101.81 225 117.598 225 127.5"/><path id="Vector_6" fill="url(#paint4_radial_8_438)" d="M225 127.5c0 53.848-43.652 97.5-97.5 97.5S30 181.348 30 127.5 73.652 30 127.5 30c25.307 11.455 51.782 54.078 62.869 67.398 11.086 13.319 39.783 30.102 25.72-5.105C222.085 101.81 225 117.598 225 127.5"/><path id="Vector_7" fill="url(#paint5_linear_8_438)" d="M225 127.5c0 53.848-43.652 97.5-97.5 97.5S30 181.348 30 127.5 73.652 30 127.5 30c25.307 11.455 51.782 54.078 62.869 67.398 11.086 13.319 39.783 30.102 25.72-5.105C222.085 101.81 225 117.598 225 127.5"/><path id="Vector_8" fill="url(#paint6_radial_8_438)" d="M138.209 200.707c36.907-7.88 62.599-34.062 57.386-58.48-5.214-24.417-39.359-37.824-76.265-29.944s-62.6 34.062-57.386 58.48 39.358 37.824 76.265 29.944"/><path id="Vector_9" fill="url(#paint7_linear_8_438)" d="M138.209 200.707c36.907-7.88 62.599-34.062 57.386-58.48-5.214-24.417-39.359-37.824-76.265-29.944s-62.6 34.062-57.386 58.48 39.358 37.824 76.265 29.944"/><path id="Vector_10" fill="#D6F8F8" fill-opacity=".19" fill-rule="evenodd" d="M179.274 174.311c9.669-9.853 13.796-20.946 11.632-31.082-2.165-10.136-10.461-18.576-23.311-23.621-12.809-5.03-29.6-6.406-47.264-2.635-17.663 3.771-32.428 11.885-42.066 21.707-9.67 9.854-13.795 20.946-11.631 31.082s10.46 18.577 23.31 23.622c12.809 5.029 29.6 6.405 47.264 2.635 17.664-3.772 32.429-11.887 42.066-21.708m-41.065 26.396c36.907-7.879 62.6-34.061 57.387-58.479s-39.36-37.824-76.266-29.944-62.599 34.062-57.386 58.48c5.214 24.416 39.359 37.824 76.265 29.943" clip-rule="evenodd"/></g></g><defs><radialGradient id="paint0_radial_8_438" cx="0" cy="0" r="1" gradientTransform="rotate(-42.635 263.226 -102.46)scale(95.5685 126.169)" gradientUnits="userSpaceOnUse"><stop offset=".771" stop-color="#001AFF"/><stop offset="1" stop-color="#8ACEFF"/></radialGradient><radialGradient id="paint1_radial_8_438" cx="0" cy="0" r="1" gradientTransform="matrix(45.44501 -26.8148 35.4008 59.99636 164.251 114.448)" gradientUnits="userSpaceOnUse"><stop offset=".719" stop-color="#FA00FF" stop-opacity="0"/><stop offset="1" stop-color="#FF00D6" stop-opacity=".44"/></radialGradient><radialGradient id="paint2_radial_8_438" cx="0" cy="0" r="1" gradientTransform="rotate(49.385 -72.55 159.302)scale(150.607)" gradientUnits="userSpaceOnUse"><stop offset=".026" stop-color="#8DFDFD"/><stop offset=".271" stop-color="#87FBFB"/><stop offset=".484" stop-color="#74D6F4"/><stop offset=".932" stop-color="#0038FF"/></radialGradient><radialGradient id="paint3_radial_8_438" cx="0" cy="0" r="1" gradientTransform="rotate(137.237 34.97 85.071)scale(103.261)" gradientUnits="userSpaceOnUse"><stop offset=".267" stop-color="#0500FF" stop-opacity="0"/><stop offset="1" stop-color="#0500FF" stop-opacity=".15"/></radialGradient><radialGradient id="paint4_radial_8_438" cx="0" cy="0" r="1" gradientTransform="rotate(75.198 -17.16 122.65)scale(160.869)" gradientUnits="userSpaceOnUse"><stop offset=".42" stop-color="#FF00E5" stop-opacity="0"/><stop offset=".774" stop-color="#FF00F5" stop-opacity=".64"/><stop offset=".899" stop-color="#BE46FF" stop-opacity=".87"/></radialGradient><radialGradient id="paint6_radial_8_438" cx="0" cy="0" r="1" gradientTransform="matrix(8.60167 71.57892 -108.18962 13.0012 110.069 128.369)" gradientUnits="userSpaceOnUse"><stop stop-color="#00B2FF"/><stop offset=".571" stop-color="#74C5FF"/><stop offset=".979" stop-color="#9FD7FF"/></radialGradient><linearGradient id="paint5_linear_8_438" x1="54.042" x2="276.465" y1="150.876" y2="153.923" gradientUnits="userSpaceOnUse"><stop offset=".432" stop-color="#FE62EE" stop-opacity="0"/><stop offset=".818" stop-color="#FD3AF5" stop-opacity=".47"/></linearGradient><linearGradient id="paint7_linear_8_438" x1="121.379" x2="134.891" y1="90.361" y2="172.615" gradientUnits="userSpaceOnUse"><stop offset=".042" stop-color="#0038FF"/><stop offset=".724" stop-color="#48BFF1" stop-opacity=".59"/><stop offset="1" stop-color="#74C5FF" stop-opacity="0"/></linearGradient><clipPath id="clip0_8_438"><path fill="#fff" d="M0 0h256v256H0z"/></clipPath></defs></svg>