<svg xmlns="http://www.w3.org/2000/svg" width="256" height="256" fill="none"><path fill="url(#gradient)" d="M196 0H60C26.863 0 0 26.863 0 60v136c0 33.137 26.863 60 60 60h136c33.137 0 60-26.863 60-60V60c0-33.137-26.863-60-60-60"/><path fill="#000" fill-rule="evenodd" d="m115.875 251.911-1.905 1.599a9.96 9.96 0 0 1-6.249 2.279H54.866A45.38 45.38 0 0 1 26 245.47c3.944.434 10.026 1.815 19.22-5.663L90.9 199.62a5.07 5.07 0 0 1 6.359 0l32.882 27.037 11.673-9.599a5.074 5.074 0 0 1 6.363 0l35.937 29.548c4.336 3.28 9.948 7.158 22.886 9.183h-23.905a10.15 10.15 0 0 1-5.87-1.956l-.419-.323-1.773-1.474a4 4 0 0 0-.472-.475c-2.009-1.684-27.47-22.776-27.47-22.776a2.99 2.99 0 0 0-3.83.006s.063.078-27.024 22.77q-.194.16-.362.35m78.525-62.672a11 11 0 0 0-10.794 10.791 11 11 0 0 0 3.222 7.571 11 11 0 0 0 7.572 3.22 11 11 0 0 0 7.572-3.22 11 11 0 0 0 3.222-7.571 11 11 0 0 0-10.794-10.791m-69.773-32.699-3.636-3.612-2.201-2.279-5.555-5.977-1.385-1.516-6.736-7.876-1.908-2.365-5.902-7.681-.655-.885-4.536-6.68-1.244-2.012-3.25-5.58-.993-1.824-2.81-5.935-.532-1.363-1.612-4.545-.622-2.147-.478-1.983-.404-2.152-.317-2.392-.129-1.528-.053-2.608.011-.547.075-1.56.562-5.685.177-.995 1.28-5.678.293-.951.95-2.772.305-.718 1.513-3.325 1.05-1.98 1.462-2.41 1.456-2.146 1.038-1.363 1.196-1.442 1.315-1.447 1.128-1.13 2.744-2.416 2.007-1.642q.072-.06.15-.113l2.373-1.606 1.887-1.202 3.582-1.887c.054-.032.117-.06.174-.086l5.077-2.108.469-.177 4.515-1.321 1.908-.428 2.577-.517 1.711-.26 2.622-.326 1.788-.159 3.549-.188 1.39-.015 2.635.054.684.039 3.816.317 5.044.711.583.123 4.987 1.24 1.466.437 1.626.562 1.983.75 1.566.665 2.303 1.085 1.45.745 2.607 1.53.972.598 3.555 2.596 1.02.885 2.475 2.255.123.122L173 51.97l.724.816 2.466 3.277.503.783 1.958 3.307.589 1.134 1.104 2.466 1.154 2.88.409 1.205 1.19 4.335q.033.116.054.234l.927 5.863.186 2.03.149 2.62.015.544-.057 2.924-.048.775-.158 1.264-.816 4.67-.198.856-1.88 5.866a2 2 0 0 1-.06.168l-1.746 4.228-.066.14-2.282 4.554-3.988 6.946-2.117 3.238-2.539 3.801-1.791 2.455-3.549 4.745-2.416 3.038-3.57 4.344-2.503 2.927-3.848 4.33-2.476 2.718-7.158 7.475-1.662 1.645.98.837a44 44 0 0 1 3.911 4.096q.548.664 1.059 1.355a25.5 25.5 0 0 1 2.003 3.169c.317.598.601 1.217.852 1.848a16.6 16.6 0 0 1 1.101 4.524l.065 1.175a16.9 16.9 0 0 1-1.211 6.572 16.26 16.26 0 0 1-5.113 6.8 17 17 0 0 1-2.535 1.641 18.2 18.2 0 0 1-6.635 1.971h-.015a19.2 19.2 0 0 1-8.049-.915 17.6 17.6 0 0 1-3.409-1.612 16.5 16.5 0 0 1-3.424-2.787 16.3 16.3 0 0 1-3.247-5.092 16.9 16.9 0 0 1-1.205-5.839l.021-1.421a16.4 16.4 0 0 1 1.056-4.802q.345-.906.78-1.767a25 25 0 0 1 1.947-3.178q.714-.992 1.507-1.926a45 45 0 0 1 3.504-3.66l.454-.409z" clip-rule="evenodd"/><path fill="#fff" fill-rule="evenodd" d="m113.476 254.182 29.837-25.18a3.05 3.05 0 0 1 3.902-.006l30.27 25.186a10.34 10.34 0 0 0 6.515 2.321h-77c2.364 0 4.651-.819 6.476-2.321m18.573-89.887.293.086c.094.045.173.109.259.167l.243.216a35 35 0 0 1 1.752 1.734q.596.633 1.154 1.309c.472.57.914 1.167 1.316 1.788.174.274.335.551.487.841q.197.377.354.77c.182.457.319.939.362 1.429l-.009.92a5.25 5.25 0 0 1-2.489 4.09 7.1 7.1 0 0 1-3.027.996l-1.136.034-.96-.085a7.4 7.4 0 0 1-1.319-.32 6.3 6.3 0 0 1-1.248-.585l-.75-.548a5.13 5.13 0 0 1-1.705-2.924 7 7 0 0 1-.089-.579l-.027-.877q.025-.356.103-.707c.131-.512.32-1.008.558-1.48q.462-.888 1.048-1.703a26 26 0 0 1 2.104-2.5c.485-.512.981-1.009 1.499-1.487l.368-.332c.256-.167.259-.167.552-.253zm-1.885-122.286.119-.009v102.54l-.256-.472a287 287 0 0 1-9.421-19.089 204 204 0 0 1-6.393-16.006 127 127 0 0 1-3.853-13.177c-.808-3.542-1.429-7.136-1.685-10.767a52 52 0 0 1-.088-4.654q.036-2.028.164-4.05a77 77 0 0 1 .661-6.34c.247-1.653.552-3.301.926-4.93.299-1.295.646-2.58 1.042-3.845a46 46 0 0 1 2.056-5.354c.292-.628.606-1.252.935-1.864 1.98-3.668 4.666-7.045 8.184-9.302a17.1 17.1 0 0 1 7.609-2.68m13.295.259 6.899 1.968c3.195 1.178 6.272 2.714 9.098 4.633a36.5 36.5 0 0 1 9.784 9.758 37 37 0 0 1 3.786 7.304 42.8 42.8 0 0 1 2.637 11.825c.092 1.06.144 2.123.165 3.186a29 29 0 0 1-.061 2.963 33 33 0 0 1-1.24 6.519 52 52 0 0 1-1.788 5.129 74 74 0 0 1-2.838 6.131c-2.297 4.438-4.944 8.687-7.777 12.796a199 199 0 0 1-11.218 14.638 277 277 0 0 1-13.453 14.913 285 285 0 0 0 8.854-18.12 224 224 0 0 0 4.307-10.377 162 162 0 0 0 4.011-11.666 114 114 0 0 0 2.306-8.949c.552-2.586.984-5.2 1.252-7.828a52 52 0 0 0 .253-6.597 95 95 0 0 0-.149-4.036c-.323-5.406-1.146-10.798-2.723-15.985a47 47 0 0 0-2.175-5.762c-2.02-4.399-4.837-8.508-8.65-11.508z" clip-rule="evenodd"/><radialGradient id="gradient" cx="0" cy="0" r="1" gradientTransform="matrix(185.449 0 0 238.97 135.924 126.885)" gradientUnits="userSpaceOnUse"><stop stop-color="#BA7BF0"/><stop offset=".5" stop-color="#996BEC"/><stop offset="1" stop-color="#5046E4"/></radialGradient></svg>