<svg xmlns="http://www.w3.org/2000/svg" width="256" height="256" fill="none"><rect width="256" height="256" fill="#1EB786" rx="60"/><path fill="#fff" d="M217.997 56H60.133a4.52 4.52 0 0 0-2.685 1.003 4.5 4.5 0 0 0-1.538 2.413l-3.863 13.801c-.36 1.602.366 2.691 1.534 3.487 6.191 1.89 39.337 2.692 34.239 21.074l-1.097 5.085-13.473 50.274-1.169 5.013c-5.026 18.455-22.728 19.183-30.087 21.069-1.458.436-2.694 1.962-3.06 3.487l-3.862 13.807c-.36 1.962.731 3.487 2.698 3.487h64.326c1.968 0 3.863-1.53 4.228-3.487l11.583-44.537a4.51 4.51 0 0 1 4.223-3.415h41.233c1.895 0 3.862-1.598 4.228-3.488l6.118-23.832c.438-1.89-.731-3.411-2.693-3.411h-41.17c-1.962 0-3.059-1.53-2.693-3.487l5.829-21.51a4.51 4.51 0 0 1 4.152-3.483h61.997a4.5 4.5 0 0 0 2.731-.982 4.5 4.5 0 0 0 1.565-2.438l16.537-26.15c.731-2.25 0-3.78-1.967-3.78"/></svg>