<svg xmlns="http://www.w3.org/2000/svg" width="256" height="256" fill="none"><rect width="256" height="256" fill="#F4F2ED" rx="60"/><path fill="#FE6500" fill-rule="evenodd" d="M98.674 115.49q-21.62 17.188-25.02 44.707-.102-33.838.205-67.675 4.886-37.894 39.991-52.706a70 70 0 0 1 13.535-3.28q10.041-.613 20.097-1.026 12.003-17.09 31.993-10.46 18.437 9.702 14.56 30.147-5.862 17.75-24.609 18.867-14.694-.522-22.354-12.92a73 73 0 0 0-22.148 1.641q-23.02 8.261-26.045 32.608-.308 10.046-.205 20.097m68.496-77.11q12.904-.118 12.1 12.716-3.46 8.96-12.92 7.177-9.678-4.492-5.948-14.56 2.424-3.97 6.768-5.332" clip-rule="evenodd" opacity=".983"/><path fill="#D40000" fill-rule="evenodd" d="M73.654 160.197q3.4-27.519 25.02-44.707 13.194-9.631 29.531-11.689a1441 1441 0 0 1 19.277-1.026q9.089-13.462 25.43-12.1 20.568 4.266 22.149 25.225-3.044 25.91-29.122 25.225-12.09-1.735-18.457-12.1-21.627-4.152-37.939 10.254-9.602 9.921-10.664 23.789a288 288 0 0 0 0 21.739q17.183 11.62 11.074 31.582-8.182 17.68-27.685 15.791-20.082-4.496-21.739-25.02.536-14.668 12.92-22.353.308-12.303.205-24.61m94.336-54.551q13.262.892 10.869 13.946-4.921 9.16-14.56 5.127-7.974-6.102-3.076-14.971 2.723-3.253 6.767-4.102m-82.851 91.055q12.251.922 10.869 13.125-4.596 10.245-14.97 5.947-5.988-4.083-4.718-11.279 2.132-6.541 8.819-7.793" clip-rule="evenodd" opacity=".989"/></svg>