<svg xmlns="http://www.w3.org/2000/svg" fill="none" viewBox="0 0 256 256"><rect width="256" height="256" fill="#282828" rx="60"/><path fill="#fff" d="M185.137 126.649h-24.028c-16.476 18.192 18.193 49.085 18.193 49.085s-11.328-36.385 5.835-49.085"/><path fill="#000" d="M161.796 126.649h.686c-5.492 12.7 7.552 29.52 15.447 38.444 1.029 6.179 2.402 10.641 2.402 10.641s-34.668-31.236-18.535-49.085" opacity=".2"/><path fill="#390075" d="m185.48 185.002-7.895-7.208c-1.029-.687-22.654-20.595-23.684-38.788q-.515-8.238 5.149-14.417c1.029-1.029 1.716-1.029 3.089-1.029h31.923l-7.209 5.148c-7.895 5.836-8.581 17.506-7.895 26.431.687 10.298 3.433 19.222 3.433 19.222zm-23.341-55.264c-2.06 2.746-2.746 5.836-2.746 9.268.343 6.179 4.119 14.417 10.984 22.998 1.03 1.373 2.403 3.089 3.433 4.119-1.717-10.297-3.09-26.087 4.119-36.385z"/><path fill="#fff" d="M72.893 126.649H96.92c16.133 18.192-18.536 49.085-18.536 49.085s11.327-36.385-5.492-49.085"/><path fill="#000" d="M95.89 126.649h-.686c5.492 12.7-7.551 29.52-15.446 38.444-1.03 6.179-2.403 10.641-2.403 10.641s34.669-31.236 18.536-49.085" opacity=".2"/><path fill="#390075" d="m72.55 185.002 3.089-10.297s2.746-8.925 3.432-19.223c.687-8.924-.343-20.938-7.894-26.43l-7.209-5.149h31.923c1.373 0 2.403 0 3.09 1.03 3.775 4.119 5.148 8.924 5.148 14.416-1.03 18.193-22.998 37.758-23.685 38.788zm7.208-55.264c7.208 10.298 5.835 26.088 4.119 36.385 1.03-1.373 2.403-2.746 3.432-4.119 6.865-8.581 10.641-16.476 10.985-22.998.343-3.433-.687-6.522-2.746-9.268z"/><path fill="#B3D133" d="M178.958 49.417s13.387-11.328 24.715-11.328 18.879 9.612 18.192 24.028c-.686 14.417-5.492 26.088-4.805 35.699.686 9.611 11.327 22.998 1.029 32.609s-19.565 14.073-34.325 7.895-40.161-18.879-40.161-18.879z"/><path fill="#000" fill-opacity=".2" d="M190.972 141.066c-5.835-3.09-17.849-6.522-24.371-10.641 1.03-4.119 1.717-7.895 3.776-11.671 12.7-21.282 21.968 15.103 38.101 5.492 7.552-4.462 1.373-53.89 4.806-69.337 1.716-7.552 4.805-7.552 7.208-5.835 1.373 3.775 1.716 8.238 1.716 13.386-.343 14.76-4.462 26.774-4.119 36.729.344 9.954 9.268 23.341 1.03 33.639-8.238 9.954-16.133 14.416-28.147 8.238"/><path fill="#fff" fill-opacity=".6" d="M201.957 45.298c-8.239 0-15.104 5.148-16.82 12.014-.343-1.373-.686-2.746-.686-4.12 0-8.924 7.894-15.79 17.506-15.79s17.505 7.21 17.505 15.79c0 1.374-.343 2.747-.686 4.12-1.716-6.865-8.581-12.014-16.819-12.014"/><path fill="#390075" d="M196.464 144.155c-4.119 0-8.924-1.03-13.73-3.089-14.416-6.179-39.817-18.879-40.161-18.879l-2.402-1.373 36.728-73.457.343-.343C177.929 46.67 191.316 35 204.016 35c5.492 0 10.641 2.06 14.417 5.835 4.805 4.806 7.208 12.358 6.865 21.282-.344 7.208-1.717 14.074-2.746 19.566-1.373 5.835-2.403 10.984-2.06 15.79 0 2.745 1.373 5.835 2.403 9.267 2.746 7.895 6.179 17.849-2.06 25.744-6.178 5.836-11.327 8.925-16.819 10.641-2.746.687-5.149 1.03-7.552 1.03m-48.399-26.087c6.866 3.432 25.401 12.7 37.072 17.506 13.73 5.492 21.968 1.373 31.236-7.552 2.403-2.403 3.433-5.149 3.433-8.581 0-3.433-1.373-7.209-2.746-10.985s-2.403-7.208-2.746-10.64c-.344-5.493 1.029-10.985 2.059-17.163 1.373-5.836 2.403-12.014 2.746-18.88.343-7.208-1.373-13.386-5.149-17.162-2.746-2.746-6.178-4.119-9.954-4.119-4.119 0-9.268 1.716-15.103 5.149-3.433 2.06-6.179 4.119-7.209 5.149z"/><path fill="#B3D133" d="M77.698 51.476S64.312 40.15 52.984 40.15s-18.879 9.954-18.536 24.37c.344 14.418 5.493 25.745 5.15 35.699-.687 9.612-11.328 22.998-1.03 32.61s19.565 14.073 34.325 7.894c14.76-6.178 40.161-18.879 40.161-18.879z"/><path fill="#000" fill-opacity=".2" d="M65.685 143.469c5.835-3.09 17.849-6.522 24.37-10.641-1.03-4.119-1.716-7.895-3.775-11.671-12.7-21.282-21.969 15.103-38.101 5.492-7.552-4.462-1.373-53.89-4.806-69.337-1.716-7.552-4.806-7.895-7.208-5.836-1.373 3.776-1.717 8.239-1.717 13.387.344 14.76 4.463 26.774 4.12 36.729-.344 9.954-9.268 23.341-1.03 33.639 8.238 10.297 16.133 14.416 28.147 8.238"/><path fill="#fff" fill-opacity=".6" d="M54.7 47.7c8.238 0 15.104 5.15 16.82 12.014.343-1.372.686-2.745.686-4.118 0-8.925-7.895-15.79-17.506-15.79-9.61 0-17.506 6.865-17.506 15.79 0 1.373.344 2.746.687 4.119C39.597 52.849 46.462 47.7 54.7 47.7"/><path fill="#390075" d="M60.192 146.558q-3.603 0-7.208-1.03c-5.492-1.716-10.64-4.806-16.82-10.641-8.238-7.895-4.805-17.849-2.059-25.744 1.03-3.433 2.403-6.522 2.403-9.268.343-4.462-.687-9.611-2.06-15.79a107.5 107.5 0 0 1-2.746-19.565c-.343-8.925 2.06-16.476 6.865-21.282 3.776-3.776 8.582-5.835 14.417-5.835 12.357 0 26.087 11.67 26.774 12.014l.343.343 36.728 73.456-2.746 1.373c-.343 0-25.744 13.044-40.16 18.879-5.15 2.06-9.612 3.09-13.73 3.09m-7.551-103.32c-4.12 0-7.552 1.373-9.955 4.12-3.432 3.775-5.492 9.954-5.148 17.162.343 6.865 1.373 13.044 2.746 18.879 1.373 6.179 2.402 12.014 2.06 17.163-.344 3.432-1.374 6.865-2.747 10.641s-2.746 7.551-2.746 10.984 1.03 6.178 3.433 8.581c12.357 11.671 20.938 11.671 31.236 7.552 11.67-4.806 30.206-14.074 37.071-17.506L75.296 53.536c-1.03-.687-3.776-3.09-7.209-5.149-5.835-3.433-11.327-5.149-15.446-5.149"/><path fill="#B3D133" d="M155.617 233.744c-48.055-31.922-57.666-94.395-57.666-94.395-41.534-43.593-28.834-74.486-2.06-89.246h74.486c18.879 13.044 24.371 39.818-6.865 82.381-28.833 44.28 3.776 83.068 3.776 83.068l-16.133-2.403z"/><path fill="#000" fill-opacity=".2" d="M113.054 50.103c-34.326 11.328-47.026 32.953.343 82.381 0 0-4.119 54.921 34.669 80.665 1.716 1.716 4.119 14.76 4.119 14.76-55.95-30.206-51.489-89.589-51.489-89.589-52.518-54.921-27.803-81.352 12.358-88.217"/><path fill="#C3B2D3" d="M185.137 77.907v13.387h8.238v2.06c0 3.089 2.403 5.491 5.492 5.491h3.433c3.089 0 5.492-2.402 5.492-5.492V76.191c0-3.09-2.403-5.493-5.492-5.493h-3.433c-3.089 0-5.492 2.403-5.492 5.493v1.716z"/><path fill="#fff" d="M190.629 78.937v1.716h-5.492v-2.746h5.492c.343.343 0 .686 0 1.03m14.76 17.163V78.936c0-3.09-2.403-5.492-5.492-5.492h-3.433c-.686 0-1.716.343-2.402.686q1.544-3.09 5.148-3.09h3.433c3.089 0 5.492 2.404 5.492 5.493v17.162c0 2.403-1.373 4.12-3.089 5.15.343-1.03.343-2.06.343-2.747" opacity=".7"/><path fill="#390075" d="M188.913 77.907v3.089a6.153 6.153 0 0 0 6.178 6.179c1.03 0 2.06 1.03 2.06 2.06 0 3.088 2.403 5.491 5.492 5.491h3.433c.686 0 1.029 0 1.716-.343-.343 2.746-2.746 4.462-5.492 4.462h-3.433c-3.089 0-5.492-2.403-5.492-5.492v-2.06h-8.238V77.908z" opacity=".3"/><path fill="#390075" d="M191.659 93.353h-6.522c-1.03 0-1.716-.686-1.716-1.716V78.25c0-1.03.686-1.716 1.716-1.716h6.522c0-4.12 3.432-7.209 7.551-7.209h3.433c4.119 0 7.552 3.433 7.552 7.552V94.04c0 4.119-3.433 7.551-7.552 7.551h-3.433c-4.119-.686-7.551-4.119-7.551-8.238m7.551-20.938c-2.059 0-3.775 1.716-3.775 3.775v1.717c0 1.03-.687 1.716-1.717 1.716h-6.521v9.611h6.521c1.03 0 1.717.687 1.717 1.717v2.402c0 2.06 1.716 3.776 3.775 3.776h3.433c2.06 0 3.776-1.716 3.776-3.776V76.191c0-2.06-1.716-3.776-3.776-3.776z"/><path fill="#390075" d="M71.177 86.488H185.48c.687 0 1.373-.686 1.373-1.373s-.686-1.373-1.373-1.373H71.177c-.687 0-1.374.687-1.374 1.373 0 .687.687 1.373 1.374 1.373"/><path fill="#390075" d="M174.839 91.98c1.03 0 2.06-1.03 2.06-2.06v-9.61c0-1.03-1.03-2.06-2.06-2.06-1.029 0-2.059 1.03-2.059 2.06v9.61c0 1.03.686 2.06 2.059 2.06m-17.506 0c1.03 0 2.06-1.03 2.06-2.06v-9.61c0-1.03-1.03-2.06-2.06-2.06-1.029 0-2.059 1.03-2.059 2.06v9.61c0 1.03 1.03 2.06 2.059 2.06m-17.162 0c1.029 0 2.059-1.03 2.059-2.06v-9.61c0-1.03-1.03-2.06-2.059-2.06s-2.06 1.03-2.06 2.06v9.61c0 1.03.687 2.06 2.06 2.06m-58.011 0c1.03 0 2.06-1.03 2.06-2.06v-9.61c0-1.03-1.03-2.06-2.06-2.06s-2.059 1.03-2.059 2.06v9.61c0 1.03 1.03 2.06 2.06 2.06m17.162 0c1.03 0 2.06-1.03 2.06-2.06v-9.61c0-1.03-1.03-2.06-2.06-2.06s-2.06 1.03-2.06 2.06v9.61c0 1.03 1.03 2.06 2.06 2.06m17.506 0c1.03 0 2.06-1.03 2.06-2.06v-9.61c0-1.03-1.03-2.06-2.06-2.06-1.029 0-2.059 1.03-2.059 2.06v9.61c0 1.03.686 2.06 2.059 2.06"/><path fill="#C3B2D3" d="M71.52 79.623V93.01h-8.238v2.06c0 3.089-2.403 5.492-5.492 5.492h-3.433c-3.09 0-5.492-2.403-5.492-5.492V77.907c0-3.09 2.403-5.492 5.492-5.492h3.432c3.09 0 5.493 2.403 5.493 5.492v1.716z"/><path fill="#fff" d="M66.028 80.653v1.716h5.492v-2.746h-5.492zm-14.76 17.163V80.653c0-3.09 2.402-5.492 5.492-5.492h3.432c.687 0 1.716.343 2.403.686q-1.545-3.09-5.149-3.089h-3.432c-3.09 0-5.492 2.403-5.492 5.492v17.163c0 2.403 1.373 4.119 3.089 5.149 0-1.03-.343-1.717-.343-2.746" opacity=".7"/><path fill="#390075" d="M67.744 79.623v3.09a6.153 6.153 0 0 1-6.179 6.178c-1.03 0-2.06 1.03-2.06 2.06 0 3.089-2.402 5.492-5.491 5.492H50.58c-.686 0-1.03 0-1.716-.344.343 2.746 2.746 4.463 5.492 4.463h3.432c3.09 0 5.493-2.403 5.493-5.492v-2.06h8.238V79.623z" opacity=".3"/><path fill="#390075" d="M57.79 102.621h-3.433c-4.119 0-7.551-3.432-7.551-7.551V77.907c0-4.12 3.432-7.552 7.551-7.552h3.433c4.119 0 7.551 3.433 7.551 7.209h6.522c1.03 0 1.716.686 1.716 1.716v13.387c0 1.03-.686 1.716-1.716 1.716h-6.522v.343c0 4.463-3.432 7.895-7.551 7.895m-3.433-28.49c-2.06 0-3.776 1.716-3.776 3.776V95.07c0 2.06 1.717 3.775 3.776 3.775h3.433c2.06 0 3.776-1.716 3.776-3.775v-2.06c0-1.03.686-1.716 1.716-1.716h6.522v-9.611h-6.522c-1.03 0-1.716-.687-1.716-1.717V78.25c0-2.06-1.717-3.776-3.776-3.776h-3.433zm73.457 81.008c-7.552 1.373-13.387 5.835-13.731 10.984-.686-.686-.686-1.03-.686-1.716-1.03-5.835 5.149-11.671 13.73-13.044s16.133 2.06 17.163 7.895v2.06c-2.06-4.806-8.925-7.552-16.476-6.179"/><path fill="#390075" d="M129.873 166.466c-5.835 1.03-10.298 4.806-10.641 8.925-2.403-4.805 2.746-10.984 10.298-12.014 7.551-1.373 14.073 3.089 13.387 8.238-1.717-3.776-6.865-5.835-13.044-5.149m4.119 12.358c-4.462.686-7.895 3.775-8.238 6.865-1.716-3.776 2.06-8.238 7.895-9.268s10.984 2.059 10.297 6.178c-1.373-2.746-5.492-4.462-9.954-3.775M89.369 76.877l-6.522-17.163c4.12-3.776 8.925-7.208 14.074-9.61h70.024c7.551 4.462 13.043 10.983 15.789 19.565l-2.746 7.551-6.865-17.506-6.865 17.506-6.522-17.506-6.522 17.506-6.178-16.133-6.179 16.133-6.522-17.506-6.521 17.506-6.866-17.849-6.865 17.85-5.492-14.76-5.492 14.416-6.865-17.506zm-6.522-16.819-6.522 16.82-2.06-5.493c2.06-4.12 4.806-8.238 8.582-11.327"/><path fill="#390075" d="m160.079 240.266-6.178-4.119q-16.992-11.327-29.863-28.833a148 148 0 0 1-17.85-31.58c-4.462-10.297-7.208-19.565-8.924-25.4-1.03-3.433-1.373-6.179-1.716-7.552-.344-.687-.344-1.373-.344-2.06-10.297-10.984-17.849-21.625-22.311-31.922q-6.179-14.417-4.12-27.804c1.03-7.208 4.12-13.73 8.925-19.565 4.463-5.492 9.955-9.955 16.82-13.73l.686-.344h76.203l.686.687c8.925 6.178 14.417 14.76 16.133 24.714 1.373 8.238.344 17.163-3.089 27.117-3.776 10.641-9.954 22.312-19.222 34.669-6.179 9.611-9.955 19.909-10.984 30.206-.687 8.238 0 16.82 2.402 25.401 4.463 14.417 12.014 23.685 12.014 24.028l4.806 5.835-19.566-2.746zM101.04 139.349c.686 3.09 3.432 17.163 10.641 34.326 4.805 10.984 10.64 21.282 17.162 30.206 6.522 8.925 14.074 16.477 22.312 22.998l-3.776-17.162 13.387 2.059c-2.746-4.462-6.522-11.327-9.268-20.252-2.746-9.268-3.776-18.536-2.746-27.46 1.03-11.328 5.149-22.312 12.014-32.953 8.581-12.014 14.76-22.998 18.192-32.952 3.09-8.925 4.119-17.163 2.746-24.371-1.373-8.238-5.835-15.103-13.043-20.252H96.577c-5.835 3.432-10.984 7.208-14.416 12.014-4.12 5.148-6.522 10.64-7.552 16.82-1.03 7.55 0 15.789 3.776 24.37 4.119 9.955 11.67 20.252 21.625 30.893l1.03 1.373z"/><path fill="#fff" d="M133.306 103.651c1.029 7.208 7.208 12.7 15.103 12.7 7.551 0 13.73-5.492 15.103-12.7z"/><path fill="#390075" d="M148.066 118.068c-4.12 0-7.895-1.373-10.985-4.119s-5.148-6.179-5.492-10.298l-.343-1.716h33.639l-.343 1.716c-.687 3.776-2.403 7.552-5.492 10.298s-6.865 4.119-10.984 4.119m-12.701-12.701q1.03 3.604 4.119 6.179c2.403 2.059 5.492 3.432 8.925 3.432 3.089 0 6.522-1.029 8.924-3.432q3.09-2.575 4.119-6.179z"/><path fill="#390075" d="M148.066 110.516a3.776 3.776 0 1 0-.001-7.551 3.776 3.776 0 0 0 .001 7.551"/><path fill="#fff" d="M95.89 103.994c1.03 7.209 7.209 12.701 15.104 12.701 7.552 0 13.73-5.492 15.103-12.701z"/><path fill="#390075" d="M110.994 118.411c-4.119 0-7.895-1.373-10.984-4.119s-5.149-6.179-5.492-10.298l-.343-1.716h33.639l-.344 1.716c-.686 3.776-2.403 7.552-5.492 10.298s-7.208 4.119-10.984 4.119M97.95 105.71q1.03 3.605 4.119 6.179c2.403 2.06 5.492 3.433 8.925 3.433s6.522-1.03 8.925-3.433q3.088-2.574 4.119-6.179z"/><path fill="#390075" d="M110.651 111.203a3.777 3.777 0 1 0-.001-7.553 3.777 3.777 0 0 0 .001 7.553"/></svg>