<svg xmlns="http://www.w3.org/2000/svg" width="256" height="256" fill="none"><path fill="#001E36" d="M196 0H60C26.863 0 0 26.863 0 60v136c0 33.137 26.863 60 60 60h136c33.137 0 60-26.863 60-60V60c0-33.137-26.863-60-60-60"/><path fill="#31A8FF" d="M87.292 140.911v39.4a1.13 1.13 0 0 1-1 1.3h-20.1a1 1 0 0 1-.978-.364 1 1 0 0 1-.122-1.036v-102.9c0-1.5.4-2.3 1.1-2.3h63.8a2 2 0 0 1 1.1.2 4.45 4.45 0 0 1 .5 2.2l1.8 17.5a1 1 0 0 1-.2.9 1.43 1.43 0 0 1-1 .4h-44.9v24.5h40.2c1 0 1.4.4 1.4 1.1v17.7a1.127 1.127 0 0 1-1 1.3h-.3zm55.8-39.3h17.5a2.25 2.25 0 0 1 2.1 1.6c.413.707.685 1.488.8 2.3.2 1 .4 2.1.5 3.1s.2 2.3.2 3.6a37.2 37.2 0 0 1 10.7-8.6 29.84 29.84 0 0 1 14.9-3.6 1.23 1.23 0 0 1 .933.253 1.25 1.25 0 0 1 .467.847v19.9c0 .8-.5 1.1-1.6 1.1a40.75 40.75 0 0 0-18.9 3.4 16.8 16.8 0 0 0-5.4 3.7v51c0 1-.4 1.4-1.3 1.4h-19.4a1.38 1.38 0 0 1-1.426-.673 1.4 1.4 0 0 1-.174-.527v-55.8c0-2.4 0-4.9-.1-7.5s-.1-5.2-.2-7.8q-.15-3.3-.6-6.6a.9.9 0 0 1 .121-.696.9.9 0 0 1 .249-.26.9.9 0 0 1 .33-.144c0-.1.2-.1.3 0"/></svg>