<svg xmlns="http://www.w3.org/2000/svg" fill="none" viewBox="0 0 256 256"><rect width="256" height="256" fill="#282828" rx="60"/><path fill="#FFDB1E" d="M204.244 68.542c25.999 63.463 0 97.583-21.994 116.396 5.375 18.812-16.05 22.693-24.188 13.437-23.956 8.261-72.626 7.993-107.5-26.875-18.812-18.812-4.138-60.662 45.688-88.687 43-24.188 86-37.625 107.994-14.271"/><path fill="#fff" stroke="#FFDB1E" d="M96.25 82.813c36.808-24.172 80.759-34.293 98.728-18.652 27.584 24.027-58.416 78.378-90.666 91.214-34.937 13.905-16.124 45.687-34.937 45.687-16.125 0-13.437-21.5-27.859-41.656-8.519-11.905 12.594-48.923 54.734-76.593Z"/><path fill="#FFE600" d="M174.376 68.15c24.966 6.718-1.962 30.61-23.129 45.881-20.06 14.469-35.507 22.628-42.586 25.961-1.967.93-8.692-12.105-8.692-5.375 0 2.241-3.762 12.029-5.02 12.502-7.337 2.752-22.698 6.934-31.363 6.934-18.764 0-10.336-25.553 16.2-49.031 4.795-4.241 7.945-3.467 12.272-3.467-2.887-4.155-2.87-4.929 2.166-8.31 22.397-15.055 50.401-25.106 62.29-26.988 1.968.076 4.408 1.882 4.408 3.381 2.204-.752 11.261-2.085 13.454-1.494z"/><path fill="#fff" d="M97.846 109.634c5.295-4.015 8.837-5.429 11.283-13.577 3.042.65 4.52-.43 6.933-3.768 1.742 2.504 8.907 3.268 13.185 3.767-3.843 2.425-5.681 4.58-7.804 11.32-7.869-3.284-17.023-1.623-23.597 2.258"/></svg>