<svg xmlns="http://www.w3.org/2000/svg" fill="none" viewBox="0 0 256 256"><path fill="#241703" d="M196 0H60C26.863 0 0 26.863 0 60v136c0 33.137 26.863 60 60 60h136c33.137 0 60-26.863 60-60V60c0-33.137-26.863-60-60-60"/><path fill="#F19D3B" d="M126.534 138.631c1.468.127 2.68-1.018 2.808-2.417v-13.61c.127-1.462-1.021-2.671-2.425-2.798H87.546V88.834h43.583c1.467.128 2.743-.954 2.871-2.353 0-.254 0-.508-.064-.763l-1.723-13.292a2.7 2.7 0 0 0-1.021-1.844c-.574-.381-1.276-.636-1.978-.572H66.616c-1.34-.064-2.552.954-2.616 2.29v109.895q0 1.049.574 1.908c.447.572 1.149.954 1.915.89h18.44c.766 0 1.468-.254 1.979-.827.447-.572.702-1.272.638-1.971v-43.628h38.988zm62.119-17.556.064.063a2.385 2.385 0 0 0 2.723 0c.38-.316.633-.759.76-1.201.126-.38.19-.822.126-1.201v-13.529c.19-1.328-.506-2.655-1.646-3.351C185.74 99.264 178.838 98 170.099 98c-9.499 0-17.098 2.402-22.607 7.27a23.75 23.75 0 0 0-8.296 18.46c-.19 5.816 1.773 11.442 5.383 15.931 3.609 4.172 9.689 8.092 18.111 11.695a33.4 33.4 0 0 1 9.372 5.564l.063.063c1.394 1.264 2.153 3.034 2.09 4.868 0 1.77-.95 3.477-2.469 4.425-2.344 1.454-5.067 2.086-7.79 1.896-7.789-.063-15.324-2.655-21.404-7.459-.38-.316-.823-.506-1.266-.506s-.823.126-1.203.379c-.697.443-1.14 1.265-1.077 2.086v15.236c0 1.264.633 2.402 1.647 3.035h.126c6.143 3.413 14.122 5.057 23.684 5.057s17.415-2.339 23.367-7.08c10.639-8.851 12.285-24.592 3.546-35.34-3.736-4.298-10.068-8.281-18.934-12.011-3.42-1.328-6.649-3.161-9.499-5.437-1.203-1.201-1.836-2.908-1.773-4.552 0-1.643.823-3.16 2.153-4.109 2.217-1.454 4.876-2.086 7.536-1.896 6.396.126 12.538 2.023 17.794 5.5"/></svg>