<svg xmlns="http://www.w3.org/2000/svg" fill="none" viewBox="0 0 256 256"><rect width="256" height="256" fill="#282828" rx="60"/><path fill="#fff" d="M130.816 167.335c-13.863 0-27.21-3.748-39-11.91-8.219-5.687-17.73-18.528-17.73-40.298C74.085 74.74 94.715 60 136.173 60h74.639L218 83.003h-76.138c-27.363 0-43.634 2.134-43.634 32.124 0 9.906 2.794 16.956 8.543 21.55 9.718 7.764 28.605 8.094 40.146 6.982 0 0 4.735-15.227 5.515-17.699.913-2.896.513-3.587-2.336-3.587h-19.369c-5.503 0-10.91-2.77-10.91-9.423 0-6.425 5.03-10.155 11.926-10.155h41.134c6.034 0 12.191.866 9.05 10.418l-16.638 50.458s-13.592 3.664-34.473 3.664"/><path fill="#fff" d="M177.413 175.901c-8.385 5.871-20.806 9.115-41.882 9.115-36.327 0-62.914-13.052-73.753-38.358-5.125-11.961-4.632-25.518-4.632-43.853H33.004c0 19.334-.332 34.493 4.84 48.455 13.562 36.627 48.488 56.304 95.404 56.304 45.414 0 64.233-12.95 76.5-31.663z"/><path fill="#fff" d="M152.296 126.394c-1.077 3.429-5.379 17.265-5.379 17.265-11.541 1.113-30.428.782-40.146-6.982-3.265-2.61-5.575-6.015-6.963-10.283H75.01c2.581 15.047 10.12 24.406 16.805 29.031 11.791 8.162 25.137 11.911 39.001 11.911 20.881 0 34.474-3.663 34.474-3.663l12.291-37.279z"/><path fill="#fff" d="M37.845 151.26c13.562 36.627 48.487 56.304 95.404 56.304 45.413 0 64.232-12.95 76.501-31.665h-32.335c-8.386 5.873-20.807 9.117-41.883 9.117-36.326 0-62.913-13.053-73.753-38.36-2.647-6.18-3.79-12.793-4.28-20.262H33.324c.478 8.996 1.65 17.116 4.52 24.866"/></svg>