<svg xmlns="http://www.w3.org/2000/svg" fill="none" viewBox="0 0 256 256"><path fill="#282828" d="M196 0H60C26.863 0 0 26.863 0 60v136c0 33.137 26.863 60 60 60h136c33.137 0 60-26.863 60-60V60c0-33.137-26.863-60-60-60"/><path fill="url(#paint0_linear_687_32)" fill-rule="evenodd" d="M45.032 179.974c.019-7.351 6.233-17.614 15.063-26.939 5.902-6.232 11.895-11.702 24.96-22.903-9.037-4.986-23.092-11.002-30.15-18.882-2.609-2.914-7.337-9.521-6.421-18.345 1.87-17.987 23.943-45.268 55.314-51.063 10.44-1.92 22.427-.534 32.293 3.925 30.956 13.992 68.788 48.767 73.465 65.732 1.639 5.974 1.324 15.498-1.502 20.806-3.502 6.579-15.628 19.938-32.209 33.734-26.029 21.631-62.497 44.847-89.75 48.767-8.8 1.262-17.792-.055-24.1-3.634-9.872-5.602-13.148-13.079-14.3-15.322-3.063-5.96-2.683-13.513-2.677-15.881zm73.242-82.584c.336-4.169 16.589-.019 15.562 3.283-1.084 3.483-15.949 1.499-15.562-3.283" clip-rule="evenodd"/><path fill="url(#paint1_linear_687_32)" fill-rule="evenodd" d="M93.843 123.257c-8.552 7.262-14.239 12.158-21.368 18.712-17.171 15.78-28.84 27.793-22.822 44.204 6.937 18.941 22.148 17.981 39.976 14.459 45.961-9.118 121.542-67.552 117.7-89.108-3.118-17.46-45.349-52.182-70.32-64.528-7.808-3.86-16.808-5.854-25.836-5.428-34.38 1.632-61.217 33.09-59.853 50.167 1.334 16.59 43.038 31.046 42.537 31.55zm-5.158-57.921c-10.342 11.573-3.73 33.957 13.421 46.163 20.071 14.28 52.558 16.864 59.045 5.854 12.065-20.54-1.108-42.272-20.77-51.959-19.432-9.574-45.238-7.281-51.696-.068z" clip-rule="evenodd"/><path fill="url(#paint2_radial_687_32)" fill-rule="evenodd" d="M123.965 111.023c14.52 2.03 27.036-3.818 28.979-18.236 1.491-10.982-15.225-22.984-25.274-25.752-8.393-2.311-26.614.66-27.838 16.623-1.277 16.593 15.656 26.184 24.121 27.365zm-7.11-27.597c-9.543 14.865 13.855 19.437 17.438 16.727 15.444-11.688-13.235-23.275-17.438-16.727" clip-rule="evenodd"/><path fill="url(#paint3_radial_687_32)" fill-rule="evenodd" d="M108.403 45.507c-16.878 1.789-20.113 3.972-35.41 15.607-5.125 3.9-14.557 13.387-16.976 24.644-.92 4.286.167 7.987 3.237 10.582 9.83 8.311 26.285 15.053 39.781 21.573 3.953 1.909 1.336 5.372-5.038 10.92-16.088 14.006-37.833 31.047-39.364 44.036-.715 6.123 1.369 14.44 8.758 18.698 8.633 4.972 26.55 1.727 38.528-2.753 17.486-6.548 40.45-20.996 58.684-35.19 18.96-14.77 36.579-33.538 37.47-36.589 1.071-3.757.964-7.228-1.102-11.218-3.246-6.265-7.584-10.92-12.244-16.133-12.499-13.253-25.725-24.896-41.562-33.818-11.428-6.444-21.48-11.766-34.77-10.358zm24.796 29.702c12.196 5.93 24.717 21.503-.109 30.459-6.751 2.437-28.172-5.986-27.504-17.48.955-16.982 12.725-20.224 27.612-12.984z" clip-rule="evenodd"/><defs><radialGradient id="paint2_radial_687_32" cx="0" cy="0" r="1" gradientTransform="matrix(29.2357 0 0 22.5398 114.278 79.767)" gradientUnits="userSpaceOnUse"><stop stop-color="#fff"/><stop offset=".342" stop-color="#fff"/><stop offset=".52" stop-color="#BEBDF3"/><stop offset=".754" stop-color="#8F82F9"/><stop offset=".871" stop-color="#9F99C7"/><stop offset="1" stop-color="#524C76"/></radialGradient><radialGradient id="paint3_radial_687_32" cx="0" cy="0" r="1" gradientTransform="matrix(-4.0081 255.71059 -216.89736 -3.39972 47.666 87)" gradientUnits="userSpaceOnUse"><stop stop-color="#fff"/><stop offset=".342" stop-color="#fff"/><stop offset=".52" stop-color="#BEBDF3"/><stop offset=".754" stop-color="#8F82F9"/><stop offset=".871" stop-color="#9F99C7"/><stop offset="1" stop-color="#524C76"/></radialGradient><linearGradient id="paint0_linear_687_32" x1="19.121" x2="129.157" y1="-357.443" y2="215.277" gradientUnits="userSpaceOnUse"><stop stop-color="#fff"/><stop offset=".342" stop-color="#fff"/><stop offset=".52" stop-color="#BEBDF3"/><stop offset=".754" stop-color="#8F82F9"/><stop offset=".871" stop-color="#9F99C7"/><stop offset="1" stop-color="#524C76"/></linearGradient><linearGradient id="paint1_linear_687_32" x1="152.796" x2="119.591" y1="169.752" y2="21.72" gradientUnits="userSpaceOnUse"><stop stop-color="#fff"/><stop offset=".342" stop-color="#fff"/><stop offset=".52" stop-color="#BEBDF3"/><stop offset=".754" stop-color="#8F82F9"/><stop offset=".871" stop-color="#9F99C7"/><stop offset="1" stop-color="#524C76"/></linearGradient></defs></svg>