<svg xmlns="http://www.w3.org/2000/svg" width="256" height="256" fill="none"><g clip-path="url(#clip0_38_244)"><path fill="#282828" d="M196 0H60C26.863 0 0 26.863 0 60v136c0 33.137 26.863 60 60 60h136c33.137 0 60-26.863 60-60V60c0-33.137-26.863-60-60-60"/><g clip-path="url(#clip1_38_244)"><path fill="url(#paint0_radial_38_244)" fill-rule="evenodd" d="M218.875 159.687c0 5.212-2.36 10.373-6.946 15.188s-11.307 9.19-19.781 12.876-18.532 6.608-29.603 8.603c-11.071 1.994-22.937 3.021-34.92 3.021s-23.849-1.027-34.92-3.021c-11.07-1.995-21.13-4.918-29.603-8.603-8.474-3.686-15.195-8.061-19.781-12.876s-6.946-9.976-6.946-15.188 2.36-10.372 6.946-15.187 11.307-9.19 19.78-12.876 18.533-6.608 29.604-8.603c11.071-1.994 22.937-3.021 34.92-3.021s23.849 1.027 34.92 3.021c11.071 1.995 21.13 4.918 29.603 8.603 8.474 3.686 15.195 8.061 19.781 12.876s6.946 9.976 6.946 15.187" clip-rule="evenodd"/><path fill="url(#paint1_radial_38_244)" fill-rule="evenodd" stroke="#2E3436" stroke-miterlimit="10" stroke-width="6.583" d="M63.872 62.34s14.372 29.638 47.996 28.801c70.463-1.767 82.819-38.524 84.586-43.828 1.768-5.303 4.473-4.5 5.098.402C224.533 256.31 42.068 166.81 35.588 131.282c36.239-10.606 27.4-30.936 27.4-30.936z" clip-rule="evenodd"/><path fill="url(#paint2_linear_38_244)" fill-rule="evenodd" d="M90.689 150.33c33.694 6.739 50.853.491 60.896-7.264-2.652-3.425-7.182-7.181-7.182-7.181s11.767 3.27 15.91 8.618c4.132 5.333 1.534 8.618.453 15.442-2.407-5.993-6.9-8.241-7.508-10.622-9.032 12.485-31.532 11.966-62.569 1.007" clip-rule="evenodd"/><path stroke="url(#paint3_linear_38_244)" stroke-miterlimit="10" stroke-width="6.583" d="M196.844 59.219c-2.81 4.634-7.033 10.166-13.438 15.468C170.247 85.584 148.153 95.5 112 96.408c-21.122.525-34.764-9.671-43.125-18.75L68.25 100c.68 2.094 2.077 6.952-.312 13.594-2.572 7.146-10.773 14.457-24.844 20 1.251 2.61 2.477 5.218 6.25 8.906 5.14 5.025 12.285 10.44 20.781 15.312 16.992 9.745 39.008 17.467 59.531 17.813 20.524.346 39.286-6.173 52.188-25 11.893-17.356 18.412-46.74 15-91.406Z" clip-rule="evenodd" opacity=".185"/><path fill="url(#paint4_radial_38_244)" fill-rule="evenodd" stroke="#888A85" stroke-miterlimit="10" stroke-width="6.583" d="M100.553 106.976a20.3 20.3 0 0 1-5.952 14.378 20.33 20.33 0 0 1-22.158 4.408 20.334 20.334 0 1 1 22.158-33.165 20.33 20.33 0 0 1 5.952 14.379Z" clip-rule="evenodd"/><path fill="url(#paint5_radial_38_244)" fill-rule="evenodd" stroke="#000" stroke-miterlimit="10" stroke-width="6.583" d="M60.056 114.635c4.732 6.559 7.42 14.184 7.472 21.198s-2.535 12.842-7.193 16.202-11.004 3.977-17.644 1.716-13.027-7.218-17.759-13.776c-4.732-6.559-7.42-14.184-7.472-21.198s2.535-12.842 7.193-16.202 11.004-3.978 17.644-1.716 13.027 7.217 17.759 13.776Z" clip-rule="evenodd"/><path fill="#2E3436" fill-rule="evenodd" stroke="#000" stroke-miterlimit="10" stroke-width="6.583" d="M94.766 109.987a9.787 9.787 0 1 1-19.577 0 9.788 9.788 0 1 1 19.577 0Z" clip-rule="evenodd"/><path stroke="url(#paint6_linear_38_244)" stroke-miterlimit="10" stroke-width="6.583" d="M26.426 107.042c-3.194 2.393-4.878 6.441-4.726 11.934.151 5.494 2.32 12.22 6.77 18.161s10.294 9.913 15.523 11.604 9.587 1.213 12.782-1.179c3.194-2.393 4.884-6.635 4.758-12.154-.127-5.518-2.236-12.107-6.676-18.035s-10.17-9.805-15.43-11.479-9.806-1.245-13 1.148Z" clip-rule="evenodd" opacity=".281"/><path fill="#fff" fill-rule="evenodd" d="M41.168 116.256c0 1.393-.228 2.773-.672 4.06a11 11 0 0 1-1.916 3.442c-.82.985-1.795 1.767-2.868 2.3a7.6 7.6 0 0 1-3.383.807c-1.16 0-2.31-.274-3.383-.807s-2.047-1.315-2.867-2.3a11 11 0 0 1-1.916-3.442 12.5 12.5 0 0 1-.672-4.06c0-1.393.228-2.772.672-4.059a11 11 0 0 1 1.916-3.442c.82-.985 1.795-1.767 2.867-2.3a7.6 7.6 0 0 1 3.383-.808c1.161 0 2.31.275 3.383.808s2.047 1.315 2.868 2.3 1.472 2.154 1.916 3.442c.444 1.287.672 2.666.672 4.059M87.99 105.47a6.776 6.776 0 1 1-13.552 0 6.776 6.776 0 0 1 13.551 0" clip-rule="evenodd"/><path fill="url(#paint7_radial_38_244)" fill-rule="evenodd" stroke="#888A85" stroke-miterlimit="10" stroke-width="6.583" d="M146.073 109.185a23.86 23.86 0 0 1-14.731 22.054 23.85 23.85 0 0 1-18.268 0 23.86 23.86 0 0 1-14.73-22.054 23.87 23.87 0 0 1 6.987-16.879 23.86 23.86 0 0 1 26.011-5.174 23.86 23.86 0 0 1 14.731 22.053Z" clip-rule="evenodd"/><path fill="#2E3436" fill-rule="evenodd" stroke="#000" stroke-miterlimit="10" stroke-width="6.583" d="M139.279 112.721a11.48 11.48 0 0 1-3.364 8.127 11.5 11.5 0 0 1-8.126 3.367 11.5 11.5 0 0 1-8.126-3.367 11.48 11.48 0 0 1-3.365-8.127 11.5 11.5 0 0 1 3.365-8.127 11.48 11.48 0 0 1 8.126-3.367 11.49 11.49 0 0 1 11.49 11.494Z" clip-rule="evenodd"/><path fill="#fff" fill-rule="evenodd" d="M131.324 107.417a7.95 7.95 0 0 1-7.955 7.955 7.956 7.956 0 1 1 7.955-7.955" clip-rule="evenodd"/><path fill="url(#paint8_linear_38_244)" stroke="#673907" stroke-linecap="round" stroke-width="6.583" d="m194.935 180.457 4.632-9.224c-17.232-12.607-48.997-21.78-48.997-21.78-5.506-2.565-7.244 2.382-3.431 5.597 0 0 27.166 19.475 47.796 25.407Z"/><path fill="url(#paint9_linear_38_244)" stroke="#888A85" stroke-linecap="round" stroke-width="6.583" d="m217.026 188.96 2.48-5.49-19.238-12.324-1.534-.131-.663-2.123c-2.795 1.75-6.855 8.251-5.779 11.906l2.078-.786 1.126 1.088z"/><path stroke="#fff" stroke-linecap="round" stroke-linejoin="round" stroke-width="6.583" d="m204.559 178.548 12.773 5.484"/><path fill="url(#paint10_radial_38_244)" d="M244.985 212.271c-5.997-20.359-8.125-36.524-23.798-35.085-12.631 1.159-13.515 19.257-.463 24.251 12.573 4.811 24.261 10.834 24.261 10.834"/><path fill="#fff" d="M222.126 178.835a5.26 5.26 0 0 1 5.578 1.74 5.25 5.25 0 0 1 .526 5.82 5.265 5.265 0 0 1-7.135 2.101 5.25 5.25 0 0 1-2.713-5.175 5.25 5.25 0 0 1 3.744-4.486" opacity=".528"/><path fill="#fff" d="M199.2 171.353a3.55 3.55 0 0 1 4.531 3.779 3.54 3.54 0 0 1-2.526 3.027 3.548 3.548 0 1 1-2.005-6.806"/><path fill="url(#paint11_linear_38_244)" d="M237.455 200.089s-1.954-7.309-6.265-11.113c-1.526-1.345.396-3.328 1.836-1.587 3.109 3.761 4.429 12.7 4.429 12.7" opacity=".428"/><path fill="url(#paint12_linear_38_244)" fill-rule="evenodd" d="M127.015 158.683c7.487.715 14.249-1.361 17.06-2.37.491-2.777 2.683-8.107 10.23-8.458l-2.651-4.64s-9.834 6.739-20.33 8.728z" clip-rule="evenodd"/></g><g clip-path="url(#clip2_38_244)"><path fill="url(#paint13_radial_38_244)" fill-rule="evenodd" d="M218.875 159.687c0 5.212-2.36 10.373-6.946 15.188s-11.307 9.19-19.781 12.876-18.532 6.608-29.603 8.603c-11.071 1.994-22.937 3.021-34.92 3.021s-23.849-1.027-34.92-3.021c-11.07-1.995-21.13-4.918-29.603-8.603-8.474-3.686-15.195-8.061-19.781-12.876s-6.946-9.976-6.946-15.188 2.36-10.372 6.946-15.187 11.307-9.19 19.78-12.876 18.533-6.608 29.604-8.603c11.071-1.994 22.937-3.021 34.92-3.021s23.849 1.027 34.92 3.021c11.071 1.995 21.13 4.918 29.603 8.603 8.474 3.686 15.195 8.061 19.781 12.876s6.946 9.976 6.946 15.187" clip-rule="evenodd"/><path fill="url(#paint14_radial_38_244)" fill-rule="evenodd" stroke="#2E3436" stroke-miterlimit="10" stroke-width="6.583" d="M63.872 62.34s14.372 29.638 47.996 28.801c70.463-1.767 82.819-38.524 84.586-43.828 1.768-5.303 4.473-4.5 5.098.402C224.533 256.31 42.068 166.81 35.588 131.282c36.239-10.606 27.4-30.936 27.4-30.936z" clip-rule="evenodd"/><path fill="url(#paint15_linear_38_244)" fill-rule="evenodd" d="M90.689 150.33c33.694 6.739 50.853.491 60.896-7.264-2.652-3.425-7.182-7.181-7.182-7.181s11.767 3.27 15.91 8.618c4.132 5.333 1.534 8.618.453 15.442-2.407-5.993-6.9-8.241-7.508-10.622-9.032 12.485-31.532 11.966-62.569 1.007" clip-rule="evenodd"/><path stroke="url(#paint16_linear_38_244)" stroke-miterlimit="10" stroke-width="6.583" d="M196.844 59.219c-2.81 4.634-7.033 10.166-13.438 15.468C170.247 85.584 148.153 95.5 112 96.408c-21.122.525-34.764-9.671-43.125-18.75L68.25 100c.68 2.094 2.077 6.952-.312 13.594-2.572 7.146-10.773 14.457-24.844 20 1.251 2.61 2.477 5.218 6.25 8.906 5.14 5.025 12.285 10.44 20.781 15.312 16.992 9.745 39.008 17.467 59.531 17.813 20.524.346 39.286-6.173 52.188-25 11.893-17.356 18.412-46.74 15-91.406Z" clip-rule="evenodd" opacity=".185"/><path fill="url(#paint17_radial_38_244)" fill-rule="evenodd" stroke="#888A85" stroke-miterlimit="10" stroke-width="6.583" d="M100.553 106.976a20.3 20.3 0 0 1-5.952 14.378 20.33 20.33 0 0 1-22.158 4.408 20.334 20.334 0 1 1 22.158-33.165 20.33 20.33 0 0 1 5.952 14.379Z" clip-rule="evenodd"/><path fill="url(#paint18_radial_38_244)" fill-rule="evenodd" stroke="#000" stroke-miterlimit="10" stroke-width="6.583" d="M60.056 114.635c4.732 6.559 7.42 14.184 7.472 21.198s-2.535 12.842-7.193 16.202-11.004 3.977-17.644 1.716-13.027-7.218-17.759-13.776c-4.732-6.559-7.42-14.184-7.472-21.198s2.535-12.842 7.193-16.202 11.004-3.978 17.644-1.716 13.027 7.217 17.759 13.776Z" clip-rule="evenodd"/><path fill="#2E3436" fill-rule="evenodd" stroke="#000" stroke-miterlimit="10" stroke-width="6.583" d="M94.766 109.987a9.787 9.787 0 1 1-19.577 0 9.788 9.788 0 1 1 19.577 0Z" clip-rule="evenodd"/><path stroke="url(#paint19_linear_38_244)" stroke-miterlimit="10" stroke-width="6.583" d="M26.426 107.042c-3.194 2.393-4.878 6.441-4.726 11.934.151 5.494 2.32 12.22 6.77 18.161s10.294 9.913 15.523 11.604 9.587 1.213 12.782-1.179c3.194-2.393 4.884-6.635 4.758-12.154-.127-5.518-2.236-12.107-6.676-18.035s-10.17-9.805-15.43-11.479-9.806-1.245-13 1.148Z" clip-rule="evenodd" opacity=".281"/><path fill="#fff" fill-rule="evenodd" d="M41.168 116.256c0 1.393-.228 2.773-.672 4.06a11 11 0 0 1-1.916 3.442c-.82.985-1.795 1.767-2.868 2.3a7.6 7.6 0 0 1-3.383.807c-1.16 0-2.31-.274-3.383-.807s-2.047-1.315-2.867-2.3a11 11 0 0 1-1.916-3.442 12.5 12.5 0 0 1-.672-4.06c0-1.393.228-2.772.672-4.059a11 11 0 0 1 1.916-3.442c.82-.985 1.795-1.767 2.867-2.3a7.6 7.6 0 0 1 3.383-.808c1.161 0 2.31.275 3.383.808s2.047 1.315 2.868 2.3 1.472 2.154 1.916 3.442c.444 1.287.672 2.666.672 4.059M87.99 105.47a6.776 6.776 0 1 1-13.552 0 6.776 6.776 0 0 1 13.551 0" clip-rule="evenodd"/><path fill="url(#paint20_radial_38_244)" fill-rule="evenodd" stroke="#888A85" stroke-miterlimit="10" stroke-width="6.583" d="M146.073 109.185a23.86 23.86 0 0 1-14.731 22.054 23.85 23.85 0 0 1-18.268 0 23.86 23.86 0 0 1-14.73-22.054 23.87 23.87 0 0 1 6.987-16.879 23.86 23.86 0 0 1 26.011-5.174 23.86 23.86 0 0 1 14.731 22.053Z" clip-rule="evenodd"/><path fill="#2E3436" fill-rule="evenodd" stroke="#000" stroke-miterlimit="10" stroke-width="6.583" d="M139.279 112.721a11.48 11.48 0 0 1-3.364 8.127 11.5 11.5 0 0 1-8.126 3.367 11.5 11.5 0 0 1-8.126-3.367 11.48 11.48 0 0 1-3.365-8.127 11.5 11.5 0 0 1 3.365-8.127 11.48 11.48 0 0 1 8.126-3.367 11.49 11.49 0 0 1 11.49 11.494Z" clip-rule="evenodd"/><path fill="#fff" fill-rule="evenodd" d="M131.324 107.417a7.95 7.95 0 0 1-7.955 7.955 7.956 7.956 0 1 1 7.955-7.955" clip-rule="evenodd"/><path fill="url(#paint21_linear_38_244)" stroke="#673907" stroke-linecap="round" stroke-width="6.583" d="m194.935 180.457 4.632-9.224c-17.232-12.607-48.997-21.78-48.997-21.78-5.506-2.565-7.244 2.382-3.431 5.597 0 0 27.166 19.475 47.796 25.407Z"/><path fill="url(#paint22_linear_38_244)" stroke="#888A85" stroke-linecap="round" stroke-width="6.583" d="m217.026 188.96 2.48-5.49-19.238-12.324-1.534-.131-.663-2.123c-2.795 1.75-6.855 8.251-5.779 11.906l2.078-.786 1.126 1.088z"/><path stroke="#fff" stroke-linecap="round" stroke-linejoin="round" stroke-width="6.583" d="m204.559 178.548 12.773 5.484"/><path fill="url(#paint23_radial_38_244)" d="M244.985 212.271c-5.997-20.359-8.125-36.524-23.798-35.085-12.631 1.159-13.515 19.257-.463 24.251 12.573 4.811 24.261 10.834 24.261 10.834"/><path fill="#fff" d="M222.126 178.835a5.26 5.26 0 0 1 5.578 1.74 5.25 5.25 0 0 1 .526 5.82 5.265 5.265 0 0 1-7.135 2.101 5.25 5.25 0 0 1-2.713-5.175 5.25 5.25 0 0 1 3.744-4.486" opacity=".528"/><path fill="#fff" d="M199.2 171.353a3.55 3.55 0 0 1 4.531 3.779 3.54 3.54 0 0 1-2.526 3.027 3.548 3.548 0 1 1-2.005-6.806"/><path fill="url(#paint24_linear_38_244)" d="M237.455 200.089s-1.954-7.309-6.265-11.113c-1.526-1.345.396-3.328 1.836-1.587 3.109 3.761 4.429 12.7 4.429 12.7" opacity=".428"/><path fill="url(#paint25_linear_38_244)" fill-rule="evenodd" d="M127.015 158.683c7.487.715 14.249-1.361 17.06-2.37.491-2.777 2.683-8.107 10.23-8.458l-2.651-4.64s-9.834 6.739-20.33 8.728z" clip-rule="evenodd"/></g></g><defs><linearGradient id="paint2_linear_38_244" x1="154.568" x2="98.883" y1="142.147" y2="153.195" gradientUnits="userSpaceOnUse"><stop/><stop offset="1" stop-opacity="0"/></linearGradient><linearGradient id="paint3_linear_38_244" x1="86.844" x2="209.623" y1="95.553" y2="234.928" gradientUnits="userSpaceOnUse"><stop stop-color="#fff"/><stop offset="1" stop-color="#fff" stop-opacity="0"/></linearGradient><linearGradient id="paint6_linear_38_244" x1="30.887" x2="54.206" y1="111.235" y2="145.042" gradientUnits="userSpaceOnUse"><stop stop-color="#fff"/><stop offset="1" stop-color="#fff" stop-opacity="0"/></linearGradient><linearGradient id="paint8_linear_38_244" x1="183.796" x2="173.41" y1="160.272" y2="182.957" gradientUnits="userSpaceOnUse"><stop stop-color="#6E3D09"/><stop offset=".242" stop-color="#EA8113"/><stop offset=".621" stop-color="#5C3307"/><stop offset="1" stop-color="#E07C12"/></linearGradient><linearGradient id="paint9_linear_38_244" x1="206.055" x2="210.623" y1="184.909" y2="175.694" gradientUnits="userSpaceOnUse"><stop stop-color="#BDBDBD"/><stop offset=".333" stop-color="#E2E2E2"/><stop offset=".667" stop-color="#A3A3A3"/><stop offset="1" stop-color="#DDD"/></linearGradient><linearGradient id="paint11_linear_38_244" x1="231.785" x2="237.636" y1="185.427" y2="196.269" gradientUnits="userSpaceOnUse"><stop stop-color="#fff"/><stop offset="1" stop-color="#fff" stop-opacity="0"/></linearGradient><linearGradient id="paint12_linear_38_244" x1="142.815" x2="133.645" y1="152.717" y2="154.926" gradientUnits="userSpaceOnUse"><stop/><stop offset="1" stop-opacity="0"/></linearGradient><linearGradient id="paint15_linear_38_244" x1="154.568" x2="98.883" y1="142.147" y2="153.195" gradientUnits="userSpaceOnUse"><stop/><stop offset="1" stop-opacity="0"/></linearGradient><linearGradient id="paint16_linear_38_244" x1="86.844" x2="209.623" y1="95.553" y2="234.928" gradientUnits="userSpaceOnUse"><stop stop-color="#fff"/><stop offset="1" stop-color="#fff" stop-opacity="0"/></linearGradient><linearGradient id="paint19_linear_38_244" x1="30.887" x2="54.206" y1="111.235" y2="145.042" gradientUnits="userSpaceOnUse"><stop stop-color="#fff"/><stop offset="1" stop-color="#fff" stop-opacity="0"/></linearGradient><linearGradient id="paint21_linear_38_244" x1="183.796" x2="173.41" y1="160.272" y2="182.957" gradientUnits="userSpaceOnUse"><stop stop-color="#6E3D09"/><stop offset=".242" stop-color="#EA8113"/><stop offset=".621" stop-color="#5C3307"/><stop offset="1" stop-color="#E07C12"/></linearGradient><linearGradient id="paint22_linear_38_244" x1="206.055" x2="210.623" y1="184.909" y2="175.694" gradientUnits="userSpaceOnUse"><stop stop-color="#BDBDBD"/><stop offset=".333" stop-color="#E2E2E2"/><stop offset=".667" stop-color="#A3A3A3"/><stop offset="1" stop-color="#DDD"/></linearGradient><linearGradient id="paint24_linear_38_244" x1="231.785" x2="237.636" y1="185.427" y2="196.269" gradientUnits="userSpaceOnUse"><stop stop-color="#fff"/><stop offset="1" stop-color="#fff" stop-opacity="0"/></linearGradient><linearGradient id="paint25_linear_38_244" x1="142.815" x2="133.645" y1="152.717" y2="154.926" gradientUnits="userSpaceOnUse"><stop/><stop offset="1" stop-opacity="0"/></linearGradient><radialGradient id="paint0_radial_38_244" cx="0" cy="0" r="1" gradientTransform="matrix(91.25 0 0 39.6875 127.625 159.688)" gradientUnits="userSpaceOnUse"><stop/><stop offset="1" stop-opacity="0"/></radialGradient><radialGradient id="paint1_radial_38_244" cx="0" cy="0" r="1" gradientTransform="matrix(170.443 0 0 124.671 94.788 111.5)" gradientUnits="userSpaceOnUse"><stop stop-color="#857C63"/><stop offset="1" stop-color="#221F19"/></radialGradient><radialGradient id="paint4_radial_38_244" cx="0" cy="0" r="1" gradientTransform="translate(80.224 92.67)scale(29.6119)" gradientUnits="userSpaceOnUse"><stop stop-color="#fff"/><stop offset="1" stop-color="#B9B9B0"/></radialGradient><radialGradient id="paint5_radial_38_244" cx="0" cy="0" r="1" gradientTransform="matrix(19.26396 -11.12205 12.9813 22.48427 34.369 116.68)" gradientUnits="userSpaceOnUse"><stop stop-color="#5B676B"/><stop offset="1" stop-color="#141718"/></radialGradient><radialGradient id="paint7_radial_38_244" cx="0" cy="0" r="1" gradientTransform="matrix(34.7618 0 0 34.7617 122.208 92.391)" gradientUnits="userSpaceOnUse"><stop stop-color="#fff"/><stop offset="1" stop-color="#B9B9B0"/></radialGradient><radialGradient id="paint10_radial_38_244" cx="0" cy="0" r="1" gradientTransform="rotate(-106.415 179.871 13.819)scale(24.2226 23.6056)" gradientUnits="userSpaceOnUse"><stop stop-color="#696969"/><stop offset="1"/></radialGradient><radialGradient id="paint13_radial_38_244" cx="0" cy="0" r="1" gradientTransform="matrix(91.25 0 0 39.6875 127.625 159.688)" gradientUnits="userSpaceOnUse"><stop/><stop offset="1" stop-opacity="0"/></radialGradient><radialGradient id="paint14_radial_38_244" cx="0" cy="0" r="1" gradientTransform="matrix(170.443 0 0 124.671 94.788 111.5)" gradientUnits="userSpaceOnUse"><stop stop-color="#857C63"/><stop offset="1" stop-color="#221F19"/></radialGradient><radialGradient id="paint17_radial_38_244" cx="0" cy="0" r="1" gradientTransform="translate(80.224 92.67)scale(29.6119)" gradientUnits="userSpaceOnUse"><stop stop-color="#fff"/><stop offset="1" stop-color="#B9B9B0"/></radialGradient><radialGradient id="paint18_radial_38_244" cx="0" cy="0" r="1" gradientTransform="matrix(19.26396 -11.12205 12.9813 22.48427 34.369 116.68)" gradientUnits="userSpaceOnUse"><stop stop-color="#5B676B"/><stop offset="1" stop-color="#141718"/></radialGradient><radialGradient id="paint20_radial_38_244" cx="0" cy="0" r="1" gradientTransform="matrix(34.7618 0 0 34.7617 122.208 92.391)" gradientUnits="userSpaceOnUse"><stop stop-color="#fff"/><stop offset="1" stop-color="#B9B9B0"/></radialGradient><radialGradient id="paint23_radial_38_244" cx="0" cy="0" r="1" gradientTransform="rotate(-106.415 179.871 13.819)scale(24.2226 23.6056)" gradientUnits="userSpaceOnUse"><stop stop-color="#696969"/><stop offset="1"/></radialGradient><clipPath id="clip0_38_244"><path fill="#fff" d="M0 0h256v256H0z"/></clipPath><clipPath id="clip1_38_244"><path fill="#fff" d="M12 0h240v240H12z"/></clipPath><clipPath id="clip2_38_244"><path fill="#fff" d="M12 0h240v240H12z"/></clipPath></defs></svg>