<svg xmlns="http://www.w3.org/2000/svg" width="256" height="256" fill="none"><path fill="#F4F2ED" d="M196 0H60C26.863 0 0 26.863 0 60v136c0 33.137 26.863 60 60 60h136c33.137 0 60-26.863 60-60V60c0-33.137-26.863-60-60-60"/><path fill="#fff" d="m152.153 174.529-40.373-19.407c-3.977-1.909-5.695-6.745-3.754-10.753l19.407-40.374c1.909-3.977 6.745-5.695 10.753-3.754 5.472 2.641 8.622 4.136 8.622 4.136l-.032-34.742 5.313-.032.032 37.256s18.262 7.699 26.439 12.757c1.177.732 3.245 2.164 4.104 4.582.668 1.941.636 4.168-.318 6.14l-19.408 40.374c-1.972 4.04-6.808 5.758-10.785 3.817"/><path fill="#609926" d="M224.309 68.14c-1.304-1.305-3.054-1.273-3.054-1.273s-37.287 2.1-56.599 2.545c-4.231.096-8.431.191-12.599.223v37.287c-1.75-.827-3.531-1.686-5.281-2.513 0-11.58-.032-34.742-.032-34.742-9.226.127-28.379-.7-28.379-.7s-44.986-2.26-49.886-2.704c-3.118-.191-7.158-.669-12.408.477-2.768.572-10.658 2.354-17.116 8.558-14.317 12.758-10.659 33.056-10.213 36.11.54 3.723 2.195 14.062 10.085 23.066 14.572 17.848 45.941 17.435 45.941 17.435s3.85 9.194 9.736 17.657c7.953 10.531 16.13 18.739 24.084 19.726 20.043 0 60.099-.032 60.099-.032s3.817.032 9.003-3.277c4.454-2.704 8.431-7.445 8.431-7.445s4.104-4.39 9.831-14.412c1.75-3.086 3.213-6.077 4.486-8.908 0 0 17.562-37.256 17.562-73.525-.35-10.976-3.054-12.917-3.691-13.553M66.156 133.074c-8.24-2.704-11.74-5.949-11.74-5.949s-6.076-4.263-9.13-12.663c-5.25-14.062-.446-22.652-.446-22.652s2.673-7.158 12.25-9.544c4.39-1.178 9.862-.987 9.862-.987s2.259 18.898 4.995 29.97c2.29 9.29 7.89 24.72 7.89 24.72s-8.304-.986-13.68-2.895m95.541 34.233s-1.94 4.614-6.236 4.9c-1.845.127-3.276-.382-3.276-.382s-.096-.032-1.687-.668l-35.919-17.498s-3.468-1.814-4.072-4.964c-.7-2.577.859-5.758.859-5.758l17.275-35.601s1.527-3.086 3.882-4.136a7 7 0 0 1 1.431-.477c2.577-.668 5.727.89 5.727.89l35.22 17.085s4.008 1.814 4.867 5.154c.605 2.355-.159 4.454-.572 5.472-2.005 4.9-17.499 35.983-17.499 35.983"/><path fill="#609926" d="M130.169 141.41c-2.609.032-4.9 1.845-5.504 4.391-.605 2.545.636 5.185 2.895 6.363 2.45 1.272 5.567.572 7.222-1.718a5.74 5.74 0 0 0-.573-7.35l7.636-15.621c.477.032 1.177.064 1.972-.159 1.305-.286 2.259-1.145 2.259-1.145a79 79 0 0 1 4.2 1.94 74 74 0 0 1 4.263 2.323c.286.159.573.35.891.604.509.414 1.082.987 1.495 1.75.605 1.75-.604 4.741-.604 4.741-.732 2.418-5.854 12.917-5.854 12.917-2.577-.064-4.868 1.59-5.632 3.976-.827 2.577.35 5.504 2.832 6.777s5.536.541 7.158-1.686c1.591-2.164 1.464-5.186-.35-7.19a186 186 0 0 0 1.782-3.596c1.591-3.308 4.295-9.671 4.295-9.671.286-.541 1.814-3.277.859-6.777-.795-3.627-4.009-5.313-4.009-5.313-3.881-2.513-9.29-4.836-9.29-4.836s0-1.304-.35-2.259c-.35-.986-.89-1.622-1.24-2.004 1.495-3.086 2.99-6.14 4.485-9.227a219 219 0 0 1-3.881-1.94c-1.527 3.118-3.086 6.267-4.613 9.385a5.72 5.72 0 0 0-5.122 2.991 5.71 5.71 0 0 0 .604 6.299z"/></svg>