<svg xmlns="http://www.w3.org/2000/svg" fill="none" viewBox="0 0 256 256"><path fill="#282828" d="M196 0H60C26.863 0 0 26.863 0 60v136c0 33.137 26.863 60 60 60h136c33.137 0 60-26.863 60-60V60c0-33.137-26.863-60-60-60"/><g clip-path="url(#clip0_0_1)"><path fill="#fff" fill-rule="evenodd" d="M127.266 16C83.987 16 49 51.063 49 94.44c0 34.673 22.417 64.024 53.516 74.412 3.888.781 5.313-1.688 5.313-3.765 0-1.818-.129-8.051-.129-14.546-21.771 4.676-26.305-9.35-26.305-9.35-3.499-9.091-8.683-11.428-8.683-11.428-7.126-4.805.519-4.805.519-4.805 7.904.52 12.052 8.052 12.052 8.052 6.996 11.947 18.27 8.571 22.805 6.493.647-5.065 2.722-8.571 4.925-10.519-17.365-1.818-35.634-8.571-35.634-38.7 0-8.572 3.108-15.585 8.032-21.038-.777-1.948-3.499-10.001.779-20.78 0 0 6.608-2.078 21.509 8.052a75.6 75.6 0 0 1 19.567-2.598c6.609 0 13.345.91 19.566 2.598 14.902-10.13 21.51-8.052 21.51-8.052 4.278 10.779 1.554 18.832.777 20.78 5.055 5.453 8.035 12.466 8.035 21.037 0 30.13-18.27 36.752-35.764 38.701 2.851 2.467 5.312 7.142 5.312 14.545 0 10.518-.128 18.961-.128 21.557 0 2.078 1.426 4.547 5.312 3.767 31.099-10.391 53.516-39.74 53.516-74.413.129-43.377-34.987-78.44-78.136-78.44" clip-rule="evenodd"/></g><path fill="#fff" d="M49.723 208.309a3.8 3.8 0 0 0-.532-1.183 3.4 3.4 0 0 0-.863-.884 3.7 3.7 0 0 0-1.172-.543 5.2 5.2 0 0 0-1.449-.192q-1.587 0-2.748.767-1.151.768-1.78 2.237-.628 1.46-.628 3.548 0 2.099.607 3.579.607 1.482 1.758 2.259 1.15.778 2.791.778 1.45 0 2.45-.469 1.012-.48 1.534-1.353t.522-2.056l.98.117h-5.305v-3.846h9.407v2.887q0 2.93-1.246 5.018a8.3 8.3 0 0 1-3.41 3.207q-2.162 1.118-4.975 1.118-3.121 0-5.486-1.353t-3.686-3.856q-1.32-2.514-1.321-5.966 0-2.685.799-4.762.799-2.088 2.226-3.537a9.6 9.6 0 0 1 3.324-2.195q1.896-.745 4.08-.745 1.897 0 3.527.543a9.4 9.4 0 0 1 2.898 1.534 8.1 8.1 0 0 1 2.056 2.354q.788 1.364.98 2.994zM59.43 223v-16.364h5.21V223zm2.61-18.271a2.7 2.7 0 0 1-1.886-.724q-.788-.736-.788-1.768 0-1.023.788-1.748a2.67 2.67 0 0 1 1.886-.735q1.107 0 1.885.735.789.725.789 1.748 0 1.032-.789 1.768-.777.724-1.885.724m15.151 1.907v3.836H66.868v-3.836zm-8.16-3.92h5.21v15.138q0 .48.149.778.16.288.458.416.299.117.714.117.297 0 .628-.053.34-.065.512-.107l.788 3.761q-.373.106-1.055.266a9 9 0 0 1-1.608.202q-1.833.085-3.143-.426-1.3-.522-1.993-1.619-.681-1.097-.66-2.759zm16.38 10.952V223H80.2v-21.818h5.04v8.459h.18q.554-1.513 1.811-2.365 1.269-.853 3.1-.853 1.727 0 3.005.767 1.279.757 1.981 2.142.714 1.385.703 3.238V223h-5.21v-9.407q.011-1.363-.68-2.131-.694-.767-1.95-.767-.82 0-1.45.363a2.46 2.46 0 0 0-.969 1.012q-.34.66-.351 1.598m24.42 2.269v-9.301h5.199V223h-4.965v-3.047h-.17a4.75 4.75 0 0 1-1.854 2.386q-1.3.874-3.143.874-1.672 0-2.94-.767a5.23 5.23 0 0 1-1.97-2.141q-.704-1.385-.715-3.239v-10.43h5.21v9.407q.01 1.332.703 2.099t1.886.767q.777 0 1.395-.341.629-.352.991-1.012.373-.67.373-1.619m8.515 7.063v-21.818h5.209v8.256h.107a5.7 5.7 0 0 1 .905-1.438 4.5 4.5 0 0 1 1.513-1.129q.927-.448 2.216-.448 1.704 0 3.185.895 1.492.896 2.408 2.759.916 1.865.916 4.752 0 2.78-.884 4.655-.873 1.875-2.365 2.813-1.481.937-3.292.937-1.236 0-2.141-.404a4.7 4.7 0 0 1-1.524-1.066 5.1 5.1 0 0 1-.937-1.417h-.16V223zm5.103-8.182q0 1.321.351 2.301.363.981 1.034 1.524.68.532 1.63.532.958 0 1.63-.532.67-.543 1.012-1.524.351-.98.351-2.301t-.351-2.29q-.342-.97-1.012-1.502-.661-.534-1.63-.533-.96 0-1.63.522-.671.522-1.034 1.491-.351.97-.351 2.312M138.525 223v-21.818h7.372q2.568 0 4.197.927 1.641.915 2.429 2.482.789 1.566.789 3.494t-.789 3.505q-.778 1.576-2.407 2.514-1.63.927-4.176.927h-5.284v-2.343h5.198q1.758 0 2.824-.608 1.065-.607 1.544-1.64.49-1.044.49-2.355t-.49-2.344q-.479-1.032-1.555-1.619-1.076-.597-2.855-.596h-4.645V223zm23.517.384q-1.556 0-2.823-.586a4.85 4.85 0 0 1-2.013-1.716q-.746-1.129-.746-2.727 0-1.406.554-2.28a3.9 3.9 0 0 1 1.481-1.385 7.8 7.8 0 0 1 2.045-.745 25 25 0 0 1 2.269-.405 103 103 0 0 1 2.419-.288q.937-.107 1.363-.351.437-.246.437-.853v-.085q0-1.577-.863-2.45-.852-.874-2.589-.874-1.8 0-2.823.789-1.023.788-1.438 1.683l-2.386-.852q.639-1.492 1.704-2.323a6.4 6.4 0 0 1 2.344-1.172 9.7 9.7 0 0 1 2.514-.341q.788 0 1.811.192a5.8 5.8 0 0 1 1.992.756q.97.576 1.609 1.737t.639 3.111V223h-2.514v-2.216h-.128q-.255.532-.852 1.14t-1.587 1.033q-.991.426-2.419.427m.384-2.259q1.491 0 2.514-.586 1.033-.586 1.555-1.513a3.85 3.85 0 0 0 .533-1.949v-2.301q-.16.191-.703.351-.532.15-1.236.266a58 58 0 0 1-1.353.192q-.65.075-1.055.128a9.6 9.6 0 0 0-1.832.416q-.842.276-1.364.841-.51.554-.511 1.513 0 1.31.97 1.981.98.661 2.482.661m18.31 8.352q-1.821 0-3.132-.468-1.31-.459-2.184-1.215a6.7 6.7 0 0 1-1.374-1.598l2.003-1.406q.34.447.863 1.022.522.586 1.427 1.013.916.436 2.397.436 1.982 0 3.271-.958 1.289-.96 1.289-3.005v-3.324h-.213a14 14 0 0 1-.788 1.108q-.501.65-1.449 1.162-.937.5-2.536.5-1.982 0-3.558-.937-1.566-.938-2.482-2.727-.906-1.791-.906-4.347 0-2.514.884-4.379.885-1.875 2.461-2.897 1.577-1.034 3.644-1.034 1.597 0 2.535.533.948.522 1.449 1.193.512.66.789 1.087h.255v-2.6h2.429v16.833q0 2.109-.959 3.43-.948 1.332-2.556 1.95-1.599.628-3.559.628m-.085-8.991q1.513 0 2.557-.693 1.044-.692 1.587-1.992.544-1.299.544-3.111 0-1.768-.533-3.121t-1.577-2.12-2.578-.767q-1.598 0-2.663.809-1.054.81-1.588 2.174-.522 1.363-.522 3.025 0 1.706.533 3.015.543 1.3 1.598 2.046 1.065.735 2.642.735m18.622 2.855q-2.365 0-4.08-1.044-1.704-1.055-2.631-2.94-.917-1.897-.917-4.411t.917-4.432q.927-1.928 2.578-3.004 1.661-1.087 3.878-1.087 1.278 0 2.524.426a6.3 6.3 0 0 1 2.27 1.385q1.022.948 1.63 2.515.607 1.566.607 3.856v1.065h-12.614v-2.173h10.057q0-1.385-.554-2.471a4.2 4.2 0 0 0-1.555-1.716q-1.002-.628-2.365-.628-1.502 0-2.6.746a4.9 4.9 0 0 0-1.672 1.917 5.6 5.6 0 0 0-.586 2.536v1.449q0 1.853.639 3.142.65 1.279 1.8 1.95 1.151.66 2.674.66.991 0 1.79-.277a3.8 3.8 0 0 0 1.396-.852q.585-.575.905-1.427l2.429.681a5.4 5.4 0 0 1-1.289 2.174q-.905.927-2.237 1.449-1.332.51-2.994.511m22.191-13.04-2.258.639a4.2 4.2 0 0 0-.629-1.097q-.405-.543-1.108-.895-.703-.351-1.8-.351-1.503 0-2.504.692-.99.682-.99 1.737 0 .937.681 1.48.682.544 2.131.906l2.429.597q2.194.532 3.271 1.629 1.076 1.087 1.076 2.802 0 1.407-.81 2.515-.799 1.107-2.237 1.747-1.439.639-3.345.639-2.504 0-4.145-1.087t-2.077-3.174l2.386-.597q.342 1.321 1.289 1.981.96.661 2.504.661 1.758 0 2.791-.746 1.044-.756 1.044-1.811 0-.852-.596-1.427-.597-.586-1.833-.874l-2.727-.639q-2.249-.533-3.303-1.651-1.044-1.13-1.044-2.824 0-1.385.778-2.45.789-1.065 2.141-1.672 1.363-.608 3.09-.608 2.428 0 3.814 1.066 1.395 1.065 1.981 2.812"/><defs><clipPath id="clip0_0_1"><path fill="#fff" d="M49 16h157v153H49z"/></clipPath></defs></svg>