<svg xmlns="http://www.w3.org/2000/svg" fill="none" viewBox="0 0 256 256"><rect width="256" height="256" fill="#F4F2ED" rx="60"/><path fill="#128379" d="M232.795 74.332c-.927-2.41-3.707-3.522-5.932-2.595-1.668.741-2.78 2.41-2.78 4.078 0 .556 0 1.112.371 1.483 4.263 11.306 6.673 23.54 6.673 36.515 0 52.456-39.111 96.015-89.899 102.503v-48.379c3.151-.556 6.117-1.482 9.083-2.409v40.593c41.335-10.009 72.289-47.451 72.289-92.308 0-35.774-19.833-67.1-49.119-83.226-2.225-1.297-5.005-.37-6.117 2.04-.371.555-.371 1.297-.371 2.038 0 1.669.927 3.151 2.224 3.893 26.506 14.643 44.486 43.003 44.486 75.44 0 36.516-22.613 67.656-54.68 80.26v-35.959c5.56-1.668 9.638-6.858 9.638-13.161 0-5.19-2.595-9.453-6.858-11.862 3.151-31.141 17.424-22.799 17.424-32.809v-5.746c0-14.828-34.291-63.207-50.418-64.319h-2.965c-16.126 1.112-50.417 49.49-50.417 64.32v5.745c0 9.824 14.087 1.668 17.423 32.809-4.078 2.409-6.673 6.858-6.673 11.862 0 6.117 4.078 11.307 9.639 13.161v35.959c-31.882-12.604-54.68-43.744-54.68-80.26 0-32.437 17.98-60.797 44.485-75.44 2.04-1.112 2.966-3.707 1.854-5.931-.556-1.669-2.224-2.596-3.893-2.596q-1.112 0-2.224.556c-29.287 16.127-49.12 47.452-49.12 83.226 0 44.857 30.955 82.299 72.66 92.493v-40.593c2.966.927 5.932 1.854 9.083 2.41v48.378c-50.788-6.673-89.898-50.046-89.898-102.688 0-12.79 2.41-25.023 6.672-36.515.927-2.225-.185-4.82-2.41-5.746-.555-.186-1.111-.371-1.668-.371-1.853 0-3.521 1.112-4.263 2.966A109.3 109.3 0 0 0 15 113.813c0 60.612 47.822 109.917 107.878 112.327v-56.905c1.668.185 4.634.185 4.634.185s2.966 0 4.634-.185v56.905c60.056-2.41 107.878-51.715 107.878-112.327-.185-13.902-2.595-27.248-7.229-39.481m-84.523 64.134c1.668-1.669 3.892-2.781 6.487-2.781s4.82 1.112 6.488 2.781c1.668 1.668 2.78 3.892 2.78 6.487s-1.112 4.819-2.78 6.488c-1.668 1.668-3.893 2.78-6.488 2.78s-4.819-1.112-6.487-2.78c-1.668-1.669-2.78-3.893-2.78-6.488s1.112-4.819 2.78-6.487m-41.52 12.975c-1.668 1.668-3.893 2.78-6.488 2.78s-4.819-1.112-6.487-2.78c-1.854-1.669-2.78-3.893-2.78-6.488s1.112-4.819 2.78-6.487 3.892-2.781 6.487-2.781 4.82 1.112 6.488 2.781c1.668 1.668 2.78 3.892 2.78 6.487-.185 2.595-1.112 4.819-2.78 6.488"/></svg>