<svg xmlns="http://www.w3.org/2000/svg" width="256" height="256" fill="none"><path fill="#282828" d="M196 0H60C26.863 0 0 26.863 0 60v136c0 33.137 26.863 60 60 60h136c33.137 0 60-26.863 60-60V60c0-33.137-26.863-60-60-60"/><g clip-path="url(#clip0_261_11)"><path fill="#FFAFF3" d="M103.559 45.29c2.801-7.935 13.212-9.77 18.558-3.271l28.019 34.065a18.8 18.8 0 0 0 14.055 6.846l44.134 1.074c8.427.205 13.375 9.521 8.841 16.604l-23.788 37.158a18.76 18.76 0 0 0-2.18 15.475l12.597 42.259c2.401 8.051-4.932 15.655-13.093 13.534l-42.722-11.101a18.8 18.8 0 0 0-15.398 2.715l-36.348 25.044c-6.944 4.783-16.434.147-16.933-8.241l-2.615-44.018a18.76 18.76 0 0 0-7.342-13.797l-35.063-26.78c-6.683-5.105-5.219-15.552 2.629-18.627l41.105-16.104a18.8 18.8 0 0 0 10.866-11.24z"/><path fill="#151515" d="M111.213 34.44c-4.979.878-9.53 4.184-11.414 9.524L85.12 85.558a14.8 14.8 0 0 1-8.56 8.854l-41.106 16.104c-10.548 4.132-12.587 18.641-3.594 25.509l35.062 26.78a14.77 14.77 0 0 1 5.782 10.864l2.615 44.018c.67 11.293 13.842 17.718 23.176 11.289v-.001l36.349-25.043h.001a14.8 14.8 0 0 1 12.131-2.139l42.722 11.101c10.97 2.851 21.151-7.693 17.918-18.534l-12.598-42.258v-.001a14.75 14.75 0 0 1-.471-6.28 14.75 14.75 0 0 1 2.188-5.905v-.001l23.788-37.158c6.101-9.53-.777-22.466-12.102-22.742l-44.134-1.074a14.8 14.8 0 0 1-11.072-5.392l-28.02-34.066c-3.597-4.373-9.004-5.923-13.984-5.045m1.341 7.603c2.262-.4 4.734.382 6.483 2.509l28.019 34.066a22.8 22.8 0 0 0 17.038 8.3l44.134 1.073c5.527.135 8.546 5.832 5.579 10.467l-23.788 37.159a22.76 22.76 0 0 0-2.644 18.764l12.598 42.259c1.569 5.262-2.916 9.925-8.267 8.535h-.001l-42.722-11.101a22.8 22.8 0 0 0-18.665 3.291l-36.348 25.043c-4.554 3.137-10.363.289-10.69-5.192l-2.614-44.018a22.76 22.76 0 0 0-8.902-16.731L36.7 129.685c-4.373-3.34-3.484-9.727 1.663-11.744l41.105-16.104A22.8 22.8 0 0 0 92.64 88.211l14.678-41.595c.916-2.596 2.97-4.176 5.233-4.575"/><path fill="#151515" d="M98.426 146.482a7.834 7.834 0 1 0-2.721-15.43 7.834 7.834 0 0 0 2.721 15.43m63.121-11.13a7.834 7.834 0 1 0-9.076-6.354 7.833 7.833 0 0 0 9.076 6.354m-38.049 9.383a3.993 3.993 0 0 0-2.284 5.157 10.4 10.4 0 0 0 2.172 3.427v.001c.942.988 2.07 1.782 3.319 2.334h.001c1.248.553 2.592.854 3.956.887l.002.001h.001a10.4 10.4 0 0 0 3.995-.696v-.001a10.4 10.4 0 0 0 3.427-2.171l.001-.001a10.4 10.4 0 0 0 3.22-7.279 3.987 3.987 0 0 0-7.974-.187 2.4 2.4 0 0 1-.206.917l-.001.002v.002a2.4 2.4 0 0 1-1.34 1.276l-.001.001h-.001a2.42 2.42 0 0 1-1.851-.044l-.001-.001-.002-.001a2.4 2.4 0 0 1-.77-.542h-.001a2.4 2.4 0 0 1-.505-.798 4 4 0 0 0-2.106-2.21 4 4 0 0 0-3.051-.074"/></g><defs><clipPath id="clip0_261_11"><path fill="#fff" d="M13 51.627 209.381 17l33.156 188.035-196.381 34.628z"/></clipPath></defs></svg>