<svg xmlns="http://www.w3.org/2000/svg" width="256" height="256" fill="none"><path fill="#F4F2ED" d="M196 0H60C26.863 0 0 26.863 0 60v136c0 33.137 26.863 60 60 60h136c33.137 0 60-26.863 60-60V60c0-33.137-26.863-60-60-60"/><path fill="#030303" d="M195.076 24c-43.469 0-51.623 61.913-27.17 61.913 24.45 0 70.64-61.913 27.17-61.913m-72.179 54.241c13.02.796 27.306-49.688 2.834-46.512-24.462 3.175-15.859 45.717-2.834 46.512m-59.67 31.369c9.26-4.076 1.192-43.946-14.554-33.072-15.74 10.875 5.293 37.146 14.554 33.072m26.091-20.868c11.023-2.248 11.627-47.465-8.03-39.354-19.662 8.114-2.985 41.605 8.03 39.354m57.562 101.19c1.956 14.937-10.958 22.314-23.605 12.685-40.262-30.654 66.662-45.946 59.614-87.824-5.85-34.762-112.507-24.06-124.652 30.331-8.222 36.788 33.84 87.826 77.729 87.826 21.592 0 46.496-19.495 51.155-44.193 3.558-18.833-41.873-11.286-40.241 1.175"/></svg>