<svg xmlns="http://www.w3.org/2000/svg" fill="none" viewBox="0 0 256 256"><rect width="256" height="256" fill="#F4F2ED" rx="55"/><path fill="url(#linear_0)" d="M197.312 107.394 219 155.488 181.878 219l-22.861-55.512z"/><path fill="#B74AF7" d="M159.017 163.488 181.877 219l-57.516-19.775z"/><path fill="url(#linear_1)" d="M165.214 88.398 153.423 37h-65.39L37 115.071l14.767 35.867L37 183.681l105.694-89.918z"/><path fill="url(#linear_2)" d="m219 75.634-76.306 18.127L37 183.68 105.177 219l53.84-55.512z"/><path fill="#000" d="M71.129 71.128H184.87V184.87H71.129z"/><path fill="#FFF" d="M81.802 163.542h42.651v7.115H81.802zm-3.209-53.914v-.132a24.1 24.1 0 0 1 1.86-9.357 24.1 24.1 0 0 1 5.345-7.902 24.1 24.1 0 0 1 10.27-5.975 24 24 0 0 1 7.117-.92 25.8 25.8 0 0 1 7.452.695 25.8 25.8 0 0 1 6.94 2.803 26 26 0 0 1 4.052 2.929l-6.501 7.849a17.3 17.3 0 0 0-12.265-4.793c-7.581 0-13.48 6.634-13.48 14.598v.128c0 8.589 5.899 14.882 14.222 14.882a16.4 16.4 0 0 0 9.701-2.824v-6.749h-10.389v-8.906h20.345v20.356a30.4 30.4 0 0 1-4.424 3.192 30.4 30.4 0 0 1-7.52 3.187q-1.318.36-2.664.601a30.7 30.7 0 0 1-5.433.474c-14.58 0-24.627-10.261-24.627-24.136m49.031 0v-.132a24.1 24.1 0 0 1 1.104-7.155q.362-1.158.837-2.272a24.3 24.3 0 0 1 2.331-4.238q.688-.999 1.471-1.923a24.4 24.4 0 0 1 3.48-3.36 24.2 24.2 0 0 1 6.29-3.588 24.3 24.3 0 0 1 9.49-1.618c14.463 0 24.851 10.79 24.851 24.117v.134a25 25 0 0 1-.118 2.424 23 23 0 0 1-.359 2.401 24 24 0 0 1-.598 2.353q-.178.58-.387 1.151-.207.57-.444 1.13-.236.56-.499 1.107a24.4 24.4 0 0 1-2.533 4.135 24.6 24.6 0 0 1-2.413 2.724 25 25 0 0 1-1.824 1.602 25 25 0 0 1-1.975 1.412 25 25 0 0 1-2.107 1.206 23 23 0 0 1-2.216.99 25 25 0 0 1-2.305.763 24 24 0 0 1-2.369.529 23 23 0 0 1-2.411.289 25 25 0 0 1-2.427.047c-14.483-.092-24.869-10.88-24.869-24.228m39.065 0v-.132a14.3 14.3 0 0 0-1.529-6.871 14.2 14.2 0 0 0-3.507-4.435 14.2 14.2 0 0 0-3.621-2.23 14.3 14.3 0 0 0-4.118-1.061 14.2 14.2 0 0 0-5.596.547 14 14 0 0 0-4.925 2.686 13.9 13.9 0 0 0-4.048 5.695q-.252.66-.438 1.342a14 14 0 0 0-.462 2.782q-.046.706-.019 1.411v.134a14.2 14.2 0 0 0 .493 4.241 14.4 14.4 0 0 0 1.727 3.906 14.3 14.3 0 0 0 2.805 3.219 14 14 0 0 0 2.349 1.619 14.4 14.4 0 0 0 2.625 1.118 14.3 14.3 0 0 0 2.794.573 14.5 14.5 0 0 0 2.84.004 14 14 0 0 0 7.7-3.269 14.1 14.1 0 0 0 3.471-4.427 14 14 0 0 0 1.001-2.645q.182-.684.295-1.384a14 14 0 0 0 .164-2.823z"/><defs><linearGradient id="linear_0" x1="95.01%" x2="-23.66%" y1="30.115%" y2="83.898%" gradientUnits="objectBoundingBox"><stop offset="0" stop-color="#087CFA"/><stop offset=".02" stop-color="#0D7BFA"/><stop offset=".37" stop-color="#5566F9"/><stop offset=".66" stop-color="#8A57F8"/><stop offset=".88" stop-color="#AB4EF7"/><stop offset="1" stop-color="#B74AF7"/></linearGradient><linearGradient id="linear_1" x1="48.763%" x2="82.53%" y1="38.552%" y2="5.092%" gradientUnits="objectBoundingBox"><stop offset="0" stop-color="#087CFA"/><stop offset=".02" stop-color="#0D7BFA"/><stop offset=".37" stop-color="#5566F9"/><stop offset=".66" stop-color="#8A57F8"/><stop offset=".88" stop-color="#AB4EF7"/><stop offset="1" stop-color="#B74AF7"/></linearGradient><linearGradient id="linear_2" x1="13.73%" x2="85.947%" y1="83.987%" y2="25.309%" gradientUnits="objectBoundingBox"><stop offset="0" stop-color="#087CFA"/><stop offset=".1" stop-color="#1598D3"/><stop offset=".22" stop-color="#23B6AA"/><stop offset=".35" stop-color="#2DCC8B"/><stop offset=".46" stop-color="#35DD74"/><stop offset=".57" stop-color="#39E767"/><stop offset=".67" stop-color="#3BEA62"/></linearGradient></defs></svg>