<svg xmlns="http://www.w3.org/2000/svg" fill="none" viewBox="0 0 256 256"><rect width="256" height="256" fill="#282828" rx="55"/><path fill="url(#linear_0)" d="M197.312 107.394 219 155.488 181.877 219l-22.86-55.512z"/><path fill="#B74AF7" d="M159.017 163.488 181.877 219l-57.516-19.775z"/><path fill="url(#linear_1)" d="M165.214 88.397 153.423 37h-65.39L37 115.071l14.767 35.866L37 183.681l105.694-89.918z"/><path fill="url(#linear_2)" d="m219 75.634-76.306 18.127L37 183.679 105.177 219l53.84-55.513z"/><path fill="#000" d="M71.129 71.128H184.87V184.87H71.129z"/><path fill="#FFF" d="M81.802 163.542h42.651v7.115H81.802zm-3.208-53.914v-.132a24.1 24.1 0 0 1 1.86-9.357 24.1 24.1 0 0 1 5.345-7.902 24.1 24.1 0 0 1 10.27-5.975 24 24 0 0 1 7.116-.92 25.8 25.8 0 0 1 7.452.695 25.85 25.85 0 0 1 10.992 5.732l-6.501 7.849a17.3 17.3 0 0 0-12.265-4.793c-7.581 0-13.48 6.634-13.48 14.598v.128c0 8.589 5.899 14.882 14.222 14.882a16.4 16.4 0 0 0 9.701-2.824v-6.749h-10.388v-8.906h20.344v20.356a30.6 30.6 0 0 1-4.424 3.192 30.4 30.4 0 0 1-7.52 3.187q-1.319.36-2.663.601-1.345.24-2.707.359-1.36.118-2.727.115c-14.58 0-24.627-10.261-24.627-24.136m49.03 0v-.132a24.1 24.1 0 0 1 1.104-7.155 24 24 0 0 1 1.897-4.45 24.2 24.2 0 0 1 6.222-7.344 24.2 24.2 0 0 1 6.29-3.587 24.3 24.3 0 0 1 7.069-1.572 24 24 0 0 1 2.421-.046c14.463 0 24.851 10.79 24.851 24.117v.134a25 25 0 0 1-.117 2.424 24.3 24.3 0 0 1-2.288 8.142 24.4 24.4 0 0 1-2.533 4.135q-.368.483-.758.948a24 24 0 0 1-2.547 2.6 24 24 0 0 1-1.902 1.509 25 25 0 0 1-2.043 1.31q-.528.303-1.069.577a23 23 0 0 1-2.216.99 25 25 0 0 1-2.305.763 24 24 0 0 1-2.369.529 23 23 0 0 1-2.41.289 25 25 0 0 1-2.428.047c-14.482-.092-24.869-10.88-24.869-24.228m39.065 0v-.132a14.4 14.4 0 0 0-.196-2.834 14.3 14.3 0 0 0-.754-2.738 14.2 14.2 0 0 0-4.086-5.734 14.2 14.2 0 0 0-3.621-2.23 14.2 14.2 0 0 0-4.118-1.061 14.2 14.2 0 0 0-4.227.2 14.06 14.06 0 0 0-8.256 5.059 14 14 0 0 0-2.086 3.669q-.252.66-.438 1.342a14 14 0 0 0-.462 2.782q-.046.706-.019 1.411v.134a14.2 14.2 0 0 0 .494 4.241 14 14 0 0 0 1.021 2.664 14.4 14.4 0 0 0 1.531 2.407 14.3 14.3 0 0 0 4.328 3.673 14.4 14.4 0 0 0 2.625 1.118 14.3 14.3 0 0 0 2.795.573 14.4 14.4 0 0 0 2.839.004 14 14 0 0 0 2.771-.561 14 14 0 0 0 2.601-1.105 14 14 0 0 0 3.359-2.573 14 14 0 0 0 1.745-2.224 14 14 0 0 0 1.262-2.53 14 14 0 0 0 .729-2.732q.112-.7.154-1.407.04-.708.01-1.416z"/><defs><linearGradient id="linear_0" x1="95.01%" x2="-23.66%" y1="30.115%" y2="83.898%" gradientUnits="objectBoundingBox"><stop offset="0" stop-color="#087CFA"/><stop offset=".02" stop-color="#0D7BFA"/><stop offset=".37" stop-color="#5566F9"/><stop offset=".66" stop-color="#8A57F8"/><stop offset=".88" stop-color="#AB4EF7"/><stop offset="1" stop-color="#B74AF7"/></linearGradient><linearGradient id="linear_1" x1="48.763%" x2="82.53%" y1="38.552%" y2="5.092%" gradientUnits="objectBoundingBox"><stop offset="0" stop-color="#087CFA"/><stop offset=".02" stop-color="#0D7BFA"/><stop offset=".37" stop-color="#5566F9"/><stop offset=".66" stop-color="#8A57F8"/><stop offset=".88" stop-color="#AB4EF7"/><stop offset="1" stop-color="#B74AF7"/></linearGradient><linearGradient id="linear_2" x1="13.73%" x2="85.947%" y1="83.988%" y2="25.309%" gradientUnits="objectBoundingBox"><stop offset="0" stop-color="#087CFA"/><stop offset=".1" stop-color="#1598D3"/><stop offset=".22" stop-color="#23B6AA"/><stop offset=".35" stop-color="#2DCC8B"/><stop offset=".46" stop-color="#35DD74"/><stop offset=".57" stop-color="#39E767"/><stop offset=".67" stop-color="#3BEA62"/></linearGradient></defs></svg>