<svg xmlns="http://www.w3.org/2000/svg" width="256" height="256" fill="none"><g clip-path="url(#clip0_164_572)"><path fill="#F4F2ED" d="M196 0H60C26.863 0 0 26.863 0 60v136c0 33.137 26.863 60 60 60h136c33.137 0 60-26.863 60-60V60c0-33.137-26.863-60-60-60"/><g clip-path="url(#clip1_164_572)"><path fill="#F9AB00" d="M206.376 193.776a21.703 21.703 0 0 1-24.264 21.666c-11.118-1.645-19.266-11.321-18.995-22.557V63.704c-.269-11.248 7.899-20.928 19.032-22.557a21.702 21.702 0 0 1 24.227 21.667z"/><path fill="#E37400" d="M70.256 172.369c11.946 0 21.63 9.684 21.63 21.629s-9.684 21.629-21.63 21.629-21.629-9.683-21.629-21.629c0-11.945 9.684-21.629 21.63-21.629m56.911-65.555c-12.002.658-21.314 10.725-21.035 22.742v58.098c0 15.768 6.937 25.339 17.103 27.38a21.666 21.666 0 0 0 25.969-21.295v-65.185a21.7 21.7 0 0 0-22.037-21.74"/></g></g><defs><clipPath id="clip0_164_572"><path fill="#fff" d="M0 0h256v256H0z"/></clipPath><clipPath id="clip1_164_572"><path fill="#fff" d="M40 41h175v175H40z"/></clipPath></defs></svg>