<svg xmlns="http://www.w3.org/2000/svg" width="256" height="256" fill="none"><g clip-path="url(#clip0_163_288)"><path fill="#F4F2ED" d="M196 0H60C26.863 0 0 26.863 0 60v136c0 33.137 26.863 60 60 60h136c33.137 0 60-26.863 60-60V60c0-33.137-26.863-60-60-60"/><path fill="#EA4335" d="M160.392 154.841H64.278c-10.676 0-19.33 8.655-19.33 19.331s8.654 19.331 19.33 19.331h96.114c10.676 0 19.331-8.655 19.331-19.331s-8.655-19.331-19.331-19.331"/><path fill="#FBBC04" d="m71.416 133.4 77.757 56.494c8.637 6.275 20.726 4.361 27.002-4.277s4.36-20.726-4.277-27.001l-77.757-56.494c-8.638-6.275-20.727-4.36-27.002 4.276-6.275 8.638-4.36 20.727 4.277 27.002"/><path fill="#34A853" d="m179.173 168.013-29.701-91.41c-3.299-10.153-14.205-15.71-24.358-12.41-10.154 3.298-15.711 14.204-12.412 24.358l29.701 91.409c3.299 10.154 14.205 15.71 24.358 12.411s15.711-14.205 12.412-24.358"/><path fill="#4285F4" d="m172.035 76.603-29.701 91.409c-3.299 10.154 2.258 21.059 12.412 24.358s21.059-2.257 24.358-12.411l29.701-91.41c3.299-10.153-2.258-21.059-12.411-24.358-10.154-3.299-21.06 2.258-24.359 12.412"/><path fill="#fff" d="M131.055 92.36c5.328 0 9.648-4.32 9.648-9.648s-4.32-9.647-9.648-9.647-9.647 4.32-9.647 9.647c0 5.328 4.319 9.648 9.647 9.648m-48.562 34.745c5.328 0 9.647-4.319 9.647-9.647s-4.32-9.648-9.647-9.648c-5.328 0-9.648 4.32-9.648 9.648s4.32 9.647 9.648 9.647m-18.096 56.787c5.329 0 9.648-4.32 9.648-9.648s-4.32-9.647-9.648-9.647-9.647 4.319-9.647 9.647 4.32 9.648 9.647 9.648m96.424-.347c5.328 0 9.648-4.32 9.648-9.648s-4.32-9.647-9.648-9.647a9.647 9.647 0 0 0-9.647 9.647c0 5.328 4.319 9.648 9.647 9.648m29.792-91.687c5.328 0 9.647-4.32 9.647-9.648s-4.319-9.647-9.647-9.647-9.648 4.32-9.648 9.647c0 5.328 4.32 9.648 9.648 9.648"/></g><defs><clipPath id="clip0_163_288"><path fill="#fff" d="M0 0h256v256H0z"/></clipPath></defs></svg>