<svg xmlns="http://www.w3.org/2000/svg" width="256" height="256" fill="none"><path fill="#FEB672" d="M196 0H60C26.863 0 0 26.863 0 60v136c0 33.137 26.863 60 60 60h136c33.137 0 60-26.863 60-60V60c0-33.137-26.863-60-60-60"/><path fill="#F4F2ED" d="M128 28C72.775 28 28 72.769 28 128c0 55.225 44.775 100 100 100 55.231 0 100-44.775 100-100 0-55.231-44.769-100-100-100m53.012 48.2a7.4 7.4 0 0 0-2.074-1.062q-1.319-.466-2.657-.87a11.8 11.8 0 0 1-2.618-1.143 6.3 6.3 0 0 1-2-1.881c-.519-.775-.788-1.806-.788-3.075 0-1.231.25-2.331.731-3.25a7.1 7.1 0 0 1 1.957-2.344 8.6 8.6 0 0 1 2.812-1.419 12 12 0 0 1 3.313-.475c1.312 0 2.593.188 3.812.556a8.8 8.8 0 0 1 3.194 1.77l-3.35 3.668a3.8 3.8 0 0 0-1.669-1.1 6.3 6.3 0 0 0-2.081-.388q-.602 0-1.188.132c-.405.09-.796.235-1.162.431a2.6 2.6 0 0 0-.906.781 2.02 2.02 0 0 0-.357 1.2c0 .763.275 1.332.85 1.738.538.381 1.225.712 2.044.975.8.269 1.681.537 2.6.8.912.262 1.775.637 2.569 1.112a6.04 6.04 0 0 1 1.962 1.913c.519.793.775 1.875.775 3.212 0 1.275-.237 2.4-.712 3.357a6.8 6.8 0 0 1-1.938 2.375 8.4 8.4 0 0 1-2.831 1.393 12.4 12.4 0 0 1-3.437.463c-1.5 0-2.907-.231-4.188-.688a10.5 10.5 0 0 1-3.506-2.137l3.481-3.832a5.6 5.6 0 0 0 1.956 1.563 6 6 0 0 0 3.869.438 4.6 4.6 0 0 0 1.187-.463c.347-.2.645-.473.876-.8.228-.349.346-.758.337-1.175a2.07 2.07 0 0 0-.863-1.775M153.45 61.275h4.906v18.688h9.575v4.506H153.45zm-10.675 0h4.906v23.194h-4.906zm-17.212 0h4.106l10.087 23.194h-5.544l-2.018-4.969H122.9l-1.956 4.975h-5.406zm-30.4 0h8.943c1.181 0 2.313.113 3.375.35 1.044.219 1.975.606 2.763 1.138a5.74 5.74 0 0 1 1.881 2.137c.462.894.7 2.031.7 3.375 0 1.612-.425 3.006-1.269 4.144a5.64 5.64 0 0 1-3.512 2.112l-.363.075 5.938 9.863h-5.882l-4.906-9.375h-2.762v9.375h-4.907V61.275m-25.775 6.544a11 11 0 0 1 6.562-6.288c1.525-.562 3.219-.856 5.031-.856 1.85 0 3.582.231 5.15.675a10.1 10.1 0 0 1 4.007 2.219l-3.463 3.781a7.5 7.5 0 0 0-2.331-1.594 8.6 8.6 0 0 0-3.363-.562c-1.125 0-2.143.181-3.05.562a6.9 6.9 0 0 0-2.35 1.606 7.1 7.1 0 0 0-1.5 2.45 8.8 8.8 0 0 0-.519 3.063c0 1.112.17 2.15.52 3.081.343.925.85 1.744 1.5 2.425a6.8 6.8 0 0 0 2.35 1.606c.9.376 1.93.57 3.05.57 1.13 0 2.124-.126 2.956-.388.775-.238 1.418-.488 1.9-.75l.03-.013.063-.056.05-.094V75.32h-4.206v-4.5h8.912v12.05a18.7 18.7 0 0 1-4.668 1.668 24 24 0 0 1-5.038.525c-1.812 0-3.5-.28-5.031-.85a11.02 11.02 0 0 1-6.562-6.293c-.626-1.5-.938-3.188-.938-5.044 0-1.85.313-3.544.938-5.056m32.012 79.593c-1.5.657-3.413 1.407-4.156 1.801-1.375.737-3.513 2.343-4.713 4.187a15.8 15.8 0 0 0-1.981 4.462c-.162.775-.25 1.9-.231 3.225.037 3.088.569 7.2 1.625 10.019 1.212 3.2 1.875 4.269 3.262 7.513a450 450 0 0 1 1.413 3.312.81.81 0 0 1-.069.775 7.26 7.26 0 0 1-2.575 2.369c-2.4 1.294-7.437 1.763-9.944 1.775h-.012c-2.5-.019-7.544-.481-9.938-1.775a7.2 7.2 0 0 1-2.575-2.375.81.81 0 0 1-.075-.769l1.413-3.312c1.394-3.25 2.05-4.313 3.262-7.513 1.063-2.819 1.594-6.931 1.625-10.019a15.5 15.5 0 0 0-.231-3.225 15.7 15.7 0 0 0-1.981-4.456c-1.194-1.844-3.332-3.456-4.707-4.187-1.037-.556-4.33-1.788-5.624-2.5a44 44 0 0 1-5.238-3.463 51 51 0 0 1-5.994-5.881c-2.362-2.938-4.544-6.375-5.594-10.081-1.312-4.6-1.262-6.569-1.437-8.057a.44.44 0 0 1 .419-.487c1.262-.044 5.812-.15 21.731-.175.313 0 .594.187.706.487 4.475 11.85 16.144 21.657 31.55 26.994.625.213.688 1.088.069 1.356m39.175 33.738c1.956 5.2 3.025 6.919 5.288 12.187.962 2.232 1.862 4.357 2.3 5.382.181.418.125.875-.119 1.262a11.84 11.84 0 0 1-4.182 3.85c-3.887 2.1-12.081 2.863-16.143 2.875h-.019c-4.063-.012-12.25-.775-16.144-2.875a11.8 11.8 0 0 1-4.181-3.85 1.33 1.33 0 0 1-.113-1.262c.438-1.025 1.332-3.15 2.288-5.375 2.269-5.275 3.338-7 5.294-12.194 1.725-4.581 2.593-11.25 2.65-16.275a25.6 25.6 0 0 0-.375-5.231c-.438-1.988-1.782-5.007-3.219-7.238-1.938-3.006-5.412-5.606-7.65-6.793-1.687-.907-7.025-2.907-9.125-4.063a72 72 0 0 1-8.506-5.612c-2.606-2.044-7.731-7.063-9.731-9.563-3.844-4.762-7.382-10.35-9.094-16.369-2.125-7.468-2.038-10.662-2.325-13.075a.71.71 0 0 1 .675-.8c2.593-.094 13.656-.331 59.569-.287 45.912-.044 56.975.194 59.562.287a.713.713 0 0 1 .681.8c-.287 2.413-.206 5.607-2.325 13.075-1.712 6.019-5.25 11.606-9.094 16.375-2 2.488-7.125 7.513-9.731 9.557-2.344 1.825-5.831 4.137-8.512 5.612-2.1 1.156-7.438 3.156-9.125 4.063-2.231 1.187-5.7 3.787-7.644 6.793-1.437 2.231-2.781 5.25-3.212 7.231-.275 1.257-.401 3.101-.376 5.238.044 5.025.913 11.694 2.638 16.275m61.463-43.775a51 51 0 0 1-5.988 5.881c-1.444 1.132-3.594 2.55-5.244 3.463-1.293.712-4.581 1.944-5.612 2.5-1.375.731-3.519 2.337-4.719 4.187-.881 1.369-1.712 3.231-1.975 4.456a15.6 15.6 0 0 0-.231 3.225c.031 3.088.562 7.2 1.625 10.019 1.212 3.2 1.869 4.269 3.256 7.506l1.419 3.319a.8.8 0 0 1-.075.769 7.26 7.26 0 0 1-2.575 2.375c-2.4 1.294-7.438 1.756-9.938 1.775h-.012c-2.5-.019-7.55-.481-9.938-1.775a7.24 7.24 0 0 1-2.581-2.375.82.82 0 0 1-.075-.769c.269-.637.825-1.944 1.419-3.312 1.387-3.25 2.05-4.313 3.25-7.513 1.062-2.819 1.6-6.931 1.631-10.019a16 16 0 0 0-.225-3.225 15.8 15.8 0 0 0-1.981-4.462c-1.2-1.844-3.338-3.45-4.713-4.187-.75-.394-2.668-1.144-4.156-1.807-.619-.262-.563-1.137.062-1.356 15.413-5.331 27.082-15.138 31.557-26.994a.74.74 0 0 1 .706-.481c15.913.025 20.469.125 21.731.169a.436.436 0 0 1 .413.493c-.163 1.482-.125 3.45-1.431 8.05-1.05 3.713-3.238 7.15-5.6 10.088m-94.313-69.144a2.53 2.53 0 0 1-.45 1.575 2.6 2.6 0 0 1-1.1.819 4.8 4.8 0 0 1-1.45.313q-.737.045-1.475.05h-3.187v-5.6h3.512c.469 0 .95.024 1.444.1.5.062.95.2 1.331.387.395.196.733.491.981.856.277.45.412.973.388 1.5zm19.737-.625 3.075 7.788h-6.118z"/></svg>