<svg xmlns="http://www.w3.org/2000/svg" width="256" height="256" fill="none"><path fill="#F4F2ED" d="M196 0H60C26.863 0 0 26.863 0 60v136c0 33.137 26.863 60 60 60h136c33.137 0 60-26.863 60-60V60c0-33.137-26.863-60-60-60"/><path fill="#2DA6B0" fill-rule="evenodd" d="M101.149 123.06h6.072q2.828 0 4.503-.755t2.565-2.165 1.204-3.474.314-4.782q0-2.72-.314-4.783t-1.309-3.524q-.995-1.46-2.774-2.165-1.78-.705-4.712-.705h-5.549zm-10.68-32.43h17.171q18.847 0 18.847 21.939 0 6.508-2.042 11.18t-7.172 7.505l11.517 34.116h-11.308l-10.115-32.465h-6.218v32.465h-10.68zm44.603 0h16.02q4.398 0 7.748 1.154 3.35 1.155 6.073 4.094 2.722 2.94 3.769 6.876t1.047 10.655c0 3.289-.263 5.643-.647 7.988-.384 2.344-1.623 6.423-6.491 9.19-3.045 1.731-7.416 2.353-11.394 2.353h-5.445v32.43h-10.68zm10.68 32.43h5.131q3.246 0 5.025-.831 1.78-.832 2.618-2.263t.995-3.464.157-4.526q0-2.309-.157-4.387-.157-2.079-.943-3.603t-2.46-2.401-4.817-.878h-5.549zm65.859 25.62q0 3.463-1.309 6.613-1.31 3.149-3.613 5.511a17.9 17.9 0 0 1-5.392 3.779Q198.208 166 194.649 166q-3.037 0-6.178-.84a15 15 0 0 1-5.654-2.887q-2.513-2.046-4.136-5.406t-1.623-8.502v-41.15q0-3.673 1.257-6.823t3.56-5.458q2.303-2.31 5.497-3.622T194.439 90q3.665 0 6.806 1.312t5.444 3.674q2.304 2.362 3.613 5.669t1.309 7.19v4.199h-10.68v-3.569q0-3.149-1.78-5.458t-4.817-2.31q-3.978 0-5.287 2.467-1.31 2.468-1.309 6.246v38.21q0 3.254 1.414 5.458t5.078 2.205q1.047 0 2.251-.368a6.2 6.2 0 0 0 2.199-1.207q.995-.84 1.623-2.309.627-1.47.628-3.674v-3.674h10.68zm20.924-20.775c0-2.728-2.204-4.94-4.923-4.94H200.94v9.88h21.749v11.02h-3.352l8.332 11.78 8.331-11.78h-3.465zM45.237 132.94v14.795q0 4.619 1.57 8.03 1.572 3.412 4.136 5.669a17.8 17.8 0 0 0 5.76 3.411Q59.894 166 63.14 166t6.44-1.155a17.8 17.8 0 0 0 5.758-3.411q2.565-2.257 4.136-5.669 1.57-3.411 1.57-8.03v-24.654l-19.136-.029-.024 9.885h8.48v14.798q0 3.884-2.146 5.721-2.145 1.836-5.078 1.837-2.931 0-5.078-1.837-2.145-1.838-2.146-5.721v-39.47q0-3.883 2.146-5.721 2.147-1.837 5.078-1.837 2.933 0 5.078 1.837 2.147 1.838 2.147 5.721v3.779h10.68v-3.779q0-4.513-1.571-7.978t-4.136-5.72a17.8 17.8 0 0 0-5.758-3.412Q66.387 90 63.14 90t-6.439 1.155a17.8 17.8 0 0 0-5.759 3.411q-2.565 2.257-4.135 5.721t-1.57 7.978v14.795H34.31v-11.02h3.352l-8.331-11.78L21 112.04h3.465V128c0 2.728 2.204 4.94 4.923 4.94z" clip-rule="evenodd"/></svg>