<svg xmlns="http://www.w3.org/2000/svg" width="256" height="256" fill="none"><path fill="#282828" d="M196 0H60C26.863 0 0 26.863 0 60v136c0 33.137 26.863 60 60 60h136c33.137 0 60-26.863 60-60V60c0-33.137-26.863-60-60-60"/><path fill="#493310" fill-rule="evenodd" d="M180.968 169.569c5.91-4.4 8.941-9.965 10.349-16.853 6.854 6.778 9.269 14.75 8.704 23.754-.767 12.21-6.375 21.108-17.953 25.888-.907.376-1.725 1.364-2.224 2.267-5.427 9.833-13.41 16.056-24.661 17.834-.943.149-1.884.686-2.695 1.235-13.379 9.028-34.645 8.995-48.093-.063a7.95 7.95 0 0 0-3.013-1.216c-10.117-1.749-17.802-7.085-23.003-15.843-1.511-2.549-3.269-4.263-6.002-5.511-19.525-8.912-19.192-37.802-6.977-47.867 1.191 2.942 2.111 6.033 3.65 8.779 1.554 2.771 3.72 5.198 5.617 7.776l.93-.254c.321-3.229.75-6.452.936-9.688.262-4.556.462-9.124.475-13.689.016-5.571-2.067-9.91-7.33-12.62-3.852-1.985-7.697-4.182-11.05-6.897-8.196-6.637-7.989-15.583.296-22.002 1.99-1.539 3.17-3.298 3.403-5.787.49-5.246 1.314-10.476-2.443-15.102-1.042-1.282-1.566-3.062-2.064-4.696-2.427-7.94 1.48-14.27 9.71-15.561 2.371-.373 3.662-.986 3.946-3.747.506-4.92-.551-8.3-5.084-10.67-3.609-1.89-7.632-2.988-11.617-4.493 4.656-6.689 11.579-9.739 19.693-10.228 10.727-.65 19.138 4.248 26.294 11.76 1.188 1.246 2.182 2.687 3.433 3.86.619.582 1.637 1.064 2.427 1 .41-.035.963-1.334 1.029-2.096.537-6.298 3.382-11.382 8.026-15.526.791-.706 1.793-1.176 2.718-1.768l2.278 10.67.989-.01c1.632-8.548 7.464-12.903 15.102-15.65-.16 2.559-.534 4.956-.394 7.321.136 2.267.804 4.504 1.323 7.186 4.344-3.03 8.125-6.175 13.079-6.045-1.067 4.058-2.225 8.01-3.112 12.022-.455 2.059.114 4.01 2.733 3.956.958-.02 2.14-.766 2.804-1.54 5.644-6.558 11.902-12.17 20.609-14.327 11.105-2.753 22.283.972 28.61 9.813-1.202.295-2.333.481-3.399.854-2.755.966-5.674 1.673-8.176 3.099-5.302 3.021-6.151 5.876-4.881 12.655.115.611 1.088 1.256 1.796 1.516 1.126.412 2.394.422 3.553.765 6.77 1.993 10.004 7.601 8.071 14.37a27.2 27.2 0 0 1-3.093 6.885c-3.444 5.481-2.166 11.127-.755 16.715.313 1.238 1.957 2.222 3.125 3.154 7.138 5.688 7.826 14.364.971 20.434-3.812 3.376-8.435 5.909-12.905 8.45-4.106 2.332-6.521 5.741-6.535 10.233-.034 8.498.487 16.997.78 25.498m-29.509-14.625-.033.025a.51.51 0 0 0 .185.47l.516 1.236c1.833 4.812 3.59 9.655 5.517 14.427 2.3 5.699.709 5.488 7.999 4.83l6.026-1.103c3.154-.061 3.975-1.635 3.727-4.704-.603-7.461-.822-14.953-1.244-22.431-.539-9.533 3.19-16.334 12.122-20.378 3.245-1.468 6.33-3.727 8.849-6.26 3.831-3.856 2.742-9.713-1.935-12.395l-.402 3.302c-3.551-5.555-4.58-11.196-5.508-16.873l-.095-3.029a.464.464 0 0 0 .044-.57l1.449-10.974.561.083.816 3.437c1.172-2.051 2.136-3.469 2.832-5.003 2.729-6.04.273-10.08-6.434-9.993-3.999.05-8.079.644-11.961 1.629-10.133 2.57-18.441 8.627-26.713 14.68-.826.606-1.691 1.16-2.539 1.736l-.392-.458 4.292-6.147 1.057-1.233a.58.58 0 0 0 .265-.397l16.051-12.858-9.758-5.206-.132.022-.708-.523c-11.27-5.287-23.256-6.365-35.344-4.92-6.628.79-13.057 3.249-19.576 4.953-3.84 1.492-7.491 3.272-9.98 6.015l16.042 13.04-.006-.027.578.796 4.517 6.51c-5.098-2.855-9.698-6.111-14.43-9.16-7.33-4.722-15.278-7.878-24.043-8.495-3.71-.26-8.097-.706-10.026 3.269-1.996 4.114.724 7.75 3.017 11.132.086.127.353.132.65.232l.37-3.208c.74 1.571 1.197 3.124 1.379 4.708.356 3.11.56 6.236.829 9.357-.605 2.955-1 5.977-1.874 8.852-.892 2.936-2.252 5.728-3.408 8.585l-.658-.305-.19-2.939c-5.274 3.216-5.577 9.808-.508 13.85 3.062 2.441 6.562 4.401 10.044 6.243 6.549 3.461 9.526 9.002 9.422 16.125-.117 8.199-.613 16.395-1.085 24.586-.254 4.408-.385 4.401 3.62 5.338l6.607 1.129c2.102-.17 4.812 1.77 6.09-1.35 2.522-6.157 4.843-12.396 7.246-18.601a.8.8 0 0 0 .15-.495l.612-1.3 2.446-4.669.73.258c-1.093 10.94-4.947 21.254-8.231 31.978 18.313 0 36.126.001 53.937-.01.287 0 .572-.137.764-.187l-8.904-33.765 1.003-.308 3.318 6.699zm20.866 50.457c-6.724-.333-9.063 1.645-10.655 9.233 4.381-2.326 8.221-4.945 10.609-9.272l.092-.228zm19.538-38.966c-5.763 11.813-16.688 14.51-28.055 15.806l5.425 10.347-.842 6.782c9.107-.564 17.099-3.297 22.24-11.141 4.787-7.305 4.578-15.383 2.036-23.607zm-127.3-.926c-.032-.191-.036-.534-.105-.549-.207-.043-.631.02-.64.083-.431 3.371-1.216 6.755-1.158 10.124.2 11.759 6.549 19.788 17.9 22.902 2.61.715 5.35.959 8.14 1.441l-1.03-6.92 5.596-10.404c-12.037-1.127-22.97-4.441-28.702-16.677m94.324 41.066.65-1.195c.967-2.211 2.098-4.367 2.875-6.642 2.499-7.337-.32-11.334-8.083-11.654a35 35 0 0 0-1.518-.03c-16.202-.001-32.405-.018-48.606.023a21.4 21.4 0 0 0-4.798.556c-4.81 1.129-6.7 3.964-5.432 8.717.824 3.094 2.288 6.018 3.465 9.02l.61 1.118.457.753c2.636 3.407 4.742 7.466 8.001 10.103 10.715 8.674 22.979 9.39 35.582 4.995 7.772-2.712 13.37-8.193 16.799-15.762zm31.87-164.064c-12.037-5.262-24.434-.656-31.578 11.74l4.194 2.036c5.494-8.163 13.106-13.225 22.582-12.255 1.343.139 2.804-.853 4.802-1.521m-123.732.513c1.788.337 3.58.98 5.365.957 5.383-.072 10.28 1.217 14.342 4.799 2.542 2.24 4.793 4.81 7.3 7.362l3.827-1.964c-6.447-11.832-19.722-17.031-30.834-11.154m113.933 5.848c-.508.08-1.375.14-2.2.361-4.27 1.143-6.873 4.15-8.442 8.051-.48 1.192-.744 3.144-.104 3.973 1.327 1.72 2.491 4.083 5.791 2.967 2.214-.748 2.797-2.028 3.106-3.877.608-3.65 1.18-7.306 1.849-11.475m-105.009.167c.495 2.799.966 5.441 1.426 8.084.241 1.39.434 2.785.696 4.17.55 2.888 3.328 3.65 5.06 3.07 1.822-.61 4.109-2.97 4.283-4.753.473-4.821-6.351-10.6-11.465-10.571m8.574 156.387c2.674 3.973 6.22 7.026 11.4 9.358-2.805-5.133-3.68-11.287-11.4-9.358" clip-rule="evenodd"/><path fill="#F5A900" fill-rule="evenodd" d="M69.888 94.491c-.269-3.122-.473-6.248-.829-9.356a15 15 0 0 0-1.378-4.708l-.371 3.207c-.297-.1-.564-.103-.65-.232-2.292-3.38-5.012-7.017-3.016-11.132 1.929-3.974 6.315-3.53 10.026-3.269 8.764.618 16.715 3.775 24.042 8.495 4.733 3.05 9.332 6.305 14.431 9.16l-4.517-6.51-.579-.794.008.026c-.995-2.365-1.821-4.818-3.021-7.075-2.005-3.773-4.856-7.263-3.043-11.98 6.519-1.707 12.948-4.163 19.577-4.954 12.088-1.444 24.073-.366 35.344 4.922l.707.52.129-.019c.145 4.16-1.451 7.707-3.548 11.204-1.249 2.086-1.849 4.558-2.741 6.858a.6.6 0 0 1-.264.399l-1.058 1.231-4.293 6.147.393.459c.847-.577 1.712-1.131 2.538-1.736 8.272-6.053 16.579-12.113 26.713-14.681 3.882-.984 7.964-1.578 11.961-1.629 6.708-.087 9.164 3.953 6.434 9.993-.696 1.536-1.66 2.954-2.832 5.003l-.816-3.437-.56-.082-1.449 10.973-.137.168.09.404.096 3.028c-.321.863-.918 1.723-.925 2.587-.061 7.019.564 13.883 5.948 20.053-4.268 2.169-8.043 4.258-11.96 6.033-3.552 1.613-7.241 3.053-8.517 7.143-1.058 3.396-1.665 6.932-2.466 10.375l-1.973-5.473c-.576 13.345.034 26.407 4.281 39.022l-6.027 1.103c-4.025-6.122-8.039-12.251-12.101-18.349-.285-.427-.933-.611-1.413-.908l-.516-1.236.259-.366-.443-.104.034-.025-.442-.738-3.318-6.7-1.002.309 8.903 33.765c-.191.049-.478.186-.763.186-17.812.011-35.623.01-53.937.01 3.282-10.725 7.138-21.038 8.231-31.978l-.731-.257-2.448 4.668-.611 1.301a.83.83 0 0 1-.149.494c-.593.473-1.35.838-1.755 1.438a642 642 0 0 0-8.763 13.304c-1.06 1.66-1.886 3.468-2.817 5.209l-6.607-1.129c4.442-12.584 4.994-25.62 4.406-38.808l-2.09 5.46c-.447-8.921-3.103-15.65-12.523-18.403-3.592-1.05-6.715-3.704-9.303-5.194 1.614-4.097 3.449-7.136 3.929-10.379.636-4.258.2-8.672.222-13.016m68.292.671.611-.631 1.49-1.728c-3.87.38-7.638 1.052-11.404 1.032-3.798-.021-7.594-.73-11.39-1.136l-.791-.22.791.219 1.213 2.438c6.769 7.693 12.423 7.846 19.231.516.132-.142.196-.347.291-.521zm-37.751 40.774 7.259-4.487c1.631-3.204 3.576-6.3 4.751-9.663.561-1.607.866-2.491 2.615-2.951 3.839-1.005 5.812-3.597 5.715-6.938l-3.846.47c-4.114-2.336-7.232-5.582-9.762-9.617-1.408-2.245-3.599-4.082-5.676-5.814-4.426-3.693-9.968-4.534-15.383-4.649-3.326-.07-6.687 1.513-10.032 2.354q-.153.148-.336.038l-.882.376-.17.247c-.015.083.028.24.082.26 1.204.428 2.412.841 3.831 1.332-3.226 4.051-2.82 7.898-.356 12.105l1.28-4.505.616.058.311 3.184.408 1.413.237.945c-.335 10.207 8.793 17.557 22.364 17.307l-3.018 8.545-.138.246zm56.038-.002.241.146-.251-.136-2.911-8.639c15.817 1.563 22.307-9.19 22.877-19.012l.625-3.707.514.02 1.187 4.413c2.391-4.25 3.005-8.122-.339-12.044l3.969-1.56-1.652-.647c-.807-.491-1.58-1.335-2.426-1.413-3.646-.343-7.331-.79-10.967-.588-7.224.399-13.169 3.547-17.243 9.637-2.708 4.048-5.626 7.774-10.116 9.961l-4.159-.471c.664 3.959 2.921 6.018 6.391 7.116.821.26 1.651 1.142 2.055 1.952 1.735 3.455 3.312 6.989 4.946 10.495z" clip-rule="evenodd"/><path fill="#F5A800" fill-rule="evenodd" d="M97.437 205.37c-1.177-3-2.641-5.925-3.465-9.02-1.268-4.753.621-7.588 5.431-8.717a21.4 21.4 0 0 1 4.799-.556c16.203-.039 32.405-.024 48.606-.023q.76-.001 1.518.03c7.763.318 10.581 4.317 8.082 11.654-.774 2.275-1.905 4.431-2.875 6.642l-.649 1.195-.002.003c-2.095 1.362-4.134 2.821-6.297 4.065-5.438 3.121-11.364 4.535-17.572 5.28-8.491 1.021-16.775.374-24.72-2.672-4.096-1.571-7.871-3.981-11.791-6.01l-.457-.753zm58.351-4.903.668-1.2c1.856-4.78 1.025-6.076-4.027-6.135-3.752-.041-7.507-.073-11.259.01-3.642.079-4.451 1.256-3.48 4.742.439 1.82.625 3.754 1.368 5.44 1.891 4.298 5.31 6.696 8.336 6.19 4.12-.687 7.814-4.672 8.412-9.071zm-54.697-.003-.008-.015c.688 4.57 3.45 7.382 7.698 8.759 2.996.969 5.631-.383 7.087-2.72 1.589-2.554 2.298-5.655 3.391-8.518 1.042-3.567.306-4.708-3.32-4.815-3.239-.097-6.483-.046-9.726-.02-6.96.055-7.095.223-5.753 6.701z" clip-rule="evenodd"/><path fill="#E08700" fill-rule="evenodd" d="M69.888 94.491c-.023 4.344.414 8.758-.217 13.011-.482 3.243-2.317 6.282-3.929 10.379 2.588 1.49 5.71 4.144 9.302 5.194 9.42 2.753 12.077 9.482 12.524 18.403l2.09-5.459c.587 13.187.034 26.221-4.406 38.807-4.006-.935-3.874-.928-3.62-5.338.473-8.189.967-16.387 1.084-24.586.104-7.123-2.873-12.663-9.422-16.125-3.482-1.84-6.98-3.8-10.044-6.243-5.069-4.043-4.766-10.634.51-13.85l.189 2.939.658.305c1.155-2.855 2.515-5.649 3.407-8.585.874-2.875 1.27-5.895 1.874-8.852m101.78 80.34c-4.247-12.617-4.857-25.679-4.281-39.022l1.973 5.473c.799-3.445 1.408-6.981 2.466-10.375 1.276-4.088 4.965-5.531 8.517-7.143 3.915-1.775 7.692-3.862 11.96-6.033-5.384-6.17-6.009-13.034-5.948-20.053.007-.864.604-1.725.925-2.587.928 5.677 1.957 11.32 5.507 16.874l.403-3.302c4.675 2.682 5.766 8.539 1.935 12.394-2.517 2.536-5.603 4.792-8.849 6.261-8.934 4.044-12.663 10.845-12.123 20.378.422 7.477.642 14.97 1.245 22.43.244 3.07-.577 4.644-3.73 4.705m21.647-62.487-.084.161.127.017z" clip-rule="evenodd"/><path fill="#E08600" fill-rule="evenodd" d="M98.505 207.241c3.92 2.029 7.695 4.439 11.791 6.01 7.944 3.046 16.229 3.693 24.72 2.672 6.208-.745 12.134-2.159 17.573-5.28 2.164-1.243 4.201-2.703 6.297-4.065-3.429 7.57-9.027 13.051-16.8 15.763-12.602 4.394-24.866 3.677-35.581-4.995-3.257-2.639-5.366-6.698-8-10.105" clip-rule="evenodd"/><path fill="#fff" fill-rule="evenodd" d="M64.564 165.509c5.733 12.236 16.665 15.55 28.702 16.679l-5.596 10.403c-14.4-1.177-23.677-12.05-23.106-27.082m104.669 27.081q-2.711-5.175-5.425-10.348c11.368-1.297 22.292-3.994 28.055-15.805.181.749.542 1.502.516 2.244-.426 12.371-8.91 22.789-23.146 23.909" clip-rule="evenodd"/><path fill="#C7C6C6" fill-rule="evenodd" d="M64.564 165.509c-.57 15.032 8.707 25.904 23.106 27.081l1.03 6.92c-2.792-.482-5.53-.726-8.14-1.441-11.351-3.112-17.7-11.143-17.9-22.902-.058-3.368.727-6.752 1.159-10.124.008-.065.431-.127.64-.083.068.015.072.358.105.549m104.669 27.081c14.236-1.12 22.72-11.538 23.147-23.911.027-.742-.336-1.495-.516-2.244l.805-1.813c2.542 8.224 2.751 16.302-2.036 23.607-5.142 7.845-13.133 10.577-22.241 11.141z" clip-rule="evenodd"/><path fill="#F0A500" fill-rule="evenodd" d="M190.757 42.51c-1.998.669-3.459 1.66-4.802 1.522-9.476-.97-17.086 4.092-22.582 12.255l-4.194-2.036c7.144-12.396 19.541-17.002 31.578-11.74m-123.732.514c11.112-5.877 24.387-.678 30.834 11.153l-3.826 1.963c-2.507-2.552-4.76-5.12-7.301-7.362-4.062-3.58-8.96-4.87-14.341-4.798-1.786.024-3.578-.618-5.366-.956" clip-rule="evenodd"/><path fill="#DE8500" fill-rule="evenodd" d="M180.958 48.872c-.671 4.17-1.241 7.825-1.849 11.475-.309 1.85-.892 3.129-3.106 3.877-3.298 1.116-4.464-1.246-5.791-2.967-.64-.83-.377-2.78.104-3.973 1.568-3.902 4.17-6.908 8.442-8.05.825-.222 1.693-.283 2.2-.362M75.95 49.04c5.113-.028 11.938 5.748 11.464 10.573-.174 1.783-2.46 4.142-4.282 4.752-1.733.58-4.51-.181-5.061-3.07-.262-1.384-.455-2.782-.696-4.17-.46-2.644-.931-5.286-1.425-8.085" clip-rule="evenodd"/><path fill="#E08600" fill-rule="evenodd" d="M100.993 60.322c-1.814 4.718 1.038 8.208 3.043 11.981 1.198 2.257 2.025 4.708 3.021 7.075L91.014 66.34c2.486-2.745 6.138-4.525 9.979-6.017" clip-rule="evenodd"/><path fill="#DE8600" fill-rule="evenodd" d="M150.459 78.854c.892-2.3 1.492-4.772 2.741-6.858 2.097-3.5 3.693-7.043 3.548-11.204 3.298 1.756 6.593 3.513 9.762 5.204zm1.668 77.823c.48.296 1.128.481 1.413.908 4.062 6.098 8.075 12.226 12.101 18.349-7.289.657-5.699.868-7.998-4.83-1.926-4.772-3.683-9.615-5.516-14.427m-60.27 19.277c.933-1.741 1.757-3.55 2.817-5.21a655 655 0 0 1 8.763-13.304c.406-.6 1.162-.964 1.756-1.438-2.405 6.205-4.726 12.445-7.247 18.601-1.277 3.121-3.987 1.181-6.09 1.351" clip-rule="evenodd"/><path fill="#ECA200" fill-rule="evenodd" d="M84.523 205.426c7.72-1.929 8.595 4.225 11.4 9.358-5.18-2.334-8.728-5.385-11.4-9.358m87.756-.064c-2.388 4.325-6.228 6.946-10.609 9.272 1.594-7.588 3.933-9.566 10.655-9.233zm.046.039.045-.268-.091.229z" clip-rule="evenodd"/><path fill="#DE8600" fill-rule="evenodd" d="m151.426 154.969.444.104-.259.366a.51.51 0 0 1-.185-.47" clip-rule="evenodd"/><path fill="#E08700" fill-rule="evenodd" d="m187.183 92.063-.091-.404.137-.168a.46.46 0 0 1-.046.572" clip-rule="evenodd"/><path fill="#49330E" fill-rule="evenodd" d="M149.209 131.457c-1.633-3.504-3.211-7.04-4.945-10.495-.404-.808-1.235-1.692-2.056-1.952-3.47-1.1-5.726-3.158-6.391-7.116l4.159.471c.782.054 1.58.242 2.34.14 3.638-.493 6.122-2.797 8.54-5.346 8.104-8.545 17.61-13.825 29.876-12.39l1.652.648-3.969 1.56c3.343 3.922 2.729 7.794.339 12.043l-1.187-4.412-.514-.02-.625 3.709c-1.744 4.096-3.404 8.232-7.658 10.53-6.192 3.343-12.408 4.805-18.671.363-2.675 4.065-1.094 8.21-.89 12.267m20.495-22.979v-7.629c-6.419 3.778-11.898 7.451-16.29 12.551l-1.811 2.189c6.129 4.596 18.115 1.573 18.101-7.111" clip-rule="evenodd"/><path fill="#49330F" fill-rule="evenodd" d="m81.09 110.092-.238-.945-.407-1.412-.312-3.185-.616-.058-1.28 4.505c-2.464-4.206-2.87-8.054.357-12.104-1.42-.49-2.628-.903-3.831-1.332-.055-.02-.1-.178-.083-.26l.17-.248.882-.376c.12.073.234.063.336-.038 4.593.505 9.329.472 13.746 1.637 6.939 1.832 12.296 6.429 17.09 11.673 2.665 2.914 5.728 5.102 10.017 4.416l3.846-.47c.097 3.343-1.876 5.933-5.715 6.939-1.749.459-2.054 1.343-2.614 2.95-1.176 3.365-3.121 6.459-4.751 9.662.407-4.105 1.803-8.285-.894-12.319-3.264 2.438-6.823 3.331-10.672 2.641-7.019-1.263-12.216-4.955-15.032-11.676m22.438 3.252c-4.395-5.085-9.861-8.764-16.274-12.5v7.624c.103 8.869 12.214 11.681 18.01 7.196-.173-.319-.319-.686-.551-.984-.364-.47-.788-.894-1.185-1.336" clip-rule="evenodd"/><path fill="#E08700" fill-rule="evenodd" d="M149.209 131.457c-.204-4.058-1.785-8.202.889-12.269 6.262 4.441 12.479 2.98 18.67-.363 4.255-2.299 5.915-6.434 7.659-10.53-.571 9.82-7.062 20.573-22.877 19.01l2.911 8.639.008-.01zm-68.12-21.365c2.816 6.721 8.012 10.413 15.034 11.676 3.85.692 7.408-.203 10.672-2.641 2.695 4.034 1.299 8.214.893 12.319l-7.259 4.49.008.008 3.018-8.545c-13.571.25-22.7-7.1-22.366-17.307" clip-rule="evenodd"/><path fill="#DE8600" fill-rule="evenodd" d="M116.923 112.365c-4.289.686-7.352-1.502-10.018-4.416-4.793-5.244-10.15-9.841-17.089-11.673-4.418-1.167-9.154-1.134-13.746-1.636 3.345-.841 6.706-2.425 10.03-2.355 5.416.116 10.958.957 15.384 4.65 2.078 1.732 4.268 3.568 5.675 5.813 2.532 4.036 5.65 7.281 9.764 9.617" clip-rule="evenodd"/><path fill="#DF8600" fill-rule="evenodd" d="M180.729 94.77c-12.264-1.436-21.772 3.844-29.876 12.389-2.417 2.549-4.903 4.853-8.541 5.346-.76.104-1.558-.086-2.339-.14 4.49-2.187 7.41-5.913 10.117-9.961 4.073-6.09 10.019-9.238 17.242-9.637 3.638-.201 7.321.247 10.967.588.849.081 1.622.923 2.43 1.415m-62.031.366-1.213-2.438v.001c3.796.407 7.591 1.115 11.391 1.136 3.765.02 7.533-.653 11.404-1.032l-1.489 1.728-.611.631.041-.035c-3.801.64-7.593 1.682-11.409 1.78-2.687.073-5.409-1.135-8.114-1.771" clip-rule="evenodd"/><path fill="#52380B" fill-rule="evenodd" d="M118.698 95.136c2.705.638 5.427 1.844 8.112 1.773 3.816-.1 7.608-1.14 11.409-1.78-.095.175-.16.38-.292.52-6.806 7.333-12.458 7.18-19.229-.513" clip-rule="evenodd"/><path fill="#47310D" fill-rule="evenodd" d="M137.69 197.884c-.971-3.486-.161-4.663 3.48-4.742 3.752-.083 7.507-.051 11.259-.01 5.052.059 5.885 1.355 4.027 6.135l-.668 1.201.017-.025c-.877.949-1.729 1.924-2.638 2.845-4.118 4.18-8.634 3.91-12.198-.757-1.149-1.505-2.189-3.094-3.279-4.647" clip-rule="evenodd"/><path fill="#47310E" fill-rule="evenodd" d="M100.46 199.835c-1.342-6.48-1.207-6.649 5.753-6.701 3.243-.027 6.487-.078 9.726.019 3.626.108 4.362 1.25 3.32 4.815-1.23 1.728-2.397 3.505-3.703 5.175-3.054 3.905-7.391 4.151-11.036.676-1.16-1.106-2.293-2.247-3.438-3.37l.006.015z" clip-rule="evenodd"/><path fill="#DC8400" fill-rule="evenodd" d="M101.083 200.449c1.146 1.125 2.278 2.264 3.439 3.37 3.645 3.473 7.982 3.229 11.036-.676 1.306-1.67 2.473-3.447 3.703-5.175-1.093 2.864-1.801 5.964-3.391 8.518-1.458 2.337-4.092 3.689-7.087 2.72-4.25-1.375-7.012-4.187-7.7-8.757" clip-rule="evenodd"/><path fill="#DE8500" fill-rule="evenodd" d="M137.69 197.884c1.09 1.552 2.13 3.141 3.279 4.647 3.564 4.667 8.08 4.937 12.198.757.909-.921 1.759-1.896 2.638-2.845-.599 4.399-4.293 8.384-8.412 9.071-3.025.506-6.446-1.892-8.336-6.19-.741-1.686-.928-3.62-1.367-5.44" clip-rule="evenodd"/><path fill="#493310" fill-rule="evenodd" d="m193.315 112.344.043.177-.127-.016z" clip-rule="evenodd"/><path fill="#fff" fill-rule="evenodd" d="M153.414 113.402c4.392-5.102 9.873-8.775 16.29-12.551v7.629c-2.647 3.374-5.639 6.387-10.248 6.382-2.014-.004-4.029-.946-6.042-1.46" clip-rule="evenodd"/><path fill="#C5C4C3" fill-rule="evenodd" d="M153.414 113.402c2.015.514 4.028 1.456 6.042 1.459 4.609.006 7.601-3.007 10.248-6.383.014 8.684-11.972 11.707-18.101 7.111z" clip-rule="evenodd"/><path fill="#fff" fill-rule="evenodd" d="M87.255 108.467v-7.624c6.41 3.737 11.878 7.414 16.273 12.5-2.532 2.283-7.669 2.354-11.378-.193-1.838-1.261-3.277-3.104-4.896-4.683" clip-rule="evenodd"/><path fill="#C5C4C3" fill-rule="evenodd" d="M87.255 108.467c1.618 1.579 3.057 3.423 4.895 4.684 3.71 2.547 8.846 2.476 11.378.193.399.444.822.866 1.185 1.336.232.298.378.664.551.984-5.796 4.483-17.907 1.671-18.01-7.197" clip-rule="evenodd"/></svg>