<svg xmlns="http://www.w3.org/2000/svg" fill="none" viewBox="0 0 256 256"><path fill="#282828" d="M196 0H60C26.863 0 0 26.863 0 60v136c0 33.137 26.863 60 60 60h136c33.137 0 60-26.863 60-60V60c0-33.137-26.863-60-60-60"/><path fill="#010101" d="M57.232 113.669c-6.862 3.213-25.025 17.679-28.523 21.966-3.633 4.286-4.709-2.411-.942-13.528 2.96-8.974 10.494-21.163 23.14-31.61 7.4-6.028 23.68-14.733 33.636-19.823 2.018-1.072 28.119-12.055 51.395-17.547 2.018-.536-2.422 3.349-3.095 5.492-3.498 10.18-73.325 53.844-73.325 53.844zm98.348 122.823c1.211 7.232.135 7.768-7.399 8.706-7.535.938-13.051-1.876-15.069-3.75-2.018-1.876-2.421-6.028-.403-9.778 1.211-2.411 2.422-3.215 3.095-6.161.673-2.813 1.211-3.483 1.749-4.554.537-.938.673-1.876.807-8.439.134-6.562 0-18.886.673-24.109.673-5.357 23.949 2.411 23.949 2.411s-5.517 13.662-6.997 17.01-1.345 9.778-1.345 11.117-.538 4.018-.942 4.152 1.345 3.616.537 5.626c-.538 1.875 1.211 6.697 1.345 7.769m8.88-204.795c-.807-5.09 0-15.136 1.076-16.743 3.365-4.554 21.123-5.09 24.891.268 1.614 2.41 1.48 8.036 1.211 11.653-.269 3.616-1.211 11.384-1.346 13.93-.134 1.875-19.642 4.821-23.948-.268-1.211-1.34-1.884-8.84-1.884-8.84m39.555 191.802c8.207 5.894 14.531 6.965 18.701 9.108 4.171 2.144 3.095 6.296-3.901 7.501-5.651 1.071-14.531-1.072-20.45-1.072-5.92 0-19.105.67-22.604-1.74-4.035-2.813-2.287-8.037-2.287-8.037 1.077-2.946 3.767-9.51 2.96-14.867s-1.884-8.304-3.902-13.261c-2.018-4.955-3.497-17.143-1.614-17.813 1.884-.67 1.345 0 3.767.535s5.113 1.339 10.36 1.339 11.032-.804 13.051-1.205c2.018-.402 3.632-.804 2.959 3.348-.672 4.152-2.69 11.921-2.825 17.948-.134 6.028-.134 12.993.269 14.198s3.364 2.545 5.516 4.018"/><path fill="#8AC640" d="M175.224 45.091c-14.799 12.725-43.457 16.207-85.971 32.548-10.898 4.152-39.959 16.608-46.955 29.601 23.544-13.528 32.29 5.089 34.173 24.243 1.748 17.948 10.763 27.324 33.904 26.787 23.814-.535 31.079 13.261 37.671 29.468 12.781-62.015 33.232-74.069 46.416-84.65 27.985-22.637-6.457-62.551-19.238-57.997"/><path fill="#8AC640" d="M175.224 45.091C139.705 57.413 104.59 60.494 63.286 85.81c-9.821 6.028-30.54 19.689-34.577 45.808 15.068-16.609 49.914-37.503 92.564-50.763 21.526-6.698 37.268-11.117 56.372-18.484-1.345-8.573-1.345-11.922-2.421-17.279"/><path fill="#010101" d="M220.564 118.49s-2.557 8.706-7.669 11.52c0 0-3.767 1.339-11.301-2.813-2.153-1.205-3.767-5.357-3.633-6.697.135-3.215 2.153-4.688 2.153-4.688s2.153-3.617 4.709-3.483c2.557.134 6.862.535 8.207-.67 1.21-1.339 7.803 2.411 7.534 6.831m-54.893-84.248s-.537 6.831-1.479 11.117c-.135.804-4.171 1.205-7.131 2.41 5.65 16.074 39.689 15.94 44.129 8.037-2.152-1.473-6.458-3.75-8.476-4.553-2.018-.805-1.883-.67-2.018-4.42-.134-3.752-.404-10.716-.673-12.591s-21.123-1.876-24.352 0"/><path fill="#F0EFEF" d="M167.017 34.242s0 3.884-.404 7.634c-.134 1.741-.269 2.813-.537 4.152-.135.804 4.574 4.018 5.919 11.117 6.458 14.331 21.393 7.233 27.581.402-2.152-1.474-5.651-3.483-9.686-5.09-2.019-.804-1.077-2.545-1.211-6.295s-.673-9.242-.942-11.251c-.27-2.009-17.491-2.545-20.72-.67"/><path fill="#010101" d="M165.671 34.242s-.135 2.41-.538 5.223c1.749 1.741 4.036 4.152 5.786 5.626 1.211 1.072 4.17.938 6.861.938 2.422 0 4.575.267 5.516-.268 2.154-1.072 5.248-3.75 6.997-5.76-.134-2.41-.269-4.688-.403-5.76-.136-1.875-20.99-1.875-24.219 0"/><path fill="#010101" d="M177.914 44.421c-1.615 0-3.498-.133-4.978-.402-.673-.133-1.346-.535-1.884-.803-.942-.67-1.884-1.473-2.959-2.278-2.153-1.607-2.287-2.544-2.287-2.946.941-8.438-.27-15.537-.27-15.537s-.942-3.616 4.171-4.554c5.112-.938 8.207-1.071 8.207-1.071s3.229 0 8.207 1.07c5.112.939 4.17 4.555 4.17 4.555s-1.21 7.099-.269 15.538c0 .4-.134 1.338-2.287 2.945-1.884 1.34-3.363 2.813-4.843 3.081-1.48.269-3.364.402-4.978.402"/><path fill="#010101" d="M177.915 13.347c-8.88 0-10.63 2.41-13.186 5.09-.538.669-.135 4.688.808 13.26h1.211s-.808-2.412-.673-5.224c.134-2.813.673-2.678.268-3.348-.537-.805-1.614-2.144.808-3.483 2.422-1.34 6.189 1.071 10.764 1.205 4.574-.134 8.475-2.545 10.897-1.205 2.421 1.339 1.345 2.678.808 3.483-.539.803.134.535.269 3.348.134 2.812-.673 5.224-.673 5.224h1.21c.807-8.572 1.346-12.323.942-12.993-2.287-2.946-4.574-5.224-13.453-5.357m42.648 105.545s-2.556 8.17-7.533 10.983c-1.077-.536-.942-1.339-1.884-2.545-.27-.401-1.212-.67-1.615-1.071-.403-.402-.268-1.072-.942-1.607-.538-.536-.941-.135-1.48-.536-.537-.536-.673-1.206-1.076-1.607-.269-.268-1.345-.402-1.614-.67-.673-.67-6.592-1.875-6.323-3.215a11.6 11.6 0 0 1 1.614-3.482s2.556-3.751 5.112-3.617 4.978.67 6.324-.535c1.48-1.34 9.822 3.616 9.417 7.902"/><path fill="#010101" d="M203.074 59.69s8.476-2.009 14.261 3.483c5.786 5.626 5.381 12.59 3.633 16.876 1.48 1.742 4.171 6.563 2.153 12.323 8.879 7.5 4.977 19.02-2.96 26.654 0 0-1.884-6.965-9.418-7.367.269-2.678-6.996-4.822-3.633-11.787-5.112-1.205-4.978-4.688-5.785-8.973-.673-4.287 1.749-31.208 1.749-31.208"/><path fill="#F0EFEF" d="M199.979 63.44s9.821-4.955 15.607.67c5.785 5.626 4.17 11.787 2.421 16.073 1.48 1.74 4.978 6.698 2.825 12.59-.403 1.34-3.363 1.34-5.516 4.822 5.381-3.081 8.745-2.277 9.956 1.607 1.884 6.027-2.288 13.26-5.92 17.278 0-.134-.135-.268-.135-.401-.537 2.009-1.21 5.893-5.246 10.179-2.019 2.143-3.633 1.875-5.92 1.339-2.691-.67-3.633-1.876-7.4-3.884-2.152-1.205-.942-2.679-.942-3.884 0-.268.269-.67.673-1.206.269-.67 1.076-1.74 2.287-2.946 0 0 1.749-2.411 4.306-2.277s5.247-.401 5.92-1.072c0-4.687-5.381-4.822-3.498-12.858.134-.402.808-1.072 2.96-1.34-3.23-.67-4.709-.804-6.997-2.946-1.614-1.473-2.825-3.348-3.229-5.76-.807-4.151-2.152-25.983-2.152-25.983"/><path fill="#010101" d="M171.591 55.003c-.807-1.072-4.978-6.43-12.916-8.573-2.288-.67-3.767 1.206-6.054 2.545-.673-.402-3.633-1.741-5.247-.804s-2.69 1.875-4.305 2.545c-.808-.402-2.96-.402-4.709.267-1.749.536-4.44 1.742-6.997 5.224-1.614 5.76 28.523 1.473 28.523 1.473z"/><path fill="#8AC640" d="M171.86 55.003c-4.306-1.474-3.633-6.43-13.185-7.233-1.884-.134-3.095 1.339-4.44 2.277.673.67 1.345 1.74 1.749 2.812-1.211-1.339-3.364-3.08-5.517-3.483-2.018-.4-3.363 1.072-5.516 2.144.403.401.807 1.071 1.345 1.876-1.884-1.206-3.229-1.608-5.785-.67-1.749.535-5.112 2.008-7.669 5.625-1.614 5.76 27.178-.67 27.178-.67z"/><path fill="#010101" d="M197.154 57.146s0-1.474-.135-2.813c0-.267-1.076-.937-1.076-1.205l-.269-.268s2.153-1.206 3.767-.536c1.749.536 2.691 2.813 2.691 2.813 3.094-1.071 3.363.134 4.843 1.741 3.23-.67 3.633.535 5.651 3.483 0 0-2.421-.402-7.13.4-4.575.67-8.342-3.75-8.342-3.615"/><path fill="#8AC640" d="M196.616 56.476s.807-.67.537-.805c1.48-.803 3.499-1.74 4.441.805 3.094-1.072 3.498.401 4.977 2.01 3.767-1.742 4.036.4 4.306 1.338-1.211 0-2.96.134-5.382.402-4.574.67-9.014-3.884-8.879-3.75"/><path fill="#010101" d="M150.872 53.127s7.669 2.678 14.127 2.277c6.458-.536 17.49-1.072 23.41 2.411 0 0 6.054-2.144 11.705-.67 5.651 1.473 16.01 11.117 12.917 21.296-.27.67-2.019 1.742-4.037 2.412 0 0 1.077 4.554-.807 8.304-1.884 3.616-6.055 10.582-6.189 20.225-.134 1.607-.403 4.955-.673 6.563-10.494-.402-26.639-4.287-42.515-4.018.135-1.741.269-2.813.404-4.554h.403c-.807-4.42-1.076-6.697-1.884-10.046-5.112-3.214-10.494-6.964-15.068-14.064-4.44-7.099 8.207-30.136 8.207-30.136m51.933 72.328s8.342 29.735-1.48 42.192c0 0 1.48 5.759-1.883 11.92-.539 2.679-1.212 5.09-1.615 7.768-1.749 11.117-4.709 15.805-5.517 33.619l-8.073-.133s-.941-12.859-3.767-19.69c-1.613-3.883-7.938-9.108-7.668-14.331.269-4.018 1.076-7.367 7.939-12.725.537-7.768-7.266-15.135-6.055-44.066z"/><path fill="#F0EFEF" d="M200.383 124.249c2.153 13.662 7.131 33.887-1.883 43.798.532 2.513.577 5.105.134 7.635-.269 1.607-.808 3.348-1.48 5.223-1.345 3.215-1.884 7.903-2.287 10.715-1.749 11.117-1.749 11.654-2.557 29.468l-8.073-.135s-.941-12.858-3.767-19.688c-1.613-3.884-4.977-7.233-5.246-12.457-.269-4.017 2.556-12.054 9.284-11.786-.404-16.207-7.939-12.993-9.957-46.746zm-49.511-71.122s2.96.938 6.189 1.206c3.229.267 6.727 0 9.821-.135 6.458-.535 15.607-1.205 21.661 2.278 0 0 3.364-1.072 6.997-.805 1.614.135 3.229 1.474 5.112 2.01 5.92 1.473 11.571 11.25 9.014 20.091-.269.67-2.153 0-4.306.67.403 1.876.674 6.162-1.48 10.715-2.287 4.555-5.246 10.448-4.709 21.699-14.126-.67-20.45-1.607-34.442-2.277-1.211-4.956-2.019-9.912-2.153-12.457 1.884-.937 2.959-1.74 4.44-3.348-4.036.67-5.651.402-8.073-.938-2.421-1.34-6.727-5.625-8.879-8.438-.269-.268-1.749 4.151-5.112 4.286-1.211-1.74 3.901-6.697 2.959-8.572-3.363-6.831 2.961-25.985 2.961-25.985"/><path fill="#010101" d="M201.459 113.132s.269 4.822.269 6.028c0 1.339 1.076 5.357 1.21 7.232-1.479 2.545-7.937 8.305-19.642 10.448-11.571 2.411-26.908-15.671-26.908-15.671.403-1.741 1.749-6.831 2.691-9.51.134-.267.403-.937.403-1.205 1.212-1.741 41.977 2.678 41.977 2.678"/><path fill="#F0EFEF" d="M198.499 113.535c0 3.348.538 5.759.942 7.902.673 3.885 1.749 6.43 1.749 8.974 0 7.768-10.225 6.429-18.837 6.697-11.57 2.412-21.392-15.671-21.392-15.671.808-3.08 1.346-6.562 2.557-9.509.134-1.608.403-3.617.537-4.554 16.414 0 27.985.937 34.712 1.606.27 1.474.001 4.019-.268 4.555"/><path fill="#010101" d="M185.583 130.812s-7.131-15.805-28.523-11.116c-5.112 14.331-11.974 30.806-7.534 48.62-4.44 6.028-9.553 9.377-9.553 20.493 0 11.117.538 12.992.538 12.992l15.742.805s5.112-6.563 7.13-13.662c.538-2.01 1.077-5.626.673-9.778.538-.803 2.825-2.678 3.095-6.295 0 0 7.668-4.018 12.108-13.795 4.172-8.842 3.095-16.477 6.324-28.264"/><path fill="#F0EFEF" d="M185.583 130.812c-.403-1.473-5.785-15.938-25.698-11.653-11.704 31.075-7.399 43.933-5.65 49.558-7.939 10.046-11.571 12.189-9.956 32.548h10.495c4.843-7.635 5.919-10.448 6.188-20.493 0-.402-1.48.804-2.556 2.143.808-4.152 3.094-4.955 4.843-7.5.808-1.072 1.48-2.679 1.48-4.822 9.418-6.295 12.916-14.198 14.934-22.369 1.615-5.624 3.498-14.867 5.92-17.412"/><path fill="#010101" d="M152.352 109.249s3.633.133 6.862 1.205c3.094 1.071 3.094 1.74 4.305 3.081s4.171 3.348 3.633 5.357c-.269 1.072-.942 1.339-1.884 2.277-.403.402-3.364 3.616-4.036 4.018-.404.268-.942.67-1.346.938l-2.018 1.339c-1.345.67-2.287 1.072-3.767.938 0 0-3.363-.134-5.516-2.411 0 0-.269-1.072.269-1.607 0 0-2.826-2.411-3.633-4.018-.808-1.607-.808-3.884-.269-5.089.269-1.207 5.516-4.555 7.4-6.028m3.364 130.323-.404 3.349s-1.211 1.473-10.225 1.34c-9.149-.134-11.57-2.947-12.377-4.42l-.538-3.483s1.749-2.545 2.153-2.545c2.959.268 13.05 4.286 20.047 5.358.671 0 .805.267 1.344.401m19.508-6.831c0 1.473-.135 1.473-.135 2.947 1.614 1.205 5.651 1.875 13.319 1.741 11.167-.268 21.527 3.349 34.174 1.205l.134-2.411-1.21-.133-44.803-3.617z"/><path fill="#010101" d="M185.045 237.429h3.364c7.266-.267 14.127 1.34 21.526 1.742 3.902-.135 8.746-1.072 8.342-3.885l-38.209-3.215c-2.288 2.545-.539 4.688 4.977 5.358m-43.86-56.389c1.211.804 9.418 5.626 22.737 4.956-.269 2.545-.134 7.501-6.054 16.207-2.96 4.286-5.517 11.787-6.054 21.297.134 2.143 1.345 4.018-.269 6.831.537 1.74 2.69 5.223 3.767 7.366 1.076 2.144 1.614 4.554-5.517 4.688-7.265.134-18.97-.67-17.355-6.295.807-2.946 3.094-6.027 3.364-7.233.269-1.205.269-4.821 2.555-7.233 2.019-6.696 1.346-13.126.943-19.153-.673-6.296-.808-16.341 1.883-21.431m12.512-109.161c9.553-12.725 1.48-22.904-13.857-19.824-6.189 1.206-12.377 5.493-12.782 13.26-2.018.268-6.592.536-8.879 8.84-1.749 6.43-2.691 7.635-5.786 10.85-2.018 2.276.135 6.964 1.615 10.313 4.978 11.519 20.315 12.59 30.675 21.297 3.498-.938 7.131-4.822 8.207-7.366-8.745-10.315-6.862-14.332-10.36-19.69 3.767-1.34 12.378-6.563 11.167-17.68"/><path fill="#F0EFEF" d="M151.813 71.075c.538-.804 1.48-2.544 1.884-3.215.135-.134 1.614 2.411 1.749 2.278 3.632-5.894 4.574-14.467.403-15.27-.942-.134-2.69-.535-4.171-1.072-2.69-.938-5.111-.938-9.417-.133-5.92 1.07-11.84 5.357-11.84 11.519 0 .401 4.17 1.607 5.382 6.563-2.019-2.813-5.517-5.894-9.688-3.215-4.44 2.812-2.152 9.242-8.072 15.938-2.019 2.278-1.749 4.956.403 10.314 3.498 8.439 20.047 12.992 29.061 21.029 2.153-.938 3.632-3.081 4.709-4.688-6.054-6.295-8.476-12.19-10.225-16.475-2.153-4.956-4.575-7.768-9.284-11.52 2.423.938 4.306 1.876 5.382 2.68 1.21.803 2.96.937 4.575.4 5.786-2.007 8.88-10.044 9.149-15.133"/><path fill="#010101" d="M210.338 73.218c-.403 5.09-4.17 2.545-6.188 1.607-4.036-1.74-8.073-2.946-12.782-2.946s-10.763.402-16.01 1.741c-7.265 2.009-9.418 1.876-12.647.268-3.228-1.742-8.879-6.028-8.879-6.028s-.134 1.34 1.211 3.081c1.749 2.143 5.651 4.822 10.897 6.563 2.557.804 4.575.267 6.863-.268 11.974-2.947 24.62-3.482 35.249 2.947.538.267 2.422-.536 3.229-1.742 1.075-1.74-.943-5.223-.943-5.223"/><path fill="#0A1825" d="M149.123 124.249c1.076.67 2.422 1.072 3.901 2.277 0 0-1.211 0-1.748-.535-.673-.402-2.019-1.607-2.153-1.742"/><path fill="#F0EFEF" d="M188.005 18.035c-.404-1.206-3.364-3.35-10.225-3.35-7.4 0-9.552 2.278-9.687 3.483 0 .402-.538 4.689-.673 6.43 0 0 0 2.143.134 5.357.135 2.143.674 3.348.942 6.161.269 2.946 1.077 4.822 2.557 7.233.673.401 1.21.804 1.883.938 2.691.535 7.4.67 9.957 0 1.479-.402 3.363-2.947 3.767-5.224.537-2.812 1.076-4.822 1.21-6.563.269-1.74.404-5.625.538-6.697.404-2.946-.269-7.5-.403-7.768"/><path fill="#010101" d="M173.878 183.585s7.131 3.081 24.756.402c0 0-4.978 24.913-2.69 37.369 0 0 2.286 3.215 19.239 9.376 0 0 7.534 1.875 7.265 5.626 0 0 .269.804-8.88.535-9.148-.268-17.759-1.875-23.814-1.875s-12.512.267-13.588-1.473c-1.211-1.607.269-5.76 2.018-8.171 1.884-2.544 1.345-4.42 1.211-8.974-.405-11.92-9.553-24.243-5.517-32.815"/><path fill="#8AC640" d="M172.398 185.862c-.942 1.34.134 6.429 1.48 11.385 1.345 4.956 4.306 7.903 4.978 16.073.673 8.036.807 9.108-1.48 13.795s-2.96 8.974 4.978 9.108 12.243-.134 20.316 1.072 10.898 1.607 15.338.938c4.44-.67 5.381-2.144 3.498-3.483s-9.688-2.812-13.051-5.492c-3.229-2.411-12.378-6.429-12.512-7.5-.403-3.617-.538-16.743.134-21.029.674-4.287 1.615-10.448 1.884-12.055.27-1.607 1.615-3.215-.673-2.679-2.287.535-10.897 1.741-17.355 1.34s-7.131-1.875-7.535-1.473"/><path fill="#010101" d="M176.973 227.25c2.287 1.071 5.651 1.875 8.207 1.875 0 0-.943 4.421.538 7.099 1.479 2.679-10.764 1.072-10.764 1.072l-.537-9.51zm35.653 11.519c2.153-.67 3.633-3.081 1.884-5.358-1.884-2.277-3.498-2.679-1.077-2.812 2.422-.134 11.302 5.223 11.302 5.223l-4.575 4.152zm-40.632-47.683c3.095 1.072 7.804 1.339 11.84 1.205s10.091-.67 13.993-2.009c3.901-1.339 2.287 1.473 2.287 1.473l-2.153 2.01s-5.112 2.009-13.454 1.875c-9.821-.134-12.781-1.205-12.781-1.205zm.269 6.697c3.095 1.072 7.804 1.34 11.84 1.205 4.036-.133 9.418-.133 13.32-1.607 1.614-.535.673 1.742.673 1.742l-.673 1.205s-5.247 1.875-13.455 1.741c-9.821-.134-11.57-.938-11.57-.938z" opacity=".3"/><path fill="#010101" d="M163.384 103.891c0 .938 10.494 6.161 16.279 7.233 5.786 1.071 17.894 0 19.778-.402l-.27 1.875s-14.395 2.144-25.427-.803-9.822-3.617-9.822-3.617z"/><path fill="#F0EFEF" d="M140.915 218.142c1.614.804 7.4 2.277 11.167 1.473.538-.134 0-9.242 1.48-13.394 2.153-5.76 5.651-10.447 7.265-20.626-5.651-.536-12.108-2.01-15.473-3.082-4.304 13.127-2.824 24.378-4.439 35.629m9.015 8.439c.942.267 1.614 1.338 1.884.67.537-1.206-.942-3.483-1.077-5.09v-.134c-1.211-1.071-9.418-1.206-8.879-.67-.942 1.741-2.422 1.473-2.96 4.956-.268 1.74 1.884.268 3.902.133-3.633 2.411-7.803 5.492-8.476 8.171-.808 3.75.538 4.822 4.574 6.831 3.499.804 7.669.938 10.898.804 3.633-.67 4.306-2.411 3.229-4.822-1.615-3.617-2.691-8.305-3.095-10.849"/><path fill="#010101" d="M151.41 52.591c4.44 2.545 10.629 1.876 12.916 1.742.538 0 5.92-.938 6.189-.805.538.135.538.536.538.536s-2.018 1.072-6.592 1.34c-4.306.267-9.418 0-12.243-1.34-3.364-1.473-.808-1.473-.808-1.473m45.744 2.545c.807.535 6.054 2.545 8.342 4.956 2.018 2.143.942 2.01.537 1.473-.537-.67-4.708-3.482-6.323-4.152-1.614-.67-3.633-1.875-3.633-2.143s1.077-.134 1.077-.134"/><path fill="#F0EFEF" d="M150.737 110.721c3.901-.267 7.938.67 10.494 3.349 1.346 1.339 3.498 2.812 3.229 4.152 0 .401-.807 1.473-1.479 2.277-.404.535-1.615 1.741-2.019 2.143-.537.402-2.421 1.875-2.825 2.143-.403.268-.942.938-1.345 1.072-1.345.67-2.825.134-4.171-.535-1.345-.67.27-.805-1.211-1.876-3.632-2.545-5.65-4.287-4.17-9.242.134-.938 1.613-2.01 3.497-3.483"/><path fill="#010101" d="M116.429 80.05c-12.108 4.821-42.919 20.091-51.663 24.779 7.265 4.553 10.628 15.536 11.705 26.653.134 1.072.269 2.01.403 3.081q.203 1.406.403 2.01c0 .134 0 .402.135.535 7.938-21.564 36.326-44.334 37.402-46.075.538-.804-.673-4.286 1.211-7.634 2.422-4.288 7.132-6.163.404-3.35m28.792 101.124c6.189-12.322 6.323-24.109 6.189-37.905 0-5.76 4.17-13.93 2.018-11.653-8.073 8.973-28.388 25.851-43.053 26.788 20.585-.67 28.657 9.644 34.846 22.77" opacity=".4"/><path fill="#010101" d="M52.926 116.213c7.668-5.492 47.358-26.52 56.911-29.467 9.552-3.08 6.592-6.697 6.592-6.697s-38.748 16.608-61.889 30.94"/><path fill="#010101" d="M165.94 77.504c-3.095-1.205-5.516 2.412-4.709 5.894s8.073 7.366 7.669 20.091c-.269 10.448-2.556 14.733-2.556 14.733l-5.113-6.428s-.807-14.466-2.556-16.61c-1.749-2.142-7.265-6.027-9.418-8.036-2.153-2.01 2.422-4.687 2.153-8.438-.269-3.616 2.287-10.85 2.287-10.85zm18.702 57.059c-.269 10.045 2.018 24.913 2.959 32.012.942 7.098 2.153 7.634 0 10.849-2.152 3.081-4.977 8.171-4.977 8.171l-9.284-.804s7.4-9.376 7.803-11.118c.403-1.74-3.767-15-3.767-15zm-17.894-93.758c1.884 4.151 4.17 6.026 7.803 7.233 2.152.803 10.628 1.875 13.992-1.876 1.48-1.741.538-6.43.538-6.43l-7.669 6.162-10.36-1.875-1.21-3.08z" opacity=".4"/><path fill="#000" d="M164.962 48.5c4.314 1 8.814 2.5 15.814 4.824 2.669.665 7.314-1.995 9.39-2.993 2.225-1.165 6.08-1.831 10.527 2.662.445.499.307 4.507.307 4.507 1.038 1.845-1-.5-3.5-1.514 8.5 3.447-3.532-.853-5-.486-8 2-8.977 2.665-15.5 1-5.529-1.164-3.625-1.833-10-1.5"/><path fill="#8AC640" d="M167.555 50.046c3.498 2.278 12.243 4.42 14.665 4.822 2.421.536 6.323-2.544 8.207-3.348 2.018-.938 5.516-1.474 9.552 2.143.404.402-.942 2.143-.942 2.143-.135-.134-.942-.134-2.018-.67-1.076-.535-2.018-.938-3.633-.803-6.727.803-7.803 3.08-13.723 1.74-5.919-1.34-7.4-2.41-13.184-2.143"/><path fill="#8AC640" d="M167.5 50c4.44 1.875 11.894 4.333 14.316 4.868 2.421.536 6.323-1.875 8.207-3.08 3.364-2.143 7.669-.402 9.687 1.875 1.345 1.473 1.884 2.41 1.884 2.813 0 .535-1.614 0-1.614 0-.942-.402-2.019-.536-2.825-1.072-1.077-.536-2.154-1.34-3.767-1.206-6.728.805-8.073 3.081-13.858 1.742-5.785-1.34-6.842-2.341-13.03-1.94"/><path fill="#010101" d="M145.49 175.548c-.269-.267.269-.535 0-.535-1.749 0-4.171-1.34-5.517-3.215-5.785-8.304-14.261-13.795-29.599-13.394-23.006.536-32.155-8.839-33.904-26.787-.942-9.778-3.633-19.288-9.149-24.646l-3.23 2.01c6.19 5.357 8.208 14.063 9.553 25.984 2.153 17.948 16.683 26.253 33.636 26.52 17.625.268 23.948 3.885 30.54 12.725 2.152 2.813 4.575 3.75 6.458 4.152z"/><path fill="#010101" d="M207.917 89.425c.404 2.009 1.48 5.893 3.632 7.768.943.938 1.077 1.205.27 1.205-.808 0-6.728-.267-6.728-.267l-1.614-2.813z" opacity=".4"/></svg>