<svg xmlns="http://www.w3.org/2000/svg" width="256" height="256" fill="none"><path fill="#F4F2ED" d="M196 0H60C26.863 0 0 26.863 0 60v136c0 33.137 26.863 60 60 60h136c33.137 0 60-26.863 60-60V60c0-33.137-26.863-60-60-60"/><path fill="#000" fill-rule="evenodd" d="m50.183 146.711-2.46 6.695-6.09 6.03c-2.218 2.199-2.696 2.184-2.174 5.293.612 3.654 2.369 7.42 5.603 10.662 3.4 3.409 10.54 8.233 15.677 5.959a36 36 0 0 1-1.918 5.306c-3.445 7.553 4.95 9.033 10.826 10.622 4.883 1.32 16.866 4.839 18.596-1.579.777-2.888.898-4.439.621-7.196 1.52-3.392 2.005-3.933 3.262-5.799 1.726-2.56 1.602-3.534 1.225-6.711a75 75 0 0 0-.265-1.981c5.815.875 11.405.864 17.104.157-1.73 1.008-3.465 1.891-5.754 3.068-5.43 2.791-.313 11.028 2.028 14.635 4.912 7.57 9.317 12.778 17.616 8.288 2.787-1.509 3.003-3.117 4.742-5.714.961-.528 5.914-4.74 8.86-7.119 1.116 1.339 3.253 1.586 6.494 1.82 1.63.118 8.025.078 9.72.089 5.085.032 8.137-.496 8.535-6.038.189-2.628.076-3.187-1.217-5.485l-.233-8.697c-.088-3.266-.712-5.269-1.993-8.319-1.166-2.771-1.818-5.136-3.179-7.823.187-1.053.335-2.14.436-3.276l5.186 4.998c3.296 3.174 6.019 5.767 11.044 5.53 5.234-.247 11.225-4.37 12.759-9.413l1.533-5.049c7.892 1.491 17.116 1.15 23.988-2.516 10.106-5.394 14.835-16.238 15.997-27.71.94-9.279-.87-24.884-5.294-33.351-1.301-2.49-7.175-5.64-9.751-3.03-1.94 1.966-3.273 4.962-5.367 6.752-1.623 1.386-3.633 2.073-5.394 2.798-1.363-3.68-3.323-6.542-5.722-9.4-1.908-2.272-3.706-3.405-6.222-4.98-4.972-3.114-8.83-7.044-13.354-10.774-13.69-11.288-25.447-10.942-42.504-3.763-8.138 3.426-12.063 8.075-17.054 14.752-3.016.157-5.088.741-8.277 3.555a110 110 0 0 0-6.665 6.428c-15.945 2.54-25.847 5.58-36.323 14.867-4.263 3.779-7.362 7.967-9.78 12.675-2.243 2.48-4.474 5.022-7.437 6.163-2.086.802-2.047.8-2.782-1.162 2.48-1.864 2.44-5.372 2.67-8.547 1.565.074 2.151 1.829 3.215 3.172.628-2.808.992-7.169-1.963-8.699.48-1.285 1.024-2.58 1.522-3.996-4.359.757-19.303 10.829-11.33 18.512.526 2.133.939 3.602 1.632 5.045 1.825 3.794 5.927 4.444 9.502 3.05-.98 4.491-1.178 9.378-.589 16.238.142 1.645.379 3.304.698 4.968" clip-rule="evenodd"/><path fill="#000" d="m51.13 147.059-.989 2.691-1.894-.694.99-2.692zm-.989 2.691-1.47 4.003-1.895-.695 1.471-4.002zm-1.47 4.003-.238.367-.71-.714zm-.238.367-3.227 3.195-1.42-1.428 3.227-3.195zm-3.227 3.195-2.862 2.835-1.42-1.428 2.862-2.835zm-2.862 2.835c-.436.432-.584.574-.715.701l-1.397-1.46c.291-.28.613-.59.692-.669zm-.715.701c-1.292 1.244-1.548 1.49-1.176 3.712l-1.989.332c-.548-3.274-.166-3.643 1.768-5.504zm-1.176 3.712c.3 1.79.895 3.615 1.829 5.392l-1.791.939a20 20 0 0 1-2.027-5.999zm1.829 5.392a19.6 19.6 0 0 0 3.494 4.726l-1.428 1.42a21.6 21.6 0 0 1-3.858-5.207zm3.494 4.726c1.884 1.89 4.96 4.231 8.163 5.447l-.71 1.887c-3.5-1.33-6.841-3.869-8.881-5.914zm8.163 5.447c2.227.847 4.497 1.138 6.394.299l.812 1.846c-2.447 1.083-5.237.76-7.916-.258zm6.394.299 1.948-.863-.567 2.054-.975-.268zm1.38 1.191c-.253.917-.55 1.856-.89 2.799l-1.901-.687c.323-.895.604-1.784.842-2.648zm-.89 2.799c-.318.879-.678 1.77-1.083 2.657l-1.839-.836c.376-.824.716-1.666 1.02-2.508zm-1.083 2.657c-1.706 3.742.082 5.712 2.854 6.976l-.837 1.839c-3.792-1.73-6.229-4.447-3.855-9.651zm2.854 6.976c1.771.808 3.915 1.366 5.907 1.885l-.505 1.949c-2.093-.545-4.345-1.132-6.239-1.995zm5.907 1.885c.526.136 1.036.269 1.402.368l-.513 1.95c-.539-.147-.967-.258-1.394-.369zm1.402.368c2.402.65 6.555 1.841 10.288 2.077l-.127 2.02c-3.911-.248-8.194-1.477-10.673-2.147zm10.288 2.077c3.373.214 6.381-.354 7.077-2.937l1.95.512c-1.034 3.834-4.884 4.716-9.154 4.445zm7.077-2.937c.368-1.369.582-2.426.671-3.474l2.02.166c-.097 1.138-.333 2.302-.742 3.82zm.671-3.474c.09-1.053.053-2.075-.077-3.372l2.004-.189c.146 1.46.189 2.593.093 3.727zm-.077-3.372.079-.505.923.411zm.079-.505c1.359-3.033 1.919-3.852 2.908-5.301l1.664 1.137c-.914 1.339-1.432 2.097-2.726 4.985zm2.908-5.301c.1-.148.187-.274.441-.651l1.673 1.128c-.064.096-.275.404-.45.66zm.441-.651c.771-1.144 1.126-1.908 1.24-2.698l1.996.277c-.162 1.131-.61 2.134-1.563 3.549zm1.24-2.698c.118-.83-.001-1.82-.181-3.334l2.004-.229c.197 1.662.33 2.749.173 3.84zm-.181-3.334c-.05-.414-.09-.741-.119-.954l1.997-.253c.06.454.102.775.126.978zm-.119-.954a79 79 0 0 0-.142-.996l1.996-.292c.031.215.078.55.143 1.035zm-.142-.996-.197-1.347 1.345.203-.15.998zm1.148-1.144c2.857.429 5.66.642 8.45.66l-.008 2.02a61 61 0 0 1-8.742-.684zm8.45.66a65 65 0 0 0 8.385-.507l.237 2.005a67 67 0 0 1-8.63.522zm8.385-.507.624 1.878-.505-.876zm.624 1.878c-1.63.95-3.258 1.787-5.334 2.853l-.923-1.799c2.049-1.053 3.655-1.878 5.247-2.806zm-5.334 2.853-.463.238-.923-1.799.463-.238zm-.463.238c-2.134 1.097-2.153 3.4-1.4 5.812l-1.925.6c-1.032-3.304-.895-6.516 2.402-8.211zm-1.4 5.812c.855 2.738 2.671 5.619 3.81 7.375l-1.688 1.097c-1.201-1.85-3.116-4.892-4.047-7.872zm3.81 7.375c2.386 3.677 4.636 6.772 7.219 8.355l-1.049 1.72c-2.922-1.79-5.332-5.085-7.858-8.978zm7.219 8.355c2.441 1.497 5.295 1.635 9.075-.41l.955 1.784c-4.517 2.444-8.016 2.224-11.079.346zm9.075-.41c1.787-.967 2.387-2.017 3.194-3.432l1.76.994c-.976 1.71-1.7 2.977-3.999 4.222zm3.194-3.432c.321-.563.674-1.18 1.19-1.951l1.673 1.121c-.413.617-.774 1.249-1.103 1.824zm1.19-1.951.351-.327.486.888zm.351-.327c.59-.324 3.109-2.404 5.559-4.429l1.286 1.555c-2.533 2.093-5.139 4.246-5.874 4.649zm5.559-4.429c1.261-1.042 2.505-2.07 3.151-2.591l1.27 1.578a326 326 0 0 0-3.135 2.568zm3.151-2.591.774-.625.638.767-.777.647zm1.412.142c.403.483 1.04.782 1.906.989l-.466 1.965c-1.291-.309-2.282-.805-2.994-1.66zm1.906.989c.994.238 2.3.354 3.882.468l-.142 2.02c-1.659-.12-3.043-.245-4.206-.523zm3.882.468c1.241.09 5.204.088 7.763.087v2.02c-2.614.001-6.663.003-7.905-.087zm7.763.087c.812 0 1.487 0 1.89.002l-.008 2.02c-.403-.003-1.074-.002-1.882-.002zm1.89.002c2.385.015 4.276-.091 5.524-.799l.995 1.76c-1.648.933-3.828 1.075-6.527 1.059zm5.524-.799c1.141-.646 1.827-1.919 1.997-4.3l2.02.142c-.226 3.16-1.266 4.923-3.022 5.918zm1.997-4.3c.088-1.224.108-1.953-.029-2.578l1.972-.435c.195.885.177 1.751.077 3.155zm-.029-2.578c-.138-.627-.462-1.276-1.062-2.342l1.768-.987c.692 1.23 1.072 2.01 1.266 2.894zm-1.062-2.342-.126-.47 1.01-.024zm-.126-.47-.117-4.349 2.02-.047.117 4.349zm-.117-4.349-.116-4.348 2.02-.048.116 4.349zm-.116-4.348c-.042-1.556-.21-2.805-.517-4.019l1.956-.49c.347 1.366.535 2.753.581 4.461zm-.517-4.019c-.311-1.224-.773-2.447-1.397-3.934l1.862-.781c.656 1.563 1.147 2.868 1.491 4.225zm-1.397-3.934a75 75 0 0 1-1.192-3.073l1.894-.694c.354.954.714 1.927 1.16 2.986zm.702-3.771v.004l-.947.347zm-1.894.702c-.577-1.557-1.137-3.067-1.959-4.69l1.807-.907c.863 1.703 1.446 3.274 2.046 4.895zm-1.959-4.69-.091-.627.994.173zm-.091-.627a39 39 0 0 0 .246-1.56l1.997.253a42 42 0 0 1-.254 1.654zm.246-1.56c.057-.43.116-.968.174-1.625l2.02.165a41 41 0 0 1-.197 1.713zm.174-1.625.188-2.112 1.52 1.464-.698.73zm1.708-.648 2.968 2.86-1.397 1.459-2.968-2.859zm2.968 2.86 2.218 2.138-1.396 1.459-2.219-2.138zm2.218 2.138c1.602 1.543 3.065 2.944 4.689 3.902l-1.026 1.744c-1.818-1.072-3.366-2.555-5.059-4.187zm4.689 3.902c1.561.922 3.322 1.456 5.61 1.348l.095 2.02c-2.737.129-4.851-.515-6.731-1.624zm5.61 1.348c2.469-.116 5.135-1.176 7.352-2.811l1.2 1.625c-2.525 1.862-5.591 3.07-8.457 3.206zm7.352-2.811c2.116-1.561 3.802-3.631 4.487-5.884l1.934.584c-.818 2.691-2.779 5.123-5.221 6.925zm4.487-5.884.709-2.333 1.933.584-.708 2.333zm.709-2.333.825-2.716 1.933.584-.825 2.716zm.825-2.716.263-.866.889.168-.186.99zm1.152-.698c4.089.773 8.543 1.043 12.823.594l.198 2.004c-4.475.47-9.126.188-13.392-.618zm12.823.594c3.761-.394 7.388-1.349 10.505-3.012l.947 1.783c-3.349 1.788-7.233 2.812-11.254 3.233zm10.505-3.012c4.566-2.437 7.996-6.037 10.465-10.314l1.752 1.002c-2.653 4.596-6.345 8.467-11.27 11.095zm10.465-10.314v-.004l.876.505zm0-.004c2.822-4.888 4.402-10.654 5.004-16.595l2.004.19c-.631 6.227-2.291 12.278-5.256 17.414zm5.004-16.595c.49-4.841.219-11.443-.795-17.828l1.989-.316c1.039 6.549 1.316 13.339.81 18.334zm-.795-17.828c-.893-5.633-2.364-11.08-4.393-14.963l1.792-.931c2.129 4.075 3.664 9.741 4.59 15.578zm-4.393-14.963c-.158-.304-.422-.636-.762-.971l1.413-1.444c.487.481.881.986 1.141 1.484zm-.762-.971c-.865-.854-2.152-1.663-3.484-2.122l.655-1.91c1.618.557 3.184 1.544 4.242 2.588zm-3.484-2.122c-1.236-.425-2.482-.542-3.371-.078l-.932-1.79c1.435-.751 3.243-.63 4.958-.041zm-3.371-.078a2 2 0 0 0-.515.381l-1.445-1.412a4.1 4.1 0 0 1 1.028-.76zm-.515.381c-.826.837-1.551 1.896-2.277 2.957l-1.665-1.137c.784-1.146 1.568-2.29 2.497-3.232zm-2.277 2.957c-.956 1.396-1.916 2.797-3.158 3.859l-1.31-1.539c1.051-.898 1.929-2.18 2.803-3.457zm-3.158 3.859c-1.521 1.3-3.285 2.007-4.923 2.664l-.749-1.878c1.489-.597 3.092-1.24 4.362-2.325zm-4.923 2.664c-.285.114-.565.227-.743.3l-.765-1.87c.314-.13.537-.219.759-.308zm-.743.3-.965.397-.365-.985.947-.347zm-1.33-.588a26 26 0 0 0-2.382-4.82l1.713-1.072a28 28 0 0 1 2.563 5.198zm-2.382-4.82c-.937-1.496-2-2.89-3.166-4.28l1.546-1.295c1.232 1.468 2.35 2.935 3.333 4.503zm-3.166-4.28a16.6 16.6 0 0 0-2.721-2.597l1.222-1.602a18.5 18.5 0 0 1 3.045 2.904zm-2.721-2.597c-.943-.719-2.014-1.392-3.264-2.174l1.072-1.712c1.266.792 2.352 1.474 3.414 2.284zm-3.264-2.174c-3.522-2.205-6.474-4.795-9.485-7.436l1.326-1.523c2.947 2.586 5.837 5.12 9.231 7.247zm-9.485-7.436c-1.268-1.112-2.547-2.234-3.977-3.413l1.287-1.562c1.323 1.09 2.676 2.277 4.016 3.452zm-3.977-3.413c-6.67-5.5-12.847-8.165-19.409-8.578l.127-2.02c7.003.441 13.55 3.248 20.569 9.035zm-19.409-8.578c-6.61-.416-13.674 1.435-22.06 4.965l-.782-1.862c8.67-3.65 16.015-5.56 22.969-5.123zm-22.06 4.965c-3.952 1.664-6.877 3.62-9.415 5.967l-1.365-1.483c2.706-2.503 5.814-4.585 9.998-6.346zm-9.415 5.967c-2.557 2.365-4.756 5.159-7.221 8.457l-1.618-1.207c2.526-3.378 4.787-6.248 7.474-8.733zm-7.221 8.457-.285.382-.473.024-.051-1.01zm-.758.406c-1.404.073-2.58.243-3.75.71l-.75-1.877c1.417-.566 2.786-.769 4.398-.853zm-3.75.71c-1.187.475-2.411 1.27-3.911 2.593l-1.334-1.515c1.688-1.49 3.097-2.395 4.495-2.955zm-3.911 2.593a101 101 0 0 0-3.384 3.131l-1.405-1.452a103 103 0 0 1 3.455-3.194zm-3.384 3.131-.004.004-.699-.73zm-.004.004a119 119 0 0 0-3.214 3.234l-1.46-1.397a122 122 0 0 1 3.277-3.296zm-3.214 3.234-.572.296-.158-.994zm-.572.296c-7.895 1.258-14.293 2.64-20.007 4.853l-.726-1.887c5.842-2.262 12.369-3.672 20.417-4.955zm-20.007 4.853c-5.665 2.194-10.665 5.218-15.807 9.777l-1.334-1.515c5.334-4.728 10.525-7.868 16.415-10.149zm-15.807 9.777a41 41 0 0 0-5.448 5.844l-1.601-1.223a43 43 0 0 1 5.715-6.136zm-5.448 5.844a43 43 0 0 0-4.098 6.532l-1.8-.915a45 45 0 0 1 4.297-6.84zm-4.098 6.532-.15.217-.75-.675zm-.15.217c-1.149 1.269-2.295 2.556-3.524 3.662l-1.35-1.507c1.187-1.069 2.28-2.294 3.374-3.504zm-3.524 3.662c-1.29 1.16-2.686 2.147-4.301 2.769l-.726-1.886c1.348-.519 2.55-1.374 3.677-2.39zm-4.301 2.769h-.004l-.359-.943zm-.004 0c-1.296.498-1.93.748-2.647.444l.781-1.863c.033.014.358-.164 1.148-.467zm-2.647.444-.004-.005.395-.927zm-.004-.005c-.757-.321-.968-.943-1.437-2.193l1.894-.702c.266.711.26 1.011.332 1.041zm-1.437-2.193-.263-.703.606-.457.604.809zm.343-1.16c1.856-1.394 2.032-4.172 2.201-6.846l2.02.126c-.197 3.128-.403 6.376-3.013 8.338zm2.201-6.846c.022-.35.045-.698.064-.964l2.02.143a76 76 0 0 0-.064.947zm.064-.964.071-.985.986.047-.047 1.009zm1.057-.938c1.666.079 2.425 1.254 3.244 2.522l-1.697 1.089c-.523-.81-1.009-1.562-1.642-1.592zm3.244 2.522c.228.354.464.718.713 1.033l-1.578 1.254a15 15 0 0 1-.832-1.198zm.91 1.877-.462 2.067-1.313-1.657.788-.627zm-1.973-.434c.341-1.526.603-3.526.233-5.163l1.965-.442c.451 2 .162 4.307-.225 6.039zm.233-5.163c-.234-1.041-.737-1.936-1.671-2.42l.923-1.799c1.545.8 2.355 2.188 2.713 3.777zm-1.671-2.42-.799-.414.313-.837.947.351zm-.486-1.251c.15-.399.366-.953.59-1.522l1.877.735c-.174.445-.35.893-.573 1.49zm.59-1.522c.297-.759.603-1.538.925-2.454l1.91.663c-.288.818-.628 1.683-.958 2.526zm1.71-3.117 1.694-.294-.57 1.62-.955-.331zm.34 1.99c-1.957.339-6.264 2.755-9.39 6l-1.46-1.396c3.41-3.541 8.255-6.203 10.51-6.594zm-9.39 6c-1.133 1.176-2.094 2.447-2.7 3.741l-1.83-.844c.714-1.526 1.804-2.979 3.07-4.293zm-2.7 3.741c-.58 1.235-.843 2.498-.63 3.725l-1.99.339c-.288-1.662.045-3.321.79-4.908zm-.63 3.725c.193 1.114.791 2.235 1.918 3.321l-1.397 1.459c-1.46-1.408-2.245-2.91-2.51-4.441zm1.918 3.321.28.489-.978.241zm.28.489c.257 1.043.487 1.925.737 2.722l-1.925.6c-.26-.831-.5-1.751-.769-2.841zm.737 2.722c.24.763.5 1.448.828 2.13l-1.823.867a17.6 17.6 0 0 1-.93-2.397zm.828 2.13c.726 1.511 1.875 2.43 3.2 2.856l-.615 1.925c-1.831-.588-3.415-1.849-4.408-3.914zm3.2 2.856c1.545.496 3.343.344 5.023-.311l.734 1.878c-2.1.819-4.378.998-6.372.358zm5.023-.311 1.754-.684-.401 1.836-.986-.213zm1.353 1.152c-.476 2.182-.763 4.47-.86 7.053l-2.019-.07c.1-2.698.404-5.101.907-7.409zm-.86 7.053c-.095 2.585.003 5.484.295 8.89l-2.02.165c-.296-3.454-.394-6.429-.294-9.125zm.295 8.89q.112 1.3.267 2.395l-1.997.268a47 47 0 0 1-.29-2.498zm.267 2.395q.17 1.209.411 2.466l-1.98.379a52 52 0 0 1-.428-2.577zm.411 2.466-.043.537-.947-.348"/><path fill="#FF0" fill-rule="evenodd" stroke="#1F1917" stroke-miterlimit="10" stroke-width=".27" d="m101.702 86.033-13.297 2.16-12.134 5.32-10.305 6.482-9.807 11.968-5.54 5.867-5.357 1.975-1.417-3.463 2.477-3.576.557-5.043 1.66.067 1.812 1.654-.489-5.137-2.01-1.348.061-1.958-4.76 2.693-4.312 5.087-.899 4.546 1.844 3.64 1.72 6.185 3.497 1.656 3.678-.181 3.489-2.027-2.327 11.802 2.326 13.131-2.56 6.063-8.39 9.039 1.491 5.4 3.974 6.258 7.494 5.274 3.975.544 4.42.15-2.758 11.319 10.14 4.155 12.632 1.662 4.322-2.825.332-7.646 4.82-7.978.333-6.317 11.635.832 10.804-.998-10.804 6.483 1.828 7.812 6.815 10.637 6.649 2.826 5.319-2.161 2.161-4.321 11.136-8.477 2.161 1.828 17.452.665 3.491-2.826.332-4.986-1.163-2.161-.831-13.463-5.818-11.635.997-5.153 3.491 1.828 9.807 9.142 4.82.332 5.319-2.16 5.319-3.989 2.659-8.644 15.624.997 9.475-3.656 7.646-7.147 5.485-10.306 1.33-12.133-1.164-14.129-2.992-12.632-2.992-3.99-4.155-1.33-7.314 7.98-6.648 2.326-5.818-9.64-5.817-5.32-3.159-1.994-12.632-10.471-10.139-5.486-10.139-.83-11.801 1.994-10.306 3.823-7.147 5.817-5.651 6.815-5.818 1.662z" clip-rule="evenodd"/><path fill="#FFC" fill-rule="evenodd" d="M63.137 116.032c-11.39 13.284-8.86 29.397-5.703 45.182l-5.055-12.769-1.862-11.705.532-11.971 4.788-11.439q3.593-5.32 7.183-10.641l11.173-9.31 12.237-5.055 14.366-1.862-13.302 15.163c-10.68 3.464-16.978 5.797-24.357 14.407" clip-rule="evenodd"/><path fill="#FFC" fill-rule="evenodd" d="M116.757 75.555c-7.919 7.725-12.244 13.552-17.283 22.598-3.605 6.471-7.648 12.703-11.437 19.083-1.917 3.229-2.098 5.938-2.671 9.661l-5.587-6.65 2.66-7.981 9.045-16.227 19.154-18.888zm39.105-19.154c-6.342 2.378-16.874 3.161-17.605 10.44-.52 5.17.39 7.767 3.506 13.236-7.696-7.963-9.6-6.73-24.474-4.256l6.384-9.045 11.173-6.917 14.366-3.192z" clip-rule="evenodd"/><path fill="#CC0" fill-rule="evenodd" d="M173.362 154.863c2.112 1.303 2.067 2.247 1.713 3.141l4.997-1.999 3.237-4.346 2.402-6.193-3.07-2.309-13.418 1.713-1 2.713.286 3.854 1.285 2.284 1.998.999zm-1.249-22.949c-6.726 1.942-6.673 2.477-8.66 9.15 2.622-4.207 4.564-6.33 8.66-9.15m44.725-49.936c-1.196.552-2.36.818-3.107 1.912-1.609 2.354-2.988 4.335-5.65 5.987-1.34.833-2.726 1.373-4.147 1.815-1.179.367-1.887.04-2.891.76l1.786.313h3.938l4.854-2.998 2.855-2.998q1.18-2.396 2.362-4.791M109.693 96.904c-2.646 7.241-4.958 13.448-8.967 20.004 5.137-5.534 8.251-10.238 11.193-16.495 1.143-2.43 1.359-5.283 4.542-4.222.143 2.427.656 4.853.799 7.28 1.72-12.33 6.57-17.485 17.844-22.27l-9.564 1.143-8.994 1.998-4.426 6.424zm21.843-.284c2.431 11.443 5.931 22.425 7.452 34.05.988 7.554 1.096 11.183-2.705 17.7-4.153-.269-6.732.2-10.75 1.516-15.994 5.243-25.167 12.952-35.944-2.581l10.32 4.864 7.359-1.446 12.99-7.566 10.136-1.998 3.283-13.705-2.427-18.13-.285-8.565zm27.551 70.805c-1.343 9.297 3.094 14.295 1.257 16.862-.521.728-1.226 1.996-2.013 2.343-2.811 1.242-6.676-.232-6.953.495h-9.279l-3.711-1.57 5.71-6.71 5.567-12.134 3.569-12.277h1.856z" clip-rule="evenodd"/><path fill="#CC0" fill-rule="evenodd" d="M143.491 140.398c.754 4.221 2.063 5.224 4.048 9.31-1.322 6.667-3.445 14.595-6 20.476-1.077 2.481-1.947 3.848-3.847 5.765-3.207 3.239-6.45 6.061-10.087 8.868-2.618 2.018-4.446 1.006-7.677.548-1.373 2.491-1.753 3.875-4.282 5.139-3.889 1.944-7.369-2.246-10.421-4.711l6.61 10.326 4.568 4.283 3.855.571 5.139-3.141 2.712-5.139 5.71-4.283 6.995-5.995 4.426-6.282 3.997-7.423 5.139-15.417.428-5.853-6.424-2.855c-1.57-1.476-3.319-2.712-4.889-4.187m-51.213 29.739c7.205 0 14.814-.399 21.413-3.425 1.867-2.802 3.711-5.09 5.996-7.566-2.08 3.928-2.732 6.148-3.284 10.564l-2.141 3.14-16.274.428-5.282-.571-.571-.571zm-.999-4.996-.56-5.068c-1.23 7.409-.935 12.375-4.345 19.012-2.547 2.951-5.683 5.637-9.275 7.074.303 1.82.393 2.957.217 4.291-.632 4.799-10.233 2.679-14.182 2.488l19.008 4.894 4.283-1.713 1.428-8.28 3.997-7.423.713-4.568zm-10.707-41.826c-.2 3.602-.432 5.104 1.156 8.286 2.02 4.045 4.5 7.844 6.696 11.842l.713-7.995zM51.267 150.53l-1.854 3.946c1.701 5.729 3.213 9.358 6.452 14.363-.564 2.028-.986 2.915-2.284 4.568-2.85-.439-5.381-.566-8.27-.557l9.565 7.423 4.711-.856 4.711-4.711-6.71-10.421zm165.591-70.448c1.942 8.736 4.446 16.797 4.214 25.744-.285 10.977-2.425 24.842-12.595 31.462-11.39 7.412-24.76 3.906-37.256.73l15.274 6.281 14.276.714 9.707-2.855 7.566-6.281 5.711-11.991 2.141-13.848-1.713-13.561-3.141-13.42zM46.887 106.119c-5.171 3.365-7.202 4.843-6.635 11.08l1.546 5.604 2.19 1.482 2.706.902 4.895-1.16 2.513-7.794-6.957 3.414h-1.611l-1.804-2.77 2.19-3.221 1.16-6.12 1.482.451q.9.71 1.803 1.417l-.258-3.221-1.224-2.061-1.223-1.031zM162.893 56.97c4.588 4.262 10.221 7.966 13.891 13.174 1.421 2.016 2.999 3.047-.024 5.894 3.194-.912 4.381-.813 6.937-.504 4.652.563 9.011 7.175 9.289 11.913-.055.443-1.292 1.449-4.888 2.442-.071.138-2.03-.268-1.981-.136.374 1.023.873 1.18 1.636 1.658.165 1.137.272 2.89 1.046 4.134 2.263-.04 4.474.207 6.69.646.746 1.237.634 2.473.571 3.711l2.57-.428-.714-5.853 2.284-3.854-3.283-7.423-6.281-5.996-.605-.03-7.063-4.335-11.522-9.427zm7.73 35.174c-.242.423-.608 1.1-1.076 1.568 1.911 1.808 2.854 3.019 3.536 5.576l-6.482 3.219-5.485 5.258c-2.407-1.296-3.007-2.291-4.171-4.76-1.356.359-2.641.705-3.761.294.711.005 1.147-.173 1.857-.611l3.49-3.627 6.165-4.669 4.035-1.315c.514-.211 1.378-.722 1.892-.933" clip-rule="evenodd"/><path fill="#CC0" fill-rule="evenodd" d="M176.587 98.592c-6.874 3.701-13.459 7.424-16.974 14.454 0-8.923 8.959-12.851 16.974-14.454M158.248 81.04c-5.104 3.48-8.714 10.503-8.26 17.349-1.663-5.927-1.074-11.528 4.032-15.622l2.584-1.257z" clip-rule="evenodd"/><path fill="#000" fill-rule="evenodd" d="M168.006 133.88c1.055-.574 2.97-1.363 4.025-1.938-1.085.184-3.031.583-4.116.766-2.899.489-3.24 1.186-3.69 4.04-.212 1.344-.504 3.012-.716 4.356.568-1.52 1.252-3.287 1.914-4.736.701-1.533 1.095-1.678 2.583-2.488m-53.787-73.507c2.278-3.417 3.589-4.529 7.095-6.693-4.76 1.146-5.668 2.028-7.095 6.693m-.75 7.528c3.986-8.014 7.005-10.965 15.351-14.9-9.44 2.313-12.215 3.959-15.351 14.9m-85.37 41.714c.875-4.013 1.69-5.527 4.165-8.821-4.014 2.804-4.537 3.956-4.164 8.821m89.357 67.164-.363-2.922c-.219-1.764-.211-3.198-.07-4.974l.406-5.157c-.501 1.747-1.502 3.495-2.002 5.242-.2.699-.366 1.265-.461 1.787-7.47 1.527-14.885 1.622-22.357.289-.477-2.766-1.057-5.649-1.544-7.715-.147 2.315-.052 8.712-.064 12.295-.01 2.775-.127 3.725-1.558 6.086-1.34 2.211-1.907 2.712-3.783 6.447.156 2.356.16 3.914-.467 6.151-1.041 3.718-11.544.837-14.315.078-3.412-.933-10.467-2.322-8.693-6.871 1.562-4.003 2.551-8.223 3.314-13.825-6.251-9.006-12.065-21.347-13.18-32.282-.867-8.491-.347-13.717 1.49-18.91 2.911-8.229 6.984-15.351 13.52-21.087 8.814-7.735 17.055-10.842 29.957-12.806-3.103 3.473-6.172 7.146-9.518 11.084-3.387 3.988-5.4 8.014-7.55 12.375-2.972 6.023-2.908 8.315 1.03 13.602 3.395 4.557 5.227 6.609 6.709 11.067-1.224 2.522-1.669 4.654-2.08 8.099 4.155 4.542 7.243 7.655 11.278 8.614 3.958.941 7.264.759 10.804-1.051 7.865-4.021 15.141-9.213 24.013-9.427 4.104-10.091 3.689-18.521 1.719-28.284-1.346-6.667-1.885-12.979-2.304-19.777-1.664 7-1.976 13.156-.742 20.128 1.488 8.403 2.645 17.687-1.495 25.072-8.021.614-14.896 5.494-22.126 9.239-2.906 1.505-5.932 1.652-9.149.769-2.986-.82-5-2.795-8.217-6.505-.05-3.725.79-5.444 2.5-8.817 2.748-5.417 5.782-10.459 9.111-15.79-4.077 4.921-7.938 9.031-11.146 13.977-1.226-3.494-2.98-5.268-5.884-9.201-2.837-3.842-3.134-5.525-1.013-9.971 2.133-4.468 3.942-8.395 7.572-12.315 6.273-6.774 12.019-14.313 18.879-20.984 3.724-3.622 5.236-3.497 10.177-4.246 4.465-.677 8.825-1.531 13.379-2.59-4.405.411-8.662.562-12.949.669l-.133.002c4.218-5.387 6.666-8.389 13.518-11.366 16.868-7.326 27.586-8.118 40.837 3.02 3.434 2.887 6.433 5.69 9.916 8.18-1.263.108-2.351.335-3.79.9 1.751-.334 3.774-.003 5.591.33q.766.495 1.572.97c2.458 1.448 3.853 2.248 5.516 4.564a49.4 49.4 0 0 1 4.512 7.59c-.846-.302-1.555-.557-2.187-.745a4.71 4.71 0 0 0-4.436.275l-.103.048c-1.36.662-3.466 1.416-4.876 1.645.719.248 2.309.341 3.059.044q.151-.059.308-.095a4.7 4.7 0 0 0-.627 1.936 4.7 4.7 0 0 0 .507 2.624c.127.3.304.576.499.775a37 37 0 0 0-1.98.802c3.143-.478 5.977-.56 9.046-.156.202.967.406 1.992.595 3.034l-1.14.089-.092.008c-1.452-1.16-3.069-.965-5.279-.46-6.719 1.532-5.14 5.302-8.231 10.983 3.209-3.924 2.972-8.029 8.202-9.267 1.219-.289 2.049-.65 2.874-.526-1.485.747-2.77 1.985-3.279 3.423-1.436 4.054-.544 7.47-2.121 11.256 1.953-3.385 2.071-6.688 3.818-10.25.627-1.279 2.956-3.327 4.385-3.358l1.177-.026c.344 2.254.554 4.491.42 6.347-.243 3.386-1.123 8.413-1.65 10.336 1.77-2.275 2.576-7.093 3.353-10.484.81-3.532.605-7.77-.103-11.564-.973-5.206 4.389-4.36 7.501-6.812 2.288-1.804 3.863-4.684 5.961-6.724 2.08-2.023 5.356.95 6.174 2.928 3.549 8.585 5.165 22.092 4.228 30.746-1.052 9.711-5.743 20.313-14.308 25.094-10.919 6.094-23.793 2.371-34.642-1.284-2.315-.78-3.925-1.917-5.961-3.199.555 2.495.806 5.136.069 7.628-1.17 3.954-3.06 10.424 2.308 11.617 2.043.454 2.97.388 5.855-1.1-2.335.528-3.512.398-5.117.102-1.454-.268-2.225-1.192-2.631-2.281.508.367 1.336.566 2.752.907 3.98.959 7.773-.956 8.514-3.716.433-1.613.359-2.459 1.275-4.656a43 43 0 0 0 2.549.697l-1.479 4.822c-1.279 4.173-6.263 7.537-10.663 7.46-4.068-.072-6.647-2.62-9.455-5.118a1945 1945 0 0 0-5.642-5c-5.062-1.597-9.12-3.464-13.818-6.942 3.343 3.93 5.612 6.105 10.275 8.06-.679 6.918-3.083 11.961-5.132 18.582-.928 2.994-8.252 14.989-10.281 16.158-1.447.834-10.512 8.469-12.218 9.476-1.269 1.687-2.384 4.017-4.293 5.026-5.818 3.077-9.557-2.814-12.688-7.789-1.426-2.267-5.384-8.795-1.933-10.623 3.263-1.729 5.09-2.963 8.419-5.149.489.892 1.328 1.752 1.875 2.643m20.226 10.548c-2.945 2.379-7.899 6.591-8.86 7.119-1.74 2.597-1.955 4.205-4.742 5.714-8.299 4.49-12.704-.718-17.616-8.288-2.341-3.608-7.459-11.844-2.028-14.636 2.289-1.176 4.023-2.058 5.753-3.065-5.698.707-11.29.715-17.104-.159.103.701.193 1.369.265 1.981.378 3.177.502 4.151-1.224 6.711-1.258 1.867-1.743 2.407-3.262 5.798.276 2.758.156 4.309-.621 7.197-1.73 6.417-13.713 2.9-18.596 1.579-5.876-1.589-14.271-3.068-10.826-10.622a36 36 0 0 0 1.918-5.306c-5.138 2.274-12.277-2.55-15.677-5.959-3.234-3.242-4.991-7.008-5.603-10.662-.522-3.11-.044-3.094 2.175-5.293l6.09-6.03 2.46-6.69a49 49 0 0 1-.699-4.973c-.59-6.86-.391-11.745.589-16.236-3.575 1.395-7.677.741-9.501-3.052-.694-1.443-1.108-2.912-1.632-5.045-7.974-7.683 6.97-17.755 11.33-18.513-.5 1.417-1.045 2.712-1.526 3.997 2.957 1.53 2.594 5.891 1.966 8.698-1.063-1.342-1.65-3.097-3.215-3.172-.23 3.175-.19 6.684-2.67 8.548.735 1.962.696 1.964 2.783 1.162 2.963-1.141 5.194-3.682 7.438-6.162 2.417-4.709 5.516-8.897 9.779-12.676C75.3 90.005 85.2 86.966 101.144 84.425a110 110 0 0 1 6.669-6.428c3.189-2.815 5.26-3.399 8.276-3.556 4.991-6.676 8.918-11.325 17.056-14.75 17.056-7.18 28.813-7.526 42.503 3.762 4.524 3.73 8.382 7.66 13.354 10.774 2.516 1.575 4.314 2.708 6.222 4.98 2.399 2.858 4.358 5.717 5.722 9.397 1.762-.725 3.771-1.409 5.393-2.795 2.095-1.79 3.428-4.786 5.368-6.753 2.576-2.61 8.45.54 9.751 3.03 4.424 8.468 6.234 24.073 5.294 33.352-1.162 11.472-5.891 22.316-15.998 27.71-6.871 3.666-16.094 4.007-23.987 2.515l-1.533 5.05c-1.535 5.043-7.525 9.166-12.759 9.413-5.025.237-7.748-2.356-11.044-5.531l-5.188-4.995a38 38 0 0 1-.435 3.275c1.361 2.688 2.014 5.051 3.179 7.821 1.282 3.052 1.906 5.054 1.994 8.32l.233 8.697c1.293 2.298 1.406 2.857 1.218 5.485-.399 5.541-3.45 6.07-8.536 6.038-1.694-.011-8.09.029-9.72-.089-3.241-.234-5.377-.482-6.494-1.82m17.149-30.225c-1.023 3.654-2.399 7.102-3.654 11.055-1.188 3.743-7.281 14.609-10.867 17.243.698.519 1.979.723 4.262.92 1.614.139 7.981.169 9.579.196 3.519.062 4.855-.203 5.21-4.21.174-1.961.021-2.328-.96-4.048l-.261-9.202c-.081-2.907-.64-4.582-1.783-7.292-.684-1.622-1.056-3.135-1.526-4.662M47.641 106.91c.79-.089 1.278.325 1.89.936-.114-1.459-.383-2.541-1.408-3.137q-.108.355-.203.715c-.124.469-.212.968-.28 1.486m4.963 10.542a78 78 0 0 0-1.593 4.554q-.123.39-.238.78c-3.005 1.274-6.956 2.084-8.469-1.074-.734-1.533-1.148-3.037-1.684-4.974-4.949-5.127 2.449-11.895 6.478-14.323-.583 1.254-.997 2.203-1.28 3.18-1.225 4.234.555 8.012-3.288 11.082 1.806 3.644 1.723 5.097 5.924 3.413 1.621-.649 2.958-1.561 4.15-2.638m-1.158 34.5c2.278 7.877 6.157 15.617 10.457 22.124v.114c-.27 1.119-.582 2.209-1.235 3.084-3.074 4.112-10.893-1.924-13.156-4.235-2.474-2.526-4.13-5.517-4.524-8.323-.286-2.046-.008-2.096 1.42-3.544l5.774-5.845q.631-1.688 1.264-3.375m145.547-63.227c.439.433.792.95 1.036 1.52q.2-.182.424-.347-.27-.608-.551-1.2-.467.01-.909.027m-37.65 14.169a6.1 6.1 0 0 1-.6-2.603c-1.475 1.179-3.079 2.296-4.743 2.941 2.298-2.052 5.419-6.892 7.681-8.42 2.567-1.734 6.05-1.396 9.043-2.78-1.022.928-2.331 1.676-3.664 2.388a6.17 6.17 0 0 1 4.023 5.12c2.011-.66 3.985-.972 5.652-.948-5.965 1.674-12.31 5.59-16.685 10.776a14 14 0 0 1 2.006-3.663 6.14 6.14 0 0 1-2.713-2.811M131.68 81.315c-3.294 1.285-6.298 2.25-9.509 3.057-2.93 3.85-4.715 5.845-5.389 11.007-.794-5.078-.959-6.02 1.301-9.81-.655.332-1.264.79-2.137 1.536-3.157 2.7-7.272 13.309-8.918 17.102 1.045-4.565 4.312-15.977 7.677-19.303 2.213-2.188 2.715-2.138 5.835-2.433a620 620 0 0 0 11.14-1.156m68.754 11.07c2.672.252 4.2.665 6.593-.519 4.46-2.207 7.741-5.81 9.869-10.12-1.302 5.142-3.921 9.51-9.355 11.449-2.668.95-4.389-.031-7.107-.81m-51.283.502c1.007-4.459 2.794-8.754 9.718-12.078-9.177 2.298-10.898 6.153-9.718 12.078M30.149 116.898c.787-8.916 2.52-12.765 8.856-19.475-7.946 5.599-9.929 8.143-8.856 19.475" clip-rule="evenodd"/><path fill="#FFC" fill-rule="evenodd" d="M160.54 104.33a2.583 2.583 0 0 1 1.221-3.44 2.59 2.59 0 0 1 3.448 1.218q.086.182.142.372a16.3 16.3 0 0 0-3.297 3.228c-.637-.255-1.199-.72-1.514-1.378m28.732-11.115c.103-1.063 1.009-1.847 2.072-1.744a1.944 1.944 0 0 1 1.744 2.115 1.9 1.9 0 0 1-.175.634c-.972.165-1.945.45-2.947.82-.419-.43-.753-1.213-.694-1.826" clip-rule="evenodd"/></svg>