<svg xmlns="http://www.w3.org/2000/svg" width="256" height="256" fill="none"><path fill="#282828" d="M196 0H60C26.863 0 0 26.863 0 60v136c0 33.137 26.863 60 60 60h136c33.137 0 60-26.863 60-60V60c0-33.137-26.863-60-60-60"/><path fill="#F0D50C" d="M241 180.407s-34.271-5.076-52.38-6.532c-17.392-1.397-38-2.204-60.11-2.204s-42.717.807-60.104 2.204c-18.114 1.476-52.38 8.519-52.38 8.519v8.854c0 7.87 50.363 14.264 112.484 14.264 62.122 0 112.485-6.394 112.485-14.264zM93.924 62.973c-41.074 14.633-68.504 53.514-68.507 97.11v14.599a249.6 249.6 0 0 1 44.652-6.473 241 241 0 0 1-.158-8.466c.015-38.306 9.264-72.776 24.013-96.77"/><path fill="#FFF04D" d="M231.598 160.083a102.63 102.63 0 0 0-23.531-65.541 213.7 213.7 0 0 1 9.76 65.211q0 6.037-.309 11.933c4.691.722 9.337 1.707 13.917 2.952z"/><path fill="#FFEA00" d="M231.598 160.083a102.63 102.63 0 0 0-23.531-65.541 213.7 213.7 0 0 1 9.76 65.211q0 6.037-.309 11.933c4.691.722 9.337 1.707 13.917 2.952z"/><path fill="#FFF04D" d="M208.067 94.537c-27.62-33.474-73.239-46.089-114.138-31.564-14.76 23.994-24.003 58.464-24.003 96.776q0 4.263.157 8.464c15.35-1.185 33.119-1.918 52.149-2.05h6.288a601.5 601.5 0 0 1 89.007 5.542q.301-5.901.311-11.932a213.7 213.7 0 0 0-9.771-65.236"/><path fill="#FFF04D" d="m169.978 101.354-6.533-40.825a7.87 7.87 0 0 0-5.53-6.34 103.57 103.57 0 0 0-58.313 0 7.87 7.87 0 0 0-5.525 6.34l-6.54 40.825m40.983 63.942h-6.293c-59.198.414-106.198 6.631-106.198 14.24v11.028a2.75 2.75 0 0 0 .39 1.859 26.3 26.3 0 0 1 10.134-4.653 198 198 0 0 1 28.442-4.761 19.06 19.06 0 0 1 14.92 4.869 40.14 40.14 0 0 0 27.109 10.531h62.972a40.15 40.15 0 0 0 27.108-10.531 19.05 19.05 0 0 1 14.927-4.874 198 198 0 0 1 28.436 4.762 23.8 23.8 0 0 1 9.612 4.205c.163.162.35.305.493.452a2.77 2.77 0 0 0 .393-1.869v-11.028c.035-7.845-50.328-14.23-112.445-14.23"/><path fill="#6E6F70" d="m152.213 132.548-23.723 14.599v18.961z"/><path fill="#0A0A0A" d="M128.515 166.108v-18.961l-23.723-14.599zm-23.723-42.221 23.723 13.713V85.526z"/><path fill="#6E6F70" d="m152.213 123.887-23.722-38.366v52.074l23.722-13.713z"/></svg>