<svg xmlns="http://www.w3.org/2000/svg" fill="none" viewBox="0 0 256 256"><path fill="#282828" d="M196 0H60C26.863 0 0 26.863 0 60v136c0 33.137 26.863 60 60 60h136c33.137 0 60-26.863 60-60V60c0-33.137-26.863-60-60-60"/><g fill-rule="evenodd" clip-path="url(#clip0_85_172)" clip-rule="evenodd"><path fill="#706BC8" d="m64.006 28.001 121.731 70.462a10.55 10.55 0 0 1 5.258 9.133v23.445c0 1.883-.501 3.695-1.408 5.273L69.22 66.642a10.46 10.46 0 0 1-5.214-9.055z"/><path fill="#55C5E4" d="M185.781 189.356a10.46 10.46 0 0 1 5.214 9.053v29.585L69.266 157.535a10.55 10.55 0 0 1-5.26-9.133v-23.445c0-1.885.5-3.698 1.408-5.273 0 0 96.638 55.935 120.367 69.672"/><path fill="#84DDEA" d="M75.719 147.71a7.74 7.74 0 0 0-2.848 2.855c-2.129 3.696-.89 8.476 2.758 10.651l-6.364-3.682a10.55 10.55 0 0 1-5.26-9.133v-23.445c0-3.769 2.005-7.25 5.26-9.133l110.019-63.675.053-.03a7.7 7.7 0 0 0 2.792-2.824c2.13-3.697.892-8.475-2.757-10.652h.002l6.362 3.682a10.55 10.55 0 0 1 5.26 9.134v23.444c0 3.77-2.004 7.25-5.26 9.133l-6.541 3.787.089-.058z"/><path fill="#997BC8" d="M75.719 203.85a7.75 7.75 0 0 0-2.848 2.852c-2.129 3.698-.89 8.476 2.758 10.654l-6.364-3.683a10.55 10.55 0 0 1-5.26-9.133v-23.444c0-3.769 2.005-7.25 5.26-9.133l110.019-63.675.053-.031a7.74 7.74 0 0 0 2.792-2.824c2.13-3.698.892-8.476-2.757-10.653h.002l6.362 3.684a10.55 10.55 0 0 1 5.26 9.133v23.445c0 3.767-2.004 7.25-5.26 9.133l-6.541 3.784.089-.055z"/></g><defs><clipPath id="clip0_85_172"><path fill="#fff" d="M64 28h127v200H64z"/></clipPath></defs></svg>