<svg xmlns="http://www.w3.org/2000/svg" fill="none" viewBox="0 0 256 256"><path fill="#F4F2ED" d="M196 0H60C26.863 0 0 26.863 0 60v136c0 33.137 26.863 60 60 60h136c33.137 0 60-26.863 60-60V60c0-33.137-26.863-60-60-60"/><path fill="#0F1689" d="M142.907 103.864h-12.522v48.894h29.217V139.64h-16.695zm35.18 0h-4.174v48.894h12.521v-25.044l12.522 11.33 12.522-11.33v25.044H224v-48.894h-4.771l-1.192.596-2.385 1.789-16.696 15.503-15.503-14.311-2.981-2.385zm-133.565 0H32v48.894h12.522v-18.485h14.907v18.485H71.95v-48.894H59.43v17.291H44.522zm71.552 0H86.857v48.894h29.217v-10.733H99.379v-8.944h14.907v-10.733H99.379v-7.752h16.695zm6.733-75.883c-2.082 7.83-2.095 15.77-.479 23.523l13.554-.063c1.28-6.01 1.477-12.321.587-18.294-.416-3.505-1.179-6.814-2.929-9.932-.289-.84-.825-1.633-1.461-2.278-1.955-2.182-4.37-2.099-6.213.307l-.399.589c-1.296 1.915-2.052 3.982-2.66 6.148M70.213 49.484c2.664 7.65 7.104 14.234 12.788 19.75l11.19-7.651c-2.31-5.694-5.684-11.031-9.77-15.479-2.308-2.669-4.795-4.982-7.992-6.583-.71-.534-1.599-.89-2.487-1.067-2.841-.712-4.795.711-4.973 3.736v.712c0 2.313.533 4.447 1.244 6.582m119.33 0c-2.664 7.65-7.105 14.234-12.788 19.75l-11.19-7.651c2.309-5.694 5.684-11.031 9.769-15.479 2.309-2.669 4.795-4.982 7.992-6.583.711-.534 1.599-.89 2.487-1.067 2.842-.712 4.796.711 4.973 3.736v.712c0 2.313-.533 4.447-1.243 6.582m-66.736 179.11c-2.082-7.829-2.095-15.77-.479-23.523l13.554.063c1.28 6.009 1.477 12.321.587 18.294-.416 3.505-1.179 6.814-2.929 9.932-.289.84-.825 1.633-1.461 2.278-1.955 2.182-4.37 2.099-6.213-.307l-.399-.589c-1.296-1.915-2.052-3.982-2.66-6.148m-52.594-21.503c2.664-7.651 7.104-14.234 12.788-19.749l11.19 7.65c-2.31 5.694-5.684 11.031-9.77 15.479-2.308 2.669-4.795 4.982-7.992 6.583-.71.534-1.599.889-2.487 1.067-2.841.712-4.795-.711-4.973-3.736v-.712c0-2.313.533-4.447 1.244-6.582m119.33 0c-2.664-7.651-7.105-14.234-12.788-19.749l-11.19 7.65c2.309 5.694 5.684 11.031 9.769 15.479 2.309 2.669 4.795 4.982 7.992 6.583.711.534 1.599.889 2.487 1.067 2.842.712 4.796-.711 4.973-3.736v-.712c0-2.313-.533-4.447-1.243-6.582"/><path fill="#0F1689" fill-rule="evenodd" d="M192.684 173.031c-14.077 19.504-37.004 32.199-62.896 32.199-25.891 0-48.818-12.695-62.896-32.199h19.603C97.686 184.143 113.047 191 129.996 191s32.309-6.857 43.501-17.969zm1.655-88.248c-13.893-20.849-37.618-34.584-64.551-34.584s-50.657 13.735-64.55 34.584H85.69C96.944 73.193 112.637 66 129.996 66s33.051 7.192 44.305 18.783z" clip-rule="evenodd"/></svg>