<svg xmlns="http://www.w3.org/2000/svg" fill="none" viewBox="0 0 256 256"><g clip-path="url(#clip0_489_23)"><path fill="#D6AF46" d="M196 0H60C26.863 0 0 26.863 0 60v136c0 33.137 26.863 60 60 60h136c33.137 0 60-26.863 60-60V60c0-33.137-26.863-60-60-60"/><path fill="#fff" d="M122.001 33c35.143 0 65.827 19.086 82.261 47.456l-.16-.273-41.349 23.808c-8.146-13.793-23.081-23.102-40.213-23.293l-.539-.003c-26.126 0-47.306 21.179-47.306 47.304a47.1 47.1 0 0 0 6.239 23.47c8.154 14.235 23.482 23.837 41.067 23.837 17.692 0 33.108-9.724 41.221-24.111l-.197.345 41.286 23.918c-16.254 28.13-46.517 47.157-81.252 47.536l-1.058.006c-35.255 0-66.026-19.204-82.419-47.724C31.579 161.353 27 145.212 27 127.999 27 75.533 69.532 33 122.001 33"/><path fill="#fff" d="M221 112.333h-11.334V101h-11.332v11.333H187v11.333h11.334V155h11.332v-31.334H221z"/></g><defs><clipPath id="clip0_489_23"><path fill="#fff" d="M0 0h256v256H0z"/></clipPath></defs></svg>