<svg xmlns="http://www.w3.org/2000/svg" width="256" height="256" fill="none"><rect width="256" height="256" fill="#282828" rx="60"/><path fill="#FF5B11" d="M131.067 38.016q.765-.093 1.35.359a687 687 0 0 1 40.494 50.677 243 243 0 0 1 23.911 41.692q15.747 39.143-16.391 68.108-28.12 22.149-64.79 17.252-43.833-8.328-59.584-47.262-4.102-12.676-2.7-25.878 2.337-22.726 11.57-43.848A64.5 64.5 0 0 1 74.954 83.3q5.041 5.596 9.642 11.502a67 67 0 0 0 4.435 3.953q17.596-32.543 42.036-60.74" opacity=".993"/><path fill="#FF9758" d="M128.368 67.128a382.6 382.6 0 0 1 38.373 48.88 98.5 98.5 0 0 1 8.87 17.971q7.279 26.69-15.619 44.028-22.147 14.523-48.593 8.626-28.52-8.248-32.974-35.762-1.08-8.675 1.929-16.892a119 119 0 0 1 10.412-19.409l11.57-15.814a3017 3017 0 0 0 26.032-31.628"/></svg>