<svg xmlns="http://www.w3.org/2000/svg" fill="none" viewBox="0 0 256 256"><rect width="256" height="256" fill="#8C6ED3" rx="60"/><path fill="#fff" d="M69.5 196.463A89.82 89.82 0 0 1 38 127.988c0-24.863 10.088-47.362 26.363-63.637 34.5-34.49 90.191-35.213 125.58-1.64 35.385 33.578 37.582 89.232 4.95 125.491-32.633 36.262-88.208 39.926-125.318 8.261zm-7.237-62.925c9.937-8.813 16.987-20.55 35.737-20.55 30 0 30 30 60 30 18.75 0 25.8-11.738 35.775-20.55-3.064-36.326-34.999-63.289-71.325-60.225s-63.289 34.999-60.225 71.325z"/></svg>