<svg xmlns="http://www.w3.org/2000/svg" width="256" height="256" fill="none"><rect width="256" height="256" fill="#F4F2ED" rx="60"/><path fill="#FFD21E" d="M127.426 192.261a68.8 68.8 0 0 0 48.627-20.124 68.7 68.7 0 0 0 20.142-48.586c0-18.223-7.246-35.7-20.142-48.585a68.8 68.8 0 0 0-48.627-20.125 68.8 68.8 0 0 0-48.627 20.125 68.68 68.68 0 0 0-20.141 48.585c0 18.223 7.245 35.7 20.141 48.586a68.8 68.8 0 0 0 48.627 20.124"/><path fill="#FF9D0B" d="M196.195 123.551c0-18.223-7.246-35.7-20.142-48.585a68.8 68.8 0 0 0-48.627-20.125 68.8 68.8 0 0 0-48.627 20.125 68.68 68.68 0 0 0-20.141 48.585c0 18.223 7.245 35.7 20.141 48.586a68.8 68.8 0 0 0 48.627 20.124 68.8 68.8 0 0 0 48.627-20.124 68.7 68.7 0 0 0 20.142-48.586m-145.453 0a76.6 76.6 0 0 1 5.837-29.32 76.6 76.6 0 0 1 16.623-24.858A76.7 76.7 0 0 1 98.08 52.764a76.74 76.74 0 0 1 58.692 0 76.7 76.7 0 0 1 24.878 16.609 76.6 76.6 0 0 1 16.623 24.857 76.6 76.6 0 0 1 5.837 29.321 76.6 76.6 0 0 1-22.46 54.178 76.72 76.72 0 0 1-54.224 22.441 76.72 76.72 0 0 1-54.224-22.441 76.6 76.6 0 0 1-22.46-54.178"/><path fill="#3A3B45" d="M149.768 104.866c2.533.87 3.523 6.05 6.076 4.706a9.89 9.89 0 0 0 5.21-9.675 9.893 9.893 0 0 0-12.698-8.526 9.89 9.89 0 0 0-6.997 8.475 9.9 9.9 0 0 0 1.107 5.633c1.207 2.274 5.046-1.424 7.322-.633zm-46.604 0c-2.533.87-3.542 6.05-6.075 4.706a9.89 9.89 0 0 1-5.21-9.675 9.88 9.88 0 0 1 6.953-8.51 9.9 9.9 0 0 1 10.53 3.162 9.88 9.88 0 0 1 1.105 10.93c-1.208 2.274-5.067-1.424-7.323-.633z"/><path fill="#FF323D" d="M126.931 152.301c19.453 0 25.727-17.321 25.727-26.219 0-4.627-3.107-3.164-8.094-.712-4.611 2.274-10.805 5.418-17.613 5.418-14.228 0-25.726-13.604-25.726-4.706s6.253 26.219 25.726 26.219z"/><path fill="#3A3B45" fill-rule="evenodd" d="M112.03 147.773a17.2 17.2 0 0 1 10.488-8.878c.792-.237 1.603 1.127 2.454 2.531.792 1.344 1.623 2.709 2.454 2.709.891 0 1.781-1.345 2.632-2.67.891-1.384 1.761-2.728 2.612-2.471a17.03 17.03 0 0 1 9.895 8.245c7.382-5.813 10.093-15.304 10.093-21.157 0-4.627-3.107-3.164-8.094-.712l-.277.139c-4.572 2.274-10.667 5.279-17.356 5.279-6.688 0-12.764-3.005-17.355-5.279-5.145-2.551-8.371-4.153-8.371.573 0 6.031 2.889 15.937 10.825 21.691" clip-rule="evenodd"/><path fill="#FF9D0B" d="M173.931 114.159a6.43 6.43 0 0 0 4.548-1.882 6.425 6.425 0 0 0-4.548-10.97 6.43 6.43 0 0 0-4.547 1.882 6.42 6.42 0 0 0 0 9.088 6.43 6.43 0 0 0 4.547 1.882m-92.02 0a6.44 6.44 0 0 0 4.547-1.882 6.424 6.424 0 0 0-4.548-10.97 6.44 6.44 0 0 0-4.547 1.882 6.424 6.424 0 0 0 4.547 10.97m-13.24 21.75c-3.206 0-6.055 1.305-8.054 3.698a11.8 11.8 0 0 0-2.632 7.434 14 14 0 0 0-3.84-.593c-3.067 0-5.837 1.166-7.796 3.282a11.46 11.46 0 0 0-1.583 13.841 10.48 10.48 0 0 0-3.543 5.576 11.55 11.55 0 0 0 1.583 9.372 10.32 10.32 0 0 0-.732 9.926c2.019 4.587 7.065 8.186 16.86 12.062 6.076 2.412 11.657 3.954 11.696 3.974a87.8 87.8 0 0 0 21.63 3.163c11.597 0 19.889-3.559 24.658-10.558 7.678-11.251 6.59-21.552-3.364-31.478-5.482-5.497-9.143-13.584-9.895-15.364-1.544-5.259-5.62-11.112-12.369-11.112a11.28 11.28 0 0 0-9.103 4.864c-1.979-2.491-3.918-4.449-5.66-5.576a14.66 14.66 0 0 0-7.856-2.511m0 7.909c1.01 0 2.256.435 3.602 1.285 4.235 2.689 12.368 16.669 15.356 22.106.99 1.819 2.712 2.59 4.235 2.59 3.068 0 5.442-3.025.297-6.88-7.757-5.794-5.046-15.265-1.345-15.838.158-.04.336-.04.474-.04 3.365 0 4.849 5.793 4.849 5.793s4.354 10.915 11.834 18.389c7.461 7.454 7.856 13.446 2.414 21.414-3.72 5.438-10.824 7.079-18.127 7.079-7.54 0-15.297-1.78-19.63-2.887-.219-.06-26.618-7.514-23.273-13.841.554-1.068 1.484-1.503 2.651-1.503 4.71 0 13.26 7 16.96 7 .811 0 1.385-.336 1.642-1.187 1.564-5.635-23.866-8.008-21.728-16.154.396-1.443 1.405-2.017 2.85-2.017 6.213 0 20.185 10.935 23.114 10.935.217 0 .395-.06.474-.198 1.465-2.373.654-4.034-9.696-10.282-10.31-6.248-17.573-10.005-13.457-14.493.475-.515 1.148-.752 1.979-.752 6.273 0 21.095 13.485 21.095 13.485s3.998 4.152 6.432 4.152c.554 0 1.029-.197 1.346-.751 1.701-2.887-15.95-16.253-16.94-21.77-.673-3.756.475-5.635 2.592-5.635"/><path fill="#FFD21E" d="M110.387 192.637c5.442-7.988 5.047-13.979-2.414-21.434-7.48-7.454-11.834-18.388-11.834-18.388s-1.623-6.328-5.323-5.734c-3.701.593-6.412 10.044 1.345 15.838 7.738 5.793-1.543 9.728-4.532 4.29-2.968-5.437-11.121-19.417-15.356-22.106-4.215-2.669-7.184-1.186-6.194 4.35.99 5.517 18.661 18.883 16.94 21.75-1.722 2.907-7.778-3.381-7.778-3.381S56.303 150.6 52.167 155.089c-4.117 4.488 3.146 8.245 13.457 14.493 10.35 6.248 11.16 7.909 9.696 10.282-1.484 2.373-24.301-16.866-26.438-8.7-2.138 8.126 23.292 10.479 21.729 16.115-1.584 5.635-17.93-10.638-21.254-4.311-3.365 6.347 23.054 13.802 23.272 13.861 8.51 2.214 30.179 6.901 37.758-4.192"/><path fill="#FF9D0B" d="M187.171 135.909c3.205 0 6.075 1.305 8.054 3.698a11.8 11.8 0 0 1 2.632 7.434 14 14 0 0 1 3.859-.593c3.067 0 5.838 1.167 7.797 3.282a11.466 11.466 0 0 1 1.583 13.841 10.5 10.5 0 0 1 3.523 5.576c.474 1.78.949 5.536-1.584 9.372a10.31 10.31 0 0 1 .733 9.926c-2.019 4.587-7.065 8.186-16.841 12.062-6.095 2.412-11.676 3.954-11.716 3.974a87.8 87.8 0 0 1-21.63 3.164c-11.596 0-19.888-3.56-24.657-10.559-7.679-11.251-6.59-21.552 3.364-31.478 5.501-5.497 9.163-13.584 9.915-15.364 1.543-5.259 5.6-11.112 12.348-11.112a11.28 11.28 0 0 1 9.103 4.864c1.979-2.491 3.919-4.449 5.68-5.576a14.65 14.65 0 0 1 7.837-2.511m0 7.909c-1.01 0-2.237.435-3.602 1.285-4.215 2.689-12.369 16.669-15.357 22.106a4.81 4.81 0 0 1-4.235 2.591c-3.047 0-5.442-3.026-.277-6.881 7.738-5.794 5.027-15.265 1.326-15.838a3 3 0 0 0-.475-.04c-3.364 0-4.848 5.794-4.848 5.794s-4.354 10.914-11.815 18.388c-7.48 7.454-7.876 13.446-2.414 21.414 3.701 5.438 10.825 7.079 18.107 7.079 7.56 0 15.298-1.78 19.651-2.887.198-.059 26.617-7.514 23.273-13.841-.574-1.068-1.484-1.503-2.652-1.503-4.71 0-13.279 7-16.96 7-.831 0-1.405-.336-1.642-1.187-1.583-5.635 23.846-8.008 21.709-16.154-.376-1.443-1.385-2.017-2.85-2.017-6.214 0-20.185 10.935-23.114 10.935-.198 0-.376-.06-.455-.198-1.464-2.373-.673-4.034 9.657-10.282 10.35-6.248 17.613-10.005 13.457-14.493-.455-.514-1.128-.752-1.939-.752-6.293 0-21.116 13.485-21.116 13.485s-3.997 4.153-6.411 4.153a1.47 1.47 0 0 1-1.346-.752c-1.722-2.887 15.93-16.253 16.92-21.77.673-3.756-.475-5.635-2.592-5.635"/><path fill="#FFD21E" d="M145.474 192.637c-5.442-7.988-5.066-13.979 2.414-21.434 7.461-7.454 11.815-18.388 11.815-18.388s1.622-6.328 5.343-5.734c3.681.593 6.392 10.044-1.346 15.838-7.757 5.793 1.544 9.728 4.512 4.29 2.988-5.437 11.142-19.417 15.357-22.106 4.215-2.669 7.203-1.186 6.194 4.35-.99 5.517-18.642 18.883-16.92 21.75 1.702 2.907 7.757-3.381 7.757-3.381s18.959-17.222 23.075-12.733c4.116 4.488-3.127 8.245-13.457 14.493-10.35 6.248-11.141 7.909-9.697 10.282 1.484 2.373 24.302-16.866 26.439-8.7 2.137 8.126-23.272 10.479-21.709 16.115 1.583 5.635 17.909-10.638 21.254-4.311 3.344 6.347-23.055 13.802-23.273 13.861-8.529 2.214-30.198 6.901-37.758-4.192"/></svg>