<svg xmlns="http://www.w3.org/2000/svg" width="256" height="256" fill="none"><rect width="256" height="256" fill="#282828" rx="60"/><path fill="#C9177D" fill-rule="evenodd" d="M122.848 17.717h6.782q8.99 1.162 16.957 5.935a5554 5554 0 0 0 65 37.87q11.483 8.421 14.13 22.326v87.043q-3.096 15.375-15.826 24.587a5668 5668 0 0 0-66.13 37.305q-6.053 2.917-12.435 4.239h-10.174q-8.007-1.686-15.261-5.935l-58.782-33.913q-13.215-9.338-16.392-25.152V85.544q3.205-15.027 15.261-24.587a3660 3660 0 0 1 65.565-40.13 63.4 63.4 0 0 1 11.305-3.11" clip-rule="evenodd" opacity=".988"/><path fill="#FE4088" fill-rule="evenodd" d="M122.283 33.544q7.037-.635 13.565 1.978l63.304 36.739q8.982 4.176 11.022 13.848.566 41.26 0 82.521-1.938 10.131-11.022 14.979l-62.174 35.043q-10.058 5.772-20.348.565a4960 4960 0 0 0-61.608-35.608q-7.797-5.842-8.761-15.544a2849 2849 0 0 1 0-80.26q2.86-11.052 12.717-16.675a4232 4232 0 0 0 55.957-34.478q3.574-2.078 7.348-3.108" clip-rule="evenodd"/><path fill="#FFFDFE" fill-rule="evenodd" d="M148.283 134.717a733 733 0 0 0-40.696-.565v51.435H83.283v-117h24.304v42.391h40.696V68.587h24.869v117h-24.869z" clip-rule="evenodd"/></svg>