<svg xmlns="http://www.w3.org/2000/svg" fill="none" viewBox="0 0 256 256"><g clip-path="url(#clip0_85_174)"><path fill="#F4F2ED" d="M196 0H60C26.863 0 0 26.863 0 60v136c0 33.137 26.863 60 60 60h136c33.137 0 60-26.863 60-60V60c0-33.137-26.863-60-60-60"/><path fill="#000" d="M127.079 219.046 40 172.909l29.782-15.654 33.529 17.757 28.133-14.79-33.528-17.757 29.78-15.691 87.081 46.135-29.783 15.654-31.677-16.779-28.175 14.827 31.719 16.781z"/><path fill="url(#paint0_linear_85_174)" d="M127.081 127.272 40 81.137l29.782-15.656 33.531 17.757 28.134-14.79L97.916 50.69 127.698 35l87.079 46.135-29.783 15.654-31.675-16.78-28.175 14.828 31.717 16.781z"/></g><defs><linearGradient id="paint0_linear_85_174" x1="164.998" x2="138.781" y1="35" y2="141.031" gradientUnits="userSpaceOnUse"><stop stop-color="#0DA3D3"/><stop offset="1" stop-color="#27245D"/></linearGradient><clipPath id="clip0_85_174"><path fill="#fff" d="M0 0h256v256H0z"/></clipPath></defs></svg>