<svg xmlns="http://www.w3.org/2000/svg" fill="none" viewBox="0 0 256 256"><path fill="#282828" d="M196 0H60C26.863 0 0 26.863 0 60v136c0 33.137 26.863 60 60 60h136c33.137 0 60-26.863 60-60V60c0-33.137-26.863-60-60-60"/><path fill="url(#paint0_linear_529_8)" d="M138.178 17.01c.657.696 1.076 1.033 1.366 1.459 5.268 7.798 10.457 15.655 15.805 23.401 3.077 4.459 6.353 8.782 9.639 13.092 3.177 4.174 6.531 8.21 9.712 12.385 3.678 4.828 7.405 9.63 10.823 14.64 4.378 6.419 8.788 12.85 12.575 19.616 3.22 5.752 5.793 11.897 8.254 18.032 1.742 4.343 2.91 8.93 4.157 13.458.577 2.099.738 4.313 1.075 6.475.416 2.647 1.122 5.293 1.164 7.947.116 6.91.716 13.844-.488 20.725-1.326 7.587-3.546 14.85-6.848 21.857-3.339 7.078-7.383 13.616-12.335 19.665-4.486 5.482-9.754 10.01-15.451 14.161-4.183 3.046-8.607 5.633-13.314 7.689-4.236 1.849-8.601 3.33-13.094 4.584-10.144 2.825-20.429 3.446-30.788 2.716-6.244-.438-12.562-1.204-18.509-3.452-4.89-1.848-9.815-3.673-14.489-5.983-3.691-1.821-7.228-4.105-10.467-6.65-4.25-3.336-8.419-6.867-12.097-10.804-3.296-3.525-6.15-7.548-8.709-11.653-2.698-4.333-5.077-8.914-7.119-13.597-2.207-5.056-3.632-10.379-4.793-15.831-1.808-8.484-1.224-16.976-.855-25.441.212-4.861 1.495-9.725 2.725-14.474 1.297-5.01 2.864-9.986 4.764-14.798 1.903-4.818 4.114-9.557 6.644-14.075 3.177-5.67 6.68-11.171 10.292-16.577 3.28-4.91 6.822-9.65 10.382-14.362 2.866-3.795 5.994-7.396 8.897-11.165 2.935-3.811 5.76-7.709 8.6-11.593 3.005-4.112 6.033-8.207 8.936-12.392 3.682-5.303 7.228-10.702 10.876-16.029.522-.762 1.28-1.366 1.927-2.043q.192.11.389.218c.027.584.076 1.168.076 1.753.003 8.689.05 17.378-.056 26.068-.016 1.273-.534 2.69-1.227 3.782-2.804 4.438-5.671 8.844-8.702 13.13-2.874 4.063-5.978 7.964-8.98 11.934-2.474 3.27-4.938 6.544-7.429 9.802-1.728 2.26-3.543 4.455-5.232 6.745-2.362 3.208-4.734 6.419-6.937 9.736-2.66 3.999-5.275 8.039-7.663 12.2-1.71 2.977-3.055 6.168-4.484 9.297-.791 1.736-1.52 3.511-2.098 5.326-1.022 3.221-1.84 6.505-2.863 9.726-2.877 9.049-2.266 18.359-1.623 27.556.326 4.67 2.015 9.29 3.43 13.824 1.983 6.35 5.384 11.98 9.22 17.406 2.62 3.706 5.592 7.055 8.954 10.019 2.768 2.435 5.773 4.676 8.93 6.574 3.592 2.158 7.333 4.214 11.256 5.633 4.186 1.515 8.61 2.637 13.023 3.195 5.255.663 10.609.521 15.917.772 4.929.231 9.709-.756 14.492-1.696 6.073-1.195 11.622-3.815 17.016-6.687 6.449-3.432 11.869-8.293 16.616-13.771 4.852-5.6 8.926-11.897 11.519-18.811 2.735-7.293 5.015-14.841 4.668-22.857-.188-4.333.05-8.692-.349-12.999-.294-3.172-1.195-6.307-2.033-9.406-.983-3.64-1.989-7.293-3.351-10.801-1.356-3.495-3.088-6.848-4.79-10.198-1.508-2.966-3.075-5.913-4.836-8.732a153 153 0 0 0-6.822-10.042c-3.645-4.917-7.502-9.676-11.187-14.56-4.314-5.72-8.619-11.445-12.789-17.27-3.599-5.023-7.03-10.168-10.461-15.31-.551-.825-.989-1.91-.999-2.877-.076-9.402-.05-18.805-.043-28.207 0-.313.079-.63.191-1.465z"/><defs><linearGradient id="paint0_linear_529_8" x1="45.943" x2="231.976" y1="205.904" y2="50.771" gradientUnits="userSpaceOnUse"><stop stop-color="#00A2F8"/><stop offset="1" stop-color="#00E5CF"/></linearGradient></defs></svg>