<svg xmlns="http://www.w3.org/2000/svg" fill="none" viewBox="0 0 256 256"><path fill="#F4F2ED" d="M196 0H60C26.863 0 0 26.863 0 60v136c0 33.137 26.863 60 60 60h136c33.137 0 60-26.863 60-60V60c0-33.137-26.863-60-60-60"/><path fill="#00AAD4" d="m121.145 99.812 49.101 49.101c5.586 5.586 5.586 14.643 0 20.229s-14.643 5.586-20.229 0l-49.101-49.101z"/><circle cx="149.833" cy="72.227" r="14.304" fill="#00AAD4" transform="rotate(-45 149.833 72.227)"/><circle cx="111.582" cy="110.478" r="14.304" fill="#00AAD4" transform="rotate(-45 111.582 110.478)"/><circle cx="71.492" cy="150.569" r="14.304" fill="#00AAD4" transform="rotate(-45 71.492 150.569)"/><path fill="#00AAD4" fill-rule="evenodd" d="m139.167 81.79-58.112 58.112-20.23 20.229 46.343 46.343c27.22 27.219 71.351 27.219 98.57 0 27.22-27.22 27.22-71.351 0-98.57l-46.342-46.343zm0 0-58.112 58.112 48.549 48.549c16.047 16.048 42.065 16.048 58.112 0s16.048-42.065 0-58.112z" clip-rule="evenodd"/><circle cx="119.306" cy="40.229" r="14.304" fill="#00AAD4" transform="rotate(-45 119.306 40.229)"/><circle cx="81.055" cy="78.48" r="14.304" fill="#00AAD4" transform="rotate(-45 81.055 78.48)"/><circle cx="40.965" cy="118.57" r="14.304" fill="#00AAD4" transform="rotate(-45 40.965 118.57)"/></svg>