<svg xmlns="http://www.w3.org/2000/svg" width="256" height="256" fill="none"><rect width="256" height="256" fill="url(#paint0_linear_65_2)" rx="60"/><path fill="url(#paint1_linear_65_2)" fill-rule="evenodd" d="m205.086 66.416-38.934 35.186-8.483-7.416L196.603 59zm-36.455.268-58.401 52.779-8.482-7.415 58.401-52.78zM83.324 96.098A11689 11689 0 0 0 113.17 69.2l8.482 7.416a11703 11703 0 0 1-29.872 26.919c-6.09 5.472-12.178 10.943-22.637 20.385l44.249 10.281 35.935-32.475 8.482 7.416-35.934 32.475 12.325 39.248 58.31-51.769 8.408 7.483-67.956 60.333-63.429-15.533L51 125.234l2.451-2.215a11684 11684 0 0 1 29.873-26.921m39.326 87.32-12.241-38.979-44.048-10.234 12.724 38.543zm66.053-69.518 9.855-8.76-8.413-7.479-9.89 8.792-41.75 37.73 8.483 7.416z" clip-rule="evenodd"/><defs><linearGradient id="paint0_linear_65_2" x1="170" x2="15.5" y1="0" y2="157.999" gradientUnits="userSpaceOnUse"><stop stop-color="#00A3FF"/><stop offset="1" stop-color="#30F"/></linearGradient><linearGradient id="paint1_linear_65_2" x1="71.52" x2="217.57" y1="180.234" y2="11.762" gradientUnits="userSpaceOnUse"><stop stop-color="#fff"/><stop offset="1" stop-color="#fff"/></linearGradient></defs></svg>