<svg xmlns="http://www.w3.org/2000/svg" fill="none" viewBox="0 0 256 256"><path fill="#282828" d="M196 0H60C26.863 0 0 26.863 0 60v136c0 33.137 26.863 60 60 60h136c33.137 0 60-26.863 60-60V60c0-33.137-26.863-60-60-60"/><path fill="#EAA700" d="M128.331 211.647c7.19 0 13.019-5.829 13.019-13.019s-5.829-13.02-13.019-13.02-13.019 5.829-13.019 13.02 5.828 13.019 13.019 13.019"/><path fill="#EE4C2C" d="M126.84 240.328c-31.336 0-57.896-21.141-72.879-57.993-13.177-32.378-1.648-68.745 7.14-80.152l7.273-9.431 1.055 11.868c1.018 11.661 9.237 25.59 17.238 29.226a8.25 8.25 0 0 0 3.637.813c-9.953-23.542-8.11-48.38-3.189-63.12 9.129-27.446 31.882-46.853 44.974-53.205L138.938 15l-.17 7.613c-.485 21.965.909 40.003 9.286 56.78 5.419 10.91 12.692 21.517 19.117 30.912 1.757 2.582 3.467 5.091 5.091 7.516 12.207 18.316 12.389 37.348 8.486 49.058a61.8 61.8 0 0 1-9.953 18.257c-5.358 6.776-11.71 11.625-18.365 14.037l-3.176-8.74c10.813-3.916 19.323-16.474 22.669-26.499 3.2-9.613 2.945-25.457-7.407-40.949-1.6-2.425-3.285-4.849-5.031-7.431-6.582-9.698-14.049-20.608-19.759-32.003-8.11-16.22-10.292-33.106-10.34-52.804-11.444 7.952-26.669 23.553-33.421 43.737-1.043 3.103-9.698 31.215 4.764 60.611l1.733 3.503-3.164 2.316a15.76 15.76 0 0 1-16.437 1.43c-8.486-3.867-15.76-13.965-19.626-24.244-5.492 14.207-9.698 38.427-.619 60.78 13.48 33.167 36.913 52.126 64.248 52.126 28.015 0 52.817-19.262 66.345-51.519 6.28-14.996 7.274-38.185 2.425-55.169-3.637-12.643-9.007-22.959-18.256-37.506-2.34 4.946-5.54 10.013-8.813 12.195l-5.164-7.734c2.679-1.794 7.273-11.177 8.243-15.759l2.206-11.14 6.243 9.492c12.692 19.31 19.953 32.014 24.487 47.858 5.455 19.105 4.291 44.319-2.825 61.314-7.018 16.741-17.322 30.864-29.808 40.864a71.76 71.76 0 0 1-45.107 16.426"/></svg>