<svg xmlns="http://www.w3.org/2000/svg" width="256" height="256" fill="none"><path fill="#49021F" d="M196 0H60C26.863 0 0 26.863 0 60v136c0 33.137 26.863 60 60 60h136c33.137 0 60-26.863 60-60V60c0-33.137-26.863-60-60-60"/><path fill="#F36" d="M100.2 75.314v102.6c0 1.1-.5 1.6-1.4 1.6H79.3c-.9 0-1.3-.5-1.3-1.6v-102.6c0-.9.5-1.3 1.4-1.3h19.5a1.13 1.13 0 0 1 1.3 1zm76.8 85.3v16.6a1.49 1.49 0 0 1-.8 1.4 30.9 30.9 0 0 1-8.5 1.9c-3.2.3-6.3.5-9.3.5a47.6 47.6 0 0 1-17.9-3.1 38.3 38.3 0 0 1-13.4-8.7 41 41 0 0 1-8.5-13.2 45.3 45.3 0 0 1-3-16.3 42.34 42.34 0 0 1 5.6-21.7 40 40 0 0 1 15.9-14.9 50.5 50.5 0 0 1 23.9-5.5c3.178-.103 6.36.098 9.5.6q2.781.457 5.5 1.2a1.84 1.84 0 0 1 .8 1.8l-.2 16.6c0 1-.4 1.3-1.3 1.1a34 34 0 0 0-5.5-1.4 55 55 0 0 0-8-.6 28.5 28.5 0 0 0-11.9 2.4 19.6 19.6 0 0 0-8.4 7.2 22.75 22.75 0 0 0-3.1 12.2q0 8.4 3.6 13.2a19.56 19.56 0 0 0 9.2 6.8 33.1 33.1 0 0 0 11.2 2 65 65 0 0 0 7.7-.4 33.3 33.3 0 0 0 5.5-1c1 .2 1.4.5 1.4 1.3"/></svg>