<svg xmlns="http://www.w3.org/2000/svg" fill="none" viewBox="0 0 256 256"><path fill="#49021F" d="M196 0H60C26.863 0 0 26.863 0 60v136c0 33.137 26.863 60 60 60h136c33.137 0 60-26.863 60-60V60c0-33.137-26.863-60-60-60"/><path fill="#F36" d="M94.3 79.908v102.6c0 1.1-.5 1.6-1.4 1.6H73.3c-.9 0-1.3-.5-1.3-1.6v-102.6c0-.9.5-1.3 1.4-1.3h19.5a1.13 1.13 0 0 1 1.3 1 .37.37 0 0 1 .1.3m57.6 105.8a49.7 49.7 0 0 1-21.5-4.5 34.86 34.86 0 0 1-15.1-13.6c-3.7-6.1-5.5-13.7-5.5-22.8a41.1 41.1 0 0 1 5.5-21.1 41.53 41.53 0 0 1 15.9-15.5c7-3.9 15.4-5.8 25.3-5.8q1.053-.011 2.1.1c.9.1 1.9.1 3.1.2v-31.6c0-.7.3-1.1 1-1.1H183a.9.9 0 0 1 1 .7v95.4c0 1.8.1 3.8.2 6s.3 4.1.4 5.8a1.63 1.63 0 0 1-1 1.6 76.4 76.4 0 0 1-16.3 4.8 87.3 87.3 0 0 1-15.4 1.4m9.8-20v-44a26 26 0 0 0-2.7-.5c-1.1-.1-2.2-.2-3.3-.2a24.65 24.65 0 0 0-11.3 2.6 22.4 22.4 0 0 0-8.5 7.4c-2.2 3.2-3.3 7.5-3.3 12.7-.087 3.51.49 7.005 1.7 10.3a19.5 19.5 0 0 0 4.5 7.1 17.3 17.3 0 0 0 6.8 4 26.2 26.2 0 0 0 8.3 1.3c1.5 0 2.9-.1 4.2-.2a8.5 8.5 0 0 0 3.6-.5"/></svg>