<svg xmlns="http://www.w3.org/2000/svg" fill="none" viewBox="0 0 256 256"><path fill="#FF6B4A" d="M196 0H60C26.863 0 0 26.863 0 60v136c0 33.137 26.863 60 60 60h136c33.137 0 60-26.863 60-60V60c0-33.137-26.863-60-60-60"/><path fill="#000" d="M41.343 73.873V50.166L215.657 50v23.707l-57.103-5.803h-21.038v38.462l35.564 10.775L221 128.58l-7.18 23.21-46.25-17.573-30.221-9.118v62.997h21.372l57.103-5.803V206H41.51v-23.707l57.103 5.803h21.038v-62.997l-30.388 9.284-46.083 17.572L36 128.746l48.087-11.439 35.397-10.776v-38.46H98.446z"/></svg>