<svg xmlns="http://www.w3.org/2000/svg" width="256" height="256" fill="none"><path fill="#282828" d="M196 0H60C26.863 0 0 26.863 0 60v136c0 33.137 26.863 60 60 60h136c33.137 0 60-26.863 60-60V60c0-33.137-26.863-60-60-60"/><path fill="#828282" d="m211.593 115.34-69.135-71.894c-8.58-8.263-22.679-8.263-30.62 0l-66.717 69.403c-25.29 25.686 17.147 23.624 32.228 33.355 6.955 4.603-20.493 10.555-14.52 16.627 5.82 6.11 33.314 11.612 39.134 17.532 5.82 6.072-11.657 12.536-5.8 18.608 5.672 6.072 18.245.288 20.704 14.095 1.777 10.222 23.838 5.086 34.196-3.626 6.464-5.581-11.303-5.577-5.482-11.686 5.218-5.355 10.205-7.735 14.742-9.203 8.127-2.677 17.408-2.079 20.848-10.981 2.912-7.392-21.722-13.175-15.073-17.927 15.873-11.348 72.411-16.995 45.495-44.303m-76.51 49.389c-8.77 3.019-48.952-16.286-38.404-16.286 1.815.005 61.273 8.519 38.404 16.286m53.418 20.938c-7.619 7.854 1.324 16.084 8.778 10.659 1.993-1.497-.161-8.79-8.778-10.659m5.586-7.614c0 3.708 26.041 5.824 24.605-.883-2.075-11.298-21.726-10.416-24.605.883"/><path fill="#828282" d="M68.402 199.862c6.093 6.414 15.308-1.403 18.274-10.424-5.928-9.422-27.823.602-18.274 10.424"/><path fill="#A2A2A2" d="m139.426 52.059-18.48 31.309-32.752 55.522c-6.394-2.434-13.242-3.919-19.635-5.074a156 156 0 0 0-7.508-2.145c-4.702-1.279-13.241-3.63-15.427-5.651.288-.866 1.402-3.218 5.569-7.466l31.68-32.918 35.062-36.465c2.269-2.351 5.486-3.671 9.116-3.671s7.178 1.361 9.735 3.795z"/><path fill="#FAFAFA" d="M165.414 79.036c-.124.413-.33.743-.537.99l-12.581-10.353-2.475 15.22-10.354-5.65-16.871 10.807-1.65-6.682-3.919-16.047-8.992 19.759-22.481-.165c-1.403 0-2.269-.495-2.681-1.279l35.062-36.465c2.269-2.351 5.486-3.671 9.116-3.671s7.178 1.361 9.735 3.795l2.64 2.764z"/></svg>