<svg xmlns="http://www.w3.org/2000/svg" viewBox="0 0 256 256"><defs><radialGradient id="radialGradient-o0z6e9m0z0-1" cx="50%" cy="50%" r="50%" fx="50%" fy="50%"><stop offset="0%" stop-color="#4000BF"/><stop offset="100%" stop-color="#4000BF"/></radialGradient></defs><g id="Page-1" fill="none" fill-rule="evenodd" stroke="none" stroke-width="1"><g id="insomnia"><path id="Path" fill="#4000BF" fill-rule="nonzero" d="M196 0H60C26.863 0 0 26.863 0 60v136c0 33.137 26.863 60 60 60h136c33.137 0 60-26.863 60-60V60c0-33.137-26.863-60-60-60"/><g id="Group" transform="translate(16 17)"><path id="Path" fill="#FFF" fill-rule="nonzero" d="M111.5 217.33c58.448 0 105.83-47.381 105.83-105.83S169.948 5.67 111.5 5.67C53.05 5.67 5.668 53.052 5.668 111.5s47.382 105.83 105.83 105.83"/><path id="Shape" fill="#4000BF" fill-rule="nonzero" d="M111.5 0C49.92 0 0 49.92 0 111.5S49.92 223 111.5 223 223 173.08 223 111.5 173.08 0 111.5 0m0 11.339c55.317 0 100.161 44.844 100.161 100.161S166.817 211.661 111.5 211.661 11.339 166.817 11.339 111.5 56.183 11.339 111.5 11.339"/><path id="Path" fill="url(#radialGradient-o0z6e9m0z0-1)" d="M112.76 32.128c43.837 0 79.373 35.536 79.373 79.373 0 43.836-35.536 79.372-79.373 79.372-43.836 0-79.373-35.536-79.373-79.372 0-10.714 2.123-20.932 5.97-30.256 5.618 7.65 14.678 12.617 24.898 12.617 17.047 0 30.867-13.82 30.867-30.867 0-10.22-4.967-19.28-12.618-24.897 9.325-3.848 19.543-5.97 30.256-5.97"/></g></g></g></svg>