<svg xmlns="http://www.w3.org/2000/svg" fill="none" viewBox="0 0 256 256"><rect width="256" height="256" fill="#F4F2ED" rx="60"/><path fill="#535966" d="M157.417 202.892c-.825 4.514-4.681 8.108-9.535 8.108h-9.945v-10.438h9.296l4.112-22.509 2.745-1.048c5.145-1.964 9.888-4.858 14.043-8.501l2.325-2.039 20.507 7.479 9.516-17.345-16.467-15.002.465-2.801c.472-2.835.728-5.733.728-8.688 0-2.952-.256-5.85-.728-8.685l-.465-2.801 16.467-15.002-9.516-17.345-20.507 7.479-2.325-2.038c-4.154-3.644-8.898-6.537-14.044-8.503l-2.744-1.048-4.112-22.509h-9.296V49.22h9.945c4.853 0 8.709 3.593 9.535 8.106l3.156 17.278a57 57 0 0 1 12.027 7.26l15.496-5.652c4.576-1.67 9.467.39 11.716 4.49l9.944 18.124c2.206 4.021 1.44 9.153-2.009 12.294l-12.561 11.445c.299 2.464.459 4.981.459 7.544 0 2.565-.16 5.082-.459 7.547l12.561 11.444c3.448 3.143 4.215 8.271 2.009 12.294l-9.943 18.124c-2.251 4.103-7.14 6.161-11.714 4.492l-15.499-5.653a57 57 0 0 1-12.027 7.26zM122.281 54.438H90.969v10.437h31.312zm0 135.687H90.969v10.437h31.312zm-52.187-36.531h52.187v10.437H70.094zm52.187-57.406H70.094v10.437h52.187z"/><path fill="#00BFB3" d="M80.531 54.438a5.219 5.219 0 1 1 0 10.437 5.219 5.219 0 0 1 0-10.437m15.656 5.218C96.188 51.01 89.178 44 80.532 44s-15.656 7.01-15.656 15.656 7.01 15.657 15.656 15.657 15.656-7.01 15.656-15.657m52.291 87.68c3.062-4.21 5.116-10.284 5.116-17.227s-2.054-13.016-5.116-17.226c-3.066-4.215-6.857-6.258-10.54-6.258V96.188c7.845 0 14.491 4.382 18.981 10.555 4.493 6.179 7.112 14.457 7.112 23.366 0 8.91-2.619 17.188-7.112 23.366-4.49 6.174-11.136 10.556-18.981 10.556v-10.437c3.683 0 7.474-2.043 10.54-6.258m-83.603-45.93a5.219 5.219 0 1 0-10.437 0 5.219 5.219 0 0 0 10.437 0m-5.22-15.656c8.647 0 15.657 7.01 15.657 15.656s-7.01 15.656-15.657 15.656S44 110.053 44 101.406 51.01 85.75 59.656 85.75m0 67.844a5.218 5.218 0 1 1 .001 10.437 5.218 5.218 0 0 1 0-10.437m15.657 5.218c0-8.646-7.01-15.656-15.657-15.656S44 150.166 44 158.812s7.01 15.657 15.656 15.657 15.657-7.01 15.657-15.657m10.437 36.532a5.218 5.218 0 1 0-10.437-.001 5.218 5.218 0 0 0 10.437.001m-5.219-15.656c8.647 0 15.656 7.009 15.656 15.656S89.178 211 80.532 211s-15.656-7.009-15.656-15.656 7.01-15.656 15.656-15.656"/></svg>