<svg xmlns="http://www.w3.org/2000/svg" fill="none" viewBox="0 0 256 256"><path fill="#F4F2ED" d="M196 0H60C26.863 0 0 26.863 0 60v136c0 33.137 26.863 60 60 60h136c33.137 0 60-26.863 60-60V60c0-33.137-26.863-60-60-60"/><path fill="#000" d="M133.289 48.03q-.11.45-.013.96s1.018 6.762-.138 9.77L83.98 186.58l.004.002c-3.509 9.388 1.193 19.87 10.568 23.476s19.888-1.026 23.575-10.345l.004.002 49.158-127.82c.961-2.5 6.443-7.345 6.443-7.345.275-.21.489-.45.634-.722l.024-.05c.027-.053.057-.104.079-.16 1.267-3.296-6.909-9.508-18.262-13.874s-21.586-5.234-22.853-1.939c-.022.056-.034.115-.05.172z" opacity=".3"/><path fill="url(#paint0_linear_0_1)" d="M131.869 46.944q-.11.45-.014.96s1.019 6.761-.138 9.77L82.558 185.493l.005.002c-3.508 9.388 1.193 19.87 10.568 23.476s19.888-1.025 23.575-10.345l.004.002 49.159-127.82c.96-2.5 6.443-7.345 6.443-7.345q.414-.315.633-.722l.024-.05c.026-.053.057-.104.078-.16 1.268-3.296-6.908-9.508-18.261-13.874-11.354-4.366-21.585-5.234-22.853-1.938-.021.055-.033.114-.049.171z"/><path fill="url(#paint1_linear_0_1)" d="m147.289 104.768-35.45 92.177.023.008c-2.615 6.607-10.224 10.044-16.974 7.448s-10.403-10.364-7.917-17.021l22.652-58.899s2.829-4.563 8.384-7.81 10.135-2.561 16.303-5.303 12.979-10.6 12.979-10.6"/><path fill="#333" d="M151.07 58.316c7.046 2.71 13.336 3.405 14.049 1.552s-4.421-5.553-11.468-8.263-13.336-3.405-14.049-1.551 4.422 5.552 11.468 8.262"/><path fill="#fff" d="M131.855 47.904s1.004 6.8-.138 9.77L82.558 185.493l.005.002c-3.508 9.388 1.193 19.87 10.568 23.476 1.586.609 3.25.995 4.942 1.146-6.32-4.754-9.031-13.256-6.132-21.015l-.004-.002L140.12 63.816s-6.559-6.158-8.265-15.912" opacity=".3"/><path fill="#fff" d="M116.028 131.783a1.425 1.425 0 1 0 0-2.85 1.425 1.425 0 0 0 0 2.85m9.337 11.05a2.147 2.147 0 1 0 0-4.293 2.147 2.147 0 0 0 0 4.293m-14.253 14.163a4.029 4.029 0 1 0-.002-8.058 4.029 4.029 0 0 0 .002 8.058m-6.522 5.568a2.147 2.147 0 1 0 0-4.293 2.147 2.147 0 0 0 0 4.293m8.553 15.207a1.424 1.424 0 1 0 .002-2.848 1.424 1.424 0 0 0-.002 2.848" opacity=".5"/><defs><linearGradient id="paint0_linear_0_1" x1="103.404" x2="144.518" y1="120.909" y2="136.721" gradientUnits="userSpaceOnUse"><stop stop-color="#919191"/><stop offset="1" stop-color="#fff"/></linearGradient><linearGradient id="paint1_linear_0_1" x1="102.353" x2="127.243" y1="147.379" y2="156.951" gradientUnits="userSpaceOnUse"><stop stop-color="#900"/><stop offset="1" stop-color="#E80000"/></linearGradient></defs></svg>