<svg xmlns="http://www.w3.org/2000/svg" fill="none" viewBox="0 0 256 256"><rect width="256" height="256" fill="#F4F2ED" rx="60"/><path fill="#3CDB83" fill-rule="evenodd" d="M210.534 78.632a1971 1971 0 0 1-32.374 19.384 37.6 37.6 0 0 0-4.197-3.697 6155 6155 0 0 1-40.967-23.181q-6.45-3.154-12.59.599L80.838 95.118a12.6 12.6 0 0 0-3.697 4.097.57.57 0 0 1-.5.2A1950 1950 0 0 1 43.867 81.03a20.3 20.3 0 0 1 2.898-4.597 36 36 0 0 1 3.497-2.897 10537 10537 0 0 0 66.747-39.369q9.543-4.88 19.184-.2l67.546 38.17q4.05 2.601 6.795 6.495" clip-rule="evenodd" opacity=".999"/><path fill="#37BF6E" fill-rule="evenodd" d="M178.16 98.016v.2a211 211 0 0 0-16.587 10.192q-1.902-2.753-4.996-4.097l-24.78-13.989q-3.857-2.15-7.994-.6a3031 3031 0 0 0-27.778 16.587 7.75 7.75 0 0 0-2.398 3.098 204 204 0 0 0-16.586-9.592l-.4-.4a.57.57 0 0 0 .5-.2 12.6 12.6 0 0 1 3.697-4.097l39.568-23.381q6.14-3.753 12.59-.6a6155 6155 0 0 0 40.967 23.182 37.6 37.6 0 0 1 4.197 3.697" clip-rule="evenodd"/><path fill="#4184F3" fill-rule="evenodd" d="M210.534 78.632q3.26 4.536 3.497 10.191.201 38.67 0 77.338-.59 11.03-9.892 16.887a15998 15998 0 0 0-65.747 38.769 20.1 20.1 0 0 1-9.992 2.698v-38.17a11.5 11.5 0 0 0 6.195-1.698 4966 4966 0 0 1 36.571-21.583 39 39 0 0 0 5.395-3.597q2.955-3.16 3.497-7.494.201-23.881 0-47.762a15.6 15.6 0 0 0-.399-2.598 19.5 19.5 0 0 0-1.499-3.397v-.2a1971 1971 0 0 0 32.374-19.385" clip-rule="evenodd" opacity=".999"/><path fill="#073041" fill-rule="evenodd" d="M43.867 81.03a1950 1950 0 0 0 32.774 18.385l.4.4q-.573.441-.7 1.199a68 68 0 0 0-.6 3.197 3196 3196 0 0 0 0 50.56q.489 4.18 4.097 6.295a6266 6266 0 0 1 41.367 23.381 14.7 14.7 0 0 0 7.195 2.098v37.97a19.9 19.9 0 0 1-9.992-2.498l-70.744-39.968q-5.292-3.636-5.895-10.092a8600 8600 0 0 1 0-82.934q.124-4.28 2.098-7.993" clip-rule="evenodd" opacity=".996"/><path fill="#D5EFFE" fill-rule="evenodd" d="M161.573 108.408a7.5 7.5 0 0 1 1.199 3.797q.093 16.592-.2 33.173-.922 2.887-3.397 4.696a1889 1889 0 0 1-28.377 16.587q-1.275.394-2.598.5a8.8 8.8 0 0 1-4.996-1.499l-27.578-15.588q-1.93-1.13-2.498-3.297a1582 1582 0 0 1 0-35.572q.221-.912.5-1.798a7.75 7.75 0 0 1 2.398-3.098q13.86-8.378 27.777-16.586 4.137-1.551 7.994.6l24.78 13.988q3.094 1.344 4.996 4.097" clip-rule="evenodd"/><path fill="#3870B2" fill-rule="evenodd" d="M178.16 98.216a19.5 19.5 0 0 1 1.499 3.397q.308 1.281.399 2.598.201 23.881 0 47.762-.542 4.334-3.497 7.494a38.7 38.7 0 0 1-5.396 3.597 4987 4987 0 0 0-36.57 21.583 11.5 11.5 0 0 1-6.195 1.698 966 966 0 0 1-.2-19.184 12 12 0 0 0 2.598-.5 1889 1889 0 0 0 28.377-16.587q2.476-1.81 3.397-4.696.242-.435.3-.999a864 864 0 0 0-.1-32.174 7.5 7.5 0 0 0-1.199-3.797 211 211 0 0 1 16.587-10.192" clip-rule="evenodd"/><path fill="#041619" fill-rule="evenodd" d="M77.04 99.815a204 204 0 0 1 16.587 9.592q-.277.886-.5 1.798a1582 1582 0 0 0 0 35.572q.57 2.168 2.499 3.297l27.578 15.588a8.8 8.8 0 0 0 4.996 1.499q.005 9.593.2 19.184v.2a14.7 14.7 0 0 1-7.195-2.098 6266 6266 0 0 0-41.366-23.381q-3.61-2.115-4.097-6.295a3196 3196 0 0 1 0-50.56q.261-1.605.6-3.197.126-.758.699-1.2" clip-rule="evenodd"/><path fill="#6293CB" fill-rule="evenodd" d="M162.772 112.205q.35 16.037.1 32.174a2.6 2.6 0 0 1-.3.999q.293-16.581.2-33.173" clip-rule="evenodd" opacity=".976"/></svg>