<svg xmlns="http://www.w3.org/2000/svg" fill="none" viewBox="0 0 256 256"><path fill="#F4F2ED" d="M196 0H60C26.863 0 0 26.863 0 60v136c0 33.137 26.863 60 60 60h136c33.137 0 60-26.863 60-60V60c0-33.137-26.863-60-60-60"/><path fill="#2684FF" d="M218.011 41.567h-94.593a42.7 42.7 0 0 0 42.701 42.7h17.425v16.824c.015 23.562 19.111 42.658 42.672 42.674V49.773a8.205 8.205 0 0 0-8.205-8.206"/><path fill="url(#paint0_linear_424_243)" d="M171.207 88.699H76.615c.015 23.561 19.11 42.658 42.673 42.673h17.425v16.878c.03 23.561 19.139 42.645 42.7 42.645V96.906a8.207 8.207 0 0 0-8.206-8.207"/><path fill="url(#paint1_linear_424_243)" d="M124.376 135.804H29.783c0 23.583 19.119 42.7 42.7 42.7h17.48v16.823c.016 23.54 19.079 42.628 42.619 42.673v-93.99a8.206 8.206 0 0 0-8.206-8.206"/><defs><linearGradient id="paint0_linear_424_243" x1="25806.6" x2="15602" y1="135.749" y2="12061.3" gradientUnits="userSpaceOnUse"><stop offset=".18" stop-color="#0052CC"/><stop offset="1" stop-color="#2684FF"/></linearGradient><linearGradient id="paint1_linear_424_243" x1="26451.3" x2="14647.3" y1="268.772" y2="13275.8" gradientUnits="userSpaceOnUse"><stop offset=".18" stop-color="#0052CC"/><stop offset="1" stop-color="#2684FF"/></linearGradient></defs></svg>