<svg xmlns="http://www.w3.org/2000/svg" fill="none" viewBox="0 0 256 256"><rect width="256" height="256" fill="#F4F2ED" rx="60"/><path fill="#F9AE41" d="M212.753 65.611c0-12.354-10.015-22.37-22.37-22.37-11.28 0-20.606 8.352-22.142 19.208l-.226-.12c-18.295-8.25-33.704 6.364-33.704 6.364l-40.762 40.961 16.106 15.51 32.808-32.232c15.321-15.321 23.663-4.951 23.663-4.951 11.533 9.743.397 21.276.397 21.276l16.504 15.907c13.477-14.556 14.258-27.26 10.162-37.365 11.029-1.38 19.564-10.784 19.564-22.188"/><path fill="#EE4035" d="m193.396 168.489.12-.226c8.252-18.294-6.363-33.704-6.363-33.704l-40.962-40.763-15.51 16.107 32.233 32.808c15.32 15.321 4.95 23.663 4.95 23.663-9.742 11.533-21.275.398-21.275.398l-15.908 16.503c14.556 13.477 27.26 14.258 37.365 10.162 1.381 11.03 10.785 19.565 22.189 19.565 12.354 0 22.368-10.015 22.368-22.37 0-11.28-8.35-20.606-19.207-22.143"/><path fill="#4F91CD" d="m146.539 130.333-32.808 32.232c-15.32 15.322-23.663 4.953-23.663 4.953-11.533-9.744-.397-21.276-.397-21.276l-16.503-15.909c-13.477 14.556-14.26 27.259-10.164 37.365-11.03 1.381-19.564 10.784-19.564 22.189 0 12.354 10.015 22.369 22.37 22.369 11.281 0 20.606-8.35 22.143-19.207l.226.119c18.295 8.253 33.704-6.363 33.704-6.363l40.762-40.962z"/><path fill="#7AC043" d="M93.28 112.787c-15.321-15.321-4.953-23.664-4.953-23.664 9.745-11.533 21.277-.397 21.277-.397l15.908-16.502c-14.556-13.478-27.26-14.26-37.365-10.163-1.38-11.03-10.784-19.565-22.19-19.565-12.352 0-22.366 10.015-22.367 22.37 0 11.28 8.35 20.606 19.207 22.143l-.118.227c-8.254 18.293 6.362 33.702 6.362 33.702l40.963 40.763 15.509-16.106z"/></svg>