<svg xmlns="http://www.w3.org/2000/svg" fill="none" viewBox="0 0 256 256"><path fill="#282828" d="M196 0H60C26.863 0 0 26.863 0 60v136c0 33.137 26.863 60 60 60h136c33.137 0 60-26.863 60-60V60c0-33.137-26.863-60-60-60"/><path fill="#fff" d="M50.954 133.237c0 6.11-.489 8.1-1.745 9.566a7.6 7.6 0 0 1-5.093 1.956l.489 3.491a11.93 11.93 0 0 0 7.954-2.898 13.97 13.97 0 0 0 3.07-10.474v-23.113h-4.675zm34.863-2.754c0 2.619 0 4.958.21 6.983h-4.152l-.28-4.155a9.67 9.67 0 0 1-8.477 4.748c-4.046 0-8.86-2.199-8.86-11.172v-14.908h4.674v13.965c0 4.853 1.5 8.1 5.721 8.1a6.5 6.5 0 0 0 4.683-1.912 6.52 6.52 0 0 0 1.91-4.686v-15.642h4.676v18.54zm8.861-10.198c0-3.247 0-5.901-.21-8.31h4.187l.21 4.365a10.11 10.11 0 0 1 9.14-4.958c6.209 0 10.884 5.202 10.884 12.953 0 9.147-5.617 13.686-11.687 13.686a9.04 9.04 0 0 1-7.919-4.015v13.965h-4.605zm4.605 6.808q.02.953.21 1.885a7.19 7.19 0 0 0 6.977 5.412c4.919 0 7.814-4.015 7.814-9.846 0-5.097-2.721-9.461-7.64-9.461a8.03 8.03 0 0 0-7.361 7.646zm27.935-15.141L132.835 127a87 87 0 0 1 1.64 5.202c.488-1.537 1.011-3.492 1.639-5.307l5.094-14.943h4.919l-6.978 18.155c-3.488 8.728-5.616 13.232-8.826 15.955a12.7 12.7 0 0 1-5.721 3.003l-1.151-3.91a12.4 12.4 0 0 0 4.081-2.27 13.95 13.95 0 0 0 3.942-5.167 3.5 3.5 0 0 0 .384-1.117 4 4 0 0 0-.314-1.222l-9.489-23.497h5.093zm31.319-7.324v7.331h6.698v3.492h-6.698v13.756c0 3.142.907 4.958 3.488 4.958.917.015 1.832-.091 2.722-.315l.209 3.492a11.5 11.5 0 0 1-4.152.628 6.48 6.48 0 0 1-5.058-1.955 9.4 9.4 0 0 1-1.814-6.634v-13.965h-3.977v-3.491h4.047v-6.215zm15.309 20.898a8.21 8.21 0 0 0 5.34 8.354 8.2 8.2 0 0 0 3.486.479 17 17 0 0 0 6.978-1.327l.802 3.491a20.9 20.9 0 0 1-8.547 1.572 11.86 11.86 0 0 1-9.266-3.519 11.87 11.87 0 0 1-3.363-9.33c0-7.681 4.57-13.756 12.036-13.756 8.372 0 10.466 7.332 10.466 12.011q.066 1.081 0 2.164h-18.036zm13.676-3.492a6.6 6.6 0 0 0-1.53-5.248 6.6 6.6 0 0 0-4.959-2.293 7.71 7.71 0 0 0-7.152 7.541zm11.349-2.143c0-3.002 0-5.586-.21-7.96h4.187v4.993h.209a7.71 7.71 0 0 1 6.977-5.587c.44-.057.886-.057 1.326 0v4.365a7 7 0 0 0-1.605 0 6.524 6.524 0 0 0-6.244 5.935 13 13 0 0 0-.21 2.165v13.581h-4.605v-17.457z"/><path fill="#767677" d="M196.822 41.826a11.84 11.84 0 0 1-6.668 11.383 11.82 11.82 0 0 1-13.052-1.867 11.85 11.85 0 0 1-3.214-12.797 11.83 11.83 0 0 1 10.619-7.822 11.68 11.68 0 0 1 8.464 2.989 11.7 11.7 0 0 1 3.851 8.114"/><path fill="#F37726" d="M127.839 178.558c-31.397 0-58.992-11.277-73.26-27.93a78.16 78.16 0 0 0 28.623 37.035 78.07 78.07 0 0 0 44.637 14.022 78.1 78.1 0 0 0 44.638-14.022 78.17 78.17 0 0 0 28.624-37.035c-14.234 16.653-41.725 27.93-73.262 27.93m0-108.295c31.398 0 58.993 11.277 73.262 27.931a78.17 78.17 0 0 0-28.624-37.035 78.07 78.07 0 0 0-89.275 0 78.16 78.16 0 0 0-28.624 37.035c14.269-16.689 41.724-27.93 73.261-27.93"/><path fill="#9E9E9E" d="M84.617 210.967a14.91 14.91 0 0 1-8.382 14.349 14.89 14.89 0 0 1-20.93-9.772 14.92 14.92 0 0 1 5.603-15.647 14.9 14.9 0 0 1 8.184-2.895 14.74 14.74 0 0 1 10.654 3.764 14.76 14.76 0 0 1 4.87 10.201"/><path fill="#616262" d="M58.147 66.468a8.58 8.58 0 0 1-8.06-5.055 8.595 8.595 0 0 1 1.55-9.391 8.58 8.58 0 0 1 14.847 5.508 8.7 8.7 0 0 1-2.333 6.184 8.68 8.68 0 0 1-6.004 2.754"/></svg>