<svg xmlns="http://www.w3.org/2000/svg" fill="none" viewBox="0 0 256 256"><path fill="#F4F2ED" d="M196 0H60C26.863 0 0 26.863 0 60v136c0 33.137 26.863 60 60 60h136c33.137 0 60-26.863 60-60V60c0-33.137-26.863-60-60-60"/><path fill="#20BEFF" d="M155.836 220.999h24.084l-50.901-69.341 50.472-48.836a2.31 2.31 0 0 0 .273-2.466 2.11 2.11 0 0 0-2.147-1.37h-24.943a5.6 5.6 0 0 0-3.904 1.918l-47.661 48.328V38.724a2.394 2.394 0 0 0-1.605-2.601 2.4 2.4 0 0 0-1.089-.1H79.717a2.38 2.38 0 0 0-2.02.676 2.39 2.39 0 0 0-.673 2.025v179.458a2.4 2.4 0 0 0 .673 2.025 2.38 2.38 0 0 0 2.02.675h18.698a2.382 2.382 0 0 0 2.694-2.7v-39.367l11.046-10.604 39.777 50.91a4.85 4.85 0 0 0 3.904 1.878"/></svg>