<svg xmlns="http://www.w3.org/2000/svg" width="256" height="256" fill="none"><g clip-path="url(#clip0_85_162)"><path fill="#F4F2ED" d="M196 0H60C26.863 0 0 26.863 0 60v136c0 33.137 26.863 60 60 60h136c33.137 0 60-26.863 60-60V60c0-33.137-26.863-60-60-60"/><path fill="url(#paint0_linear_85_162)" d="M128 44.667 211.333 128H128z"/><path fill="url(#paint1_linear_85_162)" d="M128 44.667 44.667 128H128z"/><path fill="url(#paint2_linear_85_162)" d="M128 211.333 211.333 128H128z"/><path fill="url(#paint3_linear_85_162)" d="M128 211.333 44.667 128H128z"/><path fill="url(#paint4_linear_85_162)" d="M185.5 185.5h-36.667l-31.666-29.167L140.5 130.5z"/><path fill="url(#paint5_linear_85_162)" d="M190.5 71.333H158l-46.667 48.333-2.5 48.334z"/><path fill="url(#paint6_linear_85_162)" d="M76.334 71.333v115.833H108l6.667-115.833z"/></g><defs><linearGradient id="paint0_linear_85_162" x1="128" x2="20128" y1="44.666" y2="20044.7" gradientUnits="userSpaceOnUse"><stop stop-color="#AC7"/><stop offset=".6" stop-color="#896"/><stop offset="1" stop-color="#685"/></linearGradient><linearGradient id="paint1_linear_85_162" x1="44.667" x2="20044.7" y1="44.666" y2="20044.7" gradientUnits="userSpaceOnUse"><stop stop-color="#FFA"/><stop offset=".75" stop-color="#CC8"/><stop offset="1" stop-color="#8B6"/></linearGradient><linearGradient id="paint2_linear_85_162" x1="128" x2="20128" y1="128" y2="20128" gradientUnits="userSpaceOnUse"><stop stop-color="#798"/><stop offset=".15" stop-color="#586"/><stop offset="1" stop-color="#232"/></linearGradient><linearGradient id="paint3_linear_85_162" x1="44.667" x2="20044.7" y1="128" y2="20128" gradientUnits="userSpaceOnUse"><stop stop-color="#8A7"/><stop offset=".5" stop-color="#BA5"/><stop offset="1" stop-color="#226A3A"/></linearGradient><linearGradient id="paint4_linear_85_162" x1="3397.17" x2="10427.1" y1="130.5" y2="14687.5" gradientUnits="userSpaceOnUse"><stop stop-color="#3C5082"/><stop offset=".4" stop-color="#145082"/><stop offset=".8" stop-color="#14738C"/><stop offset="1" stop-color="#327896"/></linearGradient><linearGradient id="paint5_linear_85_162" x1="108.833" x2="22982.9" y1="23271.3" y2="3946.72" gradientUnits="userSpaceOnUse"><stop stop-color="#C84B41"/><stop offset=".5" stop-color="#FA644D"/><stop offset="1" stop-color="#FA9661"/></linearGradient><linearGradient id="paint6_linear_85_162" x1="4216.33" x2="11990.9" y1="71.333" y2="25800.1" gradientUnits="userSpaceOnUse"><stop stop-color="#FF8264"/><stop offset=".2" stop-color="#EB5A41"/><stop offset=".5" stop-color="#DC5F46"/><stop offset=".8" stop-color="#C84B37"/><stop offset="1" stop-color="#DC5F4B"/></linearGradient><clipPath id="clip0_85_162"><path fill="#fff" d="M0 0h256v256H0z"/></clipPath></defs></svg>