<svg xmlns="http://www.w3.org/2000/svg" fill="none" viewBox="0 0 256 256"><path fill="#F4F2ED" d="M196 0H60C26.863 0 0 26.863 0 60v136c0 33.137 26.863 60 60 60h136c33.137 0 60-26.863 60-60V60c0-33.137-26.863-60-60-60"/><path fill="#030303" d="m144.573 22-35.162 3.366v144.782l34.789-5.238v-61.729l46.764 68.466 36.661-11.6-47.886-65.845L228 32.098l-37.408-8.601L144.2 85.599zM64.87 57.282c-.397.04-.78.217-1.079.517l-13.8 13.798a1.785 1.785 0 0 0-.262 2.188l16.157 26.611a69 69 0 0 0-6.804 15.492l-29.662 6.17a1.786 1.786 0 0 0-1.42 1.749v19.513c0 .826.565 1.541 1.36 1.733l28.79 7.037c1.535 6.346 3.914 12.362 7.059 17.892l-16.665 25.412a1.784 1.784 0 0 0 .233 2.244l13.796 13.798c.58.579 1.486.692 2.193.266l26.114-15.859a69 69 0 0 0 16.508 6.869l6.093 29.295c.172.83.905 1.42 1.747 1.42h19.516c.82 0 1.536-.56 1.732-1.365l7.177-29.355a68.7 68.7 0 0 0 16.981-7.145l25.734 16.873a1.78 1.78 0 0 0 2.244-.228l13.801-13.798a1.78 1.78 0 0 0 .259-2.188l-9.394-15.483-3.039.961a1.05 1.05 0 0 1-1.187-.411s-5.992-8.772-13.731-20.097c-9.251 18.105-28.073 30.508-49.808 30.508-30.88 0-55.915-25.036-55.915-55.918 0-22.717 13.55-42.255 33.002-51.007V70.35c-3.54 1.239-6.963 2.732-10.214 4.503q-.001-.003-.013-.017L66.033 57.56a1.78 1.78 0 0 0-1.163-.278"/></svg>