<svg xmlns="http://www.w3.org/2000/svg" fill="none" viewBox="0 0 256 256"><g clip-path="url(#clip0_49_2)"><path fill="#008AAA" d="M196 0H60C26.863 0 0 26.863 0 60v136c0 33.137 26.863 60 60 60h136c33.137 0 60-26.863 60-60V60c0-33.137-26.863-60-60-60"/><path fill="#F4F2ED" d="M227.235 85.981h-29.032c-.54 0-1.081-.288-1.333-.757l-23.305-40.467a1.59 1.59 0 0 0-1.368-.757H77.104c-.54 0-1.08.288-1.333.757L51.53 86.74l-23.34 40.466a1.68 1.68 0 0 0 0 1.551l23.34 40.467 24.205 42.017c.252.469.793.793 1.333.757h95.129c.54 0 1.08-.288 1.368-.757l23.341-40.467c.252-.468.793-.793 1.333-.757h29.032a1.73 1.73 0 0 0 1.729-1.731V87.749c-.036-.974-.828-1.768-1.765-1.768m-111.193 84.792-7.312 12.624c-.108.18-.289.36-.469.468a1.5 1.5 0 0 1-.684.181H93.061c-.504 0-.973-.253-1.189-.722l-21.648-37.617-2.125-3.715-7.78-13.308a.97.97 0 0 1-.144-.649c0-.217.072-.469.18-.65l7.816-13.56 23.737-41.116c.252-.433.72-.722 1.189-.722h14.48c.252 0 .504.073.756.18.18.11.361.253.469.47l7.312 12.695c.216.433.18.974-.072 1.37l-23.45 40.683a1.15 1.15 0 0 0-.143.578c0 .216.072.396.144.577l23.449 40.646a1.49 1.49 0 0 1 0 1.587m72.796-42.089-7.78 13.308-2.126 3.715-21.648 37.617c-.252.433-.684.722-1.188.722H141.58c-.252 0-.469-.072-.685-.181-.18-.108-.36-.252-.468-.468l-7.312-12.624a1.36 1.36 0 0 1-.036-1.514l23.449-40.647c.108-.181.144-.397.144-.577 0-.217-.072-.397-.144-.577l-23.449-40.683c-.252-.433-.288-.938-.072-1.37l7.312-12.696c.108-.18.288-.36.468-.469.216-.144.469-.18.757-.18h14.552c.504 0 .972.252 1.188.721l23.738 41.116 7.816 13.561c.108.216.18.432.18.649 0 .144-.072.361-.18.577"/></g><defs><clipPath id="clip0_49_2"><path fill="#fff" d="M0 0h256v256H0z"/></clipPath></defs></svg>