<svg xmlns="http://www.w3.org/2000/svg" width="256" height="256" fill="none"><rect width="256" height="256" fill="#F4F2ED" rx="60"/><path fill="#FF0" d="M128 40.444 52.445 171.273h151.111z" opacity=".85"/><path fill="#131313" d="m126.123 218.038-75.502-43.591a3.66 3.66 0 0 1-1.838-3.174h-.015V84.066c0-1.484.88-2.763 2.147-3.344l75.261-43.451a3.66 3.66 0 0 1 3.7.03l75.504 43.59a3.66 3.66 0 0 1 1.837 3.175h.015v87.207c0 1.484-.88 2.763-2.146 3.343l-75.262 43.453a3.66 3.66 0 0 1-3.701-.031m-70.002-48.869L128 210.668l71.88-41.499V86.17L128 44.671l-71.88 41.5z"/><path fill="#131313" d="M128 47.778 58.803 167.597h138.394zM49.27 169.435 124.8 38.651a3.668 3.668 0 0 1 6.374-.044l75.43 130.61a3.676 3.676 0 0 1-3.048 5.732H52.444v-.008a3.668 3.668 0 0 1-3.174-5.506"/><path fill="#131313" d="M50.62 87.24a3.661 3.661 0 0 1 3.649-6.348L128 123.444l73.732-42.552a3.66 3.66 0 0 1 3.648 6.348l-75.504 43.573a3.66 3.66 0 0 1-3.7.03z"/><path fill="#131313" d="M131.676 214.895a3.676 3.676 0 0 1-7.352 0v-87.226a3.676 3.676 0 0 1 7.352 0zm71.88-34.178a9.444 9.444 0 0 0 0-18.888c-5.216 0-9.445 4.228-9.445 9.444s4.229 9.444 9.445 9.444m0-87.207a9.445 9.445 0 1 0-.001-18.888 9.445 9.445 0 0 0 .001 18.888m-151.112 0c5.216 0 9.445-4.228 9.445-9.444s-4.229-9.444-9.445-9.444a9.445 9.445 0 0 0 0 18.888m0 87.207a9.444 9.444 0 1 0 0-18.888 9.444 9.444 0 0 0 0 18.888"/><path fill="#131313" d="M128 224.339c5.216 0 9.445-4.228 9.445-9.444s-4.229-9.444-9.445-9.444a9.444 9.444 0 0 0-9.444 9.444 9.444 9.444 0 0 0 9.444 9.444m0-87.225a9.445 9.445 0 1 0 0-18.89 9.445 9.445 0 0 0 0 18.89m0-87.226c5.216 0 9.445-4.228 9.445-9.444S133.216 31 128 31a9.444 9.444 0 0 0-9.444 9.444A9.444 9.444 0 0 0 128 49.888"/></svg>