<svg xmlns="http://www.w3.org/2000/svg" width="256" height="256" fill="none"><path fill="#F4F2ED" d="M196 0H60C26.863 0 0 26.863 0 60v136c0 33.137 26.863 60 60 60h136c33.137 0 60-26.863 60-60V60c0-33.137-26.863-60-60-60"/><path fill="#DDD" d="M175.505 55.337H86.873v142.551h88.632z"/><path fill="#000" d="M82.524 213.797h91.952a6.234 6.234 0 0 0 6.234-6.235V115.61a6.235 6.235 0 0 0-6.234-6.234H82.524a6.234 6.234 0 0 0-6.234 6.234v91.952a6.234 6.234 0 0 0 6.234 6.235m49.249-33.841h33.04a3.742 3.742 0 0 1 2.645 6.387 3.74 3.74 0 0 1-2.645 1.095h-33.039a3.741 3.741 0 1 1 0-7.481m-39.736-40.334a3.738 3.738 0 0 1 2.673-6.281 3.74 3.74 0 0 1 2.613.996l23.366 23.351a3.74 3.74 0 0 1 0 5.288l-23.366 23.365a3.737 3.737 0 0 1-5.2-.087 3.74 3.74 0 0 1-.086-5.2l20.722-20.722z"/><path fill="#C0C81F" fill-rule="evenodd" d="M107.398 97.704c1.659 0 2.987-3.154 2.987-7.21 0-4.054-1.328-7.207-2.987-7.207s-2.987 3.153-2.987 7.209c0 4.054 1.327 7.208 2.987 7.208" clip-rule="evenodd"/><path fill="#784421" fill-rule="evenodd" d="M193.027 43.651c-4.055-4.28-22.527.902-33.791 7.885-8.786-4.505-19.373-7.209-30.637-7.209-11.489 0-22.078 2.704-30.863 7.21-11.264-6.984-29.962-12.391-33.792-7.886-4.054 4.506 2.93 23.204 11.264 33.566-.676 2.704-1.126 5.407-1.126 8.335 0 9.011 3.83 17.347 10.363 24.105h37.17c-1.126-2.252.451-3.604 7.209-3.604 6.758.225 8.109 1.352 7.209 3.604h37.17c6.533-6.759 10.362-15.318 10.362-24.105 0-2.928-.45-5.631-1.125-8.335 7.884-10.362 14.642-29.285 10.587-33.566m-85.605 59.473c-7.884 0-14.417-6.533-14.417-14.418s6.533-14.417 14.418-14.417 14.418 6.533 14.418 14.418-6.534 14.417-14.419 14.417m42.352 0c-7.885 0-14.418-6.533-14.418-14.418s6.533-14.417 14.418-14.417 14.419 6.533 14.419 14.418-6.309 14.417-14.419 14.417" clip-rule="evenodd"/><path fill="#2B1100" fill-rule="evenodd" d="M171.302 102.224C184.819 85.328 212.527 77.218 231 88.932c-21.626-3.38-41.225 2.253-59.698 13.292" clip-rule="evenodd"/><path fill="#2B1100" fill-rule="evenodd" d="M170.401 98.169c7.659-18.023 30.413-29.737 48.659-23.43-19.147 2.478-34.691 9.913-48.659 23.43m-.226 8.785c13.968-13.292 44.831-17.797 54.292-3.83-19.148-6.082-35.819-3.38-54.291 3.83m-84.478-4.73C72.182 85.328 44.473 77.218 26 88.932c21.627-3.38 41.225 2.253 59.698 13.292" clip-rule="evenodd"/><path fill="#2B1100" fill-rule="evenodd" d="M86.599 98.169c-7.66-18.023-30.412-29.737-48.66-23.43 19.148 2.478 34.693 9.913 48.66 23.43m.226 8.785c-13.968-13.292-44.83-17.797-54.292-3.83 19.148-6.082 35.82-3.38 54.292 3.83" clip-rule="evenodd"/><path fill="#483737" fill-rule="evenodd" d="M69.027 93.663c-5.632 0-10.362 2.93-12.615 7.434h-.676c-6.082 0-11.263 4.505-11.263 10.137 0 7.885 8.109 12.165 15.543 9.461 4.505 6.534 14.192 6.985 17.798 0 5.405-.225 14.191-1.125 15.543-9.461.9-5.632-4.956-10.137-11.264-10.137h-.676c-1.802-4.506-6.758-7.434-12.39-7.434m118.947 0c5.631 0 10.362 2.93 12.614 7.434h.676c3.154 0 11.264 4.505 11.264 10.137 0 7.885-8.109 12.165-15.543 9.461-4.507 6.534-14.193 6.985-17.798 0-5.406-.225-14.192-1.125-15.543-9.461-.901-5.632 8.109-10.137 11.263-10.137h.676c1.802-4.506 6.758-7.434 12.39-7.434" clip-rule="evenodd"/><path fill="#C0C81F" fill-rule="evenodd" d="M149.273 97.704c1.66 0 2.988-3.154 2.988-7.21 0-4.054-1.328-7.207-2.988-7.207s-2.988 3.153-2.988 7.209c0 4.054 1.328 7.208 2.988 7.208" clip-rule="evenodd"/></svg>