<svg xmlns="http://www.w3.org/2000/svg" fill="none" viewBox="0 0 256 256"><path fill="#282828" d="M196 0H60C26.863 0 0 26.863 0 60v136c0 33.137 26.863 60 60 60h136c33.137 0 60-26.863 60-60V60c0-33.137-26.863-60-60-60"/><path fill="#FCFCFC" fill-rule="evenodd" d="M220.907 118.04c6.435-6.444 6.435-16.93 0-23.374l.006.013c-3.111-3.122-7.254-4.836-11.67-4.836a16.38 16.38 0 0 0-11.671 4.836l-12.551 12.568c-3.39 3.388-5.129 8.098-4.769 12.921l.024.256q.024.268.056.537c.453 3.703 2.078 7.045 4.689 9.659 1.812 1.815 3.804 2.956 6.222 3.756.127.727.193 1.468.193 2.208 0 3.329-1.285 6.45-3.63 8.798l-.773.774c-4.19-1.434-7.687-3.535-10.845-6.697a28.76 28.76 0 0 1-8.014-15.316l-.146-.814-14.416 14.196c-6.435 6.443-6.435 16.929 0 23.373a16.43 16.43 0 0 0 11.671 4.83c4.23 0 8.454-1.608 11.671-4.83l12.551-12.567c6.435-6.444 6.435-16.93 0-23.374a16.35 16.35 0 0 0-6.076-3.842c-.133-.761-.2-1.521-.2-2.255 0-3.615 1.433-7.051 4.037-9.672a28.75 28.75 0 0 1 11.072 6.917 28.83 28.83 0 0 1 8.007 15.323l.146.813zm-105.622 45.978c2.133 1.992 4.881 4.56 3.954 5.685l-.006-.006c.285.619 1.263 1.328 2.269 2.057 1.669 1.209 3.414 2.474 2.187 3.473-2.658.547-5.642.653-7.674-1.474-.601 1.387-1.852 1.071-3.027.773-.282-.071-.56-.141-.823-.186-.127.353-.233.66-.353 1.007-4.484.3-7.848-4.283-9.993-7.751-2.06-1.116-4.255-2.02-6.465-2.93-2.347-.967-4.71-1.94-6.944-3.181-.05.774-.056 1.583-.063 2.404-.029 3.392-.06 6.982-3.095 9.05-.1 4.092 3.224 4.054 6.493 4.017 2.826-.033 5.61-.065 6.104 2.573a7 7 0 0 1-.665.026c-.631.005-1.263.01-1.76.488-1.588 1.549-3.3.876-5.075.178-1.634-.642-3.32-1.304-5.01-.271-1.522.769-2.603 1.493-3.566 2.137-2.024 1.355-3.521 2.357-7.486 2.692-.326-.487-.193-.82.087-1.114.546-.632.924-1.303 1.287-1.948.735-1.306 1.41-2.503 3.296-3.048-2.537-.397-4.711.775-6.85 1.928q-.456.247-.91.487c-1.33.545-2.098.117-2.901-.332-1.112-.621-2.292-1.28-5.127.552-.54-.441-.28-.841.027-1.181 1.24-1.514 2.871-1.748 4.71-1.654-4.8-2.681-8.25-.784-11.057.76-2.489 1.367-4.47 2.457-6.436-.167-.892.237-1.39.875-1.886 1.512a8 8 0 0 1-.639.756c-.48-.531-.362-1.139-.242-1.762.05-.261.101-.524.109-.786a10 10 0 0 0-.368-.158c-.726-.301-1.449-.6-1.244-1.716-1.52-.512-2.591.309-3.712 1.167l-.192.147c-.734-.571-.123-1.323.443-2.019.26-.321.511-.629.616-.903.52-.907 1.398-.931 2.27-.955.738-.02 1.47-.039 1.98-.592 1.822-1.038 4.058-.501 6.316.041 1.647.396 3.305.794 4.822.586 2.772.353 6.209-2.502 4.81-5.344-2.538-3.241-2.52-7.33-2.501-11.28.003-.675.006-1.346-.004-2.007-.211-1.498-2.338-3.23-4.473-4.969-1.63-1.328-3.267-2.66-4.06-3.897-2.19-2.484-3.924-5.365-5.631-8.202l-.158-.263c-2.893-5.611-4.06-11.947-5.222-18.266-1.398-7.592-2.791-15.159-7.168-21.417-3.63 2.008-8.36 1.054-11.491-1.634-1.64 1.487-1.76 3.431-1.887 5.498l-.012.198c-4.05-4.062-3.55-11.733-.306-16.256 1.325-1.78 2.904-3.255 4.676-4.542.393-.287.533-.574.52-1.028 3.204-14.442 25.067-11.653 31.981-1.427 2.285 2.864 3.844 6.152 5.4 9.436 1.863 3.928 3.723 7.85 6.818 11.036 2.995 3.281 6.153 6.411 9.31 9.54 4.91 4.866 9.82 9.731 14.118 15.168 6.681 8.164 11.458 17.737 15.614 27.382.68 1.278 1.089 2.673 1.497 4.063.613 2.087 1.222 4.162 2.734 5.803.364.485 1.146 1.215 2.034 2.046M229.74 85.821c5.469 5.476 8.48 12.767 8.48 20.532h-.013c0 7.771-3.011 15.062-8.48 20.539l-12.551 12.567a29.05 29.05 0 0 1-11.957 7.218l-.227.073-.086.22a28.8 28.8 0 0 1-6.588 10.213l-12.551 12.567c-5.469 5.477-12.756 8.492-20.51 8.492s-15.035-3.015-20.504-8.492c-11.305-11.32-11.305-29.744 0-41.071l12.55-12.567c3.364-3.369 7.381-5.783 11.937-7.191l.227-.067.086-.22a28.8 28.8 0 0 1 6.615-10.246l12.55-12.567c5.47-5.477 12.751-8.492 20.511-8.492 7.761 0 15.042 3.015 20.511 8.492M73.592 160.314l.003-.009h-.007zm0 0c-.181.71-.342 1.503-.51 2.332-.832 4.102-1.844 9.094-6.395 9.265-.453 2.435 1.685 3.349 3.624 2.569 1.925-.888 2.837.7 3.484 2.281 2.97.434 7.367-.994 7.534-4.516-3.772-2.177-5.329-6.023-6.897-9.897-.276-.68-.552-1.361-.84-2.034" clip-rule="evenodd"/></svg>