<svg xmlns="http://www.w3.org/2000/svg" fill="none" viewBox="0 0 256 256"><rect width="256" height="256" fill="#F4F2ED" rx="60"/><path fill="url(#paint0_radial_4_265)" d="M145.559 52.858a9.76 9.76 0 0 0-1.357-8.806A9.81 9.81 0 0 0 136.253 40h-18.122a9.8 9.8 0 0 0-5.738 1.847 9.78 9.78 0 0 0-3.568 4.85l-32.326 97.779a9.76 9.76 0 0 0 1.356 8.805 9.8 9.8 0 0 0 7.95 4.052h18.122a9.8 9.8 0 0 0 5.738-1.846 9.8 9.8 0 0 0 3.568-4.851zm33.942 58.666a9.76 9.76 0 0 0-1.356-8.805 9.8 9.8 0 0 0-7.95-4.052h-18.122a9.8 9.8 0 0 0-5.738 1.846 9.8 9.8 0 0 0-3.568 4.851l-32.326 97.778a9.76 9.76 0 0 0 1.357 8.806 9.81 9.81 0 0 0 7.949 4.052h18.122a9.8 9.8 0 0 0 9.306-6.698z"/><defs><radialGradient id="paint0_radial_4_265" cx="0" cy="0" r="1" gradientTransform="matrix(24.44317 97.77807 -52.75681 13.18848 159.175 137.778)" gradientUnits="userSpaceOnUse"><stop stop-color="#754BEC"/><stop offset="1" stop-color="#49DEFF"/></radialGradient></defs></svg>