<svg xmlns="http://www.w3.org/2000/svg" width="256" height="256" fill="none"><path fill="#282828" d="M196 0H60C26.863 0 0 26.863 0 60v136c0 33.137 26.863 60 60 60h136c33.137 0 60-26.863 60-60V60c0-33.137-26.863-60-60-60"/><path fill="#AFD35D" d="M171.796 40.105 99.064 210.378l-4.527-4.551zm1.086-6.767c-2.803 4.526-66.515 37.389-85.636 68.225-19.12 30.843-24.58 55.121-17.643 77.953 6.931 22.82 20.187 21.797 27.737 29.322 6.477 8.295 16.469 13.578 27.706 13.578 2.285 0 4.519-.221 6.685-.637l-.221.037c21.431-4.835 42.085-19.139 52.362-59.223 3.364-13.705 5.296-29.442 5.296-45.627 0-17.391-2.228-34.258-6.42-50.336l.31 1.382c-3.106-13.76-6.603-25.35-10.807-36.6z"/></svg>