<svg xmlns="http://www.w3.org/2000/svg" width="256" height="256" fill="none"><path fill="#F4F2ED" d="M196 0H60C26.863 0 0 26.863 0 60v136c0 33.137 26.863 60 60 60h136c33.137 0 60-26.863 60-60V60c0-33.137-26.863-60-60-60"/><g clip-path="url(#clip0_302_14)"><path fill="#FFA116" d="M162.905 174.437a10.836 10.836 0 0 1 15.347.025c4.231 4.253 4.22 11.138-.025 15.378l-18.848 18.827c-17.389 17.369-45.744 17.621-63.426.585-.102-.098-7.976-7.821-33.95-33.299-17.28-16.948-19-44.069-2.74-61.485L89.58 81.994c16.138-17.287 45.887-19.176 64.339-4.25l27.536 22.277c4.663 3.773 5.391 10.619 1.627 15.292s-10.597 5.403-15.26 1.63l-27.536-22.276c-9.65-7.807-26.531-6.734-34.857 2.185L75.11 129.326c-7.916 8.479-7.049 22.138 2.074 31.086l33.789 33.143c9.193 8.857 24.057 8.725 33.083-.291z"/><path fill="#B3B3B3" fill-rule="evenodd" d="M117.118 155.597c-5.993 0-10.851-4.869-10.851-10.874s4.858-10.874 10.851-10.874h80.031c5.993 0 10.851 4.868 10.851 10.874 0 6.005-4.858 10.874-10.851 10.874z" clip-rule="evenodd"/><path fill="#000" fill-rule="evenodd" d="M132.106 36.445a10.836 10.836 0 0 1 15.338-.512c4.376 4.103 4.605 10.985.511 15.37l-72.843 78.024c-7.917 8.478-7.05 22.136 2.072 31.085l33.64 32.998c4.283 4.201 4.356 11.086.164 15.378s-11.063 4.365-15.345.164l-33.64-32.999c-17.28-16.949-19-44.07-2.74-61.485z" clip-rule="evenodd"/></g><defs><clipPath id="clip0_302_14"><path fill="#fff" d="M48 33h160v189H48z"/></clipPath></defs></svg>