<svg xmlns="http://www.w3.org/2000/svg" fill="none" viewBox="0 0 256 256"><rect width="256" height="256" fill="#72F5CF" rx="60"/><path fill="#72F5CF" d="M135.714 110.224c.58 0 1.077 0 1.574.249.331.083.662.248.993.414l.497.248c.332.249.58.414.911.746l4.307 4.307a5.65 5.65 0 0 1 0 8.034l-78.767 78.767a5.72 5.72 0 0 1-3.976 1.657 5.72 5.72 0 0 1-3.975-1.657l-4.307-4.307a5.65 5.65 0 0 1 0-8.034l70.485-70.485 8.282-8.282c.249-.249.58-.497.911-.746l.497-.248c.332-.166.663-.331.994-.414a5.2 5.2 0 0 1 1.574-.249m0-13.252c-1.822 0-3.644.249-5.384.746-1.159.33-2.319.828-3.396 1.408-.579.33-1.076.58-1.656.993-1.077.663-2.071 1.491-2.982 2.402l-8.283 8.283-70.484 70.485c-7.372 7.371-7.372 19.381 0 26.753l4.307 4.307a18.93 18.93 0 0 0 13.417 5.549c5.053 0 9.774-1.988 13.418-5.549l78.768-78.768a18.93 18.93 0 0 0 5.549-13.418c0-5.052-1.988-9.773-5.549-13.417l-4.307-4.307c-.911-.911-1.905-1.74-2.982-2.402-.497-.332-1.077-.663-1.574-.994-1.077-.58-2.236-1.077-3.396-1.408a19.6 19.6 0 0 0-5.383-.746z"/><path fill="#72F5CF" d="M136.873 51.252h.746l55.079 3.148c4.804.248 8.531 4.058 8.862 8.862l3.148 55.079c.248 3.644-1.16 7.206-3.727 9.774l-66.013 66.012c-2.484 2.485-5.715 3.727-9.11 3.727-3.396 0-2.734-.248-4.059-.663l-41.33-13.666c-3.893-1.242-6.875-4.307-8.117-8.117l-13.666-41.33c-1.491-4.638-.332-9.691 3.147-13.086l65.93-66.013c2.401-2.402 5.715-3.727 9.11-3.727m0-13.252c-6.957 0-13.5 2.733-18.47 7.62l-66.012 66.012c-7.04 7.04-9.442 17.228-6.295 26.587l13.667 41.33c2.567 7.786 8.779 13.998 16.565 16.566l41.33 13.666c2.65.911 5.383 1.325 8.2 1.325 6.957 0 13.5-2.733 18.47-7.62l66.012-66.012a26.25 26.25 0 0 0 7.62-19.961l-3.147-55.08c-.663-11.512-9.857-20.623-21.287-21.286L138.364 38z"/><path fill="#A8F7D9" d="m58.603 134.161 13.666 41.33c1.243 3.893 4.307 6.875 8.117 8.117l41.33 13.666c4.639 1.491 9.691.332 13.087-3.147l66.012-66.012c2.568-2.568 3.976-6.13 3.727-9.774l-3.147-55.08c-.249-4.803-4.059-8.53-8.862-8.861l-55.08-3.148c-3.644-.248-7.206 1.16-9.773 3.727l-65.93 66.095c-3.395 3.396-4.638 8.531-3.147 13.087"/><path fill="#141B1F" d="M136.873 51.252h.746l55.079 3.148c4.804.248 8.531 4.058 8.862 8.862l3.148 55.079c.248 3.644-1.16 7.206-3.727 9.774l-66.013 66.012c-2.484 2.485-5.715 3.727-9.11 3.727-3.396 0-2.734-.249-4.059-.663l-41.33-13.666c-3.893-1.242-6.875-4.307-8.117-8.117l-13.666-41.33c-1.491-4.638-.332-9.691 3.147-13.086l65.93-66.013c2.402-2.402 5.715-3.727 9.11-3.727m0-8.283c-5.632 0-10.933 2.237-14.908 6.212L55.87 115.195c-5.632 5.632-7.62 13.914-5.135 21.534l13.665 41.33c2.07 6.294 7.123 11.347 13.418 13.417l41.33 13.667c2.153.745 4.389 1.076 6.626 1.076 5.632 0 10.933-2.236 14.908-6.212l66.013-66.012c4.224-4.224 6.46-10.105 6.129-16.151l-3.148-55.08c-.497-8.944-7.702-16.15-16.648-16.647l-55.079-3.148h-1.242z"/><path fill="#141B1F" d="m151.202 181.868 5.715-5.715-.497-.248-22.86-7.537-5.715 5.715 23.44 7.703zm24.682-24.682 5.715-5.715-.497-.248-22.86-7.537-5.715 5.715 23.44 7.703zM74.008 104.675l5.715-5.715.249.497 7.537 22.86-5.715 5.715-7.703-23.44zm24.683-24.682 5.714-5.715.249.497 7.537 22.86-5.715 5.715-7.703-23.44z"/><path fill="#79AC91" d="m146.15 122.068-80.921 80.921a5.65 5.65 0 0 1-8.034 0l-4.307-4.307a5.65 5.65 0 0 1 0-8.034l80.921-80.921a7.36 7.36 0 0 1 4.555-2.153l6.543-.663c2.32-.248 4.225 1.739 4.059 4.059l-.663 6.543a7.36 7.36 0 0 1-2.153 4.555"/><path fill="#141B1F" d="M145.239 106.994c2.153 0 3.893 1.822 3.644 4.058l-.662 6.544a7.36 7.36 0 0 1-2.154 4.555l-80.92 80.921a5.72 5.72 0 0 1-3.976 1.656 5.72 5.72 0 0 1-3.976-1.656l-4.307-4.307a5.65 5.65 0 0 1 0-8.034l80.921-80.921a7.36 7.36 0 0 1 4.555-2.154l6.544-.662zm0-8.283h-1.16l-6.543.663a15.24 15.24 0 0 0-9.525 4.555L47.008 184.85c-5.467 5.467-5.467 14.329 0 19.713l4.306 4.307c2.65 2.65 6.13 4.058 9.857 4.058s7.206-1.491 9.856-4.058l80.921-80.921c2.567-2.568 4.141-5.964 4.555-9.525l.663-6.543c.331-3.313-.746-6.709-3.065-9.194-2.236-2.485-5.466-3.893-8.862-3.893z"/></svg>