<svg xmlns="http://www.w3.org/2000/svg" fill="none" viewBox="0 0 256 256"><path fill="#001E36" d="M196 0H60C26.863 0 0 26.863 0 60v136c0 33.137 26.863 60 60 60h136c33.137 0 60-26.863 60-60V60c0-33.137-26.863-60-60-60"/><path fill="#31A8FF" d="M128.011 180.415h-63.4c-1.1 0-1.6-.6-1.6-1.8v-102.2a1.24 1.24 0 0 1 1.1-1.4h20a.94.94 0 0 1 1.1.8v84.3h46.2c1 0 1.3.5 1.1 1.4l-2.9 17.4a1.73 1.73 0 0 1-.6 1.2 1.7 1.7 0 0 1-1 .3m16-80h17.5a2.25 2.25 0 0 1 2.1 1.6 6.3 6.3 0 0 1 .8 2.3c.2 1 .4 2.1.5 3.1s.2 2.3.2 3.6a37.2 37.2 0 0 1 10.7-8.6 29.86 29.86 0 0 1 14.9-3.6 1.24 1.24 0 0 1 1.4 1.1v19.9c0 .8-.5 1.1-1.6 1.1a40.8 40.8 0 0 0-18.9 3.4 16.8 16.8 0 0 0-5.4 3.7v51c0 1-.4 1.4-1.3 1.4h-19.5a1.37 1.37 0 0 1-1.057-.257 1.37 1.37 0 0 1-.543-.943v-55.8c0-2.4 0-4.9-.1-7.5s-.1-5.2-.2-7.8q-.15-3.3-.6-6.6a.93.93 0 0 1 .122-.695.9.9 0 0 1 .578-.405c.1-.1.2-.1.4 0"/></svg>