<svg xmlns="http://www.w3.org/2000/svg" width="256" height="256" fill="none"><path fill="#001E36" d="M196 0H60C26.863 0 0 26.863 0 60v136c0 33.137 26.863 60 60 60h136c33.137 0 60-26.863 60-60V60c0-33.137-26.863-60-60-60"/><path fill="#31A8FF" d="M92.5 179.4H35.4c-1 0-1.4-.6-1.4-1.8V75.4c0-1 .4-1.4 1.3-1.4H53c.7 0 1 .4 1 1.1v84h41.6c.9 0 1.2.5 1 1.4L94 177.9a1.7 1.7 0 0 1-.6 1.2 1.6 1.6 0 0 1-.9.3m14.3-80h15.8c.9 0 1.5.5 1.9 1.6a8.8 8.8 0 0 1 .7 2.3c.2 1 .3 2.1.4 3.1s.1 2.3.1 3.6a34.3 34.3 0 0 1 9.6-8.6 25.2 25.2 0 0 1 13.4-3.6c.9 0 1.3.5 1.3 1.4v19.5c0 .8-.5 1.1-1.4 1.1a32.26 32.26 0 0 0-17 3.4 17.6 17.6 0 0 0-4.9 3.7v51c0 1-.4 1.4-1.2 1.4h-17.4c-1 0-1.4-.5-1.4-1.6v-55.4c0-2.4 0-4.9-.1-7.5s-.1-5.2-.2-7.8q-.15-3.3-.6-6.6c-.03-.314.04-.629.2-.9.245-.13.53-.166.8-.1m114.1-14.8a25.4 25.4 0 0 0-6.7-1.7c-3.385-.4-6.791-.6-10.2-.6-9.8 0-18.4 2.1-25.5 6.2a43.05 43.05 0 0 0-16.6 17.5c-3.9 7.4-5.8 16.2-5.8 26a65.8 65.8 0 0 0 2.2 17.6 46.3 46.3 0 0 0 6.4 13.7 40.1 40.1 0 0 0 9.8 9.9 39 39 0 0 0 12.7 6 55.3 55.3 0 0 0 14.6 2 70.4 70.4 0 0 0 10.3-.7 32 32 0 0 0 8.1-2 2.685 2.685 0 0 0 1.5-2.7v-14.9a1.74 1.74 0 0 0-.5-1.5 1.2 1.2 0 0 0-1.6.1 32.6 32.6 0 0 1-7 1.7 85 85 0 0 1-8.7.4 29.4 29.4 0 0 1-7.8-1.1 30 30 0 0 1-7.6-3.2 21.9 21.9 0 0 1-6.3-5.8 30.4 30.4 0 0 1-4.4-8.6 38.5 38.5 0 0 1-1.6-11.7 36.75 36.75 0 0 1 3.3-16 25.1 25.1 0 0 1 9.4-10.5 27.73 27.73 0 0 1 14.6-3.8 49.7 49.7 0 0 1 9.4.8 23.5 23.5 0 0 1 7.2 2.4 1.48 1.48 0 0 0 1.3 0 1.73 1.73 0 0 0 .6-1.5V87a2.45 2.45 0 0 0-1.1-2.4"/></svg>