<svg xmlns="http://www.w3.org/2000/svg" fill="none" viewBox="0 0 256 256"><g clip-path="url(#clip0_679_2)"><path fill="#06F" d="M196 0H60C26.863 0 0 26.863 0 60v136c0 33.137 26.863 60 60 60h136c33.137 0 60-26.863 60-60V60c0-33.137-26.863-60-60-60"/><path fill="#5DBCEB" d="M175.875 139.084c-8.759 0-15.859-7.101-15.859-15.86s7.1-15.859 15.859-15.859c8.258 0 15.041 6.312 15.791 14.373.076.819.735 1.486 1.556 1.486h6.442a7.93 7.93 0 0 1 0 15.86z"/><path fill="#F63" d="M127.509 66.226 97.278 85.122a1.49 1.49 0 0 0-.7 1.261v31.39c0 .82-.666 1.487-1.487 1.487H82.206a1.483 1.483 0 0 0-1.487 1.487v16.849c0 .822.666 1.488 1.487 1.488h12.67c.901 0 1.594.793 1.474 1.686L80.947 254.361a1.48 1.48 0 0 0 .86 1.553c.193.088.403.133.615.133h91.751a1.5 1.5 0 0 0 1.12-.509 1.5 1.5 0 0 0 .354-1.177L160.244 140.77a1.48 1.48 0 0 1 .354-1.179 1.5 1.5 0 0 1 1.121-.507h12.67c.82 0 1.486-.666 1.486-1.488v-16.849a1.48 1.48 0 0 0-.435-1.052 1.5 1.5 0 0 0-1.052-.435h-12.885a1.49 1.49 0 0 1-1.487-1.488V86.383a1.49 1.49 0 0 0-.698-1.26l-30.234-18.897a1.49 1.49 0 0 0-1.575 0"/><path fill="#FFA385" d="m84.39 228.968 4.192-30.908 74.387-37.193 3.658 26.983zm72.72 27.079H99.483l71.542-35.771 3.659 26.985zm-19.824-116.963-43.669 21.833 2.961-21.833z"/><path fill="#FF3" d="M116.402 97.453c0-1.094.889-1.982 1.983-1.982h19.824c1.094 0 1.983.888 1.983 1.982v19.824a1.985 1.985 0 0 1-1.983 1.983h-19.824a1.985 1.985 0 0 1-1.983-1.983z"/><path fill="#fff" d="M64.86 160.89c-8.76 0-15.86-7.1-15.86-15.859s7.1-15.859 15.86-15.859a15.86 15.86 0 0 1 13.838 8.107c.593 1.056 1.66 1.805 2.87 1.805h15.01a10.902 10.902 0 1 1 0 21.806z"/></g><defs><clipPath id="clip0_679_2"><path fill="#fff" d="M0 0h256v256H0z"/></clipPath></defs></svg>