<svg xmlns="http://www.w3.org/2000/svg" width="256" height="256" fill="none"><path fill="#282828" d="M196 0H60C26.863 0 0 26.863 0 60v136c0 33.137 26.863 60 60 60h136c33.137 0 60-26.863 60-60V60c0-33.137-26.863-60-60-60"/><g clip-path="url(#clip0_164_578)"><path fill="#6A7A55" d="M40 128.459c0 8.536 1.23 16.784 3.509 24.583l48.275-15.813a36.3 36.3 0 0 1 .318-17.621l-48.62-15.643A87.5 87.5 0 0 0 40 128.459"/><path fill="#A09440" d="M103.982 101.121 73.459 59.646C60.639 69.727 50.708 83.313 45.103 98.96l48.733 15.679a36.4 36.4 0 0 1 10.146-13.517"/><path fill="#AFA148" d="M124.91 92.841V41a87.05 87.05 0 0 0-47.22 15.518l30.574 41.543a36.06 36.06 0 0 1 16.646-5.22"/><path fill="#4C5C59" d="m93.35 142.254-48.215 15.792c5.685 15.822 15.794 29.534 28.842 39.636l29.757-40.942a36.36 36.36 0 0 1-10.383-14.486"/><path fill="#48555D" d="M78.236 200.773a87.05 87.05 0 0 0 46.674 15.145v-50.69a36.06 36.06 0 0 1-16.92-5.392z"/><path fill="#E3B23B" d="M176.82 56.184a87.05 87.05 0 0 0-46.648-15.18v51.902c5.87.49 11.341 2.38 16.083 5.33z"/><path fill="#903024" d="M130.172 165.163v50.752a87.06 87.06 0 0 0 46.963-15.396l-30.246-41.097a36.06 36.06 0 0 1-16.717 5.741"/><path fill="#D65841" d="m151.081 156.238 30.294 41.164c13.011-10.18 23.061-23.965 28.662-39.849l-48.979-15.758a36.3 36.3 0 0 1-9.977 14.443"/><path fill="#E6703E" d="M215 128.459a87.5 87.5 0 0 0-3.591-24.873l-49.249 16.13a36.25 36.25 0 0 1 .395 17.032l49.08 15.791a87.5 87.5 0 0 0 3.365-24.08"/><path fill="#F4A83A" d="m160.441 114.742 49.324-16.156c-5.696-15.68-15.744-29.27-28.688-39.307l-30.569 42.058a36.4 36.4 0 0 1 9.933 13.405"/></g><defs><clipPath id="clip0_164_578"><path fill="#fff" d="M40 41h175v175H40z"/></clipPath></defs></svg>