<svg xmlns="http://www.w3.org/2000/svg" width="256" height="256" fill="none"><path fill="#282828" d="M196 0H60C26.863 0 0 26.863 0 60v136c0 33.137 26.863 60 60 60h136c33.137 0 60-26.863 60-60V60c0-33.137-26.863-60-60-60"/><path fill="#FB70A9" fill-rule="evenodd" d="M206.912 160.884c-3.261 4.93-5.738 11.003-12.367 11.003-11.157 0-11.761-17.203-22.924-17.203s-10.559 17.203-21.716 17.203-11.761-17.203-22.924-17.203-10.56 17.203-21.717 17.203-11.76-17.203-22.923-17.203-10.56 17.203-21.717 17.203c-3.506 0-5.97-1.699-8.047-4.029C44.593 153.964 40 137.683 40 120.276 40 69.313 79.368 28 127.931 28s87.932 41.313 87.932 92.276c0 14.571-3.219 28.354-8.951 40.608" clip-rule="evenodd"/><path fill="#4E56A6" d="M92.816 151.774v38.22c0 6.859-5.56 12.419-12.42 12.419-6.858 0-12.418-5.56-12.418-12.419v-46.14c2.318-4.255 4.966-7.938 9.74-7.938 7.77 0 10.486 9.762 15.098 15.858m46.915 1.991v60.44c0 7.621-6.177 13.799-13.798 13.799s-13.799-6.178-13.799-13.799v-68.406c2.598-5.01 5.277-9.883 10.767-9.883 8.693 0 11.059 12.214 16.83 17.849m44.156-1.109v43.878c0 6.858-5.56 12.419-12.418 12.419-6.859 0-12.419-5.561-12.419-12.419v-53.931c2.162-3.701 4.737-6.687 9.035-6.687 8.158 0 10.744 10.758 15.802 16.74"/><path fill="#000" fill-opacity=".299" d="M92.816 163.488c-2.203-2.698-4.81-4.699-8.582-4.699-8.956 0-10.6 11.286-16.256 16.375V126.48c0-6.858 5.56-12.418 12.419-12.418s12.419 5.56 12.419 12.418zm46.915.871c-2.349-3.126-5.095-5.57-9.263-5.57-9.963 0-10.877 13.97-18.334 17.832v-21.53c0-7.621 6.178-13.799 13.799-13.799s13.798 6.178 13.798 13.799zm44.156-2.416c-1.911-1.883-4.178-3.154-7.184-3.154-9.652 0-10.811 13.11-17.653 17.441v-43.698c0-6.859 5.56-12.419 12.419-12.419 6.858 0 12.418 5.56 12.418 12.419z"/><path fill="#FB70A9" fill-rule="evenodd" d="M206.912 160.884c-3.261 4.93-5.738 11.003-12.367 11.003-11.157 0-11.761-17.203-22.924-17.203s-10.559 17.203-21.716 17.203-11.761-17.203-22.924-17.203-10.56 17.203-21.717 17.203-11.76-17.203-22.923-17.203-10.56 17.203-21.717 17.203c-3.506 0-5.97-1.699-8.047-4.029C44.593 153.964 40 137.683 40 120.276 40 69.313 79.368 28 127.931 28s87.932 41.313 87.932 92.276c0 14.571-3.219 28.354-8.951 40.608" clip-rule="evenodd"/><path fill="#E24CA6" fill-rule="evenodd" d="M187.884 170.049q34.565-51.419 1.787-114.071c16.197 16.594 26.191 39.366 26.191 64.492 0 14.517-3.336 28.248-9.277 40.455-3.379 4.911-5.947 10.962-12.819 10.962-2.351 0-4.251-.708-5.882-1.838" clip-rule="evenodd"/><path fill="#fff" fill-rule="evenodd" d="M123.217 143.295c30.578 0 43.453-17.74 43.453-42.932s-19.455-48.382-43.453-48.382-43.453 23.19-43.453 48.382 12.875 42.932 43.453 42.932" clip-rule="evenodd"/><path fill="#030776" d="M111.533 101.788c9 0 16.295-8.052 16.295-17.986 0-9.933-7.295-17.986-16.295-17.986-8.999 0-16.295 8.053-16.295 17.986s7.296 17.986 16.295 17.986"/><path fill="#fff" d="M108.817 87.954c4.5 0 8.147-3.717 8.147-8.302s-3.647-8.3-8.147-8.3-8.148 3.716-8.148 8.3 3.648 8.302 8.148 8.302"/></svg>