<svg xmlns="http://www.w3.org/2000/svg" width="256" height="256" fill="none"><path fill="#F4F2ED" d="M196 0H60C26.863 0 0 26.863 0 60v136c0 33.137 26.863 60 60 60h136c33.137 0 60-26.863 60-60V60c0-33.137-26.863-60-60-60"/><path fill="url(#paint0_linear_0_1)" d="m166.873 184.042-1.6-1.781c-3.758-4.107-5.621-8.849-4.141-15.137-14.228 4.614-27.893 5.658-42.003 2.431-.37 4.221-.518 8.079-1.09 11.873-.7 4.643-1.77 9.23-2.647 13.846-.306 1.608-.642 3.228-.742 4.855-.299 4.845-.192 9.737-.845 14.529-.335 2.464-1.947 4.756-2.895 6.923h-10.564l.057-.132 1.691-4.604-.028.037 1.711-1.719-.036.037.864-.867 1.555-.18c.151-2.567.128-1.624.151-2.567.113-4.584.046-9.18-.2-13.759-.091-1.68-.851-3.325-1.305-4.986l-.946.025-5.052 18.23.074-.032c-1.206 2.185-2.902 6.425-4.108 8.611-1.5.136-5.727-.125-9.227-.105.285-2.887 1.356-4.4 3.177-6.034 3.913-3.512 4.967-8.666 4.952-13.6-.02-6.892-.94-13.78-1.476-20.671.76-1.385 1.2-3.152 2.33-4.093 7.645-6.369 13.881-13.979 19.704-21.951 5.636-7.719 11.308-15.422 16.619-23.365 5.85-8.749 11.91-17.482 13.252-28.372 9.907 1.044 19.365 3.457 28.245 8.214 2.713 1.453 6.118 1.616 9.205 2.37 1.145.884 2.841 1.531 3.34 2.692 2.515 5.849 4.976 11.748 6.964 17.79 2.446 7.432 3.1 15.054 1.836 22.915-1.515 9.412-5.659 17.513-10.998 25.197-.887 1.28-1.176 2.975-1.741 4.478l.02-.024c-.927.655-1.907 1.248-2.77 1.976-2.336 1.97-2.9 5.793-6.616 6.328a2.4 2.4 0 0 1-.071-.616l-.586-1.107-4.063-7.654zM70.318 74.566c-1.422-.06-2.894 1.045-4.343 1.612 0 0-1.327 10.987-1.327 16.515s1.89 10.216 2.212 15.417c.228 3.704.409 7.664 1.844 10.974 1.724 3.971 2.473 7.808 2.258 12.031-.595 11.731 5.488 19.668 14.812 25.714 4.194-4.557 8.746-8.836 12.505-13.727 7.522-9.791 13.947-20.28 17.484-32.268.737-2.497 1.222-5.066 1.941-8.099l1.998-2.045-19.295-.054-.766-.695-2.442-23.81c-8.96-.551-17.916-1.189-26.884-1.566zm20.195-28.38c-3.23-6.52-7.973-11.557-15.159-14.428l-.307 5.285-7.266-5.236c.35 3.532.69 5.996.821 8.473.257 4.896-1.846 7.355-6.778 8.04-.96.134-1.959 0-2.925.113-2.893.335-4.438 1.962-4.827 4.844-.509 3.762 1.415 6.227 4.494 7.725 3.204 1.56 6.62 2.685 10.528 4.232-.572 1.929-1.154 3.836-1.7 5.753-.492 1.725-.945 3.46-1.415 5.193 1.449-.567 2.92-1.673 4.343-1.613 8.968.378 17.924 1.014 26.884 1.566-.505-10.368-2.027-20.53-6.69-29.944zm94.9 144.468.798.835.836.838.831.8 3.057 2.036c.495-2.658 3.514-6.48 6.04-8.334 1.042-.766 1.502-2.299 2.309-3.423.452-.628 1.073-1.134 1.618-1.694-.22-1.773-.567-3.539-.635-5.317-.194-5.101.125-10.136-1.473-15.23-1.921-6.117-1.175-12.577-.819-19.054 5.862-1.179 8.356-5.002 8.685-10.147.397-6.215-.768-12.21-4.661-17.295-2.791-3.645-6.571-5.69-11.261-4.952-3.106.488-6.123 1.545-9.18 2.349 1.145.883 2.841 1.53 3.34 2.691 2.515 5.85 4.975 11.748 6.964 17.79 2.446 7.432 3.1 15.054 1.835 22.915-1.514 9.413-5.659 17.513-10.997 25.198-.888 1.279-1.176 2.974-1.741 4.478l4.456 5.516zm-51.414-89.61c-.855 11.031-6.109 20.31-11.941 29.277-5.134 7.894-10.297 15.809-16.061 23.241-4.139 5.337-9.288 9.892-13.988 14.795l.192 10.907c.76-1.386 1.2-3.153 2.33-4.093 7.645-6.369 13.882-13.979 19.704-21.952 5.636-7.718 11.309-15.422 16.62-23.365 5.849-8.748 11.909-17.481 13.251-28.371L134 101.044zm-43.663 58.914c4.349-4.792 9.24-9.206 12.921-14.465 5.689-8.125 10.774-16.702 15.677-25.334 2.782-4.895 4.804-10.228 5.065-16.058.047-1.049 1.119-2.051 1.717-3.076l-1.475.041-1.89-.389-2.646.015-1.998 2.044c-.719 3.032-1.206 5.602-1.941 8.099-3.537 11.989-9.962 22.478-17.485 32.268-3.758 4.891-8.31 9.17-12.505 13.727l4.56 3.129zm37.815-58.935c.326 9.165-3.763 16.951-8.144 24.473-4.232 7.263-8.988 14.238-13.815 21.13-2.84 4.055-6.232 7.727-9.437 11.52-1.51 1.785-3.163 3.447-4.752 5.164l.006 5.047c4.7-4.903 9.849-9.458 13.988-14.795 5.764-7.43 10.928-15.346 16.061-23.241 5.832-8.967 11.086-18.246 11.941-29.277zm62.94 94.805c.743 1.521 2.103 3.036 2.113 4.562.034 5.41-.359 10.827-.703 16.233-.03.479-.877.906-1.344 1.357l-.94.701-.811.864-.887.777c.464.522.904 1.47 1.394 1.496 2.747.146 5.505.07 8.383.07 2.42-5.909 3.249-11.681 2.355-17.719-.177-1.196-.51-2.693.006-3.615 3.524-6.286 2.587-12.535.245-18.843-.545.56-1.166 1.065-1.618 1.693-.807 1.125-1.267 2.658-2.309 3.423-2.526 1.854-5.545 5.677-6.04 8.335q.058.336.156.664zm-65.373-94.805c-.598 1.024-1.671 2.027-1.717 3.077-.261 5.83-2.284 11.163-5.065 16.058-4.905 8.633-9.989 17.21-15.678 25.333-3.682 5.26-8.572 9.672-12.92 14.465l1.666 3.353c1.589-1.719 3.243-3.38 4.752-5.165 3.206-3.791 6.597-7.464 9.437-11.519 4.826-6.892 9.584-13.867 13.815-21.13 4.382-7.523 8.471-15.308 8.144-24.473zm-26.039-.734.731.347a1.84 1.84 0 0 0-.731-.347m65.533 112.669-3.442 2.39-.68 3.915h9.82c0-1.983-.132-3.768.046-5.52.119-1.164.369-2.565 1.099-3.374 6.495-7.202 9.059-15.739 8.924-25.255-.927.656-1.907 1.248-2.77 1.977-2.336 1.97-2.9 5.792-6.616 6.328.106 7.243-2.083 13.735-6.38 19.539z"/><defs><linearGradient id="paint0_linear_0_1" x1="30.407" x2="216.75" y1="96.72" y2="203.862" gradientUnits="userSpaceOnUse"><stop stop-color="#F6DDD7"/><stop offset=".25" stop-color="#FCABE6"/><stop offset=".3" stop-color="#F3ADE6"/><stop offset=".38" stop-color="#DDB3E8"/><stop offset=".48" stop-color="#B8BCEC"/><stop offset=".59" stop-color="#85CAF1"/><stop offset=".7" stop-color="#50D8F6"/><stop offset=".76" stop-color="#50D8F6"/><stop offset=".86" stop-color="#B58FE8"/></linearGradient></defs></svg>