<svg xmlns="http://www.w3.org/2000/svg" width="256" height="256" fill="none"><rect width="256" height="256" fill="#F4F2ED" rx="60"/><path fill="url(#gradient)" fill-rule="evenodd" d="M48 61.98c0-5.516 0-8.275 1.07-10.495.942-1.956 2.458-3.614 4.367-4.777 2.166-1.319 5.046-1.71 10.806-2.494l82.141-11.168c7.455-1.013 11.183-1.52 14.08-.45 2.543.94 4.666 2.684 6.008 4.937C168 40.1 168 43.671 168 50.813v154.375c0 7.141 0 10.713-1.528 13.279-1.342 2.253-3.465 3.998-6.008 4.937-2.897 1.071-6.625.563-14.08-.45l-82.141-11.168c-5.76-.783-8.64-1.175-10.806-2.494-1.909-1.162-3.425-2.821-4.367-4.777C48 202.295 48 199.537 48 194.02zm88 52.051c0-1.68 0-2.52.282-3.183a3.15 3.15 0 0 1 1.145-1.403c.565-.375 1.312-.451 2.806-.603l6.691-.681c1.761-.18 2.641-.269 3.32.06.598.288 1.091.793 1.402 1.433.354.727.354 1.718.354 3.696v29.3c0 1.979 0 2.969-.354 3.696a3.06 3.06 0 0 1-1.402 1.434c-.679.328-1.559.239-3.32.059l-6.69-.681c-1.495-.152-2.242-.227-2.807-.602a3.15 3.15 0 0 1-1.145-1.403c-.282-.664-.282-1.504-.282-3.184zM190.578 52H180v156h10.578c6.098 0 9.147 0 11.477-1.19a10.9 10.9 0 0 0 4.758-4.773C208 199.702 208 196.644 208 190.528V69.472c0-6.116 0-9.174-1.187-11.51a10.9 10.9 0 0 0-4.758-4.772C199.725 52 196.676 52 190.578 52" clip-rule="evenodd"/><linearGradient id="gradient" x1="-1.524" x2="195.558" y1="164.781" y2="84.215" gradientUnits="userSpaceOnUse"><stop stop-color="#4B2EFB"/><stop offset="1" stop-color="#E65FFC"/></linearGradient></svg>