<svg xmlns="http://www.w3.org/2000/svg" fill="none" viewBox="0 0 256 256"><g clip-path="url(#clip0_163_253)"><path fill="#F4F2ED" d="M196 0H60C26.863 0 0 26.863 0 60v136c0 33.137 26.863 60 60 60h136c33.137 0 60-26.863 60-60V60c0-33.137-26.863-60-60-60"/><g clip-path="url(#clip1_163_253)"><path fill="#34A853" d="M127.131 41a15.292 15.292 0 0 0-12.685 23.822l6.531-6.522a6.3 6.3 0 0 1-.322-2.018 6.448 6.448 0 1 1 4.44 6.126l-6.522 6.522A15.283 15.283 0 1 0 127.131 41"/><path fill="#FBBC04" d="M121.051 85.539a23.76 23.76 0 0 0-4.763-14.315l-8.474 8.465a12.15 12.15 0 0 1-2.322 14.666l4.606 11.256a23.89 23.89 0 0 0 10.953-20.072"/><path fill="#EA4335" d="M97.368 97.69h-.221a12.16 12.16 0 1 1 6.678-22.32l8.392-8.393a23.896 23.896 0 1 0-15.07 42.457 24.4 24.4 0 0 0 4.826-.479z"/><path fill="#4285F4" d="M127.453 107.426a54.3 54.3 0 0 0-15.66 2.294l6.715 16.406a37 37 0 0 1 8.936-1.087c17.45.005 32.467 12.336 35.868 29.452s-5.762 34.251-21.886 40.926-34.716 1.033-44.41-13.478-7.788-33.848 4.552-46.187a37 37 0 0 1 8.724-6.448l-6.642-16.36c-24.757 12.125-36.48 40.894-27.245 66.868s36.485 40.888 63.34 34.665c26.855-6.224 44.768-31.605 41.635-58.993-3.132-27.388-26.314-48.068-53.881-48.067z"/></g></g><defs><clipPath id="clip0_163_253"><path fill="#fff" d="M0 0h256v256H0z"/></clipPath><clipPath id="clip1_163_253"><path fill="#fff" d="M40 41h175v175H40z"/></clipPath></defs></svg>