<svg xmlns="http://www.w3.org/2000/svg" fill="none" viewBox="0 0 256 256"><rect width="256" height="256" fill="#00A2FF" rx="60"/><path fill="#00A2FF" d="M156 37h58v58h-58z"/><path fill="#00A2FF" d="M156 37h58v58h-58z"/><path fill="#fff" d="M156 37h58v58h-58zM45.993 222v-54.545h8.23v47.46h24.715V222zm67.609-16.966v-23.943h7.99V222h-7.83v-7.085h-.427q-1.412 3.276-4.527 5.46-3.09 2.158-7.697 2.158-3.942 0-6.978-1.732-3.01-1.757-4.741-5.193-1.705-3.436-1.705-8.496v-26.021h7.964v25.062q0 4.182 2.317 6.658t6.019 2.477q2.238 0 4.448-1.118 2.237-1.119 3.702-3.383 1.49-2.264 1.465-5.753m30.595 17.872q-3.888 0-7.031-1.439-3.143-1.464-4.981-4.234-1.81-2.77-1.811-6.792 0-3.462 1.332-5.7a9.83 9.83 0 0 1 3.595-3.542q2.264-1.305 5.061-1.971a50 50 0 0 1 5.699-1.012l5.966-.692q2.29-.293 3.329-.932 1.04-.64 1.039-2.078v-.186q0-3.489-1.971-5.407-1.944-1.917-5.806-1.917-4.022 0-6.339 1.784-2.29 1.758-3.169 3.915l-7.484-1.704q1.332-3.73 3.888-6.02a15.8 15.8 0 0 1 5.94-3.355q3.356-1.066 7.058-1.066 2.45 0 5.193.586a15.2 15.2 0 0 1 5.167 2.078q2.424 1.518 3.968 4.341 1.545 2.796 1.545 7.271V222h-7.777v-5.593h-.319q-.773 1.545-2.317 3.036t-3.969 2.477-5.806.986m1.731-6.393q3.303 0 5.646-1.305 2.371-1.305 3.596-3.409a8.84 8.84 0 0 0 1.252-4.554v-5.273q-.427.426-1.651.799-1.199.346-2.744.612-1.545.24-3.009.453-1.465.186-2.451.32-2.316.292-4.234.985-1.891.692-3.037 1.997-1.118 1.279-1.118 3.41 0 2.955 2.184 4.474 2.184 1.491 5.566 1.491m54.978-11.479v-23.943h7.99V222h-7.83v-7.085h-.426q-1.411 3.276-4.528 5.46-3.089 2.158-7.697 2.158-3.942 0-6.978-1.732-3.009-1.757-4.74-5.193-1.705-3.436-1.705-8.496v-26.021h7.963v25.062q0 4.182 2.318 6.658 2.316 2.477 6.019 2.477 2.237 0 4.448-1.118 2.237-1.119 3.702-3.383 1.491-2.264 1.464-5.753"/></svg>