<svg xmlns="http://www.w3.org/2000/svg" width="256" height="256" fill="none"><path fill="#F4F2ED" d="M196 0H60C26.863 0 0 26.863 0 60v136c0 33.137 26.863 60 60 60h136c33.137 0 60-26.863 60-60V60c0-33.137-26.863-60-60-60"/><path fill="#F96B13" d="M46 80.122v96.244l82 48.122V200.62l-61.596-36.188V92.056z"/><path fill="#CC4E00" d="M189.596 92.056V188.3L210 176.366V80.122z"/><path fill="#FFCA73" d="m107.596 43.934 82 48.122L210 80.122 128 32zM46 80.122l20.404 11.934 20.404-11.934-20.404-11.934z"/><path fill="#CC4E00" d="M66.404 92.056v71.991l20.404-11.934v-71.99zM128 200.62v23.869l20.404-11.935v-24.253z"/><path fill="#FFCA73" d="M66.404 164.432 128 200.62l20.404-11.934-61.596-36.188z"/><path fill="#F96B13" d="M107.596 43.935v24.253l61.596 36.188v72.375l20.404 11.935V92.442z"/></svg>