<svg xmlns="http://www.w3.org/2000/svg" fill="none" viewBox="0 0 256 256"><g clip-path="url(#clip0_120_2357)"><path fill="#F4F2ED" d="M196 0H60C26.863 0 0 26.863 0 60v136c0 33.137 26.863 60 60 60h136c33.137 0 60-26.863 60-60V60c0-33.137-26.863-60-60-60"/><path fill="#fff" stroke="#fff" stroke-linecap="round" stroke-linejoin="round" stroke-miterlimit="100" stroke-width="6.068" d="M127.5 216c48.325 0 87.5-39.175 87.5-87.5S175.825 41 127.5 41 40 80.175 40 128.5 79.175 216 127.5 216"/><path fill="#fff" d="M126.895 210.974a83.05 83.05 0 0 0 83.046-83.045 83.046 83.046 0 0 0-166.09 0 83.05 83.05 0 0 0 24.323 58.722 83.05 83.05 0 0 0 58.721 24.323" opacity=".05"/><mask id="mask0_120_2357" width="167" height="167" x="43" y="44" maskUnits="userSpaceOnUse" style="mask-type:luminance"><path fill="#fff" d="M126.895 210.974a83.05 83.05 0 0 0 83.046-83.045 83.046 83.046 0 0 0-166.09 0 83.05 83.05 0 0 0 24.323 58.722 83.05 83.05 0 0 0 58.721 24.323"/></mask><g mask="url(#mask0_120_2357)"><path stroke="#858585" stroke-dasharray="0.54 1.09" stroke-linecap="round" stroke-linejoin="round" stroke-width=".543" d="M126.896 127.929h83.045" opacity=".9"/></g><mask id="mask1_120_2357" width="167" height="167" x="43" y="44" maskUnits="userSpaceOnUse" style="mask-type:luminance"><path fill="#fff" d="M126.895 210.974a83.05 83.05 0 0 0 83.046-83.045 83.046 83.046 0 0 0-166.09 0 83.05 83.05 0 0 0 24.323 58.722 83.05 83.05 0 0 0 58.721 24.323"/></mask><g mask="url(#mask1_120_2357)"><path stroke="#858585" stroke-dasharray="0.54 1.09" stroke-linecap="round" stroke-linejoin="round" stroke-width=".543" d="m126.896 127.929 58.721-58.722" opacity=".9"/></g><mask id="mask2_120_2357" width="167" height="167" x="43" y="44" maskUnits="userSpaceOnUse" style="mask-type:luminance"><path fill="#fff" d="M126.895 210.974a83.05 83.05 0 0 0 83.046-83.045 83.046 83.046 0 0 0-166.09 0 83.05 83.05 0 0 0 24.323 58.722 83.05 83.05 0 0 0 58.721 24.323"/></mask><g mask="url(#mask2_120_2357)"><path stroke="#858585" stroke-dasharray="0.54 1.09" stroke-linecap="round" stroke-linejoin="round" stroke-width=".543" d="M126.896 127.929V44.884" opacity=".9"/></g><mask id="mask3_120_2357" width="167" height="167" x="43" y="44" maskUnits="userSpaceOnUse" style="mask-type:luminance"><path fill="#fff" d="M126.895 210.974a83.05 83.05 0 0 0 83.046-83.045 83.046 83.046 0 0 0-166.09 0 83.05 83.05 0 0 0 24.323 58.722 83.05 83.05 0 0 0 58.721 24.323"/></mask><g mask="url(#mask3_120_2357)"><path stroke="#858585" stroke-dasharray="0.54 1.09" stroke-linecap="round" stroke-linejoin="round" stroke-width=".543" d="M126.896 127.929 68.174 69.207" opacity=".9"/></g><mask id="mask4_120_2357" width="167" height="167" x="43" y="44" maskUnits="userSpaceOnUse" style="mask-type:luminance"><path fill="#fff" d="M126.895 210.974a83.05 83.05 0 0 0 83.046-83.045 83.046 83.046 0 0 0-166.09 0 83.05 83.05 0 0 0 24.323 58.722 83.05 83.05 0 0 0 58.721 24.323"/></mask><g mask="url(#mask4_120_2357)"><path stroke="#858585" stroke-dasharray="0.54 1.09" stroke-linecap="round" stroke-linejoin="round" stroke-width=".543" d="M126.895 127.929H43.85" opacity=".9"/></g><mask id="mask5_120_2357" width="167" height="167" x="43" y="44" maskUnits="userSpaceOnUse" style="mask-type:luminance"><path fill="#fff" d="M126.895 210.974a83.05 83.05 0 0 0 83.046-83.045 83.046 83.046 0 0 0-166.09 0 83.05 83.05 0 0 0 24.323 58.722 83.05 83.05 0 0 0 58.721 24.323"/></mask><g mask="url(#mask5_120_2357)"><path stroke="#858585" stroke-dasharray="0.54 1.09" stroke-linecap="round" stroke-linejoin="round" stroke-width=".543" d="m126.896 127.929-58.722 58.722" opacity=".9"/></g><mask id="mask6_120_2357" width="167" height="167" x="43" y="44" maskUnits="userSpaceOnUse" style="mask-type:luminance"><path fill="#fff" d="M126.895 210.974a83.05 83.05 0 0 0 83.046-83.045 83.046 83.046 0 0 0-166.09 0 83.05 83.05 0 0 0 24.323 58.722 83.05 83.05 0 0 0 58.721 24.323"/></mask><g mask="url(#mask6_120_2357)"><path stroke="#858585" stroke-dasharray="0.54 1.09" stroke-linecap="round" stroke-linejoin="round" stroke-width=".543" d="M126.896 127.929v83.045" opacity=".9"/></g><mask id="mask7_120_2357" width="167" height="167" x="43" y="44" maskUnits="userSpaceOnUse" style="mask-type:luminance"><path fill="#fff" d="M126.895 210.974a83.05 83.05 0 0 0 83.046-83.045 83.046 83.046 0 0 0-166.09 0 83.05 83.05 0 0 0 24.323 58.722 83.05 83.05 0 0 0 58.721 24.323"/></mask><g mask="url(#mask7_120_2357)"><path stroke="#858585" stroke-dasharray="0.54 1.09" stroke-linecap="round" stroke-linejoin="round" stroke-width=".543" d="m126.896 127.929 58.721 58.722" opacity=".9"/></g><mask id="mask8_120_2357" width="167" height="167" x="43" y="44" maskUnits="userSpaceOnUse" style="mask-type:luminance"><path fill="#fff" d="M126.895 210.974a83.05 83.05 0 0 0 83.046-83.045 83.046 83.046 0 0 0-166.09 0 83.05 83.05 0 0 0 24.323 58.722 83.05 83.05 0 0 0 58.721 24.323"/></mask><g mask="url(#mask8_120_2357)"><path stroke="#818181" stroke-dasharray="0.54 1.09" stroke-linecap="square" stroke-linejoin="round" stroke-miterlimit="100" stroke-width=".543" d="m136.123 127.929-.274-2.232-.806-2.1-1.29-1.842-1.698-1.476-2.004-1.021-2.191-.506-2.249.04-2.172.582-1.967 1.09-1.645 1.534-1.225 1.886-.732 2.127-.196 2.24.352 2.222.878 2.07 1.354 1.796 1.748 1.415 2.038.951 2.208.429 2.246-.118 2.151-.657 1.927-1.159 1.591-1.59 1.158-1.928.658-2.151z" opacity=".9"/></g><mask id="mask9_120_2357" width="167" height="167" x="43" y="44" maskUnits="userSpaceOnUse" style="mask-type:luminance"><path fill="#fff" d="M126.895 210.974a83.05 83.05 0 0 0 83.046-83.045 83.046 83.046 0 0 0-166.09 0 83.05 83.05 0 0 0 24.323 58.722 83.05 83.05 0 0 0 58.721 24.323"/></mask><g mask="url(#mask9_120_2357)"><path stroke="#818181" stroke-dasharray="0.54 1.09" stroke-linecap="square" stroke-linejoin="round" stroke-miterlimit="100" stroke-width=".543" d="m154.578 127.929-.27-3.853-.802-3.777-1.321-3.629-1.813-3.41-2.27-3.125-2.683-2.778-3.043-2.377-3.345-1.931-3.581-1.447-3.747-.934-3.841-.404-3.859.135-3.804.67-3.673 1.194-3.471 1.693-3.202 2.159-2.87 2.584-2.482 2.959-2.046 3.275-1.571 3.528-1.065 3.712-.537 3.825v3.862l.537 3.824 1.065 3.713 1.571 3.528 2.046 3.275 2.482 2.958 2.87 2.584 3.202 2.16 3.471 1.693 3.673 1.193 3.804.671 3.859.135 3.841-.404 3.747-.934 3.581-1.447 3.345-1.931 3.043-2.378 2.683-2.778 2.27-3.124 1.813-3.41 1.321-3.629.802-3.778z" opacity=".9"/></g><mask id="mask10_120_2357" width="167" height="167" x="43" y="44" maskUnits="userSpaceOnUse" style="mask-type:luminance"><path fill="#fff" d="M126.895 210.974a83.05 83.05 0 0 0 83.046-83.045 83.046 83.046 0 0 0-166.09 0 83.05 83.05 0 0 0 24.323 58.722 83.05 83.05 0 0 0 58.721 24.323"/></mask><g mask="url(#mask10_120_2357)"><path stroke="#818181" stroke-dasharray="0.54 1.09" stroke-linecap="square" stroke-linejoin="round" stroke-miterlimit="100" stroke-width=".543" d="m173.032 127.929-.253-4.822-.755-4.77-1.25-4.665-1.731-4.508-2.192-4.303-2.63-4.05-3.039-3.753-3.415-3.415-3.753-3.039-4.05-2.63-4.303-2.192-4.509-1.731-4.664-1.25-4.77-.755-4.822-.253-4.823.253-4.77.755-4.664 1.25-4.509 1.73-4.303 2.193-4.05 2.63-3.753 3.04-3.414 3.414-3.04 3.753-2.63 4.05-2.192 4.303-1.73 4.508-1.25 4.665-.756 4.77-.253 4.822.253 4.823.755 4.77 1.25 4.664 1.731 4.509 2.192 4.302 2.63 4.051 3.04 3.752 3.414 3.415 3.753 3.039 4.05 2.63 4.303 2.193 4.509 1.731 4.664 1.249 4.77.756 4.823.253 4.822-.253 4.77-.756 4.664-1.249 4.509-1.731 4.303-2.193 4.05-2.63 3.753-3.039 3.415-3.415 3.039-3.752 2.63-4.051 2.192-4.302 1.731-4.509 1.25-4.664.755-4.77z" opacity=".9"/></g><mask id="mask11_120_2357" width="167" height="167" x="43" y="44" maskUnits="userSpaceOnUse" style="mask-type:luminance"><path fill="#fff" d="M126.895 210.974a83.05 83.05 0 0 0 83.046-83.045 83.046 83.046 0 0 0-166.09 0 83.05 83.05 0 0 0 24.323 58.722 83.05 83.05 0 0 0 58.721 24.323"/></mask><g mask="url(#mask11_120_2357)"><path stroke="#818181" stroke-dasharray="0.54 1.09" stroke-linecap="square" stroke-linejoin="round" stroke-miterlimit="100" stroke-width=".543" d="m191.486 127.929-.354-6.751-1.057-6.678-1.75-6.53-2.423-6.312-3.069-6.024-3.682-5.67-4.255-5.254-4.781-4.781-5.254-4.255-5.67-3.682-6.024-3.07-6.312-2.422-6.53-1.75-6.678-1.058-6.751-.354-6.752.354-6.678 1.058-6.53 1.75-6.312 2.422-6.024 3.07-5.67 3.682-5.254 4.255-4.78 4.78-4.256 5.255-3.682 5.67-3.07 6.024-2.422 6.312-1.75 6.53-1.058 6.678-.353 6.751.353 6.752 1.058 6.677 1.75 6.531 2.423 6.312 3.07 6.024 3.681 5.67 4.255 5.254 4.78 4.781 5.255 4.254 5.67 3.682 6.024 3.07 6.312 2.423 6.53 1.75 6.678 1.057 6.752.354 6.751-.354 6.678-1.057 6.53-1.75 6.312-2.423 6.024-3.07 5.67-3.682 5.254-4.254 4.781-4.781 4.255-5.254 3.682-5.67 3.069-6.024 2.423-6.312 1.75-6.531 1.057-6.677z" opacity=".9"/></g><g opacity=".938"><mask id="mask12_120_2357" width="167" height="167" x="43" y="44" maskUnits="userSpaceOnUse" style="mask-type:luminance"><path fill="#fff" d="M126.895 210.974a83.05 83.05 0 0 0 83.046-83.045 83.046 83.046 0 0 0-166.09 0 83.05 83.05 0 0 0 24.323 58.722 83.05 83.05 0 0 0 58.721 24.323"/></mask><g mask="url(#mask12_120_2357)"><path fill="#004CFF" stroke="#000" stroke-linejoin="round" stroke-miterlimit="100" stroke-width="1.212" d="m126.896 127.929.175-.057.176-.057.175-.057.176-.057.175-.057.176-.057.175-.057.176-.057.175-.057.176-.057.175-.057.176-.057.175-.057.176-.057.175-.057.176-.057.175-.057.176-.057.175-.057.176-.057.175-.057.176-.057.175-.057.176-.057.175-.057.176-.057.175-.057.176-.057.175-.057.176-.057.175-.057.176-.058.176-.057.175-.057.176-.057.175-.057.176-.057.175-.057.176-.057.175-.057.176-.057.175-.057.176-.057.175-.057.176-.057.175-.057.176-.057.175-.057.176-.057.175-.057.176-.057.175-.057.176-.057.175-.057.176-.057.175-.057.176-.057.175-.057.176-.057.175-.057.176-.057.175-.057.176-.057.175-.057.176-.057.176-.057.175-.057.176-.057.175-.057.176-.057.175-.057.176-.057.175-.057.176-.057.175-.057.176-.057.175-.057.176-.057.175-.057.176-.058.175-.057.176-.057.175-.057.176-.057.175-.057.176-.057.175-.057.176-.057.175-.057.176-.057.175-.057.176-.057.175-.057.176-.057.175-.057.176-.057.175-.057.176-.057.176-.057.175-.057.018.055.018.055.017.056.017.055.017.055.017.056.017.055.017.056.016.056.017.055.016.056.016.056.015.055.016.056.015.056.016.056.015.056.014.056.015.056.015.056.014.057.014.056.014.056.014.056.014.057.013.056.013.057.013.056.013.057.013.056.013.057.012.056.012.057.012.057.012.057.011.056.012.057.011.057.012.057.01.057.011.057.011.057.01.057.01.057.01.057.01.057.01.057.01.058.009.057.009.057.009.057.009.058.008.057.009.057.008.058.008.057.008.058.008.057.007.057.008.058.007.057.007.058.007.058.006.057.007.058.006.057.006.058.006.058.006.057.005.058.006.058.005.058.005.057.005.058.004.058.005.058.004.058.004.057.004.058.004.058.003.058.004.058.003.058.003.058.003.058.002.057.003.058.002.058.002.058.002.058.002.058.001.058.002.058.001.058.001.058.001.058v.058l.001.058v.116h-18.27z" opacity=".6"/></g></g><g opacity=".938"><mask id="mask13_120_2357" width="167" height="167" x="43" y="44" maskUnits="userSpaceOnUse" style="mask-type:luminance"><path fill="#fff" d="M126.895 210.974a83.05 83.05 0 0 0 83.046-83.045 83.046 83.046 0 0 0-166.09 0 83.05 83.05 0 0 0 24.323 58.722 83.05 83.05 0 0 0 58.721 24.323"/></mask><g mask="url(#mask13_120_2357)"><path fill="#CEFF29" stroke="#000" stroke-linejoin="round" stroke-miterlimit="100" stroke-width="1.212" d="m126.896 127.929.194-.519.195-.518.194-.518.195-.519.194-.518.195-.518.194-.519.195-.518.194-.518.195-.519.194-.518.195-.518.194-.519.195-.518.195-.518.194-.519.195-.518.194-.518.195-.519.194-.518.195-.518.194-.519.195-.518.194-.518.195-.519.194-.518.195-.518.195-.519.194-.518.195-.518.194-.519.195-.518.194-.518.195-.519.194-.518.195-.518.194-.519.195-.518.194-.518.195-.519.195-.518.194-.518.195-.519.194-.518.195-.518.194-.519.195-.518.194-.518.195-.519.194-.518.195-.518.194-.519.195-.518.195-.518.194-.519.195-.518.194-.518.195-.519.194-.518.195-.518.194-.519.195-.518.194-.518.195-.519.194-.518.195-.518.195-.519.194-.518.195-.518.194-.519.195-.518.194-.518.195-.519.194-.518.195-.518.194-.519.195-.518.194-.518.195-.518.194-.519.195-.518.195-.519.194-.518.195-.518.194-.518.195-.519.194-.518.195-.519.194-.518.195-.518.194-.519.195-.518.194-.518.195-.519.195-.518.194-.518.195-.519.194-.518.195-.518.194-.519.163.062.163.062.162.062.162.063.162.063.162.064.161.065.162.065.161.065.161.066.16.067.161.066.16.068.16.068.16.068.16.07.159.069.16.07.159.07.158.071.159.072.158.072.159.072.157.073.158.073.157.074.158.075.157.075.156.075.157.076.156.077.156.076.156.078.155.078.156.078.155.079.154.08.155.08.154.08.154.08.154.082.154.081.153.083.153.082.153.084.152.083.152.084.152.085.152.085.151.086.151.086.151.086.151.087.15.088.15.088.15.088.149.09.15.088.149.09.148.09.149.091.148.092.147.091.148.093.147.092.147.093.147.094.146.094.146.094.146.095.145.096.145.096.145.096.145.097.144.097.144.097.144.099.143.098.143.1.142.099.143.1.142.1.142.1.141.102.141.102.141.102.14.102.141.104.139.103.14.104.139.104.139.105.138.105.138.106.138.106.138.106.137.107.137.108.136.108.136.108-.345.433-.345.432-.345.433-.345.433-.345.433-.346.433-.345.433-.345.432-.345.433-.345.433-.346.433-.345.433-.345.433-.345.433-.345.433-.345.432-.346.433-.345.433-.345.433-.345.433-.345.433-.346.432-.345.433-.345.433-.345.433-.345.433-.346.433-.345.432-.345.433-.345.433-.345.433-.345.433-.346.433-.345.433-.345.432-.345.433-.345.433-.346.433-.345.433-.345.433-.345.433-.345.432-.346.433-.345.433-.345.433-.345.433-.345.433-.345.433-.346.432-.345.433-.345.433-.345.433-.345.433-.346.433-.345.432-.345.433-.345.433-.345.433-.345.433-.346.433-.345.433-.345.432-.345.433-.345.433-.346.433-.345.433-.345.433-.345.433-.345.432-.346.433-.345.433-.345.433-.345.433-.345.433-.345.432-.346.433-.345.433-.345.433-.345.433-.345.433-.346.433-.345.432-.345.433-.345.433-.345.433-.346.433-.345.433-.345.433-.345.432-.345.433-.345.433-.346.433-.345.433-.345.433-.345.432-.345.433-.346.433-.345.433-.345.433z" opacity=".6"/></g></g><g opacity=".938"><mask id="mask14_120_2357" width="167" height="167" x="43" y="44" maskUnits="userSpaceOnUse" style="mask-type:luminance"><path fill="#fff" d="M126.895 210.974a83.05 83.05 0 0 0 83.046-83.045 83.046 83.046 0 0 0-166.09 0 83.05 83.05 0 0 0 24.323 58.722 83.05 83.05 0 0 0 58.721 24.323"/></mask><g mask="url(#mask14_120_2357)"><path fill="#FF6800" stroke="#000" stroke-linejoin="round" stroke-miterlimit="100" stroke-width="1.212" d="m126.896 127.929-.473-.567-.474-.566-.473-.567-.473-.567-.473-.566-.473-.567-.473-.567-.473-.566-.473-.567-.473-.567-.473-.566-.473-.567-.473-.567-.474-.566-.473-.567-.473-.567-.473-.566-.473-.567-.473-.567-.473-.566-.473-.567-.473-.567-.473-.566-.473-.567-.473-.567-.474-.566-.473-.567-.473-.567-.473-.566-.473-.567-.473-.567-.473-.566-.473-.567-.473-.567-.473-.566-.473-.567-.473-.567-.474-.566-.473-.567-.473-.566-.473-.567-.473-.567-.473-.566-.473-.567-.473-.567-.473-.566-.473-.567-.473-.567-.473-.566-.473-.567-.474-.567-.473-.566-.473-.567-.473-.567-.473-.566-.473-.567-.473-.567-.473-.566-.473-.567-.473-.567-.473-.566-.474-.567-.473-.567-.473-.566-.473-.567-.473-.567-.473-.566-.473-.567-.473-.567-.473-.566-.473-.567-.473-.567-.473-.566-.474-.567-.472-.567-.474-.566-.473-.567-.473-.567-.473-.566-.473-.567-.473-.567-.473-.566-.473-.567-.473-.567-.473-.566-.473-.567-.474-.567-.473-.566-.473-.567-.473-.566-.473-.567-.473-.567-.473-.567-.473-.566-.473-.567-.473-.567-.473-.566-.473-.567-.474-.567-.473-.566.268-.222.269-.221.27-.22.27-.219.272-.217.272-.216.274-.214.275-.214.275-.212.277-.21.278-.21.279-.208.28-.207.28-.206.282-.204.282-.203.284-.201.284-.2.286-.2.286-.197.287-.196.289-.195.289-.193.29-.192.29-.19.293-.19.292-.188.294-.187.294-.185.296-.184.296-.182.297-.181.298-.18.299-.178.3-.177.3-.175.3-.174.303-.172.303-.171.303-.17.305-.168.305-.167.306-.166.307-.163.308-.163.308-.16.31-.16.309-.159.31-.156.312-.155.312-.154.313-.152.313-.151.314-.15.315-.147.316-.146.316-.145.317-.144.318-.141.318-.14.32-.14.319-.137.32-.136.32-.134.322-.133.322-.131.323-.13.324-.128.324-.127.324-.125.325-.124.326-.122.326-.12.327-.12.328-.117.328-.116.328-.114.329-.113.33-.111.33-.11.33-.108.331-.107.332-.105.332-.104.333-.102.333-.1.333-.099.334-.097.335-.096.335-.094.335-.092.336-.091.336-.09.337-.087.337-.086.337-.085.338-.083.338-.081.339-.08.339-.078.164.72.164.719.164.72.165.72.164.719.164.72.164.72.165.72.164.719.164.72.164.72.165.719.164.72.164.72.165.719.164.72.164.72.164.719.165.72.164.72.164.719.164.72.165.72.164.719.164.72.164.72.165.719.164.72.164.72.164.719.165.72.164.72.164.719.165.72.164.72.164.719.164.72.165.72.164.719.164.72.164.72.165.719.164.72.164.72.164.719.165.72.164.72.164.719.165.72.164.72.164.719.164.72.165.72.164.719.164.72.164.72.165.719.164.72.164.72.164.72.165.719.164.719.164.72.165.72.164.719.164.72.164.72.165.719.164.72.164.72.164.719.165.72.164.72.164.719.164.72.165.72.164.719.164.72.164.72.165.72.164.719.164.72.165.72.164.719.164.72.164.72.165.719.164.72.164.72.164.719.165.72.164.72.164.719.164.72.165.72.164.719.164.72.165.72.164.719z" opacity=".6"/></g></g><g opacity=".938"><mask id="mask15_120_2357" width="167" height="167" x="43" y="44" maskUnits="userSpaceOnUse" style="mask-type:luminance"><path fill="#fff" d="M126.895 210.974a83.05 83.05 0 0 0 83.046-83.045 83.046 83.046 0 0 0-166.09 0 83.05 83.05 0 0 0 24.323 58.722 83.05 83.05 0 0 0 58.721 24.323"/></mask><g mask="url(#mask15_120_2357)"><path fill="#FFC400" stroke="#000" stroke-linejoin="round" stroke-miterlimit="100" stroke-width="1.212" d="m126.896 127.929-.636.116-.636.115-.635.115-.636.116-.635.115-.636.115-.635.116-.636.115-.635.115-.636.116-.635.115-.636.115-.635.116-.636.115-.635.115-.636.116-.635.115-.636.115-.636.116-.635.115-.636.115-.635.116-.636.115-.635.115-.636.116-.635.115-.636.115-.635.116-.636.115-.635.115-.636.116-.635.115-.636.115-.635.116-.636.115-.636.116-.635.115-.636.115-.635.116-.636.115-.635.115-.636.116-.635.115-.636.115-.635.116-.636.115-.635.115-.636.116-.635.115-.636.115-.635.116-.636.115-.635.115-.636.116-.635.115-.636.115-.636.116-.635.115-.636.115-.635.116-.636.115-.635.115-.636.116-.635.115-.636.115-.635.116-.636.115-.635.115-.636.116-.635.115-.636.115-.635.116-.636.115-.636.115-.635.116-.636.115-.635.115-.636.116-.635.115-.636.116-.635.115-.636.115-.635.116-.636.115-.635.115-.636.116-.635.115-.636.115-.635.116-.636.115-.636.115-.635.116-.636.115-.635.115-.636.116-.635.115-.636.115-.635.116-.636.115-.635.115-.072-.399-.068-.4-.066-.401-.064-.4-.061-.402-.059-.401-.056-.402-.053-.402-.052-.403-.048-.403-.046-.403-.044-.404-.04-.403-.039-.404-.036-.405-.033-.404-.03-.405-.029-.405-.025-.405-.024-.405-.02-.405-.018-.406-.016-.405-.013-.406-.01-.406-.008-.405-.005-.406-.003-.406v-.406l.002-.406.005-.405.008-.406.01-.406.013-.406.015-.405.017-.406.02-.405.023-.405.026-.405.027-.405.03-.405.034-.404.035-.404.038-.404.04-.404.044-.404.046-.403.048-.403.05-.403.054-.402.055-.402.059-.402.06-.401.064-.401.066-.4.068-.4.07-.4.074-.399.076-.399.078-.398.081-.398.084-.397.085-.396.089-.397.09-.395.094-.395.096-.394.098-.394.1-.393.104-.393.106-.392.108-.391.11-.39.113-.39.116-.389.118-.388.12-.388.123-.387.125-.386.128-.385.13-.384.132-.384.135-.383.138-.382.14-.381.142-.38.144-.379.147-.379.15-.377.15-.376.155-.376.156-.374.159-.374.16-.372.164-.372.166-.37.168-.37.17-.368.173-.368.174-.366.583.281.581.28.582.28.582.28.582.281.582.28.582.28.582.28.582.281.582.28.582.28.582.28.582.281.582.28.582.28.582.28.582.281.582.28.581.28.582.28.582.281.582.28.582.28.582.28.582.281.582.28.582.28.582.28.582.28.582.281.582.28.582.28.582.28.582.281.582.28.582.28.581.28.582.281.582.28.582.28.582.28.582.281.582.28.582.28.582.28.582.281.582.28.582.28.582.28.582.281.582.28.582.28.582.28.581.281.582.28.582.28.582.28.582.281.582.28.582.28.582.28.582.281.582.28.582.28.582.28.582.281.582.28.582.28.582.28.582.281.582.28.581.28.582.28.582.281.582.28.582.28.582.28.582.281.582.28.582.28.582.28.582.281.582.28.582.28.582.28.582.281.582.28.582.28.581.28.582.281.582.28.582.28.582.28.582.281.582.28.582.28.582.28.582.281.582.28z" opacity=".6"/></g></g><mask id="mask16_120_2357" width="167" height="167" x="43" y="44" maskUnits="userSpaceOnUse" style="mask-type:luminance"><path fill="#fff" d="M126.895 210.974a83.05 83.05 0 0 0 83.046-83.045 83.046 83.046 0 0 0-166.09 0 83.05 83.05 0 0 0 24.323 58.722 83.05 83.05 0 0 0 58.721 24.323"/></mask><g mask="url(#mask16_120_2357)"><path fill="#29FFCE" stroke="#000" stroke-linejoin="round" stroke-miterlimit="100" stroke-width="1.212" d="m126.895 127.929-.303.21-.303.21-.304.211-.303.21-.304.21-.303.21-.303.21-.304.21-.303.211-.303.21-.304.21-.303.21-.304.21-.303.21-.303.211-.304.21-.303.21-.304.21-.303.21-.303.211-.304.21-.303.21-.304.21-.303.21-.303.211-.304.21-.303.21-.304.21-.303.21-.303.21-.304.211-.303.21-.304.21-.303.21-.303.21-.304.211-.303.21-.303.21-.304.21-.303.21-.304.21-.303.211-.303.21-.304.21-.303.21-.304.21-.303.211-.303.21-.304.21-.303.21-.304.21-.303.21-.303.211-.304.21-.303.21-.304.21-.303.21-.303.211-.304.21-.303.21-.304.21-.303.21-.303.211-.304.21-.303.21-.304.21-.303.21-.303.21-.304.211-.303.21-.303.21-.304.21-.303.21-.304.211-.303.21-.303.21-.304.21-.303.21-.304.21-.303.211-.303.21-.304.21-.303.21-.304.21-.303.211-.303.21-.304.21-.303.21-.303.21-.304.21-.303.211-.304.21-.303.21-.304.21-.303.21-.303.211-.304.21-.303.21-.303.21-.304.21-.033-.047-.033-.048-.033-.048-.032-.048-.033-.048-.033-.048-.032-.048-.033-.048-.032-.048-.032-.048-.032-.048-.033-.048-.032-.049-.032-.048-.032-.048-.032-.049-.031-.048-.032-.049-.032-.049-.031-.048-.032-.049-.031-.049-.031-.048-.031-.049-.032-.049-.03-.049-.032-.049-.03-.049-.032-.049-.03-.049-.031-.05-.03-.049-.031-.049-.03-.049-.031-.05-.03-.049-.03-.05-.03-.049-.03-.05-.03-.049-.03-.05-.03-.05-.03-.049-.03-.05-.03-.05-.03-.05-.029-.05-.029-.05-.03-.05-.028-.05-.03-.05-.029-.05-.029-.051-.028-.05-.03-.05-.028-.05-.029-.051-.028-.05-.029-.051-.028-.05-.029-.051-.028-.051-.028-.05-.028-.051-.028-.051-.028-.05-.028-.051-.028-.051-.028-.051-.027-.051-.028-.051-.027-.051-.028-.051-.027-.051-.027-.052-.027-.051-.027-.051-.027-.051-.027-.052-.027-.051-.027-.052-.026-.051-.027-.052-.026-.051-.027-.052-.026-.051-.026-.052-.027-.052-.026-.052-.026-.051-.026-.052-.026-.052-.025-.052-.026-.052-.026-.052-.025-.052-.026-.052-.025-.052-.025-.053-.025-.052.332-.16.333-.16.332-.16.333-.16.332-.16.333-.161.332-.16.333-.16.332-.16.333-.16.332-.16.333-.16.333-.161.332-.16.333-.16.332-.16.333-.16.332-.16.333-.16.332-.161.333-.16.332-.16.333-.16.333-.16.332-.16.333-.16.332-.161.333-.16.332-.16.333-.16.332-.16.333-.16.332-.16.333-.161.332-.16.333-.16.333-.16.332-.16.333-.16.332-.161.333-.16.332-.16.333-.16.332-.16.333-.16.332-.16.333-.161.332-.16.333-.16.333-.16.332-.16.333-.16.332-.16.333-.161.332-.16.333-.16.332-.16.333-.16.332-.16.333-.16.332-.161.333-.16.333-.16.332-.16.333-.16.332-.16.333-.16.332-.161.333-.16.332-.16.333-.16.332-.16.333-.16.332-.16.333-.161.333-.16.332-.16.333-.16.332-.16.333-.16.332-.16.333-.161.332-.16.333-.16.332-.16.333-.16.332-.16.333-.16.333-.161.332-.16.333-.16.332-.16.333-.16.332-.16.333-.16.332-.161.333-.16.332-.16.333-.16z" opacity=".6"/></g><g opacity=".938"><mask id="mask17_120_2357" width="167" height="167" x="43" y="44" maskUnits="userSpaceOnUse" style="mask-type:luminance"><path fill="#fff" d="M126.895 210.974a83.05 83.05 0 0 0 83.046-83.045 83.046 83.046 0 0 0-166.09 0 83.05 83.05 0 0 0 24.323 58.722 83.05 83.05 0 0 0 58.721 24.323"/></mask><g mask="url(#mask17_120_2357)"><path fill="#7DFF7A" stroke="#000" stroke-linejoin="round" stroke-miterlimit="100" stroke-width="1.212" d="m126.896 127.929.077.455.077.455.077.454.078.455.077.455.077.455.077.455.078.455.077.455.077.454.078.455.077.455.077.455.077.455.078.455.077.454.077.455.077.455.078.455.077.455.077.455.078.455.077.454.077.455.077.455.078.455.077.455.077.455.077.454.078.455.077.455.077.455.078.455.077.455.077.455.077.454.078.455.077.455.077.455.077.455.078.455.077.454.077.455.077.455.078.455.077.455.077.455.078.454.077.455.077.455.077.455.078.455.077.455.077.455.077.454.078.455.077.455.077.455.078.455.077.455.077.454.077.455.078.455.077.455.077.455.077.455.078.455.077.454.077.455.078.455.077.455.077.455.077.455.078.454.077.455.077.455.077.455.078.455.077.455.077.455.078.454.077.455.077.455.077.455.078.455.077.455.077.454.077.455.078.455.077.455.077.455.078.455.077.454.077.455.077.455.078.455.077.455.077.455.077.455.078.454-.179.03-.179.03-.179.028-.179.028-.179.027-.179.027-.179.026-.18.025-.179.024-.18.024-.18.023-.179.022-.18.021-.18.021-.18.02-.181.02-.18.019-.18.018-.18.017-.181.016-.18.016-.181.016-.18.014-.181.014-.181.013-.18.012-.181.012-.181.011-.181.01-.181.009-.181.009-.181.008-.181.008-.181.006-.181.006-.181.005-.181.005-.181.004-.182.003-.181.002-.181.002-.181.001h-.362l-.182-.002-.181-.001-.181-.003-.181-.003-.181-.004-.181-.005-.181-.005-.181-.007-.181-.006-.182-.008-.18-.009-.181-.008-.181-.01-.181-.01-.181-.011-.181-.012-.181-.013-.18-.013-.181-.014-.181-.015-.18-.015-.181-.016-.18-.017-.18-.017-.18-.019-.181-.019-.18-.019-.18-.021-.18-.021-.18-.021-.179-.023-.18-.023-.18-.024-.179-.025-.18-.025-.179-.026-.179-.027-.179-.027-.179-.028-.179-.029-.179-.029-.178-.031-.179-.03-.178-.032-.179-.032-.178-.033-.178-.034-.178-.034-.177-.036-.178-.035-.178-.037-.177-.037-.177-.038-.177-.038-.177-.04-.177-.04.103-.45.103-.449.102-.45.103-.45.103-.45.102-.45.103-.449.103-.45.102-.45.103-.45.103-.449.102-.45.103-.45.103-.45.102-.45.103-.449.103-.45.102-.45.103-.45.103-.45.102-.449.103-.45.103-.45.102-.45.103-.45.103-.449.102-.45.103-.45.103-.45.102-.45.103-.449.103-.45.102-.45.103-.45.102-.45.103-.449.103-.45.102-.45.103-.45.103-.45.102-.449.103-.45.103-.45.102-.45.103-.45.103-.449.102-.45.103-.45.103-.45.102-.45.103-.449.103-.45.102-.45.103-.45.103-.449.102-.45.103-.45.103-.45.102-.45.103-.449.103-.45.102-.45.103-.45.103-.45.102-.449.103-.45.103-.45.102-.45.103-.45.103-.449.102-.45.103-.45.103-.45.102-.45.103-.449.103-.45.102-.45.103-.45.103-.45.102-.449.103-.45.102-.45.103-.45.103-.45.102-.449.103-.45.103-.45.102-.45.103-.45.103-.449.102-.45.103-.45.103-.45.102-.45.103-.449.103-.45.102-.45.103-.45.103-.45z" opacity=".6"/></g></g><g opacity=".938"><mask id="mask18_120_2357" width="167" height="167" x="43" y="44" maskUnits="userSpaceOnUse" style="mask-type:luminance"><path fill="#fff" d="M126.895 210.974a83.05 83.05 0 0 0 83.046-83.045 83.046 83.046 0 0 0-166.09 0 83.05 83.05 0 0 0 24.323 58.722 83.05 83.05 0 0 0 58.721 24.323"/></mask><g mask="url(#mask18_120_2357)"><path fill="#FF6800" stroke="#000" stroke-linejoin="round" stroke-miterlimit="100" stroke-width="1.212" d="m126.896 127.929.582.454.582.453.582.454.583.454.582.454.582.453.582.454.583.454.582.454.582.453.582.454.583.454.582.454.582.453.582.454.583.454.582.454.582.453.582.454.583.454.582.454.582.453.582.454.583.454.582.454.582.453.583.454.582.454.582.454.582.453.583.454.582.454.582.454.582.453.583.454.582.454.582.453.582.454.583.454.582.454.582.453.582.454.583.454.582.454.582.453.582.454.583.454.582.454.582.453.583.454.582.454.582.454.582.453.583.454.582.454.582.454.582.453.583.454.582.454.582.454.582.453.583.454.582.454.582.454.582.453.583.454.582.454.582.454.582.453.583.454.582.454.582.454.583.453.582.454.582.454.582.454.583.453.582.454.582.454.582.453.583.454.582.454.582.454.582.453.583.454.582.454.582.454.582.453.583.454.582.454.582.454.582.453.583.454.582.454.582.454.583.453.582.454.582.454.582.454.583.453-.108.137-.107.137-.108.137-.108.136-.108.136-.109.136-.109.135-.109.136-.11.135-.11.135-.11.134-.111.134-.11.134-.112.134-.111.133-.112.134-.112.133-.113.132-.112.133-.114.132-.113.132-.114.131-.114.132-.114.131-.115.13-.115.131-.115.13-.115.13-.116.13-.117.129-.116.129-.117.129-.117.129-.117.128-.118.128-.118.128-.118.128-.119.127-.119.127-.119.126-.119.127-.12.126-.12.126-.121.125-.12.126-.121.125-.122.124-.121.125-.122.124-.122.124-.123.123-.122.123-.123.123-.124.123-.123.122-.124.122-.124.122-.125.122-.125.121-.125.121-.125.12-.126.121-.125.12-.127.119-.126.12-.127.119-.127.119-.127.118-.128.119-.127.118-.129.117-.128.117-.129.117-.129.117-.129.117-.129.116-.13.116-.13.115-.13.115-.131.115-.131.115-.131.114-.131.114-.132.113-.132.114-.132.113-.133.113-.132.112-.133.112-.134.112-.133.111-.134.111-.134.111-.134.111-.135.11-.135.11-.135.109-.135.11-.136.109-.136.108-.46-.577-.46-.577-.46-.577-.461-.577-.46-.577-.46-.578-.46-.577-.461-.577-.46-.577-.46-.577-.46-.577-.461-.577-.46-.577-.46-.578-.46-.577-.461-.577-.46-.577-.46-.577-.46-.577-.461-.577-.46-.578-.46-.577-.46-.577-.461-.577-.46-.577-.46-.577-.46-.577-.461-.577-.46-.578-.46-.577-.46-.577-.461-.577-.46-.577-.46-.577-.46-.577-.461-.578-.46-.577-.46-.577-.46-.577-.461-.577-.46-.577-.46-.577-.46-.577-.461-.578-.46-.577-.46-.577-.46-.577-.461-.577-.46-.577-.46-.577-.46-.578-.461-.577-.46-.577-.46-.577-.46-.577-.461-.577-.46-.577-.46-.577-.46-.578-.461-.577-.46-.577-.46-.577-.46-.577-.461-.577-.46-.577-.46-.578-.46-.577-.461-.577-.46-.577-.46-.577-.46-.577-.461-.577-.46-.577-.46-.578-.46-.577-.461-.577-.46-.577-.46-.577-.46-.577-.461-.577-.46-.578-.46-.577-.46-.577-.461-.577-.46-.577-.46-.577-.46-.577-.461-.577-.46-.578-.46-.577-.46-.577-.461-.577-.46-.577-.46-.577-.46-.577-.46-.578-.461-.577-.46-.577-.46-.577z" opacity=".6"/></g></g><path stroke="#11557C" stroke-linecap="square" stroke-miterlimit="100000" stroke-width="2.659" d="M126.895 210.974a83.05 83.05 0 0 0 83.046-83.045 83.046 83.046 0 0 0-166.09 0 83.05 83.05 0 0 0 24.323 58.722 83.05 83.05 0 0 0 58.721 24.323Z"/><mask id="mask19_120_2357" width="167" height="167" x="43" y="44" maskUnits="userSpaceOnUse" style="mask-type:luminance"><path fill="#fff" d="M126.895 210.974a83.05 83.05 0 0 0 83.046-83.045 83.046 83.046 0 0 0-166.09 0 83.05 83.05 0 0 0 24.323 58.722 83.05 83.05 0 0 0 58.721 24.323"/></mask><g mask="url(#mask19_120_2357)"><path stroke="#000" stroke-linejoin="round" stroke-miterlimit="100" stroke-width="1.212" d="m126.896 127.929.175-.057.176-.057.175-.057.176-.057.175-.057.176-.057.175-.057.176-.057.175-.057.176-.057.175-.057.176-.057.175-.057.176-.057.175-.057.176-.057.175-.057.176-.057.175-.057.176-.057.175-.057.176-.057.175-.057.176-.057.175-.057.176-.057.175-.057.176-.057.175-.057.176-.057.175-.057.176-.058.176-.057.175-.057.176-.057.175-.057.176-.057.175-.057.176-.057.175-.057.176-.057.175-.057.176-.057.175-.057.176-.057.175-.057.176-.057.175-.057.176-.057.175-.057.176-.057.175-.057.176-.057.175-.057.176-.057.175-.057.176-.057.175-.057.176-.057.175-.057.176-.057.175-.057.176-.057.175-.057.176-.057.176-.057.175-.057.176-.057.175-.057.176-.057.175-.057.176-.057.175-.057.176-.057.175-.057.176-.057.175-.057.176-.057.175-.057.176-.058.175-.057.176-.057.175-.057.176-.057.175-.057.176-.057.175-.057.176-.057.175-.057.176-.057.175-.057.176-.057.175-.057.176-.057.175-.057.176-.057.175-.057.176-.057.176-.057.175-.057.018.055.018.055.017.056.017.055.017.055.017.056.017.055.017.056.016.056.017.055.016.056.016.056.015.055.016.056.015.056.016.056.015.056.014.056.015.056.015.056.014.057.014.056.014.056.014.056.014.057.013.056.013.057.013.056.013.057.013.056.013.057.012.056.012.057.012.057.012.057.011.056.012.057.011.057.012.057.01.057.011.057.011.057.01.057.01.057.01.057.01.057.01.057.01.058.009.057.009.057.009.057.009.058.008.057.009.057.008.058.008.057.008.058.008.057.007.057.008.058.007.057.007.058.007.058.006.057.007.058.006.057.006.058.006.058.006.057.005.058.006.058.005.058.005.057.005.058.004.058.005.058.004.058.004.057.004.058.004.058.003.058.004.058.003.058.003.058.003.058.002.057.003.058.002.058.002.058.002.058.002.058.001.058.002.058.001.058.001.058.001.058v.058l.001.058v.116h-18.27z" opacity=".6"/></g><mask id="mask20_120_2357" width="167" height="167" x="43" y="44" maskUnits="userSpaceOnUse" style="mask-type:luminance"><path fill="#fff" d="M126.895 210.974a83.05 83.05 0 0 0 83.046-83.045 83.046 83.046 0 0 0-166.09 0 83.05 83.05 0 0 0 24.323 58.722 83.05 83.05 0 0 0 58.721 24.323"/></mask><g mask="url(#mask20_120_2357)"><path stroke="#000" stroke-linejoin="round" stroke-miterlimit="100" stroke-width="1.212" d="m126.896 127.929.194-.519.195-.518.194-.518.195-.519.194-.518.195-.518.194-.519.195-.518.194-.518.195-.519.194-.518.195-.518.194-.519.195-.518.195-.518.194-.519.195-.518.194-.518.195-.519.194-.518.195-.518.194-.519.195-.518.194-.518.195-.519.194-.518.195-.518.195-.519.194-.518.195-.518.194-.519.195-.518.194-.518.195-.519.194-.518.195-.518.194-.519.195-.518.194-.518.195-.519.195-.518.194-.518.195-.519.194-.518.195-.518.194-.519.195-.518.194-.518.195-.519.194-.518.195-.518.194-.519.195-.518.195-.518.194-.519.195-.518.194-.518.195-.519.194-.518.195-.518.194-.519.195-.518.194-.518.195-.519.194-.518.195-.518.195-.519.194-.518.195-.518.194-.519.195-.518.194-.518.195-.519.194-.518.195-.518.194-.519.195-.518.194-.518.195-.518.194-.519.195-.518.195-.519.194-.518.195-.518.194-.518.195-.519.194-.518.195-.519.194-.518.195-.518.194-.519.195-.518.194-.518.195-.519.195-.518.194-.518.195-.519.194-.518.195-.518.194-.519.163.062.163.062.162.062.162.063.162.063.162.064.161.065.162.065.161.065.161.066.16.067.161.066.16.068.16.068.16.068.16.07.159.069.16.07.159.07.158.071.159.072.158.072.159.072.157.073.158.073.157.074.158.075.157.075.156.075.157.076.156.077.156.076.156.078.155.078.156.078.155.079.154.08.155.08.154.08.154.08.154.082.154.081.153.083.153.082.153.084.152.083.152.084.152.085.152.085.151.086.151.086.151.086.151.087.15.088.15.088.15.088.149.09.15.088.149.09.148.09.149.091.148.092.147.091.148.093.147.092.147.093.147.094.146.094.146.094.146.095.145.096.145.096.145.096.145.097.144.097.144.097.144.099.143.098.143.1.142.099.143.1.142.1.142.1.141.102.141.102.141.102.14.102.141.104.139.103.14.104.139.104.139.105.138.105.138.106.138.106.138.106.137.107.137.108.136.108.136.108-.345.433-.345.432-.345.433-.345.433-.345.433-.346.433-.345.433-.345.432-.345.433-.345.433-.346.433-.345.433-.345.433-.345.433-.345.433-.345.432-.346.433-.345.433-.345.433-.345.433-.345.433-.346.432-.345.433-.345.433-.345.433-.345.433-.346.433-.345.432-.345.433-.345.433-.345.433-.345.433-.346.433-.345.433-.345.432-.345.433-.345.433-.346.433-.345.433-.345.433-.345.433-.345.432-.346.433-.345.433-.345.433-.345.433-.345.433-.345.433-.346.432-.345.433-.345.433-.345.433-.345.433-.346.433-.345.432-.345.433-.345.433-.345.433-.345.433-.346.433-.345.433-.345.432-.345.433-.345.433-.346.433-.345.433-.345.433-.345.433-.345.432-.346.433-.345.433-.345.433-.345.433-.345.433-.345.432-.346.433-.345.433-.345.433-.345.433-.345.433-.346.433-.345.432-.345.433-.345.433-.345.433-.346.433-.345.433-.345.433-.345.432-.345.433-.345.433-.346.433-.345.433-.345.433-.345.432-.345.433-.346.433-.345.433-.345.433z" opacity=".6"/></g><mask id="mask21_120_2357" width="167" height="167" x="43" y="44" maskUnits="userSpaceOnUse" style="mask-type:luminance"><path fill="#fff" d="M126.895 210.974a83.05 83.05 0 0 0 83.046-83.045 83.046 83.046 0 0 0-166.09 0 83.05 83.05 0 0 0 24.323 58.722 83.05 83.05 0 0 0 58.721 24.323"/></mask><g mask="url(#mask21_120_2357)"><path stroke="#000" stroke-linejoin="round" stroke-miterlimit="100" stroke-width="1.212" d="m126.896 127.929-.473-.567-.474-.566-.473-.567-.473-.567-.473-.566-.473-.567-.473-.567-.473-.566-.473-.567-.473-.567-.473-.566-.473-.567-.473-.567-.474-.566-.473-.567-.473-.567-.473-.566-.473-.567-.473-.567-.473-.566-.473-.567-.473-.567-.473-.566-.473-.567-.473-.567-.474-.566-.473-.567-.473-.567-.473-.566-.473-.567-.473-.567-.473-.566-.473-.567-.473-.567-.473-.566-.473-.567-.473-.567-.474-.566-.473-.567-.473-.566-.473-.567-.473-.567-.473-.566-.473-.567-.473-.567-.473-.566-.473-.567-.473-.567-.473-.566-.473-.567-.474-.567-.473-.566-.473-.567-.473-.567-.473-.566-.473-.567-.473-.567-.473-.566-.473-.567-.473-.567-.473-.566-.474-.567-.473-.567-.473-.566-.473-.567-.473-.567-.473-.566-.473-.567-.473-.567-.473-.566-.473-.567-.473-.567-.473-.566-.474-.567-.472-.567-.474-.566-.473-.567-.473-.567-.473-.566-.473-.567-.473-.567-.473-.566-.473-.567-.473-.567-.473-.566-.473-.567-.474-.567-.473-.566-.473-.567-.473-.566-.473-.567-.473-.567-.473-.567-.473-.566-.473-.567-.473-.567-.473-.566-.473-.567-.474-.567-.473-.566.268-.222.269-.221.27-.22.27-.219.272-.217.272-.216.274-.214.275-.214.275-.212.277-.21.278-.21.279-.208.28-.207.28-.206.282-.204.282-.203.284-.201.284-.2.286-.2.286-.197.287-.196.289-.195.289-.193.29-.192.29-.19.293-.19.292-.188.294-.187.294-.185.296-.184.296-.182.297-.181.298-.18.299-.178.3-.177.3-.175.3-.174.303-.172.303-.171.303-.17.305-.168.305-.167.306-.166.307-.163.308-.163.308-.16.31-.16.309-.159.31-.156.312-.155.312-.154.313-.152.313-.151.314-.15.315-.147.316-.146.316-.145.317-.144.318-.141.318-.14.32-.14.319-.137.32-.136.32-.134.322-.133.322-.131.323-.13.324-.128.324-.127.324-.125.325-.124.326-.122.326-.12.327-.12.328-.117.328-.116.328-.114.329-.113.33-.111.33-.11.33-.108.331-.107.332-.105.332-.104.333-.102.333-.1.333-.099.334-.097.335-.096.335-.094.335-.092.336-.091.336-.09.337-.087.337-.086.337-.085.338-.083.338-.081.339-.08.339-.078.164.72.164.719.164.72.165.72.164.719.164.72.164.72.165.72.164.719.164.72.164.72.165.719.164.72.164.72.165.719.164.72.164.72.164.719.165.72.164.72.164.719.164.72.165.72.164.719.164.72.164.72.165.719.164.72.164.72.164.719.165.72.164.72.164.719.165.72.164.72.164.719.164.72.165.72.164.719.164.72.164.72.165.719.164.72.164.72.164.719.165.72.164.72.164.719.165.72.164.72.164.719.164.72.165.72.164.719.164.72.164.72.165.719.164.72.164.72.164.72.165.719.164.719.164.72.165.72.164.719.164.72.164.72.165.719.164.72.164.72.164.719.165.72.164.72.164.719.164.72.165.72.164.719.164.72.164.72.165.72.164.719.164.72.165.72.164.719.164.72.164.72.165.719.164.72.164.72.164.719.165.72.164.72.164.719.164.72.165.72.164.719.164.72.165.72.164.719z" opacity=".6"/></g><mask id="mask22_120_2357" width="167" height="167" x="43" y="44" maskUnits="userSpaceOnUse" style="mask-type:luminance"><path fill="#fff" d="M126.895 210.974a83.05 83.05 0 0 0 83.046-83.045 83.046 83.046 0 0 0-166.09 0 83.05 83.05 0 0 0 24.323 58.722 83.05 83.05 0 0 0 58.721 24.323"/></mask><g mask="url(#mask22_120_2357)"><path stroke="#000" stroke-linejoin="round" stroke-miterlimit="100" stroke-width="1.212" d="m126.896 127.929-.636.116-.636.115-.635.115-.636.116-.635.115-.636.115-.635.116-.636.115-.635.115-.636.116-.635.115-.636.115-.635.116-.636.115-.635.115-.636.116-.635.115-.636.115-.636.116-.635.115-.636.115-.635.116-.636.115-.635.115-.636.116-.635.115-.636.115-.635.116-.636.115-.635.115-.636.116-.635.115-.636.115-.635.116-.636.115-.636.116-.635.115-.636.115-.635.116-.636.115-.635.115-.636.116-.635.115-.636.115-.635.116-.636.115-.635.115-.636.116-.635.115-.636.115-.635.116-.636.115-.635.115-.636.116-.635.115-.636.115-.636.116-.635.115-.636.115-.635.116-.636.115-.635.115-.636.116-.635.115-.636.115-.635.116-.636.115-.635.115-.636.116-.635.115-.636.115-.635.116-.636.115-.636.115-.635.116-.636.115-.635.115-.636.116-.635.115-.636.116-.635.115-.636.115-.635.116-.636.115-.635.115-.636.116-.635.115-.636.115-.635.116-.636.115-.636.115-.635.116-.636.115-.635.115-.636.116-.635.115-.636.115-.635.116-.636.115-.635.115-.072-.399-.068-.4-.066-.401-.064-.4-.061-.402-.059-.401-.056-.402-.053-.402-.052-.403-.048-.403-.046-.403-.044-.404-.04-.403-.039-.404-.036-.405-.033-.404-.03-.405-.029-.405-.025-.405-.024-.405-.02-.405-.018-.406-.016-.405-.013-.406-.01-.406-.008-.405-.005-.406-.003-.406v-.406l.002-.406.005-.405.008-.406.01-.406.013-.406.015-.405.017-.406.02-.405.023-.405.026-.405.027-.405.03-.405.034-.404.035-.404.038-.404.04-.404.044-.404.046-.403.048-.403.05-.403.054-.402.055-.402.059-.402.06-.401.064-.401.066-.4.068-.4.07-.4.074-.399.076-.399.078-.398.081-.398.084-.397.085-.396.089-.397.09-.395.094-.395.096-.394.098-.394.1-.393.104-.393.106-.392.108-.391.11-.39.113-.39.116-.389.118-.388.12-.388.123-.387.125-.386.128-.385.13-.384.132-.384.135-.383.138-.382.14-.381.142-.38.144-.379.147-.379.15-.377.15-.376.155-.376.156-.374.159-.374.16-.372.164-.372.166-.37.168-.37.17-.368.173-.368.174-.366.583.281.581.28.582.28.582.28.582.281.582.28.582.28.582.28.582.281.582.28.582.28.582.28.582.281.582.28.582.28.582.28.582.281.582.28.581.28.582.28.582.281.582.28.582.28.582.28.582.281.582.28.582.28.582.28.582.28.582.281.582.28.582.28.582.28.582.281.582.28.582.28.581.28.582.281.582.28.582.28.582.28.582.281.582.28.582.28.582.28.582.281.582.28.582.28.582.28.582.281.582.28.582.28.582.28.581.281.582.28.582.28.582.28.582.281.582.28.582.28.582.28.582.281.582.28.582.28.582.28.582.281.582.28.582.28.582.28.582.281.582.28.581.28.582.28.582.281.582.28.582.28.582.28.582.281.582.28.582.28.582.28.582.281.582.28.582.28.582.28.582.281.582.28.582.28.581.28.582.281.582.28.582.28.582.28.582.281.582.28.582.28.582.28.582.281.582.28z" opacity=".6"/></g><g opacity=".938"><mask id="mask23_120_2357" width="167" height="167" x="43" y="44" maskUnits="userSpaceOnUse" style="mask-type:luminance"><path fill="#fff" d="M126.895 210.974a83.05 83.05 0 0 0 83.046-83.045 83.046 83.046 0 0 0-166.09 0 83.05 83.05 0 0 0 24.323 58.722 83.05 83.05 0 0 0 58.721 24.323"/></mask><g mask="url(#mask23_120_2357)"><path stroke="#000" stroke-linejoin="round" stroke-miterlimit="100" stroke-width="1.212" d="m126.895 127.929-.303.21-.303.21-.304.211-.303.21-.304.21-.303.21-.303.21-.304.21-.303.211-.303.21-.304.21-.303.21-.304.21-.303.21-.303.211-.304.21-.303.21-.304.21-.303.21-.303.211-.304.21-.303.21-.304.21-.303.21-.303.211-.304.21-.303.21-.304.21-.303.21-.303.21-.304.211-.303.21-.304.21-.303.21-.303.21-.304.211-.303.21-.303.21-.304.21-.303.21-.304.21-.303.211-.303.21-.304.21-.303.21-.304.21-.303.211-.303.21-.304.21-.303.21-.304.21-.303.21-.303.211-.304.21-.303.21-.304.21-.303.21-.303.211-.304.21-.303.21-.304.21-.303.21-.303.211-.304.21-.303.21-.304.21-.303.21-.303.21-.304.211-.303.21-.303.21-.304.21-.303.21-.304.211-.303.21-.303.21-.304.21-.303.21-.304.21-.303.211-.303.21-.304.21-.303.21-.304.21-.303.211-.303.21-.304.21-.303.21-.303.21-.304.21-.303.211-.304.21-.303.21-.304.21-.303.21-.303.211-.304.21-.303.21-.303.21-.304.21-.033-.047-.033-.048-.033-.048-.032-.048-.033-.048-.033-.048-.032-.048-.033-.048-.032-.048-.032-.048-.032-.048-.033-.048-.032-.049-.032-.048-.032-.048-.032-.049-.031-.048-.032-.049-.032-.049-.031-.048-.032-.049-.031-.049-.031-.048-.031-.049-.032-.049-.03-.049-.032-.049-.03-.049-.032-.049-.03-.049-.031-.05-.03-.049-.031-.049-.03-.049-.031-.05-.03-.049-.03-.05-.03-.049-.03-.05-.03-.049-.03-.05-.03-.05-.03-.049-.03-.05-.03-.05-.03-.05-.029-.05-.029-.05-.03-.05-.028-.05-.03-.05-.029-.05-.029-.051-.028-.05-.03-.05-.028-.05-.029-.051-.028-.05-.029-.051-.028-.05-.029-.051-.028-.051-.028-.05-.028-.051-.028-.051-.028-.05-.028-.051-.028-.051-.028-.051-.027-.051-.028-.051-.027-.051-.028-.051-.027-.051-.027-.052-.027-.051-.027-.051-.027-.051-.027-.052-.027-.051-.027-.052-.026-.051-.027-.052-.026-.051-.027-.052-.026-.051-.026-.052-.027-.052-.026-.052-.026-.051-.026-.052-.026-.052-.025-.052-.026-.052-.026-.052-.025-.052-.026-.052-.025-.052-.025-.053-.025-.052.332-.16.333-.16.332-.16.333-.16.332-.16.333-.161.332-.16.333-.16.332-.16.333-.16.332-.16.333-.16.333-.161.332-.16.333-.16.332-.16.333-.16.332-.16.333-.16.332-.161.333-.16.332-.16.333-.16.333-.16.332-.16.333-.16.332-.161.333-.16.332-.16.333-.16.332-.16.333-.16.332-.16.333-.161.332-.16.333-.16.333-.16.332-.16.333-.16.332-.161.333-.16.332-.16.333-.16.332-.16.333-.16.332-.16.333-.161.332-.16.333-.16.333-.16.332-.16.333-.16.332-.16.333-.161.332-.16.333-.16.332-.16.333-.16.332-.16.333-.16.332-.161.333-.16.333-.16.332-.16.333-.16.332-.16.333-.16.332-.161.333-.16.332-.16.333-.16.332-.16.333-.16.332-.16.333-.161.333-.16.332-.16.333-.16.332-.16.333-.16.332-.16.333-.161.332-.16.333-.16.332-.16.333-.16.332-.16.333-.16.333-.161.332-.16.333-.16.332-.16.333-.16.332-.16.333-.16.332-.161.333-.16.332-.16.333-.16z" opacity=".6"/></g></g><mask id="mask24_120_2357" width="167" height="167" x="43" y="44" maskUnits="userSpaceOnUse" style="mask-type:luminance"><path fill="#fff" d="M126.895 210.974a83.05 83.05 0 0 0 83.046-83.045 83.046 83.046 0 0 0-166.09 0 83.05 83.05 0 0 0 24.323 58.722 83.05 83.05 0 0 0 58.721 24.323"/></mask><g mask="url(#mask24_120_2357)"><path stroke="#000" stroke-linejoin="round" stroke-miterlimit="100" stroke-width="1.212" d="m126.896 127.929.077.455.077.455.077.454.078.455.077.455.077.455.077.455.078.455.077.455.077.454.078.455.077.455.077.455.077.455.078.455.077.454.077.455.077.455.078.455.077.455.077.455.078.455.077.454.077.455.077.455.078.455.077.455.077.455.077.454.078.455.077.455.077.455.078.455.077.455.077.455.077.454.078.455.077.455.077.455.077.455.078.455.077.454.077.455.077.455.078.455.077.455.077.455.078.454.077.455.077.455.077.455.078.455.077.455.077.455.077.454.078.455.077.455.077.455.078.455.077.455.077.454.077.455.078.455.077.455.077.455.077.455.078.455.077.454.077.455.078.455.077.455.077.455.077.455.078.454.077.455.077.455.077.455.078.455.077.455.077.455.078.454.077.455.077.455.077.455.078.455.077.455.077.454.077.455.078.455.077.455.077.455.078.455.077.454.077.455.077.455.078.455.077.455.077.455.077.455.078.454-.179.03-.179.03-.179.028-.179.028-.179.027-.179.027-.179.026-.18.025-.179.024-.18.024-.18.023-.179.022-.18.021-.18.021-.18.02-.181.02-.18.019-.18.018-.18.017-.181.016-.18.016-.181.016-.18.014-.181.014-.181.013-.18.012-.181.012-.181.011-.181.01-.181.009-.181.009-.181.008-.181.008-.181.006-.181.006-.181.005-.181.005-.181.004-.182.003-.181.002-.181.002-.181.001h-.362l-.182-.002-.181-.001-.181-.003-.181-.003-.181-.004-.181-.005-.181-.005-.181-.007-.181-.006-.182-.008-.18-.009-.181-.008-.181-.01-.181-.01-.181-.011-.181-.012-.181-.013-.18-.013-.181-.014-.181-.015-.18-.015-.181-.016-.18-.017-.18-.017-.18-.019-.181-.019-.18-.019-.18-.021-.18-.021-.18-.021-.179-.023-.18-.023-.18-.024-.179-.025-.18-.025-.179-.026-.179-.027-.179-.027-.179-.028-.179-.029-.179-.029-.178-.031-.179-.03-.178-.032-.179-.032-.178-.033-.178-.034-.178-.034-.177-.036-.178-.035-.178-.037-.177-.037-.177-.038-.177-.038-.177-.04-.177-.04.103-.45.103-.449.102-.45.103-.45.103-.45.102-.45.103-.449.103-.45.102-.45.103-.45.103-.449.102-.45.103-.45.103-.45.102-.45.103-.449.103-.45.102-.45.103-.45.103-.45.102-.449.103-.45.103-.45.102-.45.103-.45.103-.449.102-.45.103-.45.103-.45.102-.45.103-.449.103-.45.102-.45.103-.45.102-.45.103-.449.103-.45.102-.45.103-.45.103-.45.102-.449.103-.45.103-.45.102-.45.103-.45.103-.449.102-.45.103-.45.103-.45.102-.45.103-.449.103-.45.102-.45.103-.45.103-.449.102-.45.103-.45.103-.45.102-.45.103-.449.103-.45.102-.45.103-.45.103-.45.102-.449.103-.45.103-.45.102-.45.103-.45.103-.449.102-.45.103-.45.103-.45.102-.45.103-.449.103-.45.102-.45.103-.45.103-.45.102-.449.103-.45.102-.45.103-.45.103-.45.102-.449.103-.45.103-.45.102-.45.103-.45.103-.449.102-.45.103-.45.103-.45.102-.45.103-.449.103-.45.102-.45.103-.45.103-.45z" opacity=".6"/></g><mask id="mask25_120_2357" width="167" height="167" x="43" y="44" maskUnits="userSpaceOnUse" style="mask-type:luminance"><path fill="#fff" d="M126.895 210.974a83.05 83.05 0 0 0 83.046-83.045 83.046 83.046 0 0 0-166.09 0 83.05 83.05 0 0 0 24.323 58.722 83.05 83.05 0 0 0 58.721 24.323"/></mask><g mask="url(#mask25_120_2357)"><path stroke="#000" stroke-linejoin="round" stroke-miterlimit="100" stroke-width="1.212" d="m126.896 127.929.582.454.582.453.582.454.583.454.582.454.582.453.582.454.583.454.582.454.582.453.582.454.583.454.582.454.582.453.582.454.583.454.582.454.582.453.582.454.583.454.582.454.582.453.582.454.583.454.582.454.582.453.583.454.582.454.582.454.582.453.583.454.582.454.582.454.582.453.583.454.582.454.582.453.582.454.583.454.582.454.582.453.582.454.583.454.582.454.582.453.582.454.583.454.582.454.582.453.583.454.582.454.582.454.582.453.583.454.582.454.582.454.582.453.583.454.582.454.582.454.582.453.583.454.582.454.582.454.582.453.583.454.582.454.582.454.582.453.583.454.582.454.582.454.583.453.582.454.582.454.582.454.583.453.582.454.582.454.582.453.583.454.582.454.582.454.582.453.583.454.582.454.582.454.582.453.583.454.582.454.582.454.582.453.583.454.582.454.582.454.583.453.582.454.582.454.582.454.583.453-.108.137-.107.137-.108.137-.108.136-.108.136-.109.136-.109.135-.109.136-.11.135-.11.135-.11.134-.111.134-.11.134-.112.134-.111.133-.112.134-.112.133-.113.132-.112.133-.114.132-.113.132-.114.131-.114.132-.114.131-.115.13-.115.131-.115.13-.115.13-.116.13-.117.129-.116.129-.117.129-.117.129-.117.128-.118.128-.118.128-.118.128-.119.127-.119.127-.119.126-.119.127-.12.126-.12.126-.121.125-.12.126-.121.125-.122.124-.121.125-.122.124-.122.124-.123.123-.122.123-.123.123-.124.123-.123.122-.124.122-.124.122-.125.122-.125.121-.125.121-.125.12-.126.121-.125.12-.127.119-.126.12-.127.119-.127.119-.127.118-.128.119-.127.118-.129.117-.128.117-.129.117-.129.117-.129.117-.129.116-.13.116-.13.115-.13.115-.131.115-.131.115-.131.114-.131.114-.132.113-.132.114-.132.113-.133.113-.132.112-.133.112-.134.112-.133.111-.134.111-.134.111-.134.111-.135.11-.135.11-.135.109-.135.11-.136.109-.136.108-.46-.577-.46-.577-.46-.577-.461-.577-.46-.577-.46-.578-.46-.577-.461-.577-.46-.577-.46-.577-.46-.577-.461-.577-.46-.577-.46-.578-.46-.577-.461-.577-.46-.577-.46-.577-.46-.577-.461-.577-.46-.578-.46-.577-.46-.577-.461-.577-.46-.577-.46-.577-.46-.577-.461-.577-.46-.578-.46-.577-.46-.577-.461-.577-.46-.577-.46-.577-.46-.577-.461-.578-.46-.577-.46-.577-.46-.577-.461-.577-.46-.577-.46-.577-.46-.577-.461-.578-.46-.577-.46-.577-.46-.577-.461-.577-.46-.577-.46-.577-.46-.578-.461-.577-.46-.577-.46-.577-.46-.577-.461-.577-.46-.577-.46-.577-.46-.578-.461-.577-.46-.577-.46-.577-.46-.577-.461-.577-.46-.577-.46-.578-.46-.577-.461-.577-.46-.577-.46-.577-.46-.577-.461-.577-.46-.577-.46-.578-.46-.577-.461-.577-.46-.577-.46-.577-.46-.577-.461-.577-.46-.578-.46-.577-.46-.577-.461-.577-.46-.577-.46-.577-.46-.577-.461-.577-.46-.578-.46-.577-.46-.577-.461-.577-.46-.577-.46-.577-.46-.577-.46-.578-.461-.577-.46-.577-.46-.577z" opacity=".6"/></g></g><defs><clipPath id="clip0_120_2357"><path fill="#fff" d="M0 0h256v256H0z"/></clipPath></defs></svg>