<svg xmlns="http://www.w3.org/2000/svg" width="256" height="256"><g id="Page-1" fill="none" fill-rule="evenodd" stroke="none" stroke-width="1"><g id="Mermaid-vector"><path id="Path" fill="#FF3670" fill-rule="nonzero" d="M196 0H60C26.863 0 0 26.863 0 60v136c0 33.137 26.863 60 60 60h136c33.137 0 60-26.863 60-60V60c0-33.137-26.863-60-60-60"/><path id="Path" fill="#FFF" d="M59.086 198.114c12.429-1.838 24.022-6.24 34.778-13.148 4.404-2.84 13.042-9.86 15.996-13.036 3.512-3.733 9.085-10.92 9.977-12.87.557-1.225 1.56-2.896 2.174-3.676s2.34-4.012 3.845-7.131c2.341-4.959 2.787-5.572 3.121-4.402.502 1.727 4.682 10.028 5.63 11.087.39.446 1.337 2.117 2.117 3.677.78 1.616 3.345 5.125 5.63 7.8 2.285 2.73 4.18 5.07 4.18 5.236.056.669 11.871 10.307 16.051 13.093 5.685 3.788 7.636 4.79 15.16 7.8 10.813 4.345 20.678 6.406 30.877 6.406h5.518l-.334-7.075c-.39-8.413-1.84-15.767-4.85-25.126-2.507-7.744-2.73-8.246-7.412-15.99-6.465-10.752-13.432-18.496-24.133-26.518-9.865-7.41-13.432-11.588-17.724-20.836-3.511-7.465-3.79-9.583-4.068-28.246L155.339 58H101.5l-.279 17.16c-.278 19.442-.557 21.058-5.183 30.418-4.013 8.133-7.747 12.256-17.166 19.331a289 289 0 0 0-5.574 4.179c-2.452 1.838-9.53 9.415-12.819 13.816-2.285 3.064-7.858 12.201-9.475 15.655-1.783 3.9-5.294 15.21-6.465 20.948-.613 3.064-1.282 8.69-1.449 12.48l-.39 6.963h5.518c3.01 0 7.914-.39 10.868-.836" transform="rotate(180 128.42 128.475)"/></g></g></svg>