<svg xmlns="http://www.w3.org/2000/svg" fill="none" viewBox="0 0 256 256"><path fill="#282828" d="M196 0H60C26.863 0 0 26.863 0 60v136c0 33.137 26.863 60 60 60h136c33.137 0 60-26.863 60-60V60c0-33.137-26.863-60-60-60"/><path fill="#509EE3" d="M54.258 90.608c7.322 0 13.257-5.563 13.257-12.425S61.58 65.758 54.258 65.758 41 71.322 41 78.184s5.936 12.425 13.258 12.425m0 34.787c7.322 0 13.257-5.562 13.257-12.424s-5.935-12.425-13.257-12.425S41 106.11 41 112.972s5.936 12.424 13.258 12.424"/><path fill="#509EE3" d="M91.38 90.608c7.321 0 13.257-5.563 13.257-12.425s-5.936-12.425-13.258-12.425-13.257 5.563-13.257 12.425 5.935 12.425 13.257 12.425" opacity=".2"/><path fill="#509EE3" d="M91.38 125.733c7.321 0 13.257-5.562 13.257-12.424s-5.936-12.424-13.258-12.424-13.257 5.563-13.257 12.424c0 6.862 5.935 12.424 13.257 12.424"/><path fill="#509EE3" d="M128.5 90.608c7.321 0 13.257-5.563 13.257-12.425s-5.936-12.425-13.257-12.425c-7.322 0-13.257 5.563-13.257 12.425s5.935 12.425 13.257 12.425m0-39.758c7.321 0 13.257-5.564 13.257-12.425S135.821 26 128.5 26c-7.322 0-13.257 5.563-13.257 12.425 0 6.861 5.935 12.424 13.257 12.424m0 74.884c7.321 0 13.257-5.562 13.257-12.424s-5.936-12.424-13.257-12.424c-7.322 0-13.257 5.563-13.257 12.424 0 6.862 5.935 12.424 13.257 12.424m37.12-35.125c7.322 0 13.257-5.563 13.257-12.425s-5.935-12.425-13.257-12.425c-7.321 0-13.257 5.563-13.257 12.425s5.936 12.425 13.257 12.425" opacity=".2"/><path fill="#509EE3" d="M202.742 90.608c7.322 0 13.258-5.563 13.258-12.425s-5.936-12.425-13.258-12.425-13.258 5.563-13.258 12.425 5.936 12.425 13.258 12.425m-37.122 35.125c7.322 0 13.257-5.562 13.257-12.424s-5.935-12.424-13.257-12.424c-7.321 0-13.257 5.563-13.257 12.424 0 6.862 5.936 12.424 13.257 12.424m37.122 0c7.322 0 13.258-5.562 13.258-12.424s-5.936-12.424-13.258-12.424-13.258 5.563-13.258 12.424c0 6.862 5.936 12.424 13.258 12.424M54.258 160.184c7.322 0 13.257-5.562 13.257-12.424s-5.935-12.424-13.257-12.424S41 140.899 41 147.76c0 6.862 5.936 12.424 13.258 12.424"/><path fill="#509EE3" d="M91.38 160.522c7.321 0 13.257-5.562 13.257-12.424s-5.936-12.424-13.258-12.424-13.257 5.563-13.257 12.424c0 6.862 5.935 12.424 13.257 12.424" opacity=".2"/><path fill="#509EE3" d="M128.5 160.522c7.321 0 13.257-5.562 13.257-12.424s-5.936-12.424-13.257-12.424c-7.322 0-13.257 5.563-13.257 12.424 0 6.862 5.935 12.424 13.257 12.424"/><path fill="#509EE3" d="M165.62 160.522c7.322 0 13.257-5.562 13.257-12.424s-5.935-12.424-13.257-12.424c-7.321 0-13.257 5.563-13.257 12.424 0 6.862 5.936 12.424 13.257 12.424" opacity=".2"/><path fill="#509EE3" d="M202.742 160.522c7.322 0 13.258-5.562 13.258-12.424s-5.936-12.424-13.258-12.424-13.258 5.563-13.258 12.424c0 6.862 5.936 12.424 13.258 12.424M54.258 194.973c7.322 0 13.257-5.562 13.257-12.424s-5.935-12.424-13.257-12.424S41 175.688 41 182.549c0 6.862 5.936 12.424 13.258 12.424"/><path fill="#509EE3" d="M91.38 195.312c7.321 0 13.257-5.563 13.257-12.426 0-6.861-5.936-12.424-13.258-12.424s-13.257 5.563-13.257 12.424c0 6.863 5.935 12.426 13.257 12.426m37.121 0c7.321 0 13.257-5.563 13.257-12.426 0-6.861-5.936-12.424-13.257-12.424-7.322 0-13.257 5.563-13.257 12.424 0 6.863 5.935 12.426 13.257 12.426m0 34.788c7.321 0 13.257-5.563 13.257-12.425 0-6.861-5.936-12.424-13.257-12.424-7.322 0-13.257 5.563-13.257 12.424 0 6.862 5.935 12.425 13.257 12.425m37.12-34.788c7.322 0 13.257-5.563 13.257-12.426 0-6.861-5.935-12.424-13.257-12.424-7.321 0-13.257 5.563-13.257 12.424 0 6.863 5.936 12.426 13.257 12.426" opacity=".2"/><path fill="#509EE3" d="M202.742 195.312c7.322 0 13.258-5.563 13.258-12.426 0-6.861-5.936-12.424-13.258-12.424s-13.258 5.563-13.258 12.424c0 6.863 5.936 12.426 13.258 12.426"/></svg>