<svg xmlns="http://www.w3.org/2000/svg" fill="none" viewBox="0 0 256 256"><rect width="256" height="256" fill="#282828" rx="60"/><path fill="#DE4F4F" d="M186.87 196.697 46 47l149.692 140.87a6.24 6.24 0 0 1 .267 8.823 6.24 6.24 0 0 1-8.824.267l-.265-.265m-20.729 10.588L59.922 92.213l115.044 106.219a6.244 6.244 0 1 1-8.471 9.173l-.354-.35m-21.501.258-70.59-76.414 76.468 70.59a4.16 4.16 0 0 1 .237 5.878c-1.557 1.683-4.195 1.794-5.878.237l-.237-.258m59.147-52.909-73.698-79.582 79.577 73.699a4.155 4.155 0 0 1 .224 5.878 4.163 4.163 0 0 1-5.878.225l-.225-.225m-6.36 22.281L90.744 61.412l115.5 106.683a6.243 6.243 0 1 1-8.471 9.171l-.351-.351m-74.787 24.382-33.58-36.522 36.522 33.583a2.085 2.085 0 0 1 .129 2.939 2.087 2.087 0 0 1-2.942.123l-.124-.123m78.513-73.101-33.581-36.522 36.52 33.58a2.08 2.08 0 0 1-1.322 3.608 2.1 2.1 0 0 1-1.496-.545l-.124-.124"/></svg>