<svg xmlns="http://www.w3.org/2000/svg" width="256" height="256" fill="none"><rect width="256" height="256" fill="#282828" rx="60"/><path fill="#33B5F1" d="M122.343 61c18.109.287 33.964 6.297 47.19 18.805 10.597 10.02 17.129 22.284 19.728 36.632a59.7 59.7 0 0 1 .968 11.838c-.322 16.133-5.633 30.41-16.236 42.611-10.278 11.825-23.182 19.332-38.564 22.158-20.746 3.811-39.568-.82-56.228-13.868-3.461-2.711-6.464-5.922-9.593-8.991a11446 11446 0 0 1-20.188-19.847 46191 46191 0 0 0-18.295-17.97c-2.832-2.792-2.834-6.665-.003-9.457a7532 7532 0 0 1 18.825-18.499c5.902-5.794 11.775-11.619 17.722-17.366 3.949-3.815 7.685-7.858 12.016-11.27a67.8 67.8 0 0 1 29.096-13.422A68.7 68.7 0 0 1 122.343 61m52.344 66.691a52 52 0 0 0-.844-8.551c-2.64-13.839-9.911-24.647-21.669-32.293-11.341-7.373-23.804-9.664-37.097-7.147a48.5 48.5 0 0 0-24.944 12.833c-4.655 4.446-9.219 8.99-13.816 13.498q-9.244 9.064-18.472 18.145c-2.125 2.095-2.116 4.833-.008 6.919 3.02 2.986 6.06 5.95 9.088 8.927l22.146 21.774q16.056 15.726 38.522 14.699a47.05 47.05 0 0 0 22.198-6.532c16.001-9.528 24.174-23.731 24.896-42.272m33-.043a97 97 0 0 0-2.318-21.598 7 7 0 0 1-.114-.655 1.49 1.49 0 0 1 .722-1.557 1.52 1.52 0 0 1 1.792.012q.364.278.673.616 9.154 9.15 18.306 18.304c3.007 3.008 3.002 6.837-.012 9.851l-18.247 18.247c-.157.157-.31.318-.473.468a1.546 1.546 0 0 1-1.984.25 1.525 1.525 0 0 1-.766-1.766c.642-2.95 1.192-5.916 1.586-8.911.483-3.543.761-7.11.833-10.685.013-.858.002-1.717.002-2.576"/><path fill="#33B5F1" d="M125.732 167.9a39.942 39.942 0 0 0 28.244-68.187 39.944 39.944 0 1 0-28.244 68.187"/></svg>