<svg xmlns="http://www.w3.org/2000/svg" fill="none" viewBox="0 0 256 256"><rect width="256" height="256" fill="#282828" rx="60"/><path fill="#00A587" d="M178.507 128.08c2.254 17.693 4.347 34.305 6.519 50.899.258 1.988-.154 2.69-2.381 2.801-13.407.666-13.399.719-18.245-11.489-2.018-5.08-3.985-10.18-6.134-15.209a4.14 4.14 0 0 1-.495-2.723 4.2 4.2 0 0 1 1.334-2.436c6.342-6.928 12.519-14.044 19.402-21.843m-78.803 14.829c1.92 9.739 3.814 18.894 5.482 28.089.515 2.846 2.831 6.462.85 8.386-1.709 1.654-5.503-.685-8.42-.579-7.747.288-11.353-3.292-12.611-10.811-.739-4.414-1.066-7.47 2.633-10.889a149 149 0 0 0 12.066-14.196"/><path fill="#00A587" d="M121.58 160.673c0-5.47-.085-10.939.041-16.407.049-2.147-.559-2.872-2.878-2.947q-23.73-.773-47.45-1.874c-2.485-.114-3.465.58-3.993 2.996-2.44 11.187-5.21 22.309-7.593 33.51-.669 3.145-1.889 4.305-5.232 3.948a71 71 0 0 0-11.168-.254c-2.806.14-3.346-1.012-3.305-3.416.242-16.799.6-33.599.435-50.393a22.58 22.58 0 0 1 4.975-14.252c8.751-11.966 17.18-24.146 25.659-36.296a4.4 4.4 0 0 1 2.05-1.89 4.5 4.5 0 0 1 2.794-.298q47.418 4.991 94.871 9.67a12.2 12.2 0 0 1 5.5 2.07c18.825 12.036 37.617 24.115 56.537 36.005 2.831 1.772 2.909 2.785.188 4.388a5.5 5.5 0 0 0-1.545 1.221c-5.448 6.926-11.839 6.614-19.561 3.545-9.333-3.7-19.175-6.154-28.744-9.299a6.08 6.08 0 0 0-5.606.575 2057 2057 0 0 1-26.528 15.938 5.55 5.55 0 0 0-1.991 1.77 5.44 5.44 0 0 0-.92 2.48c-1.949 11.547-4.178 23.044-5.969 34.622-.515 3.317-1.717 4.368-5.068 4.138a113 113 0 0 0-12.779-.021c-2.525.112-3.171-.759-3.088-3.127.164-5.467.051-10.942.051-16.412z"/></svg>