<svg xmlns="http://www.w3.org/2000/svg" fill="none" viewBox="0 0 256 256"><g clip-path="url(#clip0_521_93)"><path fill="#FFD02F" d="M196 0H60C26.863 0 0 26.863 0 60v136c0 33.137 26.863 60 60 60h136c33.137 0 60-26.863 60-60V60c0-33.137-26.863-60-60-60"/><path fill="#050038" fill-rule="evenodd" d="M172.267 32H144l23.467 41.067L116.267 32H88l25.6 50.133L60.267 32H32l28.267 64L32 224h28.267l53.866-137.067L88 224h28.267L168 77.867 144.533 224H172.8L224 64z" clip-rule="evenodd"/></g><defs><clipPath id="clip0_521_93"><path fill="#fff" d="M0 0h256v256H0z"/></clipPath></defs></svg>