<svg xmlns="http://www.w3.org/2000/svg" fill="none" viewBox="0 0 256 256"><path fill="#282828" d="M196 0H60C26.863 0 0 26.863 0 60v136c0 33.137 26.863 60 60 60h136c33.137 0 60-26.863 60-60V60c0-33.137-26.863-60-60-60"/><path fill="#000" d="M167.982 49h31.745v31.746h-31.745z"/><path fill="#F7D046" d="M183.854 49H215.6v31.746h-31.746z"/><path fill="#000" d="M41 49h31.746v31.746H41zm0 31.746h31.746v31.745H41zm0 31.745h31.746v31.745H41zm0 31.745h31.746v31.746H41zm0 31.746h31.746v31.745H41z"/><path fill="#F7D046" d="M56.873 49h31.746v31.746H56.873z"/><path fill="#F2A73B" d="M183.855 80.745H215.6v31.746h-31.745zm-126.982 0h31.746v31.746H56.873z"/><path fill="#000" d="M136.236 80.745h31.746v31.746h-31.746z"/><path fill="#F2A73B" d="M152.109 80.745h31.746v31.746h-31.746zm-63.49 0h31.745v31.746H88.618z"/><path fill="#EE792F" d="M120.364 112.491h31.745v31.745h-31.745zm31.745 0h31.746v31.745h-31.746zm-63.49 0h31.745v31.745H88.618z"/><path fill="#000" d="M104.491 144.236h31.745v31.746h-31.745z"/><path fill="#EB5829" d="M120.364 144.236h31.745v31.746h-31.745z"/><path fill="#EE792F" d="M183.855 112.491H215.6v31.745h-31.745zm-126.982 0h31.746v31.745H56.873z"/><path fill="#000" d="M167.982 144.236h31.745v31.746h-31.745z"/><path fill="#EB5829" d="M183.854 144.236H215.6v31.746h-31.746z"/><path fill="#000" d="M167.982 175.982h31.745v31.745h-31.745z"/><path fill="#EB5829" d="M56.873 144.236h31.746v31.746H56.873z"/><path fill="#EA3326" d="M183.855 175.982H215.6v31.745h-31.745zm-126.982 0h31.746v31.745H56.873z"/></svg>