<svg xmlns="http://www.w3.org/2000/svg" fill="none" viewBox="0 0 256 256"><g clip-path="url(#clip0_164_560)"><path fill="#F4F2ED" d="M196 0H60C26.863 0 0 26.863 0 60v136c0 33.137 26.863 60 60 60h136c33.137 0 60-26.863 60-60V60c0-33.137-26.863-60-60-60"/><path fill="#F75D3C" d="M60.235 57.79a35 35 0 0 1 11.135-.914q33.965.04 67.901 0a19.46 19.46 0 0 1 18.216 11.626 19.076 19.076 0 0 1-18.216 26.3q-36.567-.042-73.133 0A19.08 19.08 0 0 1 46.73 77.873 18.656 18.656 0 0 1 60.235 57.79m123.979-.133a19.3 19.3 0 0 1 22.981 12.03 18.583 18.583 0 0 1-11.644 23.819A19.13 19.13 0 0 1 169.946 77.7a18.66 18.66 0 0 1 14.268-20.043m-74.399 53.69a52.3 52.3 0 0 1 11.158-.642c22.68.052 45.377 0 68.057.041a18.765 18.765 0 0 1 17.742 11.517 18.78 18.78 0 0 1-.031 14.586 18.77 18.77 0 0 1-10.462 10.163 18.8 18.8 0 0 1-7.33 1.277c-24.86 0-49.719.052-74.578 0a18.5 18.5 0 0 1-18.339-17.003 18.73 18.73 0 0 1 13.783-19.939m-48.574 51.586a42.6 42.6 0 0 1 7.62-.457c23.946.093 47.88-.04 71.814.064a18.8 18.8 0 0 1 13.314 5.967 18.83 18.83 0 0 1 5.048 13.689 19.08 19.08 0 0 1-18.5 17.882q-37.839.04-75.677 0a18.792 18.792 0 0 1-14.72-29.772 18.78 18.78 0 0 1 11.078-7.332zm121.695.434a19.44 19.44 0 0 1 24.068 11.198 19.107 19.107 0 1 1-37.104 6.359 18.39 18.39 0 0 1 13.036-17.557"/><path fill="#F93748" d="M60.212 111.156a19.208 19.208 0 0 1 23.426 25.42 19.2 19.2 0 0 1-16.411 12.114 19.21 19.21 0 0 1-18.057-9.489 19.294 19.294 0 0 1 3.616-23.757 19.3 19.3 0 0 1 7.426-4.288"/></g><defs><clipPath id="clip0_164_560"><path fill="#fff" d="M0 0h256v256H0z"/></clipPath></defs></svg>