<svg xmlns="http://www.w3.org/2000/svg" width="256" height="256" fill="none"><g clip-path="url(#clip0_85_110)"><path fill="#F4F2ED" d="M196 0H60C26.863 0 0 26.863 0 60v136c0 33.137 26.863 60 60 60h136c33.137 0 60-26.863 60-60V60c0-33.137-26.863-60-60-60"/><path fill="#A256F6" fill-rule="evenodd" d="M197.831 109.147c-.442.101-1.208.33-1.702.508-.493.179-1.575.699-2.405 1.156-.829.458-2.089 1.2-2.8 1.649s-1.885 1.222-2.609 1.717a90 90 0 0 0-6.332 4.855c-.715.61-1.94 1.682-2.723 2.383-.784.701-2.958 2.843-4.834 4.761s-4.052 4.228-4.838 5.133c-.785.906-1.972 2.296-2.638 3.091a180 180 0 0 0-2.908 3.609 206 206 0 0 0-3.189 4.191 244 244 0 0 0-2.646 3.672c-.636.906-2.028 2.986-3.094 4.623-1.066 1.636-2.39 3.754-2.942 4.706a68 68 0 0 0-1.833 3.419 68 68 0 0 0-1.254 2.702 63 63 0 0 0-1.043 2.767c-.34.965-.832 2.262-1.096 2.882a15.6 15.6 0 0 1-1.047 2.003c-.498.768-.804 1.049-2.483 2.286-1.053.776-2.42 1.716-3.038 2.089-.617.374-1.485.827-1.927 1.008s-1.344.474-2.005.652c-.66.177-1.674.351-2.253.386-.901.056-1.107.03-1.433-.182a1.95 1.95 0 0 1-.589-.693 2.5 2.5 0 0 1-.206-.87c0-.233.135-.994.301-1.691.165-.696.475-1.799.689-2.45a51 51 0 0 1 1.107-2.913c.395-.95 1.136-2.64 1.646-3.754.51-1.115.988-2.226 1.062-2.47.073-.243.169-.703.213-1.021s.021-.901-.051-1.296a6.7 6.7 0 0 0-.464-1.418c-.191-.397-.644-1-1.053-1.399-.402-.393-1.027-.841-1.419-1.018-.386-.175-1.154-.377-1.707-.449s-1.395-.095-1.872-.049c-.477.045-1.312.197-1.857.337s-1.452.451-2.016.689c-.563.239-1.745.832-2.626 1.318s-2.425 1.377-3.432 1.98-2.36 1.423-3.007 1.823-2.43 1.506-3.962 2.457c-2.398 1.489-2.803 1.701-2.91 1.525-.068-.113-.344-.557-.613-.987s-.854-1.157-1.3-1.614c-.493-.507-1.102-.978-1.554-1.204-.69-.344-.843-.37-2.166-.369-1.252.001-1.544.045-2.415.364-.544.199-2.076.803-3.404 1.343s-5.2 2.236-8.605 3.771-6.97 3.173-7.924 3.64-2.507 1.215-3.451 1.659c-.945.445-1.738.809-1.763.809s.464-.784 1.087-1.741c.622-.958 1.395-2.311 1.718-3.008.323-.696.656-1.571.74-1.944.084-.376.126-1.09.094-1.603-.045-.72-.157-1.138-.506-1.89a6 6 0 0 0-1.103-1.635c-.36-.368-.92-.828-1.245-1.022-.324-.195-.993-.496-1.485-.669-.641-.226-1.265-.334-2.196-.381-.962-.048-1.783.006-3.157.209-1.021.15-2.72.445-3.776.655s-2.922.637-4.148.95-2.991.794-3.923 1.069-2.548.807-3.59 1.183c-1.043.375-3.01 1.11-4.373 1.633a263 263 0 0 0-4.333 1.711 202 202 0 0 0-4.187 1.789c-1.28.567-3.39 1.537-4.685 2.158-1.296.62-3.508 1.752-4.914 2.515a154 154 0 0 0-4.662 2.648c-1.674 1.002-2.21 1.391-2.618 1.901a6 6 0 0 0-.79 1.38c-.158.423-.303 1.151-.337 1.697-.053.845-.024 1.03.257 1.596.174.352.593.895.931 1.205.37.341.87.65 1.26.778.354.117.889.213 1.188.213.316 0 1.074-.196 1.812-.469.698-.258 4.89-2.326 9.316-4.596 4.449-2.281 9.294-4.669 10.834-5.339a174 174 0 0 1 6.004-2.444c1.771-.677 3.944-1.506 4.83-1.841.884-.336 2.25-.814 3.033-1.062a74 74 0 0 1 3.095-.883c.92-.238 1.947-.473 2.284-.522.502-.073.59-.059.484.081l-3.28 4.348a2592 2592 0 0 0-4.761 6.332 411 411 0 0 0-2.998 4.07c-.764 1.055-1.513 2.195-1.664 2.533-.21.469-.274.841-.269 1.565.005.721.075 1.096.292 1.555.157.333.526.879.82 1.213s.862.787 1.263 1.005a8 8 0 0 0 1.462.596c.445.119 1.257.197 2.066.198.733.001 1.569-.062 1.857-.138s.831-.254 1.206-.393c.374-.139 1.099-.486 1.61-.77.51-.285 1.457-.861 2.104-1.28a823 823 0 0 0 6.19-4.14c2.758-1.858 5.99-3.977 7.182-4.71a122 122 0 0 1 3.714-2.194 60 60 0 0 1 2.724-1.422c.647-.309 1.872-.876 2.724-1.262a75 75 0 0 0 2.644-1.262c.603-.309 1.176-.531 1.272-.494a.5.5 0 0 1 .246.259c.04.107-.306.863-.8 1.744-.648 1.153-.984 1.932-1.304 3.019a31 31 0 0 0-.625 2.515c-.108.578-.195 1.379-.195 1.782 0 .402.095 1.037.211 1.41.16.515.392.864.96 1.441.415.423 1.057.914 1.443 1.104.383.188.968.405 1.3.482a4.3 4.3 0 0 0 1.252.059c.356-.045.973-.248 1.371-.451.423-.216 1.272-.884 2.042-1.606.725-.68 2.281-2.149 3.457-3.265a171 171 0 0 1 3.502-3.234c.749-.662 1.808-1.576 2.353-2.031.544-.455 1.798-1.452 2.785-2.216a99 99 0 0 1 3.962-2.864 83 83 0 0 1 4.02-2.553c1.019-.594 1.874-1.058 1.9-1.031.026.026-.098.864-.275 1.861a92 92 0 0 0-.514 3.27c-.105.801-.224 2.2-.264 3.11-.057 1.295-.028 1.861.133 2.602.113.521.37 1.302.571 1.736.2.435.545 1.059.766 1.388s.654.876.963 1.216.873.862 1.252 1.161 1.059.752 1.511 1.006a14 14 0 0 0 1.866.825c.574.2 1.399.432 1.832.516s1.428.151 2.211.148c.81-.003 1.803-.091 2.305-.203a15 15 0 0 0 1.671-.502c.435-.168 1.32-.576 1.967-.908.647-.331 2.067-1.1 3.157-1.709 1.09-.608 3.095-1.689 4.457-2.401 1.439-.753 2.685-1.322 2.974-1.36.426-.056.812.075 2.65.902 1.184.532 2.693 1.16 3.355 1.395s1.837.572 2.612.746 1.994.377 2.709.45c.715.072 2.22.167 3.343.211 1.124.044 3.158.017 4.519-.06a87 87 0 0 0 4.148-.337 77 77 0 0 0 3.429-.505c.966-.17 2.498-.503 3.405-.741s2.009-.559 2.452-.714c.443-.156 1.13-.449 1.527-.652a6.6 6.6 0 0 0 1.263-.879c.297-.28.605-.711.684-.956.08-.246.118-.768.087-1.161a6.4 6.4 0 0 0-.333-1.444c-.151-.401-.453-.923-.671-1.159a2.2 2.2 0 0 0-.95-.584c-.352-.098-.962-.128-1.669-.083-.613.039-1.866.218-2.786.398s-2.618.466-3.776.637a98 98 0 0 1-4.395.521c-1.36.125-3.499.211-5.262.212-1.635 0-3.358-.062-3.83-.138a6.5 6.5 0 0 1-1.672-.557c-.515-.265-.913-.573-1.088-.843a2.9 2.9 0 0 1-.357-.871c-.057-.307-.009-.625.155-1.03.182-.449.396-.693.915-1.045l2.843-1.919a100 100 0 0 0 4.024-2.883 111 111 0 0 0 3.157-2.513c.714-.6 1.996-1.717 2.848-2.483s3.252-3.131 5.334-5.255 4.591-4.775 5.576-5.89a349 349 0 0 0 3.088-3.546c.714-.835 1.746-2.061 2.293-2.722.548-.662 1.699-2.099 2.558-3.194.86-1.095 2.116-2.748 2.791-3.673s1.789-2.509 2.477-3.521a88 88 0 0 0 2.448-3.863c.658-1.112 1.574-2.82 2.036-3.795a48 48 0 0 0 1.396-3.292c.306-.836.683-2.061.837-2.723.189-.812.282-1.615.287-2.469.006-.998-.055-1.464-.285-2.195a8.6 8.6 0 0 0-.759-1.667c-.257-.407-.75-.968-1.095-1.248a6 6 0 0 0-1.341-.783c-.518-.201-1.066-.29-2.012-.324-.853-.032-1.577.015-2.105.137m-5.161 11.995a85 85 0 0 0-2.515 2.176c-.851.764-2.495 2.285-3.652 3.379s-3.331 3.263-4.829 4.821a286 286 0 0 0-4.279 4.541c-.855.94-2.299 2.564-3.209 3.608a272 272 0 0 0-3.592 4.243 260 260 0 0 0-3.675 4.559 206 206 0 0 0-3.222 4.242c-.819 1.114-1.775 2.475-2.125 3.024-.435.682-.636 1.127-.636 1.409 0 .226.074.475.166.553.092.077.336.176.542.218.246.05.562-.009.917-.172.304-.14 1.465-1.098 2.646-2.184a361 361 0 0 0 4.581-4.309c1.362-1.305 4.037-3.99 5.945-5.965s4.196-4.418 5.083-5.428 2.141-2.463 2.785-3.229 1.818-2.219 2.607-3.229a131 131 0 0 0 2.794-3.736 116 116 0 0 0 2.122-3.066 98 98 0 0 0 2.002-3.284c.754-1.289 1.239-2.253 1.239-2.461 0-.196-.084-.376-.196-.42a1.2 1.2 0 0 0-.364-.077c-.092 0-.603.354-1.135.787m16.366 23.099c-.204.03-.92.171-1.59.313-.67.143-1.78.458-2.465.703s-1.727.69-2.316.993c-.588.302-1.591.906-2.23 1.343-.638.437-1.737 1.362-2.442 2.056-.704.694-1.664 1.781-2.133 2.415a26 26 0 0 0-1.486 2.292c-.348.626-.85 1.708-1.116 2.406a25 25 0 0 0-.745 2.316 29 29 0 0 0-.442 2.28c-.1.677-.182 1.887-.182 2.69s.056 1.943.126 2.533.269 1.661.442 2.38c.174.719.542 1.887.82 2.596s.778 1.787 1.113 2.397a26 26 0 0 0 1.36 2.152c.413.575 1.316 1.615 2.008 2.312.691.696 1.744 1.618 2.34 2.049s1.68 1.094 2.411 1.476c.73.381 1.897.896 2.594 1.143.697.248 1.867.571 2.6.718s2.085.299 3.005.337c.975.041 2.161.008 2.847-.078.647-.082 1.59-.235 2.095-.342a21 21 0 0 0 2.043-.579 24 24 0 0 0 2.264-.941c.627-.305 1.72-.952 2.429-1.437.71-.485 1.851-1.428 2.538-2.096.686-.667 1.635-1.737 2.109-2.378a26 26 0 0 0 1.494-2.303c.348-.626.851-1.709 1.117-2.406.267-.697.597-1.682.734-2.188a26 26 0 0 0 .457-2.279c.164-1.064.194-1.855.141-3.639-.053-1.811-.13-2.553-.375-3.609-.169-.732-.428-1.7-.575-2.153-.148-.453-.627-1.564-1.064-2.469-.438-.906-1.167-2.175-1.62-2.82a23 23 0 0 0-1.912-2.3c-.598-.619-1.523-1.46-2.055-1.869a34 34 0 0 0-1.475-1.077c-.28-.184-1.06-.618-1.734-.963a23 23 0 0 0-2.358-1.025 25 25 0 0 0-2.29-.659c-.907-.206-1.695-.272-3.634-.304-1.362-.023-2.643-.017-2.848.014m7.181 8.666c-.681.05-3.383.097-6.005.106-4.768.014-4.768.014-5.49 5.935-.398 3.256-.751 6.024-.785 6.152-.059.221.025.228 1.651.14 1.714-.093 1.714-.093 2.272-.572a7.3 7.3 0 0 1 1.182-.798 6.6 6.6 0 0 1 1.238-.46 4.2 4.2 0 0 1 1.232-.058c.341.045.898.211 1.239.37.34.158.871.517 1.18.798s.727.816.929 1.189c.338.625.367.778.367 1.945 0 1.102-.042 1.356-.323 1.963a5.2 5.2 0 0 1-.865 1.239 5.5 5.5 0 0 1-1.225.88c-.558.275-.863.338-1.673.343-.873.006-1.069-.037-1.654-.369-.365-.207-.844-.592-1.066-.856-.221-.265-.672-.972-1.001-1.573-.375-.683-.741-1.179-.977-1.327a2.7 2.7 0 0 0-.768-.311c-.258-.05-.581.011-.956.181-.349.157-.663.417-.817.676a2.1 2.1 0 0 0-.251.899c0 .292.168.827.434 1.377.239.495.632 1.174.873 1.51s.718.869 1.06 1.183.91.739 1.263.944a9.4 9.4 0 0 0 1.508.652c.674.219 1.169.282 2.228.283.749.002 1.696-.067 2.105-.151.409-.085 1.263-.41 1.898-.722.874-.43 1.345-.762 1.934-1.365a6.4 6.4 0 0 0 1.227-1.734c.247-.515.539-1.305.649-1.756.152-.617.186-1.181.14-2.279-.045-1.062-.138-1.679-.34-2.265-.153-.443-.552-1.225-.887-1.737s-.871-1.164-1.191-1.449-1.084-.768-1.697-1.075c-.681-.34-1.448-.615-1.975-.707-.514-.09-1.344-.121-2.06-.076-.705.044-1.516.184-1.97.34-.424.147-.793.244-.819.218-.026-.027.032-.642.128-1.368.095-.725.211-1.704.257-2.174.082-.85.085-.854.413-.767.182.048 2.058.09 4.169.095 3.318.006 3.933-.023 4.537-.214.478-.151.818-.36 1.077-.662.209-.243.416-.645.462-.895s.054-.68.017-.957c-.036-.277-.133-.587-.216-.689-.101-.124-.359-.178-.785-.164-.349.012-1.192.062-1.873.112" clip-rule="evenodd"/></g><defs><clipPath id="clip0_85_110"><path fill="#fff" d="M0 0h256v256H0z"/></clipPath></defs></svg>