<svg xmlns="http://www.w3.org/2000/svg" width="256" height="256" fill="none"><path fill="#F4F2ED" d="M196 0H60C26.863 0 0 26.863 0 60v136c0 33.137 26.863 60 60 60h136c33.137 0 60-26.863 60-60V60c0-33.137-26.863-60-60-60"/><path fill="#8D6748" fill-rule="evenodd" d="m212.961 183.734-79.229 45.778a10.94 10.94 0 0 1-11.004 0L43.5 183.734c-3.413-1.984-5.5-5.615-5.5-9.464V82.725c0-3.96 2.091-7.484 5.5-9.464l79.233-45.777a10.94 10.94 0 0 1 11.004 0l79.229 45.777c3.413 1.985 5.504 5.616 5.504 9.465v91.501c-.111 3.853-2.202 7.484-5.504 9.464z" clip-rule="evenodd"/><path fill="#fff" d="M128.121 43.218a6.2 6.2 0 0 1 3.079.88l68.443 39.504a6.34 6.34 0 0 1 3.079 5.393V168a6.33 6.33 0 0 1-3.079 5.393L131.2 212.897c-.992.552-1.936.881-3.079.881a5.9 5.9 0 0 1-3.079-.881l-68.443-39.503a6.33 6.33 0 0 1-3.078-5.393V88.995a6.34 6.34 0 0 1 3.078-5.393l68.443-39.503c.993-.552 2.092-.881 3.079-.881m0-3.302c-1.646 0-3.301.484-4.729 1.322L54.949 80.74a9.34 9.34 0 0 0-4.73 8.142v79.007c0 3.413 1.762 6.487 4.73 8.142l68.443 39.504a9 9 0 0 0 4.729 1.321c1.651 0 3.302-.484 4.73-1.321l68.443-39.504a9.35 9.35 0 0 0 4.73-8.142v-79.01c0-3.413-1.762-6.487-4.73-8.143l-68.443-39.494a9 9 0 0 0-4.73-1.321zm9.731 48.963c0-.552-.484-1.1-1.099-1.1h-20.686c-.552 0-1.099.485-1.099 1.1 0 3.742.552 16.614 6.052 22.888.217.218.484.329.774.329h9.198a1 1 0 0 0 .775-.329c5.504-6.162 6.051-19.035 6.051-22.888zm-8.143 20.027h-6.487a1.01 1.01 0 0 1-.774-.329c-3.742-4.357-4.183-13.206-4.29-16.285 0-.552.485-1.1 1.099-1.1h14.524c.551 0 1.099.485 1.099 1.1 0 3.079-.552 11.773-4.29 16.285-.329.218-.552.329-.881.329m-1.21-23.334s3.96-2.309 1.539-6.487c-1.428-2.203-2.091-4.066-1.539-4.84-1.428 1.761-3.854 3.63-1.21 7.59.881.992 1.321 3.074 1.21 3.737m-4.357.33s2.643-1.54.992-4.358c-.992-1.428-1.428-2.75-.992-3.195-.992 1.21-2.532 2.42-.775 5.17.552.552.775 1.937.775 2.421z"/><path fill="#fff" d="M133.127 98.677c-.484 2.972-1.322 6.38-3.195 8.583-.218.218-.484.329-.658.329h-5.505c-.218 0-.552-.111-.658-.329-1.322-1.646-2.203-3.854-2.75-6.163 0 0 6.381.881 10.012-.484 2.643-.992 2.754-1.936 2.754-1.936M60.83 116.502h4.067l6.715 10.345 6.714-10.345h4.067v22.007h-3.854v-15.733l-6.927 10.301H71.5l-6.777-10.234v15.734h-3.854zm41.488 22.336a12.8 12.8 0 0 1-4.623-.881 10.5 10.5 0 0 1-3.63-2.42 10.3 10.3 0 0 1-2.31-3.631 11.7 11.7 0 0 1-.88-4.357v-.111c0-1.54.328-2.973.88-4.357a11.1 11.1 0 0 1 2.42-3.631 10.5 10.5 0 0 1 3.632-2.421c1.428-.658 2.972-.881 4.623-.881 1.582.005 3.15.304 4.623.881a10.5 10.5 0 0 1 3.631 2.421 10.25 10.25 0 0 1 2.309 3.631c.552 1.321.881 2.904.881 4.357v.111c0 1.539-.329 2.972-.881 4.357a11.1 11.1 0 0 1-2.42 3.631 10.5 10.5 0 0 1-3.631 2.42c-1.428.659-2.973.881-4.624.881m0-3.519q1.65.001 2.973-.659a8.8 8.8 0 0 0 2.309-1.65c.658-.659 1.099-1.54 1.54-2.421a9.3 9.3 0 0 0 .551-2.972v-.112c0-1.099-.217-2.091-.551-3.079a7.45 7.45 0 0 0-1.54-2.531 8.8 8.8 0 0 0-2.309-1.651c-.881-.484-1.869-.659-2.973-.659a6.5 6.5 0 0 0-2.972.659 8.8 8.8 0 0 0-2.31 1.651c-.657.658-1.098 1.539-1.539 2.42a9.3 9.3 0 0 0-.552 2.972v.112c0 1.099.218 2.091.552 3.079a7.5 7.5 0 0 0 1.54 2.532 8.8 8.8 0 0 0 2.31 1.65 7 7 0 0 0 2.971.659m30.151 3.519a11.2 11.2 0 0 1-4.406-.881c-1.326-.552-2.532-1.428-3.519-2.42a10.25 10.25 0 0 1-2.309-3.631c-.552-1.428-.881-2.905-.881-4.357v-.111c0-1.54.329-3.079.881-4.357a12.7 12.7 0 0 1 2.309-3.631 10.5 10.5 0 0 1 3.631-2.421c1.47-.587 3.04-.886 4.623-.881.992 0 1.869.112 2.75.218l2.309.658c.658.33 1.321.659 1.868 1.099l1.646 1.428-2.531 2.905a13.6 13.6 0 0 0-2.75-1.936 7.26 7.26 0 0 0-3.413-.775 6.1 6.1 0 0 0-2.861.658 8.8 8.8 0 0 0-2.309 1.651c-.659.659-1.099 1.54-1.54 2.421a9.3 9.3 0 0 0-.552 2.972v.112c0 1.099.218 2.091.552 3.079a7.45 7.45 0 0 0 1.54 2.531c.658.659 1.428 1.322 2.309 1.646.881.325 1.868.659 2.904.659 1.322 0 2.532-.218 3.413-.775a20.7 20.7 0 0 0 2.861-2.091l2.532 2.532c-.552.658-1.099 1.099-1.762 1.646s-1.321.881-1.936 1.21a8.4 8.4 0 0 1-2.309.775c-.993.217-1.937.217-2.973.217zm16.726-22.336h3.853v9.135h10.563v-9.135h3.854v22.007h-3.854v-9.198h-10.573v9.198h-3.853zm35.32-.112h3.52l9.682 22.124h-4.067l-2.203-5.325h-10.345l-2.309 5.325h-3.96zm5.5 13.425-3.743-8.802-3.742 8.802zM58.081 145.442h140.294v1.21H58.081zm140.294-41.372h-59.642c0 .484-.111.774-.111 1.21h59.748zm-140.294 0v1.21h56.229c0-.484-.112-.775-.112-1.21z"/></svg>