<svg xmlns="http://www.w3.org/2000/svg" width="256" height="256" fill="none"><path fill="#850000" d="M196 0H60C26.863 0 0 26.863 0 60v136c0 33.137 26.863 60 60 60h136c33.137 0 60-26.863 60-60V60c0-33.137-26.863-60-60-60"/><path fill="#F1F1F1" d="M36.15 153.267c-1.563.411-3.795 1.699-4.85 2.813l-1.036 1.047-.289-3.688h-3.823l-.087 13.368L26 180.202h4.351l.124-8.711c.144-9.831.318-10.764 2.176-12.665 1.352-1.375 3.47-2.141 5.321-1.93 1.56.172 2.647.874 3.47 2.276.556.941.585 1.612.68 11.003l.087 10.027h4.35l.088-9.296c.087-8.92.116-9.333.736-10.505 2.264-4.179 8.236-4.821 10.201-1.106.593 1.106.622 1.721.71 11.024l.114 9.883H62.5l-.093-10.908-.086-10.882-.826-1.546c-1.821-3.455-6.853-4.8-11.025-2.985-.679.296-1.972 1.259-2.883 2.103-1.525 1.44-1.677 1.527-1.995.999-.766-1.316-2.032-2.487-3.298-3.102-1.503-.673-4.677-1.02-6.145-.614"/><path fill="#F1F1F1" d="M72.788 153.294c-3.557.759-6.998 3.303-8.35 6.231-2.09 4.418-2.003 10.766.203 15.06 2.24 4.388 8.032 6.903 13.294 5.82 7.18-1.517 10.527-6.522 10.027-14.972-.087-1.462-.353-3.304-.614-4.15-.998-3.188-3.881-6.174-7.12-7.375-1.91-.729-5.497-1.018-7.44-.614m6.03 4.216c3.146 1.46 4.676 4.475 4.649 9.239-.03 4.83-1.44 7.836-4.383 9.333-1.973 1.018-5.261 1.047-7.092.115-1.258-.672-2.761-2.197-3.47-3.543-1.323-2.544-1.38-8.48-.115-11.197 1.41-3.072 3.739-4.591 6.998-4.621 1.418-.028 2.299.145 3.413.674m19.823-4.129c-2.092.614-3.356 1.316-4.562 2.545-.644.644-1.266 1.171-1.38 1.171-.117 0-.232-.846-.232-1.901v-1.93l-1.829.085-1.85.087-.087 13.368-.06 13.396h4.41v-8.421c.03-8.893.174-10.353 1.352-12.11.825-1.288 3.03-2.517 4.974-2.776 2.791-.383 5.647 1.229 6.291 3.563.209.738.324 4.562.324 10.447v9.297h4.44l-.087-10.468-.087-10.438-.766-1.642c-.883-1.843-2.205-3.044-4.294-3.86-1.823-.704-4.851-.905-6.557-.413m21.463-.115c-4.438.968-7.583 4.331-8.819 9.391-.557 2.248-.47 6.52.144 8.624 1.801 6.204 5.799 9.276 11.59 8.865 2.233-.176 4.177-.935 5.674-2.25.999-.881 1.092-.911 1.266-.354.296.963-.174 4.734-.739 6.022-1.112 2.517-3.318 3.657-7.027 3.657-3.318-.027-5.559-1.258-6.087-3.39-.144-.555-.44-.702-1.525-.851a22 22 0 0 1-2.032-.321c-.614-.114-.679-.027-.679 1.115.029 2.805 2.147 5.263 5.559 6.435 1.505.527 2.59.671 4.881.671 5.298 0 8.942-1.873 10.706-5.472 1.323-2.662 1.533-5.762 1.438-19.975l-.087-11.993h-3.823l-.087 1.525c-.058.846-.174 1.547-.259 1.547-.095 0-.622-.407-1.209-.905-2.234-1.958-6.059-2.955-8.885-2.341m5.798 4.272c.825.44 1.88 1.228 2.321 1.813 3.296 4.296 2.674 13.159-1.148 15.905-3.733 2.697-8.939 1.229-10.789-3.007-.944-2.167-1.177-7.077-.439-9.737.555-2.141 2.139-4.186 3.94-5.119 1.583-.851 4.229-.796 6.115.145m18.465-4.128c-2.438.702-3.174 1.055-4.794 2.284-3.146 2.343-4.612 5.936-4.584 11.197 0 3.833.587 6.146 2.177 8.606 2.119 3.244 5.733 5.06 10.142 5.09 5.089.027 9.116-2.229 11.148-6.234l1.027-2.045.911 1.871c3.326 6.992 13.736 8.684 19.649 3.247.94-.852 1.968-2.046 2.264-2.603.325-.584.642-1.054.729-1.054.094 0 .413.614.709 1.402 1.475 3.513 5.119 5.443 10.323 5.414 3.03 0 5.264-.555 7.296-1.844 1.206-.758 3.144-2.927 3.144-3.542 0-.115.144-.585.326-1.018l.288-.825.852 1.467c3.683 6.435 13.947 7.866 19.529 2.747 1.443-1.344 3.411-4.821 2.942-5.262-.146-.144-1.143-.383-2.235-.499l-1.936-.26-.478.991c-1.323 2.746-3.201 4.127-6.052 4.358-4.502.413-7.886-2.371-8.768-7.134-.145-.846-.204-1.612-.117-1.699s4.649-.145 10.114-.145h9.941v-1.577c0-2.024-.384-4.012-1.2-6.174-.947-2.517-3.823-5.321-6.44-6.288-2.828-1.055-6.739-.991-9.53.144-4.676 1.901-7.504 6.644-7.532 12.52v2.017l-1.172-1.025c-1.266-1.049-3.794-2.075-7.793-3.124-4.475-1.171-5.972-1.758-6.766-2.667-.853-1.02-.911-1.691-.296-2.863.679-1.345 2.557-2.075 5.356-2.075 3.201 0 4.641.73 5.676 2.834.585 1.199.851 1.49 1.321 1.403a34 34 0 0 1 1.995-.289c1.649-.204 1.773-.644.681-2.957-1.44-3.073-4.765-4.649-9.731-4.62-2.328.028-3.296.144-4.677.702-3.001 1.141-4.706 3.159-5.148 6.114l-.209 1.346-.911-1.758c-4.584-8.776-18.233-8.595-22.318.29l-.737 1.612-1.027-2.045q-1.943-3.862-6.087-5.445c-2.443-.932-5.855-1.171-8.002-.585m6.557 4.157c3.028 1.49 4.532 4.535 4.532 9.18-.029 6.435-3 10.238-8.002 10.238-3.06 0-5.617-1.699-6.998-4.59-.731-1.577-.796-1.96-.796-5.646 0-4.301.326-5.525 2.031-7.52 2.032-2.393 6.203-3.152 9.233-1.662m23.408-.326c1.418.585 3.326 2.344 4.005 3.659 1.295 2.516 1.497 7.779.442 10.851-.592 1.727-2.206 3.628-3.768 4.388-2.646 1.346-6.47.903-8.645-.999-3.586-3.128-4.027-11.898-.768-15.672 2.032-2.4 5.941-3.361 8.734-2.227m45.524.123c2.328.992 4.062 3.362 4.149 5.668l.058 1.229H209.07l.087-.875c.202-2.458 1.906-4.764 4.323-5.963 1.583-.796 4.612-.827 6.376-.059m-33.992 8.272c1.177 1.083 2.826 1.727 8.06 3.128 2.494.674 4.88 1.47 5.293 1.758 2.53 1.814 1.206 5.321-2.358 6.174-2.117.491-4.997.232-6.702-.644-1.178-.585-1.532-.997-2.263-2.544l-.881-1.814-3.47.346.204-1.373c.085-.759.179-2.776.179-4.475v-3.102l.555.883a9.7 9.7 0 0 0 1.383 1.663M137.521 65.153c-2.684.11-7.201.825-7.201 1.129 0 .13 3.188 1.721 3.427 1.721.232 0 3.933 1.85 4.749 2.363 1.077.685 1.844 1.309 1.62 1.309-.145 0-3.948-1.468-5.386-2.091-1.172-.498-6.045-1.944-8.423-2.508-1.279-.296-1.821-.411-4.005-.809-3.224-.592-7.005-.622-8.661-.08-2.356.767-2.884 1.707-2.884 5.183 0 1.91.093 2.726.513 4.447.174.751.687 2.393.933 2.95.065.172.289.714.477 1.2.195.477.774 1.706 1.287 2.71 2.868 5.69 7.164 10.439 13.223 14.617 1.906 1.309 7.107 3.796 9.187 4.39.529.145.709.448.276.448-.485 0-4.873-1.216-5.776-1.599a18 18 0 0 0-1.042-.411c-3.122-1.266-7.114-3.86-10.418-6.81a34.1 34.1 0 0 1-8.487-11.597c-1.264-2.854-2.125-6.187-2.334-9.087-.13-1.654-.259-2.06-.694-2.038-.145 0-1.505-.052-3.017-.13-4.083-.173-9.68.275-15.21 1.23C79.093 73.489 67.677 77.653 55.923 84a148 148 0 0 0-5.793 3.297c-.222.13-.925.555-1.567.962-.642.396-1.396.846-1.67 1.018-.607.348-7.323 4.91-8.124 5.515-.306.226-1.144.848-1.845 1.353-3.19 2.365-10.135 8.025-10.533 8.597-.196.289.107.433.528.289.209-.08.751-.187 1.184-.254.45-.065 1.607-.368 2.567-.685a82 82 0 0 1 2.328-.703c2.371-.555 3.332-.751 4.729-.953.622-.087 1.555-.224 2.082-.304 6.514-.962 9.622-1.201 12.52-.977 6.305.515 12.333 1.577 15.783 2.806 2.58.925 7.836 3.766 10.15 5.472 1.33 1.005 5.626 5.279 6.57 6.571.74 1.021 1.554 1.91 1.75 1.91.058 0 .145-3.254.16-7.222l.044-7.209 8.436-.05c6.636-.029 8.48.023 8.596.167.159.204.543.888 1.807 3.231a284 284 0 0 0 2.169 3.991c.188.347.636 1.178 1.012 1.828.346.659 1.005 1.866 1.453 2.697.448.832.818 1.532.818 1.562 0 .144.657 1.005.773 1.005.065 0 .222-.239.334-.506.129-.29.468-.925.736-1.403.289-.484.801-1.425 1.157-2.074.353-.659.838-1.562 1.092-1.995.707-1.259 1.443-2.632 2.052-3.746.304-.578.789-1.468 1.07-1.995.289-.528.709-1.272.933-1.677q.245-.477.549-.918c.123-.144 2.018-.196 8.849-.167l8.676.05.043 14.084c.037 11.097.079 14.06.246 14.06.092-.014.736-.383 1.395-.845.925-.65 1.329-1.048 1.756-1.786.983-1.67 3.752-4.301 5.617-5.321a26.5 26.5 0 0 1 7.215-2.71c2.567-.542 3.318-.621 9.138-.832 10.627-.369 12.204-.434 12.284-.513.042-.045-.102-.463-.304-.94-.224-.463-.614-1.324-.883-1.894-1.012-2.191-1.012-2.92.045-3.992.722-.744 2.58-1.401 5.774-2.037.529-.117 1.186-.254 1.462-.356.267-.077.607-.137.752-.137.397 0 3.592-.788 4.266-1.04.462-.188 2.963-.731 5.948-1.308 1.295-.254 4.664-.926 7.454-1.483 1.764-.348 3.608-.716 4.085-.81.485-.1 1.172-.237 1.525-.304.354-.079.816-.172 1.042-.209.222-.05 1.351-.266 2.486-.505 1.156-.246 2.306-.463 2.581-.5.802-.079 6.846-1.532 8.242-1.973 2.211-.721 2.868-1.005 4.266-1.945 1.51-1.027 1.922-1.584 3.41-4.547 1.657-3.304 1.896-3.86 2.358-5.249.722-2.211.679-3.057-.24-3.983-.635-.636-2.016-1.295-3.028-1.44-.752-.092-.846-.064-1.222.341-.224.239-.412.52-.412.622 0 .137-.259.846-.976 2.567-.064.172-.209.607-.325.953q-.168.568-.398 1.114c-.209.448-.222.369-.145-.875.08-1.229.291-2.264.754-3.824.079-.303.194-.818.236-1.136l.08-.57-1.662-.672a216 216 0 0 1-4.09-1.721q-.8-.318-1.606-.622a27 27 0 0 1-1.648-.659 52 52 0 0 0-1.684-.7c-1.079-.412-4.83-1.683-8.019-2.69a920 920 0 0 0-6.413-1.93 64 64 0 0 1-2.239-.623c-.261-.064-.883-.236-1.368-.368-2.818-.78-3.557-.975-4.569-1.258a30 30 0 0 0-1.684-.448c-.304-.08-1.135-.274-1.844-.448-1.236-.303-6.413-1.495-9.216-2.132q-1.004-.237-2.01-.463a36 36 0 0 0-1.44-.288 68 68 0 0 1-2.003-.398 141 141 0 0 0-3.129-.58q-1.402-.25-2.806-.49c-4.423-.796-4.729-.846-12.666-1.721-4.894-.555-11.466-1.018-13.07-.94-.254 0-1.677.064-3.137.144m-18.537 7.858c4.229 1.375 8.35 3.239 11.177 5.053 2.241 1.454 5.032 3.768 5.783 4.802l.326.433-.615-.238c-.333-.145-1.042-.448-1.569-.702-2.819-1.308-3.122-1.425-3.122-1.134 0 .08.657 1.134 1.438 2.313.803 1.192 1.445 2.249 1.445 2.341 0 .08-.303-.05-.672-.303-1.445-.99-4.83-2.406-5.024-2.117-.043.08.999 1.402 2.328 2.95 1.314 1.547 2.406 2.868 2.406 2.963 0 .24-.259.209-1.473-.24-1.251-.447-1.577-.49-1.577-.194 0 .21 2.711 3.861 3.788 5.127.304.346.542.68.542.759 0 .383-3.751-2.055-6.412-4.159-3.802-3.028-7.475-7.1-9.413-10.46-1.582-2.747-2.132-4.229-2.132-5.856 0-.955.05-1.15.405-1.48.204-.226.463-.4.555-.4.102 0 .898.24 1.816.542m50.621 5.678c1.54.274 3.635.635 4.647.816 1.013.174 2.242.383 2.726.463.478.093 1.172.224 1.525.303.348.08 1.042.217 1.518.334 1.592.346 1.975.425 4.571 1.034 2.789.657 3.396.78 4.25.96.721.138 1.445.413 1.445.543 0 .043-.535.348-1.17.68-1.316.658-1.591.703-7.007.91-3.694.159-5.659.116-7.458-.172-3.624-.557-5.497-1.577-6.957-3.781-.513-.754-.851-.97-2.023-1.274-.435-.13-1.092-.303-1.44-.418-.353-.11-.962-.283-1.351-.398-1.149-.303-.492-.477 1.829-.477 1.605 0 2.726.109 4.895.477m19.285 22.279a.95.95 0 0 1-.404 0c-.109-.052-.029-.079.195-.079s.303.027.209.079m-.694.187c0 .08-.187.196-.433.241-.493.129-2.451.685-3.095.895-.222.08-.94.304-1.597.491-1.656.477-5.661 1.786-6.737 2.199-2.017.766-6.768 3.288-7.44 3.953-.99.977-1.301 2.032-1.156 4.042.05.838.166 1.908.259 2.371.189 1.004.079 1.28-.304.781-.388-.491-1.206-2.277-1.445-3.152-.13-.406-.274-.926-.354-1.185-.29-.905-.174-1.974.274-2.631.607-.926 2.791-2.408 5.358-3.637 1.214-.587 4.757-1.801 8.018-2.756.657-.194 1.373-.418 1.597-.476 2.313-.781 7.055-1.532 7.055-1.136m-50.714 1.072c-.043.042-.189.064-.304.013-.129-.05-.079-.093.093-.093.181-.015.278.028.211.078z"/><path fill="#F1F1F1" d="M103.86 133.068v11.16h7.988c5.995 0 8.032-.05 8.177-.195.24-.238.29-22.129.051-22.129-.079 0-.196.124-.246.269-.057.144-1.808 2.868-3.895 6.057-3.298 5.04-4.216 6.269-4.216 5.647 0-.11-5.466-8.64-6.861-10.699a6 6 0 0 1-.5-.846c-.129-.241-.289-.426-.368-.426-.065 0-.13 5.025-.13 11.162"/></svg>