<svg xmlns="http://www.w3.org/2000/svg" width="256" height="256" fill="none"><rect width="256" height="256" fill="#022384" rx="50"/><g fill="#fff" clip-path="url(#clip0_10_2)"><path d="M94.177 115.629c-2.898-3.251-6.482-4.887-10.742-4.887-2.626 0-5.044.512-7.267 1.547a17.8 17.8 0 0 0-5.764 4.231c-1.612 1.803-2.887 3.896-3.824 6.323-.937 2.416-1.405 5.032-1.405 7.86 0 2.772.436 5.299 1.296 7.581.872 2.271 2.081 4.219 3.65 5.844q2.353 2.439 5.59 3.808 3.234 1.37 7.092 1.369c1.166 0 2.244-.089 3.225-.256s1.917-.445 2.81-.824a16.3 16.3 0 0 0 2.637-1.469c.861-.601 1.765-1.358 2.702-2.26v9.652h-.01v.935H82.268l-8.945 10.287v1.77h33.568v-55.385H94.177zm-.032 17.69a9.4 9.4 0 0 1-1.754 2.694 7.8 7.8 0 0 1-2.593 1.792 8 8 0 0 1-3.193.646c-1.176 0-2.266-.212-3.268-.646a7.8 7.8 0 0 1-2.604-1.792c-.73-.768-1.297-1.67-1.722-2.694-.424-1.025-.632-2.149-.632-3.34 0-1.147.218-2.227.665-3.229a8.4 8.4 0 0 1 1.798-2.615 9.1 9.1 0 0 1 2.593-1.793 7.4 7.4 0 0 1 3.16-.679c1.078 0 2.113.212 3.126.646a8 8 0 0 1 2.637 1.792 9.2 9.2 0 0 1 1.798 2.649c.446 1.002.664 2.105.664 3.307a8.3 8.3 0 0 1-.675 3.262M58.703 116.23a13.8 13.8 0 0 0-2.255-2.137 13.2 13.2 0 0 0-2.342-1.414 11 11 0 0 0-1.275-.49c-.643-.211-1.34-.356-2.06-.478h-9.064l-5.992 6.98v-6.836H23v36.827h12.715v-24.848h11.941l.991-.022v24.859h12.715v-23.034q0-2.939-.556-5.243c-.37-1.525-1.068-2.906-2.103-4.164m85.58-4.475h-13.869l-5.513 6.345v-6.345h-12.726v36.826h12.748l.011-24.647h9.25l10.099-11.667zm68.706 17.01 17.389-16.387v-.623h-16.757l-13.335 13.281V89h-12.715v59.57h12.715v-14.995l13.978 14.995h17.108v-.701zm-35.355-12.813c-1.94-1.748-4.238-3.106-6.886-4.086-2.647-.979-5.513-1.469-8.607-1.469-3.138 0-6.036.501-8.673 1.503-2.647 1.002-4.924 2.382-6.853 4.119a18.8 18.8 0 0 0-4.499 6.178c-1.079 2.371-1.613 4.921-1.613 7.648 0 3.017.534 5.756 1.613 8.216 1.078 2.461 2.56 4.576 4.467 6.346 1.895 1.77 4.151 3.139 6.776 4.097 2.626.957 5.481 1.436 8.575 1.436 3.138 0 6.047-.479 8.749-1.436 2.691-.958 5.001-2.305 6.918-4.064a19.05 19.05 0 0 0 4.533-6.245c1.1-2.416 1.656-5.077 1.656-8.004 0-2.917-.545-5.589-1.613-8.005a18.7 18.7 0 0 0-4.543-6.234m-7.943 17.433a9.4 9.4 0 0 1-1.754 2.695 7.8 7.8 0 0 1-2.593 1.792 8 8 0 0 1-3.192.646 8.05 8.05 0 0 1-3.203-.646c-1.003-.434-1.874-1.024-2.593-1.792-.73-.769-1.308-1.67-1.754-2.695-.447-1.024-.665-2.159-.665-3.406 0-1.147.218-2.227.665-3.229a9.3 9.3 0 0 1 1.754-2.649 7.6 7.6 0 0 1 2.593-1.793 8 8 0 0 1 3.203-.645c1.122 0 2.19.211 3.192.645a7.5 7.5 0 0 1 2.593 1.793c.73.768 1.308 1.67 1.754 2.694a8.1 8.1 0 0 1 .665 3.262c0 1.191-.218 2.304-.665 3.328"/></g><defs><clipPath id="clip0_10_2"><path fill="#fff" d="M23 89h210v78.139H23z"/></clipPath></defs></svg>