<svg xmlns="http://www.w3.org/2000/svg" fill="none" viewBox="0 0 256 256"><path fill="#282828" d="M196 0H60C26.863 0 0 26.863 0 60v136c0 33.137 26.863 60 60 60h136c33.137 0 60-26.863 60-60V60c0-33.137-26.863-60-60-60"/><path fill="#90E59A" d="M82.641 83.004c5.384-5.325 13.11-6.783 20.14-9.002 8.043-.444 16.086 2.029 23.37 5.389 3.166 1.267 2.976 5.008 3.673 7.86-2.28.508-4.56.952-6.84 1.522a190 190 0 0 0 2.913-4.691c-.063-1.522-1.836-2.092-2.723-3.17l-3.61 2.472-2.47-2.092c-2.216.317-4.623.634-6.713-.57-3.547-1.585-7.347-2.79-11.273-2.41-1.773.761-3.167 2.156-4.624 3.36 0-.633.064-1.901.064-2.535-.823.95-1.647 1.902-2.407 2.916-5.446.57-7.98 6.213-6.776 11.095-1.14.887-2.344 1.838-3.484 2.726 1.267-2.473 2.344-5.199.887-7.861-4.053 1.204-4.37 5.642-6.207 8.812-1.9 3.486-5.13 6.149-6.65 9.826-.126 2.029.19 3.994.38 6.023-1.52-.444-3.04-.824-4.496-1.268 3.8-10.334 8.423-20.985 16.846-28.402"/><path fill="#5CCE74" d="M94.484 81.737c1.52-1.205 2.85-2.663 4.624-3.36 3.926-.38 7.726.824 11.273 2.409a28.6 28.6 0 0 1-2.28 6.403c-3.04-1.585-6.08-3.297-8.93-5.135l1.71 3.423c-.633.888-1.33 1.712-1.963 2.6-1.267-1.649-2.534-3.297-3.737-5.009-.443 2.473-2.28 4.311-4.813 2.916.57-1.33 1.14-2.599 1.71-3.867.76-1.014 1.583-1.965 2.406-2.916.064.57 0 1.839 0 2.536"/><path fill="#75D66F" d="M110.381 80.722c2.09 1.205 4.434.888 6.714.57l2.469 2.093 3.61-2.473c.824 1.078 2.66 1.649 2.724 3.17-.887 1.585-1.9 3.17-2.914 4.692-.57.126-1.71.38-2.216.57 1.14 1.395 2.28 2.79 3.42 4.12-4.813.255-8.297-3.042-11.97-5.451-3.357.507-5.763 4.12-9.247 4.501-1.71-.76-3.293-1.775-4.876-2.79-.57 1.839-.95 3.74-2.027 5.326-1.583 1.078-3.61 1.078-5.446 1.585.063.824.19 1.712.253 2.536-1.963-1.902-4.37-3.677-7.157-2.41 2.027 2.093-1.013 2.917-2.406 3.868-2.724 1.521-5.763 3.487-6.08 6.91-.76 1.965.063 5.008-2.153 6.086-2.597.697-5.257.254-7.854.19.19-.634.507-1.838.697-2.472 1.52.444 3.04.824 4.497 1.268-.254-2.029-.57-3.994-.38-6.023 1.52-3.677 4.75-6.34 6.65-9.826 1.836-3.17 2.153-7.608 6.206-8.813 1.457 2.663.38 5.39-.887 7.862a73 73 0 0 1 3.484-2.727c-1.204-4.881 1.33-10.523 6.776-11.094-.57 1.268-1.14 2.6-1.71 3.867 2.47 1.395 4.37-.444 4.813-2.916 1.204 1.712 2.47 3.36 3.737 5.008a71 71 0 0 1 1.963-2.599l-1.71-3.423c2.914 1.838 5.89 3.486 8.93 5.135.824-1.902 1.584-4.058 2.09-6.34m-25.27 40.32a95 95 0 0 1 4.117.825c-1.583 4.247-3.8 8.558-3.546 13.25.823 3.043 3.356 5.325 5.256 7.797-2.786.825-6.65.191-8.55 2.79-1.14 5.072 3.484 7.988 6.46 11.094-4.306-1.585-9.12-3.867-10.64-8.622 2.09-2.599 4.687-4.691 7.41-6.72-3.926-5.959-5.636-14.708-.506-20.414m43.89 10.715c1.013.887 2.09 1.775 3.103 2.599.127 1.712.254 3.487.317 5.198-1.773-2.282-3.357-4.754-3.42-7.797m26.98 1.331c1.076-1.522 2.913-1.395 4.053-.064 2.153 2.79 3.357 6.087 4.813 9.256 1.837.127 3.673.254 5.447.381-3.61 1.331-7.03 3.36-7.537 7.544-1.52-2.156.697-4.121 1.584-6.086-2.027-4.248-6.967-6.403-8.36-11.031m-51.68 2.726 1.077-.571c.19 2.853 1.52 6.15-.57 8.559-2.09-.19-4.117-.317-6.143-.697 2.723-1.776 4.75-3.994 5.636-7.291m28.12 3.804c1.52 2.028 3.23 3.804 5.13 5.452 2.027-2.346 6.523-6.086 8.36-1.648-3.04 1.458-6.84 2.535-7.853 6.212 0 .127-.064.317-.064.444.444 3.233 1.647 6.34 2.597 9.446-6.967-4.501-2.787-14.201-8.17-19.906m37.873.887c2.976.317 6.143 1.015 8.423 3.234-2.85-.191-5.763-.064-8.423-1.078zm-7.473 16.357c3.609 1.585 7.156 3.296 10.956 4.564 2.153-.887 5.193-5.642 6.967-2.155-2.787 2.536-6.65 5.135-10.577 4.247-3.04-1.458-5.003-4.374-7.346-6.656m-100.509.57c.697.127 2.027.317 2.787.381 3.04 7.037 3.166 15.215 7.346 21.808 2.407 3.931 4.37 8.051 6.65 12.045 2.407 4.121 6.397 6.911 10.133 9.764 7.98 5.895 21.153 5.008 26.79-3.677 3.61-7.735-.887-15.913-3.99-23.013-5.32-8.369-19.19-2.029-18.81 7.1-1.583-9.066 10.007-16.737 17.733-12.109 5.51 3.55 7.03 10.27 9.183 16.04 2.534 6.91-1.203 15.088-7.726 18.131-5.067 3.233-11.273 1.965-16.91 1.965-7.726-.38-12.73-6.656-17.733-11.665-4.877-5.959-8.043-13.059-11.843-19.779-2.027-5.389-3.167-11.158-3.61-16.991m41.039 23.203c.887 1.015 1.584 2.156 2.47 3.234-2.153 2.789-5.636 2.662-8.74 2.219-1.266-1.395-2.596-2.79-3.863-4.185 3.04 1.839 6.46 5.579 10.26 3.234-.127-1.522-.127-2.98-.127-4.502"/><path fill="#8FE772" d="M102.845 92.514c3.483-.38 5.89-3.994 9.246-4.501 3.737 2.472 7.22 5.705 11.97 5.452-1.14-1.395-2.28-2.79-3.42-4.121.57-.127 1.71-.444 2.217-.57 2.28-.571 4.56-1.015 6.84-1.522.57 2.155 1.14 4.374 1.837 6.53-1.077 1.078-2.154 2.219-3.294 3.296 2.344 3.234 4.497 6.657 6.84 9.89 4.877-1.331 7.98 3.36 10.133 7.037-4.37-.253-9.31-.317-12.729-3.486-2.09-1.902-4.117-3.868-6.334-5.706l-3.99 1.141c-1.076-2.599-1.71-6.023-5.003-6.657.253 1.332.57 2.6.823 3.931-1.963 1.141-4.116 1.648-6.333 1.014.887-1.838 1.837-3.613 2.787-5.452-2.724-.253-4.307 2.092-5.827 3.931-.316-.951-.633-1.902-.886-2.853-1.014-.127-1.964-.38-2.977-.444-1.457.317-2.027 2.409-3.61 2.473-2.597-.254-5.067-1.332-7.727-1.459-3.166.444-6.143 1.839-9.246 2.727-1.013-.825-2.09-1.649-3.103-2.473 1.393-1.014 4.496-1.775 2.406-3.867 2.85-1.268 5.194.507 7.157 2.409-.064-.824-.19-1.712-.254-2.536 1.837-.444 3.8-.507 5.447-1.585 1.077-1.585 1.457-3.55 2.027-5.325 1.71.95 3.293 1.965 5.003 2.726"/><path fill="#A9F37E" d="M128.305 97.078c1.077-1.078 2.153-2.219 3.293-3.297 1.077 3.233 2.47 6.53 5.193 8.686 4.56 3.486 9.31 7.29 15.01 8.622 5.067.951 10.64.38 15.01-2.536 3.8-3.424 5.573-8.432 9.5-11.729 3.673 1.839 7.79 2.663 11.336 4.755 3.674 2.346 5.447 6.53 7.664 10.144-2.407.443-4.75.95-7.157 1.458a182 182 0 0 0 2.787 4.628c-.634.951-1.267 1.902-1.837 2.916a277 277 0 0 1-3.483-5.706c-2.597.634-5.067 1.648-7.284 3.043l.76 3.614c-5.573-2.853-11.526 0-16.529 2.789-1.52.824-3.104 1.775-4.624 2.6-3.166-1.712-6.269-3.487-9.626-4.819-1.33 2.156-2.913 4.248-4.497 6.277-.57-1.649-1.203-3.297-1.71-5.009-.57.064-1.71.254-2.28.317-.253 2.346-.19 4.692.127 7.037-1.52-.19-3.103-.38-4.623-.57.696-3.17 1.52-6.277 2.153-9.51-.76.064-2.343.19-3.103.254-2.597 3.994-2.723 8.812-2.217 13.44-1.076-.888-2.09-1.775-3.103-2.599.127-3.297.57-6.53.823-9.827-3.42-1.458-4.813 2.473-5.446 5.009-1.9-.634-3.8-1.205-5.637-1.902-4.243-1.332-7.03-5.072-11.146-6.72-2.154-.888-3.737-2.663-5.384-4.248-.19.634-.57 1.902-.696 2.536 1.646 2.789 1.646 6.403-1.584 8.115-1.013-.127-3.04-.381-4.116-.571 3.42 3.487 8.423 4.121 12.92 5.325l-2.534 1.776c-4.306-1.395-8.993-1.522-13.046-3.741-.127-1.648-.317-3.36-.444-5.008-1.203-.254-2.343-.444-3.546-.698a94 94 0 0 1-4.117-.824c-1.013-1.204-2.153-3.296-3.99-2.219-1.456 1.332-2.66 2.917-4.053 4.375-.823-1.141-1.71-2.283-2.533-3.424-6.207.761-5.7 8.242-9.69 11.602-2.534 1.838-2.407 5.325-4.75 7.354-.317-2.853-.507-5.642-.19-8.495 1.267-5.009 3.483-9.7 4.75-14.772.126-.38.316-1.204.443-1.648 2.597.127 5.32.507 7.853-.19 2.217-1.078 1.33-4.121 2.154-6.086.38-3.424 3.356-5.389 6.08-6.911 1.013.825 2.09 1.649 3.103 2.473 3.103-.951 6.08-2.282 9.246-2.726 2.66.127 5.13 1.204 7.727 1.458 1.583-.063 2.09-2.156 3.61-2.472 1.013.063 1.963.316 2.977.443.316.951.633 1.902.886 2.853 1.583-1.838 3.103-4.184 5.827-3.93-.95 1.838-1.837 3.613-2.787 5.452 2.217.634 4.37.063 6.333-1.015a87 87 0 0 1-.823-3.93c3.293.57 3.927 3.994 5.003 6.656l3.99-1.141c2.154 1.839 4.244 3.804 6.333 5.706 3.42 3.17 8.36 3.233 12.73 3.487-2.09-3.614-5.256-8.369-10.133-7.037-2.343-3.233-4.56-6.657-6.903-9.89"/><path fill="#87DE71" d="M188.217 113.181c2.406-.507 4.75-.951 7.156-1.458.76 1.648 1.394 3.297 2.027 4.945-6.587 6.593-16.276 8.305-24.953 10.334-3.61 1.078-6.966-.824-9.943-2.536 5.003-2.726 10.956-5.642 16.53-2.79l-.76-3.613a26.1 26.1 0 0 1 7.283-3.043c1.14 1.902 2.343 3.804 3.483 5.705.57-.95 1.203-1.965 1.837-2.916-.824-1.521-1.773-3.106-2.66-4.628"/><path fill="#FBFDFC" d="m140.337 98.347-.126.76c5.446 5.452 13.553 8.813 21.153 6.594 2.913-1.585 5.826-3.551 7.22-6.657 4.749-9.826 5.573-21.428 2.343-31.825-2.913-2.092-5.7-4.501-7.41-7.671-3.483-4.818-9.247-9.89-15.58-7.608-6.46.888-11.02 6.593-12.793 12.553-2.407 7.607-3.23 16.23.063 23.71.634 3.74 1.33 8.368 5.13 10.144m12.16-18.702c1.393 4.12-.887 9.826-5.953 9.89-2.28-1.585-5.447-3.044-4.94-6.34-.887-6.086 7.346-5.896 10.893-3.55m42.623 23.963c2.913-3.106 6.46-5.515 9.563-8.368 5.32-7.798 9.816-18.131 5.763-27.514-1.393-6.213-8.613-8.368-14.25-7.671-7.41 1.268-15.579 3.93-19.506 10.968.127 6.846 1.203 13.693-.19 20.477 7.22 1.902 15.073 5.071 18.62 12.108m5.32-28.845a57 57 0 0 0 4.433-1.141c1.647 2.536 1.583 6.15.697 8.939-2.914 2.853-7.094-.064-8.297-3.17 1.077-1.585 2.153-3.107 3.167-4.628"/><path fill="#fff" d="M44.896 144.689a66 66 0 0 1-2.344 4.755c.697 2.029 1.774 3.93 3.04 5.642.38-.19 1.14-.507 1.457-.634-2.723-3.17-.57-6.973 1.203-10.016-1.14.19-2.28.253-3.357.253m7.917 1.205-.253-.697a6.6 6.6 0 0 0-.38 1.014l-.697.824c-.126.127-.38.444-.443.571-1.647 1.395-1.33 3.55-1.52 5.452.253.444.823 1.395 1.077 1.902 2.85 1.712 2.28-4.565.316-4.691 1.204-1.459 2.534-2.853 2.914-4.755z"/><path fill="#231F20" d="M146.544 89.534c5.067 0 7.283-5.769 5.953-9.89-3.546-2.346-11.716-2.536-10.893 3.487-.506 3.297 2.66 4.818 4.94 6.403m59.026-7.037c.887-2.79.95-6.403-.697-8.939a50 50 0 0 1-4.433 1.141c-1.077 1.522-2.09 3.043-3.167 4.565 1.204 3.17 5.32 6.086 8.297 3.233"/><path fill="#231F20" d="M202.783 143.802c-6.523-1.141-13.11-.064-19.633-.19-2.913-1.966-5.763-4.248-9.373-4.502-1.14.508-2.28.951-3.42 1.395 2.977.317 6.08 1.014 8.36 3.17-2.85-.19-5.763-.063-8.423-1.078-3.61 1.332-7.03 3.36-7.537 7.544-1.52-2.155.697-4.12 1.584-6.086-2.027-4.247-6.904-6.466-8.36-11.031 1.076-1.521 2.913-1.394 4.053-.063 2.153 2.789 3.357 6.086 4.813 9.256 1.837.127 3.673.253 5.447.38v-2.092c-.887.381-1.837.761-2.724 1.205a94 94 0 0 1-4.053-10.651c2.153.507 4.243 1.268 6.397 1.712 9.88-1.522 20.456-3.487 28.183-10.334 1.646-1.648 4.56-3.106 4.053-5.832a11.9 11.9 0 0 0-1.267-3.931c-1.076-2.282-2.596-4.374-3.546-6.783 2.216-.825 4.496-1.649 6.65-2.663 7.726-7.544 11.589-18.322 12.413-28.972-.76-5.643-2.344-11.856-6.713-15.85-7.98-3.994-17.354-2.726-25.46.19-3.673 1.459-6.333 4.438-9.437 6.847-2.47-.57-3.99-3.423-5.636-5.325-3.167-5.389-7.473-10.334-13.363-12.68-4.94-.19-10.577-1.52-14.82 1.649-2.153 1.395-4.56 2.663-6.08 4.882-3.42 6.403-5.383 13.503-5.953 20.667-1.077-.444-2.154-.824-3.23-1.268-7.537-2.79-15.39-4.691-23.433-4.438-5.574 1.078-11.02 2.726-16.213 5.072-10.577 5.516-17.29 16.293-21.217 27.261-2.406 4.818-4.116 9.889-5.066 15.151-.887 4.755-2.724 9.383-2.977 14.265 0 3.296.253 6.593.19 9.89-.127.063-.317.19-.443.253-3.42 1.902-7.474 1.839-11.273 2.473-2.85-.064-5.574-1.459-8.424-.634h-.063c-3.04 1.458-6.27 2.282-9.31 3.677-.697 4.311-1.393 10.27 3.8 11.918h5.573c6.587 0 13.11.064 19.697.127h1.52c1.583 8.242 3.166 16.737 7.536 24.027 5.13 8.305 10.197 16.991 17.987 23.077 7.473 5.008 16.909 5.198 25.459 3.677 3.23-.381 5.51-2.916 8.424-4.121 1.773-1.078 4.433-1.331 5.066-3.614 5.827-9.509 1.393-21.238-3.926-29.923-3.357-5.959-10.704-7.164-16.91-6.91-3.674.57-5.954 3.677-8.93 5.579-3.23 1.965-6.397 6.149-3.927 9.953 2.09 3.994 4.687 9.319 10.007 9.002 3.356-.38 7.79-1.141 9.246-4.628.634-4.247-4.37-6.276-7.726-7.037.19 2.092.38 4.121.57 6.213-1.71-1.204-3.483-2.345-5.257-3.55 1.077-5.579 7.283-5.452 11.59-7.164 4.37 6.784 8.93 15.532 5.383 23.647-4.116 5.135-11.526 4.501-17.226 3.17-7.473-1.141-12.477-7.861-15.77-14.137-5.003-8.686-11.083-18.005-10.006-28.466 3.483-.063 7.03-.317 10.45.064 3.356.761 6.333 3.677 9.943 2.282 7.726-2.092 15.769-.824 23.686-.951 6.206-.317 12.476-.634 18.683-.253 2.217.634 3.483 3.36 6.08 3.169 2.977 1.015 4.686-2.092 6.903-3.36 5.003-.19 10.07-.317 15.01 0 2.343 4.121 5.89 8.559 10.956 9.193 6.144.254 11.4-4.121 14.694-8.939 4.369 1.014 9.056 2.346 13.299.19 9.184-3.867 19.317-3.867 28.753-6.593v-2.726c-7.41-4.691-16.783-3.297-25.333-5.452m-42.369.19c-5.637.127-12.35.824-15.77-4.755-2.28.634-4.56 1.522-5.763 3.741-.823-.444-2.533-1.395-3.357-1.839 0-2.092 0-4.184.19-6.276h3.8c3.483.19 6.903-.381 10.323-.824 1.774.19 2.217 2.345 3.357 3.423 2.027 2.536 4.877 4.311 7.22 6.53m-3.99 5.769c-4.37.127-8.677.127-12.983-.127-.444-2.599 2.85-2.092 4.433-2.472 3.673-.254 7.283-.064 10.957-.064.126 1.839-.634 2.726-2.407 2.663m20.266-78.675c3.927-7.037 12.097-9.7 19.507-10.968 5.636-.697 12.793 1.458 14.25 7.671 4.053 9.32-.444 19.653-5.764 27.514-3.103 2.916-6.65 5.262-9.563 8.369-3.547-7.1-11.4-10.27-18.62-12.046 1.33-6.847.317-13.757.19-20.54m-41.546-6.594c1.774-5.959 6.334-11.665 12.793-12.552 6.334-2.282 12.16 2.79 15.58 7.608 1.773 3.233 4.497 5.578 7.41 7.67 3.23 10.398 2.407 22-2.343 31.826-1.394 3.169-4.37 5.071-7.22 6.656-7.663 2.219-15.707-1.141-21.153-6.593l.127-.76c-3.864-1.776-4.497-6.467-5.194-10.144-3.23-7.481-2.406-16.103 0-23.71m-98.292 91.736c-2.28-.064-4.496-.191-6.776-.571-.38-2.156-1.33-5.325.886-6.784 2.28-1.267 3.864-3.296 5.194-5.515.253.063.443.063.696.063 1.9.254 3.864.191 5.764-.19-.19 2.473-3.547 3.55-3.104 6.086.57 2.473 1.964 4.692 2.977 7.037-1.9-.063-3.737-.126-5.637-.126m10.197-1.712c-.38.19-1.14.507-1.457.634-1.266-1.775-2.28-3.614-3.04-5.643.887-1.521 1.647-3.169 2.344-4.754 1.076-.064 2.216-.127 3.293-.254-1.71 3.043-3.863 6.784-1.14 10.017m3.42.38c-.254-.444-.824-1.395-1.077-1.902.19-1.902-.127-4.057 1.52-5.452a4.5 4.5 0 0 0 .444-.57l.696-.825c.127-.253.317-.76.38-1.014l.253.697.887-.38c-.317 1.902-1.71 3.297-2.913 4.755 2.153.127 2.66 6.403-.19 4.691m4.623-5.325c.317-.951.823-1.648 1.457-2.156 2.216-1.711 6.016-1.268 8.676-1.458 3.167.444 7.094-.824 9.5 1.902l-1.013 2.282c-5.7-.253-11.463-.38-17.163-.507-.507 0-.95 0-1.457-.063m26.41-9.193c-3.294 1.712-6.967 1.775-10.513 1.775-.76-5.452 2.66-10.08 5.193-14.581 1.14-.253 2.28-.507 3.42-.824-1.584 4.691-.697 9.51 1.9 13.63m-9.12 39.306c2.406 3.931 4.37 8.052 6.65 12.046 2.406 4.12 6.396 6.91 10.133 9.763 7.98 5.896 21.153 5.008 26.79-3.677 3.609-7.735-.887-15.913-3.99-23.013-5.32-8.369-19.19-2.029-18.81 7.1 3.04 1.839 6.46 5.579 10.26 3.233-.064-1.458-.127-2.979-.127-4.501.887 1.015 1.583 2.156 2.47 3.233-2.153 2.79-5.637 2.663-8.74 2.219-1.267-1.394-2.597-2.789-3.863-4.184-1.583-9.066 10.006-16.737 17.733-12.109 5.51 3.551 7.03 10.271 9.183 16.04 2.533 6.91-1.203 15.088-7.726 18.131-5.067 3.233-11.274 1.966-16.91 1.966-7.727-.381-12.73-6.657-17.733-11.665-4.877-5.96-8.043-13.06-11.843-19.78-1.964-5.452-3.104-11.285-3.547-17.054.697.127 2.027.317 2.787.38 2.976 7.101 3.166 15.216 7.283 21.872m-14.947-24.978c-.253-.444-.633-1.331-.886-1.775 6.713-1.078 13.426.507 20.14.761.253.317.76.887 1.076 1.204-6.776 0-13.616.507-20.33-.19m20.837-6.593c2.09-2.6 4.686-4.692 7.41-6.72-3.927-5.896-5.7-14.645-.57-20.351-1.014-1.204-2.154-3.296-3.99-2.219-1.457 1.332-2.66 2.917-4.053 4.375-5.89 4.501-8.17 11.665-11.717 17.814-1.71-.063-3.42-.127-5.13-.127 0-.507-.063-1.584-.127-2.155-.316-2.853-.506-5.642-.19-8.495 1.267-5.008 3.484-9.7 4.75-14.772.127-.38.317-1.204.444-1.648.19-.634.506-1.838.696-2.472 3.8-10.334 8.487-20.921 16.847-28.402 5.383-5.325 13.11-6.784 20.139-9.002 7.917-.444 15.834 1.965 22.99 5.262l.38.19c3.167 1.268 2.977 5.008 3.673 7.86.57 2.156 1.14 4.375 1.837 6.53 1.077 3.234 2.47 6.531 5.193 8.686 4.56 3.487 9.31 7.291 15.01 8.622 5.067.951 10.64.38 15.01-2.536 3.8-3.423 5.573-8.432 9.5-11.728 3.673 1.838 7.79 2.662 11.336 4.755 3.673 2.345 5.447 6.529 7.663 10.143l.38.951c.57 1.331 1.077 2.663 1.647 3.994-6.587 6.593-16.276 8.305-24.953 10.334-3.61 1.077-6.967-.825-9.943-2.536-1.52.824-3.103 1.775-4.623 2.599-5.447 2.916-11.78 4.501-17.987 3.804-1.52-.19-3.103-.381-4.623-.571.697-3.17 1.52-6.276 2.153-9.509-.76.063-2.343.19-3.103.253-2.597 3.994-2.723 8.812-2.217 13.44.127 1.712.254 3.487.317 5.199-1.837-2.282-3.357-4.818-3.42-7.798.127-3.296.57-6.53.823-9.826-3.42-1.458-4.813 2.472-5.446 5.008 0 1.395.126 2.789.19 4.184-6.017 1.395-12.413 2.092-18.367.127-4.306-1.395-8.993-1.522-13.046-3.74-.127-1.649-.317-3.36-.443-5.009-1.204-.253-2.344-.444-3.547-.697-1.583 4.247-3.8 8.558-3.547 13.25.824 3.043 3.357 5.325 5.257 7.798-2.787.824-6.65.19-8.55 2.789-1.14 5.072 3.483 7.988 6.46 11.094-4.243-1.711-9.057-3.994-10.513-8.748m53.136-3.55c-7.854.126-15.77.38-23.623-.317.506-2.6 1.393-5.136 2.09-7.735 5.51-.19 11.019 0 16.529-.253 2.66 2.028 3.8 5.325 5.004 8.305m-26.6-.761c-2.09-.19-4.117-.317-6.143-.698 2.723-1.838 4.75-4.057 5.636-7.29l1.077-.571c.19 2.853 1.52 6.15-.57 8.559m-6.207-9.51a50 50 0 0 0-.95 4.438c-1.963 1.078-3.736 2.536-5.446 3.867-2.28-3.36-3.167-7.29-2.407-11.284 2.914.887 6.46.76 8.804 2.979m-11.78 15.596c-.38-1.331-.76-2.726-1.203-4.058 2.914.698 7.537-1.014 9.31 1.395 2.597.444 5.067 1.648 7.727 1.712 9.436-2.79 19.443-1.268 29.133-1.268l.253 3.36c-7.283.254-14.566.317-21.85.127-3.8 0-7.41-2.536-11.21-1.395-1.646.127-3.546 1.902-5.003.38a292 292 0 0 0-7.156-.253m44.903 6.149c-10.956.381-21.849.191-32.806.127-2.28-.063-4.623-.19-6.903-.253-.57-.761-1.14-1.585-1.71-2.346 2.85 0 5.7.063 8.613 0 11.21.127 22.42.317 33.63 1.078-.254.38-.634 1.077-.824 1.394m1.647-15.342c1.267 1.585 2.66 2.98 4.18 4.311 2.027-2.345 6.523-6.086 8.36-1.648-3.04 1.458-6.84 2.536-7.853 6.213l-.064.444c.444 3.233 1.647 6.339 2.597 9.446-6.523-4.184-3.293-12.933-7.22-18.766m36.796 22.823c-3.04-1.458-4.94-4.374-7.283-6.657 3.61 1.585 7.156 3.297 10.956 4.565 2.154-.888 5.194-5.642 6.967-2.155-2.85 2.535-6.713 5.135-10.64 4.247m18.493-7.798c-2.913.381-5.636-1.458-8.613-1.204-5.827.38-11.717.887-17.48-.381-6.586 1.395-13.363.761-20.013 1.142-.063-.634-.127-1.902-.19-2.536 6.777-.571 13.553-.317 20.203 1.014 6.207-.824 12.54-.063 18.747-1.141 2.533.19 7.916-.951 7.346 3.106m-11.146-5.388c-3.8-.508-7.79.19-11.527-.951.253-.444.76-1.395 1.013-1.902 6.777-.571 13.554-1.522 20.457-1.141 1.9.38 3.356 1.902 4.94 2.916-4.623 2.282-9.943 1.712-14.883 1.078m32.996 2.852c-5.13.951-9.943 3.234-15.2 3.36a48 48 0 0 0 .19-4.247c.57-.38 1.773-1.205 2.407-1.585.126-1.522.316-3.043.443-4.565 4.243-.19 8.233 1.395 12.413 1.839.064 1.648.57 3.55-.253 5.198"/><path fill="#97EB74" d="M102.275 114.132c1.647 1.585 3.23 3.36 5.383 4.248 4.054 1.585 6.904 5.389 11.147 6.72-.38.634-.76 1.331-1.14 1.965-5.763-1.838-11.907-.444-17.67-2.282 3.23-1.712 3.23-5.325 1.583-8.115.127-.634.507-1.902.697-2.536"/><path fill="#84CB71" d="M64.782 131.376c3.99-3.36 3.483-10.841 9.69-11.602a119 119 0 0 1 2.533 3.424c-5.89 4.501-8.17 11.665-11.716 17.814-1.71-.063-3.42-.126-5.13-.126 0-.508-.063-1.585-.127-2.156 2.344-2.029 2.217-5.515 4.75-7.354"/><path fill="#6CB960" d="M148.254 122.247c3.356 1.331 6.46 3.107 9.626 4.818-5.446 2.916-11.78 4.501-17.986 3.804-.317-2.346-.38-4.691-.127-7.037.57-.063 1.71-.19 2.28-.317a459 459 0 0 1 1.71 5.008 87 87 0 0 0 4.497-6.276"/><path fill="#77C66C" d="M95.877 124.212c1.014.127 3.04.381 4.117.571 5.763 1.838 11.907.444 17.67 2.282.38-.634.76-1.331 1.14-1.965 1.9.697 3.736 1.268 5.636 1.902 0 1.395.127 2.789.19 4.184-6.016 1.395-12.413 2.092-18.366.127l2.533-1.775c-4.496-1.205-9.5-1.839-12.92-5.326"/><path fill="#D07B84" d="M36.219 143.358c2.153.317 4.307.317 6.46-.127-.19 2.472-3.547 3.55-3.103 6.086.57 2.473 1.963 4.691 2.976 7.037-4.116-.19-8.296.063-12.35-.697-.38-2.156-1.33-5.326.887-6.784 2.217-1.331 3.8-3.296 5.13-5.515"/><path fill="#FEFEFE" d="M198.35 146.148c4.243-.191 8.233 1.394 12.413 1.838 0 1.712.507 3.614-.317 5.262-5.13.951-9.943 3.233-15.199 3.36.126-1.395.19-2.853.19-4.248.57-.38 1.773-1.204 2.406-1.584.19-1.585.38-3.107.507-4.628"/><path fill="#E1CB86" d="M85.618 145.83c2.913.697 7.537-1.014 9.31 1.395l-2.027-.254c.317 1.015.633 2.092 1.014 3.107-2.344 0-4.75-.127-7.094-.127-.38-1.395-.823-2.79-1.203-4.121m-29.07 7.101c6.714-1.078 13.427.507 20.14.76.253.317.76.888 1.077 1.205-6.777 0-13.617.507-20.33-.19a23 23 0 0 1-.887-1.775"/><path fill="#DDC377" d="M55.092 149.571c1.266-4.185 6.713-3.424 10.196-3.614 3.167.444 7.094-.824 9.5 1.902l-1.013 2.282c-6.27-.317-12.477-.38-18.683-.57m43.826 4.057c11.21.127 22.419.317 33.629 1.078-.19.38-.633 1.078-.823 1.395-10.957.38-21.85.19-32.806.126z"/><path fill="#DCC576" d="m92.901 146.971 2.027.254c2.597.444 5.067 1.648 7.727 1.711 9.436-2.789 19.443-1.267 29.132-1.267.064.824.19 2.535.254 3.36-7.283.253-14.567.317-21.85.126-3.8 0-7.41-2.535-11.21-1.394-1.646.126-3.546 1.902-5.003.38-.443-1.141-.76-2.155-1.077-3.17m-2.596 6.593c2.85 0 5.7.064 8.613 0v2.6c-2.28-.064-4.623-.19-6.903-.254-.57-.761-1.14-1.521-1.71-2.346"/><path fill="#F5D776" d="M143.441 149.635c-.443-2.599 2.85-2.092 4.433-2.473 3.673-.253 7.283-.063 10.957-.063.19 1.839-.57 2.726-2.344 2.663-4.37.127-8.739.127-13.046-.127m23.56-2.156c6.776-.57 13.553-1.521 20.456-1.141 1.9.381 3.357 1.902 4.94 2.917-4.623 2.282-9.88 1.775-14.883 1.077-3.8-.507-7.79.191-11.527-.951.254-.507.76-1.458 1.014-1.902m-24.637 5.326c6.777-.571 13.553-.317 20.203 1.014 6.207-.824 12.54-.063 18.747-1.141 2.596.19 7.98-.951 7.346 3.106-2.913.381-5.636-1.458-8.613-1.204-5.827.38-11.716.887-17.48-.38-6.586 1.394-13.363.76-20.013 1.141-.063-.634-.126-1.902-.19-2.536"/><path fill="#959D64" d="M137.994 150.078c0-.127.063-.317.063-.444z"/></svg>