<svg xmlns="http://www.w3.org/2000/svg" width="256" height="256" fill="none"><rect width="256" height="256" fill="#4099DE" rx="60"/><path fill="#fff" d="M192.767 191.45c-17.618 17.069-41.467 26.619-66.304 26.55-28.846 0-54.614-12.6-71.77-32.4 37.251 29.745 91.501 27.351 125.844-5.548a56.75 56.75 0 0 0 12.889-18.541 55.6 55.6 0 0 0 4.532-21.959 55.55 55.55 0 0 0-4.532-21.959 56.7 56.7 0 0 0-12.889-18.541c-23.336-22.347-60.739-22.347-84.074 0a24.3 24.3 0 0 0-5.538 7.945 23.8 23.8 0 0 0-1.947 9.416c0 3.233.662 6.435 1.947 9.416a24.3 24.3 0 0 0 5.538 7.945c4.804 4.598 11.267 7.175 18 7.175 6.732 0 13.196-2.577 18-7.175a8.65 8.65 0 0 1 6-2.402c2.246 0 4.402.863 6 2.402a8.1 8.1 0 0 1 1.837 2.644c.426.992.646 2.056.646 3.131 0 1.076-.22 2.14-.646 3.132a8.1 8.1 0 0 1-1.837 2.644c-8.01 7.659-18.781 11.95-30 11.95s-21.99-4.291-30-11.95a40.5 40.5 0 0 1-9.212-13.234 39.6 39.6 0 0 1-3.239-15.678 39.6 39.6 0 0 1 3.239-15.679A40.5 40.5 0 0 1 84.463 87.5c29.991-28.755 78.083-28.755 108.074 0 7.08 6.775 12.709 14.855 16.558 23.769a71.4 71.4 0 0 1 5.865 28.159 71.4 71.4 0 0 1-5.74 28.184c-3.809 8.93-9.402 17.034-16.453 23.838m5.465-121.05c-37.251-29.745-91.5-27.35-125.848 5.549a56.7 56.7 0 0 0-12.89 18.54 55.55 55.55 0 0 0-4.53 21.96c0 7.54 1.54 15.005 4.53 21.959a56.7 56.7 0 0 0 12.89 18.541c23.34 22.347 60.739 22.347 84.079 0a24.3 24.3 0 0 0 5.537-7.945 23.8 23.8 0 0 0 1.947-9.416c0-3.234-.662-6.435-1.947-9.416a24.3 24.3 0 0 0-5.537-7.945c-4.804-4.599-11.268-7.175-18-7.175-6.733 0-13.196 2.576-18 7.175-3.309 3.15-8.691 3.15-12 0a8.1 8.1 0 0 1-1.837-2.645 7.9 7.9 0 0 1 0-6.262 8.1 8.1 0 0 1 1.837-2.645c8.009-7.659 18.781-11.95 30-11.95s21.99 4.291 30 11.95a40.5 40.5 0 0 1 9.212 13.234 39.6 39.6 0 0 1 3.239 15.679 39.6 39.6 0 0 1-3.239 15.678 40.5 40.5 0 0 1-9.212 13.234c-29.991 28.751-78.088 28.751-108.079 0-7.082-6.786-12.708-14.878-16.551-23.806A71.4 71.4 0 0 1 38 116.502a71.4 71.4 0 0 1 5.792-28.2c3.83-8.933 9.446-17.033 16.518-23.828C77.905 47.469 101.69 37.95 126.464 38c28.846 0 54.614 12.6 71.769 32.4"/></svg>