<svg xmlns="http://www.w3.org/2000/svg" fill="none" viewBox="0 0 256 256"><path fill="#282828" d="M196 0H60C26.863 0 0 26.863 0 60v136c0 33.137 26.863 60 60 60h136c33.137 0 60-26.863 60-60V60c0-33.137-26.863-60-60-60"/><path fill="#4DABCF" d="M116.372 78.856 88.708 64.892l-30.36 15.152L86.76 94.312zm12.68 6.4 29.004 14.64-30.092 15.112-28.456-14.292zm38.736-20.152 29.796 14.94-26.648 13.384-29.064-14.66zm-12.824-6.436L128.14 45.22l-26.536 13.24 27.64 13.94zm-20.972 115.508v36.604l32.496-16.216-.036-36.62zm32.448-29.012-.036-36.236-32.412 16.112v36.248zm39.012-6.792v36.748l-27.716 13.832-.02-36.58zm0-12.848V89.516l-27.768 13.804.024 36.308z"/><path fill="#4D77CF" d="m122.52 125.04-21.888-11.004V161.6s-26.768-56.956-29.248-62.072c-.32-.66-1.636-1.384-1.972-1.56-4.8-2.52-18.864-9.644-18.864-9.644v84.032l19.456 10.4v-43.924s26.484 50.892 26.752 51.448 2.928 5.92 5.768 7.804c3.784 2.504 20 12.256 20 12.256z"/></svg>