<svg xmlns="http://www.w3.org/2000/svg" width="256" height="256" fill="none"><rect width="256" height="256" fill="#DC2626" rx="60"/><path fill="#fff" d="M129.159 212c-4.644 0-9.289-.664-13.937-2.326l-33.514-12.948c-8.96-3.32-16.921-10.623-20.902-19.918l-14.598-32.541c-3.985-8.965-4.315-19.258-.667-28.887l12.61-33.2c3.981-9.963 10.95-17.266 20.24-21.25l32.186-14.606C115.222 44.328 120.2 43 125.842 43c4.645 0 9.289.664 13.934 2.326l33.513 12.614c9.289 3.32 16.926 10.623 20.907 19.922l14.597 32.537c3.981 8.965 4.315 19.258.668 28.891l-12.945 33.53c-3.317 8.965-10.616 16.936-19.905 20.92l-32.52 14.606c-4.645 2.656-9.623 3.654-14.932 3.654"/><path fill="#DC2626" d="m62.746 83.69-12.589 33.185c-2.978 8.303-2.978 17.265.663 25.229l14.575 32.526c3.645 7.965 10.268 14.272 18.216 17.261l33.454 12.944c8.281 2.989 17.225 2.989 25.177-.664L174.7 189.57c7.948-3.653 14.243-10.29 17.221-18.258l12.922-33.524c2.978-8.298 2.978-17.256-.663-25.221l-14.571-32.53c-3.649-7.965-10.272-14.272-18.224-17.26l-33.45-12.615c-8.281-2.985-17.225-2.985-25.173.663L80.3 65.098C72.018 68.75 66.057 75.391 62.746 83.69"/><path fill="#991B1B" d="M66 98.58 156.09 66 189 156.09 98.91 189 66 98.576z"/><path fill="#fff" d="M72 88.618 166.386 72 183 166.39 88.622 183 72.004 88.614z"/></svg>