<svg xmlns="http://www.w3.org/2000/svg" width="256" height="256" fill="none"><path fill="#F4F2ED" d="M196 0H60C26.863 0 0 26.863 0 60v136c0 33.137 26.863 60 60 60h136c33.137 0 60-26.863 60-60V60c0-33.137-26.863-60-60-60"/><path fill="#282828" fill-rule="evenodd" d="M71.122 210.254a99 99 0 0 1-6.865-5.181L162.86 34.285s4.059 1.506 7.411 3.113c4.227 2.026 7.727 4 7.727 4 47.796 27.596 64.198 88.804 36.603 136.6C187.005 225.796 125.796 242.195 78 214.6c0 0-3.348-1.924-6.88-4.346m98.544-154.422-83.33 144.334c39.83 22.997 90.837 9.329 113.833-30.5 22.995-39.832 9.33-90.838-30.501-113.834M45.942 185.18c-3.351-4.853-4.544-7.18-4.544-7.18-17.227-29.922-18.49-67.973 0-100C59.89 45.973 93.474 28.043 128 28c0 0 4.662-.012 8.543.36 5.848.56 9.735 1.314 9.735 1.314L51.982 193.002s-2.237-2.316-6.04-7.821m72.083-139.903c-25.129 3.054-48.573 17.467-62.193 41.057-13.62 23.589-14.379 51.099-4.459 74.39z" clip-rule="evenodd"/></svg>