<svg xmlns="http://www.w3.org/2000/svg" fill="none" viewBox="0 0 256 256"><rect width="256" height="256" fill="#282828" rx="60"/><path fill="#fff" d="M88.477 36.052c-1.727.279-3.8 1.182-5.261 2.297-4.424 3.36-7.851 10.491-9.3 19.375-.544 3.36-.916 8.02-.916 11.58 0 4.196.491 9.561 1.196 13.266.159.823.239 1.554.172 1.607-.053.053-.704.584-1.434 1.168-2.498 1.992-5.354 5.06-7.32 7.862-3.774 5.352-6.218 11.434-7.241 18.02-.398 2.603-.505 7.862-.186 10.464.704 6.003 2.51 11.075 5.606 15.723l1.01 1.501-.292.491c-2.073 3.48-3.84 8.512-4.663 13.346-.651 3.825-.731 4.847-.731 9.973 0 5.166.066 6.188.678 9.761.73 4.276 2.218 8.804 3.879 11.818.545.983 1.873 3.028 2.032 3.134.053.027-.106.518-.358 1.089-1.913 4.183-3.547 9.747-4.225 14.435-.478 3.214-.545 4.249-.545 7.636 0 4.315.24 6.414 1.143 9.853l.133.505h11.385l-.372-.704c-2.298-4.25-2.51-12.138-.531-20.012.903-3.639 1.926-6.308 3.839-9.987l1.142-2.23v-1.368c0-1.275-.026-1.421-.438-2.258-.319-.637-.744-1.182-1.501-1.925a13.4 13.4 0 0 1-2.963-4.183c-3.268-7.092-3.906-17.622-1.607-26.599.956-3.745 2.537-7.078 4.198-8.897 1.13-1.249 1.714-2.643 1.714-4.09 0-1.501-.532-2.736-1.727-4.024-3.428-3.665-5.54-8.127-6.297-13.319-1.077-7.397.876-15.458 5.314-21.845 4.344-6.268 10.441-10.292 17.257-11.368 1.528-.252 4.384-.212 5.978.08 1.74.306 2.83.212 3.946-.319 1.381-.65 2.072-1.46 2.883-3.32.717-1.66 1.275-2.562 2.776-4.435 1.807-2.244 3.547-3.771 6.337-5.617 3.189-2.085 6.815-3.599 10.429-4.33 1.315-.265 1.926-.305 4.384-.305s3.069.04 4.384.306c5.301 1.076 10.562 3.811 14.76 7.689.903.836 3.069 3.519 3.759 4.634.266.438.731 1.368 1.023 2.058.811 1.86 1.502 2.67 2.883 3.32 1.076.518 2.205.625 3.879.346 2.644-.452 4.677-.412 7.267.12 8.822 1.779 16.5 9.043 19.901 18.776 2.963 8.539 2.126 17.476-2.285 24.302-.744 1.155-1.488 2.085-2.564 3.227-2.325 2.483-2.325 5.564-.013 8.114 3.8 4.156 6.178 14.381 5.46 23.398-.478 5.949-2.006 11.274-4.105 14.289a16 16 0 0 1-1.727 1.992c-.757.743-1.182 1.288-1.501 1.925-.412.837-.439.983-.439 2.258v1.368l1.143 2.23c1.913 3.679 2.936 6.348 3.839 9.987 1.953 7.768 1.781 15.497-.451 19.892-.186.372-.346.717-.346.757s2.538.067 5.646.067h5.633l.146-.571c.08-.306.213-.771.279-1.036.147-.584.439-2.311.678-3.971.226-1.673.226-7.835 0-9.694-.85-6.746-2.272-12.097-4.597-17.157-.252-.571-.412-1.062-.358-1.089.066-.04.438-.571.836-1.168 2.897-4.383 4.677-9.894 5.58-17.171.239-2.005.239-10.623 0-12.549-.637-4.966-1.408-8.339-2.683-11.752-.532-1.421-1.94-4.422-2.538-5.392l-.292-.491 1.01-1.501c3.095-4.648 4.902-9.72 5.606-15.723.319-2.602.213-7.861-.186-10.464-1.036-6.6-3.467-12.655-7.24-18.02-1.967-2.802-4.823-5.87-7.32-7.862a62 62 0 0 1-1.435-1.168c-.067-.053.013-.784.172-1.607 1.608-8.38 1.555-18.83-.132-26.997-1.462-7.118-4.119-12.775-7.546-16.042-2.737-2.603-5.527-3.718-8.875-3.506-7.678.452-13.869 9.283-16.314 23.2-.398 2.244-.744 4.873-.744 5.59 0 .28-.053.505-.119.505-.067 0-.585-.266-1.143-.598-5.925-3.505-12.514-5.378-18.931-5.378s-13.006 1.873-18.931 5.378c-.558.332-1.076.598-1.143.598s-.119-.226-.119-.505c0-.743-.359-3.452-.744-5.59-2.219-12.496-7.307-20.77-14.07-22.854-.929-.28-3.573-.465-4.516-.319m2.258 10.81c1.913 1.513 4.04 5.843 5.261 10.69.226.876.465 1.885.532 2.257.053.359.199 1.169.319 1.793.518 2.815.757 5.856.783 9.561l.014 3.652-.917 1.354-.917 1.368h-2.139c-2.497 0-4.982.319-7.36.956-.85.213-1.674.425-1.833.465-.252.053-.292-.026-.438-1.115-.784-5.91-.744-12.457.12-17.901.956-6.069 3.188-11.567 5.366-13.187.519-.385.612-.372 1.21.106m75.752-.093c1.315.969 2.763 3.545 3.839 6.839 2.166 6.586 2.777 15.63 1.634 24.235-.146 1.088-.186 1.168-.438 1.115-.159-.04-.983-.252-1.833-.465a28.5 28.5 0 0 0-7.36-.956h-2.139l-.917-1.368-.917-1.354.014-3.652c.026-5.153.505-9.176 1.647-13.651 1.209-4.807 3.348-9.137 5.247-10.65.598-.479.691-.492 1.223-.093"/><path fill="#fff" d="M125.941 113.604c-2.883.279-3.667.385-5.049.664-2.245.465-5.247 1.501-7.333 2.523-7.254 3.546-12.249 9.455-13.776 16.294-.306 1.355-.346 1.806-.346 4.09 0 2.258.04 2.749.332 4.037 2.033 8.937 10.269 15.537 20.924 16.746 2.312.252 12.302.252 14.614 0 8.555-.97 15.915-5.604 19.223-12.111.877-1.74 1.302-2.869 1.701-4.635.292-1.288.332-1.779.332-4.037 0-2.284-.04-2.735-.346-4.09-2.218-9.933-11.863-17.754-23.687-19.242-1.541-.186-5.58-.345-6.589-.239m4.968 7.224c3.946.425 7.918 1.833 11.107 3.957 1.713 1.143 4.131 3.533 5.168 5.1 1.275 1.938 2.005 3.917 2.338 6.321.146 1.102.066 1.939-.333 3.718-.624 2.656-2.564 5.431-5.181 7.37-1.222.89-3.759 2.178-5.314 2.683-2.949.942-4.875 1.115-11.757 1.062-4.49-.04-5.287-.08-6.576-.319-4.397-.823-7.878-2.576-10.402-5.245-2.046-2.151-2.976-4.117-3.481-7.29-.226-1.475.199-3.918 1.063-5.976 1.05-2.51 3.76-5.631 6.443-7.424 3.109-2.071 7.201-3.545 10.96-3.943 1.448-.16 4.517-.16 5.965-.014"/><path fill="#fff" d="M122.925 130.522c-1.009.545-1.713 1.926-1.501 2.948.239 1.102 1.209 2.218 2.723 3.134.811.492.864.558.904 1.049.026.293-.08 1.129-.226 1.873-.159.73-.279 1.5-.279 1.713.013.571.545 1.501 1.103 1.952.491.398.584.412 1.966.451 1.262.04 1.528.014 2.033-.225 1.302-.638 1.634-1.806 1.155-4.051-.398-1.872-.318-2.164.678-2.735 1.049-.611 2.165-1.687 2.497-2.417.638-1.394.054-2.975-1.355-3.705-.345-.173-.77-.252-1.394-.252-.97 0-1.595.226-2.737.956l-.651.412-.412-.253c-1.687-.996-1.993-1.115-3.016-1.102-.73 0-1.129.066-1.488.252M90.67 115.105c-2.352.744-4.106 2.47-5.01 4.927-.438 1.168-.65 3.014-.464 4.01.438 2.377 2.39 4.542 4.61 5.139 2.79.731 4.875.252 6.722-1.58 1.076-1.049 1.66-1.965 2.245-3.453.425-1.049.452-1.235.452-2.722l.013-1.593-.558-1.143c-.89-1.806-2.498-3.147-4.358-3.638-1.05-.266-2.736-.252-3.653.053m70.955-.04c-1.82.491-3.44 1.846-4.304 3.625l-.558 1.142.013 1.594c0 1.487.027 1.673.452 2.722.585 1.488 1.169 2.404 2.245 3.453 1.847 1.832 3.933 2.311 6.723 1.58 1.607-.425 3.214-1.779 3.985-3.36.664-1.341.824-2.31.611-3.837-.491-3.493-2.537-6.029-5.58-6.919-.89-.265-2.617-.265-3.587 0"/></svg>