<svg xmlns="http://www.w3.org/2000/svg" fill="none" viewBox="0 0 256 256"><path fill="#282828" d="M196 0H60C26.863 0 0 26.863 0 60v136c0 33.137 26.863 60 60 60h136c33.137 0 60-26.863 60-60V60c0-33.137-26.863-60-60-60"/><path fill="#0364B8" d="m105.498 99.416 39.874 24.081 24.078-9.969a39.1 39.1 0 0 1 15.362-3.179h2.6a59.43 59.43 0 0 0-47.765-43.771A59.42 59.42 0 0 0 80.264 92.48h.626a47.4 47.4 0 0 1 24.608 6.935"/><path fill="#0078D4" d="M105.498 99.416a48.15 48.15 0 0 0-24.8-7.08h-.626a47.43 47.43 0 0 0-41.783 25.669 47.45 47.45 0 0 0 3.258 48.934L76.7 152.153l15.843-6.405 34.817-14.449 18.155-7.658z"/><path fill="#1490DF" d="M187.027 110.252h-2.6a39.1 39.1 0 0 0-15.314 3.131l-23.741 10.018 6.886 4.141 22.586 13.39 9.631 5.875 33.71 20.229a38.537 38.537 0 0 0-13.202-50.907 38.5 38.5 0 0 0-18.148-5.925z"/><path fill="#28A8EA" d="m184.667 146.904-9.631-5.924-22.585-13.533-6.887-4.142-18.155 7.658-34.817 14.448-15.65 6.55-35.155 14.834a47.39 47.39 0 0 0 38.959 20.373h103.681a38.53 38.53 0 0 0 33.95-20.276z"/></svg>