<svg xmlns="http://www.w3.org/2000/svg" width="256" height="256" fill="none"><path fill="#F4F2ED" d="M196 0H60C26.863 0 0 26.863 0 60v136c0 33.137 26.863 60 60 60h136c33.137 0 60-26.863 60-60V60c0-33.137-26.863-60-60-60"/><path fill="#C15CE3" d="M91.016 50h118.547a7.345 7.345 0 0 1 7.392 7.347v140.818a7.39 7.39 0 0 1-7.392 7.348H91.016a7.39 7.39 0 0 1-7.392-7.348V57.348A7.346 7.346 0 0 1 91.016 50"/><path fill="#CA64EA" d="M216.955 57.347a7.2 7.2 0 0 0-2.164-5.183A7.4 7.4 0 0 0 209.563 50H91.016a7.4 7.4 0 0 0-5.229 2.164 7.2 7.2 0 0 0-2.163 5.183v140.818a7.39 7.39 0 0 0 7.392 7.348H178.1V88.856h38.855z"/><path fill="#7719AA" d="M178.1 166.657h38.855v31.554a7.35 7.35 0 0 1-4.567 6.801 7.4 7.4 0 0 1-2.825.546H178.01z"/><path fill="#9332BF" d="M178.101 127.756H217v38.9h-38.899z"/><path fill="#AE4BD5" d="M178.101 88.856H217v38.901h-38.899z"/><g fill="#000" opacity=".67"><path d="M130.862 81.779H92.233a2.75 2.75 0 0 0-2.794 2.704v86.546a2.797 2.797 0 0 0 2.794 2.795h38.629a5.546 5.546 0 0 0 5.545-5.499V87.188a5.5 5.5 0 0 0-5.545-5.41" opacity=".05"/><path d="M120.63 96.337H83.624v89.161h37.006a7.307 7.307 0 0 0 7.438-7.122v-74.917a7.303 7.303 0 0 0-7.438-7.122" opacity=".1"/><path d="M120.63 91.2H83.624v89.16h37.006a7.3 7.3 0 0 0 5.204-2.043 7.3 7.3 0 0 0 2.234-5.124V98.322a7.304 7.304 0 0 0-7.438-7.123" opacity=".2"/><path d="M128.699 83.446H90.025a2.795 2.795 0 0 0-2.795 2.795v86.366a2.794 2.794 0 0 0 2.795 2.795h38.674a5.59 5.59 0 0 0 5.499-5.59V89.081a5.53 5.53 0 0 0-1.576-3.963 5.54 5.54 0 0 0-3.923-1.672" opacity=".1"/><path d="M128.563 85.79H89.889a2.75 2.75 0 0 0-2.75 2.75v85.644a2.75 2.75 0 0 0 1.688 2.581 2.8 2.8 0 0 0 1.062.214l38.088.631a6.67 6.67 0 0 0 6.176-6.22V91.47a5.47 5.47 0 0 0-1.566-3.915 5.44 5.44 0 0 0-3.888-1.63z" opacity=".1"/><path d="M122.343 79.21H83.669v72.662h-.54v11.359a2.794 2.794 0 0 0 2.794 2.795l30.921-5.635c3.065 0 11.314-2.659 11.314-5.724V84.754a5.635 5.635 0 0 0-5.68-5.545z" opacity=".01"/><path d="M120.63 93.678H83.624v89.161h37.006a7.35 7.35 0 0 0 7.438-7.168V100.71a7.305 7.305 0 0 0-7.438-7.032" opacity=".2"/><path d="M120.63 85.835H83.624v87.313h37.006a7.35 7.35 0 0 0 7.438-7.167V92.957a7.304 7.304 0 0 0-7.438-7.122" opacity=".3"/><path d="M120.63 85.835H83.624v86.772h37.006a7.35 7.35 0 0 0 7.438-7.167V92.867a7.305 7.305 0 0 0-7.438-7.032" opacity=".3"/><path d="M120.63 87.593H83.624V176.8h37.006a7.346 7.346 0 0 0 7.438-7.167V94.805a7.35 7.35 0 0 0-7.438-7.212" opacity=".3"/><path d="M120.63 89.307H83.624v89.161h37.006a7.3 7.3 0 0 0 2.805-.504 7.3 7.3 0 0 0 2.399-1.539 7.3 7.3 0 0 0 2.234-5.125V96.429a7.304 7.304 0 0 0-7.438-7.122" opacity=".2"/><path d="M127.662 88.315h-38.63a2.795 2.795 0 0 0-2.794 2.794v81.137a2.794 2.794 0 0 0 2.795 2.795h38.629a5.59 5.59 0 0 0 5.544-5.59V93.904a5.59 5.59 0 0 0-5.544-5.59" opacity=".1"/><path d="M123.38 88.314H84.751a3.1 3.1 0 0 0-1.082 0v84.563c.358.065.724.065 1.082 0h38.629a5.543 5.543 0 0 0 5.77-5.094v-73.88a5.6 5.6 0 0 0-1.701-4.017 5.6 5.6 0 0 0-4.069-1.572" opacity=".2"/><path d="M113.644 83.536H85.562a2.795 2.795 0 0 0-2.794 2.795v81.137a2.75 2.75 0 0 0 2.794 2.749h38.629a5.54 5.54 0 0 0 5.544-5.499V91.47c0-3.291-7.527-5.094-8.338-6.04a16.1 16.1 0 0 0-7.753-1.894" opacity=".3"/><path d="M125.814 92.37H87.185a2.704 2.704 0 0 0-2.795 2.705v81.137a2.794 2.794 0 0 0 2.795 2.795h38.629a5.54 5.54 0 0 0 5.544-5.544V97.87a5.5 5.5 0 0 0-5.544-5.5" opacity=".1"/><path d="M122.343 80.786H83.669v72.618h-.54v11.404a2.75 2.75 0 0 0 2.794 2.75l30.921-5.635c3.065 0 11.314-2.659 11.314-5.725V86.376a5.59 5.59 0 0 0-5.589-5.59z" opacity=".1"/><path d="M122.343 82.185H83.669v72.617h-.54v11.359a2.797 2.797 0 0 0 2.794 2.795l30.921-5.634c3.065 0 11.314-2.66 11.314-5.725V87.729a5.59 5.59 0 0 0-5.589-5.544z" opacity=".15"/></g><path fill="#7719AA" d="M46.573 83.312h74.057a7.436 7.436 0 0 1 7.438 7.392v74.105a7.436 7.436 0 0 1-7.438 7.393H46.573A7.396 7.396 0 0 1 39 164.809V90.704a7.393 7.393 0 0 1 7.573-7.392"/><path fill="#fff" d="M61.537 100.034h11.72l20.238 37.323c1.037 1.578 1.848 2.885 2.39 3.832a57 57 0 0 1-.361-7.303v-33.852h10.096v55.399H94.712l-21.14-36.918a26.5 26.5 0 0 1-2.118-3.831 68 68 0 0 1 .315 8.023v32.455H61.537z"/></svg>