<svg xmlns="http://www.w3.org/2000/svg" width="256" height="256" fill="none"><path fill="#F4F2ED" d="M196 0H60C26.863 0 0 26.863 0 60v136c0 33.137 26.863 60 60 60h136c33.137 0 60-26.863 60-60V60c0-33.137-26.863-60-60-60"/><path fill="#63D2F9" fill-rule="evenodd" d="M212.744 222.242v-49.261h-53.332c-14.504 0-27.939 7.658-35.367 20.161l-17.29 29.1z" clip-rule="evenodd"/><path fill="#4E5EE4" fill-rule="evenodd" d="M43 33v49.26h140.474L212.744 33z" clip-rule="evenodd"/><path fill="#63B0F9" fill-rule="evenodd" d="M110.23 109.987 43.155 222.242h57.147l80.209-134.297h-31.557c-15.872 0-30.577 8.37-38.724 22.042" clip-rule="evenodd"/></svg>