<svg xmlns="http://www.w3.org/2000/svg" width="256" height="256" fill="none"><path fill="#F4F2ED" d="M196 0H60C26.863 0 0 26.863 0 60v136c0 33.137 26.863 60 60 60h136c33.137 0 60-26.863 60-60V60c0-33.137-26.863-60-60-60"/><path fill="#3EA639" d="M139.403 164.14c14.235-5.287 21.666-15.468 21.666-32.99s-14.766-32.963-33.216-32.993c-19.469-.032-34.157 15.406-33.922 32.993.235 17.586 8.622 29.286 22.046 33.516l-23.78 58.502C60.37 214.929 28 177.382 28 131.15 28 76.39 72 32 127.147 32S227 76.39 227 131.15c0 46.951-32.063 83.974-64.569 92.182z"/></svg>