<svg xmlns="http://www.w3.org/2000/svg" fill="none" viewBox="0 0 256 256"><g clip-path="url(#clip0_80_27)"><path fill="#F4F2ED" d="M196 0H60C26.863 0 0 26.863 0 60v136c0 33.137 26.863 60 60 60h136c33.137 0 60-26.863 60-60V60c0-33.137-26.863-60-60-60"/><g clip-path="url(#clip1_80_27)"><path fill="url(#paint0_linear_80_27)" d="M127.496 40.013C79.173 40.013 40 79.186 40 127.508c0 46.924 36.942 85.221 83.329 87.394q2.074.101 4.168.103c22.402 0 42.831-8.424 58.311-22.267-10.256 6.802-22.247 10.716-35.062 10.716-20.836 0-39.497-10.337-52.048-26.638-9.675-11.42-15.941-28.302-16.368-47.248v-4.121c.427-18.945 6.693-35.83 16.366-47.248 12.552-16.3 31.212-26.637 52.048-26.637 12.818 0 24.811 3.913 35.068 10.72-15.404-13.78-35.71-22.186-57.987-22.27l-.331-.003z"/><path fill="url(#paint1_linear_80_27)" d="M98.697 78.204c8.029-9.479 18.399-15.195 29.728-15.195 25.473 0 46.119 28.88 46.119 64.503s-20.648 64.503-46.119 64.503c-11.329 0-21.699-5.713-29.726-15.192 12.55 16.3 31.21 26.637 52.048 26.637 12.816 0 24.807-3.914 35.062-10.716 17.909-16.021 29.186-39.309 29.186-65.231 0-25.919-11.275-49.205-29.179-65.225-10.259-6.806-22.252-10.72-35.069-10.72-20.836 0-39.5 10.336-52.05 26.636"/></g></g><defs><linearGradient id="paint0_linear_80_27" x1="112.908" x2="112.908" y1="42.865" y2="212.461" gradientUnits="userSpaceOnUse"><stop stop-color="#FF1B2D"/><stop offset=".3" stop-color="#FF1B2D"/><stop offset=".614" stop-color="#FF1B2D"/><stop offset="1" stop-color="#A70014"/></linearGradient><linearGradient id="paint1_linear_80_27" x1="156.844" x2="156.844" y1="52.862" y2="202.861" gradientUnits="userSpaceOnUse"><stop stop-color="#9C0000"/><stop offset=".7" stop-color="#FF4B4B"/><stop offset="1" stop-color="#FF4B4B"/></linearGradient><clipPath id="clip0_80_27"><path fill="#fff" d="M0 0h256v256H0z"/></clipPath><clipPath id="clip1_80_27"><path fill="#fff" d="M40 40h175v175H40z"/></clipPath></defs></svg>