<svg xmlns="http://www.w3.org/2000/svg" fill="none" viewBox="0 0 256 256"><path fill="#282828" d="M196 0H60C26.863 0 0 26.863 0 60v136c0 33.137 26.863 60 60 60h136c33.137 0 60-26.863 60-60V60c0-33.137-26.863-60-60-60"/><path fill="red" fill-rule="evenodd" d="M87.574 198C49.167 198 18 166.94 18 128.558 18 90.172 49.167 59 87.574 59h80.865C206.855 59 238 90.171 238 128.558 238 166.94 206.855 198 168.439 198zm79.063-24.516c24.883 0 45.037-20.078 45.037-44.926 0-24.852-20.154-45.042-45.037-45.042H89.363c-24.87 0-45.037 20.19-45.037 45.042 0 24.848 20.167 44.926 45.037 44.926z" clip-rule="evenodd"/></svg>