<svg xmlns="http://www.w3.org/2000/svg" width="256" height="256" fill="none"><path fill="#644064" d="M196 0H60C26.863 0 0 26.863 0 60v136c0 33.137 26.863 60 60 60h136c33.137 0 60-26.863 60-60V60c0-33.137-26.863-60-60-60"/><path fill="#F4F4F4" d="M197.497 91.49c-21.531 20.372-52.26 24.039-80.386 27.422-20.79 2.851-44.28 7.184-57.924 24.781-11.782 15.773-8.076 38.578 4.276 52.831 2.565 3.858 10.832 10.832 12.125 10.072-11.327-16.001-11.175-41.048 4.94-53.971 17.047-14.291 40.289-13.493 60.87-18.434 12.295-2.337 25.275-6.651 36.487-10.148-15.773 14.139-36.829 19.688-56.441 26.13-16.534 5.854-32.725 19.441-33.162 38.198-.323 12.923 5.891 28.316 19.118 32.44 35.271 8.248 74.381-6.005 96.084-34.967 24.134-30.635 26.13-76.396 4.617-108.95-2.527 5.512-6.233 10.453-10.604 14.633z"/><path fill="#F4F4F4" d="M33.019 128.053c-.266 8.267 2.356 26.416 4.998 27.822 2.28-21.817 19.384-39.414 39.585-46.503 34.017-13.416 73.64-5.891 105.775-25.047 9.806-4.37 17.636-18.015 8.286-26.795-4.105-3.345-11.212-10.928-7.031-1.369 1.577 11.82-10.396 19.118-20.202 22.14-20.714 6.347-42.682 5.701-63.891 9.369-3.61.608-11.212 2.28-3.933-1.14 19.992-9.54 44.792-8.324 61.952-23.755 9.122-7.127 5.264-21.208-4.561-25.465-11.896-4.884-25.389-4.884-38.064-3.554-37.723 4.37-70.885 33.637-79.912 70.504a95.4 95.4 0 0 0-3.002 23.793"/></svg>