<svg xmlns="http://www.w3.org/2000/svg" width="256" height="256" fill="none"><path fill="#F4F2ED" d="M196 0H60C26.863 0 0 26.863 0 60v136c0 33.137 26.863 60 60 60h136c33.137 0 60-26.863 60-60V60c0-33.137-26.863-60-60-60"/><path fill="#123B6D" d="M215.01 133.251a4.813 4.813 0 1 0 0-9.627 4.813 4.813 0 0 0 0 9.627m-129.929.221a5.786 5.786 0 1 0-.001-11.572 5.786 5.786 0 0 0 .001 11.572"/><path fill="#123B6D" d="M150.531 127.687H83.138v3.224l62.712 34.448.839.442a8.84 8.84 0 0 0 7.684 0l.839-.442 62.712-34.448v-3.224zm0 0H83.138v-3.224l62.712-34.448.839-.442a8.83 8.83 0 0 1 7.684 0l.839.442 62.447 34.492v3.18z"/><path fill="#28A8EA" d="M200.126 50.001h-99.058a8.126 8.126 0 0 0-8.126 8.126v127.769a8.126 8.126 0 0 0 8.126 8.126h99.058a8.126 8.126 0 0 0 8.126-8.126V58.127a8.126 8.126 0 0 0-8.126-8.126"/><path fill="#14447D" d="M92.942 133.252h46.018v34.713H92.942z"/><path fill="#0364B8" d="M133.219 133.252h40.41v34.713h-40.41z"/><path fill="#0664B2" d="M92.942 99.82h40.277v33.432H92.942z"/><path fill="#0078D4" d="M173.628 133.252h34.669v34.713h-34.669zm-40.409-33.433h40.409v33.433h-40.409zM92.942 66.431h40.277v33.388H92.942z"/><path fill="#50D9FF" d="M173.629 66.43h34.668v33.39h-34.668z"/><path fill="#0358A7" d="M101.068 50.001h98.926a8.35 8.35 0 0 1 5.741 2.297 7.73 7.73 0 0 1 2.385 5.52v8.833H92.942v-8.833a7.994 7.994 0 0 1 8.126-7.817"/><path fill="url(#paint0_linear_332_271)" d="m217.924 130.911-62.712 34.404q-.397.281-.839.486a8.84 8.84 0 0 1-7.684 0 5.3 5.3 0 0 1-.839-.486l-62.624-34.404a3.68 3.68 0 0 1-1.899-3.224v69.471a8.48 8.48 0 0 0 8.833 8.347h121.007a8.48 8.48 0 0 0 8.117-5.06 8.5 8.5 0 0 0 .716-3.287v-69.471a3.67 3.67 0 0 1-1.899 3.224z"/><path fill="#0A2767" d="M150.531 166.684a8.8 8.8 0 0 1-3.842-.883l-63.154-34.67 2.827-4.858s61.828 34.095 63.021 34.581a3.1 3.1 0 0 0 2.429 0l63.153-34.713 2.694 4.769-63.286 34.891a8.8 8.8 0 0 1-3.842.883" opacity=".5"/><path fill="#28A8EA" d="M89.895 205.637h121.272a9.14 9.14 0 0 0 5.123-1.59l-69.601-38.246a5.3 5.3 0 0 1-.839-.486l-62.624-34.404-1.943-1.06v67.307a8.48 8.48 0 0 0 5.326 7.872 8.5 8.5 0 0 0 3.286.607"/><g fill="#000" opacity=".67"><path d="M134.323 83.124H87.554c-.223.375-.344.8-.353 1.237v86.695a2.914 2.914 0 0 0 2.915 2.826h40.232a5.696 5.696 0 0 0 5.786-5.609v-81.13a5.43 5.43 0 0 0-1.811-4.019" opacity=".05"/><path d="M119.749 96.197h-38.51v89.389h38.51a7.46 7.46 0 0 0 7.685-7.199v-75.08a7.463 7.463 0 0 0-7.685-7.11" opacity=".1"/><path d="M119.749 91.163h-38.51v89.257h38.51a7.464 7.464 0 0 0 7.685-7.155v-75.08a7.464 7.464 0 0 0-7.685-7.022" opacity=".2"/><path d="M128.052 83.302H87.819a2.87 2.87 0 0 0-2.915 2.782v86.74a2.87 2.87 0 0 0 2.915 2.782h40.233a5.695 5.695 0 0 0 5.697-5.564V88.867a5.694 5.694 0 0 0-5.697-5.565" opacity=".1"/><path d="M127.964 85.598H87.731a2.87 2.87 0 0 0-2.915 2.783v85.856a2.87 2.87 0 0 0 2.915 2.782l39.747.663a6.89 6.89 0 0 0 6.271-6.228v-80.29a5.697 5.697 0 0 0-5.785-5.566" opacity=".1"/><path d="M81.239 83.124v68.72h-.486v11.395a2.827 2.827 0 0 0 2.87 2.782l31.975-5.653c3.18 0 11.747-2.65 11.747-5.741V84.626a5.6 5.6 0 0 0-.309-1.502z" opacity=".01"/><path d="M119.749 93.504h-38.51v89.389h38.51a7.463 7.463 0 0 0 7.685-7.199v-75.08a7.464 7.464 0 0 0-7.685-7.11" opacity=".2"/><path d="M119.749 85.643h-38.51v87.534h38.51a7.51 7.51 0 0 0 7.685-7.199V92.842a7.51 7.51 0 0 0-7.685-7.2" opacity=".3"/><path d="M119.749 85.643h-38.51v87.093h38.51a7.466 7.466 0 0 0 7.685-7.199V92.842a7.51 7.51 0 0 0-7.685-7.2" opacity=".3"/><path d="M119.749 87.453h-38.51v89.389h38.51a7.51 7.51 0 0 0 7.685-7.199v-75.08a7.464 7.464 0 0 0-7.685-7.11" opacity=".3"/><path d="M119.749 89.131h-38.51v89.39h38.51a7.466 7.466 0 0 0 7.685-7.199v-75.08a7.463 7.463 0 0 0-7.685-7.11" opacity=".2"/><path d="M126.992 88.16H86.759a2.827 2.827 0 0 0-2.87 2.782v81.44a2.82 2.82 0 0 0 1.785 2.584c.345.137.714.204 1.085.198h40.233a5.64 5.64 0 0 0 4.052-1.577 5.64 5.64 0 0 0 1.733-3.987V93.725a5.693 5.693 0 0 0-5.785-5.565" opacity=".1"/><path d="M122.576 88.16H82.299a2.9 2.9 0 0 0-1.06.22v84.753c.35.067.71.067 1.06 0h40.277a5.654 5.654 0 0 0 5.741-5.565V93.725a5.64 5.64 0 0 0-1.718-3.972 5.65 5.65 0 0 0-4.023-1.593" opacity=".2"/><path d="M112.462 83.346H83.138a2.825 2.825 0 0 0-2.87 2.782v81.44a2.82 2.82 0 0 0 1.785 2.584c.345.137.714.204 1.085.198h40.277a5.65 5.65 0 0 0 5.438-3.365 5.7 5.7 0 0 0 .48-2.199V91.384c0-3.312-7.817-5.123-8.833-6.095a17.66 17.66 0 0 0-8.038-1.943" opacity=".3"/><path d="M124.916 92.178h-40.1a2.827 2.827 0 0 0-2.87 2.783V176.4a2.826 2.826 0 0 0 2.87 2.783h40.1a5.695 5.695 0 0 0 5.786-5.565V97.743a5.7 5.7 0 0 0-5.786-5.565" opacity=".1"/><path d="M121.472 80.607H92.766v24.777H81.239v48.006h-.486v11.439a2.83 2.83 0 0 0 .86 1.986 2.82 2.82 0 0 0 2.01.797l31.887-5.786c3.179 0 11.747-2.694 11.747-5.741V86.172a5.697 5.697 0 0 0-5.785-5.565" opacity=".1"/><path d="M121.472 81.976H92.766v23.408H81.239v49.42h-.486v11.439a2.827 2.827 0 0 0 2.87 2.782l31.975-5.653c3.18 0 11.747-2.65 11.747-5.742V87.585a5.7 5.7 0 0 0-3.659-5.235 5.7 5.7 0 0 0-2.214-.374" opacity=".15"/></g><path fill="#0078D4" d="M42.729 83.125h77.02a7.56 7.56 0 0 1 7.06 4.54c.395.91.607 1.888.625 2.88v74.285a7.15 7.15 0 0 1-2.253 5.211 7.82 7.82 0 0 1-5.432 2.209h-77.02a7.73 7.73 0 0 1-5.432-2.209A7.2 7.2 0 0 1 35 164.83V90.545a7.596 7.596 0 0 1 7.729-7.42"/><path fill="#fff" d="M57.17 113.775a23.86 23.86 0 0 1 9.583-10.247 30.1 30.1 0 0 1 15.28-3.533 27.65 27.65 0 0 1 14.133 3.533 23.7 23.7 0 0 1 9.363 9.717 30.9 30.9 0 0 1 3.268 14.397 32.55 32.55 0 0 1-3.401 15.061 23.85 23.85 0 0 1-9.627 10.113 31.57 31.57 0 0 1-29.104 0 24.33 24.33 0 0 1-9.45-9.804 30.1 30.1 0 0 1-3.313-14.221 33.1 33.1 0 0 1 3.268-14.928zM67.504 137.8a15.1 15.1 0 0 0 5.388 6.713 14.3 14.3 0 0 0 8.435 2.473 14.96 14.96 0 0 0 8.833-2.517 14.57 14.57 0 0 0 5.255-6.757 25.5 25.5 0 0 0 1.679-9.407 27.2 27.2 0 0 0-1.59-9.54 14.93 14.93 0 0 0-5.035-6.978 14.4 14.4 0 0 0-8.833-2.65 14.75 14.75 0 0 0-8.611 2.474 15.63 15.63 0 0 0-5.52 6.757 26.15 26.15 0 0 0 0 19.432"/><path fill="#fff" d="M57.17 113.775a23.86 23.86 0 0 1 9.583-10.247 30.1 30.1 0 0 1 15.28-3.533 27.65 27.65 0 0 1 14.133 3.533 23.7 23.7 0 0 1 9.363 9.717 30.9 30.9 0 0 1 3.268 14.397 32.55 32.55 0 0 1-3.401 15.061 23.85 23.85 0 0 1-9.627 10.113 31.57 31.57 0 0 1-29.104 0 24.33 24.33 0 0 1-9.45-9.804 30.1 30.1 0 0 1-3.313-14.221 33.1 33.1 0 0 1 3.268-14.928zM67.504 137.8a15.1 15.1 0 0 0 5.388 6.713 14.3 14.3 0 0 0 8.435 2.473 14.96 14.96 0 0 0 8.833-2.517 14.57 14.57 0 0 0 5.255-6.757 25.5 25.5 0 0 0 1.679-9.407 27.2 27.2 0 0 0-1.59-9.54 14.93 14.93 0 0 0-5.035-6.978 14.4 14.4 0 0 0-8.833-2.65 14.75 14.75 0 0 0-8.611 2.474 15.63 15.63 0 0 0-5.52 6.757 26.15 26.15 0 0 0 0 19.432" opacity=".4"/><path fill="url(#paint1_linear_332_271)" d="M57.17 113.775a23.86 23.86 0 0 1 9.583-10.247 30.1 30.1 0 0 1 15.28-3.533 27.65 27.65 0 0 1 14.133 3.533 23.7 23.7 0 0 1 9.363 9.717 30.9 30.9 0 0 1 3.268 14.397 32.55 32.55 0 0 1-3.401 15.061 23.85 23.85 0 0 1-9.627 10.113 31.57 31.57 0 0 1-29.104 0 24.33 24.33 0 0 1-9.45-9.804 30.1 30.1 0 0 1-3.313-14.221 33.1 33.1 0 0 1 3.268-14.928zM67.504 137.8a15.1 15.1 0 0 0 5.388 6.713 14.3 14.3 0 0 0 8.435 2.473 14.96 14.96 0 0 0 8.833-2.517 14.57 14.57 0 0 0 5.255-6.757 25.5 25.5 0 0 0 1.679-9.407 27.2 27.2 0 0 0-1.59-9.54 14.93 14.93 0 0 0-5.035-6.978 14.4 14.4 0 0 0-8.833-2.65 14.75 14.75 0 0 0-8.611 2.474 15.63 15.63 0 0 0-5.52 6.757 26.15 26.15 0 0 0 0 19.432"/><path fill="url(#paint2_linear_332_271)" d="M57.17 113.775a23.86 23.86 0 0 1 9.583-10.247 30.1 30.1 0 0 1 15.28-3.533 27.65 27.65 0 0 1 14.133 3.533 23.7 23.7 0 0 1 9.363 9.717 30.9 30.9 0 0 1 3.268 14.397 32.55 32.55 0 0 1-3.401 15.061 23.85 23.85 0 0 1-9.627 10.113 31.57 31.57 0 0 1-29.104 0 24.33 24.33 0 0 1-9.45-9.804 30.1 30.1 0 0 1-3.313-14.221 33.1 33.1 0 0 1 3.268-14.928zM67.504 137.8a15.1 15.1 0 0 0 5.388 6.713 14.3 14.3 0 0 0 8.435 2.473 14.96 14.96 0 0 0 8.833-2.517 14.57 14.57 0 0 0 5.255-6.757 25.5 25.5 0 0 0 1.679-9.407 27.2 27.2 0 0 0-1.59-9.54 14.93 14.93 0 0 0-5.035-6.978 14.4 14.4 0 0 0-8.833-2.65 14.75 14.75 0 0 0-8.611 2.474 15.63 15.63 0 0 0-5.52 6.757 26.15 26.15 0 0 0 0 19.432"/><defs><linearGradient id="paint0_linear_332_271" x1="377.309" x2="318.926" y1="442.184" y2="509.069" gradientUnits="userSpaceOnUse"><stop stop-color="#35B8F1"/><stop offset=".75" stop-color="#0D64AD"/></linearGradient><linearGradient id="paint1_linear_332_271" x1="259.185" x2="259.185" y1="403.137" y2="459.662" gradientUnits="userSpaceOnUse"><stop stop-color="#F2F2F2"/><stop offset="1" stop-color="#fff"/></linearGradient><linearGradient id="paint2_linear_332_271" x1="-447.395" x2="-447.395" y1="2184.66" y2="2178.87" gradientUnits="userSpaceOnUse"><stop stop-color="#F2F2F2"/><stop offset="1" stop-color="#fff"/></linearGradient></defs></svg>