<svg xmlns="http://www.w3.org/2000/svg" fill="none" viewBox="0 0 256 256"><rect width="256" height="256" fill="#F4F2ED" rx="60"/><path fill="#FF4848" fill-rule="evenodd" d="M84.97 85.761c1.86-22.913 14.491-40.629 35.731-41.278-24.657.39-45.94 12.821-50.829 35.128-.951 4.547-1.6 9.485-1.946 14.726 4.93-3.249 10.642-6.107 17.044-8.576m-2.855 18.798c0-2.209-1.082-4.028-2.422-4.028s-2.466 1.818-2.466 4.028 1.124 4.071 2.465 4.071c1.342 0 2.423-1.819 2.423-4.071" clip-rule="evenodd"/><path fill="url(#paint0_linear_7_2)" d="M84.97 85.761c1.86-22.913 14.491-40.629 35.731-41.278-24.657.39-45.94 12.821-50.829 35.128-.951 4.547-1.6 9.485-1.946 14.726 4.93-3.249 10.642-6.107 17.044-8.576m-2.855 18.798c0-2.209-1.082-4.028-2.422-4.028s-2.466 1.818-2.466 4.028 1.124 4.071 2.465 4.071c1.342 0 2.423-1.819 2.423-4.071"/><path fill="url(#paint1_linear_7_2)" fill-rule="evenodd" d="M190.73 87.138s20.211 67.048 5.392 121.686c0 0-46.918 30.753-114.707 1.668 0 0 0-33.017-25.341-98.426-2.797-5.358 15.932-13.573 43.227-17.808 38.906-6.036 91.429-7.12 91.429-7.12" clip-rule="evenodd"/><path fill="#592121" fill-rule="evenodd" d="M132.641 45.74c13.67 3.204 25.003 14.64 30.021 28.976.217.607.433 1.213.649 1.863 3.071 9.399 5.018 20.487 5.883 33.351.563 6.02.909 25.555 11.421 22.48 6.056-1.776 5.969-13.34 5.883-18.321-.043-4.246-.476-9.053-1.254-14.38-.866-5.935-2.12-12.519-3.807-19.752-.087-.303-.173-.563-.217-.866-8.954-29.8-26.171-44.83-51.607-45.09-33.44-.13-53.338 15.073-59.74 45.61 4.888-22.307 26.171-34.738 50.829-35.128 3.72-.13 7.699.26 11.939 1.256m46.589 69.171c1.947 0 3.548 2.599 3.548 5.804s-1.601 5.848-3.548 5.848c-1.946 0-3.504-2.599-3.504-5.848s1.601-5.804 3.504-5.804" clip-rule="evenodd"/><path fill="url(#paint2_linear_7_2)" d="M132.641 45.74c13.67 3.204 25.003 14.64 30.021 28.976.217.607.433 1.213.649 1.863 3.071 9.399 5.018 20.487 5.883 33.351.563 6.02.909 25.555 11.421 22.48 6.056-1.776 5.969-13.34 5.883-18.321-.043-4.246-.476-9.053-1.254-14.38-.866-5.935-2.12-12.519-3.807-19.752-.087-.303-.173-.563-.217-.866-8.954-29.8-26.171-44.83-51.607-45.09-33.44-.13-53.338 15.073-59.74 45.61 4.888-22.307 26.171-34.738 50.829-35.128 3.72-.13 7.699.26 11.939 1.256m46.589 69.171c1.947 0 3.548 2.599 3.548 5.804s-1.601 5.848-3.548 5.848c-1.946 0-3.504-2.599-3.504-5.848s1.601-5.804 3.504-5.804"/><path fill="url(#paint3_linear_7_2)" fill-rule="evenodd" d="M181.436 79.957c1.687 7.234 2.942 13.817 3.807 19.752 4.455-4.158 6.532-7.797 6.186-10.959-.044-.39-.13-.78-.216-1.17-.909-3.031-4.153-5.587-9.777-7.623m-90.54 45.826c28.031 1.689 54.117-3.595 78.298-15.853-.865-12.865-2.811-23.953-5.883-33.352-9.56-1.256-19.726-1.386-30.541-.476-26.907 9.01-40.88 25.599-41.874 49.681" clip-rule="evenodd"/><path fill="url(#paint4_linear_7_2)" fill-rule="evenodd" d="M132.77 76.102c-26.907 9.01-40.88 25.599-41.874 49.681a188 188 0 0 1-15.183-1.559c-7.744-2.166-13.323-4.678-16.698-7.624-2.466-2.122-3.634-4.201-3.937-6.194-.822-5.501 5.018-10.395 9.992-14.077a68 68 0 0 1 2.856-1.993c4.93-3.248 10.641-6.107 17.043-8.576 12.934-4.937 28.897-8.142 47.801-9.658m-53.078 24.429c1.341 0 2.423 1.819 2.423 4.029s-1.082 4.071-2.423 4.071-2.465-1.819-2.465-4.071c0-2.253 1.124-4.029 2.465-4.029" clip-rule="evenodd"/><defs><linearGradient id="paint0_linear_7_2" x1="72.133" x2="101.014" y1="93.769" y2="47.265" gradientUnits="userSpaceOnUse"><stop stop-color="#600400"/><stop offset="1" stop-color="#600400" stop-opacity="0"/></linearGradient><linearGradient id="paint1_linear_7_2" x1="128.675" x2="128.675" y1="87.138" y2="223" gradientUnits="userSpaceOnUse"><stop stop-color="#F9332B"/><stop offset="1" stop-color="#FF763C"/></linearGradient><linearGradient id="paint2_linear_7_2" x1="128.196" x2="128.196" y1="34" y2="132.736" gradientUnits="userSpaceOnUse"><stop stop-color="#C20800"/><stop offset="1" stop-color="#D81100"/></linearGradient><linearGradient id="paint3_linear_7_2" x1="141.181" x2="141.181" y1="75.512" y2="126.09" gradientUnits="userSpaceOnUse"><stop stop-color="#DB0800"/><stop offset="1" stop-color="#710400"/></linearGradient><linearGradient id="paint4_linear_7_2" x1="93.885" x2="93.885" y1="76.101" y2="125.783" gradientUnits="userSpaceOnUse"><stop stop-color="#9D0701"/><stop offset="1" stop-color="#4B0300"/></linearGradient></defs></svg>