<svg xmlns="http://www.w3.org/2000/svg" width="256" height="256" fill="none"><g clip-path="url(#clip0_85_158)"><path fill="#F4F2ED" d="M196 0H60C26.863 0 0 26.863 0 60v136c0 33.137 26.863 60 60 60h136c33.137 0 60-26.863 60-60V60c0-33.137-26.863-60-60-60"/><path fill="#130754" d="M103.713 51.345h19.123v39.71h-19.123zm0 81.573h19.123v39.711h-19.123z"/><path fill="#FFCA00" d="M103.713 102.646h19.123v18.737h-19.123z"/><path fill="#130754" d="M73 83.998h19.123V216H73zm60.799 81.685h19.123v39.711h-19.123zm0-81.638h19.123v39.711h-19.123z"/><path fill="#E70488" d="M133.799 135.348h19.123v18.736h-19.123z"/><path fill="#130754" d="M163.877 41H183v132.002h-19.123z"/></g><defs><clipPath id="clip0_85_158"><path fill="#fff" d="M0 0h256v256H0z"/></clipPath></defs></svg>