<svg xmlns="http://www.w3.org/2000/svg" width="256" height="256" fill="none"><g clip-path="url(#clip0_42_4)"><path fill="#03498F" d="M196 0H60C26.863 0 0 26.863 0 60v136c0 33.137 26.863 60 60 60h136c33.137 0 60-26.863 60-60V60c0-33.137-26.863-60-60-60"/><path fill="#F99D1E" d="m121.366 128.154 2.028-.563a389 389 0 0 0 44.09-16.144 163 163 0 0 0 40.568-23.102 88.1 88.1 0 0 0 28.454-40.203A36 36 0 0 0 239.07 40c-19.721 26.934-97.899 29.723-97.899 29.723l18.453-16.904A257.86 257.86 0 0 0 10 101.277a140.86 140.86 0 0 1 79.277 35.442c10.593-3.268 21.383-5.635 32.06-8.452M244 125.506s-72.15-5.635-147.06 18.622a141.7 141.7 0 0 1 24.735 35.301c39.442-21.947 93.984-49.979 122.325-53.923M126.606 190.67a140.6 140.6 0 0 1 8.93 37.33l68.656-70.715z"/></g><defs><clipPath id="clip0_42_4"><path fill="#fff" d="M0 0h256v256H0z"/></clipPath></defs></svg>