<svg xmlns="http://www.w3.org/2000/svg" fill="none" viewBox="0 0 256 256"><path fill="#282828" d="M196 0H60C26.863 0 0 26.863 0 60v136c0 33.137 26.863 60 60 60h136c33.137 0 60-26.863 60-60V60c0-33.137-26.863-60-60-60"/><g clip-path="url(#clip0_120_2379)"><path fill="url(#paint0_linear_120_2379)" d="M189.607 36h-49.039a7.635 7.635 0 0 0-7.635 7.635v169.73a7.635 7.635 0 0 0 7.635 7.635h49.039a7.635 7.635 0 0 0 7.635-7.635V43.635A7.635 7.635 0 0 0 189.607 36"/><g filter="url(#filter0_d_120_2379)"><path fill="#000" d="M159.361 213.365V221h-56.675a7.635 7.635 0 0 1-7.635-7.635V89.738a7.635 7.635 0 0 1 7.635-7.635h49.04a7.635 7.635 0 0 1 7.635 7.635z"/></g><path fill="url(#paint1_linear_120_2379)" d="M159.361 213.365V221h-56.675a7.635 7.635 0 0 1-7.635-7.635V89.738a7.635 7.635 0 0 1 7.635-7.635h49.04a7.635 7.635 0 0 1 7.635 7.635z"/><path fill="url(#paint2_linear_120_2379)" fill-rule="evenodd" d="M122.067 213.365V221H65.392a7.635 7.635 0 0 1-7.634-7.635v-77.23a7.635 7.635 0 0 1 7.635-7.635h49.039a7.635 7.635 0 0 1 7.635 7.635z" clip-rule="evenodd"/></g><defs><linearGradient id="paint0_linear_120_2379" x1="3348.41" x2="3348.41" y1="36" y2="18536" gradientUnits="userSpaceOnUse"><stop stop-color="#EBBB14"/><stop offset="1" stop-color="#B25400"/></linearGradient><linearGradient id="paint1_linear_120_2379" x1="3310.53" x2="3310.53" y1="82.103" y2="13971.8" gradientUnits="userSpaceOnUse"><stop stop-color="#F9E583"/><stop offset="1" stop-color="#DE9800"/></linearGradient><linearGradient id="paint2_linear_120_2379" x1="3273.23" x2="3273.23" y1="128.5" y2="9378.5" gradientUnits="userSpaceOnUse"><stop stop-color="#F9E68B"/><stop offset="1" stop-color="#F3CD32"/></linearGradient><clipPath id="clip0_120_2379"><path fill="#fff" d="M35 36h185v185H35z"/></clipPath><filter id="filter0_d_120_2379" width="104.31" height="178.897" x="95.051" y="72.103" color-interpolation-filters="sRGB" filterUnits="userSpaceOnUse"><feFlood flood-opacity="0" result="BackgroundImageFix"/><feColorMatrix in="SourceAlpha" result="hardAlpha" values="0 0 0 0 0 0 0 0 0 0 0 0 0 0 0 0 0 0 127 0"/><feOffset dx="20" dy="10"/><feGaussianBlur stdDeviation="10"/><feColorMatrix values="0 0 0 0 0 0 0 0 0 0 0 0 0 0 0 0 0 0 0.0530212 0"/><feBlend in2="BackgroundImageFix" result="effect1_dropShadow_120_2379"/><feBlend in="SourceGraphic" in2="effect1_dropShadow_120_2379" result="shape"/></filter></defs></svg>