<svg xmlns="http://www.w3.org/2000/svg" fill="none" viewBox="0 0 256 256"><rect width="256" height="256" fill="#1AA44A" rx="60"/><path fill="#fff" d="M193.1 127.7v3.9L61.1 167c-12.3-18.9-15-42.6-7.5-63.9 7.8-21.3 25.2-37.8 47.1-44.1 21.6-6.6 45.3-2.4 63.3 11.1 18.3 13.5 29.1 34.8 29.1 57.6M107 198.2q-6.9-1.5-13.5-4.2t-12.3-6.9q-6-3.9-11.1-9l120.6-32.4c-2.1 7.5-5.1 15-9.6 21.6-4.2 6.6-9.6 12.3-15.9 17.1s-13.2 8.7-20.7 11.1c-7.5 2.7-15.3 3.9-23.4 3.9q-6.9 0-14.1-1.2" opacity=".4"/><path fill="#fff" d="M49.4 172.4V82.7l165.9 45z"/><path fill="#17542E" d="M58.4 89.6v76.2l-9 6.6v-16.8h-6.6v-11.1h6.6v-33.6h-6.6V99.5h6.6V82.7z"/></svg>