<svg xmlns="http://www.w3.org/2000/svg" fill="none" viewBox="0 0 256 256"><path fill="#001E36" d="M196 0H60C26.863 0 0 26.863 0 60v136c0 33.137 26.863 60 60 60h136c33.137 0 60-26.863 60-60V60c0-33.137-26.863-60-60-60"/><path fill="#31A8FF" d="M91.8 85.313a32.5 32.5 0 0 0-12.1-8.2 50 50 0 0 0-18.5-3.1c-2.7 0-5.4 0-8.2.1s-5.4.1-7.8.2-4.8.1-6.9.2-3.8-.2-5.4-.2c-.6 0-.9.4-.9 1.1v102.4c0 .9.3 1.5 1 1.5h17.5c.9 0 1.3-.5 1.3-1.4v-31.3c1.7 0 3 0 3.9.1s2.4.1 4.5.1a52.6 52.6 0 0 0 20.3-3.8 31.2 31.2 0 0 0 14.5-12.1c3.6-5.6 5.4-12.7 5.4-21.2a44.1 44.1 0 0 0-2-13 33.4 33.4 0 0 0-6.6-11.4m-13.9 35.1a15.67 15.67 0 0 1-7.4 5.3 30.2 30.2 0 0 1-10.4 1.6h-4.8c-1.1 0-2.2-.1-3.5-.2v-33.2c1.2-.1 2.5-.2 3.7-.2 1.8-.1 3.8-.1 6.2-.1 3.634-.082 7.245.6 10.6 2a14.46 14.46 0 0 1 6.3 5.7 17.2 17.2 0 0 1 2.1 8.9c0 4.3-1 7.8-2.8 10.2m69.2 17a60.8 60.8 0 0 0-13.8-7.3c-2.2-1-4.3-2.1-6.4-3.3a9.7 9.7 0 0 1-3-2.7 5.8 5.8 0 0 1-.9-2.6 5 5 0 0 1 .7-2.7 5.07 5.07 0 0 1 2.8-2 16.7 16.7 0 0 1 5.4-.7 38.4 38.4 0 0 1 10.1 1.3 27.4 27.4 0 0 1 8.3 3.4.91.91 0 0 0 1 0 1 1 0 0 0 .4-1v-16.3a5 5 0 0 0-.1-1.2 1.6 1.6 0 0 0-.9-.9 20.8 20.8 0 0 0-7.3-2.3 69.6 69.6 0 0 0-11.2-.9c-6.4 0-11.7 1.2-15.9 3.5a23.1 23.1 0 0 0-9.4 9.2 24.4 24.4 0 0 0-3 12.1 25.5 25.5 0 0 0 2.1 10.2 23.2 23.2 0 0 0 6.8 8.4 49 49 0 0 0 12.8 7.2c4.4 1.8 7.4 3.4 8.8 4.7a5.44 5.44 0 0 1 2.2 4 4.7 4.7 0 0 1-2.4 4.2c-1.6 1-4.1 1.4-7.5 1.4a47.6 47.6 0 0 1-10.6-1.5 35 35 0 0 1-10.8-4.8.92.92 0 0 0-1 .1 1 1 0 0 0-.4.9v17.4a1.84 1.84 0 0 0 1.2 1.7 34.8 34.8 0 0 0 8.9 3.1 55.6 55.6 0 0 0 12.2 1.3c6.5 0 11.9-1.1 16.3-3.2a23 23 0 0 0 10.1-8.9 24.77 24.77 0 0 0 3.5-13.3 24.4 24.4 0 0 0-2.1-10.3 21 21 0 0 0-6.9-8.2m75.7-52.8a25.4 25.4 0 0 0-6.7-1.7c-3.385-.4-6.791-.6-10.2-.6-9.8 0-18.4 2.1-25.5 6.2a43.05 43.05 0 0 0-16.6 17.5c-3.9 7.4-5.8 16.2-5.8 26a65.8 65.8 0 0 0 2.2 17.6 46.4 46.4 0 0 0 6.4 13.7 40.1 40.1 0 0 0 9.8 9.9 39 39 0 0 0 12.7 6 55.3 55.3 0 0 0 14.6 2 70.4 70.4 0 0 0 10.3-.7 32 32 0 0 0 8.1-2 2.69 2.69 0 0 0 1.5-2.7v-14.9a1.74 1.74 0 0 0-.5-1.5 1.2 1.2 0 0 0-1.6.1 32.6 32.6 0 0 1-7 1.7 85 85 0 0 1-8.7.4 29.4 29.4 0 0 1-7.8-1.1 30 30 0 0 1-7.6-3.2 21.9 21.9 0 0 1-6.3-5.8 30.4 30.4 0 0 1-4.4-8.6 38.5 38.5 0 0 1-1.6-11.7 36.75 36.75 0 0 1 3.3-16 25.1 25.1 0 0 1 9.4-10.5 27.7 27.7 0 0 1 14.6-3.8 49.7 49.7 0 0 1 9.4.8 23.5 23.5 0 0 1 7.2 2.4 1.48 1.48 0 0 0 1.3 0 1.73 1.73 0 0 0 .6-1.5v-15.6a2.9 2.9 0 0 0-1.1-2.4"/></svg>