<svg xmlns="http://www.w3.org/2000/svg" fill="none" viewBox="0 0 256 256"><path fill="#001E36" d="M196 0H60C26.863 0 0 26.863 0 60v136c0 33.137 26.863 60 60 60h136c33.137 0 60-26.863 60-60V60c0-33.137-26.863-60-60-60"/><path fill="#31A8FF" d="M88.9 86.313a32.5 32.5 0 0 0-12.1-8.2 50 50 0 0 0-18.5-3.1c-2.7 0-5.4 0-8.2.1s-5.4.1-7.8.2-4.8.1-6.9.2-4 .1-5.5.1c-.6 0-.9.4-.9 1.1v102.3c0 .9.3 1.3 1 1.3h17.7c.9 0 1.3-.5 1.3-1.4v-31.2c1.7 0 3 0 3.9.1s2.4.1 4.5.1a52.6 52.6 0 0 0 20.3-3.8 31.2 31.2 0 0 0 14.5-12.1c3.6-5.6 5.4-12.7 5.4-21.2a44.1 44.1 0 0 0-2-13 33.15 33.15 0 0 0-6.7-11.5m-13.9 35.1a15.67 15.67 0 0 1-7.4 5.3 30.2 30.2 0 0 1-10.4 1.6h-4.8c-1.1 0-2.2-.1-3.5-.2v-33.2c1.2-.1 2.5-.2 3.7-.2 1.8-.1 3.8-.1 6.2-.1 3.634-.082 7.245.6 10.6 2a14.46 14.46 0 0 1 6.3 5.7 17.2 17.2 0 0 1 2.1 8.9c0 4.3-.9 7.7-2.8 10.2m69.2 16.4a60.8 60.8 0 0 0-13.8-7.3c-2.2-1-4.3-2.1-6.4-3.3a9.7 9.7 0 0 1-3-2.7 5.8 5.8 0 0 1-.9-2.6 5 5 0 0 1 .7-2.7 5.07 5.07 0 0 1 2.8-2 16.7 16.7 0 0 1 5.4-.7c3.41-.018 6.806.42 10.1 1.3a26.3 26.3 0 0 1 8.1 3.4.91.91 0 0 0 1 0 1 1 0 0 0 .4-1v-16.2a5 5 0 0 0-.1-1.2 1.6 1.6 0 0 0-.9-.9 19.9 19.9 0 0 0-7-2.3 69.6 69.6 0 0 0-11.2-.9c-6.4 0-11.7 1.2-15.9 3.5a23.1 23.1 0 0 0-9.4 9.2 24.4 24.4 0 0 0-3 12.1 25.5 25.5 0 0 0 2.1 10.2 23.2 23.2 0 0 0 6.8 8.4 49 49 0 0 0 12.8 7.2c4.4 1.8 7.4 3.4 8.8 4.7a5.44 5.44 0 0 1 2.2 4 4.7 4.7 0 0 1-2.4 4.2c-1.6 1-4.1 1.4-7.5 1.4a47.6 47.6 0 0 1-10.6-1.5 32.6 32.6 0 0 1-10.3-4.9.76.76 0 0 0-.8-.1 1 1 0 0 0-.4.9v17.4a2.05 2.05 0 0 0 1 1.9 28 28 0 0 0 8.3 3.2 55.6 55.6 0 0 0 12.2 1.3c6.5 0 11.9-1.1 16.3-3.2a23 23 0 0 0 10.1-8.9 24.77 24.77 0 0 0 3.5-13.3 24.4 24.4 0 0 0-2.1-10.3 20.44 20.44 0 0 0-6.9-8.3"/><path fill="#31A8FF" d="m226.6 177.613-25.6-46.1 23.9-43.4a1.38 1.38 0 0 0 .2-1.6 1.35 1.35 0 0 0-1.5-.8h-17a2.15 2.15 0 0 0-1.5.4c-.347.322-.59.74-.7 1.2-1.7 3.8-3.6 7.1-5.4 10.9s-3.7 7.6-5.4 11.3c-1.6 3.3-3.2 6.8-4.7 10.3-1.5-3.4-3.1-6.8-4.8-10.1-2-3.8-3.9-7.6-5.8-11.4s-3.6-7.2-5.2-11.2a2.58 2.58 0 0 0-2.5-1.3h-18.3a1.6 1.6 0 0 0-1.3.6 1.35 1.35 0 0 0 .1 1.6l24.2 45-24.8 44.7a1.74 1.74 0 0 0-.3 1.4 1.25 1.25 0 0 0 .398.872 1.23 1.23 0 0 0 .902.328h17.7a2.37 2.37 0 0 0 2.4-1.7c1.9-3.8 3.8-7 5.6-10.8s3.6-7.6 5.5-11.4c1.6-3.4 3.3-6.9 4.8-10.3 1.7 3.5 3.4 7 5.2 10.5 1.9 3.8 3.8 7.6 5.5 11.3s3.5 6.9 5.2 10.6a3.56 3.56 0 0 0 3.3 1.8h18.5a1.41 1.41 0 0 0 1.4-1.1 1.8 1.8 0 0 0 0-1.6"/></svg>