<svg xmlns="http://www.w3.org/2000/svg" fill="none" viewBox="0 0 256 256"><rect width="256" height="256" fill="#F4F2ED" rx="60"/><path fill="#232323" d="m62.034 184.231-4.372 10.353a6.93 6.93 0 0 0 3.76 8.725 7.09 7.09 0 0 0 9.048-2.393l1.499-3.582z"/><path fill="#516CB3" d="M128.55 49.625a51.36 51.36 0 0 1 30.731 10.313 2.806 2.806 0 0 0 3.685 0 2.65 2.65 0 0 0 .2-3.7 12 12 0 0 0-6.188-4.076 21.39 21.39 0 0 1 17.401-6.607c15.97 0 49.899 23.196 49.899 66.688 0 41.758-27.342 50.758-34.774 50.758-11.31 0-23.038-11.688-23.038-19.12a33.58 33.58 0 0 0 16.245-22.825s.598-17.813 0-32.903a3.17 3.17 0 0 0-.949-1.747 3.14 3.14 0 0 0-1.794-.832 2.83 2.83 0 0 0-2.021.805 2.87 2.87 0 0 0-.866 2.007c0 1.685.742 12.114.185 30.842a25.16 25.16 0 0 1-14.341 19.731 108 108 0 0 0 3.63-12.561c.351-1.643 0-2.784-1.093-3.252a2.43 2.43 0 0 0-2.75.55c-.23.244-.408.531-.523.846-.735 1.478-26.709 85.937-62.638 85.937-30.353 0-47.85-43.312-47.85-53.246a12.96 12.96 0 0 1 6.873-13.193 13 13 0 0 1 5.049-1.424A22.9 22.9 0 0 1 77.73 150c.928 1.788-4.001 6.071-4.001 6.071l-4.297-3.438a2.65 2.65 0 0 0-1.695-.554 2.65 2.65 0 0 0-1.66.65 2.504 2.504 0 0 0-.069 3.514c1.093 1.1 33.908 27.541 33.908 27.541a3.06 3.06 0 0 0 3.905.254 2.593 2.593 0 0 0 .116-3.637l-9.24-7.445 9.845-27.707s-15.124-6.751-24.97.688a19.18 19.18 0 0 0-15.544-8.669 17.2 17.2 0 0 0-11.949 4.578 17.44 17.44 0 0 0-5.555 11.592 59.45 59.45 0 0 1-14.774-40.969c0-30.098 23.836-66.928 51.473-66.928a26.92 26.92 0 0 1 17.105 6.112l-6.105 4.64a2.8 2.8 0 0 0-.206 3.837 2.59 2.59 0 0 0 3.486.35 44.6 44.6 0 0 1 31.047-10.855"/><path fill="#232323" d="m85.74 165.812 8.751-19.827a65.4 65.4 0 0 0 10.608 1.1 40.47 40.47 0 0 0 39.607-40.831A41.253 41.253 0 0 0 74.76 75.948a41.26 41.26 0 0 0-12.554 28.973 40.05 40.05 0 0 0 18.563 35.337l-7.04 15.874zm68.117-58.368a2.19 2.19 0 0 1-1.856-1.025 2.2 2.2 0 0 1-.124-2.124 10.3 10.3 0 0 1 8.552-5.837 10.19 10.19 0 0 1 8.532 5.5 2.22 2.22 0 0 1 .172 1.705 2.2 2.2 0 0 1-.414.767 2.2 2.2 0 0 1-.679.546 2.2 2.2 0 0 1-1.7.12 2.2 2.2 0 0 1-1.27-1.137 5.83 5.83 0 0 0-4.641-3.108c-2.976 0-4.578 3.307-4.606 3.307a2.18 2.18 0 0 1-1.966 1.279z"/><path fill="#D2D2D2" d="M103.422 132.813a26.53 26.53 0 0 0 24.654-16.248 26.54 26.54 0 0 0-19.213-36.303 26.538 26.538 0 0 0-31.786 26.013 26.443 26.443 0 0 0 26.345 26.538"/><path fill="#232323" d="M103.422 119.984a13.69 13.69 0 0 0 12.721-8.387 13.7 13.7 0 0 0 .819-7.921A13.69 13.69 0 0 0 98.3 93.627a13.69 13.69 0 0 0-8.477 12.662 13.647 13.647 0 0 0 13.599 13.695"/></svg>