<svg xmlns="http://www.w3.org/2000/svg" width="256" height="256" fill="none"><rect width="256" height="256" fill="#282828" rx="60"/><path fill="#F4F2ED" d="M137 70c9.48 6.908 13.37 16.958 15.496 28.164 2.27 17.281.547 35.602-10.09 49.992-4.316 4.805-9.35 6.875-15.406 8.844l-3 1c-8.588.743-16.7.193-23.777-5.062-3.992-3.482-6.834-6.16-9.223-10.938l-1 50H57V67h33l1 15 2.063-3.625c3.813-6.052 8.673-10.686 15.59-12.898 10.134-2.058 19.304-.4 28.347 4.523"/><rect width="30" height="40" x="90" y="90" fill="#282828" rx="60"/><path fill="#F4F2ED" d="M188.105 124.852C193.323 127.73 196.71 131.49 199 137c.938 5.834-.722 10.233-4 15-3.878 4.007-7.164 6.152-12.75 6.313-4.882-.057-7.509-1.017-11.25-4.313-3.848-4.169-5.695-7.693-6.437-13.312.67-5.658 3-9.537 7.269-13.305 5.314-3.71 10.14-5.012 16.273-2.531"/></svg>