<svg xmlns="http://www.w3.org/2000/svg" fill="none" viewBox="0 0 256 256"><rect width="256" height="256" fill="#F4F2ED" rx="60"/><path fill="#078340" d="M128.053 209.858H41.366c-2.911 0-5.924.36-7.675-2.762-1.805-3.223.305-5.428 1.995-7.81q12.758-17.805 25.446-35.659a12.8 12.8 0 0 1 4.296-3.942 2272 2272 0 0 0 27.482-15.56 3.66 3.66 0 0 1 4.818.197 14.57 14.57 0 0 0 17.033.889 2.95 2.95 0 0 1 3.826 0 1452 1452 0 0 0 21.714 15.804 4.52 4.52 0 0 1 1.69 3.732 15.566 15.566 0 0 0 30.752 2.036 5.93 5.93 0 0 1 3.305-4.425c3.393-1.805 6.718-3.65 9.887-5.767 2.035-1.358 3.182-1.358 4.702.807 10.05 14.325 20.228 28.561 30.4 42.797 1.513 2.117 2.782 4.14 1.309 6.84-1.472 2.701-3.793 2.837-6.419 2.837a35260 35260 0 0 0-87.874-.014"/><path fill="#00B353" d="M106.902 116.216a15.1 15.1 0 0 0-15.336 13.571 5.92 5.92 0 0 1-3.644 5.3c-5.11 2.714-10.083 5.673-15.118 8.509a8.01 8.01 0 0 1-9.154-2.816 5.43 5.43 0 0 1 .23-7.505q15.432-21.45 30.746-42.967l27.944-39.174c3.902-5.469 7.152-5.516 10.993-.115l57.678 80.96c3.997 5.612 3.61 7.335-2.328 10.857-5.428 3.196-10.945 6.297-16.339 9.575a3.175 3.175 0 0 1-3.629.493 3.2 3.2 0 0 1-.999-.819 15.095 15.095 0 0 0-19.591-1.14 3.1 3.1 0 0 1-2.208.893 3.1 3.1 0 0 1-2.189-.941 755 755 0 0 0-19.128-13.944 5.02 5.02 0 0 1-2.389-4.818 15.43 15.43 0 0 0-15.539-15.919"/></svg>