<svg xmlns="http://www.w3.org/2000/svg" width="256" height="256" fill="none"><rect width="256" height="256" fill="#282828" rx="50"/><path fill="#E2574C" d="M103.878 172.836v-14.473l-40.212 11.403s2.971-17.265 23.943-23.214c6.36-1.802 11.786-1.79 16.269-.924V86.265h20.134c-2.192-6.775-4.313-11.99-6.094-15.614-2.947-5.998-5.967-2.022-12.825 3.714-4.829 4.034-17.036 12.642-35.404 17.592-18.369 4.953-33.219 3.64-39.415 2.566-8.784-1.515-13.378-3.444-12.948 3.237.374 5.893 1.777 15.03 4.993 27.097 6.956 26.132 29.947 76.486 73.397 64.783 11.349-3.058 19.36-9.103 24.913-16.807h-16.751zM38.99 125.215l30.878-8.134s-.9 11.879-12.475 14.931c-11.58 3.048-18.403-6.797-18.403-6.797"/><path fill="#2EAD33" d="M220.088 86.951c-8.026 1.407-27.282 3.16-51.08-3.219-23.804-6.375-39.597-17.524-45.855-22.765-8.87-7.43-12.772-12.593-16.612-4.783-3.395 6.889-7.736 18.1-11.938 33.794-9.105 33.985-15.91 105.703 40.376 120.795 56.275 15.079 86.234-50.437 95.34-84.426 4.202-15.691 6.045-27.573 6.552-35.234.578-8.679-5.384-6.16-16.783-4.162m-113.09 28.117s8.871-13.796 23.915-9.52c15.054 4.277 16.22 20.92 16.22 20.92zm36.725 61.908c-26.463-7.751-30.544-28.853-30.544-28.853l71.087 19.874c0-.003-14.349 16.634-40.543 8.979m25.133-43.366s8.859-13.787 23.9-9.498c15.042 4.282 16.226 20.925 16.226 20.925z"/><path fill="#D65348" d="m89.826 162.348-26.16 7.415s2.842-16.189 22.113-22.604L70.966 91.568l-1.28.389c-18.369 4.953-33.219 3.64-39.415 2.566-8.784-1.515-13.378-3.444-12.948 3.238.374 5.893 1.777 15.029 4.993 27.096 6.957 26.132 29.947 76.486 73.397 64.783l1.28-.402zM38.99 125.216l30.878-8.135s-.9 11.879-12.475 14.931c-11.58 3.048-18.403-6.796-18.403-6.796"/><path fill="#1D8D22" d="m144.916 177.266-1.196-.29c-26.463-7.751-30.544-28.853-30.544-28.853l36.657 10.246 19.407-74.575-.235-.062c-23.804-6.375-39.597-17.524-45.855-22.765-8.87-7.43-12.772-12.593-16.612-4.783-3.392 6.889-7.733 18.1-11.935 33.794-9.105 33.985-15.91 105.703 40.376 120.794l1.154.26zm-37.918-62.198s8.871-13.796 23.915-9.52c15.054 4.277 16.22 20.92 16.22 20.92z"/><path fill="#C04B41" d="m91.159 161.968-7.016 1.991c1.658 9.344 4.58 18.31 9.164 26.231.798-.176 1.59-.327 2.403-.55 2.13-.575 4.106-1.286 6.008-2.063-5.124-7.602-8.513-16.358-10.56-25.609m-2.74-65.806c-3.605 13.455-6.83 32.823-5.942 52.248 1.589-.689 3.268-1.332 5.132-1.861l1.299-.29c-1.583-20.75 1.84-41.895 5.695-56.281.977-3.64 1.957-7.024 2.934-10.181a91 91 0 0 1-5.198 3.085 267 267 0 0 0-3.92 13.28"/></svg>