<svg xmlns="http://www.w3.org/2000/svg" fill="none" viewBox="0 0 256 256"><path fill="#282828" d="M196 0H60C26.863 0 0 26.863 0 60v136c0 33.137 26.863 60 60 60h136c33.137 0 60-26.863 60-60V60c0-33.137-26.863-60-60-60"/><g clip-path="url(#clip0_0_1)"><path fill="#B9CED9" d="M97.792 73.903c-20.14 0-36.459-2.814-36.459-6.286v67.89c0 3.472 16.32 6.286 36.459 6.286s36.458-2.815 36.458-6.286V67.62c0 3.471-16.319 6.283-36.458 6.283"/><path fill="#A1BDCC" d="M61.333 67.62v67.887c0 3.472 16.32 6.286 36.459 6.286v-67.89c-20.136 0-36.459-2.812-36.459-6.284m67.889 3.188v67.887c3.194-.934 5.028-2.023 5.028-3.186V67.619c0 1.164-1.833 2.256-5.028 3.188"/><path fill="#8AADBF" d="M97.792 73.906c20.135 0 36.458-2.815 36.458-6.287s-16.323-6.286-36.458-6.286c-20.136 0-36.459 2.815-36.459 6.287s16.323 6.286 36.459 6.286"/><path fill="#789EB2" d="M61.333 110.361c0 3.472 16.32 6.286 36.459 6.286s36.458-2.814 36.458-6.286v5.029c0 3.472-16.319 6.286-36.458 6.286-20.14 0-36.459-2.812-36.459-6.284zm72.917-22.627c0 3.472-16.319 6.286-36.458 6.286-20.14 0-36.459-2.814-36.459-6.286v5.03c0 3.471 16.32 6.285 36.459 6.285s36.458-2.814 36.458-6.286z"/><path fill="#F80000" d="M186.333 107.167H115.5a8.333 8.333 0 0 0-8.333 8.333v70.833a8.333 8.333 0 0 0 8.333 8.334h70.833a8.334 8.334 0 0 0 8.334-8.334V115.5a8.333 8.333 0 0 0-8.334-8.333"/><path fill="#fff" d="M129.627 134.239h12.56c6.373 0 8.866 3.879 8.866 9.976 0 3.786-1.107 9.791-9.281 9.791H136.6v13.577h-6.973zm6.973 14.639h3.879c2.078 0 3.509-2.263 3.509-4.479 0-2.725-.738-5.034-3.878-5.034h-3.51zm19.165 18.705v-33.344h6.973v27.801h10.436v5.543z"/></g><defs><clipPath id="clip0_0_1"><path fill="#fff" d="M28 28h200v200H28z"/></clipPath></defs></svg>