<svg xmlns="http://www.w3.org/2000/svg" fill="none" viewBox="0 0 256 256"><path fill="#282828" d="M196 0H60C26.863 0 0 26.863 0 60v136c0 33.137 26.863 60 60 60h136c33.137 0 60-26.863 60-60V60c0-33.137-26.863-60-60-60"/><path fill="url(#paint0_linear_0_1)" d="m174.665 56.536 7.204 11.663s2.659 4.36-.904 6.961-6.093-1.418-6.093-1.418a129 129 0 0 1-5.758-8.564c-6.352 9.85-6.455 9.798-6.455 9.798 8.598 15.184 18.926 28.607 25.742 43.265 2.685 8.932.258 17.863-4.828 25.218-1.549 2.181-4.958 4.361-7.72 2.469-2.737-1.838-1.136-5.411.258-8.143a23.9 23.9 0 0 0 3.537-7.355 18.08 18.08 0 0 0-1.704-13.056 3486 3486 0 0 0-20.682-33.887l-6.196 9.72c4.415 8.222 9.243 14.343 13.658 23.432 1.317 3.52 1.808 6.331 1.704 10.008a24.2 24.2 0 0 1-2.84 11.007C159.302 145.981 149 161.191 149 161.191l6.171 10.139s10.689-17.127 11.309-17.784c1.498-1.681 4.338-1.76 6.016-.683 1.704 1.104 2.376 3.415 1.885 4.834-4.028 7.014-14.459 21.672-14.459 21.672l6.661 10.77s21.87-31.05 30.055-45.261c3.279-5.911 6.377-12.189 6.868-17.18.542-10.77-8.856-20.148-17.635-35.62 0 0-3.357-5.57.516-8.039 3.925-2.47 6.842 3.073 6.842 3.073l17.042 27.583c3.614 7.907 3.898 13.134.516 22.538-5.99 10.797-27.369 43.344-38.988 61.601L178.022 209c2.194-.998 6.455-4.203 8.623-7.093 12.73-19.727 25.304-39.114 38.059-59.315a24.2 24.2 0 0 0 5.295-14.927 24.22 24.22 0 0 0-5.037-15.019c-7.436-11.69-19.029-32.679-35.709-58.606a27.9 27.9 0 0 0-8.469-7.04zM149.8 69.959v.158c0 .157 0 .236.026.157a.45.45 0 0 0 0-.289c0-.052-.026-.079-.026-.026"/><path fill="url(#paint1_linear_0_1)" d="M119.324 44.044a799 799 0 0 1-12.343 20.288 30 30 0 0 1-9.469 8.692 30.3 30.3 0 0 1-12.276 3.965c-13.49.644-19.01.516-31.405.773-2.37 2.836-4.714 6.883-6.51 9.693 6.848.232 16.614-.154 24.999.052 2.083.722 3.411 2.706 3.073 4.64a4.26 4.26 0 0 1-1.122 2.261 4.33 4.33 0 0 1-2.212 1.245l-30.962.773s-6.328 9.435-6.407 9.693c13.203-.155 43.437-.644 61.614-.902 9.427.412 15.182-.103 21.093-3.687 3.255-2.165 5.599-5.078 9.453-11.652 5.469-9.1 7.448-12.58 14.01-22.685 0 0 2.839-2.346 5.964-.541 3.125 1.804 1.562 5.62 1.562 5.62-6.901 11.29-12.135 21.138-19.27 31.011-11.094 11.936-27.344 10.621-37.526 10.776l-63.045.825A21.3 21.3 0 0 0 25.003 127h102.472L180 47.446a28.54 28.54 0 0 0-14.609-3.428l-8.307 13.173s-2.11 2.964-5.599 1.392c-3.516-1.573-2.292-4.64-2.292-4.64l5.391-9.9h-12.083c-10.313 15.004-15.677 27.197-27.343 42.87-8.802 7.554-18.073 9.152-27.943 8.405-1.927-.464-3.255-1.779-3.515-3.48-.365-2.243 1.172-4.28 3.672-4.821q5.216-.23 10.416-.722a20.56 20.56 0 0 0 11.979-6.96c6.901-10.105 13.255-21.551 21.718-35.317z"/><path fill="url(#paint2_linear_0_1)" d="M127.322 129H25.056c-.364 1.963 1.118 7.75 2.418 10.746.597 1.137 1.897 3.307 2.21 3.643.207.206 6.992.258 55.552.516 18.716.13 18.171.104 21.68.801 6.239 1.24 11.49 4.082 15.675 8.447 1.586 1.654 2.756 3.126 4.472 5.761 4.107 6.303 15.857 25.471 15.857 25.471s2.625 4.34-1.3 6.51-6.811-1.783-6.811-1.783l-12.374-19.994c-4.809-8.008-6.889-10.643-10.242-12.89a21.9 21.9 0 0 0-11.828-3.72c-2.781-.13-65.249-.155-65.249-.155l6.24 9.816 24.825.129s4.315.749 4.03 4.34c-.26 3.617-3.38 4.107-3.38 4.107s-10.658.052-19.86.259l5.952 9.661c10.398.31 21.758-.258 31.195 1.085 4.55 1.008 8.838 3.048 12.322 5.838 6.967 6.019 7.279 9.093 17.261 24.386h12.166c-5.823-9.48-12.166-19.555-17.573-28.261a95 95 0 0 0-2.34-3.616 20.35 20.35 0 0 0-11.646-8.112c-5.017-1.033-8.76-.723-13.518-1.498 0 0-2.287-.155-2.287-3.875 0-3.668 3.457-3.926 3.457-3.926 4.082-.569 8.917 0 13.128.568 6.863 1.395 12.738 4.779 17.105 9.842 1.43 1.705 2.522 3.255 4.393 6.355 3.276 5.347 6.213 9.971 9.619 15.37 3.769 6.123 6.759 10.85 10.684 17.153h15.467l-6.343-10.385s-1.17-3.074 1.794-4.908c2.937-1.808 5.641.078 6.603 1.318L163.144 212c4.81-.103 9.619-1.292 13.856-3.436-16.117-26.22-34.522-55.54-49.678-79.564"/><defs><linearGradient id="paint0_linear_0_1" x1="228.474" x2="149.232" y1="126.621" y2="127.433" gradientUnits="userSpaceOnUse"><stop stop-color="#4B6AF2"/><stop offset="1" stop-color="#3CB4EA"/></linearGradient><linearGradient id="paint1_linear_0_1" x1="127.475" x2="99.7" y1="127.052" y2="71.298" gradientUnits="userSpaceOnUse"><stop stop-color="#5401F9"/><stop offset="1" stop-color="#B41ED8"/></linearGradient><linearGradient id="paint2_linear_0_1" x1="127.322" x2="61.008" y1="129" y2="242.743" gradientUnits="userSpaceOnUse"><stop stop-color="#B11B96"/><stop offset="1" stop-color="#F0F"/></linearGradient></defs></svg>