<svg xmlns="http://www.w3.org/2000/svg" fill="none" viewBox="0 0 256 256"><path fill="#282828" d="M196 0H60C26.863 0 0 26.863 0 60v136c0 33.137 26.863 60 60 60h136c33.137 0 60-26.863 60-60V60c0-33.137-26.863-60-60-60"/><path fill="#fff" d="m151.72 100.002 5.215 5.394-52.645 50.877-5.212-5.394z"/><path fill="#fff" d="M153.749 102.251H201c2.9 0 5.249 2.35 5.249 5.25V202c0 2.9-2.349 5.249-5.249 5.249h-94.499c-2.9 0-5.25-2.349-5.25-5.249v-47.251"/><path stroke="#16161A" stroke-linecap="round" stroke-linejoin="round" stroke-width="12.8" d="M153.749 102.251H201c2.9 0 5.249 2.35 5.249 5.25V202c0 2.9-2.349 5.249-5.249 5.249h-94.499c-2.9 0-5.25-2.349-5.25-5.249v-47.251"/><path fill="#fff" d="M153.749 102.251v-47.25c0-2.9-2.35-5.25-5.25-5.25H54a5.25 5.25 0 0 0-5.25 5.25v94.498c0 2.9 2.35 5.25 5.25 5.25h47.251"/><path stroke="#16161A" stroke-linecap="round" stroke-linejoin="round" stroke-width="12.8" d="M153.749 102.251v-47.25c0-2.9-2.35-5.25-5.25-5.25H54a5.25 5.25 0 0 0-5.25 5.25v94.498c0 2.9 2.35 5.25 5.25 5.25h47.251"/><path fill="#16161A" d="M83.75 128.5a4.374 4.374 0 0 1-4.374-4.374V75.999a4.373 4.373 0 0 1 4.374-4.373h16.42q4.772 0 8.91.958 4.234.873 7.293 3.055 3.152 2.091 4.951 5.669 1.802 3.488 1.802 8.636 0 4.97-1.891 8.635-1.8 3.665-4.953 6.019-3.148 2.356-7.29 3.49t-8.822 1.135h-3.186a4.375 4.375 0 0 0-4.377 4.374v10.529a4.375 4.375 0 0 1-4.374 4.374zm8.857-33.86a4.375 4.375 0 0 0 4.377 4.375h2.376q10.802 0 10.802-9.071 0-4.45-2.791-6.28-2.7-1.832-8.01-1.833h-2.377a4.375 4.375 0 0 0-4.377 4.374zm43.644 90.734a4.375 4.375 0 0 1-4.377-4.373v-48.127a4.377 4.377 0 0 1 4.377-4.374h15.258q4.573 0 8.427.697 3.944.611 6.815 2.27 2.867 1.657 4.48 4.36 1.706 2.705 1.704 6.804 0 1.918-.627 3.84a10.7 10.7 0 0 1-1.792 3.576q-1.257 1.657-3.138 2.966-1.822 1.266-4.318 1.877a.22.22 0 0 0-.165.211c0 .105.075.193.176.211q6.143 1.148 9.327 4.329 3.228 3.229 3.226 8.985 0 4.362-1.701 7.501-1.705 3.142-4.753 5.234-3.048 2.008-7.172 3.055-4.034.957-8.786.958zm8.804-38.396a4.375 4.375 0 0 0 4.373 4.377h1.453q4.843-.001 6.994-1.832 2.151-1.83 2.152-5.148 0-3.141-2.243-4.446-2.153-1.398-6.812-1.397h-1.544a4.373 4.373 0 0 0-4.373 4.374zm0 23.99a4.375 4.375 0 0 0 4.373 4.377h2.708q10.579-.002 10.58-7.677 0-3.753-2.601-5.41-2.511-1.655-7.979-1.656h-2.708a4.373 4.373 0 0 0-4.373 4.374z"/></svg>