<svg xmlns="http://www.w3.org/2000/svg" width="256" height="256" fill="none"><path fill="#282828" d="M196 0H60C26.863 0 0 26.863 0 60v136c0 33.137 26.863 60 60 60h136c33.137 0 60-26.863 60-60V60c0-33.137-26.863-60-60-60"/><path fill="#3C6EB4" d="M181.815 120.262c.273 1.709.553 3.418.889 5.089h16.511v-5.089zm2.736 12.714a76 76 0 0 0 1.103 3.491c.959.477 1.894 1.01 2.797 1.604h20.93v-5.095zm-33.982 2.364c-.785.286-1.554.62-2.308.983v.007a25 25 0 0 1 2.308-.99m-76.05 63.738v5.089h61.133v-5.089zm35.602 12.715v5.074h50.329v-5.074z"/><path fill="#CCC" d="M122.679 39.98c-9.053 0-17.923 1.045-23.205 3.147-14.548 5.324-25.72 19.866-29.032 37.483-4.36 20.624-4.1 36.766-8.43 51.953a25 25 0 0 1 6.507-3.577c3.381-1.338 9.05-2.009 14.84-2.009s11.708.673 15.545 2.009c8.428 3.079 15.076 10.989 17.829 20.805h17.919c3.671-6.787 9.274-12.027 15.917-14.451 7.226-2.865 24.273-2.858 32.482 0 .89.324 1.755.719 2.607 1.141-5.646-16.346-4.929-33.466-9.665-55.87-3.31-17.618-14.487-32.16-29.032-37.484-5.999-2.095-15.231-3.146-24.282-3.148"/><path fill="#E7E8E9" d="M93.476 101.795c-1.634.002-3.2.687-4.355 1.905s-1.803 2.869-1.803 4.59c0 1.722.648 3.373 1.803 4.591s2.72 1.903 4.355 1.905c1.634-.002 3.2-.687 4.356-1.905s1.804-2.869 1.804-4.591-.649-3.372-1.803-4.59c-1.155-1.218-2.723-1.903-4.357-1.905m62.3 0c-1.634.002-3.2.687-4.355 1.905-1.154 1.218-1.803 2.869-1.803 4.59 0 1.722.649 3.373 1.803 4.591 1.155 1.218 2.721 1.903 4.355 1.905a5.9 5.9 0 0 0 2.363-.491 6.2 6.2 0 0 0 2.004-1.407 6.5 6.5 0 0 0 1.339-2.109 6.8 6.8 0 0 0 0-4.977 6.5 6.5 0 0 0-1.339-2.109 6.2 6.2 0 0 0-2.004-1.407 5.9 5.9 0 0 0-2.363-.491"/><path fill="#A7A9AC" d="m103.856 103.487-22.914 6.144.656 2.456 22.918-6.144zm43.365 0-.66 2.456 22.912 6.144.66-2.456zm-41.071 3.703L83.105 120.5l1.272 2.199 23.041-13.308zm38.79 0-1.272 2.201 23.043 13.308 1.273-2.199zm-37.105 4.415-15.87 15.892c1.081.136 2.11.308 3.093.499l14.575-14.595zm35.418 0-1.795 1.796 19.929 19.961a77 77 0 0 1 3.447-.148zm-34.647 5.786-7.296 12.648a25 25 0 0 1 2.222 1.239l7.277-12.618zm33.879 0-2.204 1.269 9.748 16.903c.181-.072.356-.157.54-.223.572-.227 1.226-.43 1.912-.62z"/><path fill="#fff" d="M145.075 103.736a18.1 18.1 0 0 1-1.506 7.21 18.8 18.8 0 0 1-4.291 6.112 19.9 19.9 0 0 1-6.422 4.084 20.7 20.7 0 0 1-7.576 1.434c-2.599 0-5.174-.487-7.576-1.434a19.9 19.9 0 0 1-6.422-4.084 18.8 18.8 0 0 1-4.291-6.112 18.05 18.05 0 0 1-1.507-7.21c0-2.474.512-4.923 1.507-7.209a18.8 18.8 0 0 1 4.291-6.112 19.9 19.9 0 0 1 6.423-4.083 20.7 20.7 0 0 1 7.575-1.433c5.25 0 10.284 1.985 13.996 5.518s5.799 8.323 5.799 13.319"/><path fill="gray" d="M133.729 100.34c-.664-1.72-.664-5.16-2.655-5.16-1.992 0-3.835-1.291-5.794-1.291s-3.798 1.29-5.793 1.29c-1.991 0-1.991 3.44-2.655 5.163-.663 1.718 8.448 7.309 8.448 7.309s9.112-5.591 8.449-7.311"/><path fill="#3C6EB4" d="M115.829 146.972a36 36 0 0 1 1.463 5.091h16.223a36 36 0 0 1 2.83-5.093zm81.452.002a36 36 0 0 1 2.824 5.089h20.414v-5.089z"/><path fill="#CCC" d="M83.361 126.977c-5.79 0-11.46.671-14.842 2.009-9.304 3.4-16.44 12.682-18.558 23.923-1.106 5.21-1.742 9.94-2.282 14.394h72.065c-.541-4.454-1.162-9.182-2.268-14.394-2.115-11.241-9.269-20.521-18.574-23.921-3.839-1.336-9.754-2.009-15.543-2.009z"/><path fill="#E7E8E9" d="M64.691 166.424a3.83 3.83 0 0 0-2.314.879h4.72a3.83 3.83 0 0 0-2.406-.877zm39.862 0a3.83 3.83 0 0 0-2.316.879h4.724a3.82 3.82 0 0 0-2.41-.877z"/><path fill="#A7A9AC" d="m71.216 167.063-.892.24h.959zm27.974 0-.065.24h.959z"/><path fill="#fff" d="M85.037 155.656c-3.284.009-6.437 1.228-8.791 3.401-2.356 2.173-3.73 5.13-3.831 8.246H97.64c-.102-3.113-1.473-6.067-3.824-8.24s-5.5-3.394-8.78-3.407"/><path fill="gray" d="M85.037 161.383c-1.254 0-2.428.83-3.702.83s-1.284 2.19-1.708 3.287c-.147.384.495 1.075 1.356 1.803h8.105c.863-.728 1.49-1.419 1.34-1.803-.424-1.097-.417-3.287-1.69-3.287s-2.447-.83-3.701-.83"/><path fill="#892CA0" d="m179.138 12.705-102.767.302a2.54 2.54 0 0 0-1.978.959l-63.85 80.63a2.55 2.55 0 0 0-.478 2.14l23.157 100.231a2.54 2.54 0 0 0 1.388 1.724l92.713 44.363a2.54 2.54 0 0 0 2.204-.019l92.46-44.904a2.55 2.55 0 0 0 1.372-1.739l22.58-100.359a2.54 2.54 0 0 0-.494-2.139l-64.308-80.249a2.55 2.55 0 0 0-1.999-.94m-1.211 5.089 62.78 78.322-22.041 97.981-90.242 43.837-90.512-43.295-22.611-97.854 62.315-78.704z"/><path fill="#CCC" d="M206.625 186.515c-1.117-7.604-1.659-15.875-3.723-25.604-2.264-12.018-9.906-21.941-19.853-25.573-8.209-2.858-25.254-2.865-32.48 0-9.947 3.632-17.589 13.555-19.853 25.573-2.061 9.731-2.605 18-3.723 25.604"/><path fill="#E7E8E9" d="M146.474 175.362a4.1 4.1 0 0 0-1.614.339c-.511.223-.976.55-1.367.962a4.4 4.4 0 0 0-.914 1.438 4.6 4.6 0 0 0-.319 1.697 4.6 4.6 0 0 0 .319 1.697c.212.538.522 1.027.914 1.439.391.412.856.739 1.367.962.512.223 1.06.338 1.614.338a4.12 4.12 0 0 0 2.981-1.3 4.55 4.55 0 0 0 1.232-3.136 4.55 4.55 0 0 0-1.232-3.135 4.12 4.12 0 0 0-2.981-1.301m42.609 0a4.05 4.05 0 0 0-1.613.339 4.2 4.2 0 0 0-1.368.962 4.4 4.4 0 0 0-.914 1.438 4.6 4.6 0 0 0-.319 1.697 4.6 4.6 0 0 0 .319 1.697c.212.538.522 1.027.914 1.439a4.2 4.2 0 0 0 1.368.962c.511.223 1.06.338 1.613.338a4.12 4.12 0 0 0 2.981-1.3 4.55 4.55 0 0 0 1.232-3.136 4.55 4.55 0 0 0-1.232-3.135 4.12 4.12 0 0 0-2.981-1.301"/><path fill="#A7A9AC" d="m153.47 176.129-15.672 4.198.66 2.456 15.668-4.198zm29.861 0-.66 2.456 15.672 4.198.66-2.456zm-28.394 2.567-15.753 9.082 1.269 2.2 15.751-9.079zm26.928 0-1.272 2.203 15.751 9.079 1.272-2.2z"/><path fill="#fff" d="M181.758 176.693c0 3.408-1.426 6.677-3.965 9.087s-5.981 3.764-9.572 3.764-7.034-1.354-9.573-3.764-3.965-5.678-3.965-9.087 1.426-6.677 3.965-9.087 5.983-3.763 9.573-3.763 7.034 1.354 9.572 3.764c2.539 2.41 3.965 5.678 3.965 9.086"/><path fill="gray" d="M173.998 174.374c-.454-1.173-.454-3.522-1.816-3.522-1.361 0-2.618-.877-3.961-.877-1.34 0-2.599.879-3.962.879-1.36 0-1.36 2.347-1.816 3.522-.453 1.173 5.778 4.985 5.778 4.985s6.232-3.812 5.777-4.987"/><path fill="#60605B" d="M125.282 82.998c-11.912 0-21.701 9.26-21.701 20.746s9.789 20.746 21.701 20.746c11.915 0 21.703-9.26 21.703-20.746 0-11.487-9.792-20.746-21.703-20.746m0 3.814c9.953 0 17.89 7.612 17.89 16.932 0 9.322-7.937 16.929-17.89 16.929-9.95 0-17.89-7.607-17.89-16.929 0-9.32 7.94-16.931 17.89-16.931m-40.245 66.929c-7.843 0-14.344 6.01-14.556 13.562h3.814c.207-5.383 4.862-9.749 10.742-9.749s10.531 4.366 10.738 9.749h3.813c-.209-7.55-6.711-13.562-14.551-13.562m83.188 8.199c-8.454 0-15.451 6.564-15.451 14.746 0 8.186 6.997 14.761 15.451 14.761 8.456 0 15.449-6.576 15.449-14.761 0-8.182-6.992-14.746-15.449-14.746m0 3.815c6.499 0 11.634 4.917 11.634 10.933 0 6.011-5.135 10.946-11.634 10.946-6.497 0-11.634-4.935-11.634-10.948 0-6.011 5.137-10.931 11.634-10.931"/><path fill="#3C6EB4" d="M39.43 167.303v5.089h89.352c.221-1.654.466-3.348.748-5.089zm45.271 19.07v5.074h132.131v-5.074h-10.224l.019.14h-79.636l.019-.14z"/><path fill="#000" d="M122.683 38.075h-.004c-9.186 0-18.124 1.003-23.886 3.287-15.272 5.61-26.786 20.696-30.21 38.86-3.046 14.408-3.853 26.593-5.474 37.626-.691 4.717-1.545 9.21-2.758 13.602-6.197 4.895-10.648 12.475-12.276 21.111-1.136 5.37-1.764 10.214-2.312 14.742h3.831c.532-4.369 1.151-8.96 2.219-13.994l.014-.018v-.033c2.01-10.663 8.795-19.345 17.346-22.467l.034-.018.014-.015c2.9-1.15 8.494-1.869 14.138-1.869 5.637 0 11.452.702 14.905 1.901 8.544 3.127 15.323 11.811 17.331 22.468v.033l.015.018c1.069 5.034 1.687 9.626 2.218 13.994h3.833c-.547-4.532-1.174-9.384-2.312-14.761-2.231-11.811-9.739-21.671-19.793-25.342h-.014l-.015-.019c-4.226-1.467-10.233-2.101-16.17-2.105-5.925 0-11.667.614-15.522 2.139-.955.35-1.88.774-2.788 1.231.746-3.321 1.361-6.67 1.844-10.039 1.65-11.251 2.424-23.292 5.41-37.404l.018-.019v-.03c3.2-17.035 14.023-30.985 27.815-36.033l.018-.015h.028c4.803-1.91 13.597-3.017 22.503-3.015 8.892 0 18.002 1.075 23.618 3.03 13.791 5.046 24.614 18.996 27.811 36.032l.019.037v.013c2.983 14.112 3.776 26.153 5.426 37.404.743 5.067 1.707 9.975 3.097 14.815-4.414-1.335-10.332-1.936-16.216-1.936-6.324 0-12.439.663-16.531 2.282-10.682 3.909-18.668 14.381-21.048 26.954-2.094 9.879-2.651 18.214-3.754 25.707l3.782.559c1.134-7.712 1.656-15.904 3.687-25.486l.019-.019v-.012c2.153-11.441 9.445-20.791 18.64-24.146h.013l.033-.019c3.135-1.242 9.119-2.009 15.161-2.009 6.039 0 12.258.75 15.975 2.043h.018c9.176 3.366 16.45 12.703 18.603 24.131v.031c2.03 9.58 2.567 17.774 3.701 25.484l3.785-.557c-1.101-7.494-1.659-15.83-3.752-25.709-2.113-11.167-8.651-20.674-17.571-25.401-1.851-5.555-2.987-11.234-3.874-17.271-1.617-11.025-2.419-23.201-5.459-37.594-3.418-18.194-14.94-33.324-30.241-38.925h-.033c-6.387-2.23-15.709-3.252-24.909-3.254M93.975 61.053a12.74 12.74 0 0 0-10.151 4.95l-1.167 1.5 3.035 2.33 1.163-1.517a9.07 9.07 0 0 1 6.623-3.446c2.397-.101 4.886.863 6.589 2.554l1.357 1.357 2.698-2.714-1.357-1.34a12.73 12.73 0 0 0-8.795-3.67zm61.53 0a12.73 12.73 0 0 0-8.795 3.673l-1.357 1.34 2.683 2.715 1.359-1.357a9.03 9.03 0 0 1 6.589-2.554c2.536.11 5.089 1.433 6.638 3.448l1.167 1.515 3.016-2.33-1.167-1.5a12.7 12.7 0 0 0-10.133-4.95M93.878 77.86a9.4 9.4 0 0 0-6.737 2.866 9.9 9.9 0 0 0-2.792 6.915 9.9 9.9 0 0 0 2.79 6.917 9.4 9.4 0 0 0 6.739 2.866 9.3 9.3 0 0 0 3.65-.742 9.5 9.5 0 0 0 3.096-2.12 9.8 9.8 0 0 0 2.069-3.175 10.02 10.02 0 0 0-.001-7.491 9.8 9.8 0 0 0-2.069-3.174 9.5 9.5 0 0 0-3.095-2.12 9.3 9.3 0 0 0-3.65-.742m61.706 0a9.4 9.4 0 0 0-6.736 2.867 9.9 9.9 0 0 0-2.79 6.914 9.9 9.9 0 0 0 2.79 6.916 9.4 9.4 0 0 0 6.736 2.867 9.4 9.4 0 0 0 6.738-2.866 9.9 9.9 0 0 0 2.791-6.917 9.9 9.9 0 0 0-2.791-6.914 9.4 9.4 0 0 0-6.738-2.867m-30.302 14.123c-1.397 0-2.542.43-3.494.75-.953.323-1.714.543-2.301.543-1.045 0-2.072.573-2.631 1.246-.556.671-.82 1.365-1.023 2.025-.406 1.314-.603 2.651-.782 3.116-.409 1.058-.018 1.901.306 2.454.323.553.718.988 1.162 1.438.892.896 2.021 1.794 3.16 2.631a73 73 0 0 0 3.208 2.201l-.046.767c-.429.351-1.475 1.278-3.208 1.864-1.025.347-2.058.47-2.954.242-.761-.196-1.519-.867-2.297-1.883.05-.402.068-.566.159-1.228.16-1.157.392-2.557.497-2.972l-3.704-.925c-.221.885-.409 2.175-.575 3.372-.166 1.195-.288 2.218-.288 2.218l-.079.682.367.574c1.344 2.112 3.136 3.394 4.98 3.864 1.844.472 3.632.186 5.126-.317 1.936-.658 3.514-1.715 4.384-2.379.872.664 2.441 1.724 4.372 2.379 1.493.505 3.263.789 5.107.317s3.638-1.752 4.98-3.864l.369-.572-.082-.684s-.121-1.023-.287-2.218c-.166-1.199-.358-2.487-.575-3.372l-3.703.925c.104.415.336 1.815.498 2.972.089.653.111.812.157 1.214-.782 1.025-1.53 1.701-2.297 1.899-.897.226-1.927.103-2.952-.244-1.733-.586-2.781-1.513-3.208-1.864l-.034-.717a70 70 0 0 0 3.288-2.249c1.139-.839 2.268-1.739 3.162-2.637.442-.448.841-.883 1.161-1.434.327-.553.714-1.396.305-2.456-.179-.461-.391-1.8-.797-3.116-.203-.656-.446-1.353-1.005-2.026s-1.585-1.243-2.633-1.243c-.584 0-1.346-.221-2.297-.542-.953-.321-2.096-.75-3.496-.75m0 3.815c.563 0 1.309.218 2.268.54.881.299 1.99.627 3.252.688.043.065.157.277.273.655.205.663.413 1.677.701 2.664-.092.125-.203.282-.444.525-.631.635-1.66 1.459-2.716 2.233-1.623 1.193-2.637 1.814-3.334 2.251-.691-.435-1.725-1.051-3.353-2.249-1.057-.774-2.065-1.6-2.696-2.235-.243-.243-.35-.4-.443-.525.284-.987.495-1.999.697-2.664q.097-.345.275-.655c1.261-.059 2.355-.389 3.238-.688.955-.322 1.722-.54 2.282-.54m-60.736 43.946a8.8 8.8 0 0 0-6.575 3.418l-1.162 1.516 3.013 2.33 1.167-1.519a5.18 5.18 0 0 1 3.733-1.93 5.12 5.12 0 0 1 3.703 1.436l1.357 1.34 2.679-2.712-1.357-1.34a8.83 8.83 0 0 0-6.558-2.539m40.263 0a8.8 8.8 0 0 0-3.537.587 8.8 8.8 0 0 0-3.008 1.952l-1.355 1.34 2.679 2.71 1.359-1.338a5.1 5.1 0 0 1 3.7-1.438 5.16 5.16 0 0 1 3.735 1.932l1.149 1.519 3.031-2.33-1.165-1.516a8.85 8.85 0 0 0-2.917-2.435 8.8 8.8 0 0 0-3.671-.983m84.083 7.213h-.004a9.3 9.3 0 0 0-6.429 2.684l-1.357 1.339 2.682 2.71 1.354-1.339a5.58 5.58 0 0 1 4.056-1.561c1.549.064 3.136.879 4.082 2.105l1.167 1.516 3.018-2.329-1.167-1.515a9.25 9.25 0 0 0-6.928-3.596c-.157-.005-.314-.014-.474-.014m-42.082 0q-.24.001-.479.016a9.3 9.3 0 0 0-6.944 3.594l-1.162 1.515 3.032 2.331 1.161-1.518a5.6 5.6 0 0 1 4.071-2.105 5.62 5.62 0 0 1 4.069 1.561l1.357 1.341 2.683-2.71-1.357-1.341a9.3 9.3 0 0 0-6.431-2.684m-81.866 4.2a6.02 6.02 0 0 0-4.31 1.828 6.32 6.32 0 0 0-1.786 4.411 6.4 6.4 0 0 0 .46 2.393 6.3 6.3 0 0 0 1.321 2.029 6.1 6.1 0 0 0 1.98 1.357 6 6 0 0 0 2.335.477 6 6 0 0 0 2.335-.477 6.1 6.1 0 0 0 1.98-1.357 6.3 6.3 0 0 0 1.32-2.029 6.4 6.4 0 0 0 .46-2.393 6.32 6.32 0 0 0-1.786-4.411 6.02 6.02 0 0 0-4.31-1.828m39.478 0a6 6 0 0 0-2.337.47 6.1 6.1 0 0 0-1.983 1.352 6.3 6.3 0 0 0-1.325 2.026 6.4 6.4 0 0 0-.467 2.391 6.4 6.4 0 0 0 .462 2.396 6.3 6.3 0 0 0 1.325 2.032 6.1 6.1 0 0 0 1.984 1.356 6 6 0 0 0 4.677-.005 6.1 6.1 0 0 0 1.979-1.357 6.3 6.3 0 0 0 1.32-2.029 6.4 6.4 0 0 0 .461-2.393 6.32 6.32 0 0 0-1.787-4.411 6.02 6.02 0 0 0-4.309-1.828m42.32 7.884a6.44 6.44 0 0 0-4.601 1.956 6.76 6.76 0 0 0-1.908 4.712 6.76 6.76 0 0 0 1.907 4.714 6.45 6.45 0 0 0 4.602 1.957 6.4 6.4 0 0 0 2.496-.505 6.5 6.5 0 0 0 2.117-1.446 6.7 6.7 0 0 0 1.416-2.165 6.8 6.8 0 0 0 .498-2.555 6.8 6.8 0 0 0-.499-2.554 6.7 6.7 0 0 0-1.415-2.164 6.5 6.5 0 0 0-2.117-1.445 6.4 6.4 0 0 0-2.496-.505m42.209 0a6.4 6.4 0 0 0-2.496.505 6.5 6.5 0 0 0-2.117 1.445 6.7 6.7 0 0 0-1.416 2.164 6.8 6.8 0 0 0 0 5.109c.328.81.809 1.546 1.415 2.165a6.5 6.5 0 0 0 2.117 1.446c.792.334 1.64.506 2.497.505a6.44 6.44 0 0 0 4.604-1.956 6.76 6.76 0 0 0 1.908-4.715 6.76 6.76 0 0 0-1.909-4.713 6.44 6.44 0 0 0-4.603-1.955m-103.916.446c-1.043 0-1.851.308-2.46.512-.608.203-1.015.303-1.242.303-.867 0-1.765.509-2.218 1.054-.454.544-.64 1.07-.782 1.531-.288.927-.422 1.779-.48 1.93-.38.983-.018 1.733.24 2.172.07.122.148.212.222.317h5.826a20 20 0 0 1-.846-.59c-.66-.487-1.304-.997-1.66-1.355v-.018c.116-.48.253-1.055.336-1.326.009-.03.007-.004.018-.028.675-.099 1.352-.234 1.8-.387.612-.205 1.036-.301 1.246-.301.208 0 .616.096 1.228.303.448.151 1.13.286 1.803.385.01.024.006 0 .015.028.085.271.236.842.35 1.327l-.014.017c-.356.358-.996.868-1.658 1.353q-.41.303-.83.59h5.827c.073-.101.15-.195.219-.315.258-.439.621-1.189.24-2.172-.056-.149-.209-1.003-.498-1.93a4.1 4.1 0 0 0-.78-1.531c-.454-.545-1.333-1.054-2.2-1.054-.226 0-.638-.098-1.246-.303-.609-.204-1.412-.512-2.456-.512m83.188 8.586c-1.088 0-1.936.325-2.587.544-.65.219-1.1.332-1.371.332-.889 0-1.8.507-2.268 1.069-.465.559-.662 1.11-.811 1.597-.303.973-.454 1.886-.526 2.074-.385.996-.011 1.752.253 2.202.265.453.571.774.896 1.102.651.651 1.44 1.269 2.233 1.849.654.48 1.292.915 1.836 1.28-.36.286-.837.677-1.711.972-.627.212-1.21.261-1.674.143-.339-.086-.721-.481-1.101-.907.03-.234.037-.249.079-.544.111-.783.268-1.755.319-1.961l-3.7-.926c-.17.679-.286 1.538-.4 2.358-.114.824-.192 1.534-.192 1.534l-.079.67.369.577c.982 1.545 2.354 2.542 3.761 2.902 1.41.359 2.74.131 3.833-.238 1-.35 1.945-.84 2.808-1.455.66.465 1.635 1.057 2.81 1.457 1.093.368 2.419.595 3.828.236 1.41-.36 2.782-1.357 3.766-2.902l.369-.577-.081-.67s-.094-.708-.208-1.53-.227-1.683-.397-2.362l-3.702.926c.052.206.227 1.18.336 1.961.036.295.031.31.06.544-.378.424-.746.821-1.084.907-.464.118-1.051.069-1.678-.143-.848-.288-1.314-.671-1.674-.959a50 50 0 0 0 1.868-1.291c.793-.582 1.582-1.198 2.233-1.851.346-.326.646-.697.894-1.102.266-.452.623-1.208.24-2.202-.074-.188-.227-1.101-.529-2.074-.148-.487-.332-1.038-.795-1.599-.468-.56-1.377-1.069-2.266-1.069-.269 0-.719-.111-1.372-.332-.651-.221-1.497-.542-2.585-.542m0 3.813q.378.001 1.357.336.98.294 1.995.413c.024.051 0 .018.028.11.099.323.26.942.4 1.503l-.065.064a17 17 0 0 1-1.786 1.466c-.931.682-1.372.94-1.929 1.293-.553-.351-.995-.607-1.93-1.291a17 17 0 0 1-1.79-1.468c-.041-.042-.026-.044-.061-.083.136-.549.284-1.165.381-1.482.03-.098.022-.061.046-.111a11 11 0 0 0 1.981-.414c.654-.222 1.119-.336 1.371-.336z"/><path fill="#892CA0" d="M93.874 75.96a11.22 11.22 0 0 0-8.08 3.44 11.7 11.7 0 0 0-2.83 4.785 11.8 11.8 0 0 0-.497 4.053 11.8 11.8 0 0 0 5.017 9.076c.765.53 1.591.964 2.461 1.293a11.17 11.17 0 0 0 8.39-.203 11.3 11.3 0 0 0 2.822-1.759 11.6 11.6 0 0 0 2.507-2.963 11.8 11.8 0 0 0 1.523-7.81 11.8 11.8 0 0 0-1.525-4.272 11.8 11.8 0 0 0-3.386-3.637 11.5 11.5 0 0 0-2.464-1.291 11.2 11.2 0 0 0-3.934-.712zm61.71 0a11.3 11.3 0 0 0-3.931.717 11.2 11.2 0 0 0-2.907 1.62 11.79 11.79 0 0 0-4.355 11.686 11.8 11.8 0 0 0 3.112 5.899 11.7 11.7 0 0 0 2.633 2.02 11.3 11.3 0 0 0 3.144 1.18 11.18 11.18 0 0 0 9.578-2.443 11.7 11.7 0 0 0 2.777-3.45 11.77 11.77 0 0 0 1.318-6.734 11.9 11.9 0 0 0-1.593-4.85 11.8 11.8 0 0 0-3.846-3.941 11.4 11.4 0 0 0-3.07-1.331 11 11 0 0 0-2.86-.373m-61.71 3.798h.004q.584.002 1.161.089c.87.134 1.708.422 2.476.852a7.8 7.8 0 0 1 3.404 3.853c.351.852.551 1.759.592 2.68a8.4 8.4 0 0 1-.336 2.772 8 8 0 0 1-1.403 2.673 7.8 7.8 0 0 1-2.257 1.909 7.5 7.5 0 0 1-4.799.848 7.48 7.48 0 0 1-4.723-2.76A7.8 7.8 0 0 1 86.59 90a8 8 0 0 1-.343-2.36 8.4 8.4 0 0 1 .345-2.36 8 8 0 0 1 1.401-2.671 7.8 7.8 0 0 1 2.25-1.907 7.5 7.5 0 0 1 3.63-.944m61.71 0a7.5 7.5 0 0 1 2.268.353 7.4 7.4 0 0 1 2.581 1.436 7.7 7.7 0 0 1 1.859 2.32 7.9 7.9 0 0 1 .883 2.962 8.25 8.25 0 0 1-.885 4.59 7.9 7.9 0 0 1-1.857 2.319 7.6 7.6 0 0 1-1.88 1.172 7.44 7.44 0 0 1-5.933 0 7.5 7.5 0 0 1-2.425-1.68 7.98 7.98 0 0 1-2.227-5.18 8.07 8.07 0 0 1 1.294-4.834 7.8 7.8 0 0 1 2.061-2.12 7.6 7.6 0 0 1 2.359-1.09 7.4 7.4 0 0 1 1.902-.248m-90.847 69.495a2 2 0 0 0-.206.002c-4.232.221-7.58 3.824-7.58 8.138 0 4.455 3.571 8.155 7.995 8.155s8.009-3.7 8.009-8.155-3.586-8.138-8.01-8.138zm39.48 0a2 2 0 0 0-.208.002c-4.231.221-7.596 3.824-7.596 8.138 0 4.455 3.588 8.155 8.011 8.155 4.425 0 7.994-3.7 7.994-8.155s-3.571-8.138-7.994-8.138zm-39.271 3.817c2.312 0 4.194 1.882 4.194 4.323s-1.882 4.34-4.194 4.34-4.184-1.899-4.184-4.34 1.871-4.323 4.184-4.323m39.478 0c2.312 0 4.182 1.882 4.182 4.323s-1.87 4.34-4.182 4.34-4.196-1.899-4.196-4.34 1.884-4.323 4.196-4.323m42.32 4.052c-4.656 0-8.426 3.892-8.426 8.585s3.77 8.586 8.426 8.586 8.425-3.89 8.425-8.586c0-4.693-3.768-8.585-8.425-8.585m42.209 0c-4.656 0-8.426 3.892-8.426 8.585s3.77 8.586 8.426 8.586 8.425-3.89 8.425-8.586c0-4.693-3.768-8.585-8.425-8.585m-42.327 3.813.119.002c2.545 0 4.61 2.091 4.61 4.77 0 2.68-2.065 4.771-4.61 4.771-2.544 0-4.613-2.091-4.613-4.771 0-2.596 1.936-4.647 4.374-4.77q.06-.004.12-.002m42.207 0 .121.002c2.545 0 4.61 2.091 4.61 4.77 0 2.68-2.065 4.771-4.61 4.771-2.544 0-4.613-2.091-4.613-4.771 0-2.596 1.936-4.647 4.374-4.77q.058-.004.118-.002"/><path fill="#fff" d="M90.7 80.013a4.6 4.6 0 0 0-3.314 1.423 4.97 4.97 0 0 0-1.377 3.444 5 5 0 0 0 .354 1.87c.235.593.58 1.132 1.016 1.586a4.7 4.7 0 0 0 1.524 1.06 4.53 4.53 0 0 0 3.596 0 4.7 4.7 0 0 0 1.523-1.06 4.9 4.9 0 0 0 1.017-1.586 5 5 0 0 0 .354-1.87 4.97 4.97 0 0 0-1.377-3.443 4.6 4.6 0 0 0-3.315-1.424m61.68 0a4.6 4.6 0 0 0-3.315 1.423 4.97 4.97 0 0 0-1.377 3.444 5 5 0 0 0 .354 1.87c.235.593.58 1.132 1.016 1.586s.954.814 1.524 1.06a4.53 4.53 0 0 0 3.595-.002 4.7 4.7 0 0 0 1.522-1.06 4.9 4.9 0 0 0 1.016-1.585 5 5 0 0 0 .354-1.869 4.98 4.98 0 0 0-1.376-3.442 4.6 4.6 0 0 0-3.313-1.425m-89.464 72.514a2.95 2.95 0 0 0-2.12.912 3.17 3.17 0 0 0-.876 2.199c0 .409.077.813.227 1.191s.372.721.65 1.01c.28.289.61.518.974.675a2.9 2.9 0 0 0 2.296 0c.365-.157.695-.386.974-.675s.5-.632.65-1.01a3.2 3.2 0 0 0 0-2.382 3.1 3.1 0 0 0-.65-1.009 3 3 0 0 0-.974-.674 2.9 2.9 0 0 0-1.148-.237zm39.861.447c-.393 0-.783.08-1.147.237a3 3 0 0 0-.973.674 3.1 3.1 0 0 0-.65 1.01 3.22 3.22 0 0 0 .001 2.382c.151.377.372.72.65 1.009.279.289.61.518.974.674a2.9 2.9 0 0 0 2.296.001c.365-.156.696-.385.975-.674s.5-.632.651-1.01a3.21 3.21 0 0 0-.651-3.394 3 3 0 0 0-.976-.675 2.9 2.9 0 0 0-1.15-.234m41.798 7.533c-.849 0-1.663.349-2.265.97a3.4 3.4 0 0 0-.943 2.347c-.001.438.082.871.242 1.276.161.404.397.772.695 1.081.298.31.652.556 1.042.723a3.1 3.1 0 0 0 2.458 0c.39-.167.744-.413 1.042-.723.298-.309.534-.677.695-1.081.161-.405.243-.838.242-1.276a3.4 3.4 0 0 0-.942-2.347 3.16 3.16 0 0 0-2.266-.97m42.862.428c-.422 0-.84.086-1.23.254-.39.167-.744.413-1.042.723s-.534.678-.695 1.083a3.4 3.4 0 0 0-.241 1.277c.002.881.341 1.726.942 2.348a3.15 3.15 0 0 0 2.266.971c.849 0 1.664-.349 2.266-.971a3.44 3.44 0 0 0 .701-3.625 3.3 3.3 0 0 0-.695-1.083 3.2 3.2 0 0 0-1.042-.723 3.1 3.1 0 0 0-1.23-.254"/></svg>