<svg xmlns="http://www.w3.org/2000/svg" width="256" height="256" fill="none"><path fill="#48B9C7" d="M196 0H60C26.863 0 0 26.863 0 60v136c0 33.137 26.863 60 60 60h136c33.137 0 60-26.863 60-60V60c0-33.137-26.863-60-60-60"/><path fill="#fff" d="M69.096 203.918H190.54c5.816 0 10.548 4.732 10.548 10.548v.855c0 5.816-4.732 10.548-10.548 10.548H69.096c-5.816 0-10.548-4.732-10.548-10.548v-.855a10.524 10.524 0 0 1 10.548-10.548m78.682-105.194c-6.842 14.539-18.245 26.227-34.21 31.929l13.684 35.635c2.566 6.557 4.847 13.399 2.851 19.67s-11.118 8.268-17.675 1.426C99.885 173.985 57.693 89.601 54.557 83.33S48 71.926 48 65.655c.285-9.408 14.824-19.1 21.951-23.947s21.096-11.403 33.355-11.688 17.389 2.565 24.516 7.127c10.833 7.127 18.531 18.245 21.381 31.073 2.851 12.829 1.996 22.807-1.425 29.934m-32.214-15.395c-2.566-8.837-7.982-17.39-15.109-23.091-1.426-1.14-3.136-2.566-5.132-3.136-13.113-4.276-7.412 17.675-5.416 23.377s7.412 17.674 13.399 23.661c1.425 1.426 2.85 2.566 4.561 2.851s5.131-1.425 6.557-3.706c1.425-2.281 1.71-3.991 1.71-6.272a37.4 37.4 0 0 0-.57-13.684m57.586 103.485c-.57 2.566-1.995 4.846-4.276 6.272-2.281 1.425-7.697 1.425-10.833-1.14s-3.706-6.842-2.851-10.263 3.706-7.127 7.697-8.268c8.268-2.565 11.974 6.557 10.263 13.399m-5.131-25.943c-5.132-1.995-3.421-29.363 1.425-62.717 1.425-9.123 3.706-13.684 6.272-15.965 2.565-2.28 10.263-3.42 14.824-2.565a25.6 25.6 0 0 1 13.969 6.841c3.421 3.136 3.706 6.557 2.566 10.834s-5.132 13.398-8.268 19.955l-7.982 15.109c-15.394 27.368-18.53 30.219-22.806 28.508"/></svg>