<svg xmlns="http://www.w3.org/2000/svg" width="256" height="256" fill="none"><path fill="#000B1D" d="M196 0H60C26.863 0 0 26.863 0 60v136c0 33.137 26.863 60 60 60h136c33.137 0 60-26.863 60-60V60c0-33.137-26.863-60-60-60"/><path fill="#fff" d="M61 183.8V81.5c0-.7.3-1.1 1-1.1 1.7 0 3.8 0 6.1-.1s4.9-.1 7.6-.2 5.6-.1 8.7-.2 6.1-.1 9.1-.1c8.2 0 15 1 20.6 3.1a35.7 35.7 0 0 1 13.4 8.2 31.8 31.8 0 0 1 7.3 11.4 38.3 38.3 0 0 1 2.3 13q0 12.9-6 21.3A34.26 34.26 0 0 1 115 149a64.1 64.1 0 0 1-22.5 3.8c-2.4 0-4 0-5-.1s-2.8.2-4.7.2v31.2a1.24 1.24 0 0 1-1.1 1.4h-.4l-19.2-.3c-.7-.1-1.1-.5-1.1-1.4M82.8 100v33.3c1.4.1 3.1-.1 4.3-.1h5.3a37.2 37.2 0 0 0 11.5-1.6 17.2 17.2 0 0 0 8.2-5.3c2.1-2.5 3.1-5.9 3.1-10.3a16.46 16.46 0 0 0-2.3-8.9 14.5 14.5 0 0 0-7-5.7 29.3 29.3 0 0 0-11.8-2c-2.6 0-4.9 0-6.8.1a23 23 0 0 0-4.5.5m75.2 24.2h-9.9c-.8-.1-1.1-.5-1.1-1.1v-16.5a1 1 0 0 1 .8-1.1H158v-2.3a57.3 57.3 0 0 1 .8-10.1c.517-2.8 1.39-5.522 2.6-8.1a28.2 28.2 0 0 1 9.2-10.8c4-2.8 9.2-4.2 15.8-4.2 1.6 0 3.1.1 4.7.2 1.274.098 2.524.402 3.7.9a1.62 1.62 0 0 1 1.1 1.6v15.9c0 .8-.4 1-1.3.8a19 19 0 0 0-2.4-.2h-2.4a11.16 11.16 0 0 0-5.1 1.1 6.67 6.67 0 0 0-3.2 3.8 19.8 19.8 0 0 0-1.6 7.2v4.1h13.6c.423-.05.85.056 1.2.3a1.17 1.17 0 0 1 .2 1v16.4c0 .8-.5 1.1-1.4 1.1h-13.6v59.5a3.6 3.6 0 0 1-.2 1 1.37 1.37 0 0 1-1.2.5h-19.1c-.9 0-1.3-.5-1.3-1.4v-59.6z"/></svg>