<svg xmlns="http://www.w3.org/2000/svg" width="256" height="256" fill="none"><path fill="#282828" d="M196 0H60C26.863 0 0 26.863 0 60v136c0 33.137 26.863 60 60 60h136c33.137 0 60-26.863 60-60V60c0-33.137-26.863-60-60-60"/><path fill="#D35230" d="M139.54 51A77.37 77.37 0 0 1 217 128.373 77.415 77.415 0 1 1 84.844 73.675 77.4 77.4 0 0 1 139.54 51"/><path fill="#ED6C47" d="M139.54 51a77.55 77.55 0 0 0-77.415 77.417h77.415z"/><path fill="#FF8F6B" d="M139.54 51A77.6 77.6 0 0 1 217 128.417h-77.46z"/><g fill="#000" opacity=".67"><path d="M77.115 174.285h53.584a5.7 5.7 0 0 0 4.229-1.458 5.7 5.7 0 0 0 1.875-4.062V87.981a5.7 5.7 0 0 0-5.879-5.52H77.07a76.75 76.75 0 0 0-13.688 30.473v30.788a77 77 0 0 0 13.733 30.787z" opacity=".05"/><path d="M87.93 185.908h32.223c4.488 0 7.719-9.29 7.719-13.464v-68.172a7.72 7.72 0 0 0-7.719-7.136H68.812a76.88 76.88 0 0 0 19.253 88.772z" opacity=".1"/><path d="M82.949 180.793h37.428a7.677 7.677 0 0 0 7.45-7.091V99.156a7.72 7.72 0 0 0-7.719-7.136H71.28a76.93 76.93 0 0 0 11.669 88.773" opacity=".2"/><path d="M78.685 176.034h49.995a5.75 5.75 0 0 0 5.924-5.52V89.731a5.794 5.794 0 0 0-5.879-5.655H76.038a76.79 76.79 0 0 0 2.647 91.958" opacity=".1"/><path d="M78.46 177.471h48.828c3.276 0 5.879-7.225 5.879-10.322V92.155a5.696 5.696 0 0 0-5.879-5.52H73.434a77.02 77.02 0 0 0 5.027 90.836" opacity=".1"/><path d="m71.55 165.353 44.339-4.488c3.231 0 11.938-2.648 11.938-5.7V85.647a5.747 5.747 0 0 0-5.879-5.565H79.224a76.925 76.925 0 0 0-7.72 85.271z" opacity=".01"/><path d="M85.013 183.26h35.14a7.716 7.716 0 0 0 7.674-7.091v-74.68a7.72 7.72 0 0 0-7.719-7.136H70.114a76.84 76.84 0 0 0 14.899 88.817z" opacity=".2"/><path d="M76.845 173.611h43.308a7.72 7.72 0 0 0 7.674-7.136V93.77a7.72 7.72 0 0 0-7.719-7.091H74.646a76.52 76.52 0 0 0 2.334 86.932z" opacity=".3"/><path d="M76.531 173.207h43.622a7.766 7.766 0 0 0 7.719-7.181V93.77a7.72 7.72 0 0 0-7.719-7.091H74.646a76.57 76.57 0 0 0 1.975 86.528z" opacity=".3"/><path d="M79.583 177.246h40.39a7.723 7.723 0 0 0 7.854-7.136v-74.5a7.764 7.764 0 0 0-7.719-7.181H73.39a76.93 76.93 0 0 0 6.193 88.817" opacity=".3"/><path d="M81.064 178.907h39.089a7.68 7.68 0 0 0 7.674-7.091V97.271a7.717 7.717 0 0 0-7.719-7.136H72.402a76.61 76.61 0 0 0 8.662 88.772" opacity=".2"/><path d="M77.204 175.765h49.366c3.276 0 5.879-5.386 5.879-8.438V94.981a5.696 5.696 0 0 0-5.879-5.52H71.864a76.3 76.3 0 0 0 5.34 86.304" opacity=".1"/><path d="M76.98 173.746h46.359a5.67 5.67 0 0 0 4.081-1.512 5.66 5.66 0 0 0 1.798-3.964V94.713a5.7 5.7 0 0 0-5.879-5.52H73.12a76.3 76.3 0 0 0 3.86 84.553" opacity=".2"/><path d="M74.915 170.784h48.963a5.7 5.7 0 0 0 4.083-1.542 5.7 5.7 0 0 0 1.796-3.978v-73.11c0-3.276-7.944-5.116-8.976-6.058a18.36 18.36 0 0 0-8.168-1.93H75.858a76.97 76.97 0 0 0-.943 86.618" opacity=".3"/><path d="M81.647 179.58h43.981a5.7 5.7 0 0 0 5.834-5.565V98.662a5.657 5.657 0 0 0-5.789-5.476H70.787a76.61 76.61 0 0 0 10.86 86.394" opacity=".1"/><path d="m72.447 166.79 43.442-4.488c3.231 0 11.938-2.648 11.938-5.7V87.218a5.745 5.745 0 0 0-5.879-5.7H78.057a76.61 76.61 0 0 0-5.61 85.272" opacity=".1"/><path d="m73.255 168.091 42.634-4.488c3.231 0 11.938-2.648 11.938-5.7V95.072c0-3.097-5.52-12.208-11.579-12.208H77.025a76.3 76.3 0 0 0-3.86 85.272z" opacity=".15"/></g><path fill="#C43E1C" d="M47.36 84.167h73.735a7.4 7.4 0 0 1 6.841 4.571 7.4 7.4 0 0 1 .564 2.834v73.737a7.37 7.37 0 0 1-2.171 5.221 7.37 7.37 0 0 1-5.234 2.14H47.36a7.314 7.314 0 0 1-7.36-7.361V91.572a7.36 7.36 0 0 1 7.36-7.405"/><path fill="#F9F7F7" d="M84.43 100.772a23.02 23.02 0 0 1 15.393 4.488 16.02 16.02 0 0 1 5.295 12.88 15.35 15.35 0 0 1-2.647 8.976 17.96 17.96 0 0 1-7.405 6.552 25.25 25.25 0 0 1-11.175 2.334H73.3v20.016H62.484v-55.246zm-11.265 25.895H82.5a12.43 12.43 0 0 0 8.257-2.468 6.2 6.2 0 0 0 2.782-5.655c0-6.149-3.544-8.976-10.68-8.976h-9.694z"/></svg>