<svg xmlns="http://www.w3.org/2000/svg" width="256" height="256" fill="none"><g clip-path="url(#clip0_120_2349)"><path fill="#F4F2ED" d="M196 0H60C26.863 0 0 26.863 0 60v136c0 33.137 26.863 60 60 60h136c33.137 0 60-26.863 60-60V60c0-33.137-26.863-60-60-60"/><g clip-path="url(#clip1_120_2349)"><path fill="#673AB8" d="M127.5 27.008 215 77.436v100.856l-87.5 50.428L40 178.292V77.436z"/><path fill="#fff" d="M63.833 177.458c11.632 14.862 48.6 3.538 83.501-23.682 34.901-27.218 54.852-60.285 43.22-75.147-11.633-14.863-48.6-3.538-83.501 23.681s-54.852 60.286-43.22 75.148m4.97-3.876c-3.858-4.928-2.172-14.604 5.177-26.786 7.74-12.826 20.878-26.986 36.955-39.525 16.078-12.539 33.02-21.84 47.36-26.232 13.619-4.172 23.432-3.463 27.289 1.465 3.858 4.93 2.173 14.605-5.177 26.787-7.739 12.826-20.877 26.986-36.955 39.525s-33.02 21.839-47.36 26.232c-13.618 4.172-23.431 3.463-27.289-1.466"/><path fill="#fff" d="M190.554 177.458c11.633-14.862-8.319-47.929-43.22-75.148s-71.87-38.544-83.5-23.681c-11.633 14.862 8.318 47.929 43.219 75.147 34.901 27.22 71.868 38.545 83.501 23.682m-4.97-3.876c-3.857 4.929-13.67 5.638-27.289 1.466-14.34-4.393-31.282-13.693-47.359-26.232s-29.217-26.699-36.955-39.525c-7.35-12.181-9.036-21.857-5.178-26.787 3.858-4.928 13.67-5.637 27.289-1.465 14.34 4.393 31.282 13.693 47.36 26.232s29.216 26.699 36.955 39.525c7.35 12.181 9.035 21.856 5.177 26.786"/><path fill="#fff" d="M127.194 141.421c7.401 0 13.4-5.99 13.4-13.378 0-7.387-5.999-13.376-13.4-13.376s-13.402 5.989-13.402 13.376c0 7.388 6 13.378 13.402 13.378"/></g></g><defs><clipPath id="clip0_120_2349"><path fill="#fff" d="M0 0h256v256H0z"/></clipPath><clipPath id="clip1_120_2349"><path fill="#fff" d="M40 27h175v202H40z"/></clipPath></defs></svg>