<svg xmlns="http://www.w3.org/2000/svg" fill="none" viewBox="0 0 256 256"><path fill="#00005B" d="M196 0H60C26.863 0 0 26.863 0 60v136c0 33.137 26.863 60 60 60h136c33.137 0 60-26.863 60-60V60c0-33.137-26.863-60-60-60"/><path fill="#99F" d="M70 182.9V80c0-.7.3-1.1 1-1.1 1.7 0 3.8 0 6.1-.1s4.9-.1 7.6-.2 5.6-.1 8.7-.2 6.1-.1 9.1-.1c8.2 0 15 1 20.6 3.1a35.7 35.7 0 0 1 13.4 8.2 31.8 31.8 0 0 1 7.3 11.4 38.3 38.3 0 0 1 2.3 13q0 12.9-6 21.3a34.26 34.26 0 0 1-16.1 12.2 64.1 64.1 0 0 1-22.5 3.8c-2.4 0-4 0-5-.1s-2.4-.1-4.3-.1v31.7a1.24 1.24 0 0 1-1.1 1.4h-20c-.8 0-1.1-.4-1.1-1.3m22.2-84.7v33.3c1.4.1 2.7.2 3.9.2h5.3a37.2 37.2 0 0 0 11.5-1.6 17.2 17.2 0 0 0 8.2-5.3c2.1-2.5 3.1-5.9 3.1-10.3a16.46 16.46 0 0 0-2.3-8.9 14.5 14.5 0 0 0-7-5.7 29.3 29.3 0 0 0-11.8-2c-2.6 0-4.9 0-6.8.1q-2.057-.03-4.1.2m62.9 65.2V71.3c0-.9.5-1.3 1.4-1.3H176c1 0 1.4.4 1.4 1.3v90.2q0 3.45 1.2 4.8c.8 1 2.2 1.4 4.1 1.4a6 6 0 0 0 1.4-.1c.3-.1.8-.1 1.4-.2a.9.9 0 0 1 .5.1c.174.303.244.654.2 1v13.8q.025.656-.1 1.3a1.44 1.44 0 0 1-.7.6 19.5 19.5 0 0 1-4 1c-2.021.282-4.06.416-6.1.4a26.6 26.6 0 0 1-10.4-1.9 14 14 0 0 1-7.2-6.8c-1.7-3-2.6-7.6-2.6-13.5"/></svg>