<svg xmlns="http://www.w3.org/2000/svg" fill="none" viewBox="0 0 256 256"><path fill="#00005B" d="M196 0H60C26.863 0 0 26.863 0 60v136c0 33.137 26.863 60 60 60h136c33.137 0 60-26.863 60-60V60c0-33.137-26.863-60-60-60"/><path fill="#99F" d="M67.5 179.8H48.3c-.9 0-1.3-.5-1.3-1.4V75.9c0-1 .3-1.4 1-1.4 3.8-.1 7-.2 9.7-.2l7.7-.2c2.5-.1 5-.1 7.7-.1h8.7c9 0 16.6 1.3 22.7 3.8a30.6 30.6 0 0 1 14.1 11c3.3 4.7 4.9 10.6 4.9 17.6a27.9 27.9 0 0 1-2.6 12 30.4 30.4 0 0 1-7.1 9.6 33.6 33.6 0 0 1-10.5 6.5c1.1 1.4 2.6 3.5 4.5 6.4s4.1 6 6.4 9.5 4.6 7 6.9 10.6 4.4 6.8 6.3 9.8 3.3 5.4 4.3 7.1a1.57 1.57 0 0 1 .4 1.3.564.564 0 0 1-.432.604.55.55 0 0 1-.268-.004H108a6 6 0 0 1-1.4-.2 2.7 2.7 0 0 1-.8-.7c-1.2-1.7-2.7-4-4.4-6.8s-3.6-5.9-5.6-9.3-4-6.8-6-10.1-3.7-6.3-5.2-9a9 9 0 0 0-1.8-2.1 3.6 3.6 0 0 0-2-.6h-12v37.5a1.21 1.21 0 0 1-1.3 1.3m1.3-58h12.6a32 32 0 0 0 10.6-1.5 13.15 13.15 0 0 0 6.8-4.8 12.62 12.62 0 0 0 2.4-8c0-4.9-1.8-8.5-5.5-10.7s-8.5-3.3-14.5-3.3c-2.6 0-5 0-7.2.1s-4 .1-5.2.2zm139.6-20.9v61c0 2.7 0 5.1.1 7.2s.2 3.9.3 5.5.3 2.9.4 3.9-.3 1.3-1.1 1.3h-17.3a1.88 1.88 0 0 1-1.9-1.1c-.2-.8-.4-1.6-.6-2.5a10.5 10.5 0 0 1-.2-2.5 28.45 28.45 0 0 1-11.3 6.2 41.8 41.8 0 0 1-11.1 1.5 33.6 33.6 0 0 1-10.9-1.7 20.85 20.85 0 0 1-8.5-5.5 24.94 24.94 0 0 1-5.6-9.7 45.6 45.6 0 0 1-2-14.2v-49.2a1.127 1.127 0 0 1 1-1.3h20.1a1.13 1.13 0 0 1 1.3 1v47c0 4.4 1 7.9 2.9 10.4s5.2 3.8 9.7 3.8c2.319 0 4.621-.407 6.8-1.2a21.2 21.2 0 0 0 5.6-3.3v-56.6c0-.8.5-1.1 1.4-1.1h19.8a.94.94 0 0 1 1.1.8z"/></svg>