<svg xmlns="http://www.w3.org/2000/svg" width="256" height="256" fill="none"><path fill="#282828" d="M196 0H60C26.863 0 0 26.863 0 60v136c0 33.137 26.863 60 60 60h136c33.137 0 60-26.863 60-60V60c0-33.137-26.863-60-60-60"/><path fill="#41B883" d="m170.089 118.152-13.627-3.03 10.61 15.201v47.066l36.306-30.401V95.326l-16.644 6.06-16.645 16.716zm-3.017 88.073 19.662-19.746v-19.746l-19.662 16.716zm-25.696-92.668h-.654.704zm49.984-60.348 24.087-1.919-9.102 37.976-45.156 16.867 30.07-52.873zM68.763 101.438l-16.644-6.06v51.661l36.306 30.401v-47.066l10.61-15.2-13.627 3.03-16.645-16.716zm19.662 82.012-19.662-16.716v19.746l19.662 19.746zM64.137 53.26l30.071 52.873-45.106-16.867L40 51.29l24.087 1.92zm98.409 80.042v68.377l-9.101 13.635-10.56 10.656h-30.272l-10.56-10.656-9.102-13.635v-68.377l9.504-14.241 25.294 43.279 25.293-43.279zM154.903 27l-1.408 3.485-25.746 62.569-25.747-62.57L100.594 27z"/><path fill="#000" d="m194.327 48.26-31.781 3.03-9.051-20.805L154.953 27h18.204zm-34.898 7.374-5.482-13.08-23.181 56.358v14.645h10.811l19.612-7.272L191.41 53.21zM61.17 48.26l31.78 3.03 9.052-20.806L100.594 27H82.391l-21.17 21.26zm88.956 66.609-6.537 4.04h-31.68l-6.538-4.04-3.017 4.04.101.152 25.294 43.278 25.293-43.278.101-.152zM64.087 53.21l30.222 53.075 19.611 7.272h10.811V98.912L101.55 42.604l-5.481 13.08-31.982-2.424z"/></svg>