<svg xmlns="http://www.w3.org/2000/svg" fill="none" viewBox="0 0 256 256"><path fill="#F4F2ED" d="M196 0H60C26.863 0 0 26.863 0 60v136c0 33.137 26.863 60 60 60h136c33.137 0 60-26.863 60-60V60c0-33.137-26.863-60-60-60"/><path fill="url(#paint0_linear_563_25)" fill-rule="evenodd" d="M185.687 77.329v131.124h21.736c11.367 0 20.577-9.338 20.577-20.836V51.639c0-3.929-4.513-6.068-7.504-3.558z" clip-rule="evenodd"/><path fill="url(#paint1_linear_563_25)" fill-rule="evenodd" d="m155.371 102.834-39.711 35.522a18.13 18.13 0 0 1-23.81.35L29 85.804V51.66c0-3.929 4.514-6.088 7.503-3.58l78.852 66.273a20.386 20.386 0 0 0 26.311 0z" clip-rule="evenodd"/><path fill="url(#paint2_radial_563_25)" d="m185.687 77.35-30.316 25.484h.02l-39.731 35.522a18.126 18.126 0 0 1-23.81.349L29 85.803v101.814c0 11.498 9.21 20.836 20.577 20.836h136.11z"/><defs><linearGradient id="paint0_linear_563_25" x1="528.331" x2="487.639" y1="313.124" y2="-90.806" gradientUnits="userSpaceOnUse"><stop offset=".271" stop-color="#E3D9FF"/><stop offset="1" stop-color="#7341FF"/></linearGradient><linearGradient id="paint1_linear_563_25" x1="146.588" x2="63.831" y1="209.952" y2="-116.856" gradientUnits="userSpaceOnUse"><stop stop-color="#E3D9FF"/><stop offset="1" stop-color="#7341FF"/></linearGradient><radialGradient id="paint2_radial_563_25" cx="0" cy="0" r="1" gradientTransform="matrix(232.069 0 0 234.755 227.133 66.763)" gradientUnits="userSpaceOnUse"><stop offset=".556" stop-color="#6D4AFF"/><stop offset=".994" stop-color="#AA8EFF"/></radialGradient></defs></svg>