<svg xmlns="http://www.w3.org/2000/svg" fill="none" viewBox="0 0 256 256"><rect width="256" height="256" fill="#282828" rx="60"/><path fill="#E57000" d="m175.298 127.562 48.23 53.001a28.95 28.95 0 0 1-20.849 8.835c-8.656 0-16.252-3.711-21.552-9.541l-26.677-29.326-20.848-22.969 20.848-22.791 26.677-29.328c5.3-5.829 12.896-9.54 21.552-9.54 8.129 0 15.549 3.356 20.849 8.657zm-94.068-.001L33 180.563a28.96 28.96 0 0 0 20.85 8.834c8.655 0 16.251-3.71 21.552-9.541l26.676-29.326 20.848-22.969-20.848-22.791-26.676-29.328c-5.3-5.828-12.897-9.54-21.553-9.54-8.129 0-15.549 3.356-20.849 8.657z"/><path fill="#000" d="m147.269 153.841-19.029-20.964-19.029 20.964-44.022 48.378c4.837 4.838 11.611 7.902 19.026 7.902 7.903 0 14.515-3.226 19.513-8.708l24.512-26.769 24.348 26.769c4.839 5.319 11.772 8.708 19.673 8.708 7.419 0 14.192-3.064 19.029-7.902zm-.002-52.562-19.028 20.964-19.029-20.964-44.023-48.377C70.025 48.064 76.799 45 84.214 45c7.902 0 14.515 3.226 19.513 8.708l24.512 26.768 24.348-26.768c4.838-5.32 11.771-8.708 19.672-8.708 7.419 0 14.192 3.064 19.03 7.901z"/></svg>