<svg xmlns="http://www.w3.org/2000/svg" fill="none" viewBox="0 0 256 256"><rect width="256" height="256" fill="#F4F2ED" rx="60"/><path fill="url(#paint0_linear_3_212)" d="M121.904 78.282c2.744.031 5.085 1.86 5.597 4.373l12.736 62.565 6.03-10.941c.988-1.792 2.97-2.92 5.133-2.92h54.808c3.186 0 5.769 2.407 5.769 5.375s-2.583 5.375-5.769 5.375h-51.285l-12.093 21.94c-1.125 2.042-3.519 3.193-5.957 2.864-2.439-.328-4.384-2.063-4.843-4.318l-10.559-51.866-12.028 51.997c-.564 2.44-2.857 4.197-5.536 4.242s-5.038-1.634-5.696-4.054l-9.3-34.173-5.97 10.508c-1 1.76-2.963 2.86-5.1 2.86h-31.73c-3.187 0-5.77-2.406-5.77-5.375s2.583-5.375 5.77-5.375h28.257l11.355-19.983c1.117-1.965 3.417-3.087 5.786-2.822 2.37.264 4.32 1.861 4.906 4.015l6.933 25.48 12.844-55.525c.579-2.5 2.967-4.274 5.712-4.243"/><linearGradient id="paint0_linear_3_212" x1="126.159" x2="126.159" y1="78.281" y2="166.969" gradientUnits="userSpaceOnUse"><stop stop-color="#F85A5A"/><stop offset=".828" stop-color="#7A5AF8"/></linearGradient></svg>