<svg xmlns="http://www.w3.org/2000/svg" width="256" height="256" fill="none"><rect width="256" height="256" fill="#F4F2ED" rx="50"/><path fill="#DFDEDF" d="M199.928 141.342H55.296v-8.157c0-5.48 4.443-9.923 9.923-9.923h124.785c5.481 0 9.924 4.443 9.924 9.923z"/><path fill="#fff" d="M189.852 235.933H65.372c-5.565 0-10.076-4.511-10.076-10.076v-84.514h144.632v84.514c0 5.565-4.511 10.076-10.076 10.076"/><path fill="#000" d="M198.097 139.701v-7.314c0-4.319-3.5-7.819-7.818-7.819H65.099a7.82 7.82 0 0 0-7.819 7.819v7.314zm0 87.2v-83.919H57.28v83.919c0 4.319 3.5 7.819 7.819 7.819h125.18c4.318 0 7.818-3.5 7.818-7.819M65.833 121.288l.487-5.317-2.068 5.359c.28-.021.56-.042.847-.042zm122.854-8.964.721 8.964h.871c.466 0 .922.038 1.372.094zm9.929 12.76a11.04 11.04 0 0 1 2.762 7.303v94.514c0 6.12-4.979 11.099-11.099 11.099H65.099C58.979 238 54 233.021 54 226.901v-94.514a11.05 11.05 0 0 1 3.078-7.651l11.065-28.68 4.825-52.707 5.444.498-4.348 47.49 1.531.591-2.078 5.387-2.194 23.973h112.601l-6.248-77.572 5.448-.44 3.686 45.75h.002zm-132.436 4.83a2.477 2.477 0 1 1 0 4.954 2.477 2.477 0 0 1 0-4.954m8.467 0a2.477 2.477 0 1 1 0 4.954 2.477 2.477 0 0 1 0-4.954m8.2 0a2.477 2.477 0 1 1 0 4.954 2.477 2.477 0 0 1 0-4.954"/><path fill="#000" d="M74.67 183.654c.426-.492.65-1.139.65-1.942 0-.804-.224-1.425-.65-1.917-.447-.492-1.075-.726-1.88-.726h-3.942v5.31h3.942c.805 0 1.433-.233 1.88-.725m-1.88-7.77c1.701 0 3.045.518 4.053 1.58 1.008 1.061 1.5 2.486 1.5 4.248 0 1.786-.492 3.185-1.477 4.247-1.008 1.063-2.352 1.606-4.076 1.606h-3.942v7.147h-3.046v-18.828zm16.432 11.547v-5.493h3.28v12.401h-3.28v-1.118c-.994.994-2.286 1.49-3.901 1.49-1.491 0-2.684-.496-3.603-1.465-.92-.969-1.367-2.212-1.367-3.753v-7.555h3.28v6.859c0 .87.224 1.591.696 2.113.447.522 1.043.795 1.814.795 2.062 0 3.081-1.417 3.081-4.274m16.077 3.404q.969-1.007.969-2.684c0-1.118-.323-2.038-.969-2.708-.671-.672-1.491-1.019-2.51-1.019q-1.379 0-2.46 1.043c-.72.697-1.068 1.591-1.068 2.684s.348 1.989 1.068 2.659q1.081 1.045 2.46 1.044c1.019 0 1.839-.347 2.51-1.019m-1.938-9.269c1.615 0 3.056.622 4.274 1.864 1.218 1.267 1.814 2.833 1.814 4.721 0 1.889-.596 3.455-1.814 4.697-1.218 1.243-2.634 1.863-4.274 1.863q-2.423 0-4.1-1.341v6.885h-3.28v-18.316h3.28v.994c1.093-.92 2.46-1.367 4.1-1.367m17.891 9.269q.969-1.007.969-2.684c0-1.118-.323-2.038-.969-2.708-.671-.672-1.491-1.019-2.51-1.019q-1.378 0-2.46 1.043c-.721.697-1.069 1.591-1.069 2.684s.348 1.989 1.069 2.659q1.082 1.045 2.46 1.044c1.019 0 1.839-.347 2.51-1.019m-1.939-9.269c1.616 0 3.057.622 4.275 1.864 1.217 1.267 1.814 2.833 1.814 4.721 0 1.889-.597 3.455-1.814 4.697-1.218 1.243-2.634 1.863-4.275 1.863q-2.422 0-4.1-1.341v6.885h-3.28v-18.316h3.28v.994c1.094-.92 2.461-1.367 4.1-1.367m10.933 5.144h5.989c-.198-.77-.571-1.342-1.093-1.715a3.1 3.1 0 0 0-1.839-.571c-.67 0-1.317.198-1.888.596a2.75 2.75 0 0 0-1.169 1.69m3.057-5.144c1.69 0 3.156.596 4.374 1.765 1.218 1.192 1.839 2.708 1.914 4.572v1.118h-9.444q.261 1.304 1.119 2.088c.571.521 1.217.794 1.987.794 1.417 0 2.436-.546 3.082-1.639l2.933.621c-.523 1.267-1.318 2.212-2.361 2.858q-1.566.968-3.654.968c-1.789 0-3.305-.62-4.522-1.838s-1.84-2.808-1.84-4.722c0-1.913.622-3.503 1.864-4.746 1.218-1.217 2.734-1.839 4.548-1.839m15.332 10.09c.621 0 1.317-.2 2.063-.597l.944 2.734c-1.144.621-2.212.919-3.231.919-1.516 0-2.709-.423-3.579-1.243-.869-.819-1.291-2.037-1.291-3.702v-5.145h-2.66v-2.684h2.66v-3.751h3.28v3.751h4.051v2.684h-4.051v4.896c0 1.417.596 2.138 1.814 2.138m6.882-4.946h5.989c-.199-.77-.572-1.342-1.093-1.715a3.1 3.1 0 0 0-1.84-.571 3.27 3.27 0 0 0-1.888.596 2.75 2.75 0 0 0-1.168 1.69m3.056-5.144c1.691 0 3.157.596 4.375 1.765 1.217 1.192 1.838 2.708 1.913 4.572v1.118h-9.443q.26 1.304 1.119 2.088c.571.521 1.217.794 1.987.794 1.417 0 2.436-.546 3.082-1.639l2.932.621c-.522 1.267-1.317 2.212-2.361 2.858q-1.565.968-3.653.968c-1.789 0-3.305-.62-4.523-1.838s-1.839-2.808-1.839-4.722c0-1.913.622-3.503 1.864-4.746 1.218-1.217 2.734-1.839 4.547-1.839m11.679 5.144h5.989c-.199-.77-.572-1.342-1.093-1.715a3.1 3.1 0 0 0-1.84-.571 3.27 3.27 0 0 0-1.888.596 2.75 2.75 0 0 0-1.168 1.69m3.056-5.144c1.691 0 3.157.596 4.375 1.765 1.217 1.192 1.838 2.708 1.913 4.572v1.118h-9.443q.26 1.304 1.119 2.088c.571.521 1.217.794 1.987.794 1.417 0 2.436-.546 3.082-1.639l2.932.621c-.522 1.267-1.317 2.212-2.361 2.858q-1.565.968-3.653.968c-1.789 0-3.305-.62-4.523-1.838s-1.839-2.808-1.839-4.722c0-1.913.622-3.503 1.864-4.746 1.218-1.217 2.734-1.839 4.547-1.839m16.501.199c.373 0 .671.024.87.099l-.174 3.156h-.721c-2.957 0-4.424 1.765-4.424 5.319v4h-3.28v-12.4h3.28v2.261c1.119-1.616 2.61-2.435 4.449-2.435"/><path fill="#00D8A2" d="m175.533 94.36 17.698-8.544v-8.543l-40.888-19.529 40.888-21.053v-8.239l-17.087-7.933-48.414 24.105-49.228-24.105-15.866 8.544v7.322l38.446 21.054-38.446 19.529v8.848l16.477 8.544 48.82-25.02z"/><path fill="#000" d="M177.772 90.874v-3.68l13.322-6.903v4.133zM63.728 80.194l12.872 7.39v2.942l-12.872-6.513zm65.936-15.54 44.281 21.88v4.399l-44.281-22.686zm-49.237 22.52 45.41-22.515v3.587l-45.41 22.975zm32.153-36.79L66.627 28.198l11.902-6.05 49.221 25.517 48.397-25.505 12.322 6.311-44.813 22.552c-1.791.902-1.788 3.46.005 4.358l44.35 22.197-11.495 5.957-48.766-24.987-49.628 25.497-11.335-6.507 45.819-22.776c1.815-.902 1.8-3.497-.026-4.378M64.3 35.714v-4.037l42.858 21.382-4.333 1.731zm87.882 19.314c-.059-.036-4.105-1.945-4.105-1.945l43.017-21.649v4.056zm4.305 2.12 37.809-18.984c.383-.192.625-.584.625-1.013V28.17c0-.426-.239-.815-.617-1.009l-17.635-9.032a1.13 1.13 0 0 0-1.029-.002L128.258 42.17a1.13 1.13 0 0 1-1.018.004L79.024 18.119a1.13 1.13 0 0 0-1.02.004L60.52 27.008c-.38.194-.62.584-.62 1.01v9.128c0 .431.245.825.632 1.016L98.5 56.921 60.707 75.685a1.13 1.13 0 0 0-.63.995l-.164 8.975c-.008.435.233.836.62 1.032l18.157 9.186c.32.161.698.162 1.02 0l47.528-23.865c.321-.161.7-.16 1.022.003l46.935 23.865c.316.16.688.164 1.007.01l18.078-8.753c.391-.19.64-.585.64-1.02v-9.377c0-.433-.246-.827-.634-1.018z"/></svg>