<svg xmlns="http://www.w3.org/2000/svg" width="256" height="256" fill="none"><g clip-path="url(#clip0_3_37)"><path fill="#F4F2ED" d="M196.003.011h-136c-33.137 0-60 26.863-60 60v136c0 33.137 26.863 60 60 60h136c33.137 0 60-26.863 60-60v-136c0-33.137-26.863-60-60-60"/><path fill="#AA910D" fill-rule="evenodd" stroke="#000" stroke-linecap="round" stroke-linejoin="round" stroke-miterlimit="1.5" stroke-width="2.711" d="M61.208 259.376c.562-1.428 3.061-8.52 4.372-20.227 1.123-10.044 1.14-49.687 0-59.959-1.767-15.966-12.488-65.845-12.488-65.845l162.615 20.223s-8.93 9.146-11.886 14.148c-4.379 7.404-12.056 19.475-16.493 30.015-6.024 14.321-11.927 38.499-18.676 57.067l-9.443 25.382c-46.576.071-46.841.399-98.001-.804" clip-rule="evenodd"/><path fill="#DCBC00" fill-rule="evenodd" d="m172.047 154.521 42.545-21.281s-8.931 9.145-11.894 14.147c-4.372 7.404-12.049 19.475-16.486 30.015-6.024 14.322-11.926 38.5-18.675 57.068-2.805 7.72-5.948 16.952-9.246 26.485l-31.028 13.079c5.74-12.453 10.209-28.31 14.296-38.193 7.718-18.682 12.041-44.099 18.439-58.922 3.525-8.15 12.049-22.398 12.049-22.398" clip-rule="evenodd"/><path fill="#CBCFCC" fill-rule="evenodd" stroke="#000" stroke-linecap="round" stroke-linejoin="round" stroke-miterlimit="1.5" stroke-width="2.157" d="M180.611 147.326c20.54 2.526 35.169 21.259 32.646 41.808-2.531 20.548-21.265 35.179-41.805 32.653-9.607-1.181-17.91-5.902-23.786-12.693l-.086-.102-53.43-6.593s-.1.069-.145.103c-7.343 5.162-16.54 7.726-26.14 6.545-20.547-2.527-35.176-21.26-32.645-41.808 2.523-20.549 21.257-35.18 41.805-32.653z" clip-rule="evenodd"/><path fill="#465D63" fill-rule="evenodd" d="M179.026 152.061c17.878 2.1 30.686 18.321 28.587 36.201-2.101 17.879-18.32 30.69-36.198 28.59-17.877-2.099-30.687-18.321-28.586-36.2 2.1-17.88 18.32-30.691 36.197-28.591" clip-rule="evenodd"/><path fill="#C8D0D2" d="m187.091 166.145 1.63-1.948-1.025-2.082.955.112.658 1.395.948-1.206.946.111-1.49 1.817 1.139 2.243-.985-.115-.733-1.505-1.064 1.293zm-40.579 25.952.2-1.702-1.206-2.517.957.112.764 1.713 1.12-1.491.941.11-1.763 2.174-.199 1.697zm11.873 10.365 1.618.19q.48.056.711.125.231.067.402.216t.271.374a.93.93 0 0 1 .069.488.94.94 0 0 1-.215.504.96.96 0 0 1-.457.307q.358.151.525.434a.97.97 0 0 1 .127.633 1.2 1.2 0 0 1-.191.522 1.1 1.1 0 0 1-.399.375 1.2 1.2 0 0 1-.57.128 14 14 0 0 1-.989-.089l-1.376-.161zm.738.77-.11.935.535.063q.478.056.595.056a.54.54 0 0 0 .347-.107q.135-.105.158-.301a.45.45 0 0 0-.068-.317.47.47 0 0 0-.291-.178 10 10 0 0 0-.697-.097zm-.189 1.608-.127 1.082.756.089q.441.051.563.041a.5.5 0 0 0 .316-.127.5.5 0 0 0 .155-.33.52.52 0 0 0-.053-.319.5.5 0 0 0-.233-.215q-.16-.077-.717-.143zm45.672-23.112-.888-.105-.246-.96-1.616-.19-.442.88-.867-.102 2.051-3.86.863.101zm-1.316-1.778-.381-1.566-.722 1.437z"/><path fill="#D1D1CD" fill-rule="evenodd" d="M181.098 177.918c3.74-2.469 4.772-7.511 2.304-11.251a8.124 8.124 0 0 0-11.25-2.303l-18.993 12.539c-3.74 2.47-4.772 7.511-2.304 11.251a8.124 8.124 0 0 0 11.25 2.303z" clip-rule="evenodd"/><path fill="#BE0003" fill-rule="evenodd" d="M163.728 179.656a6.465 6.465 0 0 1-1.833 8.951 6.46 6.46 0 0 1-8.95-1.832 6.465 6.465 0 0 1 1.833-8.951 6.464 6.464 0 0 1 8.95 1.832m17.691-11.679a6.465 6.465 0 0 1-1.832 8.95 6.463 6.463 0 0 1-8.95-1.832 6.46 6.46 0 1 1 10.782-7.118" clip-rule="evenodd"/><path fill="#D1D1CD" fill-rule="evenodd" d="M196.248 193.121a8.124 8.124 0 0 0 2.303-11.25 8.12 8.12 0 0 0-11.249-2.303l-18.994 12.539a8.126 8.126 0 0 0-2.303 11.25c2.469 3.74 7.509 4.773 11.249 2.304z" clip-rule="evenodd"/><path fill="#BE0003" fill-rule="evenodd" d="M178.869 194.859a6.464 6.464 0 0 1-1.833 8.951 6.46 6.46 0 0 1-8.949-1.833 6.463 6.463 0 0 1 1.833-8.95 6.46 6.46 0 0 1 8.949 1.832m17.7-11.679a6.464 6.464 0 0 1-1.832 8.95 6.46 6.46 0 0 1-7.118-10.783 6.463 6.463 0 0 1 8.95 1.833" clip-rule="evenodd"/><path fill="#334249" fill-rule="evenodd" stroke="#000" stroke-linecap="round" stroke-linejoin="round" stroke-miterlimit="1.5" stroke-width="1.909" d="M113.894 177.79a2.13 2.13 0 0 0-2.919-.729l-9.197 5.522a2.128 2.128 0 0 0 2.19 3.649l9.197-5.523a2.13 2.13 0 0 0 .729-2.919" clip-rule="evenodd"/><path fill="#324148" fill-rule="evenodd" stroke="#000" stroke-linecap="round" stroke-linejoin="round" stroke-miterlimit="1.5" stroke-width="1.909" d="M133.313 180.174a2.13 2.13 0 0 0-2.919-.727l-9.192 5.529a2.13 2.13 0 0 0-.728 2.92 2.13 2.13 0 0 0 2.92.727l9.193-5.529a2.13 2.13 0 0 0 .726-2.92" clip-rule="evenodd"/><path fill="#646464" fill-rule="evenodd" d="M147.781 152.551a4.3 4.3 0 0 0-3.743-4.793l-35.81-4.404a4.3 4.3 0 0 0-4.792 3.743l-1.05 8.536a4.3 4.3 0 0 0 3.742 4.793l35.81 4.404a4.3 4.3 0 0 0 4.793-3.743z" clip-rule="evenodd"/><path fill="#202C33" fill-rule="evenodd" stroke="#000" stroke-linecap="round" stroke-linejoin="round" stroke-miterlimit="1.5" stroke-width="2.011" d="m67.396 177.229-.402 6.232c-.206 3.19-.54 2.809 2.652 3.016l5.663.366c3.184.205 2.804.54 3.01-2.65l.41-6.231 6.223.402c3.192.206 2.812.542 3.018-2.649l.365-5.665c.206-3.191.54-2.809-2.645-3.015l-6.23-.403.401-6.231c.206-3.191.54-2.81-2.652-3.016l-5.663-.366c-3.192-.206-2.804-.541-3.018 2.65l-.402 6.231-6.23-.403c-3.185-.206-2.805-.541-3.01 2.649l-.366 5.665c-.214 3.19-.548 2.809 2.644 3.015z" clip-rule="evenodd"/><path fill="#111618" fill-rule="evenodd" d="m63.917 171.027 19.473 1.26c.983.063 2.263.705 2.263.705s.044-.428.06-.679l.06-.932c.177-2.735.715-1.968-2.185-2.156l-6.59-.413.458-7.091c.176-2.734.722-1.967-2.186-2.156l-1.301-.063c-2.909-.188-2.277-.879-2.453 1.856l-.458 7.09-6.944-.482c-2.9-.188-2.268-.879-2.444 1.857l-.06.932c-.018.279-.045.573-.045.573s1.393-.363 2.352-.301" clip-rule="evenodd"/><path fill="gray" fill-rule="evenodd" d="M70.339 195.517c.522.092 5.977.957 12.538-2.179 4.008-1.916 7.424-6.153 7.424-6.153s-2.398 4.23-7.212 6.559c-5.974 2.897-12.188 1.874-12.75 1.773" clip-rule="evenodd"/><path fill="#3B3B3B" fill-rule="evenodd" d="M94.083 165.732a13 13 0 0 0-1.491-3.016c-1.896-2.797-5.34-5.485-8.455-7.364-2.558-1.546-5.427-3.296-9.075-4.044-3.297-.675-8.374-.203-8.374-.203s10.618-3.109 19 2.84c5.145 3.653 7.423 8.68 8.395 11.787.55 1.6.67 2.833.67 2.833s-.141-1.127-.67-2.833" clip-rule="evenodd"/><path fill="#FEE32D" fill-rule="evenodd" stroke="#000" stroke-linecap="round" stroke-linejoin="round" stroke-miterlimit="1.5" stroke-width="2.361" d="M145.603 37.856c15.545 1.922 16.759-6.432 31.322-7.537 7.948-.602 17.613 1.984 20.171 2.99 13.106 5.153 16.109 19.175 18.027 27.063 2.058 8.423 1.764 12.088 4.697 21.94 2.306 7.737 4.002 13.294 5.007 18.67 1.074 5.747 2.126 10.142 1.43 15.807-.643 5.238-2.37 11.485-5.128 14.979-2.662 3.375-7.636 3.939-11.415 5.991-4.104 2.234-9.342 4.74-13.229 7.411-3.646 2.506-6.8 6.284-10.097 8.617-3.018 2.135-6.382 3.75-9.699 5.381-3.789 1.862-8.484 4.433-13.039 5.791a58.3 58.3 0 0 1-14.249 2.355c-5.918.231-14.501-.14-21.248-.97-6.496-.799-13.807-2.383-19.217-4.007-4.612-1.384-9.181-3.319-13.264-5.739s-8.017-6.052-11.242-8.777c-2.824-2.386-5.697-4.768-8.101-7.569-2.642-3.064-4.78-7.493-7.712-10.807-3.126-3.534-7.6-7.234-11.043-10.396-3.162-2.906-7.86-4.66-9.626-8.578-1.83-4.059-2.11-10.667-1.343-15.776.766-5.11 3.468-10.146 5.936-14.88 2.69-5.147 7.156-10.45 10.183-16.002 3.357-6.16 6.037-14.093 9.971-20.957 4.04-7.045 11.58-18.424 21.614-21.513 6.793-2.091 18.339 0 23.543 1.711 13.883 4.566 12.683 12.939 27.751 14.802" clip-rule="evenodd"/><path fill="#FFDF26" fill-rule="evenodd" d="M176.888 32.351c4.652-1.746 13.984-.528 18.915 1.46 4.713 1.903 8.092 6.044 10.665 10.474 3.269 5.638 4.374 4.252 9.709 29.546 1.211 5.703 2.571 11.59 3.797 15.497.861 2.745 1.542 5.01 2.251 7.785.921 3.59 1.872 9.408 1.965 13.591.081 3.88.075 7.941-1.413 11.508-1.496 3.571-2.421 8.231-6.257 10.08-6.215 2.99-21.003 10.736-21.003 10.736-.843-1.888 3.907-9.248-.296-19.099-4.877-11.455-11.038-14.781-11.038-14.781s14.471-5.564 19.226-25.19c2.027-8.36.862-23.855-3.815-31.25-7.844-12.408-14.504-13.007-21.629-14.564-3.267-.715-2.462-5.27-1.077-5.793" clip-rule="evenodd"/><path fill="#F0CC00" fill-rule="evenodd" d="M149.573 40.45s6.368-.623 9.056-1.813c4.71-2.086 11.566-6.215 16.595-6.164 2.466.026.354 2.6-.483 3.668-1.263 1.602-.658-.18-9.596 6.075-8.309 5.819-14.736 18.882-16.307 31.005-.732 5.627 2.231 18.972 3.379 19.31l-11.13-3.007s.726-15.8 2.066-23.572c1.414-8.18 6.42-25.503 6.42-25.503" clip-rule="evenodd"/><path fill="#EFCC00" fill-rule="evenodd" d="M69.165 126.711s-16.318-14.325-17.835-15.333c-4.232-2.806-3.375-11.521-2.869-16.782.507-5.262 3.453-10.084 5.925-14.784 2.503-4.759 6.43-8.954 9.08-13.774 3.637-6.638 7.755-19.4 12.78-26.052 4.047-5.37 9.469-13.457 14.626-15.78 8.621-3.883 14.782-1.285 14.904-.272.077.643-4.019 3.4-10.007 6.679-4.388 2.402-8.625 6.12-10.074 7.903-2.833 3.496-8.824 13.144-10.462 24.218-.636 4.304-.26 13.01.178 15.985.706 4.734 1.21 13.99.962 16.013-.223 1.81-2.06 3.01-3.02 4.56-1.024 1.654-2.454 3.408-3.129 5.367-.848 2.497-1.837 6.344-2 9.613-.173 3.676.941 12.439.941 12.439" clip-rule="evenodd"/><path fill="#fff" fill-rule="evenodd" d="M196.777 39.026c1.018-1.553 5.56.84 6.765 2.52 1.408 1.951 2.247 7.204 1.587 7.527-.936.46-2.613-3.578-3.972-5.477-1.409-1.951-4.779-3.958-4.38-4.57m25.872 73.263c-1.018-.365-1.278 2.27-2.035 4.675-.863 2.773-1.36 3.537-2.605 4.961-3.835 4.405-3.99 7.401-3.167 7.472 3.517.301 5.78-4.614 7.066-7.994.782-2.031 1.311-8.907.741-9.114m-90.764-70.507c.472-.49 3.021 1.054 3.851 2.114s1.596 3.755 1.123 4.245c-.472.49-3.427-.711-4.249-1.771-.831-1.06-1.197-4.098-.725-4.588" clip-rule="evenodd"/><path fill="#fff" fill-rule="evenodd" stroke="#000" stroke-linecap="round" stroke-linejoin="round" stroke-miterlimit="1.5" stroke-width="2.255" d="M181.039 41.44c13.679 1.683 22.904 18.34 20.583 37.173-2.312 18.834-15.3 32.759-28.972 31.078-13.679-1.683-22.895-18.338-20.583-37.173 2.321-18.833 15.3-32.758 28.972-31.077" clip-rule="evenodd"/><path fill="#000" fill-rule="evenodd" d="M165.049 80.481c4.291.528 7.353 4.445 6.826 8.74-.528 4.296-4.447 7.355-8.745 6.826-4.291-.528-7.353-4.444-6.826-8.74.536-4.295 4.447-7.354 8.745-6.826" clip-rule="evenodd"/><path fill="#fff" fill-rule="evenodd" stroke="#000" stroke-linecap="round" stroke-linejoin="round" stroke-miterlimit="1.5" stroke-width="2.255" d="M107.93 32.45c13.672 1.681 22.896 18.337 20.576 37.17-2.313 18.835-15.301 32.759-28.972 31.078-13.672-1.68-22.896-18.338-20.584-37.172 2.321-18.833 15.3-32.759 28.98-31.077" clip-rule="evenodd"/><path fill="#000" fill-rule="evenodd" d="M114.145 74.22c4.29.528 7.353 4.445 6.825 8.741s-4.446 7.354-8.745 6.825c-4.29-.528-7.353-4.444-6.825-8.74.527-4.295 4.446-7.354 8.745-6.826" clip-rule="evenodd"/><path fill="#F0CC00" fill-rule="evenodd" stroke="#000" stroke-linecap="round" stroke-linejoin="round" stroke-miterlimit="1.5" stroke-width="2.297" d="M92.466 196.246c3.291.182 16.63 5.161 25.079 5.998 15.117 1.496 18.917.228 21.381.947 11.492 3.352 12.469 13.553 10.557 19.544-2.38 7.463-9.566 19.631-37.97 15.963-32.502-4.197-35.084-22.54-33.195-30.553 2.582-10.957 10.325-12.109 14.148-11.899" clip-rule="evenodd"/><path fill="#FEE32D" fill-rule="evenodd" d="M105.895 204.844c4.144.245 7.62.946 12.667 1.011 7.657.096 12.487-1.578 17.914-1.709 5.425-.131 9.636 3.776 11.573 7.963 2.196 4.745 1.116 8.395.238 10.984-3.372 9.94-12.869 14.875-34.434 11.995-8.504-1.137-12.783-2.246-18.489-7.088-4.305-3.653-7.022-12.593-3.892-18.145 3.622-6.422 10.505-5.243 14.423-5.011" clip-rule="evenodd"/><path fill="#fff" fill-rule="evenodd" d="M140.019 209.307c.781.095 2.961 1.439 3.62 2.82.738 1.543.929 5.399.802 6.441-.063.52-1.239.223-1.563-.19-.457-.584-.596-2.299-1.182-3.316-.654-1.137-2.464-2.547-2.744-3.506-.233-.797.285-2.344 1.067-2.249" clip-rule="evenodd"/><path fill="#000" fill-opacity=".27" fill-rule="evenodd" d="M130.083 117.286c31.265 3.845 55.132 19.297 53.265 34.484-1.869 15.188-28.769 24.397-60.034 20.552s-55.132-19.297-53.263-34.485c1.867-15.188 28.767-24.396 60.032-20.551" clip-rule="evenodd"/><path fill="#fff" fill-rule="evenodd" stroke="#000" stroke-linecap="round" stroke-linejoin="round" stroke-miterlimit="1.5" stroke-width="2.361" d="m169.819 161.609 10.408-4.471-8.018 38.451zm-82.546-10.152-9.017-6.86-1.538 39.248z" clip-rule="evenodd"/><path fill="#FEE32D" fill-rule="evenodd" stroke="#000" stroke-linecap="round" stroke-linejoin="round" stroke-miterlimit="1.5" stroke-width="2.183" d="M136.939 91.837c34.165 4.226 59.838 24.339 57.297 44.885-2.543 20.546-32.345 33.795-66.511 29.569-34.164-4.228-59.838-24.342-57.295-44.888 2.541-20.546 32.343-33.795 66.509-29.567" clip-rule="evenodd"/><path fill="#E8C500" fill-rule="evenodd" d="M109.288 94.563s-25.147 5.795-27.918 28.195c-2.775 22.4 19.643 33.239 19.643 33.239s-30.316-11.816-27.541-34.216c2.77-22.4 35.816-27.218 35.816-27.218" clip-rule="evenodd"/><path fill="#F7DB27" fill-rule="evenodd" d="M156.31 124.519c7.194.891 12.648 4.743 12.171 8.596-.477 3.855-6.705 6.262-13.899 5.371s-12.647-4.742-12.17-8.596 6.705-6.261 13.898-5.371" clip-rule="evenodd"/><path fill="#CDB100" fill-rule="evenodd" d="M142.614 129.091c1.26-3.32 7.058-5.29 13.676-4.471 7.194.89 12.649 4.742 12.17 8.596-.271 2.201-2.42 3.929-5.549 4.842q.164-.435.222-.9c.479-3.854-4.976-7.706-12.169-8.596-3.088-.382-5.994-.157-8.35.529" clip-rule="evenodd"/><path fill="#F7DB27" fill-rule="evenodd" d="M107.759 118.512c7.194.89 12.648 4.742 12.171 8.596s-6.705 6.261-13.899 5.371c-7.194-.891-12.647-4.742-12.17-8.596s6.705-6.262 13.898-5.371" clip-rule="evenodd"/><path fill="#CDB100" fill-rule="evenodd" d="M94.063 123.083c1.26-3.32 7.058-5.29 13.676-4.471 7.194.89 12.649 4.742 12.17 8.597-.271 2.2-2.42 3.928-5.549 4.841q.163-.435.222-.9c.479-3.854-4.976-7.706-12.17-8.596-3.087-.382-5.993-.157-8.35.529" clip-rule="evenodd"/><path fill="#fff" fill-rule="evenodd" d="M177.32 111.813c.978-1.136 5.822 3.902 6.256 4.649.527.923 5.149 5.098 2.598 6.804-2.621 1.747-3.407-3.295-4.966-5.25-1.423-1.788-5.663-4.12-3.888-6.203" clip-rule="evenodd"/></g><defs><clipPath id="clip0_3_37"><path fill="#fff" d="M0 0h256v256H0z"/></clipPath></defs></svg>