<svg xmlns="http://www.w3.org/2000/svg" fill="none" viewBox="0 0 256 256"><g clip-path="url(#clip0_3_267)"><path fill="#282828" d="M196.002.02h-136c-33.137 0-60 26.863-60 60v136c0 33.137 26.863 60 60 60h136c33.137 0 60-26.863 60-60v-136c0-33.137-26.863-60-60-60"/><path fill="#AA910D" fill-rule="evenodd" stroke="#000" stroke-linecap="round" stroke-linejoin="round" stroke-miterlimit="1.5" stroke-width="2.676" d="M56.793 259.351c.555-1.41 3.022-8.412 4.316-19.969 1.11-9.916 1.125-49.053 0-59.194-1.744-15.761-12.329-65.004-12.329-65.004l160.54 19.966s-8.817 9.028-11.734 13.966c-4.324 7.31-11.903 19.226-16.283 29.632-5.947 14.139-11.774 38.008-18.437 56.338l-9.322 25.058c-45.981.07-46.244.394-96.75-.793" clip-rule="evenodd"/><path fill="#DCBC00" fill-rule="evenodd" d="m166.216 155.835 42.002-21.01s-8.817 9.029-11.743 13.967c-4.315 7.31-11.894 19.226-16.274 29.631-5.948 14.139-11.775 38.008-18.437 56.339-2.769 7.622-5.873 16.736-9.128 26.147l-30.631 12.912c5.666-12.294 10.078-27.948 14.113-37.705 7.619-18.443 11.886-43.535 18.204-58.169 3.48-8.046 11.894-22.112 11.894-22.112" clip-rule="evenodd"/><path fill="#CBCFCC" fill-rule="evenodd" stroke="#000" stroke-linecap="round" stroke-linejoin="round" stroke-miterlimit="1.5" stroke-width="2.13" d="M174.671 148.731c20.278 2.494 34.72 20.988 32.229 41.275-2.499 20.285-20.994 34.729-41.271 32.235-9.484-1.166-17.682-5.826-23.482-12.53l-.085-.101-52.748-6.509s-.098.068-.142.102c-7.25 5.095-16.33 7.627-25.807 6.462-20.285-2.495-34.727-20.989-32.228-41.275 2.49-20.286 20.985-34.73 41.27-32.235z" clip-rule="evenodd"/><path fill="#465D63" fill-rule="evenodd" d="M173.107 153.407c17.649 2.072 30.294 18.086 28.221 35.738-2.074 17.651-18.086 30.298-35.735 28.225s-30.295-18.087-28.221-35.738c2.073-17.651 18.086-30.299 35.735-28.225" clip-rule="evenodd"/><path fill="#C8D0D2" d="m181.068 167.311 1.61-1.924-1.013-2.055.943.11.65 1.378.935-1.191.934.11-1.47 1.794 1.124 2.214-.973-.114-.723-1.486-1.05 1.277zm-40.06 25.62.197-1.681-1.191-2.484.945.11.754 1.691 1.107-1.472.928.109-1.74 2.146-.197 1.676zm11.721 10.233 1.597.187q.474.055.702.123.228.066.397.213.17.147.268.37a.9.9 0 0 1 .067.482.95.95 0 0 1-.663.8q.354.15.519.428a.97.97 0 0 1 .125.626 1.2 1.2 0 0 1-.189.514 1.1 1.1 0 0 1-.394.371 1.14 1.14 0 0 1-.563.126q-.204-.002-.975-.087l-1.36-.159zm.729.759-.109.923.528.062q.472.056.588.056.21 0 .342-.105a.43.43 0 0 0 .156-.298.44.44 0 0 0-.067-.313.47.47 0 0 0-.287-.176q-.119-.027-.688-.095zm-.187 1.588-.125 1.068.746.088q.436.05.556.04a.5.5 0 0 0 .311-.125.5.5 0 0 0 .153-.325.52.52 0 0 0-.051-.316.5.5 0 0 0-.231-.212q-.157-.076-.708-.141zm45.088-22.817-.877-.103-.242-.949-1.596-.187-.436.868-.856-.1 2.025-3.811.852.1zm-1.299-1.755-.375-1.546-.714 1.418z"/><path fill="#D1D1CD" fill-rule="evenodd" d="M175.152 178.933c3.692-2.438 4.711-7.415 2.274-11.107a8.02 8.02 0 0 0-11.106-2.274l-18.75 12.379a8.02 8.02 0 0 0-2.275 11.107 8.02 8.02 0 0 0 11.106 2.274z" clip-rule="evenodd"/><path fill="#BE0003" fill-rule="evenodd" d="M158.003 180.649a6.38 6.38 0 0 1-1.809 8.836 6.378 6.378 0 0 1-7.026-10.645 6.38 6.38 0 0 1 8.835 1.809m17.465-11.531a6.38 6.38 0 0 1-1.808 8.836 6.38 6.38 0 0 1-8.835-1.809 6.38 6.38 0 0 1 1.809-8.836 6.38 6.38 0 0 1 8.834 1.809" clip-rule="evenodd"/><path fill="#D1D1CD" fill-rule="evenodd" d="M190.108 193.942c3.692-2.438 4.711-7.415 2.274-11.107a8.02 8.02 0 0 0-11.106-2.274l-18.751 12.38c-3.692 2.437-4.71 7.414-2.273 11.106s7.413 4.712 11.105 2.274z" clip-rule="evenodd"/><path fill="#BE0003" fill-rule="evenodd" d="M172.951 195.658a6.38 6.38 0 0 1-1.809 8.836 6.38 6.38 0 0 1-8.835-1.809 6.38 6.38 0 0 1 1.809-8.836 6.38 6.38 0 0 1 8.835 1.809m17.474-11.53a6.38 6.38 0 0 1-1.809 8.836 6.38 6.38 0 0 1-8.835-1.81 6.38 6.38 0 0 1 1.808-8.836 6.38 6.38 0 0 1 8.836 1.81" clip-rule="evenodd"/><path fill="#334249" fill-rule="evenodd" stroke="#000" stroke-linecap="round" stroke-linejoin="round" stroke-miterlimit="1.5" stroke-width="1.884" d="M108.806 178.806a2.1 2.1 0 0 0-2.882-.719l-9.08 5.451a2.102 2.102 0 0 0 2.163 3.602l9.079-5.452a2.1 2.1 0 0 0 .72-2.882" clip-rule="evenodd"/><path fill="#324148" fill-rule="evenodd" stroke="#000" stroke-linecap="round" stroke-linejoin="round" stroke-miterlimit="1.5" stroke-width="1.884" d="M127.977 181.16a2.1 2.1 0 0 0-2.882-.717l-9.075 5.457a2.102 2.102 0 0 0 2.165 3.601l9.075-5.459a2.1 2.1 0 0 0 .717-2.882" clip-rule="evenodd"/><path fill="#646464" fill-rule="evenodd" d="M142.26 153.889a4.247 4.247 0 0 0-3.695-4.731l-35.353-4.348a4.247 4.247 0 0 0-4.73 3.695l-1.037 8.427a4.247 4.247 0 0 0 3.695 4.732l35.352 4.348a4.247 4.247 0 0 0 4.731-3.696z" clip-rule="evenodd"/><path fill="#202C33" fill-rule="evenodd" stroke="#000" stroke-linecap="round" stroke-linejoin="round" stroke-miterlimit="1.5" stroke-width="1.985" d="m62.902 178.252-.397 6.153c-.203 3.149-.533 2.773 2.619 2.977l5.59.361c3.144.203 2.768.534 2.971-2.616l.405-6.151 6.143.397c3.152.204 2.777.535 2.98-2.615l.36-5.592c.204-3.151.534-2.774-2.61-2.977l-6.152-.398.397-6.151c.203-3.151.533-2.774-2.619-2.978l-5.59-.361c-3.152-.204-2.768-.535-2.98 2.615l-.396 6.152-6.151-.398c-3.144-.203-2.769-.534-2.972 2.615l-.36 5.593c-.212 3.15-.542 2.773 2.61 2.977z" clip-rule="evenodd"/><path fill="#111618" fill-rule="evenodd" d="m59.467 172.13 19.225 1.243c.97.063 2.234.697 2.234.697s.043-.423.06-.67l.059-.921c.174-2.7.705-1.943-2.158-2.129l-6.505-.407.451-7c.174-2.7.713-1.943-2.158-2.129l-1.284-.062c-2.872-.186-2.248-.868-2.422 1.832l-.451 7-6.856-.476c-2.863-.185-2.239-.868-2.413 1.833l-.06.921c-.017.275-.044.564-.044.564s1.376-.357 2.322-.296" clip-rule="evenodd"/><path fill="gray" fill-rule="evenodd" d="M65.807 196.307c.516.091 5.9.944 12.378-2.151 3.957-1.892 7.329-6.074 7.329-6.074s-2.367 4.175-7.12 6.475c-5.897 2.859-12.032 1.849-12.587 1.75" clip-rule="evenodd"/><path fill="#3B3B3B" fill-rule="evenodd" d="M89.248 166.902a13 13 0 0 0-1.472-2.977c-1.872-2.761-5.27-5.415-8.347-7.27-2.525-1.526-5.358-3.254-8.96-3.992-3.253-.667-8.266-.201-8.266-.201s10.482-3.069 18.757 2.804c5.08 3.607 7.329 8.569 8.288 11.636.543 1.58.66 2.797.66 2.797s-.138-1.112-.66-2.797" clip-rule="evenodd"/><path fill="#FEE32D" fill-rule="evenodd" stroke="#000" stroke-linecap="round" stroke-linejoin="round" stroke-miterlimit="1.5" stroke-width="2.331" d="M140.11 40.66c15.346 1.897 16.545-6.35 30.922-7.441 7.847-.595 17.388 1.959 19.914 2.953 12.938 5.086 15.902 18.93 17.797 26.717 2.031 8.315 1.741 11.933 4.636 21.658 2.277 7.64 3.951 13.125 4.943 18.433 1.061 5.673 2.099 10.011 1.412 15.604-.635 5.172-2.339 11.339-5.063 14.789-2.627 3.331-7.538 3.888-11.269 5.914-4.052 2.205-9.222 4.679-13.06 7.316-3.599 2.474-6.713 6.204-9.968 8.507-2.979 2.108-6.301 3.702-9.575 5.312-3.74 1.838-8.376 4.377-12.873 5.717a57.5 57.5 0 0 1-14.067 2.325c-5.842.228-14.315-.138-20.976-.957-6.413-.789-13.63-2.353-18.972-3.956-4.553-1.366-9.063-3.277-13.094-5.666-4.03-2.388-7.914-5.975-11.098-8.665-2.788-2.355-5.625-4.707-7.998-7.472-2.609-3.025-4.72-7.397-7.613-10.669-3.086-3.489-7.504-7.142-10.902-10.264-3.122-2.868-7.76-4.599-9.503-8.468-1.808-4.007-2.084-10.53-1.327-15.574s3.424-10.017 5.86-14.691c2.657-5.08 7.065-10.317 10.054-15.797 3.313-6.081 5.96-13.913 9.844-20.689 3.987-6.955 11.432-18.19 21.337-21.239 6.707-2.064 18.105.002 23.242 1.69 13.706 4.508 12.521 12.773 27.397 14.613" clip-rule="evenodd"/><path fill="#FFDF26" fill-rule="evenodd" d="M170.996 35.225c4.592-1.723 13.805-.522 18.673 1.441 4.652 1.88 7.988 5.967 10.529 10.34 3.227 5.566 4.318 4.198 9.584 29.17 1.196 5.629 2.539 11.44 3.749 15.298.85 2.71 1.523 4.946 2.223 7.686.909 3.544 1.847 9.288 1.939 13.417.081 3.831.074 7.84-1.395 11.361-1.477 3.526-2.39 8.126-6.177 9.951-6.136 2.952-20.735 10.599-20.735 10.599-.832-1.863 3.858-9.129-.292-18.855-4.814-11.309-10.897-14.592-10.897-14.592s14.286-5.493 18.981-24.867c2.001-8.254.851-23.551-3.767-30.851-7.743-12.25-14.318-12.842-21.352-14.38-3.226-.705-2.43-5.201-1.063-5.718" clip-rule="evenodd"/><path fill="#F0CC00" fill-rule="evenodd" d="M144.029 43.22s6.287-.615 8.941-1.79c4.65-2.058 11.418-6.135 16.383-6.084 2.434.025.349 2.566-.477 3.62-1.247 1.582-.65-.178-9.473 5.998-8.204 5.744-14.548 18.64-16.099 30.61-.723 5.555 2.202 18.728 3.336 19.063l-10.988-2.97s.716-15.597 2.039-23.27c1.396-8.075 6.338-25.177 6.338-25.177" clip-rule="evenodd"/><path fill="#EFCC00" fill-rule="evenodd" d="M64.649 128.38s-16.11-14.142-17.608-15.137c-4.178-2.771-3.332-11.375-2.832-16.568.5-5.195 3.409-9.955 5.849-14.595 2.471-4.698 6.349-8.84 8.965-13.598 3.59-6.554 7.656-19.152 12.616-25.72 3.995-5.301 9.348-13.285 14.44-15.578 8.51-3.833 14.593-1.269 14.713-.269.076.636-3.967 3.358-9.879 6.594-4.332 2.372-8.515 6.042-9.946 7.802-2.796 3.452-8.71 12.977-10.328 23.908-.627 4.25-.258 12.845.175 15.782.698 4.673 1.195 13.81.95 15.808-.22 1.787-2.033 2.971-2.982 4.502-1.01 1.633-2.421 3.365-3.088 5.298-.837 2.466-1.813 6.264-1.975 9.491-.17 3.628.93 12.28.93 12.28" clip-rule="evenodd"/><path fill="#fff" fill-rule="evenodd" d="M190.63 41.815c1.005-1.534 5.489.828 6.679 2.487 1.39 1.927 2.218 7.113 1.567 7.431-.924.454-2.58-3.532-3.922-5.406-1.39-1.927-4.718-3.908-4.324-4.512m25.542 72.327c-1.005-.36-1.262 2.241-2.009 4.616-.852 2.737-1.343 3.491-2.572 4.896-3.786 4.35-3.938 7.308-3.127 7.378 3.472.296 5.707-4.556 6.976-7.893.772-2.005 1.294-8.793.732-8.997m-89.605-69.607c.467-.484 2.982 1.041 3.802 2.088.82 1.045 1.575 3.706 1.109 4.19s-3.384-.702-4.195-1.748c-.82-1.046-1.182-4.046-.716-4.53" clip-rule="evenodd"/><path fill="#fff" fill-rule="evenodd" stroke="#000" stroke-linecap="round" stroke-linejoin="round" stroke-miterlimit="1.5" stroke-width="2.226" d="M175.093 44.199c13.505 1.66 22.612 18.104 20.321 36.697-2.283 18.594-15.105 32.341-28.602 30.681-13.505-1.662-22.604-18.104-20.32-36.698 2.291-18.592 15.104-32.34 28.601-30.68" clip-rule="evenodd"/><path fill="#000" fill-rule="evenodd" d="M159.308 82.74c4.236.522 7.259 4.388 6.738 8.629s-4.389 7.26-8.633 6.739c-4.236-.521-7.259-4.388-6.738-8.63.528-4.24 4.389-7.26 8.633-6.737" clip-rule="evenodd"/><path fill="#fff" fill-rule="evenodd" stroke="#000" stroke-linecap="round" stroke-linejoin="round" stroke-miterlimit="1.5" stroke-width="2.226" d="M102.918 35.322c13.497 1.66 22.604 18.104 20.313 36.697-2.283 18.593-15.105 32.34-28.602 30.68-13.497-1.659-22.603-18.103-20.32-36.697 2.29-18.593 15.104-32.34 28.609-30.68" clip-rule="evenodd"/><path fill="#000" fill-rule="evenodd" d="M109.054 76.56c4.235.52 7.259 4.387 6.738 8.629-.521 4.24-4.39 7.26-8.633 6.738-4.236-.521-7.26-4.388-6.739-8.629s4.39-7.26 8.634-6.738" clip-rule="evenodd"/><path fill="#F0CC00" fill-rule="evenodd" stroke="#000" stroke-linecap="round" stroke-linejoin="round" stroke-miterlimit="1.5" stroke-width="2.268" d="M87.652 197.027c3.25.179 16.417 5.095 24.758 5.921 14.924 1.477 18.676.225 21.108.935 11.346 3.31 12.31 13.38 10.423 19.295-2.35 7.367-9.444 19.379-37.485 15.758-32.088-4.143-34.636-22.252-32.772-30.163 2.549-10.817 10.193-11.954 13.968-11.746" clip-rule="evenodd"/><path fill="#FEE32D" fill-rule="evenodd" d="M100.909 205.515c4.092.242 7.523.934 12.505.998 7.56.094 12.328-1.558 17.685-1.687 5.357-.13 9.513 3.727 11.425 7.861 2.169 4.684 1.103 8.287.236 10.843-3.329 9.814-12.705 14.686-33.994 11.842-8.395-1.122-12.62-2.217-18.253-6.997-4.25-3.607-6.933-12.432-3.843-17.913 3.576-6.341 10.371-5.176 14.239-4.947" clip-rule="evenodd"/><path fill="#fff" fill-rule="evenodd" d="M134.597 209.921c.771.094 2.924 1.421 3.574 2.783.728 1.524.918 5.33.792 6.359-.062.514-1.223.22-1.543-.187-.452-.577-.589-2.27-1.167-3.274-.645-1.122-2.433-2.514-2.709-3.461-.23-.787.282-2.314 1.053-2.22" clip-rule="evenodd"/><path fill="#000" fill-opacity=".27" fill-rule="evenodd" d="M124.788 119.075c30.866 3.796 54.428 19.051 52.584 34.044-1.844 14.994-28.4 24.085-59.266 20.289s-54.428-19.051-52.583-34.044c1.843-14.994 28.4-24.085 59.265-20.289" clip-rule="evenodd"/><path fill="#fff" fill-rule="evenodd" stroke="#000" stroke-linecap="round" stroke-linejoin="round" stroke-miterlimit="1.5" stroke-width="2.331" d="m164.017 162.832 10.275-4.414-7.916 37.96zM82.525 152.81l-8.902-6.772-1.518 38.746z" clip-rule="evenodd"/><path fill="#FEE32D" fill-rule="evenodd" stroke="#000" stroke-linecap="round" stroke-linejoin="round" stroke-miterlimit="1.5" stroke-width="2.155" d="M131.556 93.95c33.729 4.173 59.075 24.03 56.565 44.313s-31.931 33.363-65.66 29.191c-33.729-4.174-59.074-24.031-56.564-44.314s31.93-33.363 65.659-29.19" clip-rule="evenodd"/><path fill="#E8C500" fill-rule="evenodd" d="M104.258 96.642s-24.826 5.721-27.56 27.835c-2.74 22.114 19.392 32.815 19.392 32.815s-29.93-11.665-27.19-33.78c2.735-22.114 35.358-26.87 35.358-26.87" clip-rule="evenodd"/><path fill="#F7DB27" fill-rule="evenodd" d="M150.68 126.215c7.103.88 12.487 4.683 12.016 8.487-.471 3.806-6.619 6.182-13.722 5.302-7.102-.878-12.485-4.681-12.014-8.486s6.619-6.181 13.72-5.303" clip-rule="evenodd"/><path fill="#CDB100" fill-rule="evenodd" d="M137.159 130.729c1.244-3.277 6.968-5.222 13.502-4.413 7.102.878 12.487 4.681 12.014 8.486-.268 2.173-2.389 3.879-5.478 4.78q.161-.43.219-.888c.473-3.806-4.912-7.608-12.014-8.487-3.048-.377-5.917-.155-8.243.522" clip-rule="evenodd"/><path fill="#F7DB27" fill-rule="evenodd" d="M102.749 120.286c7.103.878 12.487 4.681 12.016 8.486s-6.619 6.181-13.722 5.303c-7.102-.88-12.485-4.683-12.014-8.487.47-3.806 6.62-6.182 13.72-5.302" clip-rule="evenodd"/><path fill="#CDB100" fill-rule="evenodd" d="M89.228 124.798c1.244-3.277 6.968-5.222 13.502-4.414 7.102.879 12.487 4.682 12.014 8.487-.268 2.172-2.389 3.879-5.478 4.78q.161-.43.219-.889c.473-3.804-4.912-7.607-12.014-8.486-3.048-.377-5.917-.155-8.243.522" clip-rule="evenodd"/><path fill="#fff" fill-rule="evenodd" d="M171.422 113.672c.965-1.122 5.747 3.852 6.176 4.59.52.911 5.083 5.033 2.565 6.716-2.588 1.725-3.364-3.252-4.903-5.182-1.405-1.765-5.591-4.067-3.838-6.124" clip-rule="evenodd"/></g><defs><clipPath id="clip0_3_267"><path fill="#fff" d="M0 0h256v256H0z"/></clipPath></defs></svg>