<svg xmlns="http://www.w3.org/2000/svg" fill="none" viewBox="0 0 256 256"><path fill="#282828" d="M196 0H60C26.863 0 0 26.863 0 60v136c0 33.137 26.863 60 60 60h136c33.137 0 60-26.863 60-60V60c0-33.137-26.863-60-60-60"/><path fill="#2B335F" d="M21 74.75h13.438v107.5H21zm201.562 0H236v107.5h-13.438zM34.438 61.313h26.875v13.438H34.438zm26.875-13.438h26.875v13.438H61.313zm26.875-13.437h26.875v13.438H88.188zM115.062 21h26.875v13.438h-26.875zm26.876 13.438h26.875v13.438h-26.875z"/><path fill="#2B335F" d="M168.812 47.875h26.875v13.438h-26.875zm26.876 13.438h26.875v13.438h-26.875zm26.874 134.375h-26.875V182.25h26.875z"/><path fill="#2B335F" d="M195.688 209.125h-26.875v-13.438h26.875zm-26.876 13.437h-26.875v-13.438h26.875zM141.938 236h-26.875v-13.438h26.875zm-26.876-13.438H88.187v-13.438h26.875zm-26.875-13.437H61.312v-13.438h26.875zm-26.875-13.437H34.437V182.25h26.875z"/><path fill="#EDC7B0" d="M61.313 61.313h26.875v13.438H61.313zm26.875-13.438h26.875v13.438H88.188zm53.75 0h26.875v13.438h-26.875zm26.874 13.438h26.875v13.438h-26.875z"/><path fill="#EDC7B0" d="M115.062 34.438H128.5v13.438h-13.438z"/><path fill="#EEE" d="M128.5 34.438h13.438v13.438H128.5z"/><path fill="#FF9798" d="M61.313 182.25h26.875v13.438H61.313zm26.875 13.438h26.875v13.438H88.188zm0-94.063h26.875v13.438H88.188zM61.313 88.188h26.875v13.438H61.313zM47.875 74.75h13.438v13.438H47.875z"/><path fill="#FF9798" d="M115.062 115.062H128.5V128.5h-13.438zm0 94.063H128.5v13.438h-13.438zm-67.187-40.313h13.438v13.438H47.875z"/><path fill="#EEE" d="M34.438 74.75h13.438v13.438H34.438zm0 94.062h13.438v13.438H34.438z"/><path fill="#FF9798" d="M34.438 88.188h13.438v80.625H34.438z"/><path fill="#7696DE" d="M141.938 128.5v67.188H128.5V128.5zm0-26.875h26.875v13.438h-26.875z"/><path fill="#7696DE" d="M168.812 88.188h26.875v13.438h-26.875zm0 94.062h26.875v13.438h-26.875zM128.5 195.688h40.313v13.438H128.5zM195.688 74.75h13.438v13.438h-13.438zm0 94.062h13.438v13.438h-13.438z"/><path fill="#EEE" d="M209.125 168.812h13.438v13.438h-13.438zm0-94.062h13.438v13.438h-13.438zM128.5 209.125h13.438v13.438H128.5zm0-94.063h13.438V128.5H128.5z"/><path fill="#7696DE" d="M209.125 88.188h13.438v80.625h-13.438z"/><path fill="#2B335F" d="M209.125 88.187v80.626h-13.438V88.188z"/><path fill="#2B335F" d="M195.688 101.625v80.625H182.25v-80.625zm-13.438 0v80.625h-13.438v-80.625zm-13.438 13.437v80.625h-13.438v-80.625z"/><path fill="#2B335F" d="M155.375 115.062v80.625h-13.438v-80.625zM128.5 128.5v80.625h-13.438V128.5zm-13.438-13.438v80.625h-13.438v-80.625z"/><path fill="#2B335F" d="M101.625 115.062v80.625H88.187v-80.625z"/><path fill="#2B335F" d="M88.188 101.625v80.625H74.75v-80.625zm-13.438 0v80.625H61.312v-80.625zM61.312 88.188v80.625H47.874V88.188zm53.75-40.313h26.875v13.438h-26.875zm0 53.75h26.875v13.438h-26.875zM88.188 61.313h80.625v13.438H88.188z"/><path fill="#2B335F" d="M88.188 88.188h80.625v13.438H88.188zM61.313 74.75h134.375v13.438H61.313z"/></svg>