<svg xmlns="http://www.w3.org/2000/svg" fill="none" viewBox="0 0 256 256"><path fill="#282828" d="M196 0H60C26.863 0 0 26.863 0 60v136c0 33.137 26.863 60 60 60h136c33.137 0 60-26.863 60-60V60c0-33.137-26.863-60-60-60"/><path fill="#24386C" fill-rule="evenodd" d="m174.755 208.13-3.799-104.743-6.881-27.616L210 80.633v126.704l-28.054 16.191z" clip-rule="evenodd"/><path fill="#7589BE" fill-rule="evenodd" d="m209.999 80.632-28.053 16.202-57.893-12.7-67.763 27.59L45 80.632l41.244-23.816L127.5 33l41.244 23.816z" clip-rule="evenodd"/><path fill="#B2BFE8" fill-rule="evenodd" d="m45 80.632 28.054 16.202 16.262 48.363 54.909 43.934-16.725 34.395-41.256-23.817L45 175.893V80.63" clip-rule="evenodd"/><path fill="#24386C" fill-rule="evenodd" d="M146.099 163.717 127.5 191.135v32.392l26.391-15.227 13.598-20.306" clip-rule="evenodd"/><path fill="#7589BE" fill-rule="evenodd" d="m127.511 158.75-26.402-45.713 5.687-15.151 21.619-10.482 11.987 12.061 13.489 13.572z" clip-rule="evenodd"/><path fill="#B2BFE8" fill-rule="evenodd" d="m101.109 113.039 26.391 15.226v30.479l-24.409 1.051-14.764-18.853z" clip-rule="evenodd"/><path fill="#24386C" fill-rule="evenodd" d="m127.5 128.263 26.391-15.226 17.961 29.906-21.736 17.958-22.616-2.159z" clip-rule="evenodd"/><path fill="#DC244C" fill-rule="evenodd" d="m153.891 208.297 28.054 15.229V96.834l-27.229-15.715L127.5 65.405l-27.229 15.714-27.216 15.715v62.869l27.216 15.715 27.229 15.716 26.391-15.241zm0-64.796-26.391 15.24-26.391-15.24v-30.466l26.391-15.24 26.391 15.24z" clip-rule="evenodd"/><path fill="url(#paint0_linear_765_417)" d="M127.511 191.146v-32.397l-26.253-15.109v32.343z"/><defs><linearGradient id="paint0_linear_765_417" x1="122.671" x2="96.51" y1="164.948" y2="164.948" gradientUnits="userSpaceOnUse"><stop stop-color="#FF3364"/><stop offset="1" stop-color="#C91540" stop-opacity="0"/></linearGradient></defs></svg>