<svg xmlns="http://www.w3.org/2000/svg" width="256" height="256" fill="none"><path fill="#F4F2ED" d="M196 0H60C26.863 0 0 26.863 0 60v136c0 33.137 26.863 60 60 60h136c33.137 0 60-26.863 60-60V60c0-33.137-26.863-60-60-60"/><g clip-path="url(#clip0_28_116)"><path fill="url(#paint0_linear_28_116)" d="m159.969 115.983-89.702 18.803a54 54 0 0 0-6.931 1.54 35.2 35.2 0 0 0-17.932 12.308c-26.78 34.788 1.948 80.256 43.013 71.203l98.406-14.255a41.1 41.1 0 0 0 25.327-17.437c25.372-37.883-7.483-85.27-52.181-72.162"/><path fill="url(#paint1_linear_28_116)" d="M110.664 46.843c-11.058-10.172-27.304-14.895-45.54-9.562A37.48 37.48 0 0 0 46.057 50.36c-18.324 23.875-12.191 52.386 6.19 67.106l97.898 81.738a46.96 46.96 0 0 0 36.677 6.321 41.1 41.1 0 0 0 25.327-17.437c15.113-22.48 9.577-48.462-6.829-62.993z"/><path fill="url(#paint2_linear_28_116)" d="M77.635 35.218a63.2 63.2 0 0 0-12.512 2.063A37.48 37.48 0 0 0 46.058 50.36c-28.495 36.954 2.02 85.343 45.73 75.708L209.1 81.82a13.5 13.5 0 0 0 8.312-5.697c7.266-10.956-.16-24.31-12.09-24.383L82.503 35c-1.744 0-3.371.102-4.868.218"/><path fill="#000" d="M69.875 69.875h116.25v116.25H69.875z"/><path fill="#fff" d="M84.406 164.328H128v7.266H84.406zm37.782-35.151-4.796-4.359a23.7 23.7 0 0 1-12.918 3.72c-13.412.072-22.974-9.925-22.974-22.335 0-12.366 9.75-22.494 23.25-22.494s23.047 9.997 23.047 22.363v.131a22.4 22.4 0 0 1-3.851 12.482l4.475 3.793zm-11.873-10.564-7.018-6.031 6.088-6.829 7.135 6.466a15.1 15.1 0 0 0 1.134-6.016 13.23 13.23 0 0 0-8.027-12.613 13.2 13.2 0 0 0-5.153-1.06c-7.702 0-13.078 6.088-13.078 13.542v.131a13.206 13.206 0 0 0 13.165 13.659 12.96 12.96 0 0 0 5.754-1.249m24.762-34.207h16.391c13.659 0 23.105 9.387 23.105 21.623v.174c0 12.235-9.446 21.797-23.105 21.797h-16.391zm9.561 8.719v26.156h6.83c7.818 0 13.078-5.289 13.078-12.991v-.087a12.49 12.49 0 0 0-7.977-12.252 12.5 12.5 0 0 0-5.101-.826z"/></g><defs><linearGradient id="paint0_linear_28_116" x1="31.207" x2="183.001" y1="181.054" y2="159.228" gradientUnits="userSpaceOnUse"><stop offset=".18" stop-color="#FC801D"/><stop offset=".63" stop-color="#FF318C"/></linearGradient><linearGradient id="paint1_linear_28_116" x1="9.062" x2="224.938" y1="32.719" y2="193.158" gradientUnits="userSpaceOnUse"><stop stop-color="#FF318C"/><stop offset=".4" stop-color="#B74AF7"/><stop offset=".87" stop-color="#FF318C"/></linearGradient><linearGradient id="paint2_linear_28_116" x1="-16.019" x2="223.383" y1="103.805" y2="47.657" gradientUnits="userSpaceOnUse"><stop stop-color="#FF318C"/><stop offset=".2" stop-color="#D73BAB"/><stop offset=".51" stop-color="#9D4AD8"/><stop offset=".75" stop-color="#7953F4"/><stop offset=".87" stop-color="#6B57FF"/></linearGradient><clipPath id="clip0_28_116"><path fill="#fff" d="M35 35h186v186H35z"/></clipPath></defs></svg>