<svg xmlns="http://www.w3.org/2000/svg" fill="none" viewBox="0 0 256 256"><path fill="#F4F2ED" d="M196 0H60C26.863 0 0 26.863 0 60v136c0 33.137 26.863 60 60 60h136c33.137 0 60-26.863 60-60V60c0-33.137-26.863-60-60-60"/><path fill="#41E0FD" d="M99.807 127.087a255 255 0 0 1 4.715-9.129l.014-.026 1.729-3.346 2.552-4.22.016-.027a234 234 0 0 1 2.939-4.856l1.757-2.895c2.338-3.863 4.218-6.68 7.183-10.763 1.598-2.197 3.113-4.126 5.514-7.12l.005-.005.119-.15.046-.059c.974-1.24 1.958-2.462 2.924-3.632l.032-.04.018-.023a691 691 0 0 1 6.785-8.253l.9-1.076V55.566h-1.627a135 135 0 0 0-2.639-2.41c-7.173-6.35-14.327-11.333-21.267-14.797C104.407 34.803 97.835 33 91.992 33c-4.172 0-7.9.932-11.082 2.77-3.059 1.766-5.63 4.399-7.642 7.825-1.885 3.21-3.274 7.117-4.13 11.61-1.649 8.664-1.292 19.508 1.033 31.356.294 1.491.617 3.001.964 4.502a141 141 0 0 0-5.37 1.737c-11.208 3.9-20.583 8.995-27.107 14.737-3.383 2.974-6 6.118-7.79 9.343-1.903 3.43-2.868 6.948-2.868 10.456 0 7.034 3.905 14.161 11.292 20.626 6.955 6.09 16.791 11.406 28.436 15.381 1.082.366 2.182.723 3.29 1.063a138 138 0 0 0-1.068 5.065c-2.215 11.636-2.473 22.284-.752 30.793.894 4.408 2.313 8.243 4.219 11.401 2.026 3.358 4.599 5.95 7.645 7.703 3.21 1.846 6.987 2.782 11.226 2.782 5.773 0 12.227-1.708 19.184-5.076 6.819-3.302 13.781-8.032 20.689-14.057a112 112 0 0 0 3.257-2.957h1.637v-16.355l-.596-.732-.282-.344-7.502-9.242-4.168-5.135c-2.105-2.592-5.475-7.389-9.493-13.504a240 240 0 0 1-6.626-10.657l-.12-.207c-1.926-3.313-3.357-5.983-4.505-8.125a326 326 0 0 1-4.221-8.16l.25-.484zm-7.6-16.214a190 190 0 0 1-3.477-9.641 194 194 0 0 1 10.087-1.793 261 261 0 0 0-6.61 11.434m-3.595 43.337a193 193 0 0 1 3.609-9.996 261 261 0 0 0 6.816 11.733 184 184 0 0 1-10.425-1.736zm-5.8-94.835c.846-5.79 2.74-9.928 5.204-11.353 1.024-.592 2.382-.89 4.035-.89 3.616 0 8.294 1.415 13.526 4.095 5.671 2.907 11.82 7.231 17.784 12.515q.555.492 1.134 1.021c-5.245 5.788-10.414 12.218-15.383 19.141-8.467.826-16.606 2.058-24.226 3.668a126 126 0 0 1-.77-3.61l-.023-.124c-1.817-9.262-2.26-17.725-1.28-24.463m1.064 68.18c-3.581 7.878-6.625 15.677-9.058 23.208q-1.269-.396-2.505-.816c-9.68-3.302-17.743-7.565-23.316-12.326-4.264-3.643-6.809-7.487-6.809-10.281 0-2.869 2.546-6.565 6.987-10.148 5.17-4.17 12.526-7.981 21.259-11.019a124 124 0 0 1 4.511-1.467c2.4 7.421 5.402 15.098 8.93 22.848zm.01 44.54a122 122 0 0 1 .887-4.229c7.519 1.535 15.751 2.692 24.507 3.443 5.017 6.971 10.229 13.445 15.512 19.266-.652.6-1.31 1.19-1.964 1.763-7.648 6.67-15.328 11.493-22.207 13.946l-.143.051c-3.083 1.086-5.835 1.636-8.177 1.636-1.727 0-3.122-.298-4.145-.887-2.492-1.434-4.43-5.483-5.32-11.109-1.04-6.556-.676-14.814 1.05-23.881z"/><path fill="#41E0FD" d="M222.653 135.146q-5.287-9.702-15.559-12.588a.27.27 0 0 1-.168-.268.29.29 0 0 1 .129-.251c5.098-2.828 9.016-6.856 11.762-11.995q4.15-7.773 4.151-18.708c0-12.028-3.05-20.975-9.123-26.926-6.072-5.952-14.156-8.91-24.22-8.91h-54.356c-.118 0-.214.123-.214.275v144.006c0 .152.094.275.214.275h51.369q10.848 0 18.714-3.16c5.255-2.102 9.53-4.94 12.896-8.504 3.365-3.564 5.819-7.815 7.393-12.754 1.573-4.899 2.359-10.204 2.359-15.872.003-9.882-1.794-18.06-5.347-24.62m-67.888-58.895c0-.152.094-.275.213-.275h31.905c5.352 0 9.446 1.5 12.279 4.46 2.833 2.958 4.248 8.102 4.248 15.396 0 6.488-1.573 11.434-4.723 14.919s-7.083 5.188-11.807 5.188h-31.904c-.117 0-.213-.122-.213-.274zm48.7 97.14c-3.277 4.01-7.934 6.002-13.917 6.002h-34.572c-.117 0-.213-.123-.213-.275V134.44c0-.152.094-.275.213-.275h34.57c5.983 0 10.58 1.865 13.917 5.754s4.974 9.361 4.974 16.534c.002 7.293-1.669 12.967-4.972 16.938"/></svg>