<svg xmlns="http://www.w3.org/2000/svg" fill="none" viewBox="0 0 256 256"><rect width="256" height="256" fill="#F4F2ED" rx="50"/><path fill="#00435B" d="m153.998 156.283-4.258 7.437a7.18 7.18 0 0 1-6.228 3.621h-32.621a7.18 7.18 0 0 1-6.228-3.621l-4.259-7.437zm11.922-20.821-7.509 13.113h-62.42l-7.508-13.113zm-7.233-20.36 7.245 12.653h-77.46l7.244-12.653zm-15.175-19.247a7.18 7.18 0 0 1 6.228 3.622l4.534 7.918h-54.145l4.534-7.918a7.18 7.18 0 0 1 6.228-3.622z"/><path fill="#002B3B" d="M63.414 92.404c-3.613-17.624-4.389-31.142-2.053-40.958 1.39-5.838 3.929-10.6 7.791-14.036 4.077-3.628 9.232-5.408 15.024-5.408 9.556 0 19.601 4.383 30.335 12.71 4.379 3.395 8.923 7.488 13.643 12.281.375-.486.8-.945 1.273-1.369 13.343-11.96 24.576-19.39 34.185-22.255 5.713-1.703 11.076-1.866 15.961-.212 5.156 1.745 9.264 5.352 12.162 10.406 4.784 8.339 6.045 19.297 4.262 32.828-.727 5.515-1.97 11.522-3.726 18.032q.997.12 1.984.447c16.929 5.643 28.917 11.711 36.175 18.646 4.318 4.126 7.137 8.719 8.157 13.804 1.076 5.367.027 10.75-2.868 15.799-4.775 8.328-13.554 14.895-26.061 20.098q-7.531 3.13-17.052 5.682c.289.657.514 1.356.664 2.089 3.614 17.624 4.39 31.142 2.054 40.958-1.389 5.838-3.929 10.6-7.791 14.036-4.077 3.628-9.232 5.408-15.025 5.408-9.555 0-19.6-4.383-30.335-12.709-4.425-3.432-9.019-7.576-13.793-12.436a10.2 10.2 0 0 1-1.807 2.131c-13.343 11.959-24.576 19.39-34.185 22.255-5.713 1.704-11.076 1.866-15.96.212-5.157-1.745-9.265-5.352-12.163-10.405-4.784-8.34-6.045-19.298-4.262-32.829.753-5.714 2.06-11.957 3.918-18.74a10 10 0 0 1-2.176-.468c-16.93-5.643-28.917-11.711-36.175-18.646-4.318-4.126-7.137-8.719-8.157-13.804-1.076-5.367-.027-10.75 2.869-15.8 4.774-8.327 13.553-14.895 26.06-20.097q7.755-3.224 17.621-5.833a10.4 10.4 0 0 1-.549-1.817"/><path fill="#FF4154" d="M181.46 172.721a3.194 3.194 0 0 1 3.672 2.45l.02.099.18.937q8.728 46.155-12.297 46.154-20.57 0-52.371-39.383a3.22 3.22 0 0 1-.715-2.054 3.204 3.204 0 0 1 3.123-3.184h.099l1.117.007q13.382.073 26.018-.938 14.917-1.194 31.154-4.088M85.2 149.462l.054.091.56.983q6.735 11.776 14.032 22.353 8.595 12.456 19.33 25.22a3.227 3.227 0 0 1-.268 4.433l-.081.073-.72.623q-35.52 30.612-46.173 12.222-10.426-18 7.562-65.459a3.2 3.2 0 0 1 1.4-1.646 3.184 3.184 0 0 1 4.305 1.107m108.276-45.404.097.032.891.31q43.842 15.34 33.314 33.716-10.297 17.972-59.872 26.17a3.18 3.18 0 0 1-2.137-.4 3.224 3.224 0 0 1-1.135-4.398q7.1-12.149 12.79-24.176 6.453-13.64 12.111-29.281a3.19 3.19 0 0 1 3.843-2.001zM90.231 98.909a3.223 3.223 0 0 1 1.135 4.398q-7.1 12.149-12.79 24.176-6.453 13.64-12.11 29.281a3.19 3.19 0 0 1-3.942 1.973l-.097-.032-.89-.31q-43.844-15.34-33.315-33.715 10.297-17.973 59.872-26.171a3.18 3.18 0 0 1 2.137.4m93.835-50.37q10.427 18-7.562 65.46a3.2 3.2 0 0 1-1.401 1.646 3.184 3.184 0 0 1-4.304-1.107l-.053-.091-.561-.983q-6.733-11.776-14.031-22.353-8.595-12.455-19.33-25.22a3.227 3.227 0 0 1 .268-4.433l.081-.073.721-.623q35.519-30.612 46.172-12.222m-99.903-7.302q20.57 0 52.371 39.384c.469.58.721 1.306.715 2.053a3.204 3.204 0 0 1-3.123 3.184h-.099l-1.117-.007q-13.382-.073-26.018.939-14.918 1.194-31.154 4.088a3.195 3.195 0 0 1-3.672-2.45l-.02-.1-.18-.937q-8.728-46.154 12.297-46.154"/><path fill="#FFD94C" d="M113.513 96.257h27.382c4.005 0 7.704 2.154 9.697 5.648l13.749 24.096a11.3 11.3 0 0 1 0 11.195l-13.749 24.096a11.17 11.17 0 0 1-9.697 5.648h-27.382a11.17 11.17 0 0 1-9.696-5.648l-13.75-24.096a11.3 11.3 0 0 1 0-11.195l13.75-24.096a11.17 11.17 0 0 1 9.696-5.648m23.209 7.273c4.007 0 7.707 2.156 9.7 5.653l9.587 16.823a11.3 11.3 0 0 1 0 11.184l-9.587 16.824a11.17 11.17 0 0 1-9.7 5.653h-19.035a11.17 11.17 0 0 1-9.7-5.653L98.4 137.19a11.3 11.3 0 0 1 0-11.184l9.587-16.823a11.17 11.17 0 0 1 9.7-5.653zm-4.498 7.954h-10.039a11.17 11.17 0 0 0-9.694 5.643l-5.066 8.869a11.3 11.3 0 0 0 0 11.205l5.066 8.868a11.17 11.17 0 0 0 9.694 5.643h10.039c4.003 0 7.7-2.152 9.694-5.643l5.066-8.868a11.3 11.3 0 0 0 0-11.205l-5.066-8.869a11.17 11.17 0 0 0-9.694-5.643m-4.331 7.614c3.999 0 7.694 2.149 9.689 5.636l.718 1.255a11.3 11.3 0 0 1 0 11.219l-.718 1.255a11.17 11.17 0 0 1-9.689 5.636h-1.377c-4 0-7.694-2.149-9.69-5.636l-.718-1.255a11.3 11.3 0 0 1 0-11.219l.718-1.255a11.17 11.17 0 0 1 9.69-5.636zm-.687 7.5c-1.78 0-3.422.953-4.31 2.5a5.02 5.02 0 0 0 0 5 4.97 4.97 0 0 0 4.307 2.5c1.78 0 3.421-.952 4.31-2.5a5.02 5.02 0 0 0 0-5 4.97 4.97 0 0 0-4.307-2.5m-40.332 5h8.95Z"/></svg>