<svg xmlns="http://www.w3.org/2000/svg" fill="none" viewBox="0 0 256 256"><path fill="#F4F2ED" d="M196 0H60C26.863 0 0 26.863 0 60v136c0 33.137 26.863 60 60 60h136c33.137 0 60-26.863 60-60V60c0-33.137-26.863-60-60-60"/><path fill="#61DAFB" d="M218.004 108.397c0-11.958-14.976-23.29-37.936-30.319 5.299-23.401 2.944-42.02-7.433-47.98-2.392-1.399-5.188-2.061-8.242-2.061v8.205c1.693 0 3.054.331 4.195.957 5.004 2.87 7.175 13.798 5.482 27.854-.404 3.459-1.066 7.101-1.876 10.818-7.212-1.766-15.086-3.128-23.365-4.011-4.967-6.807-10.119-12.989-15.307-18.398 11.995-11.149 23.255-17.257 30.908-17.257V28c-10.119 0-23.365 7.212-36.758 19.722-13.394-12.437-26.64-19.575-36.759-19.575v8.206c7.617 0 18.913 6.07 30.908 17.146a174 174 0 0 0-15.197 18.361c-8.315.883-16.19 2.245-23.401 4.047a111 111 0 0 1-1.914-10.67c-1.728-14.056.405-24.984 5.373-27.891 1.103-.662 2.538-.957 4.231-.957v-8.205c-3.09 0-5.887.662-8.315 2.06-10.34 5.961-12.658 24.543-7.323 47.871-22.887 7.065-37.789 18.361-37.789 30.282 0 11.959 14.976 23.292 37.936 30.32-5.298 23.402-2.944 42.02 7.433 47.981 2.392 1.398 5.188 2.06 8.279 2.06 10.118 0 23.365-7.212 36.758-19.722 13.394 12.437 26.64 19.576 36.759 19.576 3.09 0 5.887-.663 8.316-2.061 10.339-5.961 12.657-24.543 7.322-47.87 22.813-7.029 37.715-18.362 37.715-30.284m-47.907-24.542c-1.362 4.747-3.054 9.64-4.968 14.534-1.508-2.943-3.091-5.887-4.82-8.83-1.692-2.944-3.496-5.814-5.299-8.61 5.225.772 10.266 1.729 15.087 2.906m-16.853 39.187c-2.87 4.968-5.813 9.678-8.867 14.056-5.483.478-11.039.736-16.632.736-5.556 0-11.112-.258-16.557-.699a202 202 0 0 1-8.905-13.983 192 192 0 0 1-7.654-14.644c2.282-4.93 4.857-9.861 7.617-14.681 2.87-4.967 5.813-9.677 8.867-14.056a192 192 0 0 1 16.632-.736c5.556 0 11.113.258 16.558.7a203 203 0 0 1 8.905 13.981 192 192 0 0 1 7.653 14.645 206 206 0 0 1-7.617 14.681m11.885-4.783a158 158 0 0 1 5.078 14.644 165 165 0 0 1-15.16 2.944c1.803-2.833 3.606-5.74 5.299-8.721 1.692-2.943 3.275-5.924 4.783-8.867m-37.311 39.261c-3.422-3.533-6.844-7.47-10.228-11.775 3.311.147 6.696.257 10.118.257 3.459 0 6.881-.073 10.23-.257a144 144 0 0 1-10.12 11.775m-27.375-21.673c-5.225-.773-10.266-1.73-15.086-2.907 1.361-4.747 3.054-9.64 4.967-14.534 1.51 2.944 3.091 5.887 4.82 8.831a245 245 0 0 0 5.299 8.61m27.192-76.571c3.422 3.532 6.844 7.47 10.229 11.774-3.312-.147-6.697-.257-10.119-.257-3.459 0-6.881.073-10.229.257a144 144 0 0 1 10.119-11.774m-27.229 21.672c-1.803 2.834-3.606 5.74-5.298 8.72a209 209 0 0 0-4.784 8.831 158 158 0 0 1-5.077-14.644 179 179 0 0 1 15.159-2.907m-33.3 46.068c-13.025-5.556-21.451-12.841-21.451-18.619 0-5.776 8.426-13.098 21.451-18.618 3.165-1.361 6.624-2.575 10.193-3.716 2.097 7.212 4.857 14.718 8.279 22.408-3.385 7.654-6.109 15.123-8.169 22.299-3.642-1.142-7.101-2.392-10.303-3.754m19.796 52.58c-5.004-2.869-7.175-13.798-5.482-27.854.405-3.458 1.067-7.101 1.876-10.818 7.213 1.767 15.087 3.128 23.365 4.011 4.968 6.807 10.119 12.989 15.307 18.398-11.995 11.149-23.255 17.257-30.908 17.257-1.656-.037-3.053-.368-4.158-.994m87.279-28.037c1.729 14.055-.405 24.983-5.373 27.89-1.103.663-2.538.957-4.231.957-7.617 0-18.913-6.071-30.908-17.147a174 174 0 0 0 15.197-18.361c8.316-.883 16.19-2.244 23.401-4.047.847 3.716 1.509 7.286 1.914 10.708m14.166-24.543c-3.165 1.362-6.624 2.576-10.193 3.716-2.097-7.211-4.857-14.717-8.279-22.408 3.386-7.653 6.109-15.123 8.169-22.298a116 116 0 0 1 10.34 3.754c13.025 5.555 21.451 12.841 21.451 18.617-.037 5.778-8.463 13.1-21.488 18.619"/><path fill="#61DAFB" d="M127.708 125.213c9.288 0 16.816-7.528 16.816-16.816 0-9.286-7.528-16.815-16.816-16.815s-16.815 7.529-16.815 16.815c0 9.288 7.528 16.816 16.815 16.816m-82.025 92.498h-5.55v9.56H37v-23.632h7.823q3.993 0 6.135 1.818 2.16 1.817 2.159 5.291 0 2.208-1.201 3.847-1.185 1.64-3.311 2.45l5.55 10.031v.195h-3.343zm-5.55-2.548h4.788q2.32 0 3.684-1.202 1.38-1.2 1.38-3.213 0-2.192-1.315-3.36-1.299-1.168-3.766-1.185h-4.772zm24.183 12.433q-3.57 0-5.81-2.338-2.24-2.354-2.24-6.281v-.552q0-2.613.99-4.658 1.006-2.062 2.791-3.213 1.802-1.17 3.896-1.17 3.425 0 5.323 2.256 1.9 2.256 1.9 6.46v1.25H59.267q.066 2.598 1.51 4.204 1.46 1.59 3.7 1.591 1.591 0 2.694-.649a6.8 6.8 0 0 0 1.932-1.721l1.834 1.428q-2.207 3.392-6.622 3.393m-.373-15.744q-1.819 0-3.052 1.33-1.233 1.316-1.525 3.701h8.797v-.227q-.13-2.288-1.233-3.539-1.105-1.265-2.987-1.265m21.554 15.419q-.26-.52-.422-1.851-2.094 2.175-5 2.176-2.595 0-4.268-1.462-1.655-1.476-1.655-3.732 0-2.743 2.077-4.253 2.094-1.526 5.876-1.526h2.921v-1.379q0-1.575-.94-2.499-.943-.942-2.777-.942-1.607 0-2.693.812-1.088.81-1.088 1.964h-3.019q0-1.315.925-2.533.942-1.233 2.532-1.947 1.607-.715 3.522-.715 3.036 0 4.755 1.527 1.72 1.509 1.786 4.17v8.083q0 2.42.617 3.847v.26zm-4.983-2.288q1.412 0 2.679-.731 1.264-.73 1.834-1.899v-3.603h-2.354q-5.52 0-5.519 3.229 0 1.413.942 2.208.941.796 2.418.796m19.266.162q1.607 0 2.808-.974 1.2-.975 1.33-2.435h2.841q-.08 1.51-1.039 2.873-.957 1.363-2.564 2.175a7.3 7.3 0 0 1-3.376.812q-3.587 0-5.714-2.386-2.11-2.403-2.11-6.558v-.503q0-2.564.942-4.56.942-1.998 2.695-3.1 1.77-1.105 4.17-1.105 2.955 0 4.902 1.77 1.963 1.769 2.094 4.593h-2.841q-.13-1.704-1.298-2.792-1.152-1.103-2.857-1.103-2.288 0-3.554 1.655-1.25 1.64-1.25 4.756v.568q0 3.034 1.25 4.674t3.57 1.64m14.429-19.688v4.252h3.279v2.321h-3.279v10.891q0 1.055.438 1.59.438.52 1.494.52.519 0 1.427-.195v2.435a8.7 8.7 0 0 1-2.304.325q-2.012 0-3.036-1.218-1.021-1.217-1.021-3.457V212.03h-3.199v-2.321h3.199v-4.252zm33.679 21.814h-3.134l-11.896-18.211v18.211h-3.132v-23.632h3.132l11.929 18.292v-18.292h3.101zm15.906 0q-.261-.52-.423-1.851-2.094 2.175-4.999 2.176-2.597 0-4.268-1.462-1.656-1.476-1.656-3.732 0-2.743 2.078-4.253 2.093-1.526 5.875-1.526h2.922v-1.379q0-1.575-.942-2.499-.941-.942-2.775-.942-1.607 0-2.694.812-1.088.81-1.088 1.964h-3.019q0-1.315.925-2.533.942-1.233 2.533-1.947 1.606-.715 3.521-.715 3.035 0 4.756 1.527 1.72 1.509 1.785 4.17v8.083q0 2.42.617 3.847v.26zm-4.983-2.288q1.412 0 2.678-.731 1.265-.73 1.834-1.899v-3.603h-2.354q-5.518 0-5.518 3.229 0 1.413.941 2.208.942.796 2.419.796m16.295-19.526v4.252h3.279v2.321h-3.279v10.891q0 1.055.438 1.59.439.52 1.494.52.518 0 1.428-.195v2.435a8.7 8.7 0 0 1-2.305.325q-2.012 0-3.035-1.218-1.022-1.217-1.022-3.457V212.03h-3.198v-2.321h3.198v-4.252zm10.063 21.814h-3.003v-17.562h3.003zm-3.246-22.22q0-.73.438-1.234.454-.502 1.331-.502t1.331.502q.454.504.454 1.234t-.454 1.217-1.331.488-1.331-.488q-.438-.487-.438-1.217m13.861 18.146 4.349-13.488h3.068l-6.297 17.562h-2.289l-6.362-17.562h3.067zm17.366 4.399q-3.57 0-5.81-2.338-2.24-2.354-2.24-6.281v-.552q0-2.613.99-4.658 1.006-2.062 2.792-3.213 1.801-1.17 3.895-1.17 3.425 0 5.324 2.256 1.898 2.256 1.899 6.46v1.25h-11.897q.065 2.598 1.509 4.204 1.462 1.59 3.7 1.591 1.592 0 2.695-.649a6.8 6.8 0 0 0 1.932-1.721l1.834 1.428q-2.208 3.392-6.623 3.393m-.373-15.744q-1.817 0-3.051 1.33-1.234 1.316-1.525 3.701h8.796v-.227q-.13-2.288-1.233-3.539-1.104-1.265-2.987-1.265"/></svg>