<svg xmlns="http://www.w3.org/2000/svg" fill="none" viewBox="0 0 256 256"><g clip-path="url(#clip0_12_19)"><path fill="#007AF4" d="M253.606-36.102H11.056c-19.137 0-34.65 14.694-34.65 32.82v246.154c0 18.126 15.513 32.82 34.65 32.82h242.55c19.137 0 34.65-14.694 34.65-32.82V-3.282c0-18.126-15.513-32.82-34.65-32.82"/><path fill="#fff" d="M127.146 55c13.807 0 25-11.193 25-25s-11.193-25-25-25-25 11.193-25 25 11.193 25 25 25m-1 195.769c13.807 0 25-11.193 25-25s-11.193-25-25-25-25 11.193-25 25 11.193 25 25 25"/><path stroke="#fff" stroke-width="10" d="M128.863 45.949c-5.194 39.384 46.781 29.538 46.781 57.436 0 16.41-20.367 20.89-46.781 22.974C108.073 128 80.356 128 80.356 154.256c0 26.257 55.44 18.052 48.507 55.795M94.673 73.364c0 50.179 80.215 60.025 80.215 107.06"/></g><defs><clipPath id="clip0_12_19"><rect width="256" height="256" fill="#fff" rx="50"/></clipPath></defs></svg>