<svg xmlns="http://www.w3.org/2000/svg" width="256" height="256" fill="none"><path fill="#282828" d="M196 0H60C26.863 0 0 26.863 0 60v136c0 33.137 26.863 60 60 60h136c33.137 0 60-26.863 60-60V60c0-33.137-26.863-60-60-60"/><path fill="#205B97" d="m128.5 175.626 68.46 16.298V63.713L128.5 80.01z"/><path fill="#5193CE" d="M196.96 63.713 210 70.232v115.173l-13.04 6.519zM128.5 175.626l-68.46 16.298V63.713L128.5 80.01z"/><path fill="#205B97" d="M60.04 63.713 47 70.232v115.173l13.04 6.519z"/><path fill="#5193CE" d="m145.89 218 26.08-13.038V51.038L145.89 38l-7.973 85.474z"/><path fill="#205B97" d="m111.11 218-26.08-13.038V51.038L111.11 38l7.973 85.474z"/><path fill="#2E73B7" d="M111.11 38h35.133v179.637H111.11z"/></svg>