<svg xmlns="http://www.w3.org/2000/svg" width="256" height="256" fill="none"><path fill="#F4F2ED" d="M196 0H60C26.863 0 0 26.863 0 60v136c0 33.137 26.863 60 60 60h136c33.137 0 60-26.863 60-60V60c0-33.137-26.863-60-60-60"/><path fill="#131313" d="M159.446 67.034c-15.668-.74-28.842 10.636-31.09 25.625-.089.695-.223 1.369-.334 2.042-3.494 18.669-19.763 32.805-39.303 32.805a39.65 39.65 0 0 1-19.206-4.937 1.016 1.016 0 0 0-1.513.898V188h60v-45.37c0-8.348 6.72-15.124 14.999-15.124h15c16.981 0 30.645-14.204 29.978-31.481-.601-15.55-13.108-28.25-28.531-28.99M63.503 227v-29.091h9.83q3.41 0 5.596 1.165 2.188 1.15 3.239 3.167t1.051 4.589q0 2.57-1.051 4.559t-3.225 3.125q-2.173 1.122-5.553 1.122h-7.955v-3.181h7.84q2.331 0 3.75-.682 1.436-.683 2.075-1.932.653-1.265.653-3.011t-.653-3.054-2.088-2.017q-1.434-.725-3.793-.725h-6.193V227zm13.693-13.068L84.356 227h-4.091l-7.046-13.068zm20.352 13.523q-3.153 0-5.44-1.393-2.273-1.406-3.509-3.92-1.222-2.529-1.222-5.881 0-3.351 1.222-5.909 1.236-2.571 3.438-4.005 2.215-1.449 5.17-1.449 1.704 0 3.367.568 1.661.568 3.025 1.846 1.364 1.265 2.173 3.353.81 2.088.81 5.142v1.42H89.764v-2.897h13.409q0-1.847-.739-3.296a5.57 5.57 0 0 0-2.074-2.287q-1.334-.838-3.153-.838-2.002 0-3.466.994a6.55 6.55 0 0 0-2.23 2.557 7.5 7.5 0 0 0-.781 3.381v1.932q0 2.47.852 4.19.867 1.705 2.4 2.599 1.535.882 3.566.881 1.32 0 2.386-.369a5.1 5.1 0 0 0 1.861-1.136q.781-.767 1.207-1.904l3.239.909a7.2 7.2 0 0 1-1.719 2.898q-1.207 1.236-2.983 1.932-1.775.681-3.991.682m17.486-13.58V227h-3.353v-21.818h3.239v3.409h.284a6.24 6.24 0 0 1 2.33-2.671q1.562-1.022 4.034-1.022 2.216 0 3.878.909 1.662.894 2.585 2.727.923 1.818.923 4.602V227h-3.352v-13.636q0-2.571-1.335-4.006-1.335-1.449-3.665-1.449-1.606 0-2.869.696-1.25.696-1.975 2.031-.724 1.336-.724 3.239m28.285 13.58q-2.728 0-4.816-1.378-2.088-1.392-3.267-3.921-1.179-2.543-1.179-6.008 0-3.438 1.179-5.966t3.281-3.906q2.103-1.378 4.858-1.378 2.131 0 3.367.71 1.25.696 1.903 1.591.668.88 1.037 1.449h.284v-10.739h3.353V227h-3.239v-3.352h-.398q-.369.596-1.051 1.505-.682.895-1.946 1.606-1.264.696-3.366.696m.454-3.012q2.017 0 3.409-1.051 1.392-1.065 2.117-2.94.724-1.89.724-4.361 0-2.443-.71-4.276-.71-1.846-2.102-2.869-1.392-1.037-3.438-1.037-2.13 0-3.551 1.094-1.406 1.08-2.117 2.94-.696 1.847-.696 4.148 0 2.33.711 4.233.725 1.889 2.13 3.011 1.421 1.108 3.523 1.108m25.298 3.012q-3.153 0-5.44-1.393-2.273-1.406-3.508-3.92-1.222-2.529-1.222-5.881 0-3.351 1.222-5.909 1.235-2.571 3.437-4.005 2.216-1.449 5.17-1.449 1.705 0 3.367.568t3.026 1.846q1.363 1.265 2.173 3.353t.809 5.142v1.42h-16.818v-2.897h13.409q0-1.847-.738-3.296a5.57 5.57 0 0 0-2.074-2.287q-1.335-.838-3.154-.838-2.003 0-3.465.994a6.55 6.55 0 0 0-2.231 2.557 7.5 7.5 0 0 0-.781 3.381v1.932q0 2.47.852 4.19.867 1.705 2.401 2.599 1.534.882 3.565.881 1.322 0 2.387-.369a5.1 5.1 0 0 0 1.861-1.136q.78-.767 1.207-1.904l3.239.909a7.2 7.2 0 0 1-1.719 2.898q-1.207 1.236-2.983 1.932-1.776.681-3.992.682m14.134-.455v-21.818h3.239v3.295h.227q.596-1.619 2.159-2.628 1.563-1.008 3.523-1.008.37 0 .923.014.554.015.838.043v3.409a10 10 0 0 0-.781-.128 8 8 0 0 0-1.264-.099q-1.591 0-2.841.667a5.04 5.04 0 0 0-1.961 1.818q-.71 1.15-.71 2.628V227z"/></svg>