<svg xmlns="http://www.w3.org/2000/svg" width="256" height="256" fill="none"><path fill="#F4F2ED" d="M196 0H60C26.863 0 0 26.863 0 60v136c0 33.137 26.863 60 60 60h136c33.137 0 60-26.863 60-60V60c0-33.137-26.863-60-60-60"/><path fill="#EADBCC" d="M184.194 63.608c-10.183-7.92-15.952-7.354-23.406-10.029-17.896-19.6-32.941-21.387-48.118-23.996-19.847 9.879-28.725 23.415-31.817 38.88-5.945 4.936-12.017 9.809-16.61 15.422 4.255 2.099 10.382 3.262 16.948 4.206l93.328-15.988c3.954-2.311 6.855-5.374 9.675-8.495"/><path fill="#FAEEE3" d="M168.161 180.741c.01-.62.251-.824.551-.924 2.091-.794 6.019-1.58 7.629-1.12.841.325 4.125 1.929 4.33 5.474l-3.031 3.989z"/><path fill="#C8C6C0" d="m165.212 178.013 4.002 2.011-.24 1.4-5.62-.044z"/><path fill="#DDB1A3" d="M171.686 178.953c-.398.224-.615.462-.708.752-.093.291.019.439.572.639 1.683.613 3.309 2.053 4.911 3.832.805.611 1.072.713 1.216-.434l-2.077-3.499c1.658 1.404 3.049 3.612 5.071 3.928l-1.332 3.857-11.163-6.56c-.114-1.058.068-1.498.514-1.673z"/><path fill="#FBEFE3" d="m93.884 81.756 5.948 46.006 22.733 3.218.14 6.929 9.665 3.629 1.838-6.043.031-3.85c2.905-.479 6.48-1.896 9.942-3.154l17.595-5.891 8.782-50.344-37.479-6.184z"/><path fill="url(#paint0_radial_0_1)" d="m93.884 81.756 5.948 46.006 22.733 3.218.14 6.929 9.665 3.629 1.838-6.043.031-3.85c2.905-.479 6.48-1.896 9.942-3.154l17.595-5.891 8.782-50.344-37.479-6.184z"/><path fill="#fff" d="m113.302 163.275-4.461 18.805-13.335-.693-10.05 6.061c-5.391-1.332-9.666-4.45-13.916-7.607l-.062-9.865 4.917-7.019 3.402-16.297-1.578-2.196c.358-2.712 1.847-4.883 7.298-5.164z"/><path fill="#B5A396" d="M120.895 143.444c-11.147 5.214-9.763 11.6-11.023 23.039l-.943 3.549c.218 2.915-1.442 3.791-3.279 6.934-.685 1.12.511 1.419 1.066 1.61-.425 1.224-.309 1.802-.192 3.056 1.159 2.723 1.084 5.856 1.476 8.408-2.394 1.321-.71 3.1 1.378 3.433l22.465 16.891c2.716.618 5.222-.509 7.901-1.16l16.461-5.038c3.864-1.933 8.43-3.194 7.483-7.628l5.511-3.739-15.836-34.947c2.07-11.816-.02-13.544-8.717-20.592z"/><path fill="#fff" d="m120.895 143.444 14.411 15.245 6.292-15.225.918.699 2.121-3.826-9.818-6.363-3.192 6.297-.613.35-7.194-4.767-4.176 6.254z"/><path fill="#C8C8C8" d="M93.342 150.278c-.805.155-1.311.818-1.902 1.345-2.26 2.457-2.976 5.868-2.412 8.442 1.734 4.003 4.736 4.801 8.86 5.026 1.52-.449 2.668-.851 4.221-.851.177-1.252.4-1.832 1.484-2.365 3.03-.398 4.2.165 7.793-1.129 1.054-.2 1.881-.487 2.938-.387.487.15.643.447.912.851 3.098.869 5.8 1.267 7.901 0 3.45-3.677 4.332-6.923 1.547-11.071a14.6 14.6 0 0 0-2.057-1.933l-3.605-2.04-.408.594c-2.325 3.696-4.909 5.01-8.712 6.781-5.65 1.336-9.575 1.258-14.318-.789-1.136-.847-1.566-1.32-2.242-2.474"/><path fill="url(#paint1_linear_0_1)" d="M90.519 158.927c.07-.061.147-.109.324 0 .746.458 1.68 1.2 2.603 1.818 2.266 1.67 5.246.989 7.445.39 4.79-1.33 10.489-4.549 13.139-9.465-3.986 2.279-7.31 2.689-11.751 2.783-3.915-.498-6.658-.737-8.844-3.896l-.304-.269c-5.139 3.45-5.71 10.11-.918 13.69 3.502 1.407 6.022 1.481 9.347.106-2.951.388-11.342 1.331-11.041-5.157"/><path fill="url(#paint2_linear_0_1)" d="m99.113 104.183-2.08-22.077 13.994-8.221c-3.475 10.335-9.407 21-11.915 30.298"/><path fill="url(#paint3_linear_0_1)" d="M101.227 116.416c1.875 2.341 3.856 4.314 6.061 5.504l-4.948 2.598z"/><path fill="#FF7F7F" d="m80.66 78.278-.194 1.454c-1.755 14.234-2.536 28.684-5.994 42.54.8-.965 1.418-2.657 2.016-4.432-.188 2.608.012 5.449-.928 7.607l6.618.062c.618-1.193 1.237-3.639 1.855-5.567.611 1.716.744 3.224.928 5.814.535-.437.99-1.191 1.36-2.288.115.907.167 1.814.433 2.721l1.933.442c1.354-2.523 2.933-3.298 3.58-3.59 3.223-.714 5.883.571 8.772.419.601-.052 1.179-.272 1.76-.571-3.762-17.647-3.572-27.324-2.199-34.142 2.074-3.375 4.929-6.38 7.279-8.827-2.566 5.66-4.253 11.022-4.887 16.682.699-.893 1.118-2.066 1.607-3.168.245 2.213.179 4.848 1.181 6.035 2.966-9.542 9.361-17.13 13.535-22.719-2.67 6.57-6.219 14.086-5.744 18.914 3.361-7.494 8.319-13.2 13.638-18.681-3.33 5.36-6.022 14.822-5.65 16.487 2.066-6.192 6.228-13.614 9.454-18.492-1.882 6.103-5.728 12.494-5.48 18.308.352-1.412.97-2.383 1.67-3.216.015 3.235-.499 6.993.433 10.638 1.466-4.787 3.454-8.355 5.38-11.875.307-.586.59-1.189 1.015-1.696-.19 2.274-.54 4.896-.394 6.603.929-3.488 1.919-7.039 3.404-9.97-1.039 7.569-2.385 15.012 1.626 21.254 1.507-.671 4.739-5.803 5.111-9.789.595.918.858 1.588.742 3.835 2.831-3.604 4.457-13.566 3.587-21.678 1.997 6.83 3.287 13.309 4.225 20.54.958.2 1.837.673 2.588 1.431 2.393-6.664 2.548-13.942 2.403-21.23 2.177 8.252 2.348 17.252 1.942 25.294 1.055-.787 2.138-2.899 2.646-5.05.047 2.071.222 3.21.787 5.065-2.357 5.994-4.864 11.978-7.238 17.966-.148.335-.512.858-.76 1.05-3.496 2.35-6.684 4.411-10.234 5.988l2.092.325c4.476-1.798 8.349-2.05 12.735-1.287l.004-.004q-.012-.006.001-.001c2.915-2.562 4.346-5.398 5.988-9.22-.425 3.689-.595 6.314-1.262 10.082 1.075-1.02 2.013-1.805 3.2-3.724-.323 1.18-.64 2.361-.393 3.542 1.526-1.215 3.983-5.761 3.913-10.257.663 2.252 1.016 7.322.742 10.886 3.673-5.329 3.919-9.111 5.608-16.116.21 4.928-.037 2.837.68 6.561 1.13-15.38 1.662-41.761-8.218-57.305-28.353-3.27-60.831 4.228-88.895 16.35m38.37-1.108.001-.005c-.626.674-.634.682-.001.005"/><path fill="#887C74" d="m143.478 137.559-.475 1.307 1.634 1.47-2.121 3.827-.918-.7-.7 1.618c5.213 2.568 9.66 6.283 10.715 15.088-1.585 1.715-3.121 12.989-4.03 6.962l-5.526 1.654c-.234-1.206.063-2.26-.897-3.674-.635-1.797-1.043-1.511-1.622-.949-.401 4.546-.734 9.394-.914 13.719a24 24 0 0 1-3.324 2.843c-.227-6.444-.834-12.887-1.268-19.33-.087 7.025-.091 14.504-.394 20.336-4.608 3.086-9.978 5.738-21.011 8.038-1.493.542-2.675.456-.739-.424.845-.493.812-.249.585-1.142-.648-2.736-.996-5.592-1.251-8.486-.103-1.175-.122-1.314-1.381-.904-.782.146-1.287-.061-.783-.95.527-1.254 1.349-2.409 2.178-3.562.955-1.328.71-1.1-.559-.061-1.396 1.121-2.768 2.214-3.828 2.951-1.006.698-.658.053-.631-1.058l-.919 1.705 1.416.737-.344 2.106.415 1.028.634 3.367.58 4.964-1.083.765-.218 1.29 2.678 1.378c42.278 4.953 54.801-43.914 34.101-55.913m-28.339 28.996-1.604 3.748c-.757 1.771-.536 2.002.928 3.446l.324 9.774c.04 1.206-.184 1.581 1.137 1.291l9.857-1.169 1.423-.31-11.319-.123c.499-2.992.247-6.002.023-9.032-.064-.863-.457-1.211.608-1.262 4.8-.627 9.599-.936 14.398-1.241.05-.629.254-1.065.947-1.625-3.866-.054-11.411.48-16.162.325-.786-.027-1.212.111-.938-.913zm41.752 23.304-.464.402c1.486.594 3.634 1.506 3.803 2.629.24-.607.227-1.29-3.339-3.031m-1.175 1.145-1.237 1.422 1.051 6.494zm.827.644c-.203.003-.22.244-.187.925l-.148 9.623c-.004 1.062.128.959-.796 1.485-1.049.571-2.176.753-3.321.847-.688.057-1.503.204-.399-.399l.93-.636c1.216-.831.929-.641-.201-.17-2.242.933-4.548 1.72-7.033 2.106-.942.145-1.746.412-1.245-.849.716-2.65 2.343-5.028 3.796-7.457l-17.231 12.551 2.93 1.05 22.565-6.56 5.292-2.558 2.012-2.187.175-1.706c-.603 1.783-2.686 3.186-4.858 4.304-.759.391-1.967 1.079-.66-.119l1.437-1.562c1.198-1.299-.252-.297-1.145-.064.099-2.043.524-2.566.852-3.543l.235 1.352c.233.886.478.73 1.333.199.873-.562 1.664-1.342 2.456-2.119l-.153-.405-3.258 2.067-.323-4.915-2.183-.931c-.446-.19-.715-.331-.872-.329"/><path fill="#E7C763" d="M102.681 179.717c.477-.404 1.987-2.121 2.66-2.103.556.538.669.74 1.375.961l-.386 2.781-4.014 2.551z"/><path fill="#FDE759" d="M108.648 120.559c-2.635.519-4.593 1.881-6.927 3.031-2.816.069-5.439-.117-8.255-.495-2.942.678-4.554 3.657-5.661 6.711l-.864 6.061c-1.005 2.037-1.972 3.926-2.398 6.22l.134.115c-.242.698-.536 1.374-.11 2.036.745 1.094 2.182 1.966 3.275 2.664.013-.043 4.54 2.681 5.468 2.973v.003c.357 1.239 1.064 2.194 2.63 3.091 4.495 2.005 12.703 1.909 14.689.278.004-.03-.004-.052-.003-.08.2-.065.428-.123.589-.198 2.386-1.193 3.977-1.944 5.875-3.928l1.083-1.638 2.783-4.331c1.186-1.945 2.307-3.557 2.905-5.783-1.897-3.871-7.673-8.243-9.677-12.03-1.696-1.944-3.01-3.841-5.536-4.7m5.497 39.732c-1.362.072-2.561.458-3.912.796-1.621.641-2.692.524-4.398.556-.539.011-.874.039-1.153.106.016-.022.023-.038.039-.061-2.108.422-2.4.7-2.481 2.716 1.005 2.669 3.983 2.724 6.409 2.295l2.197-.558c.004-.018-.019-.029-.021-.046.757-.25 1.481-.573 2.206-.903 1.129-.657 1.665-1.476 2.228-2.576.234-1.264-.053-1.862-1.114-2.325"/><path fill="url(#paint4_linear_0_1)" d="M87.938 138.522c-1.03.745-2.666 2.261-3.146 3.318-.237.832-.726 1.62-.226 2.398.745 1.094 2.185 1.966 3.277 2.664.014-.043 4.54 2.683 5.468 2.974-.374-2.093-.103-3.622.423-5.294-1.998-1.73-2.51-3.601-3.458-5.606-.206 1.298 1.228 4.561 1.808 5.427-2.722-.488-3.78-3.259-4.158-5.776-.008-.017.029-.107.011-.105"/><path fill="url(#paint5_linear_0_1)" d="M102.533 138.761c-.084-.403-.184-2.851.487-2.925.672-.074 1.293 1.842 1.496 2.612-.647.076-1.285.159-1.983.313"/><path fill="url(#paint6_linear_0_1)" d="M109.936 144.345a1.8 1.8 0 0 0-.458.083c-1.256.4-1.19 1.815-1.19 1.815 1.24-.843 1.928-1.021 3.445-1.077 0 0-.765-.871-1.797-.821m-9.393 1.615a1.8 1.8 0 0 0-.455.085c-1.256.4-1.193 1.816-1.193 1.816 1.24-.844 1.928-1.022 3.445-1.077 0 0-.765-.874-1.797-.824"/><path fill="url(#paint7_linear_0_1)" d="M93.31 149.877c-.276-.219-.335-3.37.008-3.631 1.216 11.133 17.693 3.989 17.311 7.001-1.987 1.632-10.196 1.727-14.69-.278-1.566-.897-2.272-1.853-2.628-3.092"/><path fill="#E3C265" d="M104.722 161.689c-3.744 4.989 6.332 3.373 6.123 4.453l-2.196.557c-2.426.428-5.405.373-6.41-2.296.081-2.016.374-2.292 2.483-2.714"/><path fill="url(#paint8_linear_0_1)" d="M103.269 179.145c.658.633 1.752 1.494 3.216 1.16.188 1.139.295 1.462.618 2.474.114 1.127.434 1.9.48 3.34-3.047-.162-6.597-2.481-7.979-4.778 1.799.02 2.53-1.095 3.665-2.196"/><path fill="#fff" d="M108.692 124.148c-4.161.302-3.992 4.961-3.94 8.875l.87 5.286c2.881-.118 4.974-.116 8.304.991.644-4.973 1.277-12.538-3.174-14.999-.784-.149-1.465-.196-2.06-.153m-14.02 1.67c-3.64 1.273-4.01 3.771-4.174 7.327.486 4.136 1.962 7.551 3.826 10.477 2.188-2.87 5.196-4.008 6.65-4.468.06-3.047-.587-6.306-1.163-8.92-1.657-3.995-3.242-4.315-5.139-4.416m21.693 24.084-1.893 1.346c.797.075 1.574 1.01 1.728 2.579l.22-.653c.224-1.372.004-2.049-.055-3.272m-18.674 3.675c.329.79.933 3.127 2.054 3.793-.302-.848-.972-2.368.153-3.15z"/><path fill="url(#paint9_linear_0_1)" d="M127.977 123.313c.723 1.393 6.741 1.169 7.421-.093.91-2.038.864-2.451.99-3.154-3.527-1.02-6.961-.383-9.246 0-.255.975.283 2.109.835 3.247"/><path fill="url(#paint10_linear_0_1)" d="M134.316 132.806c-2.595 4.485-7.35 5.948-11.864 1.774l-.15-3.505c4.398.435 8.526.588 12.168.587z"/><path fill="#DFD9C9" d="m134.872 137.011-3.183 3.563c4.074-.093 6.433.984 9.609 3.175zm-11.194 1.891-2.227 2.871 9.562-1.153zm7.57 3.21a33 33 0 0 0-3.983.218c2.958.883 4.498 1.617 7.298-.062a40 40 0 0 0-3.315-.156m7.644 7.701c-4.127 7.16-3.842 5.791-9.153 2.907 2.275 2.806 4.606 4.871 5.42 5.541z"/><path fill="#BCAD9D" d="m113.623 29.19-.955.39C99.74 36.905 86.203 42.895 81.904 69.074c-7.283 4.538-12.662 9.62-17.66 14.81 1.967 1.835 7.722 2.397 15.151 3.59l1.255-9.315 5.426-3.18c.756-2.325 1.399-4.65 2.606-6.976.662-1.271 1.383-2.114 2.875-2.628 12.871-6.27 22.396-7.706 32.985-10.68-8.078.996-16.193 2.308-30.074 7.125-1.992.692-2.476 1.281-1.716-1.416 1.249-6.461 4.146-12.41 7.59-17.475-1.984 3.93-2.962 7.977-3.57 12.064 4.153-8.37 8.554-16.578 15.527-23.136.768-.948 1.389-.885 2.42-.647 6.946 1.611 16.276 7.645 23.462 16.953-2.858-4.542-7.216-12.313-18.845-16.7zm24.558 18.974c.722 1.146 1.352 2.09 1.975 2.719a56 56 0 0 0-1.975-2.72m31.478 13.772c2.581 3.597 3.676 6.653 5.036 9.806 3.817-2.204 6.714-5.125 9.497-8.133-6.16-1.13-11.055-1.71-14.533-1.673"/><path fill="#E5DFD1" d="M108.969 124.109c-6.275.028-4.108 8.982-3.342 14.199.552-6.235.247-10.354 5.125-14.006a9 9 0 0 0-1.783-.193m-14.283 1.978c-6.4.096-4.494 11.868-.363 17.535-1.824-7.838-2.67-12.481 2.623-17.171-.847-.259-1.598-.374-2.26-.364"/><path fill="#E6C764" d="M167.017 180.783c-.872.021-1.725.077-2.591.149l-.436.644q-1.506 1.795-3.009 3.592c1.67.292 3.481.909 4.495 1.788.169.578.307 1.197.43 1.825.074.509.159 1.048.263 1.67l.018.015c.133.977.223 1.933.263 2.756-1.075.871-2.299 1.783-3.272 2.536.132.68.327.979.9.968 1.746-.118 3.484-.054 5.228.03 3.667.506 6.481 2.793 8.395 5.072l.012-.04c.097.131.206.253.3.385-2.959 7.759-11.61 7.009-18.247 4.639-7.533-2.73-14.337-1.642-20.022 2.395-1.426 1.658-2.296 2.819-3.089 4.633-.032.032-.174.158-.174.158l-.21.763c-.033.089-.068.153-.101.245l.037-.007c-.801 3.016-1.888 8.775 3.467 10.239-5.687-7.62 1.098-10.694 8.282-10.416 1.394.164 2.826.398 4.26.641 6.61 2.225 15.547 5.939 22.682 4.605l.052.01.097-.037c1.318-.26 2.579-.677 3.739-1.334-.145.008-.304-.009-.452-.006 6.019-2.69 11.207-6.742 13.254-14.023-.005-6.066-.187-9.445-7.459-17.193l-3.619-2.964c-1.434-.154-2.636-1.279-3.378-2.032.461.877.844 1.987.796 3.07-.378.265-.687.12-1.123-.073-1.394-.96-2.587-2.293-3.699-3.373-1.325-1.074-2.138-1.121-3.378-1.278a31 31 0 0 0-2.711-.052"/><path fill="url(#paint11_linear_0_1)" d="M167.017 180.783c-.872.021-1.725.077-2.591.149l-.436.644q-1.506 1.795-3.009 3.592c1.67.292 3.481.909 4.495 1.788.169.578.307 1.197.43 1.825.074.509.159 1.048.263 1.67l.018.015c.133.977.223 1.933.263 2.756-1.075.871-2.299 1.783-3.272 2.536.132.68.327.979.9.968 1.746-.118 3.484-.054 5.228.03 3.667.506 6.481 2.793 8.395 5.072l.012-.04c.097.131.206.253.3.385-2.959 7.759-11.61 7.009-18.247 4.639-7.533-2.73-14.337-1.642-20.022 2.395-1.426 1.658-2.296 2.819-3.089 4.633-.032.032-.174.158-.174.158l-.21.763c-.033.089-.068.153-.101.245l.037-.007c-.801 3.016-1.888 8.775 3.467 10.239-5.687-7.62 1.098-10.694 8.282-10.416 1.394.164 2.826.398 4.26.641 6.61 2.225 15.547 5.939 22.682 4.605l.052.01.097-.037c1.318-.26 2.579-.677 3.739-1.334-.145.008-.304-.009-.452-.006 6.019-2.69 11.207-6.742 13.254-14.023-.005-6.066-.187-9.445-7.459-17.193l-3.619-2.964c-1.434-.154-2.636-1.279-3.378-2.032.461.877.766 1.797.718 2.88-.378.265-.834.129-1.045.117-1.394-.96-2.587-2.293-3.699-3.373-1.325-1.074-2.138-1.121-3.378-1.278a31 31 0 0 0-2.711-.052"/><path fill="#FDE859" d="M177.13 182.489c.461.877.766 1.797.718 2.881-2.588 1.474-3.999-.552-6.138-2.249-.935-.674-1.602-.159-1.602-.159-2.334 1.753-4.06 4.154-3.83 6.073.122.981.278.722 1.245.943 2.529.54 8.873 2.084 10.333 4.242 1.812 2.679-.097 7.452-.143 7.568.096.131.205.253.299.385-2.959 7.759-11.61 7.009-18.247 4.639-7.533-2.73-14.337-1.642-20.022 2.395-1.426 1.658-2.295 2.819-3.089 4.633.443-.44 3.771-3.602 8.921-4.038 5.447-.46 22.184 9.13 32.761 8.899 6.018-2.69 11.204-6.744 13.25-14.023-.004-6.066-.186-9.445-7.458-17.193l-3.619-2.964c-1.435-.154-2.637-1.279-3.379-2.032m-11.225 6.293c.073.509.159 1.047.263 1.669l.018.016a28 28 0 0 0-.281-1.685m-29.636 25.979c-.033.089-.067.153-.1.245l.036-.007zm38.775 5.28-.149.027.052.01z"/><path fill="url(#paint12_radial_0_1)" d="M154.087 60.973c-27.318-.06-51.792 8.321-73.439 17.186a570 570 0 0 0-1.175 10.415 327 327 0 0 0 2.931-1.951c-1.706 11.203-3.75 21.39-5.916 31.215l-.184-5.731-2.29 11.236 1.98-2.783-.898 5.38 7.236-.123 1.701-4.639.65 4.02.185.928 1.206-1.361.433 1.67 2.32.742c1.889-3.503 3.529-4.453 7.421-3.989 1.32.017 5.988 1.27 6.675-.177-4.088-10.845-4.767-23.698-5.453-36.357-1.32 10.222-2.29 20.654-2.449 31.575-1.795-7.496-2.984-15.51-3.148-24.403-.707 4.48-1.427 8.829-2.362 11.02-.397-6.5-.994-14.2-1.6-21.958C107.397 69.68 128 56.838 168.966 66.137c1.123.253 2.295.535 3.254.773.424-.632-1.753-3.534-2.663-4.985-5.254-.64-10.41-.94-15.47-.952m7.672 6.701c1.945 4.656 4.26 9.436 5.136 14.835.025-.346.047-.688.077-1.037q.204.476.425 1.022c1.658 4.407 1.641 9.187 1.554 13.822 1.001.324 1.496-1.59 1.569-2.255 1.639-10.833-1.405-19.572-8.761-26.387m-45.132 2.295c-2.406 2.971-4.738 5.98-6.494 9.277.052-.777.305-.851.062-2.66a31.4 31.4 0 0 0-6.803 5.567c.922-2.173 1.142-4.346 1.251-6.519-1.493 4.805-3.231 8.918-3.79 12.959a66.5 66.5 0 0 1 7.026-8.673c-.148.88-.718 1.63-1.093 2.362-1.741 4.646-3.018 8.647-3.61 12.847q-.099.707-.184 1.472c.731-.977 1.155-2.145 1.607-3.168.165 2.986-.108 4.5 1.181 6.036.104-.489.215-.906.337-1.338.277-10.3 6.588-19.594 10.51-28.162m53.353 1.03c1.453 3.537 2.212 6.025 2.627 7.99l-.003-.031c1.35 3.392 1.508 6.31 2.1 9.54.495-2.72.705-6.056.136-7.767-1.074-3.184-2.226-6.376-4.86-9.733m-36.998.612c-4.343 6.687-8.426 11.502-10.182 18.589 2.534-5.716 5.145-10.584 8.214-15.222-2.252 6.687-5.19 12.062-5.48 18.307.508-.786.687-1.926 1.224-2.64.989-5.862 3.865-12.563 6.224-19.034m-10.247 1.1c-1.226 1.128-2.37 2.53-3.429 4.063-.091.132-.185.257-.275.39l-.175.766q-.633 1.526-1.248 3.014c-1.907 4.66-4.429 9.826-4.036 14.72.724-1.1 1.397-2.542 1.786-3.546 1.134-7.14 3.838-13.032 7.377-19.407m16.983 1.96c-8.789 12.166-9.362 16.515-10.28 21.195-.113.574-.23 1.153-.369 1.752 1.442-3.546 2.775-6.75 4.412-9.663a5.6 5.6 0 0 1 .551-.819c-.392 2.305-.57 4.493-.393 6.604.303-.513 2.02-7.287 3.404-9.971q-.239 1.488-.43 2.834c-1.485 8.308-.673 14.09 2.055 18.42 1.789-.059 5.548-8.49 5.027-9.163-1.177 2.22-3.125 5.455-4.408 5.993-1.823-9.029-.915-17.925.431-27.181m17.143.35.485 5.23a132 132 0 0 0-.021-2.118c.392 3.182 1.35 6.387 1.688 9.306q.103.34.207.655a2 2 0 0 0-.138-.011c.053 2.016.322 3.998.37 5.932.083 3.248-.357 6.573-.185 9.411 1.386-.776 2.365-3.45 2.646-5.05.022.616.029 1.218.109 1.792.173 1.015.33 2.156.683 2.518 1.217-2.521 2.268-5.117 2.558-7.365-.726 2.221-1.458 4.397-2.279 5.766.565-2.836 1.125-5.675 1.006-8.966-.842 1.255-1.241 1.614-1.575 2.756-.054-.83-.05-1.541-.244-2.649l-.097-.297.031-.093c-.922-6.156-2.81-11.669-5.244-16.816m-9.533.7c.693 1.481.76 4.79.969 8.294.482-1.96.29-4.466-.188-6.625 1.724 6.483 3.542 13.793 4.224 20.541 1.004.21 1.741.89 2.589 1.431 1.547-3.743 1.707-6.864 2.018-10.15-.664 3.751-1.391 7.059-2.353 8.725-.633-7.522-1.67-17.067-7.259-22.215m-60.52 7.92c-1.132 12.361-3.491 22.267-5.78 32.315.927-9.02 1.832-18.076 1.405-29.351q2.187-1.475 4.374-2.965m78.927 10.362c-.489 2.203-1.194 4.351-1.832 6.515l-4.198 10.277c-1.468 3.63-3.023 7.222-4.575 10.816-2.985 3.196-7.649 5.186-10.947 6.881l1.376.495 1.191.139c4.034-2.145 8.43-2.451 12.678-1.392 2.234-2.278 3.94-5.251 5.263-7.602.152 3.1-.363 5.835-.984 8.834 1.045-.714 1.828-1.69 2.667-2.624a11.3 11.3 0 0 0 .219 2.449c2.458-3.063 3.721-5.722 4.33-9.118.418 2.389.451 4.246.413 6.6 4.693-11.364-.107-19.369-1.703-25.999.829 5.229 1.635 12.925.742 15.586-.732-7.314-3.005-15.245-4.64-21.857"/><path fill="#DFD9C9" d="m104.861 177.881-.604.321-3.157 3.069-5.27.043-10.102 5.904c-5.62-.639-10.859-4.864-13.93-7.019-.242-4.014-.607-7.893.263-11.808a296 296 0 0 1 4.636-6.166l3.236-14.782c-3.684-4.412-.121-7.712 3.28-7.959l3.302-4.046.46.766-1.837 3.848s-3.672.962-3.674 2.274c-.003 1.313 3.018 1.881 3.018 1.881.83 1.461 2.41 2.107 3.804 3.017l-4.244 1.304c-1.712.307-1.223.888-.952 2.412l1.781 10.017c.75 2.825.58 2.946-1.832 4.242l-6.342 3.409c-1.931.992-2.03.898.06 1.474l2.833.78c3.4.407 3.177 2.609 4.064 5.606l2.155 7.281c.264.971.694.975 1.45.438l6.932-4.294 3.454-5.205.831-2.143.394-4.898-.217-2.485c1.4 3.379 3.336 6.982 3.409 10.532 2.315-.639 4.692-2.289 7.063-3.826l-3.785 5.746z"/><path fill="#fff" d="m153.028 98.344-5.365 13.891c2.389-.121 5.261-.865 7.623-2.49 3.412-4.721 1.862-8.858-2.258-11.401m-45.926 3.366c-1.028 2.057-1.058 4.413.207 7.309 2.362 2.45 4.738 3.14 6.046 3.439z"/><path fill="url(#paint13_radial_0_1)" d="M150.4 98.2c-5.48.23-6.572 4.22-7.092 7.132-.573 5.182 1.189 6.821 4.449 6.833 4.361-.066 6.473-4.891 6.986-7.843.392-3.815.683-4.561-1.715-5.979a14.7 14.7 0 0 0-2.628-.143"/><path fill="url(#paint14_radial_0_1)" d="M115.82 97.128c-2.094-.022-3.87.561-5.035.998-1.882 1.102-5.628 3.981-2.805 9.814 1.812 4.008 6.446 5.496 10.221 3.641 5.382-2.826 4.284-8.546 4.562-11.82-2.436-1.983-4.849-2.611-6.943-2.633"/><g filter="url(#filter0_f_0_1)"><path fill="#A6AED6" d="M121.164 105.337c-.119.062-.333.33-.687.852-3.934 4.963-7.029 4.471-10.33 2.206-.861-.63-1.523-1.254-.998.26.819 2.145 3.588 3.363 6.626 3.042 2.882-.304 4.843-2.905 5.417-5.181.107-.81.171-1.28-.028-1.179m32.383.651c-.051-.007-.207.229-.47.613-4.029 5.604-7.35 3.971-8.609 1.221-.31-.91-.515-1.681-.736-.19-.114 1.4.538 3.487 3.443 3.791 3.25.339 5.418-2.474 6.21-4.596.158-.586.213-.833.162-.839"/></g><g filter="url(#filter1_f_0_1)"><path fill="#212848" d="M114.6 96.836c-4.972.107-9.953 4.142-6.619 11.105-.33-5.139.647-10.063 11.279-9.866-1.347-.874-3.003-1.275-4.66-1.24m35.953 1.138c-6.404-.17-8.352 7.364-6.86 12.088.325-7.441 2.523-9.344 7.48-10.534 1.26-.086 1.387.433 1.947.936.825 1.005 1.304 2.413 1.623 3.858.218-1.493.274-3.102.296-4.26-.701-1.206-1.968-1.506-3.146-1.947a9 9 0 0 0-1.34-.14"/></g><g filter="url(#filter2_f_0_1)"><path fill="#fff" d="M119.65 98.59a.84.84 0 0 0-.443.226c-.519.504-.234 1.972.345 2.436.58.464 1.595.383 1.987-.159.392-.541-.004-1.516-.479-1.96-.356-.332-.927-.628-1.41-.542m34.067.654c-.403-.064-.807.023-1.114.314-.614.583-.41 2.194.186 2.832.597.638 1.754.942 2.384.32s.262-2.28-.345-2.886a2.07 2.07 0 0 0-1.111-.58m-43.32 8.792a1.04 1.04 0 0 0-.937.366c-.262.344-.221.97.107 1.3.327.33 1.126.525 1.483.131.357-.393.094-1.388-.317-1.669a.8.8 0 0 0-.336-.128m34.433.226c-.238-.033-.476.021-.65.195-.349.347-.189 1.293.158 1.642.348.349.951.478 1.3.131s.186-1.293-.161-1.642a1.16 1.16 0 0 0-.647-.326"/></g><path fill="#475F66" d="M118.988 148.23q-.615.002-1.197.116c-.194.341-.889 1.073-1.416 1.648.095.786.215 1.731.15 2.569l2.53-2.258a1.357 1.357 0 0 1 1.928.107 1.364 1.364 0 0 1-.11 1.931l-3.796 3.391a1.36 1.36 0 0 1-1.929-.11 1.363 1.363 0 0 1 .107-1.929l.754-.674c-.135-.744-.478-1.341-1.282-1.73-.337.253-1.27.816-1.648 1.052a6.3 6.3 0 0 0 5.908 8.484 6.3 6.3 0 0 0 6.296-6.299 6.296 6.296 0 0 0-6.295-6.298m2.999 1.849h.211l.171.253.171-.253h.21l-.259.385.268.399h-.207l-.183-.268-.183.268h-.211l.272-.399zm1.923 2.835h.241l.29.781h-.204l-.049-.14h-.315l-.048.14h-.205zm.122.183-.11.312h.217zm-2.035.379c.371.003.742.157 1.01.458a1.365 1.365 0 0 1-.11 1.931l-3.797 3.391a1.365 1.365 0 0 1-1.931-.11 1.365 1.365 0 0 1 .11-1.932l3.796-3.39c.265-.237.594-.351.922-.348m-8.243 2.109h.22l.177.277.177-.277h.222l-.299.451v.33h-.201v-.33zm2.261 3.082h.302q.165 0 .238.049.074.049.074.158a.16.16 0 0 1-.104.156.17.17 0 0 1 .097.07.2.2 0 0 1 .037.122q0 .115-.076.171-.076.055-.232.055h-.336zm.202.137v.165h.113a.12.12 0 0 0 .073-.021q.024-.02.024-.061t-.024-.061q-.026-.022-.073-.022zm0 .302v.205h.119q.06.001.091-.025t.031-.079q0-.052-.031-.076-.03-.025-.091-.025z"/><path fill="#B42320" d="M119.991 150.103a1.18 1.18 0 0 0-.845.353c-.19.188-.301.409-.342.678a1.4 1.4 0 0 0 0 .335c.079.543.514.964 1.059 1.025.076.009.249.004.325-.01a1.206 1.206 0 0 0 .998-1.074 1.3 1.3 0 0 0-.034-.413 1.206 1.206 0 0 0-1.161-.894m-3.879 3.436-.066.005a1.21 1.21 0 0 0-1.036.806.95.95 0 0 0-.059.386c0 .177.007.225.052.367.142.447.536.769 1.011.827a1.2 1.2 0 0 0 1.309-1.391 1.2 1.2 0 0 0-.984-.982c-.005 0-.057.103-.115.232q-.023.048-.028.038l-.027-.106a2 2 0 0 0-.04-.138zm5.899.085a1.197 1.197 0 0 0-.142 2.388c.078.011.258.008.331-.005.259-.044.476-.155.659-.338.197-.198.315-.441.347-.719.01-.091.004-.255-.014-.347a1.2 1.2 0 0 0-.178-.44 1.17 1.17 0 0 0-.473-.416 1.1 1.1 0 0 0-.53-.123m-3.809 3.437h-.077c-.39.014-.744.212-.963.539a1.3 1.3 0 0 0-.166.388 1.3 1.3 0 0 0-.023.413 1.23 1.23 0 0 0 .471.816c.184.137.386.214.626.239a1.2 1.2 0 0 0 1.092-1.863 1.2 1.2 0 0 0-.96-.532"/><path fill="#2F2F2F" d="M97.113 154.056c-.046-.022-.13-.013-.931.101-.572.081-.895.132-.925.149-.055.033-.104.11-.104.165 0 .023.066.51.147 1.084.08.573.147 1.043.143 1.046-.003.004-.476.074-1.05.156-.58.083-1.07.163-1.101.177-.069.032-.107.099-.107.189 0 .037.053.44.119.897.083.58.13.846.15.876a.25.25 0 0 0 .088.074c.06.028.085.026 1.123-.123a20 20 0 0 1 1.077-.137c.007.008.075.461.153 1.007.077.546.148 1.029.159 1.074.024.109.099.169.207.168.042 0 .446-.053.9-.119.895-.128.891-.127.95-.244.028-.058.026-.081-.123-1.126-.1-.703-.146-1.071-.134-1.074.01-.003.464-.069 1.01-.147a61 61 0 0 0 1.06-.155c.078-.017.162-.09.176-.156.013-.057-.227-1.75-.256-1.81a.22.22 0 0 0-.171-.113c-.11.007-.2.016-.311.025.053.411.277 1.208.277 1.208-.342-.191-.746-.752-.958-1.11l-1.135.158a40 40 0 0 1-.162-1.068c-.165-1.136-.161-1.117-.272-1.172m13.024 2.332a.4.4 0 0 0-.207.046.45.45 0 0 0-.214.213 56 56 0 0 0-.586 1.599.476.476 0 0 0 .382.543.47.47 0 0 0 .488-.222 1.4 1.4 0 0 0 .073-.171c.394-1.068.512-1.39.522-1.425a.5.5 0 0 0 0-.232.474.474 0 0 0-.458-.351m-3.936.976a.46.46 0 0 0-.409.238 73 73 0 0 0-.58 1.569.47.47 0 0 0 .125.467.48.48 0 0 0 .29.131c.079.01.21-.021.287-.07a.53.53 0 0 0 .177-.201c.026-.059.559-1.514.57-1.56a.48.48 0 0 0-.131-.449.47.47 0 0 0-.329-.125"/><path fill="url(#paint15_radial_0_1)" d="m140.964 137.823 1.596 1.157c2.026.4 2.925.528 4.529 1.99 3.187 3.875 4.947 7.368 5.411 12.832-.63 4.849-2.322 8.635-4.917 13.33-4.42 6.898-8.108 11.608-14.566 17.658-3.707 3.544-8.646 6.169-14.316 7.422-3.307.52-8.732.865-9.988 1.297-5.539 2.582-9.986 6.27-8.97 13.019 3.715 10.487 19.842 8.983 31.667 3.402 5.495-3.216 9.877-5.68 14.782-9.71 6.896-6.144 11.877-11.497 17.053-17.652 6.598-7.886 10.624-18.007 10.672-27.072-1.854-10.641-5.363-23.923-15.527-27.945-7.526-1.522-16.938 2.321-17.426 10.272"/><path fill="url(#paint16_radial_0_1)" d="M153.977 137.18c2.347 5.294 4.121 20.386-.977 28.515s-15.555 23.866-24.977 27.405c-7.871 2.956-18.096 2.057-21.117 5.213-3.02 3.155-1.363 8.57 7.422 10.547 8.785 1.976 20.972-2.843 40.15-16.433 16.731-18.366 31.725-37.806 5.199-64.786-3.858-.515-7.597-.516-11.13.372 0 0 3.082 3.873 5.43 9.167"/><g filter="url(#filter3_f_0_1)"><path fill="#FDE759" d="M120.192 202.156c8.066.131 20.017-2.454 36.235-11.895 16.275-16.267 22.861-46.227 6.068-57.75-8.355-5.219-5.06-1.34-3.304 4.1 3.849 12.054 5.352 32.057-13.222 47.833-11.223 9.532-24.022 12.521-27.288 13.34-12.998 3.106-4.776 4.23 1.511 4.372"/></g><path fill="#000" d="M113.62 29.19c-.789-.002-1.498.18-2.276.568-20.514 10.22-28.327 25.505-30.49 38.705-6.171 4.374-11.228 8.883-16.243 14.2-.87 1.004-.947 1.741-.308 2.209 1.62 1.173 9.55 2.424 14.718 2.847-1.008 13.074-3.308 25.717-5.935 38.099l2.288-2.909-.741 3.464 7.79-.122c.71-1.358 1.27-2.686 1.484-4.208a25 25 0 0 1 .806 4.455l1.175-.866.555 1.113 1.831.721c-.777 1.738-1.43 4.154-1.709 7.519l-3.598 4.306c-1.694.082-3.417.758-5.273 4.077-.172.346.115 1.354.28 1.621.621.754 1.233 1.495 1.172 2.041-.475 4.821-2.03 10.451-3.091 15.711-2.068 2.191-4.167 4.355-4.95 7.669v8.478c-.191 1.258.367 1.648 1.251 2.289 4.1 2.968 9.512 6.069 12.604 6.674 1.36.065 6.064-3.029 10.825-5.999l3.71.061c2.173 2.615 4.85 4.312 7.801 4.446.182 1.794.292 3.477.454 3.747l.01.007c-.587.261-1.169.707-1.31 1.388-.155.753.663 1.342 1.325 1.703-1.807.714-3.631 1.927-5.164 3.47-1.937 1.95-3.414 4.439-3.705 7.144v.006c-.2 2.118.724 4.51 1.957 6.128l.003.004c2.985 3.858 8.354 5.19 14.154 4.937 5.439-.236 11.299-1.864 16.112-4.232 1.257.656 3.814.253 7.282-.742-1.293 1.639-2.83 4.085-3.174 8.67-.338 4.001 2.341 6.942 4.517 8.102 1.378.478 1.23-.565.07-1.925-1.396-1.611-2.123-3.039-2.139-4.419-.034-2.812 3.184-5.016 8.85-5.292 6.952-.401 17.428 6.595 26.348 5.878 1.172-.097 2.28-.408 3.449-.903 8.677-3.29 15.181-8.285 15.772-17.482.246-7.628-5.513-13.328-11.271-19.031q0-.161-.033-.366c-.782-2.449-2.35-3.723-4.114-4.7-1.086-.329-1.636-.383-2.475-.281-2.005.26-4.7.977-5.859 1.126-.465-.439-.922-.842-1.407-1.086 4.057-6.077 6.867-12.529 7.288-19.327.445-4.71-1.034-13.044-4.447-20.104-1.707-3.532-3.902-6.741-6.622-8.981-1.181-.889-2.311-1.644-3.491-2.158 1.701-1.532 2.937-3.328 4.968-6.915-.217 3.15-.585 6.023-1.26 8.715.919-.651 1.968-1.303 2.661-2.374-.043 1.009.129 1.731.436 2.274 3.125-3.629 4.277-6.654 4.462-8.951.266 3.864.251 7.333-.263 9.695 3.227-3.16 3.972-6.044 6.122-15.399l.433 10.886c.578-2.093.776-3.253 1.145-5.692 1.615-23.089-.366-38.028-3.464-47.467 3.46-2.54 5.832-4.418 9.491-8.285.34-.335.408-.717.168-1.029-3.788-3.174-11.492-7.024-22.864-9.424-11.131-10.883-20.591-20.98-46.549-24.282a7 7 0 0 0-1.542-.202m.418 1.181q.573.006 1.166.074c13.727 1.483 29.066 5.726 45.664 23.898 8.029 2.322 16.691 3.426 22.775 9.204-26.987-5.958-59.156-4.363-102.91 14.102l.024-.195-.028.195a332 332 0 0 0-13.434 6.03c4.45-1.797 8.885-3.614 13.349-5.395l-1.248 9.189c-5.096-.909-14.203-2.527-13.977-3.836-.02-1.427 6.269-7.379 16.482-14.563 2.767-19.98 17.299-33.434 30.204-38.452a6.7 6.7 0 0 1 1.933-.25m3.159 1.27c10.693 3.208 18.342 13.923 23.675 20.084-5.733-8.034-10.34-16.362-23.675-20.084m-5.765.54C98.325 41.97 97.398 51.747 94.981 60.508c3.415-11.051 7.57-20.997 16.451-28.327m30.258 20.994c-18.366.031-37.203 4.332-56.727 14.764 18.25-8.881 38.647-16.275 73.471-13.647a125 125 0 0 0-16.742-1.117zm13.937 8.188h.003q5.01-.007 10.279.308c8.17 11.242 9.958 17.872 8.795 26.828-.248-2.91-.5-6.931-2.1-9.54.287 2.61-.049 4.876-.192 7.275.19-1.443.471-4.123.558-5.566 1.406 3.286 1.321 8.348.684 15.433 2.48-11.84 4.002-19.94-7.73-34.43q1.799.109 3.631.256c9.88 15.544 9.349 41.924 8.219 57.303-.223-3.909-.667-7.098-.29-12.954-1.299 8.226-2.326 17.181-6 22.509.274-3.564-.078-8.631-.741-10.882.07 4.495-2.387 9.042-3.913 10.257-.246-1.181.071-2.363.394-3.543-1.187 1.918-2.126 2.702-3.201 3.723.975-3.645 1.209-6.208 1.263-10.083-1.642 3.821-3.629 6.845-5.987 9.222l-.006.003c-1.942-.342-3.992-.62-5.814-.427-1.928.165-3.555.499-4.932.958l-.036-1.565a65 65 0 0 0 6.189-3.867c.247-.191.736-.839.885-1.175l6.561-16.556-7.044 16.306c-.203.453-.661 1.213-1.104 1.492-5.564 3.951-11.156 6.751-18.796 8.799-4.197.538-14.312-.62-17.184-1.368-1.07-1.024-1.79-2.511-2.53-3.671-2.441-3.35-3.594-4.901-5.826-5.694-.544-.16-1.009-.371-1.504-.354-1.965.233-3.494 1.479-4.977 2.322-3.565-17.359-3.786-26.008-2.399-33.417 2.06-3.52 4.25-6.207 6.531-8.295-.226.639-.352.882-.525 1.312.417-.82 1.094-1.804 1.092-2.362-2.371 2.473-4.783 4.804-6.872 8.216.674-3.185 1.638-6.21 2.746-9.69-2.873 8.373-6.976 16.202-.955 44.443-.58.299-1.157.518-1.758.57-2.89.152-5.55-1.132-8.773-.418-.647.292-2.226 1.067-3.58 3.589l-1.932-.442c-.267-.908-.32-1.813-.433-2.72-.37 1.097-.826 1.849-1.361 2.286-.184-2.589-.317-4.098-.928-5.813-.619 1.927-1.237 4.373-1.856 5.566l-6.616-.061c.94-2.157.74-4.999.928-7.608-.597 1.776-1.217 3.469-2.017 4.434 3.575-14.326 4.29-29.287 6.177-43.987 22.335-8.91 45.421-16.9 74.977-16.922m16.785 24.871c-.702 4.409-1.073 7.578-3.461 10.083.702-8.432-.897-12.3-1.981-14.843-.544 6.352-.277 12.041-4.266 21.212-.109-.034-.179-.531-.247-1.05-.073.767-.167 1.538 0 2.225 2.803-4.726 3.93-11.275 4.886-21.027 1.889 5.214 1.65 10.853.928 15.894 2.405-3.057 3.782-7.076 4.141-12.494m-2.753-24.298c4.504.367 9.156.914 13.974 1.666-2.476 3.452-6.185 6.08-8.938 8.14-1.525-4.443-3.297-7.61-5.036-9.806m-38.647 13.043c-2.752 7.546-7.025 15.09-5.789 22.635.326-1.948.06-3.55 1.672-6.247-.278 6.561.231 7.974.803 10.949 1.086-4.711 2.95-9.12 5.319-13.482-1.926 3.52-3.914 7.087-5.38 11.874-.931-3.644-.418-7.404-.434-10.638-.7.832-1.316 1.804-1.669 3.216.262-6.102 3.596-12.204 5.478-18.307m0 0c-2.937 4.439-4.58 6.903-6.637 11.487a18 18 0 0 0-.956-.928c1.129-3.192 2.502-5.697 3.791-8.554-1.667 2.792-3.03 5.573-4.032 8.344a12.6 12.6 0 0 0-2.054-1.465c1.857-2.344 3.872-4.568 6.086-6.879-2.264 2.332-4.316 4.486-6.22 6.803-1.282-.697-2.64-1.081-4.105-1.065.237-.588.477-1.177.724-1.777-.255.563-.528 1.157-.806 1.78a9 9 0 0 0-2.179.326l.516-.714-.531.717c-3.05.84-6.541 3.33-10.672 8.075.767-3.15 1.782-5.62 2.847-8.847-1.499 3.553-2.387 6.431-2.991 9.012q-.593.686-1.205 1.434c.397-.444.786-.866 1.169-1.275-.523 2.267-.83 4.308-1.142 6.378.671-1.21 1.39-2.355 1.896-3.784-.053 2.395.217 4.628 1.095 6.558 1.633-6.464 4.889-11.778 8.502-16.84a9.4 9.4 0 0 1 2.433-.442c-1.489 3.407-3.075 7.71-3.339 13.144-3.608.489-7.082 3.115-8.356 10.285l2.463 2.267c-.047-.164-.067-.318-.107-.479-1.044-10.16 6.144-12.325 12.848-10.013a21 21 0 0 1 2.322 1.416c-.049 2.777.17 4.936-1.367 8.329-.955 2.359-3.718 3.584-5.954 3.75-3.348.211-6.354-2.263-7.071-4.08 1.091 2.773 4.044 4.764 7.114 4.517 3.082-.249 7.949-1.402 7.697-11.066l-.028-1.63.522.244c-.998-1.479-5.486-4.034-9.845-3.558 2.212-4.818 4.619-8.657 7.373-12.189.761.366 1.51.83 2.258 1.377-1.218 3.463-1.87 6.907-1.852 10.333.717-3.162 1.878-6.27 3.241-9.228q.412.351.827.732a25 25 0 0 0-.769-.858c1.998-4.31 4.415-8.294 6.494-11.637m-13.403 5.966c.504-1.115.948-2.12 1.248-3.015-.421 1.017-.84 2.024-1.248 3.015m1.248-3.015.458-1.18-.852 1.028.568-.614zm14.16 10.904c.217-.266.425-.58.681-.65-.328 3.032-.539 6.683-.278 9.93.569-2.942.76-7.666 3.235-12.683-.704 4.893-1.505 9.666-.317 14.435.444 1.784 1.169 4.062 2.279 5.85 3.066-2.76 4.639-6.601 5.268-9.567.467.861.374 2.519.555 3.714 2.588-4.166 4.144-10.524 4.285-19.003.757 2.273 1.413 4.836 1.947 7.389-.546.364-1.089.737-1.636 1.08.55-.337 1.098-.692 1.648-1.032.694 3.327 1.163 6.596 1.391 9.217-3.768-.867-6.598 1.33-9.509 5.539.606-.497 1.105-.885 1.682-1.352-1.158 2.45-1.521 6.136-.907 7.885.89 1.936 2.877 2.842 4.767 2.661 3.438-.308 6.041-3.467 6.635-7.925-.817 3.142-2.74 7.679-7.721 7.568a4.34 4.34 0 0 1-1.88-.601c-2.621-1.839-1.978-5.823-1.089-8.597.212-.549.44-1.008.726-1.419.751-.605 1.556-1.268 2.231-1.797 5.439-2.938 10.363 1.101 9.503 7.516-.141 1.054-.772 1.552-1.227 2.753l2.475-2.158c.248-4.368-.955-7.079-2.454-8.566 1.038-3.51 1.622-7.703 2.073-12.094.454.208.914.497 1.382.882.616 5.04.822 12.051-.064 17.215 1.344-1.358 2.358-3.256 3.061-5.664.087.412.175.545.262.809-.079-.555-.09-1.177-.11-1.791-.508 2.152-1.591 4.263-2.645 5.05.255-4.941.37-9.928-.187-15.344 1.324 1.203 2.71 3.182 4.181 6.253-1.478-3.506-2.887-5.666-4.248-6.897a70 70 0 0 0-1.69-9.308 103 103 0 0 1-.153 8.164c-2.176-.769-4.249.463-6.314 1.837-.703-3.521-1.628-7.31-2.747-10.739.87 8.112-.758 18.076-3.589 21.68.116-2.247-.146-2.919-.741-3.836-.373 3.985-3.604 9.118-5.112 9.79-.809-1.216-1.488-3.434-1.932-4.767-1.27-3.824-.962-8.542.309-16.492-1.486 2.931-2.477 6.484-3.406 9.973-.146-1.708.204-4.33.394-6.604-.425.507-.707 1.11-1.014 1.696m24.772-6.155c.329 1.018.638 2.586.891 4.477a5.4 5.4 0 0 0-1.245-.76c.123-1.231.24-2.474.354-3.717m-40.839.638c1.294.008 2.519.316 3.714.87-2.582 3.197-4.893 6.735-7.092 11.477-.238-3.285 1.182-7.587 3.073-12.344q.153-.005.305-.003m-2.875.46c-3.647 4.947-7.053 9.972-8.294 15.692-1.002-1.187-.936-3.823-1.181-6.036-.489 1.103-.91 2.275-1.609 3.168.225-2.043.535-3.751.904-5.295 4.021-4.267 7.302-6.611 10.18-7.529m9.247 2.042q.494.374.989.793c-.815 1.826-1.697 3.987-2.75 6.736.417-3.007 1.035-5.42 1.761-7.53m32.041.671v.003h.149c.533.01 1.075.11 1.624.327-.296 4.493-.932 8.895-2.029 12.009-.826-.74-1.803-1.124-2.82-1.28-.216-2.37-.687-5.69-1.419-9.365 1.472-.9 2.953-1.672 4.495-1.694m-23.572 32.755c-1.446.008-2.893.163-4.385.424-.375.086-.52.122-.556.507-.079 1.085.71 2.28 1.129 3.137l-.091-.217c-.397-1.028-.724-1.832-.714-2.438.019-.488.206-.478.503-.528 2.259-.338 4.507-.796 8.121-.055.163.05.269.147.281.375.05 1.02-.307 1.86-.678 2.771.449-.888.968-1.885 1.123-2.896h.004c.034-.121.271-.421.424-.534-1.888-.426-3.425-.485-5.161-.546m-23.556 1.587c.799-.01 1.577.379 2.182.809 1.848 1.341 4.022 4.088 6.204 7.489.557.993 1.215 2.021 1.919 2.713 1.673 1.631 4.055 3.211 4.731 4.953.563 1.473-2.607 6.867-4.624 9.875.506-1.55.261-3.214-1.178-4.886-.836-1.081-2.066-1.904-3.54-2.484-1.826-.688-4.057-1.008-5.755-1.062a24 24 0 0 0-2.543.07c-2.205-12.458.688-14.154 3.843-14.142 1.779.211 3.467 1.623 4.272 4.532.81 2.928.483 4.958.183 10.602.483-3.374 1.229-7.035.009-11.117-1.275-3.632-3.112-4.352-4.837-4.352a10 10 0 0 0-1.406.122c-2.821.537-4.374 4.605-2.07 14.355-.891.072-1.783.19-2.664.357q-1.036.198-1.98.489c.116-9.747-2.915-13.68-5.78-13.462-2.066.25-4.467.792-4.914 6.226-.112 4.265 2.23 9.042 3.894 11.502-3.014-5.133-3.535-8.288-3.518-11.328.017-3.019 1.215-5.06 2.877-5.728 3.045-.837 6.871-.439 7.438 12.79q-.967.297-1.831.683c.45-.407.504-1.319.308-2.002a.897.897 0 1 1-.82-1.257c-.362-.345-.777-.396-1.124-.25-.764.354-.749 1.631-.473 2.368.262.701.929 1.461 1.672 1.343-1.48.716-2.714 1.624-3.659 2.661-.99 1.086-1.665 2.315-1.98 3.619-.397 1.323-.41 2.458-.132 3.424-3.123-2.02-7.94-4.04-8.233-6.061-.274-1.844 1.236-4.321 2.285-6.555.355-.595.33-.981.348-1.599.175-6.072 2.51-10.709 5.02-11.92 1.228-.452 4.453-.047 6.617.25 3.977.715 5.564-1.753 8.456-2.871.265-.106.536-.153.803-.156m39.737 5.908-.097 1.517c-.464.194-.871.376-1.313.512l-2.09-.323a54 54 0 0 0 3.5-1.706m5.872.565c1.835-.015 3.822.454 5.456 1.171a14.3 14.3 0 0 1 3.281 2.039c2.573 2.119 4.711 5.218 6.378 8.667 3.334 6.898 4.776 15.214 4.358 19.623v.016c-.405 6.581-3.161 12.894-7.162 18.881-.477.897-1.107 2.01-1.621 2.905-4.935 6.672-11.239 12.892-17.306 18.594-3.796 3.316-8.148 6.235-12.146 8.533-1.409.741-2.991 1.423-4.294 2.066-4.708 2.323-10.5 3.935-15.801 4.165-5.633.245-10.662-1.066-13.379-4.577-1.092-1.436-1.936-3.705-1.77-5.475.262-2.43 1.615-4.75 3.439-6.586 1.637-1.648 3.652-2.898 5.518-3.5 1.402-.384 3.86-.755 5.596-.912 3.224-.296 6.58-.652 13.456-4.117h.003c2.234-1.194 6.575-4.865 10.15-8.765s7.109-8.395 9.167-11.975c2.672-4.648 4.85-8.882 5.338-13.773.197-1.369-.21-3.978-1.267-6.753-.959-2.519-2.457-5.164-4.55-7.084-.354-.347-.688-.596-1.117-.79-.865-.39-1.732-.596-2.56-.79l-1.706-1.081c.654-2.403 1.339-4.684 2.624-6.192a9.7 9.7 0 0 1 2.649-2.096c1.159-.551 2.448-1.44 6.027-2.106a9 9 0 0 1 1.239-.088m-9.433 1.498.982.326a10.4 10.4 0 0 0-2.163 1.853c-1.787 2.03-2.399 4.396-2.765 6.271l-5.332-3.384c-.186-.108-.29-.155-.36-.15-.069.005-.105.062-.158.159l-.083.177a7.7 7.7 0 0 1 .22-2.023c3.43-.678 6.486-1.863 9.65-3.214zm-25.433 2.148 3.204.37c.248.877.137 1.622.089 2.389-1.358-.86-2.495-1.803-3.293-2.759m3.784.217c4.24.427 8.026.659 11.264.586-.144 1.194.029 2.177.061 3.253l-2.456 5.264 2.96-5.624c.104-.276.187-.14.4-.009l8.923 5.502c.254.125.197.156.079.388l-1.559 3.061c-.084.179-.074.187-.214.055l-7.077-6.665c-.281-.238-.33-.288-.467-.116l-2.981 3.711c-.12.11-.107.196-.107.35v1.008l.07-.94c-.009-.157.032-.212.131-.321l2.765-3.039c.276-.328.211-.261.5.021l6.25 6.097-6.14 14.511-14.264-14.819 14.099 15.21-.808 1.907c-.262.504-.237.942-.229 1.49l.293 21.481c-2.274 2.199-5.09 4.28-6.525 5.048-6.851 3.452-10.158 3.795-13.363 4.089-1.79.033-3.589.431-5.1.513-.973-.264-2.066-.768-2.283-1.465-.23-.744.538-1.591 1.731-1.886a3 3 0 0 0-.379.082c-.717-.873-.342-6.18-1.498-8.407a2.7 2.7 0 0 1-.229-.574c-.154-.981.034-1.618.229-2.249.042-.156-.075-.319-.25-.391-.258-.074-.49-.125-.687-.336-.078-.089-.358-.233-.143-.583 1.37-2.009 2.412-4.113 4.19-6.006l-.727.086c-.601-.645.436-3.447.656-4.968a23 23 0 0 0 2.475-.898c1.296-.568 2.433-1.427 2.988-3.121.099-.387.1-.735.027-1.038.096.011 1.584.181 2.524.513 1.615.548 2.978.507 4.477-.165 2.362-1.066 3.652-3.862 4.138-6.037.338-2.593-.819-5.362-3.876-7.531 3.277 2.676 3.934 5.38 3.47 7.623-.447 2.074-1.722 4.6-4.129 5.621-1.01.44-2.165.634-3.201.29-1.232-.358-3.476-.86-3.671-.903a1.48 1.48 0 0 0-1.392-.589c-2.515.371-4.323 1.049-5.496 1.3-1.025.135-3.568-.117-5.124.446-.486.145-.81.476-.937.918a3.7 3.7 0 0 0-.091.949c-.547-.009-1.351.34-2.192.586-1.504.44-3.007.565-4.669.269-.802-.166-1.787-.497-2.572-.98-2.182-1.343-3.427-3.245-3.504-5.841-.237-3.332 2.335-6.671 4.047-7.532.764 1.694 2.5 2.803 4.571 3.486.295.783.518 1.566.943 2.288.212.359.616.92.958 1.111 0 0-.224-.797-.277-1.208a3 3 0 0 1-.037-.611c.03-.448.18-.795.43-1.062 2.717.526 5.64.481 7.599.147 1.637-.279 3.753-1.051 5.726-2.167v-.003h.003c.378-.237 1.308-.8 1.644-1.053 1.065.515 1.206 1.348 1.471 2.539a2 2 0 0 0 .15-.345c.111-.269.149-.516.177-.921.065-.838-.054-1.783-.15-2.57.527-.574 1.222-1.306 1.416-1.648l.004-.003a6.6 6.6 0 0 0 .821-1.584l.344-.5c.019.009 1.48.704 2.747 1.406a217 217 0 0 0-2.683-1.501c1.604-2.34 2.92-4.388 4.657-7.263l7.337 1.721-7.16-2.029c.308-.641.359-1.624.202-2.307l6.958 4.336c-2.484-2.128-5.9-3.658-8.252-6.073.025-1.267.061-2.413-.006-3.381m-14.673 3.14c-1.097.128-1.224 1.569-1.153 2.213.102.78.626 1.724 1.443 1.688.77-.035 1.153-1.132 1.108-1.984a.897.897 0 1 1-.519-1.407c-.185-.228-.512-.5-.879-.51m-21.58 1.581c-.418 1.207-1.09 2.425-1.511 3.455-.51-.022-1.342-.059-1.475-.061zm20.996 2.374q.331-.001.674.006c2.926.162 5.972.698 8.176 2.43 6.858 6.58-3.874 12.427-9.18 13.321-5.238.882-17.134.373-13.336-9.458.282-.741.76-1.314 1.242-1.843 2.302-2.287 4.864-3.428 7.889-4.022 1.633-.246 2.99-.423 4.535-.434m36.155 1.014c.568.144 1.142.317 1.712.564.475.17.856.517 1.193.827 2.031 1.88 3.5 4.476 4.443 6.952 1.046 2.746 1.439 5.354 1.255 6.628v.007c-.202 2.026-.697 3.94-1.401 5.822l-.159-.351c-.044-.136-.119-.085-.21-.051l-10.871 3.939c-.355.088-.318.161-.314.501l.15 13.919q-.814.933-1.636 1.831a87 87 0 0 1-3.311 3.424l-.058-21.126c-.011-.446-.038-.941.116-1.313l6.955-16.892.796.778c.206.229.195.181.327-.07l2.17-4.138c.192-.379.14-.424-.043-.543zm-58.683.131c-.407 1.011-.75 2.051-.943 3.158-.143.949-.304 1.364.265 2.1 1.467 1.876 5.548 3.439 8.658 5.118q.078.26.183.503c-1.066.265-4.098 3.165-4.58 7.566-.087 2.626 1.148 4.683 3.537 6.241 1.464.952 3.14 1.035 5.078 1.214a7.3 7.3 0 0 0 1.486-.143c.022 2.135.144 5.386-.482 7.733-.284 1.195-2.642 4.662-3.98 6.994 1.495-2.303 3.56-4.605 4.33-6.909.302-.895.433-2.103.453-3.366.003-.254.084-.918.183-1.217l.213.268c.327.456.542.992.693 1.465.829 2.597 1.457 5.026 1.083 4.977-.265-.029-.552-.436-.876-.815.282.659.741 1.311 1.008 1.401 1.348.193-2.085-8.656-2.622-10.531.471-.101.938-.261 1.499-.501.467-.133 1.062-.319 1.962-.259.167.826.653 1.528 1.413 1.928.77.421 1.629.628 2.49.693 1.236.073 2.567-.168 3.83-.537-.511 1.876-1.407 3.806-1.181 5.576-1.51 1.898-2.63 3.862-3.805 5.816.398.255.828.546 1.403.73.116.035.17.192.141.351-.192.93-.198 1.629-.168 2.344.036.432.236.711.363 1.04.307.802.503 2.212.653 3.614-2.884-.242-6.452-2.621-7.171-4.514l1.269-.028 2.906-3.216-3.217 2.661-5.38.122c-3.182 2.117-8.716 5.85-10.822 5.753-4.28-.879-8.752-4.295-11.813-6.296-.92-.458-1.056-.823-1.068-1.728-.037-2.619-.07-5.19-.107-8.242.825-2.853 2.89-5.241 5.008-7.608 1.142-5.247 3.185-11.692 3.403-15.708.032-.675-.326-1.275-1.416-2.484-.451-.485-.257-1.178-.257-1.178 1.434-3.444 3.097-3.764 6.378-4.086m46.859 2.908a.74.74 0 0 0-.348.082c-.596.291-.306 1.713.107 2.485s1.4 1.921 1.648 3.686c.249 1.765-.018 2.946.214 3.247.347.484.748 1.167 1.327 2.976.064-1.044-.735-2.373-1.108-3.113-.265-.436.078-1.16-.134-2.994s-2.049-4.105-2.066-5.1.903-.909.903-.909-.18-.347-.543-.36m-21.779 1.965c-.93.022-1.846.638-1.758 1.963-.078-1.746 2.095-2.647 3.445-1.078-.302-.59-.998-.901-1.687-.885m-9.394 1.618c-.93.022-1.845.638-1.757 1.962-.078-1.746 2.095-2.646 3.445-1.077-.302-.591-.999-.901-1.688-.885m42.242 2.847c-.542-.029-.956 1.069-.448 1.346l6.311 3.156-6.156-3.434c-.33-.174.036-.844.403-.68l6.681 3.741-6.62-4.08a.4.4 0 0 0-.171-.049m-26.598 1.294c.294 1.813.228 2.889-.088 3.675-.099-.719-.272-1.271-.513-1.673-.241-.4-.55-.651-.913-.778a15 15 0 0 0 1.514-1.224m-.189 3.494-.006.004h.006zm-18.311.339c.606.196 1.24.355 1.886.482-.245.274-.397.626-.427 1.071-.032.468.069 1.04.308 1.725-.645-.56-1.198-1.5-1.767-3.278m52.6 6.241c.061 0 .099.047.128.122l.14.32c-.815 2.072-1.875 4.115-3.067 6.232l-5.303 1.92c-.263-2.61-.728-3.899-1.297-3.888a.5.5 0 0 0-.251.085c.738.37 1.168 2.041 1.074 3.943-.009.216.045.316.303.22l5.078-1.581-.257.449c-1.05 1.826-2.492 3.901-4.132 6.015a16.6 16.6 0 0 0-.518-3.51c.121 1.44.342 2.99.112 4.028a94 94 0 0 1-2.954 3.559l.208-13.617c-.025-.266.04-.261.272-.348l10.397-3.934a.2.2 0 0 1 .067-.015m-36.456.244c.888-.012 1.557.919 1.291 1.953a4.36 4.36 0 0 1-.913 1.74c-.793.922-2.058 1.635-3.918 2.06-1.802.465-3.518.734-4.908.586-1.891-.385-3.373-1.462-3.131-3.369.083-.586.417-1.062 1.108-1.313 1.304-.492 3.544-.039 5.161-.439 1.367-.338 2.723-.829 4.147-1.077.412-.061.786-.135 1.163-.141m7.705 5.176c-2.856.013-5.281.132-6.588.525-.16.024-.208.106-.272.232-.761 1.49-.994 2.715-.784 4.47.023.285.024.286.283.281 6.864-.129 11.74-.338 17.604-.747.276-.012.305.012.335-.248.15-1.307.017-2.692-.9-4.284a.27.27 0 0 0-.201-.116c-2.723-.023-5.674-.103-8.347-.113q-.575-.002-1.13 0m3.223.296c3.262.001 6.12.107 6.293.22.431.976.991 1.771.796 3.653-.006.183-.028.212-.192.219-5.692.263-9.223.841-17.12.663-.309.014-.311-.027-.358-.303-.257-1.526.486-2.853.852-3.726.675-.554 5.535-.727 9.729-.726m6.045 5.228c-.304 2.345-.515 6.685.184 8.911.204.652.314 1.266.186 1.944-.474 1.144-9.268 1.241-15.28.997-.168-.004-.19.038-.248-.106-.399-1.148.292-6.848-.305-9.427.292 3.444-.448 9.172-.052 10.016.049.11.135.1.232.107 5.112.317 10.237.598 15.961-.843.159-.062.263-.175.272-.326.054-1.292-.573-2.612-.678-3.571-.354-3.24-.132-5.035-.272-7.702m-9.61 2.23a219 219 0 0 0-.216 8.267c.303-2.447.597-4.907.216-8.267m3.717.351c-.211 2.656-.346 5.336.132 8.222.303-2.741.143-5.481-.132-8.222m49.558 4.99c.583-.006 1.069.058 1.392.214 1.85 1.136 3.67 2.317 4.541 4.513.115.338-.023.952-.385.968-.3.007-.547-.054-.833-.199-1.629-.825-2.044-2.339-3.695-3.882 1.215 1.897 2.053 2.567 2.179 5.065 0 .103-.088.15-.196.159-1.886.011-3.871-3.893-6.396-4.442-.662-.167-1.514-.248-2.442-.275q-.287-.006-.583-.009c.063-.556.179-.671.418-.791 1.635-.658 4.251-1.303 6-1.321m-8.294.491h.091q1.026.017 2.152.678l-.104.042c-.197.125-.301.575-.269.901q-.247-.002-.497 0c-1.03.011-2.082.069-3.018.137q.565-.759 1.105-1.526c.156-.19.334-.228.54-.232m1.464 1.682a35 35 0 0 1 .992.009c1.316.038 2.486.189 3.144.528l.027.012q.045.024.085.049c1.655.962 3.14 3.12 4.813 4.157.819.364 1.203.11 1.142-.542-.121-1.242-.223-1.635-.702-2.404.861.824 1.509 1.616 2.636 1.847 6.685 5.593 11.449 11.633 11.246 18.259-.503 9.043-9.113 15.209-17.081 17.108-9.911 1.609-21.522-7.068-28.436-5.374-2.188.43-7.991 1.692-8.487 5.56-.178 1.415.63 2.962.998 3.604s1.466 1.619.372.992c-1.504-.79-2.347-2.084-2.759-3.729-.514-4.249 1.893-10.33 5.997-12.803 1.487-.808 6.64-3.355 12.619-2.413 4.641 1.101 9.504 2.939 13.916 3.277 3.055.366 9.612-2.595 9.894-6.43.127-2.339-5.226-6.014-10.327-6.061-1.55.068-3.547.051-4.151.089a6 6 0 0 0-.32-.668l3.03-2.347c.234-.172.332-.306.263-.739-.376-2.367-.623-5.535-1.273-6.112-1.124-1.004-2.598-1.178-4.074-1.606a87 87 0 0 0 3.278-4.123 49 49 0 0 1 3.158-.14m-6.598 4.458c.576.118 2.726.702 3.275 1.044 1.058.557.977.909 1.105 1.285.289 1.154.612 3.689.845 5.054.038.27-.033.384-.165.494l-5.789 4.529c-.348.241-.364.185-.375-.018-.074-1.648-.126-3.451-.351-4.474a.65.65 0 0 0-.098-.266c-.37-.495-1.906-.913-2.695-1.205l.089.216c.769.373 2.206.691 2.405 1.313.325 1.096.31 2.786.317 4.391.008.553.244.667.525.464l2.85-2.197c.395 1.327.719 2.806-.137 3.991-1.6 1.766-5.782 3.769-9.607 5.011-4.385-.082-9.108.936-12.723 3.604-3.2.993-6.051 1.838-7.672 1.685-1.434-.27.461-1.23.861-1.45 4.373-2.406 9.315-5.624 13.574-9.344l.003-.003h.003c4.686-4.404 9.521-9.122 13.76-14.124m-4.416 8.838c-.262 2.499-.124 4.651-.125 6.925.063-2.271.247-4.322.125-6.925m10.703 2.655c3.367-.038 10.351 3.421 10.11 6.003-.285 2.156-4.502 5.463-9.155 5.566-2.611.118-9.237-2.03-13.757-3.274 3.206-1.151 6.516-2.479 8.749-4.672.765-.663.883-2.112.424-3.504a98 98 0 0 1 3.629-.119"/><defs><linearGradient id="paint1_linear_0_1" x1="99.611" x2="103.636" y1="157.873" y2="167.406" gradientUnits="userSpaceOnUse"><stop stop-color="#9F9F9F"/><stop offset="1" stop-color="#9F9F9F" stop-opacity="0"/></linearGradient><linearGradient id="paint2_linear_0_1" x1="101.728" x2="106.602" y1="85.839" y2="88.169" gradientUnits="userSpaceOnUse"><stop stop-color="#EEC1B2"/><stop offset="1" stop-color="#EEC1B2" stop-opacity="0"/></linearGradient><linearGradient id="paint3_linear_0_1" x1="103.636" x2="105.331" y1="121.433" y2="119.737" gradientUnits="userSpaceOnUse"><stop stop-color="#E9AC9C"/><stop offset="1" stop-color="#E9AC9C" stop-opacity="0"/></linearGradient><linearGradient id="paint4_linear_0_1" x1="88.373" x2="86.991" y1="145.455" y2="137.128" gradientUnits="userSpaceOnUse"><stop stop-color="#D3AA6D"/><stop offset="1" stop-color="#D3AA6D" stop-opacity="0"/></linearGradient><linearGradient id="paint5_linear_0_1" x1="103.213" x2="102.981" y1="137.428" y2="135.655" gradientUnits="userSpaceOnUse"><stop stop-color="#E3C959"/><stop offset="1" stop-color="#E3C959" stop-opacity="0"/></linearGradient><linearGradient id="paint6_linear_0_1" x1="105.116" x2="105.228" y1="145.567" y2="147.402" gradientUnits="userSpaceOnUse"><stop stop-color="#E8CA63"/><stop offset="1" stop-color="#E8CA63" stop-opacity="0"/></linearGradient><linearGradient id="paint7_linear_0_1" x1="104.103" x2="120.283" y1="155.267" y2="151.147" gradientUnits="userSpaceOnUse"><stop stop-color="#D9B862"/><stop offset="1" stop-color="#D9B862" stop-opacity="0"/></linearGradient><linearGradient id="paint8_linear_0_1" x1="104.536" x2="104.853" y1="180.595" y2="179.906" gradientUnits="userSpaceOnUse"><stop stop-color="#DCB668"/><stop offset="1" stop-color="#DCB668" stop-opacity="0"/></linearGradient><linearGradient id="paint9_linear_0_1" x1="131.614" x2="131.745" y1="121.544" y2="125.428" gradientUnits="userSpaceOnUse"><stop stop-color="#FFFDFD"/><stop offset="1" stop-color="#FFFDFD" stop-opacity="0"/></linearGradient><linearGradient id="paint10_linear_0_1" x1="127.788" x2="129.166" y1="133.933" y2="137.111" gradientUnits="userSpaceOnUse"><stop stop-color="#ECB8A9"/><stop offset="1" stop-color="#ECB8A9" stop-opacity="0"/></linearGradient><linearGradient id="paint11_linear_0_1" x1="181.106" x2="159.527" y1="214.812" y2="209.766" gradientUnits="userSpaceOnUse"><stop stop-color="#FDE859"/><stop offset="1" stop-color="#FDE859" stop-opacity="0"/></linearGradient><radialGradient id="paint0_radial_0_1" cx="0" cy="0" r="1" gradientTransform="rotate(93.859 29.037 103.028)scale(20.302 47.4122)" gradientUnits="userSpaceOnUse"><stop stop-color="#EEC0B2"/><stop offset="1" stop-color="#EEC0B2" stop-opacity="0"/></radialGradient><radialGradient id="paint12_radial_0_1" cx="0" cy="0" r="1" gradientTransform="rotate(-67.598 125.632 -67.022)scale(13.2773 17.8393)" gradientUnits="userSpaceOnUse"><stop stop-color="#FF7F7F"/><stop offset="1" stop-color="#A66067"/></radialGradient><radialGradient id="paint13_radial_0_1" cx="0" cy="0" r="1" gradientTransform="matrix(7.15875 1.65959 -1.57803 6.80697 148.13 108.081)" gradientUnits="userSpaceOnUse"><stop stop-color="#212848"/><stop offset="1" stop-color="#2C3665"/></radialGradient><radialGradient id="paint14_radial_0_1" cx="0" cy="0" r="1" gradientTransform="rotate(-11.146 607.2 -536.632)scale(8.16186 6.68384)" gradientUnits="userSpaceOnUse"><stop stop-color="#212848"/><stop offset="1" stop-color="#2C3665"/></radialGradient><radialGradient id="paint15_radial_0_1" cx="0" cy="0" r="1" gradientTransform="matrix(49.57799 16.86228 -19.13094 56.24824 149.656 184.491)" gradientUnits="userSpaceOnUse"><stop stop-color="#FDE859"/><stop offset="1" stop-color="#D3AA6D"/></radialGradient><radialGradient id="paint16_radial_0_1" cx="0" cy="0" r="1" gradientTransform="rotate(25.94 -313.066 419.193)scale(40.6553 50.7599)" gradientUnits="userSpaceOnUse"><stop stop-color="#FDE859"/><stop offset="1" stop-color="#EACD61"/></radialGradient><filter id="filter0_f_0_1" width="45.256" height="7.078" x="108.636" y="104.997" color-interpolation-filters="sRGB" filterUnits="userSpaceOnUse"><feFlood flood-opacity="0" result="BackgroundImageFix"/><feBlend in="SourceGraphic" in2="BackgroundImageFix" result="shape"/><feGaussianBlur result="effect1_foregroundBlur_0_1" stdDeviation=".163"/></filter><filter id="filter1_f_0_1" width="48.534" height="13.621" x="106.702" y="96.637" color-interpolation-filters="sRGB" filterUnits="userSpaceOnUse"><feFlood flood-opacity="0" result="BackgroundImageFix"/><feBlend in="SourceGraphic" in2="BackgroundImageFix" result="shape"/><feGaussianBlur result="effect1_foregroundBlur_0_1" stdDeviation=".098"/></filter><filter id="filter2_f_0_1" width="46.956" height="12.602" x="108.917" y="98.204" color-interpolation-filters="sRGB" filterUnits="userSpaceOnUse"><feFlood flood-opacity="0" result="BackgroundImageFix"/><feBlend in="SourceGraphic" in2="BackgroundImageFix" result="shape"/><feGaussianBlur result="effect1_foregroundBlur_0_1" stdDeviation=".186"/></filter><filter id="filter3_f_0_1" width="62.219" height="73.813" x="110.934" y="129.197" color-interpolation-filters="sRGB" filterUnits="userSpaceOnUse"><feFlood flood-opacity="0" result="BackgroundImageFix"/><feBlend in="SourceGraphic" in2="BackgroundImageFix" result="shape"/><feGaussianBlur result="effect1_foregroundBlur_0_1" stdDeviation=".424"/></filter></defs></svg>