<svg xmlns="http://www.w3.org/2000/svg" fill="none" viewBox="0 0 256 256"><g id="Resharper" clip-path="url(#clip0_8_380)"><path id="Vector" fill="#F4F2ED" d="M196 0H60C26.863 0 0 26.863 0 60v136c0 33.137 26.863 60 60 60h136c33.137 0 60-26.863 60-60V60c0-33.137-26.863-60-60-60"/><g id="Group 19"><path id="Vector_2" fill="url(#paint0_linear_8_380)" d="M212.435 31H108.454a12.57 12.57 0 0 0-11.578 7.678L48.738 152.701a12.55 12.55 0 0 0-.99 4.991l.457 55.846A12.57 12.57 0 0 0 60.776 226h53.827a12.6 12.6 0 0 0 6.904-2.066l97.832-64.316a12.58 12.58 0 0 0 5.664-10.503V43.568a12.56 12.56 0 0 0-3.681-8.887A12.57 12.57 0 0 0 212.435 31"/><path id="Vector_3" fill="url(#paint1_linear_8_380)" d="M75.664 49.281H42.568A12.57 12.57 0 0 0 30 61.85v38.287q-.001.915.134 1.822l16.6 113.298A12.57 12.57 0 0 0 59.167 226h46.912a12.58 12.58 0 0 0 8.89-3.683 12.57 12.57 0 0 0 3.679-8.891l-.012-56.38c0-1.298-.201-2.587-.598-3.821l-30.4-95.196a12.57 12.57 0 0 0-11.975-8.748"/><path id="Vector_4" fill="#FDB60D" d="M80.121 49.281H42.766a12.567 12.567 0 0 0-12.565 12.767L30 94.984c.058 3.599 2.395 7.709 5.128 10.055l116.266 99.651a12.58 12.58 0 0 0 8.177 3.026h34.582a12.57 12.57 0 0 0 12.566-12.569v-33.524c0-3.626-1.566-7.072-4.293-9.458L88.396 52.389a12.57 12.57 0 0 0-8.275-3.108"/><path id="Vector_5" fill="#000" d="M188.438 67.563H66.563v121.875h121.875z"/><path id="Vector_6" fill="#fff" d="M130.547 165.062h-48.75v9.141h48.75zm-48.714-82.29h19.628q4.799 0 8.459 1.765 3.655 1.763 5.633 4.966c1.316 2.133 1.975 4.6 1.975 7.41s-.671 5.332-2.011 7.495c-1.335 2.17-3.242 3.845-5.713 5.031q-3.706 1.78-8.605 1.779h-10.45v17.276h-8.916zm22.974 20.201q1.681-.832 2.596-2.382.914-1.554.914-3.611c0-1.371-.305-2.596-.914-3.608a6.13 6.13 0 0 0-2.596-2.352q-1.68-.831-3.937-.831H90.746v13.619h10.124q2.256-.001 3.937-.835m-8.017 5.372h9.732l11.99 20.155h-10.223l-11.495-20.152zm63.65 2.678v5.814l-37.166.064v-5.814zm3.266-16.657v5.88l-37.166.061V94.43zm-26.681-11.594h6.502l-9.799 45.722h-6.502zm16.23 0h6.499l-9.795 45.722h-6.499z"/></g></g><defs><linearGradient id="paint0_linear_8_380" x1="43.178" x2="221.712" y1="213.608" y2="35.074" gradientUnits="userSpaceOnUse"><stop offset=".29" stop-color="#FF45ED"/><stop offset=".7" stop-color="#FF0A67"/></linearGradient><linearGradient id="paint1_linear_8_380" x1="28.809" x2="104.322" y1="54.373" y2="217.24" gradientUnits="userSpaceOnUse"><stop offset=".3" stop-color="#FDB60D"/><stop offset=".54" stop-color="#FF45ED"/></linearGradient><clipPath id="clip0_8_380"><path fill="#fff" d="M0 0h256v256H0z"/></clipPath></defs></svg>