<svg xmlns="http://www.w3.org/2000/svg" width="256" height="256" fill="none"><rect width="256" height="256" fill="#F25700" rx="60"/><path fill="#fff" d="M128 151.703c-13.162 0-23.478-10.693-23.478-23.525s10.672-23.525 23.478-23.525c13.162 0 23.478 10.694 23.478 23.525 0 12.832-10.316 23.525-23.478 23.525m0-37.069c-7.47 0-13.162 6.059-13.162 13.188 0 7.128 6.047 13.188 13.162 13.188 7.47 0 13.162-6.06 13.162-13.188S135.47 114.634 128 114.634" opacity=".8"/><path fill="#fff" d="M128 173.802c-25.257 0-45.89-20.673-45.89-45.624 0-24.95 20.633-45.624 45.89-45.624s45.889 20.674 45.889 45.624-20.632 45.624-45.889 45.624m0-81.267c-19.565 0-35.573 16.039-35.573 35.287s16.008 35.287 35.573 35.287 35.573-16.04 35.573-35.287c0-19.248-16.008-35.287-35.573-35.287" opacity=".6"/><path fill="#fff" d="M128 195.901c-37.352 0-67.945-30.297-67.945-67.723 0-37.425 30.593-67.723 67.945-67.723s67.945 30.298 67.945 67.723c0 37.426-30.593 67.723-67.945 67.723m0-125.465c-31.66 0-57.628 25.663-57.628 57.386S96.34 185.208 128 185.208s57.628-25.663 57.628-57.386S159.66 70.436 128 70.436" opacity=".4"/><path fill="#fff" d="M128 218c-49.802 0-90-40.277-90-89.822C38 78.634 78.553 38 128 38c49.802 0 90 40.277 90 89.822C218 177.366 177.802 218 128 218m0-169.663c-43.755 0-79.684 35.643-79.684 79.485S83.89 207.307 128 207.307c44.111.356 79.684-35.287 79.684-79.485S172.111 48.337 128 48.337" opacity=".2"/></svg>