<svg xmlns="http://www.w3.org/2000/svg" width="256" height="256" fill="none"><path fill="#282828" d="M196 0H60C26.863 0 0 26.863 0 60v136c0 33.137 26.863 60 60 60h136c33.137 0 60-26.863 60-60V60c0-33.137-26.863-60-60-60"/><path fill="#000" d="M216.4 111.2V104a14.35 14.35 0 0 0-4.201-10.199A14.35 14.35 0 0 0 202 89.6H53.2A14.345 14.345 0 0 0 38.8 104v7.2a12.2 12.2 0 0 0-5.6 9.6V140a11.1 11.1 0 0 0 5.6 9.6v7.2a14.34 14.34 0 0 0 8.88 13.319 14.4 14.4 0 0 0 5.52 1.081h149.6a14.35 14.35 0 0 0 13.319-8.881 14.4 14.4 0 0 0 1.081-5.519v-7.2a12.2 12.2 0 0 0 5.6-9.6v-19.2a13.94 13.94 0 0 0-6.4-9.6M127.6 16a79.4 79.4 0 0 0-78.4 68.8H206A79.396 79.396 0 0 0 127.6 16m-23.2 176h46.4l4.8 5.6 7.2-5.6-7.2-8.8h-56l-7.2 8.8 7.2 5.6z"/><path fill="#EC1C24" d="M188.4 140.8H66.8a10.402 10.402 0 0 1-7.354-17.754A10.4 10.4 0 0 1 66.8 120h122.4a10.6 10.6 0 0 1 7.299 3.101 10.6 10.6 0 0 1 3.101 7.299 11.95 11.95 0 0 1-11.2 10.4"/><path fill="#000" d="M184.4 176v30.4a15.737 15.737 0 0 1-15.2 15.2h-8a6.9 6.9 0 0 1-4.8-2.4l-9.6-12.8a4.8 4.8 0 0 0-2.033-1.933A4.8 4.8 0 0 0 142 204h-28.8a6.1 6.1 0 0 0-4 1.6l-10.4 12.8a4.8 4.8 0 0 1-2.033 1.933A4.8 4.8 0 0 1 94 220.8h-8a15.737 15.737 0 0 1-15.2-15.2V176H52.4v30.4A33.8 33.8 0 0 0 86 240h83.2a33.8 33.8 0 0 0 33.6-33.6V176z"/></svg>