<svg xmlns="http://www.w3.org/2000/svg" width="256" height="256"><defs><linearGradient id="linearGradient-rogjtz_q3g-1" x1="67.622%" x2="37.049%" y1="100.611%" y2="13.595%"><stop offset="17%" stop-color="#FF1F51"/><stop offset="28%" stop-color="#FF3648"/><stop offset="47%" stop-color="#FF593B"/><stop offset="65%" stop-color="#FF7231"/><stop offset="81%" stop-color="#FF812B"/><stop offset="94%" stop-color="#FF8629"/></linearGradient><linearGradient id="linearGradient-rogjtz_q3g-2" x1="61.538%" x2="43.606%" y1="22.851%" y2="91.769%"><stop offset="2%" stop-color="#9039D0"/><stop offset="63%" stop-color="#FF1F51"/></linearGradient><linearGradient id="linearGradient-rogjtz_q3g-3" x1=".571%" x2="81.772%" y1="8.066%" y2="97.528%"><stop offset="11%" stop-color="#9039D0"/><stop offset="39%" stop-color="#FF1F51"/><stop offset="63%" stop-color="#FF1F51"/><stop offset="66%" stop-color="#FF3648"/><stop offset="71%" stop-color="#FF593B"/><stop offset="77%" stop-color="#FF7231"/><stop offset="81%" stop-color="#FF812B"/><stop offset="85%" stop-color="#FF8629"/></linearGradient></defs><g id="Page-1" fill="none" fill-rule="evenodd" stroke="none" stroke-width="1"><g id="RubyMine-Dark" fill-rule="nonzero"><path id="Path" fill="#282828" d="M196 0H60C26.863 0 0 26.863 0 60v136c0 33.137 26.863 60 60 60h136c33.137 0 60-26.863 60-60V60c0-33.137-26.863-60-60-60"/><path id="Path" fill="url(#linearGradient-rogjtz_q3g-1)" d="m186.138 38-49.492 18.07L97.061 38l-38.425 97.317 44.252-18.056-.587 49.526 94.903 1.748L215.83 72.38z"/><path id="Path" fill="url(#linearGradient-rogjtz_q3g-2)" d="m168.085 94.533-62.878-41.386-50.65 31.47 111.208 43.134z"/><path id="Path" fill="url(#linearGradient-rogjtz_q3g-3)" d="m113.94 208.172 65.211-8.741-20.959-40.211 13.973-16.322 1.16-10.49-68.118-79.26L41.17 68.881v92.086l36.679 51.862z"/><path id="Path" fill="#000" d="M70.275 67.134h116.436v116.549H70.275z"/><path id="Shape" fill="#FFF" d="M127.34 78.798h11.64l12.226 22.14 12.813-22.14h11.052v52.45h-10.48V96.854l-13.385 22.728-13.386-22.14v33.804h-10.48zm-45.411 0h21.532q8.733 0 13.973 5.245c2.906 2.91 4.093 6.993 4.093 12.293a20.13 20.13 0 0 1-2.906 10.49 12.87 12.87 0 0 1-7.573 5.832l11.64 18.644h-12.282l-9.852-16.377h-8.733v16.322h-10.48V78.798zm20.959 25.637a8.7 8.7 0 0 0 5.826-1.748 7.4 7.4 0 0 0 2.334-5.245 7.49 7.49 0 0 0-2.334-5.832 8.7 8.7 0 0 0-5.826-1.707h-10.48v15.12h10.48zm-20.96 60.03h43.666v6.993H81.929z"/></g></g></svg>