<svg xmlns="http://www.w3.org/2000/svg" fill="none" viewBox="0 0 256 256"><g id="RustRover" clip-path="url(#clip0_7_9)"><path id="Vector" fill="#F4F2ED" d="M196 0H60C26.863 0 0 26.863 0 60v136c0 33.137 26.863 60 60 60h136c33.137 0 60-26.863 60-60V60c0-33.137-26.863-60-60-60"/><g id="Group 17"><g id="Clip path group"><mask id="mask0_7_9" width="195" height="195" x="30" y="30" maskUnits="userSpaceOnUse" style="mask-type:luminance"><g id="v"><path id="Vector_2" fill="#fff" d="M30 30h195v195H30z"/></g></mask><g mask="url(#mask0_7_9)"><g id="Group"><path id="Vector_3" fill="url(#paint0_linear_7_9)" d="m164.553 30 55.938 40.017-57.461 75.037-54.765-63.345z"/><path id="Vector_4" fill="url(#paint1_linear_7_9)" d="m164.553 30 55.938 40.017-72.398 33.508-39.828-21.816z"/><path id="Vector_5" fill="url(#paint2_linear_7_9)" d="m164.553 30-16.46 73.525-39.828-21.816z"/><path id="Vector_6" fill="url(#paint3_linear_7_9)" d="m225 149.844-76.507-46.89-96.79 68.267 22.874 44.007z"/><path id="Vector_7" fill="url(#paint4_linear_7_9)" d="m225 149.843-44.45-27.046-53.182 13.766L75.211 225z"/><path id="Vector_8" fill="url(#paint5_linear_7_9)" d="M179.955 122.952 225 149.842l-65.958.881z"/><path id="Vector_9" fill="url(#paint6_linear_7_9)" d="m136.892 133.676-40.807 81.159 62.958-64.111z"/><path id="Vector_10" fill="url(#paint7_linear_7_9)" d="m72.129 31.388 103.096 25.494L75.211 225 30 152.15z"/><path id="Vector_11" fill="url(#paint8_linear_7_9)" d="m175.225 56.882-43.556 28.944-56.505 137.688 2-1.794 18.92-6.885z"/><path id="Vector_12" fill="url(#paint9_linear_7_9)" d="m72.129 31.388 71.623 17.735-26.81 24.418z"/><path id="Vector_13" fill="url(#paint10_linear_7_9)" d="m175.225 56.881-31.517-7.793.044.034-26.81 24.418 13.163 13.072z"/><path id="Vector_14" fill="url(#paint11_linear_7_9)" d="M75.164 223.513 30 152.15l86.943-78.61 13.163 13.072z"/><path id="Vector_15" fill="url(#paint12_linear_7_9)" d="M75.164 223.513 30 152.15l86.943-78.61 13.163 13.072z"/><path id="Vector_16" fill="url(#paint13_linear_7_9)" d="M75.164 223.513 30 152.15l86.943-78.61 13.163 13.072z"/><path id="Vector_17" fill="url(#paint14_linear_7_9)" d="M72.129 31.388 30 152.15l86.942-78.609z"/><path id="Vector_18" fill="url(#paint15_linear_7_9)" d="m136.993 133.544 43.335-11.08-28.947-17.863z"/></g></g></g><path id="Vector_19" fill="url(#paint16_linear_7_9)" d="M188.017 66.983H66.983v121.034h121.034z"/><g id="Clip path group_2"><mask id="mask1_7_9" width="123" height="123" x="66" y="66" maskUnits="userSpaceOnUse" style="mask-type:luminance"><g id="w"><path id="Vector_20" fill="#fff" d="M66.983 66.983h121.034v121.034H66.983z"/></g></mask><g mask="url(#mask1_7_9)"><g id="Group_2" opacity=".3"><path id="Vector_21" fill="url(#paint17_linear_7_9)" d="M188.017 66.983h-62.259l-49.051 65.412 86.078 13.444 25.232-32.951z" opacity=".5"/><path id="Vector_22" fill="url(#paint18_linear_7_9)" d="m149.744 188.017 38.273-19.204v-40.311l-7.833-4.767-52.815 13.672-29.848 50.61z"/><path id="Vector_23" fill="url(#paint19_linear_7_9)" d="M169.715 66.983H66.983v121.034h30.73z"/></g></g></g><g id="Group_3" fill="#fff"><path id="Vector_24" d="M127.416 165.239H81.944v7.565h45.472z"/><path id="Vector_25" d="M82.112 81.608h21.384c5.863 0 10.519 1.724 13.623 4.656 2.586 2.587 3.966 6.208 3.966 10.692v.172c0 7.588-4.138 12.244-10.002 14.485l11.382 16.727h-12.072l-10.001-15.002h-8.105v15.002H82.112zm20.694 22.762c5.001 0 7.933-2.586 7.933-6.552v-.173c0-4.483-3.104-6.725-8.106-6.725H92.459v13.45z"/><path id="Vector_26" d="M129.181 81.608h21.384c5.862 0 10.519 1.724 13.623 4.656 2.586 2.587 3.966 6.208 3.966 10.692v.172c0 7.588-4.138 12.244-10.002 14.485l11.382 16.727h-12.072l-10.001-15.002h-8.105v15.002h-10.175zm20.694 22.762c5.001 0 7.932-2.586 7.932-6.552v-.173c0-4.483-3.104-6.725-8.105-6.725h-10.174v13.45z"/></g></g></g><defs><linearGradient id="paint0_linear_7_9" x1="146.32" x2="176.605" y1="121.827" y2="44.739" gradientUnits="userSpaceOnUse"><stop offset=".049" stop-color="#219E89"/><stop offset=".279" stop-color="#21BD89"/><stop offset=".753" stop-color="#6EDD88"/><stop offset="1" stop-color="#71DE88"/></linearGradient><linearGradient id="paint1_linear_7_9" x1="171.86" x2="151.607" y1="38.939" y2="138.887" gradientUnits="userSpaceOnUse"><stop stop-color="#5EF789"/><stop offset=".163" stop-color="#21D789"/><stop offset=".505" stop-color="#0EA67B"/><stop offset=".982" stop-color="#21D789"/></linearGradient><linearGradient id="paint2_linear_7_9" x1="113.741" x2="181.61" y1="112.397" y2="19.42" gradientUnits="userSpaceOnUse"><stop offset=".39" stop-color="#5EF789"/><stop offset=".636" stop-color="#21D789"/><stop offset=".928" stop-color="#0EA67B"/></linearGradient><linearGradient id="paint3_linear_7_9" x1="196.663" x2="95.377" y1="76.727" y2="222.295" gradientUnits="userSpaceOnUse"><stop offset=".244" stop-color="#21D789"/><stop offset=".891" stop-color="#FDB60D"/></linearGradient><linearGradient id="paint4_linear_7_9" x1="229.165" x2="122.321" y1="67.06" y2="220.615" gradientUnits="userSpaceOnUse"><stop stop-color="#21D789"/><stop offset="1" stop-color="#FDB60D"/></linearGradient><linearGradient id="paint5_linear_7_9" x1="191.583" x2="192.762" y1="161.541" y2="131.261" gradientUnits="userSpaceOnUse"><stop offset=".065" stop-color="#037F5C"/><stop offset=".898" stop-color="#038E5C" stop-opacity="0"/></linearGradient><linearGradient id="paint6_linear_7_9" x1="170.362" x2="63.792" y1="132.731" y2="214.873" gradientUnits="userSpaceOnUse"><stop stop-color="#21BD89"/><stop offset=".733" stop-color="#FDB60D"/></linearGradient><linearGradient id="paint7_linear_7_9" x1="122.491" x2="73.512" y1="41.605" y2="196.614" gradientUnits="userSpaceOnUse"><stop stop-color="#FE2857"/><stop offset="1" stop-color="#FDB60D"/></linearGradient><linearGradient id="paint8_linear_7_9" x1="173.951" x2="80.469" y1="32.453" y2="215.882" gradientUnits="userSpaceOnUse"><stop offset=".121" stop-color="#FD7430"/><stop offset=".254" stop-color="#FDB60D"/><stop offset=".535" stop-color="#FE2857"/><stop offset=".914" stop-color="#FDB60D"/></linearGradient><linearGradient id="paint9_linear_7_9" x1="68.237" x2="128.412" y1="64.76" y2="36.626" gradientUnits="userSpaceOnUse"><stop offset=".216" stop-color="#BE0059"/><stop offset=".884" stop-color="#FE2857" stop-opacity="0"/></linearGradient><linearGradient id="paint10_linear_7_9" x1="153.758" x2="139.093" y1="83.159" y2="48.859" gradientUnits="userSpaceOnUse"><stop offset=".46" stop-color="#FE2857"/><stop offset=".853" stop-color="#FDB60D"/><stop offset="1" stop-color="#FDFFA1"/></linearGradient><linearGradient id="paint11_linear_7_9" x1="157.716" x2="45.387" y1="49.715" y2="197.284" gradientUnits="userSpaceOnUse"><stop offset=".272" stop-color="#FE2857"/><stop offset="1" stop-color="#FDB60D"/></linearGradient><linearGradient id="paint12_linear_7_9" x1="147.38" x2="79.598" y1="205.271" y2="129.214" gradientUnits="userSpaceOnUse"><stop offset=".39" stop-color="#FDD468"/><stop offset=".975" stop-color="#FDB60D" stop-opacity="0"/></linearGradient><linearGradient id="paint13_linear_7_9" x1="99.636" x2="32.964" y1="149.931" y2="123.791" gradientUnits="userSpaceOnUse"><stop offset=".35" stop-color="#FDB60D" stop-opacity="0"/><stop offset=".985" stop-color="#FDFFA1"/></linearGradient><linearGradient id="paint14_linear_7_9" x1="96.484" x2="63.604" y1="40.014" y2="144.073" gradientUnits="userSpaceOnUse"><stop offset=".03" stop-color="#FF7F39"/><stop offset=".129" stop-color="#FE2857"/><stop offset="1" stop-color="#FDB60D"/></linearGradient><linearGradient id="paint15_linear_7_9" x1="117.947" x2="164.331" y1="152.344" y2="114.767" gradientUnits="userSpaceOnUse"><stop offset=".065" stop-color="#037F5C"/><stop offset=".898" stop-color="#038E5C" stop-opacity="0"/></linearGradient><linearGradient id="paint16_linear_7_9" x1="65.002" x2="179.124" y1="65.002" y2="179.124" gradientUnits="userSpaceOnUse"><stop offset=".028" stop-color="#5A1F3A"/><stop offset=".08" stop-color="#4E1B32"/><stop offset=".277" stop-color="#260D18"/><stop offset=".38" stop-color="#16080E"/><stop offset=".391" stop-color="#15080E"/><stop offset=".683" stop-color="#060204"/><stop offset=".914"/></linearGradient><linearGradient id="paint17_linear_7_9" x1="127.811" x2="156.289" y1="141.204" y2="61.595" gradientUnits="userSpaceOnUse"><stop offset=".049" stop-color="#219E89" stop-opacity="0"/><stop offset=".822" stop-color="#6EDD88"/><stop offset="1" stop-color="#71DE88"/></linearGradient><linearGradient id="paint18_linear_7_9" x1="148.522" x2="257.58" y1="197.837" y2="57.388" gradientUnits="userSpaceOnUse"><stop stop-color="#21D789" stop-opacity="0"/><stop offset="1" stop-color="#FDB60D"/></linearGradient><linearGradient id="paint19_linear_7_9" x1="70.208" x2="127.174" y1="39.589" y2="143.586" gradientUnits="userSpaceOnUse"><stop stop-color="#FE2857"/><stop offset="1" stop-color="#FDB60D" stop-opacity="0"/></linearGradient><clipPath id="clip0_7_9"><path fill="#fff" d="M0 0h256v256H0z"/></clipPath></defs></svg>