<svg xmlns="http://www.w3.org/2000/svg" id="S3" width="256" height="256" fill="none"><g clip-path="url(#clip0_45_3)"><path fill="#F4F2ED" d="M196 0H60C26.863 0 0 26.863 0 60v136c0 33.137 26.863 60 60 60h136c33.137 0 60-26.863 60-60V60c0-33.137-26.863-60-60-60"/><path fill="#E25444" fill-rule="evenodd" d="m213.065 67.479-43.051 61.41 43.051 61.41 17.636-7.385V74.864z" clip-rule="evenodd"/><path fill="#7B1D13" fill-rule="evenodd" d="m213.065 67.479-86.102 7.384-43.83 54.026 43.83 54.025 86.102 7.385z" clip-rule="evenodd"/><path fill="#58150D" fill-rule="evenodd" d="m39.304 67.479-14.005 4.664v113.492l14.005 4.664 87.659-61.41z" clip-rule="evenodd"/><path fill="#E25444" fill-rule="evenodd" d="m39.116 67.35 87.963 18.31v88.099l-87.963 16.583z" clip-rule="evenodd"/><path fill="#58150D" fill-rule="evenodd" d="m127.125 95.334-37.35-4.492 37.35-31.785 37.258 31.785z" clip-rule="evenodd"/><path fill="#58150D" fill-rule="evenodd" d="m164.383 90.842-37.304 4.56-37.304-4.56V59.057m37.35 102.955-37.35 5.183 37.35 27.293 37.258-27.293z" clip-rule="evenodd"/><path fill="#7B1D13" fill-rule="evenodd" d="m126.963 35.219-37.346 14.77v40.81l37.462-7.903zm.116 70.133-37.304 3.041v40.747l37.304 3.198zm0 68.752-37.304-7.009v40.058l37.304 14.628z" clip-rule="evenodd"/><path fill="#E25444" fill-rule="evenodd" d="m164.383 167.095-37.304 7.011v47.675l37.304-14.628zm-37.304-61.743 37.304 3.041v40.747l-37.304 3.198zm-.116-70.133 37.345 14.77v40.81l-37.345-7.774z" clip-rule="evenodd"/></g><defs><clipPath id="clip0_45_3"><path fill="#fff" d="M0 0h256v256H0z"/></clipPath></defs></svg>