<svg xmlns="http://www.w3.org/2000/svg" fill="none" viewBox="0 0 256 256"><path fill="#282828" d="M196 0H60C26.863 0 0 26.863 0 60v136c0 33.137 26.863 60 60 60h136c33.137 0 60-26.863 60-60V60c0-33.137-26.863-60-60-60"/><g clip-path="url(#clip0_80_25)"><g filter="url(#filter0_f_80_25)" opacity=".53"><path fill="#000" d="M207.317 130.765a74.4 74.4 0 0 1-6.076 29.404c-4.011 9.322-9.89 17.792-17.301 24.927s-16.21 12.795-25.893 16.656a82.5 82.5 0 0 1-30.543 5.849 82.5 82.5 0 0 1-30.543-5.849c-9.683-3.861-18.482-9.521-25.893-16.656s-13.29-15.605-17.301-24.927a74.4 74.4 0 0 1-6.076-29.404c0-20.378 8.41-39.922 23.377-54.331 14.968-14.41 35.268-22.505 56.436-22.505a82.5 82.5 0 0 1 30.543 5.849c9.683 3.861 18.482 9.52 25.893 16.656s13.29 15.605 17.301 24.927a74.4 74.4 0 0 1 6.076 29.404"/></g><path fill="url(#paint0_linear_80_25)" stroke="#CDCDCD" stroke-linecap="round" stroke-linejoin="round" stroke-width=".352" d="M210.351 123.98a82.83 82.83 0 0 1-51.145 76.526 82.86 82.86 0 0 1-90.29-17.955 82.82 82.82 0 0 1 0-117.141 82.862 82.862 0 0 1 135.128 26.872 82.8 82.8 0 0 1 6.307 31.698"/><path fill="url(#paint1_radial_80_25)" d="M203.859 123.98a76.33 76.33 0 0 1-22.365 53.981 76.37 76.37 0 0 1-107.988 0 76.33 76.33 0 0 1 0-107.962 76.37 76.37 0 0 1 107.988 0 76.33 76.33 0 0 1 22.365 53.981"/><path fill="#F4F2F3" d="M127.5 51.621a1.11 1.11 0 0 0-1.113 1.113v12.838a1.11 1.11 0 0 0 1.113 1.113 1.11 1.11 0 0 0 1.113-1.113V52.734a1.11 1.11 0 0 0-1.113-1.113m-7.283.46a1.11 1.11 0 0 0-1.218 1.224l.561 5.37a1.11 1.11 0 0 0 1.223.992 1.11 1.11 0 0 0 .992-1.222l-.561-5.371a1.11 1.11 0 0 0-.997-.993m14.617.006a1.11 1.11 0 0 0-.997.991l-.565 5.371a1.11 1.11 0 0 0 .991 1.224 1.11 1.11 0 0 0 1.223-.991l.565-5.371a1.11 1.11 0 0 0-1.217-1.224m-22.099 1.079q-.111 0-.224.024a1.11 1.11 0 0 0-.859 1.32l2.659 12.559c.128.603.717.986 1.32.858a1.11 1.11 0 0 0 .859-1.319l-2.66-12.56a1.11 1.11 0 0 0-1.095-.882m29.58.01a1.11 1.11 0 0 0-1.095.883l-2.669 12.558a1.11 1.11 0 0 0 .858 1.32 1.11 1.11 0 0 0 1.32-.858l2.669-12.558a1.11 1.11 0 0 0-1.083-1.345m-36.72 2.003a1.1 1.1 0 0 0-.439.051 1.11 1.11 0 0 0-.715 1.402l1.669 5.136c.191.587.816.905 1.403.715a1.11 1.11 0 0 0 .714-1.403l-1.669-5.136a1.11 1.11 0 0 0-.963-.765m43.82.002a1.11 1.11 0 0 0-.963.766l-1.67 5.136a1.11 1.11 0 0 0 .714 1.402 1.11 1.11 0 0 0 1.403-.714l1.67-5.136a1.11 1.11 0 0 0-1.154-1.454m-50.88 2.58a1.11 1.11 0 0 0-.997 1.566l5.215 11.732a1.11 1.11 0 0 0 1.47.565 1.11 1.11 0 0 0 .565-1.469l-5.216-11.731a1.11 1.11 0 0 0-1.037-.662m58.02.04a1.11 1.11 0 0 0-1.038.66l-5.232 11.725a1.11 1.11 0 0 0 .563 1.47c.564.251 1.219 0 1.471-.563l5.231-11.724a1.11 1.11 0 0 0-.995-1.568M91.981 61.23a1.1 1.1 0 0 0-.634.147 1.11 1.11 0 0 0-.408 1.52l2.701 4.677a1.11 1.11 0 0 0 1.52.408 1.11 1.11 0 0 0 .408-1.52l-2.7-4.678a1.11 1.11 0 0 0-.887-.554m71.038 0a1.11 1.11 0 0 0-.886.554l-2.701 4.677a1.11 1.11 0 0 0 .408 1.52 1.11 1.11 0 0 0 1.52-.407l2.701-4.677a1.114 1.114 0 0 0-1.042-1.668m-77.402 3.968a1.115 1.115 0 0 0-.863 1.767l7.54 10.391c.362.5 1.056.61 1.555.248.5-.362.61-1.055.248-1.555l-7.541-10.391a1.11 1.11 0 0 0-.939-.46m83.846.056a1.11 1.11 0 0 0-.94.459l-7.554 10.381a1.11 1.11 0 0 0 .245 1.555 1.11 1.11 0 0 0 1.556-.245l7.554-10.381a1.11 1.11 0 0 0-.246-1.555 1.1 1.1 0 0 0-.615-.214m-89.534 4.713a1.1 1.1 0 0 0-.804.286 1.11 1.11 0 0 0-.082 1.571l3.614 4.014a1.11 1.11 0 0 0 1.572.083 1.11 1.11 0 0 0 .083-1.573l-3.614-4.013a1.1 1.1 0 0 0-.77-.368m95.15.008a1.12 1.12 0 0 0-.769.368l-3.614 4.013a1.11 1.11 0 0 0 .082 1.572 1.11 1.11 0 0 0 1.572-.082l3.615-4.013a1.11 1.11 0 0 0-.082-1.572c-.23-.207-.519-.3-.804-.286M74.477 75.202a1.113 1.113 0 0 0-.687 1.94l9.544 8.589a1.11 1.11 0 0 0 1.572-.082 1.11 1.11 0 0 0-.082-1.572l-9.544-8.59a1.1 1.1 0 0 0-.803-.285m106.081.038a1.1 1.1 0 0 0-.804.284l-9.549 8.583a1.112 1.112 0 1 0 1.488 1.655l9.55-8.582a1.113 1.113 0 0 0-.685-1.94M69.943 81.03a1.11 1.11 0 0 0-.94.46 1.11 1.11 0 0 0 .247 1.554l4.37 3.174a1.11 1.11 0 0 0 1.555-.246 1.11 1.11 0 0 0-.246-1.555l-4.37-3.174a1.1 1.1 0 0 0-.616-.213m115.144.04a1.1 1.1 0 0 0-.616.213l-4.371 3.171a1.11 1.11 0 0 0-.248 1.555c.362.5 1.056.61 1.555.247l4.372-3.171a1.11 1.11 0 0 0 .247-1.554 1.11 1.11 0 0 0-.939-.46M65.706 87.248a1.1 1.1 0 0 0-.886.555 1.11 1.11 0 0 0 .407 1.52l11.121 6.42a1.11 1.11 0 0 0 1.52-.408 1.11 1.11 0 0 0-.407-1.52l-11.12-6.42a1.1 1.1 0 0 0-.635-.147m123.588 0a1.1 1.1 0 0 0-.635.148l-11.12 6.419a1.11 1.11 0 0 0-.408 1.52c.309.534.987.716 1.521.408l11.121-6.42a1.11 1.11 0 0 0 .407-1.52 1.11 1.11 0 0 0-.886-.555M62.503 93.874c-.434-.01-.85.238-1.039.66a1.11 1.11 0 0 0 .564 1.47l4.933 2.2a1.11 1.11 0 0 0 1.47-.563 1.11 1.11 0 0 0-.563-1.47l-4.933-2.2a1.1 1.1 0 0 0-.432-.097m130.016.046a1.1 1.1 0 0 0-.432.097l-4.935 2.196a1.113 1.113 0 1 0 .906 2.034l4.934-2.197a1.11 1.11 0 0 0 .564-1.47 1.11 1.11 0 0 0-1.037-.66M59.648 100.8a1.11 1.11 0 0 0-.964.765 1.11 1.11 0 0 0 .714 1.403l12.21 3.977a1.11 1.11 0 0 0 1.403-.713 1.11 1.11 0 0 0-.714-1.403l-12.21-3.978a1.1 1.1 0 0 0-.44-.051m135.721.047a1.1 1.1 0 0 0-.44.052l-12.212 3.969a1.11 1.11 0 0 0-.715 1.402 1.11 1.11 0 0 0 1.403.714l12.212-3.968a1.11 1.11 0 0 0 .715-1.403 1.11 1.11 0 0 0-.963-.766m-137.5 7.223a1.11 1.11 0 0 0-1.096.883 1.11 1.11 0 0 0 .858 1.32l5.283 1.122a1.11 1.11 0 0 0 1.32-.857 1.11 1.11 0 0 0-.857-1.32l-5.283-1.123a1 1 0 0 0-.225-.025m139.265.011q-.112.001-.225.024l-5.284 1.122a1.11 1.11 0 0 0-.857 1.319c.128.603.717.986 1.32.858l5.283-1.122a1.111 1.111 0 0 0-.237-2.201m-140.611 7.302a1.11 1.11 0 0 0-.998.991 1.11 1.11 0 0 0 .99 1.224l12.77 1.35a1.11 1.11 0 0 0 1.224-.99 1.11 1.11 0 0 0-.99-1.224l-12.77-1.35a1 1 0 0 0-.226-.001m141.966.096a1 1 0 0 0-.226.001l-12.772 1.333a1.11 1.11 0 0 0-.991 1.222 1.11 1.11 0 0 0 1.222.992l12.772-1.333a1.11 1.11 0 0 0 .992-1.222 1.11 1.11 0 0 0-.997-.993m-142.183 7.39c-.616 0-1.113.497-1.113 1.113a1.11 1.11 0 0 0 1.113 1.113h5.402a1.11 1.11 0 0 0 1.114-1.113c0-.616-.497-1.113-1.114-1.113zm136.986 0a1.11 1.11 0 0 0-1.113 1.113 1.11 1.11 0 0 0 1.113 1.113h5.402a1.11 1.11 0 0 0 1.113-1.113c0-.616-.497-1.113-1.113-1.113zm-123.788 6.068a1 1 0 0 0-.226.001l-12.772 1.332a1.11 1.11 0 0 0-.992 1.223 1.11 1.11 0 0 0 1.223.991l12.772-1.332a1.11 1.11 0 0 0 .992-1.223 1.11 1.11 0 0 0-.997-.992m115.986.078a1.11 1.11 0 0 0-.998.991 1.11 1.11 0 0 0 .989 1.224l12.771 1.35a1.11 1.11 0 0 0 1.224-.99 1.11 1.11 0 0 0-.99-1.224l-12.77-1.35a1 1 0 0 0-.226-.001m-122.353 7.52q-.112 0-.224.023l-5.284 1.122a1.11 1.11 0 0 0-.858 1.32 1.11 1.11 0 0 0 1.32.858l5.284-1.122a1.11 1.11 0 0 0 .858-1.32 1.11 1.11 0 0 0-1.096-.881m128.724.01a1.11 1.11 0 0 0-1.095.882 1.11 1.11 0 0 0 .857 1.32l5.284 1.123a1.11 1.11 0 0 0 1.32-.857 1.11 1.11 0 0 0-.858-1.321l-5.283-1.122a1 1 0 0 0-.225-.025m-119.826 4.384a1.1 1.1 0 0 0-.44.051l-12.212 3.969a1.11 1.11 0 0 0-.715 1.403c.191.586.817.904 1.403.714l12.212-3.969a1.112 1.112 0 0 0-.248-2.168m110.918.039a1.11 1.11 0 0 0-.963.765 1.11 1.11 0 0 0 .713 1.403l12.21 3.978a1.11 1.11 0 0 0 1.403-.714 1.11 1.11 0 0 0-.713-1.403l-12.21-3.977a1.1 1.1 0 0 0-.44-.052m-115.578 8.654a1.1 1.1 0 0 0-.432.096l-4.935 2.197a1.11 1.11 0 0 0-.564 1.469 1.11 1.11 0 0 0 1.47.564l4.935-2.196a1.11 1.11 0 0 0 .563-1.47 1.11 1.11 0 0 0-1.037-.66m120.233.042a1.11 1.11 0 0 0-1.039.66 1.11 1.11 0 0 0 .563 1.47l4.933 2.2c.564.251 1.219 0 1.471-.563a1.11 1.11 0 0 0-.563-1.47l-4.934-2.2a1.1 1.1 0 0 0-.431-.097m-110.625 2.412a1.1 1.1 0 0 0-.635.147l-11.12 6.419a1.11 1.11 0 0 0-.408 1.521 1.11 1.11 0 0 0 1.52.407l11.121-6.419a1.11 1.11 0 0 0 .408-1.52 1.11 1.11 0 0 0-.886-.555m101.035 0a1.11 1.11 0 0 0-.887.555 1.11 1.11 0 0 0 .408 1.52l11.12 6.419a1.11 1.11 0 0 0 1.521-.407 1.11 1.11 0 0 0-.407-1.521l-11.121-6.419a1.1 1.1 0 0 0-.634-.147m-103.809 9.42a1.1 1.1 0 0 0-.616.212l-4.372 3.172a1.11 1.11 0 0 0-.247 1.554 1.11 1.11 0 0 0 1.554.248l4.373-3.172c.5-.362.61-1.055.247-1.554a1.11 1.11 0 0 0-.939-.46m106.556.037a1.113 1.113 0 0 0-.693 2.014l4.37 3.175a1.11 1.11 0 0 0 1.555-.247 1.11 1.11 0 0 0-.246-1.554l-4.37-3.175a1.1 1.1 0 0 0-.616-.213m-96.654.384a1.1 1.1 0 0 0-.804.285l-9.55 8.583a1.11 1.11 0 0 0-.083 1.572 1.11 1.11 0 0 0 1.572.083l9.55-8.582a1.115 1.115 0 0 0-.685-1.941m86.752.031a1.115 1.115 0 0 0-.687 1.94l9.544 8.589a1.11 1.11 0 0 0 1.572-.082 1.11 1.11 0 0 0-.082-1.572l-9.544-8.589a1.1 1.1 0 0 0-.803-.286m-77.692 8.154a1.11 1.11 0 0 0-.94.458l-7.554 10.382a1.11 1.11 0 0 0 .245 1.555 1.11 1.11 0 0 0 1.555-.246l7.554-10.381a1.11 1.11 0 0 0-.86-1.768m68.596.046a1.1 1.1 0 0 0-.616.213 1.11 1.11 0 0 0-.247 1.554l7.54 10.392a1.11 1.11 0 0 0 1.555.247 1.11 1.11 0 0 0 .247-1.554l-7.54-10.392a1.11 1.11 0 0 0-.939-.46m-78.348 1.604a1.12 1.12 0 0 0-.77.368l-3.614 4.013a1.11 1.11 0 0 0 .083 1.572 1.11 1.11 0 0 0 1.572-.083l3.615-4.013a1.11 1.11 0 0 0-.083-1.572 1.1 1.1 0 0 0-.803-.285m88.155.005a1.1 1.1 0 0 0-.802.285 1.11 1.11 0 0 0-.083 1.572l3.613 4.014a1.113 1.113 0 1 0 1.655-1.49l-3.614-4.013a1.1 1.1 0 0 0-.769-.368m-67.854 4.452c-.434-.01-.85.238-1.038.66l-5.232 11.724a1.11 1.11 0 0 0 .563 1.47 1.11 1.11 0 0 0 1.47-.563l5.232-11.724a1.11 1.11 0 0 0-.995-1.567m47.49.032a1.115 1.115 0 0 0-.998 1.566l5.216 11.731c.25.563.906.816 1.47.565a1.11 1.11 0 0 0 .565-1.469l-5.216-11.731a1.11 1.11 0 0 0-1.037-.662m-56.684 3.593a1.11 1.11 0 0 0-.886.555l-2.7 4.677a1.11 1.11 0 0 0 .407 1.52 1.11 1.11 0 0 0 1.52-.407l2.701-4.677a1.111 1.111 0 0 0-1.042-1.668m65.948 0a1.1 1.1 0 0 0-.634.148 1.11 1.11 0 0 0-.408 1.52l2.701 4.677c.308.534.987.715 1.521.407a1.11 1.11 0 0 0 .407-1.52l-2.701-4.677a1.11 1.11 0 0 0-.886-.555m-45.107.168a1.11 1.11 0 0 0-1.096.882l-2.668 12.558a1.11 1.11 0 0 0 .857 1.32 1.11 1.11 0 0 0 1.321-.858l2.668-12.558a1.11 1.11 0 0 0-1.082-1.344m24.227.008q-.111 0-.225.023a1.11 1.11 0 0 0-.858 1.319l2.659 12.56c.128.604.717.987 1.32.859s.986-.716.859-1.32l-2.66-12.559a1.11 1.11 0 0 0-1.095-.882m-12.094 1.266a1.11 1.11 0 0 0-1.113 1.113v12.838a1.11 1.11 0 0 0 1.113 1.113 1.11 1.11 0 0 0 1.113-1.113v-12.838a1.11 1.11 0 0 0-1.113-1.113m-20.436 4.149a1.11 1.11 0 0 0-.963.765l-1.67 5.136c-.19.587.128 1.212.715 1.403a1.11 1.11 0 0 0 1.403-.715l1.669-5.135a1.11 1.11 0 0 0-1.154-1.454m40.863.002a1.113 1.113 0 0 0-1.155 1.454l1.67 5.136c.19.587.816.905 1.403.714a1.11 1.11 0 0 0 .715-1.402l-1.67-5.136a1.11 1.11 0 0 0-.963-.766m-27.415 2.861c-.516.05-.942.455-.998.991l-.565 5.371a1.11 1.11 0 0 0 .991 1.223 1.11 1.11 0 0 0 1.224-.99l.564-5.371a1.11 1.11 0 0 0-1.216-1.224m13.931.005a1.11 1.11 0 0 0-1.218 1.224l.561 5.371c.064.613.61 1.055 1.223.991a1.11 1.11 0 0 0 .992-1.223l-.561-5.37a1.11 1.11 0 0 0-.997-.993"/><g filter="url(#filter1_f_80_25)" opacity=".409"><path fill="#000" d="m179.677 79.46-60.909 35.38-38.511 60.613 56.338-41.72z"/></g><path fill="#FF5150" d="m136.229 133.12-17.458-18.279 61.932-41.652z"/><path fill="#F1F1F1" d="m136.229 133.12-17.458-18.279-44.474 59.93z"/><path fill="#000" d="m74.297 174.771 61.932-41.651 44.474-59.931z" opacity=".243"/></g><defs><filter id="filter0_f_80_25" width="177.532" height="171.579" x="38.738" y="44.975" color-interpolation-filters="sRGB" filterUnits="userSpaceOnUse"><feFlood flood-opacity="0" result="BackgroundImageFix"/><feBlend in="SourceGraphic" in2="BackgroundImageFix" result="shape"/><feGaussianBlur result="effect1_foregroundBlur_80_25" stdDeviation="4.477"/></filter><filter id="filter1_f_80_25" width="104.51" height="101.082" x="77.712" y="76.915" color-interpolation-filters="sRGB" filterUnits="userSpaceOnUse"><feFlood flood-opacity="0" result="BackgroundImageFix"/><feBlend in="SourceGraphic" in2="BackgroundImageFix" result="shape"/><feGaussianBlur result="effect1_foregroundBlur_80_25" stdDeviation="1.272"/></filter><radialGradient id="paint1_radial_80_25" cx="0" cy="0" r="1" gradientTransform="matrix(82.8507 0 0 82.8305 127.844 112.849)" gradientUnits="userSpaceOnUse"><stop stop-color="#06C2E7"/><stop offset=".25" stop-color="#0DB8EC"/><stop offset=".5" stop-color="#12AEF1"/><stop offset=".75" stop-color="#1F86F9"/><stop offset="1" stop-color="#107DDD"/></radialGradient><linearGradient id="paint0_linear_80_25" x1="127.497" x2="127.497" y1="206.809" y2="41.149" gradientUnits="userSpaceOnUse"><stop stop-color="#BDBDBD"/><stop offset="1" stop-color="#fff"/></linearGradient><clipPath id="clip0_80_25"><path fill="#fff" d="M40 41h175v174H40z"/></clipPath></defs></svg>