<svg xmlns="http://www.w3.org/2000/svg" width="256" height="256" fill="none"><rect width="256" height="256" fill="#1D5873" rx="60"/><path fill="#fff" d="M128 152.375A24.326 24.326 0 0 1 103.625 128 24.326 24.326 0 0 1 128 103.625 24.326 24.326 0 0 1 152.375 128 24.326 24.326 0 0 1 128 152.375m-56.25 7.875v-64.5l24-24h24.75V38H95.375C87.5 38 79.625 41 74 46.625l-27.375 27.75C41 80 38 87.5 38 95.375v6.375h11.25v15H38v22.5h11.25v15H38v6.375c0 7.875 3 15.75 8.625 21.375L74 209.375C79.625 215 87.125 218 95.375 218H120.5v-33.75H95.75zM218 101.75v-6.375c0-7.875-3-15.75-8.625-21.375L182 46.625C176 41 168.5 38 160.625 38H135.5v33.75h24.75l24 24v64.125l-24 24.375H135.5V218h25.125c7.875 0 15.75-3 21.375-8.625L209.375 182C215 176.375 218 168.875 218 160.625v-6.375h-11.25v-15H218v-22.5h-11.25v-15z"/></svg>