<svg xmlns="http://www.w3.org/2000/svg" fill="none" viewBox="0 0 256 256"><g clip-path="url(#clip0_164_584)"><path fill="#F4F2ED" d="M196 0H60C26.863 0 0 26.863 0 60v136c0 33.137 26.863 60 60 60h136c33.137 0 60-26.863 60-60V60c0-33.137-26.863-60-60-60"/><path stroke="#0053A0" d="m204.5 97.75 5.25-3.5m0 0V89m0 5.25h4.375"/><path fill="url(#paint0_linear_164_584)" d="M127.5 210.625c45.909 0 83.125-37.216 83.125-83.125S173.409 44.375 127.5 44.375 44.375 81.591 44.375 127.5s37.216 83.125 83.125 83.125"/><path stroke="#fff" stroke-width="7" d="M52.25 174.75c42-47.25 40.25-7 77 3.5 31.5 7 40.25-26.25 17.5-43.75-12.25-10.5-28-8.75-40.25-15.75-17.5-8.75-14-35 3.5-40.25 50.75-17.5 28 56 85.75 22.75"/><path fill="#fff" stroke="#fff" stroke-linejoin="round" stroke-width="1.5" d="m180 96 8.75 19.25 15.75-14-1.75-5.25z"/></g><defs><linearGradient id="paint0_linear_164_584" x1="-3280.63" x2="19994.4" y1="11681.9" y2="11681.9" gradientUnits="userSpaceOnUse"><stop stop-color="#0053A0"/><stop offset=".5" stop-color="#0053A0"/><stop offset=".95" stop-color="#00264A"/><stop offset="1"/></linearGradient><clipPath id="clip0_164_584"><path fill="#fff" d="M0 0h256v256H0z"/></clipPath></defs></svg>