<svg xmlns="http://www.w3.org/2000/svg" fill="none" viewBox="0 0 256 256"><path fill="#855CD6" d="M196 0H60C26.863 0 0 26.863 0 60v136c0 33.137 26.863 60 60 60h136c33.137 0 60-26.863 60-60V60c0-33.137-26.863-60-60-60"/><path fill="#fff" fill-rule="evenodd" d="M197.995 148.993c.233 19.55-8.198 38.367-23.116 51.586-11.872 10.635-26.851 16.744-42.427 17.339-7.2 5.867-15.931 9.356-25.28 9.971-.998.069-1.996.111-2.994.111-23.882 0-43.978-19.37-45.807-44.102q-.03-.428-.061-1.195a4 4 0 0 1-.046-.547c-.466-10.414-.233-19.018.066-24.496.274-5.051.446-14.139.467-16.255v-.131c.126-7.393 1.89-14.608 5.097-21.075-.912-7.236-.892-14.976.086-23.096l.127-1.263c.025-.153.025-.331.04-.484.026-.131.046-.284.066-.437.806-6.909 2.21-18.228 8.158-29.831 9.901-19.46 28.685-31.068 50.226-31.068h.912c6.779-3.926 14.405-6.02 22.244-6.02h.831c24.941.463 45.229 21.864 45.229 47.723 0 .284-.851 31.305-1.809 41.918 5.164 9.378 7.885 20.012 7.991 31.352" clip-rule="evenodd"/><path fill="#F9A83A" fill-rule="evenodd" d="M175.996 149.255c.17 12.961-5.478 25.637-15.5 34.668-8.511 7.753-19.387 12.034-30.577 12.034-1.926-.021-3.872-.132-5.778-.4a29 29 0 0 1-1.376 1.79c-4.311 5.146-10.253 8.195-16.738 8.59-.499.042-.983.063-1.482.063-12.657 0-23.303-10.464-24.246-23.799-.02-.263-.04-.532-.04-.816l-.02-.2c-.419-9.495-.21-17.311.04-22.193.314-5.65.484-15.256.504-17.331.105-6.494 2.464-12.387 6.296-16.874-1.906-6.951-2.515-15.298-1.342-25.167l.15-1.438c.02-.11.02-.221.04-.332.668-5.782 1.67-14.33 5.791-22.498C97.87 63.076 109.166 56.03 122.68 56.03c.753 0 1.546.021 2.364.068a34 34 0 0 1 4.266.532c4.39-4.176 10.227-6.762 16.628-6.625 13.221.242 23.972 11.765 23.972 25.679 0 .305-1.173 37.47-1.736 40.693a27 27 0 0 1-1.632 5.74c6.087 7.421 9.369 16.674 9.454 27.138" clip-rule="evenodd"/><path fill="#fff" fill-rule="evenodd" d="M123.099 122.554c-6.448-1.03-9.89-5.45-8.182-19.124l.201-1.65c1.436-11.883 2.641-14.526 8.222-14.216 1.631.105 3.513 1.161 5.391 2.743 1.744 2.065 5.616 4.74 7.796 10.038 1.564 3.889 2.103 6.427 2.329 9.155l.343 3.348v-.016c.462 2.291 2.175 4.173 4.545 4.582 3.052.573 5.996-1.508 6.529-4.635.072-.373 1.452-36.388 1.452-36.977 0-3.174-2.482-5.75-5.601-5.802-3.108-.016-5.632 2.575-5.632 5.739 0 .068-.015 5.04-.118 10.054-4.432-4.94-10.105-9.366-16.455-9.75-16.998-.93-18.855 15.084-19.973 24.312l-.169 1.635c-2.293 18.236 3.647 29.74 17.593 31.974 15.157 2.438 25.277 6.007 25.369 15.561.057 3.716-1.851 7.526-5.18 10.458-4.011 3.495-9.376 5.067-14.434 4.215-1.569-.247-3.042-.688-4.452-1.167-1.985-1.135-6.986-4.251-9.525-7.851-2.139-3.038-2.883-7.81-3.114-10.837.026-1.356.031-2.254.031-2.354.057-3.19-2.441-5.786-5.519-5.86-3.124-.074-5.688 2.502-5.745 5.686 0 .105-.138 11.389-.543 18.184-.58 10.947 0 20.218 0 20.622.23 3.18 2.898 5.576 6.006 5.366 3.098-.168 5.458-2.922 5.242-6.107 0-.052-.277-4.546-.241-10.752 4.124 2.696 9.54 5.318 15.988 6.443 8.412 1.445 17.014-1.046 23.584-6.832 5.884-5.156 9.253-12.203 9.161-19.335-.2-21.29-23.651-25.031-34.899-26.85" clip-rule="evenodd"/></svg>