<svg xmlns="http://www.w3.org/2000/svg" fill="none" viewBox="0 0 256 256"><path fill="#282828" d="M196 0H60C26.863 0 0 26.863 0 60v136c0 33.137 26.863 60 60 60h136c33.137 0 60-26.863 60-60V60c0-33.137-26.863-60-60-60"/><mask id="mask0_583_10" width="200" height="190" x="28" y="33" maskUnits="userSpaceOnUse" style="mask-type:luminance"><path fill="#fff" d="M228 33H28v189.83h200z"/></mask><g mask="url(#mask0_583_10)"><path fill="#fff" stroke="#fff" stroke-width="1.333" d="M128 219.441a91.53 91.53 0 0 0 64.718-26.807 91.53 91.53 0 0 0 0-129.437 91.53 91.53 0 0 0-129.436 0 91.53 91.53 0 0 0-26.807 64.719 91.53 91.53 0 0 0 26.807 64.718A91.53 91.53 0 0 0 128 219.441Z"/></g><mask id="mask1_583_10" width="178" height="178" x="39" y="39" maskUnits="userSpaceOnUse" style="mask-type:luminance"><path fill="#fff" d="M128 216.05a88.14 88.14 0 0 0 88.135-88.135A88.14 88.14 0 0 0 128 39.779a88.14 88.14 0 0 0-88.136 88.136A88.14 88.14 0 0 0 128 216.05"/></mask><g mask="url(#mask1_583_10)"><path fill="#5C7DA2" d="M9.356 150.982v100.661h237.288v-93.161l-3.39-.229-3.39-.261-3.389-.298-3.39-.339-3.39-.382-3.39-.43-3.39-.482-3.39-.536-3.389-.595-3.39-.656-3.39-.721-3.39-.788-3.39-.856-3.39-.927-3.389-.998-3.39-1.068-3.39-1.138-3.39-1.205-3.39-1.27-3.39-1.33-3.389-1.384-3.39-1.434-3.39-1.474-3.39-1.506-3.39-1.528-3.389-1.54-3.39-1.54-3.39-1.528-3.39-1.502-3.39-1.463-3.39-1.411-3.389-1.345-3.39-1.265-3.39-1.172-3.39-1.067-3.39-.951-3.39-.823-3.389-.687-3.39-.543-3.39-.392-3.39-.238-3.39-.079-3.39.079-3.39.238-3.39.392-3.39.543-3.389.687-3.39.823-3.39.951-3.39 1.067-3.39 1.172-3.39 1.265-3.389 1.345-3.39 1.411-3.39 1.463-3.39 1.502-3.39 1.528-3.39 1.54-3.389 1.54-3.39 1.528-3.39 1.506-3.39 1.474-3.39 1.434-3.39 1.384-3.389 1.33-3.39 1.27-3.39 1.205-3.39 1.138-3.39 1.068z"/></g><mask id="mask2_583_10" width="178" height="178" x="39" y="39" maskUnits="userSpaceOnUse" style="mask-type:luminance"><path fill="#fff" d="M128 216.05a88.14 88.14 0 0 0 88.135-88.135A88.14 88.14 0 0 0 128 39.779a88.14 88.14 0 0 0-88.136 88.136A88.14 88.14 0 0 0 128 216.05"/></mask><g mask="url(#mask2_583_10)"><path fill="#7DB0BC" d="M9.356 118.174v31.113l3.39-.998 3.39-1.068 3.39-1.138 3.39-1.205 3.39-1.27 3.389-1.329 3.39-1.385 3.39-1.433 3.39-1.474 3.39-1.507 3.39-1.528 3.389-1.54 3.39-1.54 3.39-1.528 3.39-1.502 3.39-1.463 3.39-1.411 3.389-1.344 3.39-1.265 3.39-1.173 3.39-1.067 3.39-.951 3.39-.823 3.389-.687 3.39-.543 3.39-.392 3.389-.237 3.39-.08 3.39.08 3.39.237 3.39.392 3.39.543 3.389.687 3.39.823 3.39.951 3.39 1.067 3.39 1.173 3.39 1.265 3.389 1.344 3.39 1.411 3.39 1.463 3.39 1.502 3.39 1.528 3.39 1.54 3.389 1.54 3.39 1.528 3.39 1.507 3.39 1.474 3.39 1.433 3.389 1.385 3.39 1.329 3.39 1.27 3.39 1.205 3.39 1.138 3.39 1.068 3.389.998 3.39.927 3.39.857 3.39.787 3.39.721 3.39.657 3.389.594 3.39.537 3.39.481 3.39.43 3.39.382 3.39.339 3.389.298 3.39.262 3.39.228v-48.549l-3.39-1.138-3.39-1.205-3.389-1.27-3.39-1.329-3.39-1.385-3.39-1.433-3.39-1.474-3.39-1.507-3.389-1.528-3.39-1.54-3.39-1.54-3.39-1.528-3.39-1.502-3.39-1.463-3.389-1.41-3.39-1.346-3.39-1.264-3.39-1.173-3.39-1.067-3.39-.95-3.389-.824-3.39-.687-3.39-.543-3.39-.392-3.39-.237-3.389-.08-3.39.08-3.39.237-3.39.392-3.39.543-3.39.687-3.389.823-3.39.95-3.39 1.068-3.39 1.172-3.39 1.266-3.39 1.344-3.389 1.411-3.39 1.463-3.39 1.502-3.39 1.528-3.39 1.54-3.39 1.54-3.39 1.528-3.39 1.507-3.39 1.474-3.389 1.433-3.39 1.385-3.39 1.329-3.39 1.27-3.39 1.205-3.39 1.138-3.389 1.068-3.39.998-3.39.927-3.39.857-3.39.787-3.39.721-3.389.657-3.39.594-3.39.537-3.39.481-3.39.43-3.39.382-3.389.339-3.39.298-3.39.262-3.39.228-3.39.198z"/></g><mask id="mask3_583_10" width="200" height="190" x="28" y="33" maskUnits="userSpaceOnUse" style="mask-type:luminance"><path fill="#fff" d="M228 33H28v189.83h200z"/></mask><g mask="url(#mask3_583_10)"><path fill="#444876" stroke="#444876" stroke-width="1.333" d="M221.22 127.915a93.22 93.22 0 0 0-57.546-86.124A93.225 93.225 0 0 0 62.083 61.998a93.221 93.221 0 1 0 159.137 65.917Zm-1.695 0a91.52 91.52 0 0 1-26.807 64.718A91.54 91.54 0 0 1 128 219.441a91.54 91.54 0 0 1-64.719-26.808 91.5 91.5 0 0 1-26.807-64.718 91.526 91.526 0 0 1 183.051 0Z"/></g><mask id="mask4_583_10" width="178" height="178" x="39" y="39" maskUnits="userSpaceOnUse" style="mask-type:luminance"><path fill="#fff" d="M128 216.05a88.14 88.14 0 0 0 88.135-88.135A88.14 88.14 0 0 0 128 39.779a88.14 88.14 0 0 0-88.136 88.136A88.14 88.14 0 0 0 128 216.05"/></mask><g mask="url(#mask4_583_10)"><path fill="#444876" stroke="#fff" stroke-width="1.333" d="M29.695 253.338h20.339v-79.966h-20.34z"/></g><mask id="mask5_583_10" width="178" height="178" x="39" y="39" maskUnits="userSpaceOnUse" style="mask-type:luminance"><path fill="#fff" d="M128 216.05a88.14 88.14 0 0 0 88.135-88.135A88.14 88.14 0 0 0 128 39.779a88.14 88.14 0 0 0-88.136 88.136A88.14 88.14 0 0 0 128 216.05"/></mask><g mask="url(#mask5_583_10)"><path fill="#444876" stroke="#fff" stroke-width="1.333" d="M50.034 253.339h20.339v-94.665h-20.34z"/></g><mask id="mask6_583_10" width="178" height="178" x="39" y="39" maskUnits="userSpaceOnUse" style="mask-type:luminance"><path fill="#fff" d="M128 216.05a88.14 88.14 0 0 0 88.135-88.135A88.14 88.14 0 0 0 128 39.779a88.14 88.14 0 0 0-88.136 88.136A88.14 88.14 0 0 0 128 216.05"/></mask><g mask="url(#mask6_583_10)"><path fill="#444876" stroke="#fff" stroke-width="1.333" d="M70.373 253.339H90.71V144.508H70.374z"/></g><mask id="mask7_583_10" width="178" height="178" x="39" y="39" maskUnits="userSpaceOnUse" style="mask-type:luminance"><path fill="#fff" d="M128 216.05a88.14 88.14 0 0 0 88.135-88.135A88.14 88.14 0 0 0 128 39.779a88.14 88.14 0 0 0-88.136 88.136A88.14 88.14 0 0 0 128 216.05"/></mask><g mask="url(#mask7_583_10)"><path fill="#444876" stroke="#fff" stroke-width="1.333" d="M90.711 253.339h20.339V141.954H90.711z"/></g><mask id="mask8_583_10" width="178" height="178" x="39" y="39" maskUnits="userSpaceOnUse" style="mask-type:luminance"><path fill="#fff" d="M128 216.05a88.14 88.14 0 0 0 88.135-88.135A88.14 88.14 0 0 0 128 39.779a88.14 88.14 0 0 0-88.136 88.136A88.14 88.14 0 0 0 128 216.05"/></mask><g mask="url(#mask8_583_10)"><path fill="#444876" stroke="#fff" stroke-width="1.333" d="M111.051 253.339h20.339V153.321h-20.339z"/></g><mask id="mask9_583_10" width="178" height="178" x="39" y="39" maskUnits="userSpaceOnUse" style="mask-type:luminance"><path fill="#fff" d="M128 216.05a88.14 88.14 0 0 0 88.135-88.135A88.14 88.14 0 0 0 128 39.779a88.14 88.14 0 0 0-88.136 88.136A88.14 88.14 0 0 0 128 216.05"/></mask><g mask="url(#mask9_583_10)"><path fill="#444876" stroke="#fff" stroke-width="1.333" d="M131.39 253.339h20.339V169.02H131.39z"/></g><mask id="mask10_583_10" width="178" height="178" x="39" y="39" maskUnits="userSpaceOnUse" style="mask-type:luminance"><path fill="#fff" d="M128 216.05a88.14 88.14 0 0 0 88.135-88.135A88.14 88.14 0 0 0 128 39.779a88.14 88.14 0 0 0-88.136 88.136A88.14 88.14 0 0 0 128 216.05"/></mask><g mask="url(#mask10_583_10)"><path fill="#444876" stroke="#fff" stroke-width="1.333" d="M151.729 253.338h20.339v-73.581h-20.339z"/></g><mask id="mask11_583_10" width="178" height="178" x="39" y="39" maskUnits="userSpaceOnUse" style="mask-type:luminance"><path fill="#fff" d="M128 216.05a88.14 88.14 0 0 0 88.135-88.135A88.14 88.14 0 0 0 128 39.779a88.14 88.14 0 0 0-88.136 88.136A88.14 88.14 0 0 0 128 216.05"/></mask><g mask="url(#mask11_583_10)"><path fill="#444876" stroke="#fff" stroke-width="1.333" d="M172.067 253.339h20.339V184.29h-20.339z"/></g></svg>