<svg xmlns="http://www.w3.org/2000/svg" fill="none" viewBox="0 0 256 256"><path fill="#282828" d="M196 0H60C26.863 0 0 26.863 0 60v136c0 33.137 26.863 60 60 60h136c33.137 0 60-26.863 60-60V60c0-33.137-26.863-60-60-60"/><path fill="#036C70" d="M123.397 143.237c26.022 0 47.118-21.096 47.118-47.118S149.419 49 123.397 49 76.28 70.096 76.28 96.119c0 26.022 21.095 47.118 47.117 47.118"/><path fill="#1A9BA1" d="M167.416 177.963c22.267 0 40.317-18.051 40.317-40.318 0-22.268-18.05-40.319-40.317-40.319-22.266 0-40.317 18.051-40.317 40.319 0 22.267 18.051 40.318 40.317 40.318"/><path fill="#37C6D0" d="M128.347 207.698c17.799 0 32.229-14.43 32.229-32.23 0-17.801-14.43-32.231-32.229-32.231-17.8 0-32.23 14.43-32.23 32.231 0 17.8 14.43 32.23 32.23 32.23"/><g fill="#000" opacity=".67"><path d="M130.882 87.266H81.431a2.454 2.454 0 0 0-2.495 2.414v21.89a47.08 47.08 0 0 0 44.26 31.586c1.368 0 2.736 0 4.024-.201v.242a32.19 32.19 0 0 0-30.781 26.315h34.201c2.696 0 4.909-5.432 4.909-11.387v-65.91a4.91 4.91 0 0 0-4.667-4.949" opacity=".05"/><path d="M121.748 100.263H76.602a47.04 47.04 0 0 0 46.876 42.934c1.408 0 2.776 0 4.024-.201v.241a32.19 32.19 0 0 0-31.385 32.633c0 1.368 0 2.696.322 4.024h25.309a6.55 6.55 0 0 0 4.775-1.734 6.57 6.57 0 0 0 2.105-4.624v-66.875a6.6 6.6 0 0 0-6.719-6.398z" opacity=".1"/><path d="M121.748 95.676H76.321v.442a47.08 47.08 0 0 0 29.089 43.507 47.1 47.1 0 0 0 18.028 3.572c1.368 0 2.736 0 4.023-.201v.241a32.19 32.19 0 0 0-31.465 32.19h25.631a6.515 6.515 0 0 0 6.599-6.398v-66.955a6.52 6.52 0 0 0-6.478-6.398" opacity=".2"/><path d="M128.91 88.795H79.46a2.495 2.495 0 0 0-2.495 2.495v12.594a47.08 47.08 0 0 0 46.432 39.313c1.369 0 2.737 0 4.024-.202v.242a32.186 32.186 0 0 0-31.062 27.764h32.47c.649 0 1.29-.128 1.888-.378a4.9 4.9 0 0 0 2.659-2.68 4.9 4.9 0 0 0 .362-1.891V93.825a4.953 4.953 0 0 0-4.868-5.03z" opacity=".1"/><path d="M128.628 90.848h-49.25a2.453 2.453 0 0 0-2.454 2.454v10.06a47 47 0 0 0 46.473 39.795c1.369 0 2.737 0 4.024-.201v.241a32.19 32.19 0 0 0-31.304 29.052h32.511a4.95 4.95 0 0 0 4.949-4.949V95.837a4.987 4.987 0 0 0-4.909-4.99z" opacity=".1"/><path d="M77.648 85.013a47.04 47.04 0 0 0 45.749 58.224c1.368 0 2.736 0 4.024-.201v.241a32.19 32.19 0 0 0-27.24 16.337l17.825-2.133c2.696 0 10.059-2.374 10.059-5.11V90.002a5.07 5.07 0 0 0-4.99-4.99z" opacity=".01"/><path d="M121.748 97.889H76.321a47.077 47.077 0 0 0 47.036 45.308c1.368 0 2.736 0 4.024-.202v.242a32.19 32.19 0 0 0-31.465 32.19v2.133h25.51a6.523 6.523 0 0 0 6.76-6.277v-67.117a6.52 6.52 0 0 0-6.438-6.277" opacity=".2"/><path d="M121.748 90.888H76.602a47.04 47.04 0 0 0 41.444 52.027 48 48 0 0 0 5.392.282c1.368 0 2.736 0 4.023-.201v.241a32.19 32.19 0 0 0-30.78 25.591h24.946a6.48 6.48 0 0 0 6.06-3.887c.34-.78.523-1.619.539-2.47V97.285a6.52 6.52 0 0 0-6.478-6.397" opacity=".3"/><path d="M121.748 90.888H76.602a47.04 47.04 0 0 0 41.444 52.027 48 48 0 0 0 5.392.282c1.368 0 2.736 0 4.023-.201v.241a32.19 32.19 0 0 0-30.7 25.229h24.866a6.557 6.557 0 0 0 6.599-6.438V97.286a6.52 6.52 0 0 0-6.478-6.398" opacity=".3"/><path d="M121.748 92.497H76.602v3.42a47.08 47.08 0 0 0 13.775 33.316 47.07 47.07 0 0 0 33.302 13.803h4.024v.241a32.19 32.19 0 0 0-31.264 28.65h25.43a6.57 6.57 0 0 0 4.725-1.807 6.56 6.56 0 0 0 2.034-4.631V98.895a6.5 6.5 0 0 0-.546-2.495 6.5 6.5 0 0 0-3.617-3.465 6.5 6.5 0 0 0-2.516-.438z" opacity=".3"/><path d="M121.748 93.986H76.321v2.132a47.076 47.076 0 0 0 47.076 47.078c1.409 0 2.777 0 4.024-.201v.242a32.187 32.187 0 0 0-30.982 30.299h25.51a6.56 6.56 0 0 0 6.639-6.398v-66.755a6.53 6.53 0 0 0-1.994-4.574 6.52 6.52 0 0 0-4.645-1.823z" opacity=".2"/><path d="M128.025 93.06H78.574a2.41 2.41 0 0 0-2.213 1.368v1.61a47.08 47.08 0 0 0 47.077 47.078c1.408 0 2.776 0 4.024-.201v.241a32.19 32.19 0 0 0-31.023 27.402h31.505a19.3 19.3 0 0 0 4.909-12.554V98.09a4.95 4.95 0 0 0-4.949-4.95z" opacity=".1"/><path d="M124.162 93.06h-47.56v2.978a47.08 47.08 0 0 0 47.077 47.078c1.409 0 2.777 0 4.024-.201v.242a32.19 32.19 0 0 0-30.781 25.752h27.683a4.95 4.95 0 0 0 4.949-4.949V98.09a4.96 4.96 0 0 0-1.421-3.552 4.95 4.95 0 0 0-3.528-1.477z" opacity=".2"/><path d="M122.392 90.565a14.8 14.8 0 0 0-6.921-1.73H76.884a46.79 46.79 0 0 0 21.524 47.349 46.8 46.8 0 0 0 17.103 6.409c2.658.454 5.352.656 8.047.603 1.369 0 2.737 0 4.024-.201v.242a32.2 32.2 0 0 0-18.899 6.58 32.2 32.2 0 0 0-11.359 16.476h27.603a4.95 4.95 0 0 0 4.908-4.829V95.796c0-2.736-6.679-4.346-7.443-5.23" opacity=".3"/><path d="M126.375 96.722H76.321a47.08 47.08 0 0 0 47.076 46.394 36 36 0 0 0 4.024-.241v.241a32.19 32.19 0 0 0-31.425 31.064h30.218a4.91 4.91 0 0 0 4.909-4.909v-67.6a4.95 4.95 0 0 0-4.909-4.95z" opacity=".1"/><path d="M77.286 86.421a47.08 47.08 0 0 0 36.213 55.77 46.2 46.2 0 0 0 9.697 1.006c1.368 0 2.736 0 4.024-.202v.242a32.19 32.19 0 0 0-28.166 17.785l18.63-2.173c2.696 0 10.059-2.414 10.059-5.11V91.37a4.94 4.94 0 0 0-3.083-4.584 5 5 0 0 0-1.906-.365z" opacity=".1"/><path d="M77.085 87.628a46.92 46.92 0 0 0 20.5 47.953 46.9 46.9 0 0 0 17.001 6.811c2.904.55 5.855.82 8.811.804 1.369 0 2.737 0 4.024-.201v.242a32.19 32.19 0 0 0-28.648 19.113l19.233-2.294c2.696 0 10.059-2.374 10.059-5.07V92.617a4.985 4.985 0 0 0-3.08-4.61 5 5 0 0 0-1.909-.38z" opacity=".15"/></g><path fill="#03787C" d="M55.639 88.635h66.109a6.59 6.59 0 0 1 6.108 4.101 6.6 6.6 0 0 1 .491 2.538v66.191a6.6 6.6 0 0 1-1.919 4.693 6.6 6.6 0 0 1-2.146 1.44 6.6 6.6 0 0 1-2.534.507H55.639a6.64 6.64 0 0 1-6.639-6.64v-66.19a6.64 6.64 0 0 1 6.639-6.64"/><path fill="#fff" d="M79.62 127.906a13.2 13.2 0 0 1-4.023-4.024 12.1 12.1 0 0 1-1.369-5.754 11 11 0 0 1 2.576-7.444 15.4 15.4 0 0 1 6.88-4.466 29.4 29.4 0 0 1 9.335-1.449c4.16-.132 8.311.453 12.272 1.731v8.691a18.1 18.1 0 0 0-5.553-2.253 27.2 27.2 0 0 0-6.478-.805c-2.308-.082-4.6.401-6.679 1.408a4.47 4.47 0 0 0-2.656 4.024 4.03 4.03 0 0 0 1.127 2.817 11.4 11.4 0 0 0 2.978 2.173c1.287.603 3.219 1.448 5.713 2.494l.805.322a47 47 0 0 1 7.162 3.461 11.56 11.56 0 0 1 4.399 4.533 11.56 11.56 0 0 1 1.355 6.17 12.08 12.08 0 0 1-2.414 7.726 13.3 13.3 0 0 1-6.438 4.305 29.7 29.7 0 0 1-9.174 1.368 47.7 47.7 0 0 1-8.289-.724 30 30 0 0 1-6.92-1.932v-9.174a22.3 22.3 0 0 0 6.92 3.259 26.5 26.5 0 0 0 7.524 1.208 13.1 13.1 0 0 0 6.88-1.449 4.63 4.63 0 0 0 2.335-4.024 4.3 4.3 0 0 0-1.328-3.138 12.7 12.7 0 0 0-3.42-2.455c-1.53-.764-3.783-1.77-6.72-3.018a36.2 36.2 0 0 1-6.8-3.581"/></svg>