<svg xmlns="http://www.w3.org/2000/svg" fill="none" viewBox="0 0 256 256"><g clip-path="url(#clip0_164_679)"><path fill="#F4F2ED" d="M196 0H60C26.863 0 0 26.863 0 60v136c0 33.137 26.863 60 60 60h136c33.137 0 60-26.863 60-60V60c0-33.137-26.863-60-60-60"/><path fill="#95BF46" d="M184.899 74.365c-.121-.875-.887-1.36-1.521-1.413-.632-.053-14.013-1.044-14.013-1.044s-9.294-9.227-10.314-10.248c-1.021-1.02-3.014-.71-3.788-.483-.113.034-2.03.626-5.2 1.607-3.105-8.934-8.584-17.143-18.223-17.143-.266 0-.54.01-.814.026-2.741-3.625-6.137-5.2-9.07-5.2-22.453 0-33.18 28.069-36.543 42.332a13671 13671 0 0 0-15.715 4.875c-4.87 1.527-5.024 1.68-5.664 6.27-.48 3.474-13.224 102.019-13.224 102.019l99.294 18.604 53.8-11.639S185.018 75.24 184.899 74.365m-40.324-9.884-8.402 2.6c.003-.592.006-1.174.006-1.812 0-5.552-.771-10.022-2.007-13.566 4.966.624 8.274 6.275 10.403 12.778m-16.564-11.677c1.381 3.46 2.278 8.426 2.278 15.126 0 .343-.003.656-.006.973l-17.352 5.374c3.342-12.895 9.604-19.123 15.08-21.473m-6.671-6.315c.969 0 1.945.33 2.879.973-7.196 3.386-14.909 11.914-18.166 28.945l-13.716 4.248c3.815-12.99 12.875-34.166 29.003-34.166"/><path fill="#5E8E3E" d="M183.378 72.952c-.632-.053-14.014-1.044-14.014-1.044s-9.293-9.227-10.313-10.248c-.382-.38-.897-.575-1.435-.659l-7.508 153.565 53.796-11.638S185.017 75.24 184.899 74.365c-.121-.875-.887-1.36-1.521-1.413"/><path fill="#fff" d="m131.84 102.679-6.634 19.733s-5.812-3.102-12.936-3.102c-10.445 0-10.971 6.555-10.971 8.207 0 9.012 23.493 12.466 23.493 33.576 0 16.609-10.534 27.303-24.738 27.303-17.044 0-25.76-10.607-25.76-10.607l4.563-15.079s8.96 7.692 16.52 7.692c4.941 0 6.95-3.89 6.95-6.732 0-11.756-19.274-12.28-19.274-31.598 0-16.259 11.67-31.992 35.227-31.992 9.076 0 13.56 2.599 13.56 2.599"/></g><defs><clipPath id="clip0_164_679"><path fill="#fff" d="M0 0h256v256H0z"/></clipPath></defs></svg>