<svg xmlns="http://www.w3.org/2000/svg" fill="none" viewBox="0 0 256 256"><rect width="256" height="256" fill="#3A76F0" rx="60"/><path fill="#fff" d="M128 48c4.151 0 8.227.316 12.207.925l-1.144 7.414A73 73 0 0 0 128 55.5a73 73 0 0 0-11.062.839l-1.145-7.414A80.6 80.6 0 0 1 128 48m18.985 2.266-1.78 7.288a72 72 0 0 1 20.439 8.473l3.895-6.411a79.5 79.5 0 0 0-22.554-9.35m28.294 13.194-4.432 6.05a73 73 0 0 1 15.643 15.643l6.051-4.432a80.5 80.5 0 0 0-17.262-17.262m21.105 23.003-6.411 3.894a72 72 0 0 1 8.473 20.439l7.288-1.779a79.5 79.5 0 0 0-9.35-22.554m10.691 29.331-7.414 1.145A73 73 0 0 1 200.5 128c0 3.761-.286 7.456-.839 11.063l7.414 1.144c.609-3.98.925-8.057.925-12.207s-.316-8.227-.925-12.207m-17.102 49.852a72 72 0 0 0 8.473-20.44l7.288 1.78a79.5 79.5 0 0 1-9.35 22.554zm-3.483 5.202 6.051 4.432a80.5 80.5 0 0 1-17.262 17.262l-4.433-6.051a72.9 72.9 0 0 0 15.644-15.643m-20.846 19.126 3.894 6.411a79.5 79.5 0 0 1-22.554 9.35l-1.78-7.288a72 72 0 0 0 20.44-8.473m-26.582 9.688 1.145 7.414c-3.98.609-8.057.925-12.207.925s-8.227-.316-12.207-.925l1.144-7.413c3.605.552 7.3.838 11.063.838a73 73 0 0 0 11.062-.839m-28.268-1.213-1.779 7.286a79.4 79.4 0 0 1-17.278-6.406l-7.593 1.772-1.704-7.304 10.26-2.394 2.44 1.243a72 72 0 0 0 15.654 5.803m-34.684-3.175 1.704 7.304-13.015 3.036c-8.66 2.021-16.433-5.752-14.413-14.412l3.037-13.015 7.304 1.704-3.037 13.015c-.758 3.248 2.157 6.162 5.405 5.405zM62.204 173.56l-7.304-1.704 1.772-7.593a79.4 79.4 0 0 1-6.406-17.279l7.286-1.779a72 72 0 0 0 5.803 15.654l1.243 2.441zm-5.866-34.498-7.413 1.145A80.6 80.6 0 0 1 48 128c0-4.151.316-8.227.925-12.207l7.414 1.144A73 73 0 0 0 55.5 128c0 3.763.286 7.457.838 11.062m1.216-28.267-7.288-1.78a79.5 79.5 0 0 1 9.35-22.554l6.41 3.895a72 72 0 0 0-8.472 20.439M69.51 85.153l-6.05-4.432a80.5 80.5 0 0 1 17.26-17.262l4.432 6.05A73 73 0 0 0 69.51 85.154m20.846-19.127-3.894-6.412a79.5 79.5 0 0 1 22.554-9.349l1.78 7.288a72 72 0 0 0-20.44 8.473"/><path fill="#fff" d="M193 128c0 35.899-29.101 65-65 65-11.387 0-22.089-2.928-31.397-8.072a4.14 4.14 0 0 0-2.938-.426l-28.914 6.747 6.747-28.914a4.14 4.14 0 0 0-.426-2.939C65.928 150.089 63 139.387 63 128c0-35.898 29.102-65 65-65 35.899 0 65 29.102 65 65"/></svg>