<svg xmlns="http://www.w3.org/2000/svg" width="256" height="256" fill="none"><rect width="256" height="256" fill="#282828" rx="60"/><path fill="#F4F2ED" fill-rule="evenodd" d="M127.774 78.627c25.35 0 46.99 8.777 62.477 23.197q3.099-.957 5.255-1.963 6.589-3.071 17.301-12.597-1.74 16.593-3.735 24.361-1.069 4.162-3.31 10.075a80.9 80.9 0 0 1 8.531 23.629c6.11 30.624-4.353 44.166-28.631 51.725q.274 1.364.426 2.934c.868 8.958-3.662 23.425-9.101 23.425-3.576 0-5.902-4.982-8.397-12.253-.78 8.421-4.617 18.086-9.065 18.086-3.745 0-6.118-5.46-8.751-13.296l-.371-1.107c-.616-1.871-1.253-3.863-1.929-5.936-.169.799-.346 1.618-.53 2.447l-.225 1c-1.874 8.182-4.595 16.892-8.989 16.892-5.101 0-2.303-16.06-10.904-22.865-43.606 2.376-80.288-13.743-80.288-60.253 0-8.558 2.025-16.919 5.738-24.679a94 94 0 0 1-1.854-3.843Q47.081 108.024 41 88.601q15.555 11.604 23.86 13.827.831.223 1.73.387c14.524-14.55 36.237-24.188 61.184-24.188m-10.173 62.743c-14.734 0-26.678 11.599-26.678 25.908s11.944 25.908 26.678 25.908c14.732 0 26.676-11.599 26.676-25.908 0-14.134-11.654-25.625-26.14-25.904zm37.864 32.36c-4.458 0-6.809 9.519-6.809 13.79 0 3.335 1.119 5.175 2.942 5.511 4.426.411 3.076-6.039 5.279-6.039 2.349 0 5.1 6.598 7.402 5.703 2.734-1.628 1.689-5.174.745-7.978-3.325-7.045-5.101-10.987-9.559-10.987m-37.247-28.62c12.723 0 23.036 9.88 23.036 22.067s-10.315 22.067-23.036 22.067q-1.174 0-2.319-.112c11.634-1.112 20.716-10.518 20.716-21.955s-9.084-20.843-20.715-21.957q1.144-.11 2.318-.11m66.252-5.258c-10.153 0-18.382 10.186-18.382 22.752 0 12.567 8.229 22.755 18.382 22.755s18.383-10.188 18.383-22.753c0-12.568-8.23-22.754-18.383-22.754m.593 3.755c8.478 0 15.349 8.492 15.349 18.969 0 10.475-6.871 18.967-15.349 18.967a12.6 12.6 0 0 1-2.305-.212c7.382-1.375 13.043-9.248 13.043-18.755s-5.661-17.382-13.043-18.757a12.6 12.6 0 0 1 2.305-.212m3.53-72.96c.59.382.755 1.17.374 1.759l-3.02 4.652a1.27 1.27 0 0 1-1.593.465l-.165-.091a1.28 1.28 0 0 1-.551-.802 1.27 1.27 0 0 1 .177-.956l3.02-4.652a1.27 1.27 0 0 1 1.297-.559c.164.03.321.093.461.183M67.919 69.418l.118.147 2.784 3.978A1.27 1.27 0 0 1 68.74 75l-2.784-3.977a1.271 1.271 0 0 1 1.963-1.605M131.933 27l2.881 24.398 10.737-12.07.278 30.044-2.128-.472q-9.315-2.065-16.895-2.064-7.52 0-14.11 2.029l-2.366.73 1.938-37.578 9.823 18.57zm-1.892 13.534-7.581 18.165-7.379-13.95-1.04 20.142.221-.054q5.814-1.434 12.224-1.466l.32-.002q6.946 0 15.169 1.626l.349.07-.155-16.72-9.894 11.119zm39.289 19.449a1.27 1.27 0 0 1 .873 1.573l-.382 1.333a1.27 1.27 0 0 1-1.402.908l-.169-.037a1.3 1.3 0 0 1-.763-.605 1.27 1.27 0 0 1-.11-.968l.383-1.333a1.27 1.27 0 0 1 1.57-.871M92.563 58.55l.714 2.202a1.27 1.27 0 0 1-2.353.945l-.064-.16-.714-2.2a1.27 1.27 0 0 1 2.417-.785z" clip-rule="evenodd"/></svg>