<svg xmlns="http://www.w3.org/2000/svg" fill="none" viewBox="0 0 256 256"><rect width="256" height="256" fill="#282828" rx="60"/><path fill="#005F9E" d="M216 74.453 154.039 38.74S144.222 33 128.561 33c-16.308 0-25.757 5.914-25.757 5.914L45.41 71.76l87.316 50.185v101.42l57.464-32.81s10.272-5.669 18.076-19.143C215.143 159.548 216 148.07 216 148.07zm-93.441 16.519s12.809-2.362 23.64 3.884 17.219 9.922 17.219 9.922.017 8.696.017 21.698c0 10.411-8.819 21.208-8.819 21.208l.018-38.199zm50.78 83.781-18.705 10.727v-10.062l14.558-8.329c13.859-9.991 16.151-24.725 16.151-29.834l-.052-45.25-39.704-22.854s-6.037-3.954-16.886-3.954-16.763 3.657-16.763 3.657l-13.946 8.014-8.802-5.092 19.266-11.006s7.541-4.182 20.175-4.182c11.602 0 20.631 4.532 20.631 4.532l44.83 25.897-.052 49.38c.315 7.594-3.22 26.143-20.701 38.356"/><path fill="#005F9E" d="m41 104.603 61.209 35.119-.053 10.464-34.821-19.966-21.908 12.459 56.694 32.669.035 10.079-60.736-34.944c.157 4.095 3.867 16.711 10.971 26.475 7.21 9.887 15.434 14.086 15.434 14.086l56.134 32.32v-96.381L41.053 79.37z"/></svg>