<svg xmlns="http://www.w3.org/2000/svg" viewBox="0 0 256 256"><g id="Page-1" fill="none" fill-rule="evenodd" stroke="none" stroke-width="1"><g id="slack-dark" fill-rule="nonzero"><path id="Path" fill="#282828" d="M196 0H60C26.863 0 0 26.863 0 60v136c0 33.137 26.863 60 60 60h136c33.137 0 60-26.863 60-60V60c0-33.137-26.863-60-60-60"/><g id="Group" transform="translate(32 32)"><path id="Shape" fill="#E01E5A" d="M40.444 121.222c0 11.184-9.038 20.222-20.222 20.222C9.04 141.444 0 132.406 0 121.222 0 110.04 9.039 101 20.222 101h20.222zm10.112 0c0-11.183 9.038-20.222 20.222-20.222C81.96 101 91 110.039 91 121.222v50.556C91 182.96 81.961 192 70.778 192s-20.222-9.039-20.222-20.222z"/><path id="Shape" fill="#36C5F0" d="M70.812 40.376c-11.165 0-20.188-9.023-20.188-20.188S59.647 0 70.812 0 91 9.024 91 20.188v20.188zm0 10.248C81.976 50.624 91 59.647 91 70.812S81.976 91 70.812 91H20.188C9.024 91 0 81.976 0 70.812s9.024-20.188 20.188-20.188z"/><path id="Shape" fill="#2EB67D" d="M151.556 70.812c0-11.165 9.038-20.188 20.222-20.188 11.183 0 20.222 9.023 20.222 20.188S182.961 91 171.778 91h-20.222zm-10.112 0c0 11.164-9.038 20.188-20.222 20.188C110.04 91 101 81.976 101 70.812V20.188C101 9.024 110.039 0 121.222 0s20.222 9.024 20.222 20.188z"/><path id="Shape" fill="#ECB22E" d="M121.188 151.556c11.165 0 20.188 9.038 20.188 20.222 0 11.183-9.023 20.222-20.188 20.222S101 182.961 101 171.778v-20.222zm0-10.112c-11.164 0-20.188-9.038-20.188-20.222C101 110.04 110.024 101 121.188 101h50.624c11.164 0 20.188 9.039 20.188 20.222s-9.024 20.222-20.188 20.222z"/></g></g></g></svg>