<svg xmlns="http://www.w3.org/2000/svg" id="snowflake" width="256" height="256" fill="none"><path fill="#F4F2ED" d="M196 0H60C26.863 0 0 26.863 0 60v136c0 33.137 26.863 60 60 60h136c33.137 0 60-26.863 60-60V60c0-33.137-26.863-60-60-60"/><g clip-path="url(#clip0_2_12)"><path fill="#29B5E8" fill-rule="evenodd" d="m211.296 115.352-22.394 13.162 22.394 13.051a11.9 11.9 0 0 1 3.454 3.092 12.1 12.1 0 0 1 2.03 4.205c.4 1.525.501 3.114.299 4.678a12.2 12.2 0 0 1-1.48 4.438 11.9 11.9 0 0 1-3.032 3.523 11.7 11.7 0 0 1-4.122 2.072 11.6 11.6 0 0 1-4.586.304 11.6 11.6 0 0 1-4.351-1.509l-40.124-23.577a11.9 11.9 0 0 1-4.393-4.549 12.23 12.23 0 0 1-1.494-6.2 12 12 0 0 1 .421-2.773 12 12 0 0 1 5.439-7.198l40.123-23.494a11.7 11.7 0 0 1 4.371-1.514 11.6 11.6 0 0 1 4.605.309c1.501.41 2.907 1.12 4.138 2.085a12 12 0 0 1 3.039 3.544 12.1 12.1 0 0 1 1.486 4.429c.203 1.562.1 3.15-.303 4.671a12 12 0 0 1-2.047 4.191 11.7 11.7 0 0 1-3.473 3.06m-21.197 63.797-40.11-23.535a11.7 11.7 0 0 0-5.897-1.605 11.67 11.67 0 0 0-5.897 1.6 11.96 11.96 0 0 0-4.337 4.379 12.3 12.3 0 0 0-1.626 6v47.015a12.16 12.16 0 0 0 3.596 8.257 11.7 11.7 0 0 0 8.212 3.387c3.064 0 6.009-1.215 8.212-3.387a12.17 12.17 0 0 0 3.597-8.257v-26.351l22.448 13.162a11.57 11.57 0 0 0 8.939 1.21 11.7 11.7 0 0 0 4.125-2.07 12 12 0 0 0 3.034-3.523 12.24 12.24 0 0 0 1.186-9.118 12.1 12.1 0 0 0-2.029-4.207 11.9 11.9 0 0 0-3.453-3.095zM143.87 133.16l-16.724 16.851a3.28 3.28 0 0 1-2.093.901h-4.909a3.38 3.38 0 0 1-2.094-.901l-16.628-16.906a3.43 3.43 0 0 1-.871-2.109v-4.992a3.5 3.5 0 0 1 .871-2.122l16.628-16.907a3.37 3.37 0 0 1 2.094-.887h4.909a3.3 3.3 0 0 1 2.093.887l16.67 16.907a3.5 3.5 0 0 1 .856 2.122v4.992a3.42 3.42 0 0 1-.856 2.109zm-13.324-4.688a3.63 3.63 0 0 0-.939-2.163l-4.826-4.868a3.38 3.38 0 0 0-2.094-.888h-.177a3.3 3.3 0 0 0-2.08.888l-4.827 4.868a3.52 3.52 0 0 0-.857 2.149v.181c.035.783.338 1.529.857 2.108l4.854 4.854a3.34 3.34 0 0 0 2.08.888h.177a3.38 3.38 0 0 0 2.094-.888l4.827-4.896a3.5 3.5 0 0 0 .883-2.108zM55.098 77.878l40.124 23.467a11.7 11.7 0 0 0 5.901 1.602c2.071 0 4.105-.552 5.902-1.603a12 12 0 0 0 4.339-4.383 12.3 12.3 0 0 0 1.628-6.004V43.983a12.16 12.16 0 0 0-3.596-8.257 11.7 11.7 0 0 0-8.212-3.387 11.7 11.7 0 0 0-8.212 3.387 12.16 12.16 0 0 0-3.597 8.257v26.35L66.9 57.159a11.6 11.6 0 0 0-4.352-1.511 11.6 11.6 0 0 0-4.587.302 11.7 11.7 0 0 0-4.125 2.07 12 12 0 0 0-3.036 3.52 12.2 12.2 0 0 0-1.482 4.439 12.3 12.3 0 0 0 .297 4.679 12.1 12.1 0 0 0 2.029 4.207 11.9 11.9 0 0 0 3.453 3.096zm88.052 25.075a11.55 11.55 0 0 0 6.798-1.567l40.11-23.577a11.9 11.9 0 0 0 3.453-3.095 12.1 12.1 0 0 0 2.029-4.208 12.24 12.24 0 0 0-1.186-9.118 11.9 11.9 0 0 0-3.034-3.522 11.7 11.7 0 0 0-4.125-2.07 11.58 11.58 0 0 0-8.939 1.21l-22.448 13.286v-26.35a12.16 12.16 0 0 0-3.597-8.257 11.7 11.7 0 0 0-8.212-3.387 11.7 11.7 0 0 0-8.211 3.386 12.16 12.16 0 0 0-3.597 8.257v47.016a12.14 12.14 0 0 0 3.16 8.203 11.68 11.68 0 0 0 7.799 3.793m-41.076 51.094c-2.37-.197-4.741.35-6.798 1.567l-40.178 23.48c-2.704 1.596-4.677 4.223-5.482 7.303a12.23 12.23 0 0 0 1.185 9.118c1.566 2.758 4.14 4.77 7.16 5.592 3.019.822 6.234.387 8.939-1.21l22.475-13.161v26.351a12.16 12.16 0 0 0 3.597 8.256 11.7 11.7 0 0 0 8.212 3.387c3.064 0 6.008-1.214 8.212-3.387a12.16 12.16 0 0 0 3.596-8.256v-47.099a12.13 12.13 0 0 0-3.16-8.158 11.67 11.67 0 0 0-7.758-3.783m-10.877-22.01a12.17 12.17 0 0 0-.33-7.909 11.87 11.87 0 0 0-5.109-5.96L45.676 94.604a11.6 11.6 0 0 0-8.931-1.183c-3.014.824-5.585 2.83-7.154 5.58a12.1 12.1 0 0 0-1.485 4.427c-.203 1.561-.1 3.148.302 4.669a12 12 0 0 0 2.041 4.19 11.8 11.8 0 0 0 3.465 3.065l22.394 13.162-22.394 13.051a11.8 11.8 0 0 0-3.454 3.087 12.1 12.1 0 0 0-2.034 4.201 12.24 12.24 0 0 0 1.172 9.112 11.9 11.9 0 0 0 3.026 3.524 11.7 11.7 0 0 0 4.118 2.074 11.55 11.55 0 0 0 4.584.309 11.6 11.6 0 0 0 4.35-1.504l40.082-23.577a11.87 11.87 0 0 0 5.425-6.754zm126.652-77.971h-1.808v2.26h1.795c.829 0 1.36-.388 1.36-1.11 0-.72-.49-1.15-1.36-1.15zm-3.997-2.08h4.079c2.203 0 3.671 1.233 3.671 3.147a3.04 3.04 0 0 1-.383 1.521 2.97 2.97 0 0 1-1.085 1.114l1.59 2.33v.472h-2.297l-1.591-2.219h-1.795v2.219h-2.203zm11.285 4.465a7.75 7.75 0 0 0-.435-3.09 7.6 7.6 0 0 0-1.618-2.652 7.4 7.4 0 0 0-2.526-1.764 7.3 7.3 0 0 0-3.008-.58c-4.5 0-7.491 3.315-7.491 8.086 0 4.549 2.991 8.072 7.491 8.072a7.3 7.3 0 0 0 3.012-.57c.954-.401 1.816-1 2.531-1.76a7.6 7.6 0 0 0 1.621-2.65 7.7 7.7 0 0 0 .437-3.092zm1.877 0c0 5.395-3.536 9.902-9.518 9.902s-9.368-4.549-9.368-9.902c0-5.354 3.494-9.903 9.368-9.903S227 51.043 227 56.451z" clip-rule="evenodd"/></g><defs><clipPath id="clip0_2_12"><path fill="#fff" d="M28 32h199v193H28z"/></clipPath></defs></svg>