<svg xmlns="http://www.w3.org/2000/svg" width="256" height="256" fill="none"><path fill="#F4F2ED" d="M196 0H60C26.863 0 0 26.863 0 60v136c0 33.137 26.863 60 60 60h136c33.137 0 60-26.863 60-60V60c0-33.137-26.863-60-60-60"/><g clip-path="url(#clip0_32_157)"><path fill="#fff" d="M179.261 65.485c-4.831-15.024-15.815-36.134-17.38-39.106l-1.363-2.597a302 302 0 0 0-2.722-5.317l-4.949-9.43-7.09 50.51-.247 1.836a297 297 0 0 0-16.912-.477c-6.003 0-11.679.176-17.011.483l-.219-1.844-2.488-17.705c.003-.03-4.613-32.803-4.613-32.803l-5.053 9.43a342 342 0 0 0-3.632 7.101l-.436.813c-1.569 2.975-12.657 24.123-17.519 39.148C63.603 68.243 56 71.148 56 71.148v122.779l72.499 52.652L201 193.928V71.148s-7.627-2.935-21.739-5.663"/><path fill="#3B3B63" d="M159.694 160.809h-31.251v-53.645L96.734 159.24l-4.93 53.476 36.152 26.472.487.359 36.971-27.022z"/><path fill="#DBDBDB" d="m127.908 238.997-67.275-48.898V76.076S85.51 66.563 128 66.563c42.492 0 67.185 9.513 67.185 9.513v114.023z"/><path fill="#C6C6C6" d="M128.882 66.563h-.092v172.431h.001l67.276-48.898V76.076s-24.694-9.513-67.185-9.513"/><path fill="#3B3B63" d="m165.23 212.415-5.71-51.606h-31.252v78.618z"/><path fill="#53537A" d="m91.804 212.716 36.639 26.831V107.164L96.734 159.24z"/><path fill="#BC9375" d="M144.212 197.472c0 8.849-8.108 13.235-15.546 13.235s-15.71-4.386-15.71-13.235"/><path fill="#073251" d="M139.654 192.458c0 10.377-5.481 13.159-11.07 13.159-5.588 0-11.071-2.782-11.071-13.159"/><path fill="#fff" d="M128.583 202.048c-5.971 0-8.875-4.466-8.875-13.645h2.848c0 10.747 4.07 10.747 6.027 10.747s6.028 0 6.028-10.747h2.847c0 9.179-2.904 13.645-8.875 13.645"/><path fill="#C49A7E" d="M175.983 82.642c0-11.195-18.561-46.417-18.561-46.417l-6.279 44.67-5.635 9.43-16.89.7-.066.138v-.138l-16.892-.7-5.634-9.43-6.278-44.67S81.185 71.447 81.185 82.642l7.842 21.51s-3.958 36.13-2.151 40.86c1.801 4.732 14.313 20.554 14.313 20.554s-.037 13.301 3.388 22.864c2.444 6.829 7.829 9.599 12.985 9.599 7.898 0 10.988-7.386 10.988-7.386s3.164 7.386 11.062 7.386c5.155 0 10.534-2.766 12.984-9.599 3.422-9.559 3.387-22.864 3.387-22.864s12.509-15.822 14.314-20.554c1.806-4.731-2.153-40.861-2.153-40.861z"/><path fill="#D8B7A0" d="m128.583 91.096-.032.067v-.138l-16.893-.7-5.632-9.43-6.281-44.67S81.184 71.449 81.184 82.644l7.84 21.509s-3.957 36.131-2.153 40.861c1.806 4.732 14.312 20.554 14.312 20.554s-.032 13.301 3.39 22.864c2.447 6.829 7.833 9.599 12.984 9.599 7.902 0 10.992-7.386 10.992-7.386q.002.001.035.075z"/><path fill="#3B3B63" d="M168.313 106.268c-1.438-3.068.607-10.329.607-10.329-11.721-12.246-14.652-37.781-14.652-37.781-2.189 8.046-6.946 31.77-6.946 31.77s-8.748-3.32-18.7-3.336h-.074a61 61 0 0 0-1.623.034v100.108l.743 1.109v-.548h.459v.548l.005-.548h1.372v.548l8.102-12.059 1.761-33.863 10.088 11.728 12.995 3.87s4.862-3.533 4.862-3.52c2.065-2.946 2.75-5.456 3.249-6.758 1.805-4.738-2.248-40.972-2.248-40.972"/><path fill="#53537A" d="M128.674 86.59h-.034c-9.956.017-18.705 3.336-18.705 3.336s-4.758-23.723-6.945-31.77c0 0-2.929 25.536-14.653 37.781 0 0 2.046 7.262.607 10.33 0 0-4.053 36.236-2.247 40.967.498 1.303 1.188 3.811 3.25 6.757 0-.013 4.864 3.521 4.864 3.521l12.994-3.87 10.085-11.727 1.766 33.863 8.098 12.059v-.548h.919z"/><path fill="#333152" d="M152.164 128.934h-15.182v.163c0 5.398 4.585 9.771 9.962 9.771 5.379 0 9.964-4.374 9.964-9.771v-.163z"/><path fill="#fff" d="M140.777 128.934v.163c0 3.211 2.539 5.813 5.695 5.813 3.155 0 5.692-2.602 5.692-5.813v-.163z"/><path fill="#333152" d="M148.228 128.934h-2.668c-.026 0-.048.013-.071.018.331.07.514.834.443 1.343a1.54 1.54 0 0 1-1.502 1.329 2.53 2.53 0 0 0 2.111 1.988 2.52 2.52 0 0 0 2.851-2.17c.141-1.033-.348-2.508-1.164-2.508m-32.712 0h-15.181v.163c0 5.398 4.585 9.771 9.962 9.771 5.379 0 9.964-4.374 9.964-9.771v-.163z"/><path fill="#fff" d="M104.131 128.934v.163c0 3.211 2.54 5.813 5.692 5.813 3.156 0 5.694-2.602 5.694-5.813v-.163z"/><path fill="#333152" d="M111.581 128.934h-2.67c-.023 0-.048.013-.07.018.33.07.513.834.443 1.343a1.53 1.53 0 0 1-1.504 1.329 2.54 2.54 0 0 0 2.112 1.988 2.52 2.52 0 0 0 2.851-2.17c.143-1.033-.346-2.508-1.162-2.508"/><path fill="#C49A7E" d="M151.019 124.326c.637-.711 6.049-6.962-1.189-6.962-6.54 0-11.246 5.372-12.493 6.962z"/><path fill="#D8B7A0" d="M119.799 124.326c-1.246-1.59-5.952-6.962-12.494-6.962-7.235 0-1.823 6.251-1.189 6.962z"/><path fill="#53537A" d="M96.843 128.876h27.687v-2.65H96.843z"/><path fill="#333152" d="M168.815 91.296c-8.051-11.52-10.576-30.25-10.796-31.96l1.469-10.44c5.978 12.382 12.25 27.077 12.68 33.21zm-2.057 52.409c-1.098 2.876-8.691 13.15-13.734 19.529l-.841 1.069.004 1.365c0 .123-.004 12.716-3.159 21.53-2.281 6.369-7.348 7.058-9.417 7.058-5.241 0-7.502-4.89-7.582-5.067l-.299-4.58h-6.371l-.287 4.554c-.091.207-2.297 5.08-7.511 5.08-2.075 0-7.14-.681-9.422-7.051-3.145-8.781-3.16-21.401-3.16-21.529l.005-1.365-.841-1.064c-5.04-6.375-12.633-16.649-13.705-19.454-.858-3.035.557-22.661 2.359-39.106l.099-.913-1.421-3.894c4.882-5.21 8.309-12.382 10.672-19.208l.23 1.662 7.754 12.971 3.031-1.324c.076-.033 7.845-3.398 15.39-3.398 7.496 0 15.394 3.368 15.468 3.401l3.025 1.313 7.746-12.966.303-2.165c2.34 6.893 5.762 14.192 10.668 19.518l-1.488 4.087.099.912c1.8 16.449 3.215 36.075 2.385 39.035m-42.899 56.925a14.8 14.8 0 0 0 2.736-1.607c.738.219 1.445.219 1.988.219.541 0 1.241.006 1.973-.215a15.2 15.2 0 0 0 2.74 1.603c-1.272.967-2.837 1.511-4.709 1.511-1.882 0-3.455-.539-4.728-1.511m4.807 8.239c-4.167 0-10.091-1.891-11.565-6.904.151.005.299.018.453.018.805 0 1.56-.075 2.29-.181 2.113 2.995 5.405 3.914 8.74 3.914 3.341 0 6.64-.91 8.757-3.91.725.101 1.471.177 2.27.177.157 0 .307-.013.464-.017-1.46 5.012-7.305 6.903-11.409 6.903M85.003 82.104c.43-6.132 6.698-20.827 12.677-33.21l1.594 11.323c-.608 4.233-3.385 20.836-10.836 31.301zm94.68.63c0-11.824-17.021-44.548-18.965-48.242l-5.442-10.368-7.795 55.532-3.597 6.032c-3.474-1.187-9.385-2.844-15.337-2.844-5.946 0-11.817 1.651-15.275 2.84l-3.6-6.029-2.736-19.466c.004-.032.008-.075.008-.095l-.021-.003-5.058-35.967-5.556 10.369c-1.947 3.692-19.104 36.417-19.104 48.24v.694l7.856 21.301c-1.256 11.614-3.654 36.841-1.77 41.772 1.173 3.084 5.69 9.449 9.512 14.551l-5.147 48.828 7.086 5.089 3.745-35.519c.538 3.454 1.332 7.102 2.511 10.397 1.626 4.541 4.497 7.978 8.174 10.018.219 10.871 10.143 16.734 19.494 16.734 9.273 0 19.116-5.867 19.331-16.742 3.668-2.036 6.537-5.474 8.161-10.01 1.227-3.427 2.032-7.244 2.568-10.818l3.767 35.647 7.086-5.269-5.134-48.502c3.791-5.08 8.224-11.352 9.387-14.401 1.883-4.929-.612-30.161-1.867-41.773l7.717-21.304z"/><path fill="#333152" d="M137.518 171.34h-17.81s-2.395 4.249-2.395 5.628c0 4.094 10.962 10.615 10.962 10.615s11.579-6.714 11.579-10.615c0-1.861-2.336-5.628-2.336-5.628"/><path fill="#C49A7E" d="M134.085 183.822c-.994-1.793-2.275-2.12-2.864-.738-.587 1.384-.251 3.959.742 5.748.994 1.794 2.277 2.121 2.862.737.589-1.382.254-3.958-.74-5.747"/><path fill="#D8B7A0" d="M123.082 183.822c-.995 1.789-1.326 4.365-.741 5.747.587 1.384 1.867 1.056 2.865-.737.993-1.789 1.326-4.364.738-5.747-.586-1.383-1.867-1.055-2.862.737"/></g><defs><clipPath id="clip0_32_157"><path fill="#fff" d="M56 9h145v238H56z"/></clipPath></defs></svg>