<svg xmlns="http://www.w3.org/2000/svg" width="256" height="256" fill="none"><rect width="256" height="256" fill="#E394BA" rx="60"/><path fill="#fff" fill-rule="evenodd" d="M117.375 194.345v-69.436L43 52.364V42h170v10.364l-74.375 72.545v69.436l42.5 8.291V213H74.875v-10.364zm37.187-110.072c2.093 0 4.166-.402 6.1-1.183a16 16 0 0 0 5.17-3.37 15.5 15.5 0 0 0 3.455-5.043 15.2 15.2 0 0 0 1.213-5.95c0-2.04-.412-4.062-1.213-5.948a15.5 15.5 0 0 0-3.455-5.044 16 16 0 0 0-5.17-3.37 16.3 16.3 0 0 0-6.1-1.183c-4.226 0-8.28 1.638-11.269 4.554-2.989 2.915-4.668 6.869-4.668 10.992s1.679 8.077 4.668 10.992 7.043 4.553 11.269 4.553" clip-rule="evenodd"/></svg>