<svg xmlns="http://www.w3.org/2000/svg" width="256" height="256" fill="none"><g clip-path="url(#clip0_29_7)"><path fill="#282828" d="M196 0H60C26.863 0 0 26.863 0 60v136c0 33.137 26.863 60 60 60h136c33.137 0 60-26.863 60-60V60c0-33.137-26.863-60-60-60"/><g clip-path="url(#clip1_29_7)"><path fill="url(#paint0_linear_29_7)" d="m227.96 178.763-33.346 34.84a7.75 7.75 0 0 1-2.577 1.773 7.9 7.9 0 0 1-3.088.624H30.871a3.95 3.95 0 0 1-2.123-.618 3.8 3.8 0 0 1-1.427-1.65 3.7 3.7 0 0 1-.265-2.143c.128-.724.47-1.396.985-1.933l33.371-34.84a7.7 7.7 0 0 1 2.569-1.769 7.9 7.9 0 0 1 3.08-.628h158.068c.754 0 1.492.215 2.123.618.63.403 1.126.976 1.428 1.65.3.674.392 1.419.264 2.143a3.74 3.74 0 0 1-.984 1.933m-33.346-70.157a7.75 7.75 0 0 0-2.577-1.772 7.9 7.9 0 0 0-3.088-.624H30.871c-.754 0-1.492.214-2.123.617a3.8 3.8 0 0 0-1.427 1.651 3.7 3.7 0 0 0-.265 2.143c.128.724.47 1.396.985 1.933l33.371 34.84a7.8 7.8 0 0 0 2.569 1.769 7.9 7.9 0 0 0 3.08.627h158.068c.754 0 1.492-.214 2.123-.617a3.8 3.8 0 0 0 1.428-1.651c.3-.674.392-1.418.264-2.143a3.74 3.74 0 0 0-.984-1.933zM30.871 83.581H188.95a7.9 7.9 0 0 0 3.088-.624 7.75 7.75 0 0 0 2.577-1.773l33.346-34.84a3.74 3.74 0 0 0 .984-1.933 3.7 3.7 0 0 0-.264-2.143 3.8 3.8 0 0 0-1.428-1.65A3.95 3.95 0 0 0 225.13 40H67.06a7.9 7.9 0 0 0-3.08.628 7.75 7.75 0 0 0-2.568 1.769L28.05 77.237a3.74 3.74 0 0 0-.984 1.93 3.7 3.7 0 0 0 .263 2.142 3.8 3.8 0 0 0 1.424 1.65c.63.404 1.366.62 2.12.622"/></g></g><defs><clipPath id="clip0_29_7"><path fill="#fff" d="M0 0h256v256H0z"/></clipPath><clipPath id="clip1_29_7"><path fill="#fff" d="M27 40h202v176H27z"/></clipPath><linearGradient id="paint0_linear_29_7" x1="44.051" x2="204.987" y1="220.195" y2="33.968" gradientUnits="userSpaceOnUse"><stop offset=".08" stop-color="#9945FF"/><stop offset=".3" stop-color="#8752F3"/><stop offset=".5" stop-color="#5497D5"/><stop offset=".6" stop-color="#43B4CA"/><stop offset=".72" stop-color="#28E0B9"/><stop offset=".97" stop-color="#19FB9B"/></linearGradient></defs></svg>