<svg xmlns="http://www.w3.org/2000/svg" fill="none" viewBox="0 0 256 256"><path fill="#F4F2ED" d="M196 0H60C26.863 0 0 26.863 0 60v136c0 33.137 26.863 60 60 60h136c33.137 0 60-26.863 60-60V60c0-33.137-26.863-60-60-60"/><path fill="#FD3456" d="M188.302 114.905a121 121 0 0 0-8.575-45.257c-1.186.486-2.04.937-2.656 1.245a6.97 6.97 0 0 0-3.713 7.033c.729 6.3 1.102 12.635 1.115 18.976 0 28.986-9.357 56.785-26.353 78.276-16.07 20.316-37.631 33.385-61.079 37.121l.202.119a47.77 47.77 0 0 0 44.653 1.34c33.089-16.224 56.406-54.425 56.406-98.853"/><path fill="#FD3456" d="M194.766 66.695a34 34 0 0 0-6.144.39 130.3 130.3 0 0 1 8.907 47.82c0 49.812-27.752 94.015-68.266 110.132 2.04.131 4.104.214 6.179.214h.309a65 65 0 0 0 50.298-24.183c15.512-19.201 25.036-45.068 25.036-73.425a118.9 118.9 0 0 0-16.319-60.948"/><path fill="#FD3456" d="M233 127.643a97.3 97.3 0 0 0-7.436-37.418 42.9 42.9 0 0 0-9.381-14.232 31.7 31.7 0 0 0-7.365-5.527 36 36 0 0 0-2.064-.972 129.9 129.9 0 0 1 13.508 58.114c0 28.819-9.393 56.583-26.092 77.884A97.4 97.4 0 0 0 233 127.643"/><path fill="#290042" d="M205.463 59.65A97.27 97.27 0 0 0 135.489 30c-53.94 0-98.142 44.688-97.596 98.628a97.2 97.2 0 0 0 7.768 37.192 27.6 27.6 0 0 0-4.85-.213c-4.377.202-10.568-1.376-13.367-2.158-2.799-.783-5.301 1.458-4.163 4.067v.083c9.69 22.19 31.168 36.636 51.674 36.588q2.046 0 4.08-.213c48.021-3.653 86.127-50.274 86.127-107.06q0-5.373-.462-10.674a2.11 2.11 0 0 0-1.526-1.847 2.11 2.11 0 0 0-2.27.768c-13.283 17.576-32.958 48.483-57.568 32.378-9.488-6.179-14.54-19.475-11.682-33.007 5.124-24.3 33.445-40.324 45.922-35.295.972.391 4.483 1.79 5.681 4.993 1.826 4.886-3.677 8.907-6.488 17.564-3.024 9.37-1.316 19.297.807 19.736 2.372.474 6.345-8.22 16.142-16.13 7.115-5.728 12.476-7.341 15.844-13.425 3.25-5.93-2.538-12.18-.569-12.738s3.807 6.274 9.666 9.666c4.898 2.846 9.263 1.067 15.703.806a42.7 42.7 0 0 1 7.115.546s1.258.178 3.25.593a.736.736 0 0 0 .736-1.198m-72.75 75.239a6.92 6.92 0 0 1 4.448-2.691 5.7 5.7 0 0 1 4.364 1.185c2.372 2.194 1.673 6.44-.367 8.884-1.898 2.253-5.634 3.735-8.231 2.063a5.92 5.92 0 0 1-2.301-4.744 7 7 0 0 1 2.087-4.697"/></svg>