<svg xmlns="http://www.w3.org/2000/svg" width="256" height="256" fill="none"><path fill="#F4F2ED" d="M196 0H60C26.863 0 0 26.863 0 60v136c0 33.137 26.863 60 60 60h136c33.137 0 60-26.863 60-60V60c0-33.137-26.863-60-60-60"/><path fill="#E25A1C" fill-rule="evenodd" d="m180.829 167.005-.913-1.943-19.965-37.847c-.675-1.267-.591-2.021.302-3.098l31.584-37.094c.368-.434.703-.898.844-1.67l-9.222 2.412-38.3 10.179c-1.188.32-1.728-.03-2.322-1.014l-21.75-36.237c-.377-.628-.784-1.207-1.583-1.764l-1.756 9.671-6.07 34.169-.628 3.691c-.102 1.206-.705 1.61-1.767 1.945l-45.088 14.25c-.664.211-1.303.476-2.012 1.122l37.094 14.729-1.086.853-23.08 14.919a2.45 2.45 0 0 1-2.675.217l-27.582-12.292c-4.125-1.81-7.84-4.292-10.73-7.826-6.535-7.992-5.247-17.09 3.462-22.618 2.85-1.819 6.086-3.182 9.313-4.234l44.29-14.069c1.206-.386 1.81-.94 2.041-2.283l6.032-34.169c1.098-6.085 1.683-12.364 4.644-17.907 1.137-2.111 2.503-4.246 4.123-6.044 5.865-6.514 14.053-6.761 20.254-.56 2.093 2.092 3.92 4.562 5.449 7.095l20.212 33.584c.79 1.327 1.508 1.598 2.967 1.206l49.507-13.151c3.402-.9 6.846-1.228 10.335-.604 7.6 1.424 10.926 7.238 8.354 14.554-1.17 3.318-3.191 6.174-5.429 8.843l-34.551 40.613c-.944 1.104-.965 1.9-.311 3.136l20.574 39.006c1.64 3.113 2.895 6.342 2.925 9.916.081 8.131-5.863 14.783-13.942 15.966-4.524.663-8.728-.302-12.968-1.611l-31.062-9.448c-.959-.287-1.327-.664-1.496-1.698l-3.746-21.834c-.036-.199.025-.416.055-.863l35.646 9.832" clip-rule="evenodd"/><path fill="#E25A1C" d="m99.247 138.505 6.574 2.865-7.307 58.205 39.941-44.272 6.734 1.891 8.294 25.212-10.779-3.8-27.89 30.109s-12.473 12.914-19.234 10.737c-6.761-2.178-12.467-8.203-13.1-18.976-.634-10.772-3.487-41.527-3.487-41.527l-13.631-9.825z"/><path fill="#E25A1C" d="M78.99 158.953s-6.02 66.567 5.706 68.783-1.267-.316-1.267-.316 6.656 7.608 32.962-20.604l26.31-28.21-52.62 31.063c1.267-1.586 6.656-55.472 6.656-55.472z"/></svg>