<svg xmlns="http://www.w3.org/2000/svg" fill="none" viewBox="0 0 256 256"><g clip-path="url(#clip0_164_580)"><path fill="#F4F2ED" d="M196 0H60C26.863 0 0 26.863 0 60v136c0 33.137 26.863 60 60 60h136c33.137 0 60-26.863 60-60V60c0-33.137-26.863-60-60-60"/><path fill="url(#paint0_linear_164_580)" d="m150.847 121.708-38.483 12.566-33.48 14.776-9.366 2.473a204 204 0 0 1-7.592 6.894c-2.967 2.56-5.73 4.887-7.854 6.574-2.356 1.861-5.847 5.352-7.62 7.562-2.648 3.316-4.742 6.836-5.644 9.541-1.6 4.887-.814 9.832 2.27 14.399 3.955 5.817 11.838 11.751 21.03 15.794 4.683 2.066 12.565 4.712 18.499 6.196 9.86 2.501 28.942 5.207 39.443 5.614 2.123.087 4.974.087 5.09 0 .233-.146 1.862-3.258 3.753-7.126 6.457-13.177 11.111-25.54 13.641-36.098 1.513-6.399 2.705-14.922 3.49-25.015.204-2.822.291-12.275.117-15.475-.262-5.236-.728-9.483-1.454-13.642-.117-.611-.146-1.164-.088-1.193.116-.087.465-.203 5.207-1.571l-.96-2.268v-.001zm-8.785 5.149c.349 0 1.28 8.929 1.513 14.573.058 1.192.028 1.978-.029 1.978-.233 0-4.916-2.763-8.261-4.858-2.909-1.832-8.435-5.498-9.308-6.196-.291-.203-.262-.232 2.123-1.047 4.043-1.367 13.643-4.45 13.962-4.45m-19.605 6.457c.262 0 .931.378 2.531 1.367 5.992 3.752 14.136 8.29 17.627 9.803 1.076.465 1.192.291-1.28 1.978-5.294 3.607-11.897 7.155-19.984 10.733-1.425.64-2.617 1.134-2.646 1.134-.058 0 .116-.726.348-1.599 1.949-7.244 3.055-14.573 3.113-20.449.029-2.909.029-2.909.291-2.996-.058.029-.029.029 0 .029m-4.043 1.542c.174.174.058 6.69-.175 8.464-.523 4.247-1.338 8.203-2.675 12.654-.32 1.075-.612 1.977-.669 2.035-.117.146-4.102-3.752-5.411-5.265-2.269-2.618-4.043-5.235-5.352-7.795-.669-1.309-1.716-3.868-1.629-3.956.465-.32 15.795-6.253 15.911-6.137m-19.023 7.475c.028 0 .057 0 .087.029.058.058.262.524.437 1.047.93 2.531 3.024 6.254 4.828 8.639 1.978 2.618 4.567 5.411 6.719 7.243a47 47 0 0 1 1.425 1.222c.175.174.233.145-4.509 1.949-5.497 2.094-11.489 4.188-18.354 6.399q-2.46.792-4.915 1.6c-.262.087-.175-.058.582-1.251 3.403-5.323 8.58-15.765 11.489-23.154.495-1.28.989-2.559 1.076-2.85.117-.408.262-.553.64-.757.204-.057.407-.116.495-.116m-5.817 2.414c.087.059-1.397 3.171-2.851 6.022-2.822 5.497-5.905 10.908-10.035 17.481-.699 1.135-1.367 2.182-1.455 2.298-.145.204-.204.146-.669-.756-.989-1.949-1.804-4.451-2.24-6.749-.436-2.269-.349-6.224.146-8.667.378-1.804.349-1.775 1.221-2.211 3.724-1.891 15.766-7.534 15.883-7.418m50.175 2.037v1.221c0 6.487-.698 15.388-1.716 21.875-.175 1.134-.321 2.064-.349 2.094 0 0-.844-.233-1.832-.524-4.363-1.367-9.105-3.374-13.381-5.73-2.822-1.542-6.923-4.073-6.806-4.189.028-.029 1.25-.669 2.675-1.425 5.702-2.967 11.17-6.167 15.912-9.337 1.774-1.193 4.45-3.112 5.032-3.636zm-72.137 8.609c.116 0 .087.233-.087 1.28a41 41 0 0 0-.32 3.112c-.233 4.247.465 7.389 2.56 11.694.581 1.192 1.047 2.181 1.018 2.21-.204.175-19.46 5.818-25.51 7.476-1.804.494-3.374.931-3.491.959-.203.059-.232.03-.145-.465.669-4.275 3.927-9.86 8.464-14.573 3.025-3.141 5.44-4.973 9.57-7.33 2.967-1.687 7.534-4.217 7.883-4.334 0-.029.029-.029.058-.029m45.377 8.116c.029-.029.727.349 1.57.843 6.225 3.607 14.893 6.953 22.281 8.669l.669.145-.931.523c-3.868 2.153-16.579 7.447-29.581 12.305-1.891.697-3.753 1.396-4.102 1.541s-.669.233-.669.204.524-1.048 1.192-2.298c3.636-6.807 7.302-15.097 9.163-20.856.233-.553.378-1.047.408-1.076m-4.625 1.512c.029.03-.204.64-.495 1.338-2.53 6.138-5.847 12.828-10.093 20.333-1.076 1.92-1.978 3.462-2.008 3.462-.028 0-.901-.524-1.948-1.164-6.167-3.782-11.635-8.436-15.213-12.944l-.524-.64 2.647-.727c9.483-2.589 17.54-5.381 25.539-8.814 1.135-.465 2.066-.844 2.095-.844m28.738 10.036c.029.669-1.454 6.661-2.676 10.995-1.018 3.635-1.891 6.486-3.49 11.518-.698 2.211-1.309 4.043-1.338 4.043s-.204-.029-.378-.086c-8.639-1.572-16.377-3.753-23.649-6.662-2.036-.814-4.945-2.123-5.119-2.269-.058-.058 1.687-.872 3.898-1.832 13.235-5.789 26.964-12.363 31.676-15.184.552-.349.989-.523 1.076-.523m-66.348 2.269c.058.058-3.636 5.381-8.814 12.624-1.803 2.53-3.898 5.497-4.683 6.602a117 117 0 0 0-2.647 3.898l-1.222 1.891-1.31-1.105c-1.54-1.28-4.217-4.014-5.41-5.527-2.5-3.112-4.188-6.399-4.857-9.395-.32-1.396-.32-2.095-.03-2.182.437-.116 8.203-1.948 15.476-3.636 4.043-.93 8.726-2.036 10.413-2.443s3.055-.727 3.084-.727m3.723 1.425.93 1.047c4.19 4.683 8.465 8.145 13.643 11.17.93.524 1.629.989 1.57 1.018-.203.146-17.976 6.457-26.208 9.308-4.624 1.628-8.435 2.937-8.464 2.937s-.29-.174-.582-.378l-.523-.378.843-1.221c2.734-3.956 6.167-8.29 13.643-17.307zm23.212 16.609c.028-.029 1.308.436 2.879 1.018 3.782 1.425 6.777 2.327 10.792 3.345 4.945 1.251 12.1 2.473 16.318 2.822.64.058.989.116.873.203-.204.117-4.48 1.542-7.621 2.531-5.004 1.571-20.274 6.079-32.724 9.657a335 335 0 0 1-4.392 1.251c-.29.058-1.251-.204-1.251-.32 0-.058.698-.96 1.542-1.949 4.188-5.003 8.348-10.588 11.81-15.882.959-1.455 1.774-2.647 1.774-2.676m-5.12.146c.029.029-2.036 3.344-5.642 9.045-1.542 2.415-3.259 5.149-3.87 6.109-.581.931-1.454 2.385-1.948 3.199l-.844 1.484-.436-.116c-1.048-.291-8.407-2.88-10.355-3.665-2.415-.96-4.916-2.124-6.778-3.113-2.327-1.251-5.235-3.112-5.003-3.17.058-.029 4.043-1.106 8.842-2.414 12.741-3.462 19.809-5.469 24.434-6.923.844-.262 1.571-.466 1.6-.436m36.214 8.493h.029c.117.291-4.595 13.38-6.312 17.51-.378.931-.523 1.164-.727 1.135-.494-.029-7.33-.989-11.49-1.6-7.242-1.105-19.401-3.229-22.455-3.927l-.698-.145 4.334-.99c9.308-2.094 13.787-3.228 18.325-4.624 5.73-1.745 11.403-3.927 17.133-6.603.901-.407 1.658-.727 1.861-.756"/><path fill="url(#paint1_linear_164_580)" d="M111.172 32.002c-.64-.087-10.967 3.636-17.628 6.34-8.988 3.666-15.969 7.157-20.274 10.181-1.6 1.135-3.607 3.142-3.926 3.927-.117.291-.175.64-.175.99l3.898 3.693 9.279 2.967 22.077 3.956 25.248 4.334.262-2.181c-.087 0-.146-.03-.232-.03l-3.317-.523-.668-1.192c-3.433-6.05-7.214-13.555-9.425-18.617-1.716-3.927-3.345-8.464-4.247-11.722-.494-1.978-.552-2.094-.872-2.123m-.466 1.483h.029c.029.03.145.844.262 1.803.494 4.073 1.396 8 2.822 12.247 1.076 3.2 1.076 3.025-.175 2.647-2.967-.815-16.26-3.113-25.888-4.45-1.542-.204-2.85-.408-2.85-.437-.117-.116 6.951-3.81 10.064-5.265 3.985-1.833 14.921-6.4 15.736-6.545m-28.04 13.032 1.134.377c6.166 2.095 21.67 5.062 30.222 5.76.959.087 1.774.175 1.803.175.029.029-.785.465-1.833.96-4.13 2.065-8.667 4.595-11.809 6.544-.93.582-1.774 1.047-1.89 1.047-.117 0-.727-.116-1.367-.203l-1.164-.175-2.908-2.85c-5.12-4.974-9.134-8.814-10.676-10.269zm-1.164.901 4.101 5.12c2.24 2.821 4.509 5.584 5.004 6.195s.901 1.106.872 1.135c-.116.087-5.933-1.048-9.017-1.745-3.17-.728-4.48-1.077-6.428-1.687l-1.6-.524v-.408c.029-1.949 2.502-4.857 6.69-7.824zm34.847 6.981c.117 0 .262.262.611 1.047.988 2.182 4.072 8.058 4.828 9.192.233.378.64.407-3.461-.262-9.86-1.6-13.031-2.123-13.031-2.181 0-.03.291-.233.669-.437 3.054-1.686 6.137-3.839 8.872-6.137.669-.553 1.279-1.076 1.396-1.164.028-.058.087-.087.116-.058"/><path fill="url(#paint2_radial_164_580)" d="M69.547 52.043s-.64 1.018-.03 2.531c.38.93 1.484 2.065 2.735 3.229 0 0 12.944 12.623 14.515 14.427 7.155 8.26 10.267 16.405 10.558 27.633.175 7.214-1.193 13.555-4.596 20.914-6.05 13.206-18.82 27.779-38.512 43.952l2.88-.96c1.862-1.396 4.393-2.879 10.326-6.137 13.7-7.505 29.117-14.399 48.024-21.496 27.225-10.24 71.992-22.224 97.472-26.121l2.647-.408-.407-.64c-2.327-3.607-3.927-5.846-5.847-8.231-5.584-6.923-12.361-12.537-20.652-17.191-11.402-6.37-26.15-11.344-44.824-15.038-3.519-.699-11.257-2.036-17.54-2.996-13.322-2.065-21.932-3.49-31.414-5.12-3.403-.581-8.494-1.454-11.868-2.18-1.745-.38-5.09-1.165-7.708-2.066-2.094-.815-5.12-1.63-5.76-4.102m7.505 7.272c.028-.029.494.145 1.105.35 1.105.377 2.53.813 4.218 1.28q1.914.526 3.84 1.017c1.745.436 3.199.843 3.228.843.204.204 3.142 9.599 4.13 13.206.378 1.367.67 2.53.64 2.53-.03.03-.349-.465-.727-1.134-3.403-5.992-8.785-12.071-15.01-16.958-.813-.581-1.424-1.105-1.424-1.134m14.31 3.956c.146 0 .786.087 1.571.262 4.945 1.105 13.817 2.792 19.489 3.752.96.145 1.716.32 1.716.378 0 .059-.349.262-.786.495-.959.494-4.828 2.792-6.108 3.665-3.229 2.152-6.137 4.479-8.231 6.573-.844.844-1.572 1.542-1.572 1.542s-.173-.494-.32-1.106c-1.046-4.043-3.228-10.035-5.206-14.252-.32-.67-.582-1.28-.582-1.338 0 .058 0 .03.03.03m25.19 4.8c.175.057.466 1.047 1.047 3.228 1.077 4.218 1.571 8.93 1.397 13.322-.059 1.222-.117 2.356-.175 2.502l-.087.29-1.513-.494c-3.112-.989-8.173-2.472-12.507-3.694-2.473-.669-4.479-1.28-4.479-1.338 0-.175 3.607-3.781 5.148-5.148 2.937-2.59 10.907-8.756 11.169-8.669m2.007.29c.088-.087 12.043 1.978 17.482 3.025 4.044.785 9.919 2.007 10.268 2.153.174.058-.437.407-2.386 1.28-7.678 3.461-13.38 6.573-19.051 10.355-1.484.989-2.735 1.803-2.764 1.803s-.058-.843-.058-1.861c0-5.527-1.105-11.112-3.142-15.824-.203-.465-.378-.901-.349-.931m30.92 6.109c.088.087-.291 2.443-.64 3.84-1.047 4.333-3.868 10.762-7.329 16.812-.612 1.076-1.164 1.949-1.223 1.978-.057.029-.843-.408-1.745-.931-3.374-1.978-7.213-3.84-11.402-5.585-1.163-.494-2.181-.902-2.21-.96-.204-.174 9.162-6.37 14.107-9.337 3.927-2.385 10.326-5.934 10.442-5.817m2.211.349c.262 0 5.556 1.454 8.319 2.269 6.836 2.036 14.689 4.915 19.808 7.242l2.124.96-1.483.35c-12.508 2.879-23.212 6.195-33.538 10.384-.844.349-1.6.64-1.658.64s.232-.67.611-1.484c3.112-6.603 5.119-13.497 5.613-19.373.03-.552.116-.988.204-.988m-52.706 12.1c.087-.087 4.13.873 6.311 1.483 3.316.931 10.355 3.287 10.355 3.462 0 .029-.785.698-1.715 1.513-3.811 3.17-7.476 6.515-11.869 10.762-1.309 1.251-2.413 2.269-2.472 2.269-.058 0-.087-.175-.058-.408.669-4.886.524-11.17-.407-17.54-.088-.814-.175-1.512-.145-1.54m84.964.088c.058.057-1.862 3.083-3.083 4.799-1.745 2.501-4.306 5.818-10.094 13.089-3.054 3.84-6.486 8.174-7.62 9.628-1.164 1.455-2.124 2.676-2.153 2.676s-.407-.523-.814-1.163c-3.258-4.887-7.156-9.163-11.781-13.002-.873-.728-1.832-1.513-2.152-1.746-.32-.232-.582-.465-.582-.494 0-.087 4.944-2.211 8.697-3.723 6.574-2.677 15.532-5.876 22.252-7.941 3.519-1.105 7.272-2.182 7.33-2.123m2.24.581c.116-.029.814.32 1.658.814 7.068 4.043 13.991 9.25 19.46 14.603 1.541 1.512 5.352 5.468 5.293 5.497 0 0-1.338.117-2.908.233-12.246.931-27.924 3.519-42.992 7.155-1.018.232-1.919.436-1.978.436-.057 0 1.077-1.134 2.502-2.501 8.843-8.523 12.886-13.904 17.656-23.503.669-1.425 1.251-2.647 1.309-2.734q-.043 0 0 0M121.41 94.22c.407.087 4.189 1.862 7.039 3.287 2.618 1.309 6.545 3.403 6.749 3.578.029.029-1.368.756-3.083 1.6-5.469 2.734-10.152 5.322-15.039 8.289-1.396.844-2.56 1.542-2.589 1.542-.116 0-.087-.117.698-1.542 2.618-4.77 4.712-10.471 5.905-16.027.116-.436.233-.727.32-.727m-3.782.698c.088.088-.901 3.665-1.512 5.614-1.193 3.694-3.2 8.319-5.148 11.81-.466.814-1.164 2.006-1.542 2.675l-.727 1.164-1.629-1.57c-1.891-1.833-3.433-2.968-5.41-3.986-.786-.407-1.397-.756-1.397-.814 0-.233 4.974-4.741 8.785-7.999 2.734-2.356 8.493-6.981 8.58-6.894m23.126 9.512 1.425.931c3.257 2.123 7.096 4.945 10.035 7.417 1.657 1.367 4.857 4.247 5.497 4.945l.349.378-2.356.669c-13.322 3.694-23.619 6.981-35.632 11.402-1.338.495-2.473.902-2.56.902-.174 0-.32.145 2.676-2.618 7.68-7.068 14.486-14.864 19.547-22.456zm-6.08 1.513c.058.057-3.927 5.671-6.312 8.842-2.851 3.781-7.912 10.122-11.403 14.252-1.454 1.717-2.704 3.142-2.763 3.171-.087.029-.116-.407-.116-1.076 0-3.52-.902-7.272-2.473-10.471-.669-1.338-.785-1.659-.639-1.804.552-.494 9.017-5.323 14.369-8.202 3.607-1.92 9.249-4.771 9.337-4.712m-36.767 9.017c.087 0 .757.348 1.513.756a32 32 0 0 1 5.003 3.374c.058.058-.698.669-1.687 1.396a272 272 0 0 0-9.395 7.098c-2.56 2.036-2.647 2.094-2.356 1.658 1.92-2.938 2.879-4.596 3.897-6.719a54 54 0 0 0 2.443-6.08c.233-.843.524-1.483.582-1.483m9.803 7.679c.145-.029.32.232 1.105 1.396 1.658 2.472 2.938 5.788 3.258 8.464l.058.582-3.985 1.542c-7.127 2.763-13.7 5.498-18.15 7.533a322 322 0 0 0-4.858 2.328c-1.425.727-2.589 1.279-2.589 1.25s.902-.698 2.007-1.512c8.698-6.312 16.231-13.235 21.874-20.158.611-.727 1.164-1.396 1.221-1.425zm-4.509 1.105c.117.116-3.199 3.869-5.468 6.166-5.614 5.731-11.17 10.211-18.064 14.574-.872.552-1.657 1.047-1.745 1.105-.204.116.058-.175 3.083-3.462a79 79 0 0 0 5.032-5.962c1.106-1.425 1.31-1.629 2.91-2.764 4.276-3.083 14.136-9.773 14.252-9.657"/></g><defs><linearGradient id="paint0_linear_164_580" x1="68.952" x2="82.868" y1="205.154" y2="196.931" gradientUnits="userSpaceOnUse"><stop stop-color="#909CA9"/><stop offset="1" stop-color="#EDEDEE"/></linearGradient><linearGradient id="paint1_linear_164_580" x1="69.271" x2="80.468" y1="50.139" y2="50.139" gradientUnits="userSpaceOnUse"><stop stop-color="#939FAB"/><stop offset="1" stop-color="#DCDEE1"/></linearGradient><radialGradient id="paint2_radial_164_580" cx="0" cy="0" r="1" gradientTransform="matrix(-14.27553 -2.14445 4.28995 -28.55808 125.769 101.491)" gradientUnits="userSpaceOnUse"><stop stop-color="#EE352C"/><stop offset="1" stop-color="#A91D22"/></radialGradient><clipPath id="clip0_164_580"><path fill="#fff" d="M0 0h256v256H0z"/></clipPath></defs></svg>