<svg xmlns="http://www.w3.org/2000/svg" width="256" height="256" fill="none"><rect width="256" height="256" fill="url(#gradient)" rx="60"/><path fill="#fff" d="m123.852 91.155.013.677-33.545 48.732c-5.432-.248-10.882.707-16.057 2.837a37.5 37.5 0 0 0-6.418 3.384L-5.82 116.466s-1.705 28.044 5.398 48.942l52.079 21.49c2.57 11.687 10.624 21.934 22.457 26.861a38.046 38.046 0 0 0 49.709-20.487c2.099-5.055 3.072-10.367 2.931-15.662l47.995-34.295 1.178.021c28.725 0 52.074-23.417 52.074-52.18A52.18 52.18 0 0 0 175.926 39c-28.712 0-52.074 23.392-52.074 52.155m-8.054 98.75c-6.229 14.952-23.417 22.051-38.356 15.826-6.897-2.871-12.094-8.132-15.097-14.404l16.952 7.026a21.6 21.6 0 0 0 23.546-4.646 21.6 21.6 0 0 0 4.691-7.002 21.636 21.636 0 0 0-11.632-28.28l-17.565-7.262c6.76-2.57 14.447-2.656 21.635.33 7.283 3.012 12.853 8.684 15.835 15.937 2.981 7.253 2.964 15.252-.043 22.475m60.166-63.984c-19.124 0-34.693-15.594-34.693-34.757a34.785 34.785 0 0 1 34.693-34.749 34.79 34.79 0 0 1 34.702 34.749 34.784 34.784 0 0 1-34.702 34.757m-25.996-34.813c0-14.42 11.674-26.112 26.048-26.112s26.065 11.696 26.065 26.112a26.09 26.09 0 0 1-26.065 26.104 26.1 26.1 0 0 1-18.429-7.66 26.1 26.1 0 0 1-7.619-18.444"/><linearGradient id="gradient" x1="128.001" x2="128.001" y1="0" y2="256" gradientUnits="userSpaceOnUse"><stop stop-color="#111D2E"/><stop offset=".212" stop-color="#051839"/><stop offset=".407" stop-color="#0A1B48"/><stop offset=".581" stop-color="#132E62"/><stop offset=".738" stop-color="#144B7E"/><stop offset=".873" stop-color="#136497"/><stop offset="1" stop-color="#1387B8"/></linearGradient></svg>