<svg xmlns="http://www.w3.org/2000/svg" fill="none" viewBox="0 0 256 256"><path fill="#000B1D" d="M196 0H60C26.863 0 0 26.863 0 60v136c0 33.137 26.863 60 60 60h136c33.137 0 60-26.863 60-60V60c0-33.137-26.863-60-60-60"/><path fill="#fff" d="M95.734 181.79a84.7 84.7 0 0 1-16.1-1.55 54.2 54.2 0 0 1-12.23-3.87 2.61 2.61 0 0 1-1.24-2.63v-18.89a1.1 1.1 0 0 1 .46-.93.75.75 0 0 1 .93.15 54.2 54.2 0 0 0 14.09 6.19 53 53 0 0 0 14.55 2q9.06 0 13-2.79a8.2 8.2 0 0 0 3.87-7 9.6 9.6 0 0 0-1.24-4.8 14.9 14.9 0 0 0-4.49-4.18 45.6 45.6 0 0 0-8.67-4.18l-7.9-3.41a61.2 61.2 0 0 1-15.15-8.81 23.3 23.3 0 0 1-7.44-10 31.6 31.6 0 0 1-2.17-11.61A29 29 0 0 1 70.184 90a28.7 28.7 0 0 1 12.7-11c5.57-2.63 12.7-4 21.06-4 4.765-.014 9.527.297 14.25.93a37.6 37.6 0 0 1 10.54 2.9 2.1 2.1 0 0 1 1.08 2v18a.84.84 0 0 1-.46.62.75.75 0 0 1-.93-.15 50.8 50.8 0 0 0-11-4 90.6 90.6 0 0 0-13.16-1.08 28.4 28.4 0 0 0-7.74.77 20.6 20.6 0 0 0-5.11 2 8.9 8.9 0 0 0-2.94 2.94 8.25 8.25 0 0 0-.93 3.72 7.38 7.38 0 0 0 1.38 4.44 16.4 16.4 0 0 0 4.8 4 69.5 69.5 0 0 0 9.14 4.65l5.87 2.19c7 2.94 12.39 5.88 16.26 9.14s6.66 6.66 8.21 10.53a31.9 31.9 0 0 1 2.32 12.23 28.17 28.17 0 0 1-5 16.41 32.25 32.25 0 0 1-13.73 10.85c-5.88 2.48-13 3.72-21.06 3.72zm93.37-17.19v13c0 1.08-.46 1.86-1.24 2-2 .62-4.18 1.08-6.35 1.55a37.6 37.6 0 0 1-7.59.62c-7 0-12.23-1.86-16.26-5.42-3.87-3.56-5.88-9.45-5.88-17.34v-39.15h-9.45c-.93 0-1.24-.46-1.24-1.39v-15.8c0-.93.46-1.24 1.39-1.24h9.45c.15-1.86.15-3.87.46-6.19.15-2.32.31-4.8.62-7.12.15-2.32.46-4.34.62-5.88.15-.31.15-.62.46-.93q.34-.366.77-.62l18.87-2.33a.69.69 0 0 1 .77 0c.22.259.331.592.31.93-.15 2.48-.31 5.73-.46 9.91s-.15 8.21-.31 12.23h14.71c.62 0 .93.46.93 1.24v16.1c0 .62-.15.93-.77 1.08h-15v33.91c0 3.56.62 6.19 1.86 7.74s3.41 2.32 6.66 2.32c.879.032 1.76-.018 2.63-.15.93 0 1.7-.15 2.63-.15a.735.735 0 0 1 .93.15.94.94 0 0 1 .48.94z"/></svg>