<svg xmlns="http://www.w3.org/2000/svg" fill="none" viewBox="0 0 256 256"><rect width="256" height="256" fill="#F4F2ED" rx="60"/><path fill="#09B3AF" d="M143.375 130.013h-38.298v18.371h37.377c2.21 0 4.234-.918 5.891-2.388 1.473-1.47 2.394-3.674 2.394-6.43a11 11 0 0 0-2.026-6.614c-1.474-1.835-3.13-2.939-5.338-2.939m1.289-22.226c1.656-1.104 2.393-3.492 2.393-6.615 0-2.756-.737-4.775-2.026-6.061-1.29-1.103-2.947-1.837-4.787-1.837h-35.167v16.532h34.43c1.842 0 3.684-.918 5.157-2.019"/><path fill="#09B3AF" d="M200.82 40H56.285C51.684 40 48 43.674 48 48.083v144.389c0 4.409 3.684 7.165 8.101 7.165h21.358v28.84l26.513-28.656h96.848c4.419 0 7.18-2.756 7.18-7.349V48.267c0-4.41-2.763-8.083-7.364-8.083zm-24.305 117.017c-1.841 3.307-4.603 6.061-7.916 8.084-3.5 2.204-7.366 4.225-11.785 5.142-4.419 1.104-9.205 2.021-14.176 2.021h-65.18V69.391h74.018c3.682 0 6.811.737 9.757 2.39 2.763 1.468 5.341 3.49 7.366 5.877a27.52 27.52 0 0 1 6.259 17.82c0 4.775-1.29 9.368-3.682 13.777a23 23 0 0 1-11.047 9.919c5.891 1.655 10.494 4.594 13.994 8.818 3.313 4.409 4.969 10.104 4.969 17.269 0 4.593-.921 8.451-2.761 11.756z"/></svg>