<svg xmlns="http://www.w3.org/2000/svg" width="256" height="256" fill="none"><g clip-path="url(#clip0_545_2)"><path fill="#F4F2ED" d="M206 0H50C22.386 0 0 22.386 0 50v156c0 27.614 22.386 50 50 50h156c27.614 0 50-22.386 50-50V50c0-27.614-22.386-50-50-50"/><path fill="#FF4785" d="m55.089 210.905-6.082-162.05a9.87 9.87 0 0 1 9.248-10.22l137.834-8.615c5.441-.34 10.127 3.795 10.467 9.235q.02.307.02.616v176.581c0 5.452-4.42 9.871-9.871 9.871q-.222 0-.443-.01L64.51 220.396a9.87 9.87 0 0 1-9.421-9.491"/><path fill="#fff" d="m165.358 54.131.941-22.644L185.228 30l.815 23.352a1.472 1.472 0 0 1-2.382 1.208l-7.3-5.75-8.642 6.555a1.472 1.472 0 0 1-2.361-1.234m-24.208 49.866c0 3.84 25.867 2 29.339-.698 0-26.151-14.032-39.893-39.727-39.893s-40.091 13.956-40.091 34.89c0 36.459 49.203 37.157 49.203 57.044 0 5.582-2.734 8.897-8.747 8.897-7.836 0-10.934-4.002-10.57-17.609 0-2.952-29.886-3.872-30.798 0-2.32 32.974 18.224 42.485 41.732 42.485 22.78 0 40.639-12.142 40.639-34.122 0-39.076-49.933-38.03-49.933-57.393 0-7.85 5.832-8.897 9.294-8.897 3.645 0 10.205.642 9.659 15.296"/></g><defs><clipPath id="clip0_545_2"><path fill="#fff" d="M0 0h256v256H0z"/></clipPath></defs></svg>