<svg xmlns="http://www.w3.org/2000/svg" width="256" height="256" fill="none"><rect width="256" height="256" fill="#4945FF" rx="60"/><path fill="#fff" fill-rule="evenodd" d="M192.942 58H89v53h53v53h53V60.058A2.06 2.06 0 0 0 192.942 58" clip-rule="evenodd"/><path fill="#9593FF" d="M89.368 110.816h50.765a2.05 2.05 0 0 1 2.051 2.051v50.765H91.419a2.05 2.05 0 0 1-2.051-2.051zm52.816 52.816H195l-51.065 51.066c-.647.646-1.751.188-1.751-.725zm-52.816-52.816h-50.34c-.914 0-1.372-1.104-.725-1.751L89.368 58z"/></svg>