<svg xmlns="http://www.w3.org/2000/svg" fill="none" viewBox="0 0 256 256"><path fill="#282828" d="M196 0H60C26.863 0 0 26.863 0 60v136c0 33.137 26.863 60 60 60h136c33.137 0 60-26.863 60-60V60c0-33.137-26.863-60-60-60"/><path fill="#FF4B4B" d="m127.631 143.259-39.495-20.877-68.557-36.234c-.063-.062-.188-.062-.25-.062-2.504-1.19-5.07 1.314-4.13 3.817l34.932 89.096.006.019c.038.088.069.175.106.263 1.433 3.323 4.563 5.375 7.967 6.182.288.064.494.12.84.189.343.077.825.181 1.238.212.068.006.13.006.2.012h.05c.05.007.1.007.15.013h.069c.044.006.094.006.138.006h.08q.076.009.151.007a614 614 0 0 0 133.116 0c.531 0 1.051-.026 1.551-.075l.476-.056c.019-.007.044-.007.063-.013q.159-.021.319-.051c.156-.018.313-.049.469-.081.313-.069.455-.118.88-.265.425-.145 1.13-.401 1.57-.613.442-.213.748-.417 1.117-.648.457-.289.892-.583 1.332-.913.19-.146.32-.239.458-.371l-.075-.043z"/><path fill="#7D353B" d="M235.796 86.149h-.062l-68.583 36.234 38.124 56.779 34.845-89.259v-.125c.876-2.628-1.814-5.006-4.324-3.63"/><path fill="#BD4043" d="M131.286 68.92c-1.753-2.56-5.57-2.56-7.26 0l-35.89 53.462 39.495 20.877 74.847 39.557c.47-.461.847-.909 1.245-1.383a16 16 0 0 0 1.552-2.271l-38.124-56.78z"/></svg>