<svg xmlns="http://www.w3.org/2000/svg" width="256" height="256" fill="none"><path fill="#282828" d="M196 0H60C26.863 0 0 26.863 0 60v136c0 33.137 26.863 60 60 60h136c33.137 0 60-26.863 60-60V60c0-33.137-26.863-60-60-60"/><path fill="#635BFF" fill-rule="evenodd" d="M230 129.075c0-14.578-7.061-26.081-20.557-26.081-13.553 0-21.753 11.503-21.753 25.967 0 17.14 9.681 25.796 23.575 25.796 6.777 0 11.902-1.538 15.774-3.702v-11.388c-3.872 1.936-8.314 3.132-13.951 3.132-5.524 0-10.421-1.937-11.048-8.656h27.846c0-.74.114-3.701.114-5.068m-28.13-5.41c0-6.435 3.929-9.111 7.516-9.111 3.474 0 7.175 2.676 7.175 9.111zm-36.16-20.671c-5.581 0-9.168 2.62-11.161 4.442l-.74-3.531h-12.528v66.398l14.236-3.018.057-16.116c2.05 1.481 5.068 3.588 10.079 3.588 10.193 0 19.475-8.2 19.475-26.252-.057-16.513-9.453-25.511-19.418-25.511m-3.417 39.235c-3.359 0-5.353-1.196-6.719-2.676l-.057-21.127c1.48-1.651 3.53-2.79 6.776-2.79 5.182 0 8.77 5.808 8.77 13.268 0 7.631-3.531 13.325-8.77 13.325m-40.602-42.594 14.293-3.075V85l-14.293 3.018z" clip-rule="evenodd"/><path fill="#635BFF" d="M135.984 103.963h-14.293v49.826h14.293z"/><path fill="#635BFF" fill-rule="evenodd" d="m106.374 108.176-.911-4.214h-12.3v49.827h14.236v-33.768c3.359-4.385 9.054-3.588 10.819-2.961v-13.098c-1.822-.683-8.485-1.936-11.844 4.214m-28.473-16.57-13.894 2.96-.057 45.613c0 8.428 6.32 14.635 14.748 14.635 4.67 0 8.086-.854 9.966-1.879v-11.56c-1.823.74-10.82 3.36-10.82-5.068v-20.215h10.82v-12.129h-10.82zm-38.494 26.82c0-2.221 1.822-3.075 4.84-3.075 4.328 0 9.795 1.31 14.122 3.645v-13.382c-4.726-1.879-9.395-2.62-14.122-2.62-11.56 0-19.247 6.036-19.247 16.116 0 15.716 21.639 13.211 21.639 19.987 0 2.62-2.278 3.474-5.467 3.474-4.726 0-10.762-1.936-15.546-4.556v13.553c5.296 2.278 10.649 3.246 15.546 3.246 11.845 0 19.988-5.865 19.988-16.059-.057-16.969-21.753-13.951-21.753-20.329" clip-rule="evenodd"/></svg>