<svg xmlns="http://www.w3.org/2000/svg" fill="none" viewBox="0 0 256 256"><rect width="256" height="256" fill="#F4F2ED" rx="60"/><path fill="#282828" d="M53.13 110.01c2.266 0 4.099.31 5.491.93q2.088.927 2.088 2.32-.002 1.702-.852 3.866-.852 2.165-1.624 3.556-.31.31-.773.078-.465-.231-.465-.851.465-1.08.465-3.093 0-2.166-1.16-3.557t-3.17-1.391q-2.63 0-4.253 1.623c-1.082 1.082-1.623 2.605-1.623 4.561q0 2.477 1.314 4.717a55 55 0 0 0 2.938 4.486 44 44 0 0 1 3.016 4.794q1.392 2.553 1.392 5.799 0 5.567-4.484 8.658-4.486 3.096-11.753 3.094-5.258 0-8.273-1.701-3.017-1.699-3.016-3.711 0-.617.464-1.701.462-1.079 1.238-2.321.799-1.273 1.701-2.475.926-1.234 2.01-2.007.464-.311.851.153.385.463.078.928-.928.927-1.392 1.933-.465 1.006-.465 2.706c0 1.855.62 3.378 1.858 4.56q1.854 1.781 4.792 1.78 4.02 0 6.264-2.242 2.241-2.24 2.242-5.491-.001-2.937-1.315-5.489a60 60 0 0 0-2.86-4.949 66 66 0 0 1-2.862-4.873 11 11 0 0 1-1.314-5.258q-.001-4.019 3.403-6.725c2.264-1.8 5.615-2.707 10.05-2.707m42.216.776q.773.31.62.851-.156.542-1.393.851-2.319.001-5.334.153-3.019.157-6.418.464c-2.065 5.054-3.765 9.974-5.104 14.769q-2.01 7.19-2.01 11.676-.002 5.255 4.02 5.255 4.02.001 8.971-6.956.463-.31.849 0 .385.309.234 1.082c-1.748 2.88-4 5.421-6.65 7.501q-4.024 3.17-7.887 3.169c-2.683 0-4.667-.641-5.954-1.933q-1.934-1.932-1.934-5.336-.001-4.482 2.164-12.371c1.444-5.258 3.3-10.616 5.57-16.083a71 71 0 0 0-7.424 1.238q-.776-.151-.387-.773c.256-.41.72-.851 1.392-1.314q1.004-.697 2.396-1.238 1.391-.54 2.63-.541h1.237q.618 0 1.237-.154 1.963-4.39 4.175-8.661 2.163-4.174 4.33-7.578.928-1.08 2.551-1.934a18.3 18.3 0 0 1 3.17-1.314q1.544-.462 2.553-.541c.669-.05.95.131.852.541-1.756 2.683-3.48 5.672-5.183 8.97a162 162 0 0 0-4.87 10.361q2.937-.153 5.953-.154z"/><path fill="#B3D107" d="M189.171 33.413h1.546l1.261.387.982.773.977.772.671 1.032.362 1.29.36 1.288.05 1.47-.256 1.648-.258 1.651-.592 1.65-.928 1.648-.207.206h-.257l-.309-.206-.309-.207-.207-.256-.102-.31.205-1.238-.437-1.03-1.083-.825-1.082-.824-1.678-.414h-6.494l-4.252 1.573-4.278 3.144-4.279 3.146-4.15 4.151-4.019 5.152-4.021 5.156-3.764 5.93-3.504 6.699-3.504 6.694-3.048 6.923-2.573 7.105-2.577 7.113-2.038 7.062-1.493 7.011-1.495 7.012-.746 6.39v8.866l.875 1.547h2.991l1.211-.515 1.185-1.032 1.184-1.03 1.369-1.545 1.546-2.065.309-.203.283.025.257.257.257.26.078.333-.101.411-2.065 3.093-2.42 2.578-2.784 2.061-2.783 2.064-2.528 1.029h-4.226l-1.365-.567-.773-1.135-.772-1.133-.388-1.441v-6.6l1.029-6.059 2.065-7.265 2.061-7.269 2.755-7.68 3.457-8.094 3.453-8.093 3.995-8.067 4.537-8.041 4.536-8.042 4.717-7.241 4.897-6.444 4.896-6.443 4.925-5.233 4.947-4.022 4.946-4.022 4.639-2.01h4.332zL51.867 223.439H50.32l-1.261-.387-.982-.773-.978-.773-.67-1.032-.362-1.289-.36-1.289-.05-1.468.256-1.65.259-1.65.591-1.649.928-1.649.207-.208h.257l.31.208.308.205.207.258.102.31-.205 1.238.437 1.03 1.083.825 1.082.823 1.677.413h6.495l4.253-1.572 4.276-3.145 4.28-3.143 4.15-4.15 4.02-5.153 4.02-5.156 3.765-5.928 3.504-6.701 3.503-6.695 3.048-6.923 2.572-7.105 2.578-7.113 2.038-7.062 1.494-7.011 1.494-7.011.746-6.391v-8.867l-.875-1.546h-2.991l-1.211.514-1.185 1.032-1.184 1.029-1.369 1.549-1.546 2.062-.308.203-.283-.025-.258-.256-.256-.259-.078-.335.101-.413 2.064-3.09 2.421-2.58 2.784-2.062 2.783-2.061 2.527-1.029h4.227l1.365.564.772 1.135.774 1.135.387 1.443v6.599l-1.03 6.056-2.064 7.269-2.061 7.269-2.756 7.679-3.456 8.094-3.453 8.092-3.996 8.068-4.535 8.041-4.537 8.041-4.717 7.242-4.897 6.444-4.895 6.443-4.925 5.233-4.949 4.02-4.946 4.022-4.64 2.011h-4.329z"/><path fill="#282828" d="M156.331 149.6q-6.495 0-6.495-7.113-.002-2.474.541-5.721c.36-2.167.929-4.406 1.701-6.727a86 86 0 0 1 2.706-7.038 43.3 43.3 0 0 1 3.711-6.803 52 52 0 0 0-3.246 2.243 26 26 0 0 0-2.784 2.396q-.465.313-.851-.232-.387-.54-.077-1.004c1.752-1.857 4.253-3.762 7.5-5.724 3.247-1.955 6.365-3.504 9.357-4.638q.772.001 1.159.388.386.388.078 1.003a59.4 59.4 0 0 0-7.965 14.073q-3.015 7.58-3.015 14.692 0 4.486 2.784 4.484 2.007 0 4.948-2.706 2.938-2.706 6.187-7.114 3.245-4.407 6.572-9.973a150 150 0 0 0 6.11-11.291c.307-.617 1.211-1.236 2.704-1.855q2.242-.93 4.563-.93c1.547 0 2.01.416 1.392 1.239a149 149 0 0 0-3.789 7.5 57 57 0 0 0-2.706 6.881 46 46 0 0 0-1.624 6.881q-.543 3.48-.541 7.654c0 3.302.875 4.948 2.629 4.948q2.628.001 5.876-4.639.466-.304.928 0 .463.315.31.929-2.632 4.021-5.799 6.11-3.172 2.085-5.799 2.085-6.496 0-6.495-7.576-.001-7.886 2.783-15.62-5.878 10.67-12.371 16.934-6.498 6.266-10.982 6.264m63.865-39.59c2.266 0 4.099.31 5.491.93q2.088.927 2.087 2.32-.001 1.702-.85 3.866-.852 2.165-1.625 3.556-.31.31-.773.078t-.463-.851q.464-1.08.464-3.093 0-2.166-1.16-3.557t-3.17-1.391q-2.63 0-4.252 1.623-1.625 1.626-1.624 4.561 0 2.477 1.314 4.717a55 55 0 0 0 2.938 4.486 44 44 0 0 1 3.016 4.794q1.392 2.553 1.392 5.799 0 5.567-4.484 8.658-4.487 3.096-11.753 3.094-5.26 0-8.274-1.701-3.016-1.699-3.015-3.711 0-.617.463-1.701.462-1.079 1.237-2.321.799-1.273 1.701-2.475.928-1.234 2.011-2.007.464-.311.85.153t.078.928q-.927.927-1.392 1.933t-.464 2.706c0 1.855.619 3.378 1.856 4.56q1.855 1.781 4.794 1.78 4.018 0 6.264-2.242 2.24-2.24 2.242-5.491-.001-2.937-1.315-5.489a59 59 0 0 0-2.86-4.949 66 66 0 0 1-2.862-4.873 11 11 0 0 1-1.314-5.258q0-4.019 3.401-6.725c2.266-1.8 5.616-2.707 10.051-2.707"/></svg>