<svg xmlns="http://www.w3.org/2000/svg" width="256" height="256" fill="none"><path fill="#282828" d="M196 0H60C26.863 0 0 26.863 0 60v136c0 33.137 26.863 60 60 60h136c33.137 0 60-26.863 60-60V60c0-33.137-26.863-60-60-60"/><g clip-path="url(#clip0_85_152)"><path fill="url(#paint0_linear_85_152)" d="m127.5 81.302 46.382 25.711V96.705L127.5 71.054c-6.899 3.82-40.239 22.268-46.382 25.65 5.706 3.165 65.627 36.298 102.049 56.437v10.269c-4.951 2.746-55.667 30.785-55.667 30.785a51370 51370 0 0 1-55.667-30.785v-30.786L127.5 163.41l9.284-5.135-74.235-41.033v51.322l64.951 35.899c6.402-3.542 60.2-33.292 64.931-35.919v-20.517L99.667 96.705zm-64.951 5.134v20.537l92.764 51.322-27.833 15.403-46.382-25.711v10.308l46.382 25.651a56599 56599 0 0 1 46.382-25.651c-5.705-3.164-65.607-36.297-102.029-56.456V91.571c4.95-2.747 55.667-30.786 55.667-30.786 13.857 7.682 41.79 23.124 55.667 30.786v30.785L127.5 91.571l-9.284 5.134 74.215 41.053V86.436L127.5 50.516c-6.422 3.563-60.2 33.314-64.951 35.92M127.5 30 44 76.188v102.624L127.5 225l83.5-46.168V76.188zm74.196 143.678L127.5 214.732l-74.216-41.054V81.322L127.5 40.268l74.216 41.054z"/></g><defs><linearGradient id="paint0_linear_85_152" x1="84.427" x2="170.705" y1="52.825" y2="202.119" gradientUnits="userSpaceOnUse"><stop stop-color="#FF00A0"/><stop offset="1" stop-color="#9600FF"/></linearGradient><clipPath id="clip0_85_152"><path fill="#fff" d="M44 30h167v195H44z"/></clipPath></defs></svg>