<svg xmlns="http://www.w3.org/2000/svg" fill="none" viewBox="0 0 256 256"><g clip-path="url(#clip0_572_35)"><path fill="#fff" d="M196 0H60C26.863 0 0 26.863 0 60v136c0 33.137 26.863 60 60 60h136c33.137 0 60-26.863 60-60V60c0-33.137-26.863-60-60-60"/><path fill="#809CC9" fill-rule="evenodd" d="M-47.472 0v92.572C-.057 72.722 63.408 52.757 143.06 32.63 194.09 19.758 243.415 8.89 291.037 0zm226.755 44.03c-41.795 10.546-75.416 21.277-100.862 32.169-25.492 10.662-37.397 19.343-35.716 25.998 1.474 5.872 12.136 8.544 32.055 7.968 10.224-.184 26.827-1.29 49.855-3.339 23.028-2.027 52.734-4.997 89.118-8.866 36.038-3.753 65.813-6.31 89.739-7.783v-70.35c-46.24 6.908-87.69 14.968-124.189 24.202m-20.932 95.495c-18.1 1.359-40.552 3.432-67.403 6.264-41.657 4.467-76.268 7.852-103.809 10.132-13.172 1.106-24.64 1.912-34.61 2.487v75.025c54.644-8.06 104.062-17.64 148.137-28.762 43.315-10.938 76.683-21.554 100.125-31.847 23.419-10.317 34.219-18.975 32.446-26.068-1.543-6.125-12.366-9.257-32.423-9.395-10.27.115-24.409.829-42.463 2.164m145.121 24.272c-48.036 18.929-107.632 37.374-178.834 55.359C58.295 235.897.978 247.94-47.472 255.332V256h350.944z" clip-rule="evenodd"/><path fill="#fff" fill-rule="evenodd" d="M12.632 177c.692 0 1.28.262 1.783.786.502.507.762 1.101.762 1.8 0 .734-.26 1.363-.762 1.87a2.46 2.46 0 0 1-1.818.751c-.727 0-1.333-.244-1.835-.751-.502-.524-.762-1.136-.762-1.87 0-.716.26-1.328.762-1.835s1.142-.751 1.87-.751m1.783 17.562a2.53 2.53 0 0 1 .762 1.852c0 .716-.26 1.328-.762 1.835-.537.506-1.143.751-1.818.751-.364 0-.71-.07-1.022-.21a2.4 2.4 0 0 1-.813-.541 2.3 2.3 0 0 1-.554-.839 2.55 2.55 0 0 1-.208-1.031c0-.717.26-1.328.762-1.835a2.56 2.56 0 0 1 1.87-.769c.692 0 1.28.262 1.783.787M21.69 177c.693 0 1.281.262 1.783.786.502.507.762 1.101.762 1.8 0 .734-.26 1.363-.762 1.87a2.46 2.46 0 0 1-1.817.751c-.728 0-1.35-.244-1.853-.751-.502-.524-.744-1.136-.744-1.87 0-.716.242-1.328.744-1.835.52-.506 1.16-.751 1.887-.751m1.783 17.562a2.53 2.53 0 0 1 .762 1.852c0 .716-.26 1.328-.762 1.835-.536.506-1.142.751-1.817.751-.364 0-.71-.07-1.022-.21a2.6 2.6 0 0 1-.831-.541 2.5 2.5 0 0 1-.537-.839 2.55 2.55 0 0 1-.207-1.031c0-.717.242-1.328.744-1.835a2.63 2.63 0 0 1 1.887-.769c.693 0 1.281.262 1.783.787" clip-rule="evenodd"/></g><defs><clipPath id="clip0_572_35"><rect width="256" height="256" fill="#fff" rx="60"/></clipPath></defs></svg>