<svg xmlns="http://www.w3.org/2000/svg" viewBox="0 0 256 256"><g id="Page-1" fill="none" fill-rule="evenodd" stroke="none" stroke-width="1"><g id="swagger-dark" fill-rule="nonzero"><path id="Path" fill="#282828" d="M196 0H60C26.863 0 0 26.863 0 60v136c0 33.137 26.863 60 60 60h136c33.137 0 60-26.863 60-60V60c0-33.137-26.863-60-60-60"/><g id="Group" transform="translate(23.242 23.244)"><path id="Path" fill="#558139" d="M104.757 209.512C46.995 209.512 0 162.52 0 104.756S46.995 0 104.757 0s104.757 46.995 104.757 104.758-46.995 104.754-104.757 104.754"/><path id="Shape" fill="#FFF" d="M64.997 70.331c-.34 3.75.125 7.627-.126 11.418-.297 3.794-.763 7.544-1.524 11.294-1.059 5.35-4.403 9.396-9.014 12.767 8.974 5.815 9.988 14.83 10.58 23.975.297 4.93.17 9.903.678 14.79.38 3.79 1.86 4.761 5.8 4.886 1.607.042 3.255 0 5.121 0v11.714c-11.639 1.98-21.246-1.306-23.618-11.123-.764-3.58-1.272-7.247-1.44-10.956-.254-3.918.168-7.837-.127-11.755-.847-10.746-2.244-14.369-12.569-14.875V99.11A20 20 0 0 1 41 98.731c5.672-.296 8.083-2.024 9.31-7.585a64 64 0 0 0 1.06-9.48c.424-6.109.254-12.344 1.31-18.412 1.481-8.722 6.9-12.936 15.916-13.442 2.539-.127 5.122 0 8.041 0V61.78c-1.227.086-2.286.252-3.386.252-7.322-.254-7.704 2.232-8.254 8.3M79.09 98.056h-.17c-4.233-.21-7.872 3.076-8.085 7.29-.211 4.256 3.089 7.88 7.322 8.089h.508c4.191.254 7.786-2.95 8.041-7.121v-.42c.086-4.256-3.342-7.752-7.616-7.838m26.537 0c-4.105-.127-7.535 3.076-7.66 7.121 0 .254 0 .464.043.716 0 4.593 3.131 7.544 7.872 7.544 4.656 0 7.578-3.034 7.578-7.796-.044-4.593-3.135-7.626-7.833-7.585m27.174 0c-4.317-.085-7.916 3.33-8.042 7.627 0 4.297 3.47 7.752 7.787 7.752h.085c3.895.674 7.83-3.076 8.086-7.583.209-4.173-3.6-7.796-7.916-7.796m37.287.631c-4.91-.21-7.366-1.853-8.591-6.49a47 47 0 0 1-1.397-9.059c-.339-5.647-.297-11.335-.678-16.982-.889-13.398-10.622-18.074-24.76-15.759v11.63c2.242 0 3.978 0 5.714.042 3.005.042 5.291 1.18 5.586 4.51.297 3.034.297 6.109.594 9.186.594 6.111.93 12.303 1.989 18.33.933 4.971 4.36 8.68 8.633 11.713-7.49 5.014-9.691 12.176-10.072 20.225-.211 5.52-.339 11.081-.634 16.645-.255 5.055-2.03 6.698-7.152 6.825-1.44.041-2.836.168-4.444.254v11.924c3.005 0 5.755.169 8.505 0 8.55-.506 13.713-4.635 15.408-12.895a107 107 0 0 0 1.269-13.735c.295-4.214.255-8.47.678-12.64.633-6.532 3.639-9.228 10.2-9.649a9 9 0 0 0 1.821-.42v-13.36c-1.102-.126-1.866-.251-2.669-.295"/></g></g></g></svg>