<svg xmlns="http://www.w3.org/2000/svg" viewBox="0 0 256 256"><g id="Page-1" fill="none" fill-rule="evenodd" stroke="none" stroke-width="1"><g id="swagger-light" fill-rule="nonzero"><path id="Path" fill="#F4F2ED" d="M196 0H60C26.863 0 0 26.863 0 60v136c0 33.137 26.863 60 60 60h136c33.137 0 60-26.863 60-60V60c0-33.137-26.863-60-60-60"/><g id="Group" transform="translate(18 18)"><path id="Path" fill="#85EA2D" d="M109.999 214.756C52.237 214.756 5.242 167.765 5.242 110S52.237 5.244 109.999 5.244 214.756 52.24 214.756 110.002 167.76 214.756 109.999 214.756"/><path id="Shape" fill="#173647" d="M109.999 10.486c54.96 0 99.513 44.552 99.513 99.514 0 54.96-44.552 99.514-99.513 99.514-54.959 0-99.513-44.555-99.513-99.514 0-54.96 44.554-99.514 99.513-99.514m0-10.486C49.345 0 0 49.346 0 110s49.345 110 109.999 110S220 170.654 220 110 170.653 0 109.999 0"/><path id="Shape" fill="#173647" d="M70.239 75.575c-.34 3.75.125 7.627-.126 11.419-.297 3.793-.763 7.543-1.525 11.293-1.058 5.35-4.402 9.396-9.013 12.767 8.974 5.816 9.988 14.831 10.58 23.976.297 4.93.17 9.902.678 14.789.38 3.791 1.86 4.761 5.8 4.886 1.607.042 3.255 0 5.12 0v11.714c-11.638 1.98-21.246-1.305-23.617-11.122-.764-3.582-1.272-7.248-1.44-10.956-.254-3.919.168-7.837-.127-11.756-.847-10.746-2.244-14.368-12.569-14.874v-13.357a20 20 0 0 1 2.242-.379c5.672-.296 8.083-2.024 9.31-7.585a64 64 0 0 0 1.059-9.48c.425-6.108.255-12.344 1.311-18.412 1.481-8.721 6.9-12.936 15.916-13.442 2.539-.127 5.122 0 8.041 0v11.968c-1.227.086-2.286.252-3.386.252-7.322-.254-7.704 2.232-8.254 8.3m14.093 27.726h-.169c-4.233-.21-7.872 3.075-8.085 7.289-.212 4.256 3.089 7.88 7.322 8.089h.508c4.191.254 7.786-2.95 8.041-7.121v-.42c.086-4.256-3.342-7.752-7.617-7.837m26.538 0c-4.105-.128-7.535 3.075-7.66 7.12 0 .254 0 .465.043.717 0 4.593 3.131 7.543 7.872 7.543 4.656 0 7.578-3.034 7.578-7.795-.044-4.593-3.136-7.627-7.833-7.585m27.174 0c-4.317-.086-7.916 3.329-8.042 7.626 0 4.298 3.47 7.752 7.787 7.752h.085c3.895.674 7.83-3.075 8.086-7.583.209-4.173-3.6-7.795-7.916-7.795m37.287.63c-4.91-.21-7.366-1.853-8.591-6.49a47 47 0 0 1-1.397-9.059c-.34-5.646-.297-11.335-.678-16.981-.889-13.399-10.622-18.075-24.76-15.76v11.63c2.242 0 3.978 0 5.714.043 3.005.041 5.291 1.18 5.586 4.51.297 3.033.297 6.108.594 9.186.594 6.11.93 12.303 1.989 18.328.933 4.972 4.36 8.68 8.633 11.714-7.49 5.014-9.691 12.176-10.072 20.226-.211 5.52-.339 11.08-.634 16.644-.255 5.055-2.03 6.698-7.152 6.825-1.44.041-2.836.168-4.445.254v11.924c3.006 0 5.756.169 8.506 0 8.55-.506 13.713-4.635 15.407-12.894a107 107 0 0 0 1.27-13.736c.295-4.214.255-8.47.678-12.64.633-6.532 3.639-9.228 10.2-9.649a9 9 0 0 0 1.821-.42v-13.359c-1.102-.127-1.866-.252-2.669-.296"/></g></g></g></svg>