<svg xmlns="http://www.w3.org/2000/svg" width="256" height="256" fill="none"><path fill="#282828" d="M196 0H60C26.863 0 0 26.863 0 60v136c0 33.137 26.863 60 60 60h136c33.137 0 60-26.863 60-60V60c0-33.137-26.863-60-60-60"/><path fill="#7099A6" d="M125.202 49.97v8.003h-14.314v5.206h14.314v15.94h5.596V63.18h14.672v-5.206h-14.672V42h-5.596z"/><path fill="#EB912C" d="M78.42 70.27v11.615H56.755v7.287h21.667v23.586h8.035V89.172h21.992v-7.287H86.456V58.657h-8.035z"/><path fill="#59879B" d="M169.218 70.27v11.615h-21.666v7.645h21.666v23.228h8.361V89.53h21.667v-7.645h-21.667V58.657h-8.361z"/><path fill="#E8762C" d="M123.12 109.83v13.013H99.014v9.694h24.106v26.026h9.76v-26.026h24.106v-9.694H132.88V96.817h-9.76z"/><path fill="#5B6591" d="M194.009 116.402v8.165h-14.673v6.604h14.673v16.299h7.319v-16.299H216v-6.604h-14.672v-16.298h-7.319z"/><path fill="#7099A6" d="M54.314 117.117v7.808H40v5.531h14.314v15.615h5.596v-15.615l14.672-.521v-5.01H59.91V109.31h-5.596z"/><path fill="#C72035" d="M78.42 153.879v11.614H56.755v7.645h21.667v23.228h8.36v-23.228h21.667v-7.645H86.782v-23.228H78.42z"/><path fill="#1F447E" d="M169.218 153.879v11.614h-21.666v7.287h21.666v23.586h8.361V172.78h21.667v-7.287h-21.667v-23.228h-8.361z"/><path fill="#5B6591" d="M124.519 183.386v8.133h-14.672v6.604h14.672v16.298h7.32v-16.298h14.672v-6.604h-14.672V175.22h-7.32z"/></svg>