<svg xmlns="http://www.w3.org/2000/svg" width="256" height="256" fill="none"><path fill="#282828" d="M196 0H60C26.863 0 0 26.863 0 60v136c0 33.137 26.863 60 60 60h136c33.137 0 60-26.863 60-60V60c0-33.137-26.863-60-60-60"/><path fill="#5059C9" d="M203.252 106.898h-40.585c-4.304 0-3.314 3.659-3.314 7.963v39.467a25.827 25.827 0 0 0 25.823 25.824 25.823 25.823 0 0 0 25.823-25.824v-39.467a7.833 7.833 0 0 0-7.747-7.963m-18.162-7.402c9.555 0 17.301-7.92 17.301-17.69s-7.746-17.689-17.301-17.689-17.301 7.92-17.301 17.69c0 9.769 7.746 17.689 17.301 17.689"/><path fill="#7B83EB" d="M97.765 106.898h67.441a7.9 7.9 0 0 1 5.544 2.368 7.87 7.87 0 0 1 2.246 5.595v48.29a42.004 42.004 0 0 1-41.532 42.437 41.96 41.96 0 0 1-41.488-42.394v-48.333a7.84 7.84 0 0 1 2.217-5.592 7.85 7.85 0 0 1 5.53-2.371zm33.699-7.403c13.382 0 24.231-11.08 24.231-24.747S144.846 50 131.464 50s-24.23 11.08-24.23 24.748c0 13.667 10.848 24.747 24.23 24.747"/><g fill="#000" opacity=".67"><path d="M97.765 106.899a7.85 7.85 0 0 0-5.541 2.34 7.83 7.83 0 0 0-2.249 5.58v48.29a42.2 42.2 0 0 0 4.778 19.755h26.296a6.87 6.87 0 0 0 6.415-4.171 6.9 6.9 0 0 0 .557-2.629v-69.165z" opacity=".1"/><path d="M97.766 106.899a7.85 7.85 0 0 0-5.542 2.34 7.83 7.83 0 0 0-2.248 5.58v48.29a43 43 0 0 0 2.625 14.763h28.448a6.9 6.9 0 0 0 2.642-.491 6.89 6.89 0 0 0 4.33-6.31v-64.172zm30.126-7.791a6.844 6.844 0 0 0-6.843-6.24h-5.939a23.45 23.45 0 0 0 12.782 6.24" opacity=".2"/><path d="M97.766 106.899a7.85 7.85 0 0 0-5.542 2.34 7.83 7.83 0 0 0-2.248 5.58v48.29a44 44 0 0 0 1.248 10.286h37.357a5.26 5.26 0 0 0 3.688-1.598 5.26 5.26 0 0 0 1.476-3.738v-61.16zm11.964-21.434a24.02 24.02 0 0 0 21.519 13.988 8.2 8.2 0 0 0 2.281-.216v-8.392a5.25 5.25 0 0 0-5.164-5.294z" opacity=".1"/><path d="M110.935 87.703a23.85 23.85 0 0 0 20.529 11.75 8 8 0 0 0 2.238-.215v-6.112a5.25 5.25 0 0 0-5.164-5.294h-17.603zm-13.169 19.196a7.83 7.83 0 0 0-7.79 7.919v48.29a43.5 43.5 0 0 0 1.592 11.75l36.324.474a6.33 6.33 0 0 0 5.81-5.897v-62.708z" opacity=".1"/><path d="M127.849 99.108V86.713a5.24 5.24 0 0 0-1.507-3.726 5.26 5.26 0 0 0-3.701-1.568h-14.374a24.23 24.23 0 0 0 19.582 17.69m-30.083 7.79a7.85 7.85 0 0 0-5.542 2.34 7.83 7.83 0 0 0-2.248 5.58v48.032l27.329-3.702c2.883 0 10.544-2.539 10.544-5.466v-46.784z" opacity=".01"/><path d="M97.766 106.899a7.85 7.85 0 0 0-5.542 2.34 7.83 7.83 0 0 0-2.248 5.58v48.29a43 43 0 0 0 3.658 17.216h27.544a6.88 6.88 0 0 0 4.882-1.987 6.87 6.87 0 0 0 2.047-4.856v-66.583zm29.481-7.876a7.02 7.02 0 0 0-6.198-3.702h-3.142a22.9 22.9 0 0 0 9.34 3.702" opacity=".2"/><path d="M97.765 106.899a7.85 7.85 0 0 0-5.541 2.34 7.83 7.83 0 0 0-2.249 5.58v48.29c-.014 2.672.23 5.338.732 7.962h30.385a6.926 6.926 0 0 0 6.929-6.843v-57.329zm30.256-7.747v-4.606a6.884 6.884 0 0 0-6.929-6.8h-10.114a24.02 24.02 0 0 0 17.215 11.406z" opacity=".3"/><path d="M97.766 106.899a7.85 7.85 0 0 0-5.542 2.34 7.83 7.83 0 0 0-2.248 5.58v48.29c.008 2.512.238 5.018.688 7.489h30.428a6.93 6.93 0 0 0 6.972-6.843v-56.856zm30.255-7.748v-4.605a6.884 6.884 0 0 0-6.972-6.8h-10.071a24.02 24.02 0 0 0 17.043 11.405" opacity=".3"/><path d="M97.766 106.899a7.85 7.85 0 0 0-5.542 2.34 7.83 7.83 0 0 0-2.248 5.58v48.29c0 3.869.52 7.719 1.549 11.449h29.524a6.93 6.93 0 0 0 6.929-6.844v-60.815zm30.255-7.747v-2.84a6.974 6.974 0 0 0-6.972-6.887h-8.866a24.15 24.15 0 0 0 15.838 9.727" opacity=".3"/><path d="M97.765 106.899a7.85 7.85 0 0 0-5.541 2.34 7.83 7.83 0 0 0-2.249 5.58v48.29a40.7 40.7 0 0 0 2.023 12.912h29.051a6.9 6.9 0 0 0 2.652-.495 6.89 6.89 0 0 0 4.32-6.348v-62.279zm30.256-7.748V97.86a6.89 6.89 0 0 0-6.929-6.8h-7.704a24.1 24.1 0 0 0 14.633 8.091" opacity=".2"/><path d="M131.464 99.453h1.334v-3.917a5.246 5.246 0 0 0-5.164-5.294h-14.977a23.75 23.75 0 0 0 18.807 9.34zm1.335 7.446H97.766a7.85 7.85 0 0 0-5.542 2.34 7.83 7.83 0 0 0-2.248 5.58v48.29a42.3 42.3 0 0 0 1.162 9.856h36.496a5.21 5.21 0 0 0 5.208-5.208z" opacity=".1"/><path d="M97.766 106.899a7.85 7.85 0 0 0-5.542 2.34 7.83 7.83 0 0 0-2.248 5.58v48.29c0 2.716.259 5.425.774 8.092h32.881a5.25 5.25 0 0 0 5.208-5.251v-59.051zm31.073-7.704v-3.659a5.294 5.294 0 0 0-5.208-5.337h-11.104a23.94 23.94 0 0 0 16.312 8.996" opacity=".2"/><path d="M129.398 99.281v-6.155c0-3.099-7.015-4.863-7.79-5.767a14.9 14.9 0 0 0-7.402-1.85h-4.734a24.1 24.1 0 0 0 19.926 13.772m-31.632 7.618a7.85 7.85 0 0 0-5.542 2.34 7.83 7.83 0 0 0-2.248 5.58v48.29a43 43 0 0 0 .3 5.251h34.13a5.22 5.22 0 0 0 3.67-1.556 5.2 5.2 0 0 0 1.495-3.695v-56.21z" opacity=".3"/><path d="M131.077 99.409a5.21 5.21 0 0 0-5.122-5.25h-9.468a23.63 23.63 0 0 0 14.762 5.465zm-33.312 7.49a7.85 7.85 0 0 0-5.541 2.34 7.83 7.83 0 0 0-2.249 5.58v48.29a41.3 41.3 0 0 0 2.238 13.687h33.699a5.22 5.22 0 0 0 3.67-1.556 5.2 5.2 0 0 0 1.495-3.695v-64.559z" opacity=".1"/><path d="M97.766 106.899a7.85 7.85 0 0 0-5.542 2.34 7.83 7.83 0 0 0-2.248 5.58v49.323l27.286-3.701c2.883 0 10.544-2.54 10.544-5.466v-47.946zm30.083-7.79V88.263a5.25 5.25 0 0 0-3.162-4.905 5.3 5.3 0 0 0-2.003-.432h-13.987a24.31 24.31 0 0 0 19.152 16.183" opacity=".1"/><path d="M127.849 99.108v-9.554a5.25 5.25 0 0 0-5.164-5.294h-13.558a24.32 24.32 0 0 0 18.722 14.848m-30.083 7.791a7.85 7.85 0 0 0-5.542 2.34 7.83 7.83 0 0 0-2.248 5.58v50.614l27.2-3.658c2.883 0 10.587-2.583 10.587-5.466v-49.41z" opacity=".15"/></g><path fill="#4B53BC" d="M51.93 85.335h69.205a7.014 7.014 0 0 1 6.929 7.058v70.757a7.01 7.01 0 0 1-6.929 7.059H51.93a7 7 0 0 1-4.933-2.088A6.97 6.97 0 0 1 45 163.15V92.393a7.016 7.016 0 0 1 6.929-7.058"/><path fill="#fff" d="M107.105 111.718H91.611v42.567h-10.2v-42.567H65.874V101.26h41.231z"/></svg>