<svg xmlns="http://www.w3.org/2000/svg" fill="none" viewBox="0 0 256 256"><rect width="256" height="256" fill="#4040C8" rx="60"/><path fill="#fff" d="M99.714 172.54c-2.026 0-4.032-.392-5.904-1.154a15.4 15.4 0 0 1-5.005-3.285 15.1 15.1 0 0 1-3.345-4.916 14.9 14.9 0 0 1-1.174-5.799v-7.577a7.5 7.5 0 0 0-2.26-5.357 7.8 7.8 0 0 0-5.455-2.219 7.8 7.8 0 0 0-5.454 2.219 7.5 7.5 0 0 0-2.26 5.357v7.577c0 1.99-.399 3.961-1.174 5.799a15.1 15.1 0 0 1-3.345 4.916 15.4 15.4 0 0 1-5.005 3.285 15.7 15.7 0 0 1-5.904 1.154h-7.715a7.8 7.8 0 0 0-5.454 2.219 7.5 7.5 0 0 0-2.26 5.357 7.5 7.5 0 0 0 2.26 5.358 7.8 7.8 0 0 0 5.454 2.219h7.715c4.091 0 8.016 1.597 10.91 4.438a15.02 15.02 0 0 1 4.518 10.716v7.576a7.5 7.5 0 0 0 2.26 5.358A7.8 7.8 0 0 0 76.57 218a7.8 7.8 0 0 0 5.455-2.219 7.5 7.5 0 0 0 2.26-5.358v-7.576a15.02 15.02 0 0 1 4.519-10.716 15.58 15.58 0 0 1 10.91-4.438h7.714a7.78 7.78 0 0 0 5.454-2.219 7.5 7.5 0 0 0 2.26-5.358 7.5 7.5 0 0 0-2.26-5.357 7.78 7.78 0 0 0-5.454-2.219zm95.143-90.08c-6.138 0-12.024-2.394-16.364-6.657s-6.779-10.044-6.779-16.073V48.365c0-3.014-1.219-5.905-3.389-8.036A11.68 11.68 0 0 0 160.143 37a11.68 11.68 0 0 0-8.182 3.329 11.26 11.26 0 0 0-3.39 8.036V59.73c0 6.029-2.438 11.81-6.778 16.073s-10.227 6.657-16.364 6.657h-11.572a11.68 11.68 0 0 0-8.182 3.33 11.26 11.26 0 0 0-3.389 8.036c0 3.014 1.219 5.905 3.389 8.036a11.68 11.68 0 0 0 8.182 3.329h11.572c6.137 0 12.024 2.394 16.364 6.657s6.778 10.045 6.778 16.073v11.365c0 3.014 1.22 5.905 3.39 8.036a11.68 11.68 0 0 0 8.182 3.329c3.069 0 6.012-1.197 8.182-3.329a11.26 11.26 0 0 0 3.389-8.036v-11.365c0-6.028 2.439-11.81 6.779-16.073s10.226-6.657 16.364-6.657h11.572c3.068 0 6.012-1.198 8.182-3.329A11.26 11.26 0 0 0 218 93.826c0-3.015-1.219-5.905-3.389-8.037a11.68 11.68 0 0 0-8.182-3.329zM177.286 218c3.978 0 7.793-1.552 10.606-4.315a14.6 14.6 0 0 0 4.394-10.418c0-3.907-1.581-7.654-4.394-10.417a15.14 15.14 0 0 0-10.606-4.315 15.14 15.14 0 0 0-10.607 4.315 14.6 14.6 0 0 0-4.393 10.417 14.6 14.6 0 0 0 4.393 10.418A15.14 15.14 0 0 0 177.286 218M48.714 87.512c2.842 0 5.567-1.11 7.576-3.083a10.43 10.43 0 0 0 3.139-7.44 10.43 10.43 0 0 0-3.139-7.442 10.8 10.8 0 0 0-7.576-3.082 10.8 10.8 0 0 0-7.576 3.082A10.43 10.43 0 0 0 38 76.988a10.43 10.43 0 0 0 3.138 7.441 10.8 10.8 0 0 0 7.576 3.083"/></svg>