<svg xmlns="http://www.w3.org/2000/svg" fill="none" viewBox="0 0 256 256"><path fill="#F4F2ED" d="M196 0H60C26.863 0 0 26.863 0 60v136c0 33.137 26.863 60 60 60h136c33.137 0 60-26.863 60-60V60c0-33.137-26.863-60-60-60"/><g clip-path="url(#clip0_0_1)"><path fill="#CCC" d="M42 88.083h57.333V63H49.167C45.225 63 42 66.225 42 70.167z"/><path fill="#999" d="M156.667 63H99.333v25.083h57.334z"/><path fill="#666" d="M214 88.083h-57.333V63h50.166c3.942 0 7.167 3.225 7.167 7.167z"/><path fill="url(#paint0_linear_0_1)" d="M206.833 192H49.167c-3.942 0-7.167-3.225-7.167-7.167V84.5h172v100.333c0 3.942-3.225 7.167-7.167 7.167"/><g filter="url(#filter0_dd_0_1)"><path fill="url(#paint1_linear_0_1)" d="m96.467 128.575-31.534 31.533c-1.791 1.792-1.791 4.3 0 5.734l6.45 6.45c1.792 1.791 4.3 1.791 5.734 0l31.533-31.534c1.792-1.791 1.792-4.3 0-5.733l-6.45-6.45c-1.433-1.433-4.3-1.433-5.733 0"/><mask id="mask0_0_1" width="47" height="47" x="63" y="127" maskUnits="userSpaceOnUse" style="mask-type:alpha"><path fill="url(#paint2_linear_0_1)" d="m96.467 128.575-31.534 31.533c-1.791 1.792-1.791 4.3 0 5.734l6.45 6.45c1.792 1.791 4.3 1.791 5.734 0l31.533-31.534c1.792-1.791 1.792-4.3 0-5.733l-6.45-6.45c-1.433-1.433-4.3-1.433-5.733 0"/></mask><g filter="url(#filter1_dd_0_1)" mask="url(#mask0_0_1)"><path fill="url(#paint3_linear_0_1)" d="m77.117 103.492 31.533 31.533c1.792 1.792 1.792 4.3 0 5.733l-6.45 6.45c-1.792 1.792-4.3 1.792-5.733 0l-31.534-31.533c-1.791-1.792-1.791-4.3 0-5.733l6.45-6.45c1.434-1.434 4.3-1.434 5.734 0"/></g><path fill="url(#paint4_linear_0_1)" d="m77.117 103.492 31.533 31.533c1.792 1.792 1.792 4.3 0 5.733l-6.45 6.45c-1.792 1.792-4.3 1.792-5.733 0l-31.534-31.533c-1.791-1.792-1.791-4.3 0-5.733l6.45-6.45c1.434-1.434 4.3-1.434 5.734 0"/></g><g filter="url(#filter2_dd_0_1)"><path fill="url(#paint5_linear_0_1)" d="M185.333 156.167H128c-2.15 0-3.583 1.433-3.583 3.583v10.75c0 2.15 1.433 3.583 3.583 3.583h57.333c2.15 0 3.584-1.433 3.584-3.583v-10.75c0-2.15-1.434-3.583-3.584-3.583"/></g></g><defs><linearGradient id="paint0_linear_0_1" x1="172.599" x2="84.361" y1="212.875" y2="60.043" gradientUnits="userSpaceOnUse"><stop stop-color="#333"/><stop offset="1" stop-color="#4D4D4D"/></linearGradient><linearGradient id="paint1_linear_0_1" x1="94.057" x2="79.568" y1="163.319" y2="138.223" gradientUnits="userSpaceOnUse"><stop stop-color="#999"/><stop offset="1" stop-color="#B3B3B3"/></linearGradient><linearGradient id="paint2_linear_0_1" x1="94.057" x2="79.568" y1="163.319" y2="138.223" gradientUnits="userSpaceOnUse"><stop stop-color="#999"/><stop offset="1" stop-color="#B3B3B3"/></linearGradient><linearGradient id="paint3_linear_0_1" x1="100.318" x2="73.308" y1="149.12" y2="102.338" gradientUnits="userSpaceOnUse"><stop stop-color="#CCC"/><stop offset="1" stop-color="#E6E6E6"/></linearGradient><linearGradient id="paint4_linear_0_1" x1="100.318" x2="73.308" y1="149.12" y2="102.338" gradientUnits="userSpaceOnUse"><stop stop-color="#CCC"/><stop offset="1" stop-color="#E6E6E6"/></linearGradient><linearGradient id="paint5_linear_0_1" x1="167.953" x2="145.381" y1="184.673" y2="145.577" gradientUnits="userSpaceOnUse"><stop stop-color="#CCC"/><stop offset="1" stop-color="#E6E6E6"/></linearGradient><filter id="filter0_dd_0_1" width="52.404" height="77.219" x="60.59" y="100.417" color-interpolation-filters="sRGB" filterUnits="userSpaceOnUse"><feFlood flood-opacity="0" result="BackgroundImageFix"/><feColorMatrix in="SourceAlpha" result="hardAlpha" values="0 0 0 0 0 0 0 0 0 0 0 0 0 0 0 0 0 0 127 0"/><feOffset dy=".5"/><feGaussianBlur stdDeviation=".5"/><feColorMatrix values="0 0 0 0 0 0 0 0 0 0 0 0 0 0 0 0 0 0 0.1 0"/><feBlend in2="BackgroundImageFix" result="effect1_dropShadow_0_1"/><feColorMatrix in="SourceAlpha" result="hardAlpha" values="0 0 0 0 0 0 0 0 0 0 0 0 0 0 0 0 0 0 127 0"/><feOffset dy="1"/><feGaussianBlur stdDeviation="1.5"/><feColorMatrix values="0 0 0 0 0 0 0 0 0 0 0 0 0 0 0 0 0 0 0.2 0"/><feBlend in2="effect1_dropShadow_0_1" result="effect2_dropShadow_0_1"/><feBlend in="SourceGraphic" in2="effect2_dropShadow_0_1" result="shape"/></filter><filter id="filter1_dd_0_1" width="52.404" height="52.135" x="60.59" y="100.417" color-interpolation-filters="sRGB" filterUnits="userSpaceOnUse"><feFlood flood-opacity="0" result="BackgroundImageFix"/><feColorMatrix in="SourceAlpha" result="hardAlpha" values="0 0 0 0 0 0 0 0 0 0 0 0 0 0 0 0 0 0 127 0"/><feOffset dy=".5"/><feGaussianBlur stdDeviation=".5"/><feColorMatrix values="0 0 0 0 0 0 0 0 0 0 0 0 0 0 0 0 0 0 0.1 0"/><feBlend in2="BackgroundImageFix" result="effect1_dropShadow_0_1"/><feColorMatrix in="SourceAlpha" result="hardAlpha" values="0 0 0 0 0 0 0 0 0 0 0 0 0 0 0 0 0 0 127 0"/><feOffset dy="1"/><feGaussianBlur stdDeviation="1.5"/><feColorMatrix values="0 0 0 0 0 0 0 0 0 0 0 0 0 0 0 0 0 0 0.2 0"/><feBlend in2="effect1_dropShadow_0_1" result="effect2_dropShadow_0_1"/><feBlend in="SourceGraphic" in2="effect2_dropShadow_0_1" result="shape"/></filter><filter id="filter2_dd_0_1" width="70.5" height="23.917" x="121.417" y="154.167" color-interpolation-filters="sRGB" filterUnits="userSpaceOnUse"><feFlood flood-opacity="0" result="BackgroundImageFix"/><feColorMatrix in="SourceAlpha" result="hardAlpha" values="0 0 0 0 0 0 0 0 0 0 0 0 0 0 0 0 0 0 127 0"/><feOffset dy=".5"/><feGaussianBlur stdDeviation=".5"/><feColorMatrix values="0 0 0 0 0 0 0 0 0 0 0 0 0 0 0 0 0 0 0.1 0"/><feBlend in2="BackgroundImageFix" result="effect1_dropShadow_0_1"/><feColorMatrix in="SourceAlpha" result="hardAlpha" values="0 0 0 0 0 0 0 0 0 0 0 0 0 0 0 0 0 0 127 0"/><feOffset dy="1"/><feGaussianBlur stdDeviation="1.5"/><feColorMatrix values="0 0 0 0 0 0 0 0 0 0 0 0 0 0 0 0 0 0 0.2 0"/><feBlend in2="effect1_dropShadow_0_1" result="effect2_dropShadow_0_1"/><feBlend in="SourceGraphic" in2="effect2_dropShadow_0_1" result="shape"/></filter><clipPath id="clip0_0_1"><path fill="#fff" d="M42 63h172v129H42z"/></clipPath></defs></svg>