<svg xmlns="http://www.w3.org/2000/svg" width="256" height="256" fill="none"><rect width="256" height="256" fill="#282828" rx="50"/><g clip-path="url(#clip0_15_38)"><path fill="red" d="M229.164 110.109c4.92 19.162-16.214 41.602-42.646 35.244 33.666-24.486 18.274-55.85.481-70.897-19.293-16.318-.615-21.547 5.607-15.639-.15-11.92-42.117-9.226-5.409 29.05 18.859 19.66-3.388 63.149-29.892 30.078a8 8 0 0 1-.592-.94c4.28-1.777 7.795-6.611 7.795-14.573a19.8 19.8 0 0 0-1.643-8.198c3.064-6.24 5.876-13.696 5.876-23.032 0-22.314-14.477-42.202-34.749-42.202S99.244 48.888 99.244 71.202c0 9.335 2.819 16.8 5.883 23.04a19.75 19.75 0 0 0-1.643 8.214c0 7.961 3.507 12.796 7.795 14.573a8 8 0 0 1-.6.94c-26.504 33.07-48.758-10.426-29.892-30.078 36.715-38.276-5.268-40.961-5.418-29.05 6.224-5.9 24.909-.672 5.608 15.639-17.793 15.007-33.17 46.379.482 70.897-26.425 6.358-47.55-16.082-42.646-35.243-8.577 15.796-2.22 45.668 31.826 51.435-36.241 8.317-25.335 58.361.182 50.352-21.884-1.287-19.451-26.476-10.598-34.058 9.793-8.396 22.175-2.48 44.754-6.264-.245 20.331 19.554 31.255 9.169 42.897-11.001 12.322-26.062-.987-23.74-13.095-10.503 21.736 19.404 39.034 32.514 13.79 10.101-19.421-16.742-54.5 11.057-54.5 27.798 0 .947 35.039 11.056 54.5 13.109 25.275 43.017 7.946 32.513-13.79 2.299 12.116-12.738 25.417-23.731 13.095-10.338-11.673 9.406-22.598 9.192-42.928 22.57 3.784 34.954-2.141 44.739 6.263 8.869 7.583 11.293 32.771-10.591 34.059 25.557 8.04 36.455-42.013.198-50.353 34.022-5.758 40.388-35.639 31.811-51.428"/><path fill="url(#paint0_linear_15_38)" d="M60.64 179.38c9.786-8.396 21.024-1.051 44.36-7.812 0 0 .324-6.24.625-10.868-7.108 5.355-20.107 4.659-30.958 6.248-35.712 5.236-27.783 48.132-3.846 44.973-17.714-2.906-19.04-24.951-10.18-32.541"/><path fill="url(#paint1_linear_15_38)" d="M106.998 148.638c3.95-6.105 4.44-15.947-3.545-6.997-26.978 30.227-73.786 5.529-64.617-31.524-9.871 13.404-5.133 48.45 31.826 51.428 9.28-3.081 28.384-.696 36.336-12.907"/><path fill="url(#paint2_radial_15_38)" d="M81.466 145.353s9.477-.972 15.622-8.191c-24.98 9.289-45.474-31.002-14.216-58.235 24.308-21.154-.434-29.493-7.526-20.11 2.614-2.583 23.795-1.122 4.494 15.196-17.762 15.047-36.581 46.285 1.626 71.34"/><path fill="url(#paint3_radial_15_38)" d="M151.959 218.572c-10.401-11.642 0-22.156 1.911-40.503 1.264-12.378-3.357-26.066-19.87-26.066s-21.141 13.712-19.87 26.066c1.888 18.347 12.304 28.861 1.911 40.503-10.993 12.314-31.55-.521-25.611-17.203-14.618 24.272 22.484 39.383 35.593 14.146 10.094-19.43-19.822-53.481 7.977-53.481s-2.117 34.051 7.977 53.481c13.109 25.236 50.203 10.126 35.585-14.146 5.931 16.682-14.61 29.509-25.603 17.203"/><path fill="url(#paint4_linear_15_38)" d="M193.333 166.955c-10.859-1.579-23.866-.9-30.958-6.255.309 4.628.625 10.876.625 10.876 23.328 6.753 34.566-.6 44.352 7.804 8.86 7.583 7.533 29.635-10.212 32.51 23.969 3.19 31.905-39.706-3.807-44.935"/><path fill="url(#paint5_linear_15_38)" d="M229.164 110.109c9.169 37.045-37.639 61.759-64.625 31.516-7.984-8.949-7.518.9-3.537 7.005 7.952 12.211 27.048 9.826 36.328 12.907 36.967-2.97 41.705-38.024 31.834-51.428"/><path fill="url(#paint6_radial_15_38)" d="M170.913 137.162c6.144 7.219 15.613 8.191 15.613 8.191 38.208-25.023 19.388-56.3 1.579-71.34-19.309-16.318 1.872-17.779 4.486-15.196-7.108-9.383-31.835-1.043-7.526 20.11 31.312 27.234 10.819 67.523-14.152 58.235"/><path fill="#4B1313" d="M144.266 56.763c0 6.161-10.266 6.161-10.266 0s10.266-6.153 10.266 0m-16.165 5.64c0 4.241-7.053 4.241-7.053 0 0-4.242 7.053-4.242 7.053 0m4.501-19.51c0 4.25-7.06 4.25-7.06 0s7.06-4.21 7.06 0m-14.705 30.102c0 2.124-3.53 2.124-3.53 0s3.53-2.125 3.53 0m.672-20.852c0 2.938-4.881 2.938-4.881 0s4.881-2.93 4.881 0m14.033 25.836c0 2.945-4.88 2.945-4.88 0 0-2.946 4.88-2.923 4.88 0" opacity=".3"/><path fill="#302D3B" d="M121.459 102.432c0 11.201-12.699 11.201-12.699 0 0-11.2 12.699-11.2 12.699 0"/><path fill="#6F828A" d="M114.952 99.581a1.97 1.97 0 0 1-1.161 1.967 1.955 1.955 0 0 1-2.646-1.165 2 2 0 0 1-.095-.802 1.96 1.96 0 0 1 .505-1.496 1.96 1.96 0 0 1 2.236-.47 1.96 1.96 0 0 1 1.161 1.966"/><path fill="#302D3B" d="M159.272 102.432c0 11.201-12.699 11.201-12.699 0 0-11.2 12.699-11.2 12.699 0"/><path fill="#6F828A" d="M152.725 99.581a1.97 1.97 0 0 1-.505 1.497 1.96 1.96 0 0 1-2.891 0 1.96 1.96 0 0 1-.506-1.497 1.96 1.96 0 0 1 1.161-1.967 1.96 1.96 0 0 1 2.741 1.967"/><path fill="#9E1C20" d="M128.101 124.722c0 6.382-.529 11.548-1.138 11.548s-1.097-5.166-1.09-11.54c.008-6.375.529-11.548 1.146-11.548.615 0 1.097 5.158 1.082 11.54m6.104 13.554c.463 0 .838-6.072.838-13.562s-.375-13.562-.838-13.562-.837 6.072-.837 13.562.375 13.562.837 13.562m7.914-13.704c0 6.224-.506 11.271-1.106 11.271s-1.05-5.031-1.043-11.263.521-11.271 1.106-11.271c.584 0 1.066 5.039 1.043 11.263"/><path fill="#F389A4" d="M189.503 142.359c-1.311-1.737 6.318-7.471 7.645-5.726s-6.342 7.472-7.645 5.726"/><path fill="#E34E70" d="M191.398 141.285c-.592-.79 3.586-3.949 4.186-3.159.6.789-3.586 3.957-4.186 3.159"/><path fill="#F389A4" d="M194.02 134.721c-1.579-1.516 4.225-7.48 5.789-5.963 1.564 1.516-4.257 7.488-5.789 5.963"/><path fill="#E34E70" d="M195.505 133.56c-.719-.695 2.456-3.949 3.159-3.262.703.688-2.448 3.957-3.159 3.262"/><path fill="#F7B3C5" d="M202.242 123.656c-2.086-.64.339-8.594 2.424-7.954s-.379 8.601-2.425 7.953"/><path fill="#E34E70" d="M203.055 121.934c-.956-.293.379-4.636 1.318-4.352s-.378 4.644-1.318 4.352"/><path fill="#F389A4" d="M180.911 142.067c-.924-1.975 7.455-5.892 8.371-3.91s-7.455 5.884-8.371 3.91"/><path fill="#E34E70" d="M182.964 141.435c-.419-.908 4.154-3.048 4.581-2.148.426.901-4.21 3.049-4.581 2.148"/><path fill="#F7B3C5" d="M201.918 130.804c-1.824-1.177 2.693-8.167 4.509-6.974s-2.669 8.158-4.509 6.974"/><path fill="#E34E70" d="M203.189 129.374c-.837-.545 1.635-4.359 2.464-3.822s-1.634 4.359-2.464 3.822"/><path fill="#F389A4" d="M168.203 153.306c.845-2.156 8.688.932 7.899 3.097-.791 2.164-8.751-.932-7.899-3.097"/><path fill="#E34E70" d="M169.878 154.263c.387-.988 4.691.71 4.313 1.689-.38.98-4.708-.679-4.313-1.689"/><path fill="#F389A4" d="M179.252 155.842c.593-2.694 8.688-.901 8.103 1.793s-8.703.9-8.103-1.793"/><path fill="#E34E70" d="M181.013 156.632c.277-1.24 4.739-.253 4.439.971s-4.715.213-4.439-.971"/><path fill="#F389A4" d="M161.348 143.923c1.991-2.195 8.83 4.036 6.848 6.216s-8.837-4.028-6.848-6.216"/><path fill="#E34E70" d="M162.644 145.574c.916-1.003 4.651 2.409 3.743 3.404s-4.651-2.369-3.743-3.404"/><path fill="#F7B3C5" d="M190.159 158.867c0-1.88 7.012-1.737 6.973.142s-7.021 1.746-6.973-.142"/><path fill="#E34E70" d="M191.722 159.144c0-.869 3.83-.79 3.823.062-.008.854-3.839.791-3.823-.062"/><path fill="#F389A4" d="M164.255 166.268c.592-2.693 8.687-.9 8.111 1.793-.577 2.694-8.704.901-8.111-1.793"/><path fill="#E34E70" d="M166.016 167.019c.276-1.241 4.739-.261 4.439.971s-4.715.245-4.439-.971"/><path fill="#F389A4" d="M129.072 157.477c0-2.757 9.808-2.891 9.848-.126.039 2.764-9.808 2.89-9.848.126"/><path fill="#E34E70" d="M131.307 157.801c0-1.263 5.363-1.335 5.386-.079s-5.37 1.335-5.386.079"/><path fill="#F389A4" d="M141.779 160.779c1.919-1.983 7.898 3.823 5.947 5.797-1.951 1.975-7.866-3.815-5.947-5.797"/><path fill="#E34E70" d="M142.877 162.342c.892-.908 4.138 2.267 3.269 3.16s-4.138-2.267-3.269-3.16"/><path fill="#F7B3C5" d="M151.28 168.622c2.748.15 2.29 8.451-.467 8.301-2.756-.15-2.29-8.443.467-8.301"/><path fill="#E34E70" d="M150.821 170.478c1.264.07 1.011 4.613-.237 4.542s-1.018-4.613.237-4.542"/><path fill="#F7B3C5" d="M146.549 177.002c2.701.553 1.042 8.688-1.658 8.159s-1.043-8.703 1.658-8.159"/><path fill="#E34E70" d="M145.846 178.748c1.24.261.332 4.739-.9 4.47-1.232-.268-.34-4.691.9-4.47"/><path fill="#F7B3C5" d="M149.219 185.666c2.701.554 1.042 8.689-1.659 8.152s-1.042-8.696 1.659-8.152"/><path fill="#E34E70" d="M148.5 187.436c1.24.253.339 4.739-.901 4.462-1.24-.276-.323-4.714.901-4.462"/><path fill="#F7B3C5" d="M143.034 194.703c2.693.545 1.043 8.688-1.657 8.143-2.702-.545-1.059-8.696 1.657-8.144"/><path fill="#E34E70" d="M142.308 196.472c1.247.261.34 4.739-.892 4.462-1.232-.276-.308-4.714.892-4.462"/><path fill="#F7B3C5" d="M144.566 204.228c2.749.103 2.441 8.412-.315 8.31s-2.449-8.412.315-8.31"/><path fill="#E34E70" d="M144.141 206.1c1.271.055 1.097 4.597-.159 4.55-1.255-.048-1.09-4.597.159-4.55"/><path fill="#F7B3C5" d="M143.192 215.997c2.141-1.738 6.524 3.665 4.375 5.403-2.147 1.738-6.515-3.673-4.375-5.403"/><path fill="#E34E70" d="M143.911 217.45c.987-.789 3.38 2.164 2.369 2.955-1.01.789-3.34-2.164-2.369-2.955"/><path fill="#F389A4" d="M150.411 221.116c1.105-2.007 6.16.789 5.055 2.779-1.107 1.991-6.161-.773-5.055-2.779"/><path fill="#E34E70" d="M151.414 222c.506-.924 3.27.6 2.772 1.508-.498.909-3.277-.592-2.772-1.508"/><path fill="#F389A4" d="M156.792 227.229c.166-2.078 5.125-1.675 4.952.402s-5.125 1.667-4.952-.402"/><path fill="#E34E70" d="M157.89 227.577c.078-.949 2.787-.735 2.716.213s-2.795.719-2.716-.213"/><path fill="#F389A4" d="M163.727 225.988c-.443-1.847 3.947-2.914 4.406-1.065.458 1.847-3.957 2.914-4.406 1.065"/><path fill="#E34E70" d="M164.8 225.973c-.198-.837 2.211-1.422 2.416-.593.206.83-2.234 1.438-2.416.593"/><path fill="#F389A4" d="M170.375 226.139c-.727-1.762 3.467-3.5 4.186-1.738.719 1.761-3.443 3.46-4.185 1.738"/><path fill="#E34E70" d="M171.41 225.926c-.324-.79 1.967-1.746 2.298-.956.332.789-1.967 1.761-2.298.956"/><path fill="#F389A4" d="M174.119 221.447c-1.391-1.295 1.706-4.62 3.088-3.325s-1.698 4.62-3.088 3.325"/><path fill="#E34E70" d="M174.995 220.855c-.632-.6 1.051-2.417 1.682-1.825.632.593-1.05 2.417-1.682 1.825"/><path fill="#F389A4" d="M179.228 215.508c-1.824-.522-.56-4.89 1.264-4.353s.553 4.89-1.264 4.353"/><path fill="#E34E70" d="M179.742 214.591c-.79-.245-.143-2.63.687-2.369.829.26.166 2.622-.688 2.369"/><path fill="#F389A4" d="M174.34 172.879c.237-2.741 8.513-2.03 8.269.726-.245 2.757-8.514 2.031-8.269-.726"/><path fill="#E34E70" d="M176.18 173.392c.118-1.263 4.636-.861 4.525.388-.11 1.247-4.635.861-4.525-.388"/><path fill="#F7B3C5" d="M184.275 169.988c.055-2.709 8.355-2.543 8.292.174-.062 2.717-8.355 2.543-8.292-.174"/><path fill="#E34E70" d="M186.123 170.375c0-1.248 4.564-1.145 4.541.088-.023 1.232-4.541 1.176-4.541-.088"/><path fill="#F7B3C5" d="M193.68 173.424c.593-2.606 7.827-.955 7.211 1.667s-7.818.955-7.211-1.667"/><path fill="#E34E70" d="M195.237 174.135c.276-1.193 4.225-.284 3.948.9-.276 1.185-4.225.3-3.948-.9"/><path fill="#FACFDA" d="M203.727 173.622c1.223-2.37 7.265.726 6.025 3.159s-7.25-.766-6.025-3.159"/><path fill="#E34E70" d="M204.934 174.633c.569-1.099 3.854.615 3.31 1.69-.546 1.074-3.871-.6-3.31-1.69"/><path fill="#FACFDA" d="M210.091 180.461c1.999-.9 4.289 4.172 2.283 5.072s-4.289-4.163-2.283-5.071"/><path fill="#E34E70" d="M210.352 181.734c.916-.419 2.164 2.369 1.264 2.764s-2.18-2.362-1.264-2.764"/><path fill="#FACFDA" d="M215.691 186.583c2.187 0 2.171 5.569 0 5.529-2.172-.039-2.196-5.537 0-5.529"/><path fill="#E34E70" d="M215.398 187.847c1.019 0 1.004 3.041 0 3.041-1.003 0-.995-3.049 0-3.041"/><path fill="#FACFDA" d="M213.551 193.755c1.951.355 1.034 5.34-.924 4.968s-1.043-5.308.924-4.968"/><path fill="#E34E70" d="M213.084 194.861c.909.173.404 2.891-.489 2.725s-.411-2.891.489-2.725"/><path fill="#FACFDA" d="M213.764 200.966c1.579.877-.664 4.874-2.243 3.95-1.58-.925.663-4.843 2.242-3.95"/><path fill="#E34E70" d="M213.084 201.748c.719.411-.505 2.591-1.224 2.18s.498-2.583 1.224-2.18"/><path fill="#FACFDA" d="M209.073 206.273c1.097 1.068-1.619 3.864-2.717 2.782-1.097-1.083 1.619-3.863 2.717-2.782"/><path fill="#E34E70" d="M208.323 206.764c.505.497-.988 2.014-1.485 1.524s.979-2.014 1.485-1.524"/><path fill="#F7B3C5" d="M198.53 157.73c-.625-2.631 7.455-4.55 8.086-1.903.632 2.645-7.454 4.557-8.086 1.903"/><path fill="#E34E70" d="M200.448 157.643c-.284-1.216 4.123-2.259 4.415-1.059.292 1.201-4.139 2.26-4.415 1.059"/><path fill="#FACFDA" d="M208.883 158.441c-.789-2.251 7.044-5 7.834-2.741s-7.052 5.008-7.834 2.741"/><path fill="#E34E70" d="M210.755 158.109c-.364-1.043 3.949-2.536 4.289-1.509s-3.926 2.545-4.289 1.509"/><path fill="#FACFDA" d="M215.952 152.533c-1.58-1.778 4.548-7.362 6.16-5.592 1.611 1.768-4.557 7.361-6.16 5.592"/><path fill="#E34E70" d="M217.547 151.49c-.734-.789 2.637-3.863 3.364-3.065s-2.63 3.87-3.364 3.065"/><path fill="#FACFDA" d="M226.005 146.806c-1.998-1.327 2.622-8.246 4.612-6.919s-2.638 8.246-4.612 6.919"/><path fill="#E34E70" d="M227.292 145.408c-.908-.616 1.619-4.383 2.519-3.791s-1.611 4.391-2.519 3.791"/><path fill="#FACFDA" d="M228.84 136.941c-2.242-.845.711-8.618 2.937-7.78 2.228.837-.711 8.633-2.937 7.78"/><path fill="#E34E70" d="M229.788 135.306c-1.027-.395.592-4.644 1.579-4.258.987.388-.561 4.629-1.579 4.258"/><path fill="#FACFDA" d="M232.97 126.207c-1.753.198-2.424-5.916-.672-6.113 1.754-.198 2.433 5.915.672 6.113"/><path fill="#E34E70" d="M233.041 124.801c-.789.079-1.161-3.262-.371-3.341.789-.079 1.177 3.246.371 3.341"/><path fill="#F7B3C5" d="M207.659 117.313c-2.156-.261-1.145-8.522 1.011-8.246 2.157.277 1.145 8.514-1.011 8.246"/><path fill="#E34E70" d="M208.164 115.48c-.994-.117-.434-4.635.545-4.517s.443 4.636-.544 4.517"/><path fill="#F7B3C5" d="M204.43 110.702c-2.164.182-2.836-8.111-.657-8.286 2.18-.173 2.836 8.112.657 8.286"/><path fill="#E34E70" d="M204.555 108.798c-.995.079-1.35-4.446-.363-4.533s1.359 4.462.363 4.533"/><path fill="#F7B3C5" d="M206.759 100.387c-1.975.908-5.425-6.651-3.443-7.559s5.433 6.658 3.443 7.559"/><path fill="#E34E70" d="M206.23 98.563c-.9.41-2.788-3.713-1.896-4.132.893-.418 2.804 3.753 1.896 4.132"/><path fill="#F7B3C5" d="M200.188 94.305c-1.777.995-5.528-5.766-3.743-6.753s5.535 5.757 3.743 6.753"/><path fill="#E34E70" d="M199.548 92.654c-.789.459-2.859-3.23-2.045-3.688.813-.459 2.883 3.23 2.045 3.688"/><path fill="#F7B3C5" d="M198.972 85.972c-1.516 1.185-5.875-4.407-4.344-5.6 1.532-1.193 5.884 4.383 4.344 5.6"/><path fill="#E34E70" d="M198.182 84.55c-.695.545-3.08-2.512-2.369-3.056.711-.546 3.072 2.511 2.369 3.056"/><path fill="#F7B3C5" d="M191.651 82.568c-1.461 1.271-6.088-4.1-4.62-5.363 1.469-1.264 6.065 4.099 4.62 5.363"/><path fill="#E34E70" d="M190.759 81.193c-.664.585-3.159-2.37-2.528-2.93.632-.56 3.207 2.353 2.528 2.93"/><path fill="#F7B3C5" d="M188.327 75.412c-1.32 1.137-5.102-3.255-3.775-4.392 1.326-1.137 5.101 3.246 3.775 4.39"/><path fill="#E34E70" d="M187.639 74.266c-.608.521-2.677-1.88-2.069-2.37.608-.489 2.669 1.857 2.069 2.37"/><path fill="#F389A4" d="M181.984 73.998c-1.484.9-4.493-4.052-2.992-4.96 1.5-.91 4.501 4.043 2.992 4.96"/><path fill="#E34E70" d="M181.495 72.758c-.672.41-2.322-2.29-1.643-2.71.68-.418 2.322 2.299 1.643 2.71"/><path fill="#F389A4" d="M181.384 68.05c-1.666.49-2.953-3.807-1.271-4.305s2.93 3.8 1.271 4.305"/><path fill="#E34E70" d="M181.273 67.008c-.789.229-1.461-2.125-.694-2.37.766-.245 1.461 2.14.695 2.37"/><path fill="#F389A4" d="M176.764 63.264c-1.642-.577-.158-4.81 1.493-4.227 1.651.586.157 4.82-1.493 4.227"/><path fill="#E34E70" d="M177.309 62.379c-.789-.252.063-2.575.789-2.306.727.268-.039 2.567-.789 2.306"/><path fill="#F389A4" d="M180.942 58.367c-.276-1.722 4.146-2.417 4.422-.687.277 1.73-4.153 2.432-4.422.687"/><path fill="#E34E70" d="M181.977 58.43c-.127-.79 2.298-1.161 2.416-.38.119.782-2.29 1.17-2.416.38"/><path fill="#F389A4" d="M78.505 142.359c1.303-1.737-6.318-7.471-7.653-5.726s6.342 7.472 7.653 5.726"/><path fill="#E34E70" d="M76.602 141.285c.592-.79-3.586-3.949-4.186-3.159-.6.789 3.586 3.957 4.186 3.159"/><path fill="#F389A4" d="M73.98 134.721c1.58-1.516-4.225-7.48-5.79-5.963-1.563 1.516 4.258 7.488 5.79 5.963"/><path fill="#E34E70" d="M72.495 133.56c.72-.695-2.456-3.949-3.16-3.262-.702.688 2.45 3.957 3.16 3.262"/><path fill="#F7B3C5" d="M65.758 123.656c2.086-.64-.34-8.594-2.424-7.954-2.086.64.38 8.601 2.425 7.953"/><path fill="#E34E70" d="M64.945 121.934c.956-.293-.379-4.636-1.318-4.352s.378 4.644 1.318 4.352"/><path fill="#F389A4" d="M87.098 142.067c.915-1.975-7.464-5.892-8.38-3.91s7.455 5.884 8.38 3.91"/><path fill="#E34E70" d="M85.076 141.435c.419-.908-4.154-3.048-4.58-2.148-.427.901 4.169 3.049 4.58 2.148"/><path fill="#F7B3C5" d="M66.082 130.804c1.824-1.177-2.693-8.167-4.51-6.974s2.67 8.158 4.51 6.974"/><path fill="#E34E70" d="M64.81 129.374c.838-.545-1.634-4.359-2.463-3.822s1.634 4.359 2.464 3.822"/><path fill="#F389A4" d="M100.167 153.07c-.931-2.37-9.816 1.106-8.884 3.499s9.824-1.114 8.884-3.499"/><path fill="#E34E70" d="M98.28 154.167c-.435-1.097-5.29.79-4.873 1.904.419 1.114 5.3-.821 4.873-1.904"/><path fill="#F389A4" d="M88.748 155.842c-.593-2.694-8.688-.901-8.103 1.793s8.703.9 8.103-1.793"/><path fill="#E34E70" d="M86.987 156.632c-.277-1.24-4.739-.253-4.439.971s4.715.213 4.439-.971"/><path fill="#F389A4" d="M106.652 143.923c-1.991-2.195-8.83 4.036-6.848 6.216s8.837-4.028 6.848-6.216"/><path fill="#E34E70" d="M105.356 145.574c-.916-1.003-4.651 2.409-3.743 3.404s4.651-2.369 3.743-3.404"/><path fill="#F7B3C5" d="M79.01 158.654c-.055-2.022-7.218-1.92-7.154.111.062 2.03 7.21 1.926 7.154-.111"/><path fill="#E34E70" d="M77.4 158.938c0-.932-3.95-.861-3.95.055 0 .917 3.973.877 3.95-.055"/><path fill="#F389A4" d="M103.745 166.268c-.592-2.693-8.687-.9-8.11 1.793.576 2.694 8.702.901 8.11-1.793"/><path fill="#E34E70" d="M101.984 167.019c-.276-1.241-4.739-.261-4.439.971s4.716.245 4.439-.971"/><path fill="#F389A4" d="M126.648 161.292c-1.58-2.259-8.388 2.504-6.808 4.739s8.387-2.472 6.808-4.739"/><path fill="#E34E70" d="M125.312 162.659c-.734-1.036-4.445 1.579-3.734 2.598.71 1.019 4.445-1.572 3.734-2.598"/><path fill="#F7B3C5" d="M116.72 168.622c-2.748.15-2.29 8.451.467 8.301 2.756-.15 2.29-8.443-.467-8.301"/><path fill="#E34E70" d="M117.179 170.478c-1.264.07-1.011 4.613.237 4.542s1.018-4.613-.237-4.542"/><path fill="#F7B3C5" d="M121.451 177.002c-2.701.553-1.042 8.688 1.658 8.159s1.043-8.703-1.658-8.159"/><path fill="#E34E70" d="M122.154 178.748c-1.24.261-.332 4.739.9 4.47 1.232-.268.34-4.691-.9-4.47"/><path fill="#F7B3C5" d="M118.781 185.666c-2.701.554-1.042 8.689 1.659 8.152s1.043-8.696-1.658-8.152"/><path fill="#E34E70" d="M119.5 187.436c-1.24.253-.339 4.739.901 4.462 1.24-.276.323-4.714-.901-4.462"/><path fill="#F7B3C5" d="M124.966 194.703c-2.693.545-1.043 8.688 1.657 8.143 2.702-.545 1.059-8.696-1.657-8.144"/><path fill="#E34E70" d="M125.692 196.472c-1.247.261-.34 4.739.892 4.462 1.232-.276.308-4.714-.892-4.462"/><path fill="#F7B3C5" d="M123.434 204.228c-2.741.103-2.441 8.412.315 8.31s2.449-8.412-.315-8.31"/><path fill="#E34E70" d="M123.859 206.1c-1.271.055-1.097 4.597.159 4.55 1.255-.048 1.09-4.597-.159-4.55"/><path fill="#F7B3C5" d="M124.808 215.997c-2.141-1.738-6.524 3.665-4.375 5.403 2.147 1.738 6.515-3.673 4.375-5.403"/><path fill="#E34E70" d="M124.089 217.45c-.987-.789-3.38 2.164-2.369 2.955 1.01.789 3.34-2.164 2.369-2.955"/><path fill="#F389A4" d="M117.589 221.116c-1.105-2.007-6.16.789-5.055 2.779 1.107 1.991 6.161-.773 5.055-2.779"/><path fill="#E34E70" d="M116.625 222c-.505-.924-3.269.6-2.771 1.508.498.909 3.237-.592 2.771-1.508"/><path fill="#F389A4" d="M111.208 227.229c-.166-2.078-5.125-1.675-4.952.402s5.125 1.667 4.952-.402"/><path fill="#E34E70" d="M110.11 227.577c-.078-.949-2.787-.735-2.716.213s2.795.719 2.716-.213"/><path fill="#F389A4" d="M104.273 225.988c.443-1.847-3.947-2.914-4.406-1.065-.458 1.847 3.957 2.914 4.406 1.065"/><path fill="#E34E70" d="M103.2 225.973c.198-.837-2.211-1.422-2.416-.593-.206.83 2.234 1.438 2.416.593"/><path fill="#F389A4" d="M97.625 226.139c.727-1.762-3.467-3.5-4.186-1.738-.719 1.761 3.444 3.46 4.186 1.738"/><path fill="#E34E70" d="M96.59 225.926c.324-.79-1.967-1.746-2.298-.956-.332.789 1.967 1.761 2.298.956"/><path fill="#F389A4" d="M93.881 221.447c1.39-1.295-1.706-4.62-3.088-3.325s1.698 4.62 3.088 3.325"/><path fill="#E34E70" d="M93.005 220.855c.632-.6-1.051-2.417-1.682-1.825-.632.593 1.05 2.417 1.682 1.825"/><path fill="#F389A4" d="M88.772 215.508c1.824-.522.56-4.89-1.264-4.353s-.552 4.89 1.264 4.353"/><path fill="#E34E70" d="M88.258 214.591c.79-.245.143-2.63-.687-2.369-.829.26-.166 2.622.687 2.369"/><path fill="#F389A4" d="M93.66 172.879c-.237-2.741-8.513-2.03-8.269.726.245 2.757 8.514 2.031 8.27-.726"/><path fill="#E34E70" d="M91.82 173.392c-.118-1.263-4.636-.861-4.525.388.11 1.247 4.635.861 4.525-.388"/><path fill="#F7B3C5" d="M83.725 169.988c-.055-2.709-8.355-2.543-8.292.174.062 2.717 8.355 2.543 8.292-.174"/><path fill="#E34E70" d="M81.877 170.375c0-1.248-4.564-1.145-4.541.088.023 1.232 4.541 1.176 4.541-.088"/><path fill="#F7B3C5" d="M74.32 173.424c-.593-2.606-7.82-.955-7.211 1.667.608 2.622 7.818.955 7.21-1.667"/><path fill="#E34E70" d="M72.763 174.135c-.276-1.193-4.225-.284-3.948.9.276 1.185 4.225.3 3.948-.9"/><path fill="#FACFDA" d="M64.273 173.622c-1.223-2.37-7.265.726-6.025 3.159s7.25-.766 6.025-3.159"/><path fill="#E34E70" d="M63.066 174.633c-.57-1.099-3.854.615-3.31 1.69.546 1.074 3.87-.6 3.31-1.69"/><path fill="#FACFDA" d="M57.909 180.461c-1.999-.9-4.29 4.172-2.283 5.072 2.006.9 4.289-4.163 2.283-5.071"/><path fill="#E34E70" d="M57.648 181.734c-.916-.419-2.164 2.369-1.264 2.764s2.18-2.362 1.264-2.764"/><path fill="#FACFDA" d="M52.31 186.583c-2.188 0-2.172 5.569 0 5.529 2.171-.039 2.195-5.537 0-5.529"/><path fill="#E34E70" d="M52.602 187.847c-1.02 0-1.004 3.041 0 3.041 1.003 0 1.003-3.049 0-3.041"/><path fill="#FACFDA" d="M54.45 193.755c-1.952.355-1.035 5.34.923 4.968 1.959-.371 1.043-5.308-.924-4.968"/><path fill="#E34E70" d="M54.916 194.861c-.909.173-.403 2.891.489 2.725.893-.166.41-2.891-.49-2.725"/><path fill="#FACFDA" d="M54.236 200.966c-1.579.877.664 4.874 2.243 3.95 1.58-.925-.664-4.843-2.243-3.95"/><path fill="#E34E70" d="M54.916 201.748c-.72.411.505 2.591 1.224 2.18s-.498-2.583-1.224-2.18"/><path fill="#FACFDA" d="M58.927 206.273c-1.097 1.068 1.58 3.864 2.717 2.782 1.137-1.083-1.619-3.863-2.717-2.782"/><path fill="#E34E70" d="M59.677 206.764c-.505.497.988 2.014 1.485 1.524s-.98-2.014-1.485-1.524"/><path fill="#F7B3C5" d="M69.47 157.73c.624-2.631-7.455-4.55-8.086-1.903-.632 2.645 7.454 4.557 8.086 1.903"/><path fill="#E34E70" d="M67.552 157.643c.284-1.216-4.123-2.259-4.415-1.059-.293 1.201 4.139 2.26 4.415 1.059"/><path fill="#FACFDA" d="M59.117 158.441c.79-2.251-7.044-5-7.834-2.741s7.052 5.008 7.834 2.741"/><path fill="#E34E70" d="M57.245 158.109c.364-1.043-3.949-2.536-4.289-1.509s3.926 2.545 4.29 1.509"/><path fill="#FACFDA" d="M52.048 152.533c1.58-1.778-4.548-7.362-6.16-5.592-1.61 1.768 4.557 7.361 6.16 5.592"/><path fill="#E34E70" d="M50.453 151.49c.734-.789-2.637-3.863-3.364-3.065s2.63 3.87 3.364 3.065"/><path fill="#FACFDA" d="M41.995 146.806c1.998-1.327-2.622-8.246-4.612-6.919s2.638 8.246 4.612 6.919"/><path fill="#E34E70" d="M40.708 145.408c.908-.616-1.58-4.383-2.519-3.791s1.611 4.391 2.519 3.791"/><path fill="#FACFDA" d="M39.16 136.941c2.242-.845-.71-8.618-2.937-7.78-2.228.837.71 8.633 2.937 7.78"/><path fill="#E34E70" d="M38.213 135.306c1.026-.395-.593-4.644-1.58-4.258-.987.388.56 4.629 1.58 4.258"/><path fill="#FACFDA" d="M35.03 126.207c1.753.198 2.424-5.916.672-6.113-1.754-.198-2.433 5.915-.672 6.113"/><path fill="#E34E70" d="M34.959 124.801c.79.079 1.16-3.262.37-3.341-.788-.079-1.176 3.246-.37 3.341"/><path fill="#F7B3C5" d="M60.34 117.313c2.157-.261 1.146-8.522-1.01-8.246-2.157.277-1.145 8.514 1.01 8.246"/><path fill="#E34E70" d="M59.836 115.48c.995-.117.434-4.635-.545-4.517s-.442 4.636.545 4.517"/><path fill="#F7B3C5" d="M63.57 110.702c2.164.182 2.836-8.111.657-8.286-2.18-.173-2.836 8.112-.657 8.286"/><path fill="#E34E70" d="M63.445 108.798c.995.079 1.35-4.446.363-4.533s-1.358 4.462-.363 4.533"/><path fill="#F7B3C5" d="M61.241 100.387c1.975.908 5.425-6.651 3.443-7.559s-5.433 6.658-3.443 7.559"/><path fill="#E34E70" d="M61.77 98.563c.9.41 2.788-3.713 1.896-4.132-.893-.418-2.803 3.753-1.896 4.132"/><path fill="#F7B3C5" d="M67.813 94.305c1.776.995 5.527-5.766 3.742-6.753s-5.536 5.757-3.743 6.753"/><path fill="#E34E70" d="M68.452 92.654c.789.459 2.859-3.23 2.045-3.688-.813-.459-2.883 3.23-2.045 3.688"/><path fill="#F7B3C5" d="M69.028 85.972c1.516 1.185 5.875-4.407 4.344-5.6-1.532-1.193-5.884 4.383-4.344 5.6"/><path fill="#E34E70" d="M69.818 84.55c.695.545 3.08-2.512 2.369-3.056-.711-.546-3.072 2.511-2.369 3.056"/><path fill="#F7B3C5" d="M76.35 82.568c1.46 1.271 6.088-4.1 4.619-5.363s-6.065 4.099-4.62 5.363"/><path fill="#E34E70" d="M77.241 81.193c.665.585 3.159-2.37 2.528-2.93-.632-.56-3.207 2.353-2.528 2.93"/><path fill="#F7B3C5" d="M79.673 75.412c1.32 1.137 5.102-3.255 3.775-4.392-1.326-1.137-5.101 3.246-3.775 4.39"/><path fill="#E34E70" d="M80.36 74.266c.609.521 2.678-1.88 2.07-2.37-.608-.489-2.67 1.857-2.07 2.37"/><path fill="#F389A4" d="M86.016 73.998c1.484.9 4.493-4.052 2.992-4.96-1.5-.91-4.501 4.043-2.992 4.96"/><path fill="#E34E70" d="M86.505 72.758c.672.41 2.322-2.29 1.643-2.71-.68-.418-2.322 2.299-1.643 2.71"/><path fill="#F389A4" d="M86.616 68.05c1.666.49 2.953-3.807 1.27-4.305-1.681-.497-2.929 3.8-1.27 4.305"/><path fill="#E34E70" d="M86.727 67.008c.789.229 1.46-2.125.694-2.37s-1.46 2.14-.694 2.37"/><path fill="#F389A4" d="M91.236 63.264c1.642-.577.166-4.81-1.493-4.227-1.659.586-.157 4.82 1.493 4.227"/><path fill="#E34E70" d="M90.69 62.379c.79-.252-.062-2.575-.788-2.306-.727.268.039 2.567.789 2.306"/><path fill="#F389A4" d="M87.058 58.367c.276-1.722-4.146-2.417-4.422-.687-.277 1.73 4.153 2.432 4.422.687"/><path fill="#E34E70" d="M86.023 58.43c.127-.79-2.298-1.161-2.416-.38-.119.782 2.29 1.17 2.416.38"/></g><defs><linearGradient id="paint0_linear_15_38" x1="50.515" x2="5577.92" y1="2728.47" y2="2728.47" gradientUnits="userSpaceOnUse"><stop stop-color="#F7B3C5"/><stop offset=".19" stop-color="#F7B0C2"/><stop offset=".38" stop-color="#F6A4B6"/><stop offset=".58" stop-color="#F390A5"/><stop offset=".79" stop-color="#E7728B"/><stop offset=".99" stop-color="#DC4D6C"/><stop offset="1" stop-color="#DA4B6A"/></linearGradient><linearGradient id="paint1_linear_15_38" x1="36.249" x2="7576.72" y1="1471.04" y2="1471.04" gradientUnits="userSpaceOnUse"><stop stop-color="#F7B3C5"/><stop offset=".19" stop-color="#F7B0C2"/><stop offset=".38" stop-color="#F6A4B6"/><stop offset=".58" stop-color="#F390A5"/><stop offset=".79" stop-color="#E7728B"/><stop offset=".99" stop-color="#DC4D6C"/><stop offset="1" stop-color="#DA4B6A"/></linearGradient><linearGradient id="paint4_linear_15_38" x1="162.375" x2="5689" y1="2728.5" y2="2728.5" gradientUnits="userSpaceOnUse"><stop stop-color="#DA4B6A"/><stop offset=".01" stop-color="#DC4D6C"/><stop offset=".21" stop-color="#E7728B"/><stop offset=".42" stop-color="#F390A5"/><stop offset=".62" stop-color="#F6A4B6"/><stop offset=".81" stop-color="#F7B0C2"/><stop offset="1" stop-color="#F7B3C5"/></linearGradient><linearGradient id="paint5_linear_15_38" x1="157.907" x2="7699.15" y1="1471.8" y2="1471.8" gradientUnits="userSpaceOnUse"><stop stop-color="#DA4B6A"/><stop offset=".01" stop-color="#DC4D6C"/><stop offset=".21" stop-color="#E7728B"/><stop offset=".42" stop-color="#F390A5"/><stop offset=".62" stop-color="#F6A4B6"/><stop offset=".81" stop-color="#F7B0C2"/><stop offset="1" stop-color="#F7B3C5"/></linearGradient><radialGradient id="paint2_radial_15_38" cx="0" cy="0" r="1" gradientTransform="matrix(3472.5 0 0 3472.51 1987.23 1919.13)" gradientUnits="userSpaceOnUse"><stop stop-color="#F7B3C5"/><stop offset=".19" stop-color="#F7B0C2"/><stop offset=".38" stop-color="#F6A4B6"/><stop offset=".58" stop-color="#F390A5"/><stop offset=".79" stop-color="#E7728B"/><stop offset=".99" stop-color="#DC4D6C"/><stop offset="1" stop-color="#DA4B6A"/></radialGradient><radialGradient id="paint3_radial_15_38" cx="0" cy="0" r="1" gradientTransform="matrix(4295.39 0 0 4295.4 3945.75 3959.1)" gradientUnits="userSpaceOnUse"><stop stop-color="#F7B3C5"/><stop offset=".19" stop-color="#F7B0C2"/><stop offset=".38" stop-color="#F6A4B6"/><stop offset=".58" stop-color="#F390A5"/><stop offset=".79" stop-color="#E7728B"/><stop offset=".99" stop-color="#DC4D6C"/><stop offset="1" stop-color="#DA4B6A"/></radialGradient><radialGradient id="paint6_radial_15_38" cx="0" cy="0" r="1" gradientTransform="matrix(3472.51 0 0 3472.48 2140.53 1918.43)" gradientUnits="userSpaceOnUse"><stop stop-color="#F7B3C5"/><stop offset=".19" stop-color="#F7B0C2"/><stop offset=".38" stop-color="#F6A4B6"/><stop offset=".58" stop-color="#F390A5"/><stop offset=".79" stop-color="#E7728B"/><stop offset=".99" stop-color="#DC4D6C"/><stop offset="1" stop-color="#DA4B6A"/></radialGradient><clipPath id="clip0_15_38"><path fill="#fff" d="M34 29h200v200H34z"/></clipPath></defs></svg>