<svg xmlns="http://www.w3.org/2000/svg" fill="none" viewBox="0 0 256 256"><path fill="#F8E0E0" d="M196 0H60C26.863 0 0 26.863 0 60v136c0 33.137 26.863 60 60 60h136c33.137 0 60-26.863 60-60V60c0-33.137-26.863-60-60-60"/><path fill="#EE4F47" d="M21.822 163.492a31 31 0 0 1-.444-1.158q.242-.55.409-1.128c.297-1.362.497-2.747.848-4.096.923-3.551 1.86-7.102 2.875-10.652a128 128 0 0 1 2.513-7.869c1.127-3.156 2.303-6.298 3.6-9.387 1.535-3.658 3.212-7.257 4.841-10.874.595-1.332 1.22-2.615 1.776-3.831a17 17 0 0 1-1.54-1.056c-1.856-1.633-3.08-3.706-4.16-5.903a9.82 9.82 0 0 1 1.887-11.482c1.909-1.89 4.265-2.965 6.658-4.043l2.245-.67h.178l.24-.24h3.55q.235.123.484.213c1.296.364 2.636.617 3.884 1.105 1.38.546 1.269.604 1.944-.763a19 19 0 0 1 1.7-2.45l.443-.084.444-.111 41.276-11.02c1.38 18.17 18.708 27.748 33.51 24.357 6.582-1.514 12.028-4.962 15.978-10.44 5.326-7.394 6.369-15.533 3.431-24.41l4.948-.444c0 1.864-.026 3.55 0 5.242a24.4 24.4 0 0 0 5.304 14.85 24.7 24.7 0 0 0 9.858 7.661 22.7 22.7 0 0 0 9.711 1.948c2.374-.07 4.735-.639 7.101-.985.075.581.182 1.163.217 1.749.102 1.735.165 3.479 2.22 4.172.128.044.226.191.328.293 2.002 1.997 4.194 3.839 5.947 6.031a40 40 0 0 1 4.314 6.889 25.9 25.9 0 0 1 2.952 10.78c.124 3.081.284 6.214-.16 9.245a32.1 32.1 0 0 1-4.789 12.729 35.9 35.9 0 0 1-7.101 8.229 6 6 0 0 0-.848 1.119h-.204l-.888 1.331v.479l1.132-1.14.666-.24c3.155 2.219 5.743 5.064 8.18 8.016 1.744 2.117 3.266 4.438 4.882 6.657a6.3 6.3 0 0 1-1.416.941c-3.551 1.136-6.657 3.036-9.653 5.144a4 4 0 0 1-1.106.342c-.568-1.984-1.127-3.972-1.699-5.952-.697-2.405-1.651-2.956-4.101-2.277a2403 2403 0 0 0-15.326 4.314 9808 9808 0 0 1-21.805 6.187c-1.572.444-2.304 1.576-1.935 3.191.257 1.146.603 2.273.909 3.409-1.899-.235-3.79-.488-5.69-.706-3.87-.443-7.731-1.096-11.61-1.229-6.924-.24-13.87-.288-20.656 1.527-.391.102-.688.581-1.03.887.398.142.817.212 1.238.209a58.4 58.4 0 0 1 12.912-1.531c4.859.035 9.719.319 14.571.661a71 71 0 0 1 7.962 1.11c3.826.714 7.62 1.606 11.437 2.383s6.405 3.129 7.577 6.582a10.47 10.47 0 0 1-1.567 9.893 35 35 0 0 1-4.838 5.264 50.4 50.4 0 0 1-6.48 4.745c-3.28 2.05-6.657 3.932-10.048 5.814-2.641 1.473-5.268 2.996-8.034 4.207-3.195 1.398-6.519 2.521-9.817 3.689a147 147 0 0 1-19.688 5.361q-1.221.34-2.379.848a108.5 108.5 0 0 1-25.299-9.52 112.3 112.3 0 0 1-38.746-33.212 112 112 0 0 1-12.943-22.636c-1.025-2.397-1.81-4.882-2.703-7.35-.142-.288-.257-.599-.377-.914m132.884-41.64c.683 1.105 1.26 2.037 1.833 2.973 2.352 3.835 4.713 7.661 7.034 11.509.36.599.75.612 1.279.373.976-.444 1.93-.919 2.929-1.296.888-.333 1.016-.835.746-1.705-.968-3.106-1.856-6.213-2.788-9.32-.572-1.926-1.171-3.844-1.775-5.868zm15.693 12.773c1.332-.319 2.575-.679 3.835-.888.804-.142 1.105-.443 1.074-1.3-.133-3.622-.186-7.239-.293-10.861-.053-1.797-.164-3.59-.257-5.525l-8.744 2.112zm9.663 31.614c.128.085.297.258.355.227 2.996-1.696 5.579-3.928 8.06-6.294q.273-.342.444-.746l-.231-.186z"/><path fill="#F8E0E0" d="M21.153 160.567c-.227-.248-.595-.466-.662-.754-.927-3.968-1.98-7.914-2.663-11.926-.73-4.15-1.244-8.335-1.54-12.538-.297-4.488-.355-9.01-.217-13.506a81 81 0 0 1 1.047-10.182c.675-4.274 1.425-8.552 2.481-12.747a102 102 0 0 1 3.578-10.998c1.358-3.6 2.902-7.137 4.54-10.616a73 73 0 0 1 3.777-6.733c1.7-2.796 3.378-5.61 5.29-8.255 2.193-3.036 4.563-5.952 6.986-8.815a83 83 0 0 1 5.952-6.391c3.964-3.8 8.06-7.452 12.6-10.572 2.153-1.474 4.217-3.107 6.436-4.438a109 109 0 0 1 8.26-4.612c3.235-1.633 6.555-3.107 9.857-4.611a28 28 0 0 1 3.507-1.332c3.799-1.136 7.59-2.308 11.428-3.28 3.307-.834 6.658-1.558 10.022-2.068 3.298-.502 6.658-.728 9.977-.963 2.464-.173 4.936-.222 7.408-.226a88.3 88.3 0 0 1 14.513 1.07c2.934.483 5.921.718 8.802 1.42a147 147 0 0 1 12.267 3.586c3.781 1.282 7.496 2.805 11.162 4.394a72 72 0 0 1 7.35 3.745c3.138 1.811 6.258 3.684 9.236 5.744s5.739 4.238 8.469 6.528a95 95 0 0 1 7.736 7.102c2.942 3.106 5.77 6.315 8.384 9.68a127 127 0 0 1 7.656 10.931 110 110 0 0 1 5.854 10.98 117 117 0 0 1 4.527 11.097c1.114 3.177 1.891 6.484 2.743 9.764.572 2.219 1.101 4.438 1.487 6.657a71 71 0 0 1 1.145 8.398c.288 5.561.497 11.135.444 16.701-.045 3.551-.577 7.101-1.021 10.625-.346 2.765-.768 5.535-1.385 8.247-.737 3.213-1.673 6.386-2.614 9.551a78 78 0 0 1-2.494 7.416c-1.456 3.551-3.081 7.013-4.727 10.466-.755 1.576-1.736 3.04-2.614 4.554-.444-.706-.888-1.438-1.385-2.108-3.324-4.439-8.282-6.312-13.12-8.376l-2.778-.763-.67-.049h-1.549l-.888.058h-.684l-.372-.355a3 3 0 0 0-.187-.395c-3.076-4.798-6.466-9.321-10.816-13.08l-2.339-2.01c.386-.267.652-.409.888-.604a33.1 33.1 0 0 0 7.74-9.591c4.736-8.912 5.663-18.197 2.583-27.86-2.405-7.545-6.932-13.505-13.368-18.072a2.03 2.03 0 0 1-.746-1.239c-.186-1.274-.23-2.565-.328-3.852q.326-.057.644-.156c7.372-2.911 12.427-8.086 14.961-15.6 4.722-13.963-3.382-29.187-17.82-32.658a24.24 24.24 0 0 0-14.375.888 25.2 25.2 0 0 0-11.061 8.22 14 14 0 0 1-1.331-.533 60.6 60.6 0 0 0-16.009-5.37c-6.449-1.283-12.951-1.62-19.529-1.487a84.7 84.7 0 0 0-17.03 2.01 78.7 78.7 0 0 0-22.924 9.161c-6.409 3.817-12.347 8.22-17.367 13.76-1.749 1.939-3.448 3.923-5.17 5.889-.276.106-.546.226-.822.324-4.19 1.5-8.375 3.005-12.569 4.483a2.14 2.14 0 0 0-1.482 1.482c-.582 1.704-1.3 3.36-1.962 5.033l-.52.067-.78.168-.995.151c-1.775.737-3.621 1.287-5.25 2.246-2.947 1.735-5.268 4.168-5.814 7.683-.844 5.428 1.895 9.507 5.583 13.057.652.63.763 1.017.368 1.74a36 36 0 0 0-1.713 3.355c-2.321 5.504-4.767 10.968-6.844 16.564-1.82 4.909-3.275 9.955-4.749 14.984-.94 3.191-1.61 6.484-2.405 9.742"/><path fill="#FDFCFD" d="M183.555 225.802q-.486.37-1.021.67c-.781.368-1.611.634-2.37 1.038-1.136.608-2.188 1.372-3.346 1.922-1.004.479-2.126.706-3.156 1.132-.613.257-1.11.803-1.731 1.012q-1.185.317-2.406.444a49 49 0 0 1-.208-.657l-.142-.444c-1.07-3.75-2.131-7.505-3.209-11.251-.959-3.32-1.944-6.636-2.916-9.951.777-1.376 1.633-2.716 2.317-4.132a11.36 11.36 0 0 0-2.219-12.902c-1.638-1.66-3.671-2.552-5.824-3.254-.315-1.229-.63-2.458-.963-3.75l26.377-7.265c.688 2.294 1.332 4.371 1.94 6.453a2 2 0 0 1-.116.444c-2.587 4.278-2.183 8.521 1.265 12.116a39 39 0 0 0 3.107 2.663c.422 1.514.839 3.032 1.265 4.545l3.995 14.327-1.332 1.101-1.997 1.331-.653.639-.665.222-1.332.888-1.553 1.11-1.105.443-.888.666h-.226z"/><path fill="#EE4F47" d="M225.524 184.779c-1.478 2.361-2.881 4.78-4.439 7.079a110 110 0 0 1-10.9 13.439 3 3 0 0 1-.444.324c-.617-.093-1.238-.169-1.851-.289a73.7 73.7 0 0 1-18.081-6.289c-3.072-1.509-5.326-3.932-5.77-7.594-.227-1.97-.04-3.932 1.424-5.37a64 64 0 0 1 6.214-5.446c3.018-2.277 6.16-4.394 9.693-5.854 3.462-1.434 6.929-2.024 10.493-.404.967.444 1.926.888 2.889 1.354 2.543 1.185 5.14 2.33 7.101 4.407 1.341 1.429 2.455 3.085 3.671 4.643m-63.85 50.485c-3.608.919-7.194 1.94-10.829 2.739a101 101 0 0 1-27.438 2.104c-5.299-.298-10.568-1.123-15.845-1.776a33 33 0 0 1-3.431-.781c1.58-.346 3.178-.617 4.736-1.047 4.469-1.225 8.97-2.366 13.368-3.822a164 164 0 0 0 13.315-5.033c2.965-1.269 5.77-2.96 8.571-4.567 3.608-2.064 7.159-4.23 10.736-6.347.444-.253.888-.443 1.331-.692z"/><path fill="#2A275E" d="m161.674 235.264-5.486-19.209q.3-.454.675-.848c1.438-1.265 2.907-2.499 4.345-3.759.635-.559 1.23-1.159 1.842-1.74.972 3.315 1.957 6.631 2.916 9.951 1.079 3.746 2.139 7.5 3.209 11.251l.142.444c.067.217.138.444.209.657-.16.244-.271.625-.489.705-2.445.883-4.908 1.709-7.363 2.548"/><path fill="#903E40" d="M163.05 209.708c-.612.582-1.207 1.181-1.842 1.74-1.438 1.261-2.907 2.495-4.345 3.759q-.376.394-.674.848c-.444.231-.888.444-1.332.693-3.577 2.117-7.128 4.283-10.736 6.346-2.814 1.607-5.606 3.298-8.571 4.567a162 162 0 0 1-13.315 5.033c-4.398 1.456-8.876 2.597-13.368 3.822-1.558.444-3.155.701-4.736 1.047l-2.241-.439a18 18 0 0 1 2.379-.826 147 147 0 0 0 19.688-5.388c3.298-1.167 6.622-2.29 9.818-3.688 2.765-1.212 5.393-2.734 8.033-4.208 3.382-1.881 6.769-3.763 10.049-5.814a50.6 50.6 0 0 0 6.48-4.744 35 35 0 0 0 4.837-5.264 10.48 10.48 0 0 0 1.567-9.893c-1.172-3.453-3.799-5.81-7.576-6.582s-7.612-1.669-11.438-2.384a71 71 0 0 0-7.962-1.109c-4.851-.342-9.711-.626-14.571-.661-4.346.03-8.675.545-12.907 1.535a3.6 3.6 0 0 1-1.238-.208c.342-.302.639-.782 1.03-.888 6.786-1.815 13.732-1.775 20.656-1.527 3.879.133 7.74.79 11.61 1.23 1.9.217 3.791.47 5.69.705l9.299 2.002c2.152.701 4.185 1.593 5.823 3.253a11.36 11.36 0 0 1 2.219 12.902c-.692 1.425-1.549 2.765-2.326 4.141"/><path fill="#2A275E" d="M194.208 218.927q-2.002-7.163-3.995-14.327c-.444-1.513-.843-3.031-1.265-4.545q3.822 1.544 7.647 3.107c.915.368 1.816.763 2.726 1.145q1.255 4.38 2.521 8.757c-2.015 1.66-4.017 3.333-6.05 4.966q-.759.508-1.584.897"/><path fill="#903E40" d="M199.311 204.28c-.91-.381-1.811-.776-2.725-1.145a3962 3962 0 0 1-7.647-3.107 39 39 0 0 1-3.107-2.663c-3.449-3.595-3.853-7.838-1.265-12.116q.086-.215.115-.444c1.993-1.62 3.995-3.227 5.97-4.882q.714-.677 1.331-1.443a4 4 0 0 0 1.106-.364c3.009-2.108 6.12-3.994 9.653-5.144a6.4 6.4 0 0 0 1.416-.94l.532-.027.373.355h.684l.887-.058h1.527l.67.049 2.77.755c4.838 2.063 9.795 3.945 13.119 8.375.502.67.928 1.402 1.385 2.108q-.294.564-.595 1.127c-1.216-1.558-2.33-3.213-3.674-4.642-1.953-2.077-4.55-3.222-7.102-4.408-.963-.443-1.922-.914-2.889-1.353-3.551-1.62-7.03-1.03-10.492.404-3.551 1.46-6.658 3.577-9.694 5.854a64 64 0 0 0-6.213 5.446c-1.465 1.438-1.651 3.399-1.425 5.37.417 3.662 2.69 6.085 5.77 7.594a73.7 73.7 0 0 0 18.082 6.289c.612.12 1.233.195 1.85.289l-.998.941c-1.11-.218-2.219-.387-3.32-.662-2.024-.444-4.057-1.012-6.094-1.558M21.152 160.567c.795-3.258 1.465-6.551 2.406-9.764 1.473-5.029 2.93-10.075 4.749-14.984 2.077-5.597 4.523-11.06 6.844-16.564a36 36 0 0 1 1.713-3.355c.395-.724.284-1.11-.368-1.74-3.689-3.551-6.427-7.607-5.584-13.049.546-3.515 2.867-5.947 5.814-7.683 1.63-.958 3.493-1.509 5.25-2.245l-.887.83c-2.374 1.078-4.731 2.152-6.657 4.043a9.82 9.82 0 0 0-1.904 11.491c1.078 2.197 2.303 4.269 4.159 5.903q.74.57 1.54 1.056c-.569 1.216-1.194 2.517-1.776 3.83-1.629 3.617-3.306 7.217-4.842 10.874a186 186 0 0 0-3.6 9.387 132 132 0 0 0-2.512 7.869c-1.016 3.551-1.952 7.102-2.876 10.652-.35 1.332-.55 2.734-.847 4.097a9 9 0 0 1-.409 1.127z"/><path fill="#EE4F47" d="M199.312 204.28c2.037.542 4.069 1.11 6.12 1.616 1.092.275 2.219.444 3.32.661l-6.92 6.48q-1.255-4.376-2.52-8.757"/><path fill="#2A275E" d="M44.273 90.797c.66-1.673 1.38-3.329 1.961-5.033a2.14 2.14 0 0 1 1.474-1.452c4.194-1.478 8.38-2.982 12.569-4.482.275-.098.546-.218.821-.324l1.736-.697c1.642-.542 3.302-1.048 4.93-1.624 5.429-1.931 10.843-3.897 16.271-5.832 5.109-1.825 10.209-3.627 15.326-5.468a1.9 1.9 0 0 0 .954-.83 26.76 26.76 0 0 1 11.682-11.718c5.579-2.929 11.513-3.701 17.647-2.663 6.031 1.008 11.158 3.875 15.409 8.291a1.7 1.7 0 0 0 1.217.444c3.714-.333 7.416-.794 11.131-1.074 1.207-.089 2.055-.386 2.459-1.567l.581-.697a25.17 25.17 0 0 1 11.06-8.224 24.25 24.25 0 0 1 14.376-.888c14.438 3.471 22.542 18.695 17.82 32.658-2.543 7.514-7.59 12.689-14.962 15.6a5 5 0 0 1-.643.156l-.772.404c-2.37.346-4.732.914-7.102.985a22.7 22.7 0 0 1-9.711-1.948 24.7 24.7 0 0 1-9.857-7.661 24.4 24.4 0 0 1-5.304-14.85c-.031-1.687 0-3.378 0-5.242l-4.949.443c2.938 8.877 1.9 17.008-3.431 24.411-3.95 5.477-9.396 8.926-15.978 10.439-14.801 3.391-32.129-6.187-33.509-24.357l-41.276 11.02-.444.111-.444.084-1.584.56c-1.976.275-2.082.363-2.22 1.912-.444-.066-.839-.142-1.26-.2l-2.952-.381H45.08zm80.44 2.969c8.712.022 15.955-5.836 17.464-14.296 1.416-7.936-2.84-15.334-10.075-18.441-6.169-2.663-12.165-2.002-17.788 1.775-6.214 4.163-8.877 12.796-6.125 19.742a17.59 17.59 0 0 0 16.524 11.22m39.283-22.276c0 9.014 7.252 16.422 16.133 16.422s16.165-7.283 16.223-16.338-7.177-16.421-16.072-16.461a16.27 16.27 0 0 0-15.074 10.115 16.3 16.3 0 0 0-1.21 6.262m27.992 107.048q-.617.766-1.332 1.442c-1.97 1.643-3.994 3.249-5.969 4.883-.626-2.082-1.252-4.159-1.94-6.454l-26.377 7.266c.333 1.291.648 2.521.963 3.75l-9.284-2.01c-.307-1.137-.653-2.264-.91-3.409-.369-1.616.364-2.747 1.935-3.191q10.905-3.08 21.805-6.187a4275 4275 0 0 1 15.326-4.314c2.45-.679 3.404-.129 4.101 2.277.559 1.984 1.118 3.972 1.682 5.947"/><path fill="#FDFCFD" d="m154.706 121.852 9.245-3.338c.617 2.024 1.216 3.941 1.775 5.868.932 3.106 1.82 6.213 2.787 9.32.271.888.151 1.372-.745 1.704-.999.378-1.953.861-2.93 1.296-.528.24-.918.227-1.278-.372-2.321-3.848-4.682-7.674-7.035-11.509-.563-.932-1.14-1.864-1.819-2.969m15.69 12.773-4.385-16.479 8.743-2.113c.093 1.935.204 3.728.258 5.526.106 3.622.159 7.239.293 10.86.031.853-.271 1.159-1.074 1.301-1.261.226-2.499.586-3.835.905"/><path fill="#903E40" d="m187.328 95.768.772-.404c.098 1.287.142 2.578.328 3.852.088.49.354.931.746 1.239 6.436 4.567 10.963 10.541 13.368 18.072 3.08 9.645 2.153 18.948-2.583 27.86a33.1 33.1 0 0 1-7.727 9.595c-.222.196-.488.338-.888.604l2.339 2.011c4.35 3.741 7.741 8.281 10.817 13.079q.107.19.186.395l-.533.027c-1.62-2.219-3.142-4.523-4.882-6.658-2.436-2.951-5.024-5.769-8.18-8.015l-.683-.444q.36-.608.848-1.118a35.9 35.9 0 0 0 7.101-8.229 32.1 32.1 0 0 0 4.789-12.729c.444-3.027.284-6.165.16-9.245a25.9 25.9 0 0 0-2.952-10.781 40 40 0 0 0-4.314-6.888c-1.753-2.193-3.946-4.035-5.947-6.032-.102-.102-.2-.248-.329-.293-2.059-.692-2.121-2.436-2.219-4.172-.035-.564-.142-1.145-.217-1.726m-7.27 70.471 8.619-6.999.231.187a3.2 3.2 0 0 1-.444.745c-2.472 2.388-5.055 4.607-8.051 6.294-.058.031-.226-.142-.355-.227M47.299 91.103l2.947.377c.444.058.838.134 1.26.2.613.408 1.114.444 1.443-.368.213-.533.519-1.03.785-1.545l1.576-.559a19 19 0 0 0-1.7 2.45c-.675 1.367-.564 1.332-1.944.763-1.247-.488-2.588-.74-3.884-1.105a4 4 0 0 1-.483-.213m-6.214.91.888-.83.994-.15.36.31zm149.35 65.665-1.11 1.136v-.48l.888-1.331z"/><path fill="#903E40" d="m190.435 157.678-.222-.661h.204l.684.443zM62.833 78.809l-1.744.696c1.722-1.966 3.422-3.95 5.17-5.89 5.02-5.552 10.959-9.954 17.368-13.758a78.7 78.7 0 0 1 22.924-9.16 84.7 84.7 0 0 1 17.029-2.011c6.569-.133 13.071.204 19.529 1.487a60.6 60.6 0 0 1 16.009 5.37q.652.3 1.332.532l-.582.702c-1.274-.644-2.508-1.38-3.821-1.913a58 58 0 0 0-6.431-2.321 104 104 0 0 0-9.454-2.153 57 57 0 0 0-8.433-.94c-4.354-.107-8.721-.085-13.062.221a85 85 0 0 0-11.096 1.567 80 80 0 0 0-9.55 2.663 69.8 69.8 0 0 0-16.139 7.847 90 90 0 0 0-8.432 6.058c-2.837 2.392-5.406 5.104-8.02 7.745a37 37 0 0 0-2.597 3.258"/><path fill="#FDFCFD" d="M124.712 93.766a17.59 17.59 0 0 1-16.524-11.225c-2.769-6.946-.075-15.578 6.125-19.741 5.623-3.773 11.62-4.417 17.789-1.776 7.234 3.107 11.491 10.506 10.075 18.441-1.509 8.464-8.752 14.323-17.465 14.3m39.284-22.275a16.3 16.3 0 0 1 4.735-11.575 16.28 16.28 0 0 1 11.549-4.798c8.877.031 16.133 7.439 16.071 16.462s-7.301 16.346-16.222 16.337c-8.921-.008-16.151-7.412-16.133-16.426"/><path fill="#EE4F47" d="M62.833 78.809a37 37 0 0 1 2.592-3.254c2.614-2.64 5.184-5.352 8.02-7.745a90 90 0 0 1 8.433-6.058 69.8 69.8 0 0 1 16.138-7.847 80 80 0 0 1 9.551-2.663 85 85 0 0 1 11.096-1.567c4.34-.306 8.708-.328 13.062-.222 2.83.103 5.649.418 8.432.941 3.178.564 6.338 1.296 9.454 2.153a58 58 0 0 1 6.427 2.303c1.331.533 2.547 1.27 3.821 1.913-.404 1.18-1.251 1.478-2.459 1.567-3.715.28-7.416.741-11.131 1.074a1.7 1.7 0 0 1-1.216-.444c-4.252-4.438-9.378-7.283-15.41-8.29-6.134-1.026-12.068-.254-17.647 2.663a26.75 26.75 0 0 0-11.681 11.717 1.9 1.9 0 0 1-.955.83c-5.1 1.842-10.208 3.644-15.325 5.468-5.428 1.935-10.843 3.9-16.271 5.832-1.62.581-3.28 1.087-4.931 1.628"/><path fill="#F8E0E0" d="M53.73 89.772c-.266.514-.572 1.011-.785 1.544-.328.825-.83.777-1.443.368.147-1.549.236-1.637 2.228-1.912"/></svg>