<svg xmlns="http://www.w3.org/2000/svg" width="256" height="256" fill="none"><rect width="256" height="256" fill="#F4F2ED" rx="60"/><path fill="url(#paint0_linear_75_36)" d="M114.338 83.346h.014c4.842-16.93 25.945-25.194 47.45-25.194 14.86 0 28.199 4.705 37.344 12.173a54.9 54.9 0 0 0-15.987 3.177c7.389 2.747 13.737 6.972 18.442 12.2a57 57 0 0 0-10.749-.813 76.55 76.55 0 0 1 13.552 43.611c0 42.473-34.431 76.904-76.904 76.904-41.818 0-76.904-35.013-76.904-76.904 0-6.616.879-13.447 2.586-19.854.448-1.345 1.072-2.635 1.9-3.107 1.038-.591 1.983 1.171 2.134 1.744a70.4 70.4 0 0 0 4.52 12.243c-.165-8.78 3.586-16.778 8.745-23.695 3.44-4.612 6.631-8.886 8.104-21.219.098-.828.883-1.424 1.676-1.164 11.197 3.665 17.183 22.31 16.253 37.902 6.185.886 6.157-5.576 6.157-5.576-1.978-6.078-.659-17.374 11.645-22.428z"/><path fill="url(#paint1_radial_75_36)" d="M201.888 108.916c1.87 42.297-32.901 78.765-75.302 78.765-39.694 0-72.22-30.68-75.162-69.62a81 81 0 0 0-.826 11.008c.3 41.665 35.301 76.335 76.904 76.335 42.473 0 76.904-34.431 76.904-76.904 0-6.768-.876-13.331-2.518-19.584" opacity=".9"/><path fill="url(#paint2_radial_75_36)" d="M125.626 88.951c-.829-1.465-4.654-3.634-6.326-4.012 6.328-20.27 38.566-26.492 58.298-22.906 8.211 1.494 18.437 5.968 21.548 8.292-9.145-7.468-22.487-12.173-37.344-12.173-21.505 0-42.608 8.264-47.45 25.194h-.036c-12.304 5.054-13.623 16.354-11.645 22.43 1.898-7.249 10.931-16.157 22.955-16.825" style="mix-blend-mode:screen"/><path fill="url(#paint3_linear_75_36)" d="M147.974 74.953c-17.275 3.399-22.92 4.51-28.701 10.006 6.493-17.19 23.067-20.674 42.816-12.839q-7.05 1.454-14.115 2.835z"/><path fill="url(#paint4_radial_75_36)" d="M54.77 106.292c-4.72 19.323-1.072 42.034 20.37 61.093-6.384-6.981-14.178-32.755 3.02-51.168 1.158-1.241 3.151-.329 3.215 1.367 1.417 38.268 32.295 61.64 67.896 57.27-11.031-.62-47.51-13.397-20.374-18.451 14.184-2.643 36.422-6.785 36.422-26.741 0-32.348-25.011-41.805-40.179-40.399-10.38.963-19.619 7.55-22.463 16.508 1.093 3.531-3.26 6.003-6.163 5.588.932-15.59-5.053-34.246-16.253-37.911-.791-.26-1.578.336-1.676 1.164-1.473 12.333-4.663 16.607-8.102 21.22-5.161 6.918-8.912 14.914-8.747 23.694a70.4 70.4 0 0 1-4.52-12.243c-.125-.474-.813-1.799-1.644-1.861-.45-.033-.69.407-.802.87"/><path fill="url(#paint5_linear_75_36)" d="M119.368 158.361c20.883 16.956 62.879 4.243 62.879-36.985-16.954 25.7-38.549 43.427-62.877 36.985z" style="mix-blend-mode:screen"/><path fill="url(#paint6_linear_75_36)" d="M78.16 116.217a1.74 1.74 0 0 1 1.534-.562c-15.394 18.775-2.977 51.75 5.544 59.851.477 1.349-8.084-5.667-9.264-7.308-6.482-5.5-15.772-32.752 2.186-51.981" style="mix-blend-mode:screen"/><path fill="url(#paint7_linear_75_36)" d="M127.5 159.914c20.887 0 37.822-13.816 37.822-30.86s-16.935-30.86-37.822-30.86c-17.82 0-37.83 11.592-37.821 31.31.008 30.47 32.198 47.999 59.638 45.345-2.061-.239-14.92-.923-23.61-10.753-.784-.886-2.144-2.433-1.527-3.437.615-1.004 2.311-.747 3.318-.747z"/><path fill="#fff" d="m161.202 115.031-29.892 28.604c-2.652 1.885-5.476 2.021-8.262.312L93.73 115.136a30.4 30.4 0 0 1 2.813-3.819l3.076 2.879c7.699 7.216 13.924 13.045 22.698 20.533 3.959 3.38 5.19 3.314 9.074 0 10.037-8.569 17.379-15.051 26.921-23.574a30.4 30.4 0 0 1 2.887 3.878z" opacity=".6"/><mask id="mask0_75_36" width="77" height="62" x="89" y="114" maskUnits="userSpaceOnUse" style="mask-type:luminance"><path fill="#fff" d="M165.322 129.054c0 17.044-16.935 30.86-37.822 30.86-1.009 0-2.703-.259-3.32.747-.617 1.002.743 2.549 1.527 3.435 8.165 9.237 20.011 10.399 23.12 10.705l.49.048c-27.44 2.654-59.63-14.875-59.639-45.345a26.8 26.8 0 0 1 4.072-14.352l29.461 26.758c2.096 1.903 5.627 1.903 7.723 0l30.019-27.266c2.791 4.302 4.369 9.207 4.369 14.41"/></mask><g mask="url(#mask0_75_36)"><path fill="url(#paint8_linear_75_36)" d="M80.918 93.46h95.596v86.676H80.918z" opacity=".7"/><g filter="url(#filter0_f_75_36)"><path fill="#458FCD" fill-rule="evenodd" d="M118.72 142.09c-5.57-5.796-22.252-25.055-22.252-25.055l1.29.057 26.117 19.505c1.955 1.422 4.746 1.406 6.684-.033l25.609-19.446 1.358-.108s-16.137 18.802-22.318 24.997c-6.181 6.194-10.918 5.879-16.488.083" clip-rule="evenodd"/></g></g><path fill="#fff" d="M132.806 82.755c4.048-1.274 3.692-5.28 3.692-5.28s-2.024-2.384-6.034-1.063c-3.753 1.237-4.335 3.91-4.335 3.91s2.05 3.89 6.677 2.433"/><defs><linearGradient id="paint0_linear_75_36" x1="77.288" x2="185.701" y1="83.5" y2="184.623" gradientUnits="userSpaceOnUse"><stop stop-color="#1B91F3"/><stop offset="1" stop-color="#0B68CB"/></linearGradient><linearGradient id="paint3_linear_75_36" x1="107.454" x2="146.465" y1="109.386" y2="65.959" gradientUnits="userSpaceOnUse"><stop stop-color="#0F5DB0"/><stop offset="1" stop-color="#0F5DB0" stop-opacity="0"/></linearGradient><linearGradient id="paint5_linear_75_36" x1="175.822" x2="157.684" y1="140.829" y2="185.365" gradientUnits="userSpaceOnUse"><stop stop-color="#E247C4" stop-opacity="0"/><stop offset="1" stop-color="#E247C4" stop-opacity=".64"/></linearGradient><linearGradient id="paint6_linear_75_36" x1="63.342" x2="79.323" y1="100.889" y2="165.208" gradientUnits="userSpaceOnUse"><stop offset=".1" stop-color="#EF3ACC"/><stop offset="1" stop-color="#EF3ACC" stop-opacity="0"/></linearGradient><linearGradient id="paint7_linear_75_36" x1="127.5" x2="127.5" y1="109.494" y2="174.533" gradientUnits="userSpaceOnUse"><stop stop-color="#fff"/><stop offset=".91" stop-color="#BEE1FE"/><stop offset="1" stop-color="#96CEFD"/></linearGradient><linearGradient id="paint8_linear_75_36" x1="128.717" x2="128.717" y1="146.298" y2="173.544" gradientUnits="userSpaceOnUse"><stop stop-color="#BCE0FD"/><stop offset="1" stop-color="#88CCFC"/></linearGradient><radialGradient id="paint1_radial_75_36" cx="0" cy="0" r="1" gradientTransform="matrix(25.91203 59.64484 -57.13762 24.8228 77.088 118.295)" gradientUnits="userSpaceOnUse"><stop offset=".53" stop-color="#0B4186" stop-opacity="0"/><stop offset="1" stop-color="#0B4186" stop-opacity=".45"/></radialGradient><radialGradient id="paint2_radial_75_36" cx="0" cy="0" r="1" gradientTransform="matrix(-8.55841 -10.95545 18.12885 -14.16228 129.478 91.586)" gradientUnits="userSpaceOnUse"><stop stop-color="#EF3ACC" stop-opacity="0"/><stop offset="1" stop-color="#EF3ACC" stop-opacity=".64"/></radialGradient><radialGradient id="paint4_radial_75_36" cx="0" cy="0" r="1" gradientTransform="matrix(44.05513 -91.38627 112.88909 54.42112 98.496 170.402)" gradientUnits="userSpaceOnUse"><stop offset=".02" stop-color="#094188"/><stop offset=".97" stop-color="#0B4186" stop-opacity="0"/></radialGradient><filter id="filter0_f_75_36" width="125.058" height="93.535" x="64.468" y="85.01" color-interpolation-filters="sRGB" filterUnits="userSpaceOnUse"><feFlood flood-opacity="0" result="BackgroundImageFix"/><feBlend in="SourceGraphic" in2="BackgroundImageFix" result="shape"/><feGaussianBlur result="effect1_foregroundBlur_75_36" stdDeviation="16"/></filter></defs></svg>