<svg xmlns="http://www.w3.org/2000/svg" width="256" height="256" fill="none"><path fill="#282828" d="M196 0H60C26.863 0 0 26.863 0 60v136c0 33.137 26.863 60 60 60h136c33.137 0 60-26.863 60-60V60c0-33.137-26.863-60-60-60"/><path fill="#D1A41A" d="m216.053 193.283-35.599-38.002-4.1 2.719c-19.729-11.663-34.491-28.487-42.064-53.715-26.966 6.652-58.406 23.715-78.663 46.797l.011.014c-20.116 21.838-33.08 42.387-36.513 49.86l19.631.126c-.758-8.839 1.54-16.208 7.526-24.403 27.156-37.17 129.132 5.661 169.395 28.868l21.449-.189c-.001 0-3.199-14.15-21.073-12.075"/><path fill="#FFDC76" d="M177.107 158c-41.441-20.735-52.682-71.32-42.522-106.038 0 0 7.714 3.585 15.052 20.944 16.8-4.83 36.375-5.284 53.434-.566 0 0 2.069-13.585 14.487-20 1.879 8.052 14.299 72.075-40.451 105.66"/><path fill="#000" d="m102.404 117.858 12.061-5.875 6.893 18.662zm-13.526 6.826 7.495-4.493 6.892 12.183zm-14.56 9.417 6.547-4.32 3.274 11.232zm115.963 31.103-4.308-4.319-6.03 9.503zm8.616 10.368-3.446-3.456-10.339 6.912zm-64.123-75.717-.494-6.88 12.062 6.135zm3.815 10.055-2.404-5.118 8.434 3.476zm79.262-7.258 1.722-5.183-9.477 3.974zm-3.446 10.541.861-4.234-6.892 2.074zm-83.57 13.392h22.572v2.799h-22.572zm0-6.74h22.572v2.799h-22.572zm68.923 6.74h22.572v2.799h-22.572zm0-6.74h22.572v2.799h-22.572z"/><path fill="#000" d="m221.937 77.01-.038-.056c-.015-4.363-1.364-22.804-3.838-27.881-6.712 2.573-18.935 10.929-21.664 19.448-13.22-1.997-28.146-1.756-41.281.524-2.184-9.208-13.135-16.178-21.409-20.137-3.488 5.947-5.04 19.706-4.64 29.516l-.046.031c1.536 41.047 21.494 66.605 47.593 82.094 26.868-15.489 46.058-45.694 45.29-83.557l.033.019m-44.952 78.218c-41.027-20.652-48.788-72.886-41.793-100.68 1.945 10.756 5.476 17.468 13.134 20.738 7.105-2.055 15.362-3.298 23.806-3.685l6.088 14.118 4.503-14.15c7.792.313 15.402 1.373 22.068 3.228 7.036-5.163 9.809-13.08 11.259-19.964 1.858 8.02 1.646 25.385 1.654 25.385l.052-.285c.69 34.162-16.548 61.356-40.771 75.296z"/><path fill="#000" d="M235.547 198.029c-4.214-4.759-12.453-7.005-19.362-6.841-4.896-5.878-33.264-36.057-33.264-36.057l-1.969 2.496 34.287 37.173 1.484-.128c9.297-.803 14.585 4.286 16.035 5.869 1.024 1.162 1.646 2.22 1.988 3.047h-18.85c-43.158-22.717-81.114-38.723-121.116-42.251.089-5.653 1.083-12.047 3.002-19.19l-3.702-1.015c-1.97 7.332-3.002 13.94-3.121 19.878q-6.347-.426-12.709-.426c-3.616 0-6.909.339-9.894.93-3.914-3.95-7.25-7.711-10.064-11.273 18.679-19.621 49.555-37.433 76.337-43.973l-.871-3.786c-28.828 7.013-60.387 26.073-77.957 44.575-8.154-11.101-11.43-20.223-12.367-27.107-1.211-8.691.85-16.694 5.97-23.148 8.018-10.068 19.362-10.757 31.131-8.778-.228 1.868.015 3.65.755 4.75 3.097 4.613 19.702 6.24 29.683 1.764-7.336-10.325-22.177-15.403-26.27-13.424-1.365.672-2.39 1.902-3.097 3.347-4.052-.73-8.069-1.273-11.003-1.256-10.32.076-18.253 3.718-24.138 11.101-5.8 7.271-8.145 16.264-6.78 26.074 1.295 9.293 5.85 19.189 13.475 29.43l-3.675 4.062C30.89 174.868 17.243 197.501 17.243 201.2v1.936h24.564l-.43-2.297c-1.391-7.4 1.381-16.694 7.061-23.578 3.566-4.337 9.468-9.294 18.765-11.617 8.239 8.115 18.764 16.694 30.45 25.041h18.252v-1.936c0-2.186-1.075-4.097-3.019-5.387-2.883-1.902-7.335-2.168-11.429-.759-3.898-4.38-6.09-10.241-6.56-17.469 39.661 3.546 77.531 19.706 120.263 42.252h23.54v-1.533c-.375-4.528-3.154-7.825-3.154-7.825zM45.344 174.966c-5.817 7.083-8.87 16.437-8.188 24.44H21.632c3.113-6.79 15.524-26.418 33.776-46.297 2.525 3.15 5.331 6.325 8.419 9.552-8.957 2.728-14.926 7.796-18.594 12.305zm108.682-83.59h-.001l-.001.001z"/><path fill="#000" d="M206.885 91.696v-2.524c-9.322 0-14.905 3.698-17.576 11.577h-20.16c1.41-6.306 1.652-12.492-.425-16.07-1.172-2.012-3.016-3.084-5.333-3.084-8.305 0-11.583 8.537-11.717 8.9l2.351.88c.093-.312 2.843-7.247 9.39-7.247 1.43 0 2.435.58 3.161 1.832 1.701 2.937 1.425 8.709.012 14.774h-11.459v2.523l10.898.01c-1.164 4.139-2.792 8.225-4.627 11.491l-.593 1.046 14.387 9.071-8.081 5.34 1.387 2.108 9.046-5.97 9.736 6.375 1.335-2.133-9.046-5.607 14.215-9.245-.011-.016-.049-.029.017-.002c-2.981-4.405-3.92-8.172-2.681-12.439l11.748.016.025-2.506h-10.942c2.069-4.778 4.912-9.071 14.992-9.071m-29.441 31.614-10.597-6.696 20.763.006zm11.061-20.043c-.896 2.851-.534 7.145 1.663 10.8H164.58c1.559-3.128 2.998-6.938 4.049-10.8z"/></svg>