<svg xmlns="http://www.w3.org/2000/svg" fill="none" viewBox="0 0 256 256"><path fill="#282828" d="M196 0H60C26.863 0 0 26.863 0 60v136c0 33.137 26.863 60 60 60h136c33.137 0 60-26.863 60-60V60c0-33.137-26.863-60-60-60"/><g clip-path="url(#clip0_80_21)"><path fill="#F2E4FF" d="M127.5 211.582c46.437 0 84.082-37.645 84.082-84.082S173.937 43.418 127.5 43.418 43.418 81.063 43.418 127.5s37.645 84.082 84.082 84.082"/><path fill="url(#paint0_linear_80_21)" fill-rule="evenodd" d="M127.679 199.086v-10.607c33.599-.097 60.805-27.358 60.805-60.981 0-33.621-27.206-60.882-60.805-60.98V55.913c39.457.1 71.409 32.107 71.409 71.586 0 39.481-31.952 71.491-71.409 71.588m0-37.126c18.951-.099 34.291-15.485 34.291-34.462 0-18.976-15.34-34.361-34.291-34.46V82.432c24.812.097 44.898 20.232 44.898 45.065 0 24.835-20.086 44.97-44.898 45.067zm0-53.013c10.166.097 18.381 8.361 18.381 18.551 0 10.192-8.215 18.456-18.381 18.553zM40 127.498C40 175.825 79.173 215 127.5 215c48.325 0 87.5-39.175 87.5-87.502C215 79.173 175.825 40 127.5 40 79.173 40 40 79.173 40 127.498" clip-rule="evenodd"/><g filter="url(#filter0_d_80_21)"><path fill="#000" d="M127.5 49.912c-43.606 0-78.955 35.197-78.955 78.613 0 43.417 35.35 78.614 78.955 78.614z"/></g><path fill="url(#paint1_linear_80_21)" d="M127.5 49.912c-43.606 0-78.955 35.197-78.955 78.613 0 43.417 35.35 78.614 78.955 78.614z"/></g><defs><linearGradient id="paint0_linear_80_21" x1="8790" x2="8790" y1="17540" y2="40" gradientUnits="userSpaceOnUse"><stop stop-color="#420C5D"/><stop offset="1" stop-color="#951AD1"/></linearGradient><linearGradient id="paint1_linear_80_21" x1="-3820.25" x2="-3820.25" y1="15772.6" y2="49.912" gradientUnits="userSpaceOnUse"><stop stop-color="#420C5D"/><stop offset="1" stop-color="#951AD1"/></linearGradient><clipPath id="clip0_80_21"><path fill="#fff" d="M40 40h175v175H40z"/></clipPath><filter id="filter0_d_80_21" width="118.955" height="197.227" x="20.545" y="29.912" color-interpolation-filters="sRGB" filterUnits="userSpaceOnUse"><feFlood flood-opacity="0" result="BackgroundImageFix"/><feColorMatrix in="SourceAlpha" result="hardAlpha" values="0 0 0 0 0 0 0 0 0 0 0 0 0 0 0 0 0 0 127 0"/><feOffset dx="-8"/><feGaussianBlur stdDeviation="10"/><feColorMatrix values="0 0 0 0 0.25098 0 0 0 0 0.25098 0 0 0 0 0.25098 0 0 0 0.2 0"/><feBlend in2="BackgroundImageFix" result="effect1_dropShadow_80_21"/><feBlend in="SourceGraphic" in2="effect1_dropShadow_80_21" result="shape"/></filter></defs></svg>