<svg xmlns="http://www.w3.org/2000/svg" fill="none" viewBox="0 0 256 256"><path fill="#398CCB" d="M196 0H60C26.863 0 0 26.863 0 60v136c0 33.137 26.863 60 60 60h136c33.137 0 60-26.863 60-60V60c0-33.137-26.863-60-60-60"/><path fill="#fff" fill-rule="evenodd" d="m127.696 38 35.539 20.504v11.274l43.015 24.841v42.493l11.539 6.661v41.031l-35.516 20.503-15.767-9.118-38.337 22.134-38.107-22.006-15.546 8.99L39 184.769v-40.996l11.089-6.401V94.619l42.092-24.3.023-.001V58.504zm35.539 42.44v19.072l-35.516 20.504-35.515-20.505V80.969l-.023.001-32.862 18.98v32.092l15.197-8.773 35.515 20.504v40.996l-10.745 6.213 28.883 16.679 29.113-16.805-10.524-6.087v-40.996l35.515-20.504 14.746 8.514V99.95zm-7.246 99.044v-25.026l21.669 12.507v25.027zm52.569-25.061-21.669 12.508v25.061l21.669-12.542zM48.231 179.45v-25.027l21.67 12.508v25.027zm52.569-25.027-21.67 12.508v25.027l21.67-12.508zm59.804-7.961 21.669-12.508 21.669 12.508-21.669 12.519zm-86.088-12.543-21.67 12.543 21.67 12.484 21.669-12.484zm26.919-39.738V69.154l21.646 12.519v25.015zm52.546-25.027-21.646 12.519v25.004l21.646-12.496zm-47.931-7.985 21.646-12.507 21.67 12.507-21.67 12.508z" clip-rule="evenodd"/></svg>