<svg xmlns="http://www.w3.org/2000/svg" width="256" height="256" fill="none"><path fill="#F4F2ED" d="M196 0H60C26.863 0 0 26.863 0 60v136c0 33.137 26.863 60 60 60h136c33.137 0 60-26.863 60-60V60c0-33.137-26.863-60-60-60"/><path fill="#5E464D" d="M128.168 230.28c55.759 0 100.96-45.73 100.96-102.14S183.927 26 128.168 26 27.208 71.73 27.208 128.14s45.202 102.14 100.96 102.14"/><path fill="#fff" d="M96.418 218.71c4.13 1.41 18 5.92 18.59 1.51.32-2.42-7-4.9-16.91-10.15a159 159 0 0 1-38.25-28.26 87.82 87.82 0 0 1-26.32-61.06c-.84-30.9 11.24-55.88 31.11-72a101.88 101.88 0 0 0-39.6 78.15c-.59 22.35 5.66 41.18 17.4 58.32a66.5 66.5 0 0 0 12.67 12.48c11.25 8.51 27.7 16.38 41.31 21"/><path fill="#fff" d="M230.518 104.73c-6.26-29.44-25.72-50.05-51.75-64.61 19.95 14.17 47.95 44.3 31.4 70.88-14 21.29-48 17.12-66.65 7-22.12-12-49.8-39-22.5-65.39 17.7-17.08 74 2.07 64.09 27.6-5.78 14.85-28.28 11.55-38.4 4.29-7.46-5.36-13.74-14.57-10.41-24.08 1.06-3.05.91-7.78-3.4-4.3-3.18 2.6-4.83 6.88-5.39 10.88-4.71 33.29 54.6 59.1 72.2 26.89 9.13-16.72-5.67-41-24.3-50.94-14-7.5-28.57-12.77-46.43-11.49-28.56 2-52.52 19.9-55.53 49.08-3 29 16.39 55.1 39.22 70.71 24 16.4 56.26 27.21 85.78 17.43 26.46-8.77 37.39-39.14 32.07-63.93"/><path fill="#3FE0C5" d="M193.278 82.18c2.84-19.08-14.41-32.18-30.34-38.13-18.78-7-43.59-3.94-57.27 11.61-10 11.42-9.35 28-4.19 41.42 7.8 20.27 25.41 34.92 45.91 41.25 14.57 4.5 32.18 6.46 46.94 1.71 21.53-6.93 28.54-29.38 24.09-49.95a59 59 0 0 0-4.36-12.88c-2.72-5.71-11.05-17.27.43-3.19a50 50 0 0 1 3.32 4.91 55.2 55.2 0 0 1 5.59 12.41c6.26 19.2 1.35 41.6-16 53.19-13.31 8.87-30.23 9.93-45.67 7.71-20.7-3-40.21-13-53.77-29.09-12.38-14.67-20.83-35.74-15.74-55 3.73-14.09 15.17-24.61 28.87-29 17.33-5.61 36.41-3 52 6.11 7.82 4.55 15 10.85 19 19.11a28.35 28.35 0 0 1 2.85 11.93 24.7 24.7 0 0 1-.39 5c-.11.6-1.38 2.29-1.2.9"/></svg>