<svg xmlns="http://www.w3.org/2000/svg" fill="none" viewBox="0 0 256 256"><path fill="#F4F2ED" d="M196 0H60C26.863 0 0 26.863 0 60v136c0 33.137 26.863 60 60 60h136c33.137 0 60-26.863 60-60V60c0-33.137-26.863-60-60-60"/><path fill="url(#paint0_radial_322_7)" d="M179.677 233.221c9.661 0 17.492-1.654 17.492-3.695s-7.831-3.695-17.492-3.695c-9.66 0-17.491 1.654-17.491 3.695s7.831 3.695 17.491 3.695" opacity=".3"/><path fill="url(#paint1_linear_322_7)" d="M188.383 95.916c-9.609 39.336-15.521 102.651-16.425 122.442h15.275c-2.546-5.667-.657-95.424 1.15-122.442"/><path fill="url(#paint2_linear_322_7)" d="M188.382 96.08s-8.212 77.687-7.391 122.442h6.241c-2.545-5.666-.657-95.424 1.15-122.441" opacity=".28"/><path fill="url(#paint3_linear_322_7)" d="M188.383 95.916c-.165.41-.329.904-.329 1.396-2.71 12.811-13.057 88.197-11.825 96.409 4.352 7.227 3.942 23.158 3.942 23.158l6.487-1.888c-1.724-17.656.082-94.439 1.725-119.075" opacity=".33"/><path fill="url(#paint4_linear_322_7)" d="M203 166.704c-18.477 12.564-25.211 44.92-24.964 63.643l9.69-.411c-.985-37.282 5.831-51.571 15.274-63.232"/><path fill="url(#paint5_linear_322_7)" d="M201.522 168.429c-21.023 16.834-20.777 54.774-20.53 61.918l6.569-.246c-.821-35.722 5.42-50.34 14.125-61.672z" opacity=".17"/><path fill="url(#paint6_linear_322_7)" d="M154.138 191.012c32.356-4.599 25.457 41.306 25.129 41.552-.329.329-10.265-.657-9.937-2.053 3.696-14.699 2.382-38.76-15.192-39.499"/><path fill="url(#paint7_linear_322_7)" d="M170.48 194.543c4.763 12.482 2.793 33.669 2.382 37.529 2.053.41 4.188.575 6.241.575.329-.411 4.435-27.839-8.623-38.104" opacity=".08"/><path fill="url(#paint8_radial_322_7)" d="M182.634 212.938c2.449 0 4.434-1.838 4.434-4.106s-1.985-4.106-4.434-4.106-4.435 1.838-4.435 4.106 1.986 4.106 4.435 4.106" opacity=".47"/><path fill="url(#paint9_radial_322_7)" d="M176.228 212.938c2.45 0 4.435-1.838 4.435-4.106s-1.985-4.106-4.435-4.106-4.434 1.838-4.434 4.106 1.985 4.106 4.434 4.106" opacity=".47"/><path fill="#fff" d="M182.634 211.377a2.545 2.545 0 1 0 .001-5.09 2.545 2.545 0 0 0-.001 5.09m-6.406 0a2.545 2.545 0 1 0 .001-5.09 2.545 2.545 0 0 0-.001 5.09"/><path fill="#A0CB29" d="M195.198 230.183h1.971l3.613-6.241m-7.966-8.376-6.487 17.409h4.352m-30.22-14.617 2.135 13.467h2.874m-10.922-8.458 1.15 4.927h2.464"/><path fill="url(#paint10_linear_322_7)" d="M111.846 212.773c2.218-40.485.411-71.28-1.478-85.405-.575-4.763-2.217-15.028-4.352-26.114-1.561-8.294-2.546-11.825-3.203-14.37-.739-2.629-1.889-6.242-4.188-13.633-.821-2.792-1.642-5.091-2.628-8.048-1.15-3.367-1.724-5.173-2.628-7.39-.328-.904-1.806-4.353-4.352-10.02a90.5 90.5 0 0 0-6.077-11.496c-3.285-4.763-6.652-9.608-11.579-10.676-8.787-1.97-17.738 9.034-18.313 8.459s4.024-7.555 11.99-10.101c3.038-.903 6.323-1.15 9.444-.575 7.144 1.314 11.743 6.16 17.41 12.4 3.12 3.532 5.994 7.31 8.54 11.333 3.859 5.748 7.144 11.907 9.854 18.313 1.232 2.956 2.053 5.502 3.695 10.429 2.546 7.966 4.599 16.096 6.324 24.308 0 0 .246 1.231.575 2.627a405 405 0 0 1 6.405 50.751c1.56 21.762 1.889 43.524 1.15 65.368"/><path fill="url(#paint11_radial_322_7)" d="M122.604 229.936c18.957 0 34.326-1.654 34.326-3.695s-15.369-3.695-34.326-3.695-34.327 1.654-34.327 3.695 15.369 3.695 34.327 3.695" opacity=".3"/><path fill="url(#paint12_linear_322_7)" d="M118.908 214.005c-.082-7.227-.246-17.82-.656-30.631-.822-27.592-1.232-41.717-3.285-57.238-1.478-11.332-3.285-20.119-6.98-37.857a175.3 175.3 0 0 0-12.236-40.075c-2.628-5.913-5.749-11.168-11.087-16.178-6.651-6.159-13.385-8.458-13.139-8.95.246-.493 7.473 1.395 14.125 6.651 3.367 2.628 5.502 5.174 7.801 7.884 1.971 2.381 4.681 5.995 8.787 13.221 3.531 6.241 7.637 13.468 11.168 23.569 1.479 4.352 2.382 8.376 4.189 16.095 1.313 5.666 3.859 16.753 5.666 27.51.739 4.353 2.792 17.328 4.188 48.205.575 13.632 1.068 31.206.821 51.736" opacity=".33"/><path fill="url(#paint13_linear_322_7)" d="M121.373 217.618c1.478-50.175-.986-86.883-2.874-96.737-4.599-23.158-5.174-23.897-6.242-27.921a225 225 0 0 0-3.038-10.43c-1.807-6.24-2.71-9.197-3.449-11.414-2.217-6.898-5.092-13.55-8.458-19.955-3.778-7.063-8.377-13.797-13.55-19.956-1.889-2.381-4.353-4.352-7.145-5.748a36 36 0 0 0-7.72-2.135 10.76 10.76 0 0 1 5.585.246c2.464.575 8.294 2.382 17.328 12.4 3.12 3.531 5.994 7.309 8.54 11.333 3.86 5.748 7.144 11.907 9.854 18.313 1.232 2.956 2.053 5.502 3.696 10.429 2.546 7.966 4.599 16.096 6.323 24.308 0 0 .246 1.231.575 2.627a404 404 0 0 1 6.405 50.751c1.561 21.762 1.889 43.524 1.15 65.367" opacity=".28"/><path fill="url(#paint14_linear_322_7)" d="m107.084 226.569 15.52.739c.411-32.273-10.593-88.197-40.32-109.877 15.191 20.12 26.113 44.756 24.8 109.138"/><path fill="url(#paint15_linear_322_7)" d="M84.5 120.388c14.125 19.709 24.062 44.92 22.748 106.428l10.593.493c.411-12.401.657-77.933-33.34-106.921" opacity=".17"/><path fill="url(#paint16_linear_322_7)" d="M138.617 225.009c.575 2.628-17.737 4.352-18.394 3.778s-13.304-88.033 46.315-79.247c-32.273 1.561-34.819 47.302-27.921 75.469"/><path fill="url(#paint17_linear_322_7)" d="M120.223 228.869c3.859.082 7.801-.247 11.579-1.068-.739-7.391-4.353-47.63 4.352-71.362-24.061 19.626-16.424 72.019-15.931 72.43" opacity=".08"/><path fill="#A0CB29" d="M138.618 226.98h2.381l4.271-7.309m-8.212-10.265-7.638 20.53h5.174M98.79 217.372l2.792 12.154h3.777m-12.893-8.212 1.396 5.83h2.875"/><path fill="url(#paint18_radial_322_7)" d="M126.134 192.079c4.082 0 7.391-3.015 7.391-6.734s-3.309-6.734-7.391-6.734-7.39 3.015-7.39 6.734 3.309 6.734 7.39 6.734" opacity=".47"/><path fill="#fff" d="M126.135 190.026a4.845 4.845 0 1 0 0-9.69 4.845 4.845 0 0 0 0 9.69"/><path fill="url(#paint19_radial_322_7)" d="M113.982 192.079c4.081 0 7.39-3.015 7.39-6.734s-3.309-6.734-7.39-6.734c-4.082 0-7.391 3.015-7.391 6.734s3.309 6.734 7.391 6.734" opacity=".47"/><path fill="#fff" d="M113.981 190.026a4.845 4.845 0 1 0 0-9.69 4.845 4.845 0 0 0 0 9.69"/><defs><linearGradient id="paint1_linear_322_7" x1="180.16" x2="180.16" y1="194.961" y2="91.112" gradientUnits="userSpaceOnUse"><stop stop-color="#3D6A06"/><stop offset=".16" stop-color="#588710"/><stop offset=".33" stop-color="#6D9D18"/><stop offset=".51" stop-color="#7BAE1E"/><stop offset=".72" stop-color="#84B721"/><stop offset="1" stop-color="#87BA22"/></linearGradient><linearGradient id="paint2_linear_322_7" x1="184.658" x2="184.658" y1="218.55" y2="96.117" gradientUnits="userSpaceOnUse"><stop stop-color="#BBE882"/><stop offset=".14" stop-color="#BEE988" stop-opacity=".92"/><stop offset=".34" stop-color="#C8EC9A" stop-opacity=".8"/><stop offset=".58" stop-color="#D8F2B7" stop-opacity=".67"/><stop offset=".83" stop-color="#EEF9E0" stop-opacity=".53"/><stop offset="1" stop-color="#fff" stop-opacity=".43"/></linearGradient><linearGradient id="paint3_linear_322_7" x1="182.266" x2="182.266" y1="212.447" y2="103.248" gradientUnits="userSpaceOnUse"><stop stop-color="#48790B"/><stop offset=".82" stop-color="#fff" stop-opacity=".43"/></linearGradient><linearGradient id="paint4_linear_322_7" x1="190.46" x2="190.46" y1="228.081" y2="190.744" gradientUnits="userSpaceOnUse"><stop stop-color="#5E7814"/><stop offset=".51" stop-color="#8AA21F"/><stop offset="1" stop-color="#B1C628"/></linearGradient><linearGradient id="paint5_linear_322_7" x1="191.733" x2="191.15" y1="221.841" y2="191.739" gradientUnits="userSpaceOnUse"><stop stop-color="#82AF10"/><stop offset=".82" stop-color="#fff" stop-opacity="0"/></linearGradient><linearGradient id="paint6_linear_322_7" x1="167.124" x2="167.124" y1="229.281" y2="195.647" gradientUnits="userSpaceOnUse"><stop stop-color="#5E7814"/><stop offset=".14" stop-color="#758E1A"/><stop offset=".34" stop-color="#8FA620"/><stop offset=".55" stop-color="#A2B824"/><stop offset=".77" stop-color="#ADC327"/><stop offset="1" stop-color="#B1C628"/></linearGradient><linearGradient id="paint7_linear_322_7" x1="175.231" x2="175.231" y1="231.818" y2="193.752" gradientUnits="userSpaceOnUse"><stop stop-color="#fff"/><stop offset="1" stop-color="#fff" stop-opacity="0"/></linearGradient><linearGradient id="paint10_linear_322_7" x1="90.863" x2="90.863" y1="181.401" y2="15.183" gradientUnits="userSpaceOnUse"><stop stop-color="#3D6A06"/><stop offset=".16" stop-color="#588710"/><stop offset=".33" stop-color="#6D9D18"/><stop offset=".51" stop-color="#7BAE1E"/><stop offset=".72" stop-color="#84B721"/><stop offset="1" stop-color="#87BA22"/></linearGradient><linearGradient id="paint12_linear_322_7" x1="99.954" x2="99.954" y1="180.762" y2="15.441" gradientUnits="userSpaceOnUse"><stop stop-color="#48790B"/><stop offset=".82" stop-color="#fff" stop-opacity=".43"/></linearGradient><linearGradient id="paint13_linear_322_7" x1="98.816" x2="98.816" y1="181.375" y2="15.052" gradientUnits="userSpaceOnUse"><stop stop-color="#BBE882"/><stop offset=".14" stop-color="#BEE988" stop-opacity=".92"/><stop offset=".34" stop-color="#C8EC9A" stop-opacity=".8"/><stop offset=".58" stop-color="#D8F2B7" stop-opacity=".67"/><stop offset=".83" stop-color="#EEF9E0" stop-opacity=".53"/><stop offset="1" stop-color="#fff" stop-opacity=".43"/></linearGradient><linearGradient id="paint14_linear_322_7" x1="102.469" x2="102.469" y1="223.336" y2="158.883" gradientUnits="userSpaceOnUse"><stop stop-color="#5E7814"/><stop offset=".51" stop-color="#8AA21F"/><stop offset="1" stop-color="#B1C628"/></linearGradient><linearGradient id="paint15_linear_322_7" x1="100.443" x2="101.438" y1="212.571" y2="160.631" gradientUnits="userSpaceOnUse"><stop stop-color="#82AF10"/><stop offset=".82" stop-color="#fff" stop-opacity="0"/></linearGradient><linearGradient id="paint16_linear_322_7" x1="142.609" x2="142.609" y1="222.513" y2="158.508" gradientUnits="userSpaceOnUse"><stop stop-color="#5E7814"/><stop offset=".14" stop-color="#758E1A"/><stop offset=".34" stop-color="#8FA620"/><stop offset=".55" stop-color="#A2B824"/><stop offset=".77" stop-color="#ADC327"/><stop offset="1" stop-color="#B1C628"/></linearGradient><linearGradient id="paint17_linear_322_7" x1="127.428" x2="127.428" y1="227.374" y2="154.823" gradientUnits="userSpaceOnUse"><stop stop-color="#fff"/><stop offset="1" stop-color="#fff" stop-opacity="0"/></linearGradient><radialGradient id="paint0_radial_322_7" cx="0" cy="0" r="1" gradientTransform="matrix(12.6536 0 0 12.9428 179.718 229.504)" gradientUnits="userSpaceOnUse"><stop stop-color="#323232" stop-opacity=".92"/><stop offset=".24" stop-color="#272727" stop-opacity=".64"/><stop offset=".64" stop-color="#0B0B0B" stop-opacity=".09"/><stop offset=".79" stop-opacity="0"/></radialGradient><radialGradient id="paint8_radial_322_7" cx="0" cy="0" r="1" gradientTransform="matrix(-4.27264 0 0 -4.27263 182.662 208.813)" gradientUnits="userSpaceOnUse"><stop stop-color="#323232"/><stop offset=".29" stop-color="#252525" stop-opacity=".67"/><stop offset=".83" stop-color="#040404" stop-opacity=".07"/><stop offset=".89" stop-opacity="0"/></radialGradient><radialGradient id="paint9_radial_322_7" cx="0" cy="0" r="1" gradientTransform="rotate(180 88.126 104.406)scale(4.27263)" gradientUnits="userSpaceOnUse"><stop stop-color="#323232"/><stop offset=".29" stop-color="#252525" stop-opacity=".67"/><stop offset=".83" stop-color="#040404" stop-opacity=".07"/><stop offset=".89" stop-opacity="0"/></radialGradient><radialGradient id="paint11_radial_322_7" cx="0" cy="0" r="1" gradientTransform="matrix(24.7727 0 0 12.9428 122.612 226.233)" gradientUnits="userSpaceOnUse"><stop stop-color="#323232" stop-opacity=".92"/><stop offset=".24" stop-color="#272727" stop-opacity=".64"/><stop offset=".64" stop-color="#0B0B0B" stop-opacity=".09"/><stop offset=".79" stop-opacity="0"/></radialGradient><radialGradient id="paint18_radial_322_7" cx="0" cy="0" r="1" gradientTransform="rotate(180 63.074 92.655)scale(7.06727)" gradientUnits="userSpaceOnUse"><stop stop-color="#323232"/><stop offset=".29" stop-color="#252525" stop-opacity=".67"/><stop offset=".83" stop-color="#040404" stop-opacity=".07"/><stop offset=".89" stop-opacity="0"/></radialGradient><radialGradient id="paint19_radial_322_7" cx="0" cy="0" r="1" gradientTransform="rotate(180 56.985 92.655)scale(7.06727)" gradientUnits="userSpaceOnUse"><stop stop-color="#323232"/><stop offset=".29" stop-color="#252525" stop-opacity=".67"/><stop offset=".83" stop-color="#040404" stop-opacity=".07"/><stop offset=".89" stop-opacity="0"/></radialGradient></defs></svg>