<svg xmlns="http://www.w3.org/2000/svg" fill="none" viewBox="0 0 256 256"><rect width="256" height="256" fill="#F4F2ED" rx="60"/><path fill="#8E8F8F" d="M135.102 76.019a3.52 3.52 0 0 1 3.518 3.429l.001.09v40.274a3.52 3.52 0 0 1-3.429 3.518l-.09.001h-32.841a3.52 3.52 0 0 1-3.517-3.429l-.001-.09V79.537a3.52 3.52 0 0 1 3.429-3.517l.089-.001zm0 1.565h-32.841a1.956 1.956 0 0 0-1.954 1.883l-.002.07v40.275a1.96 1.96 0 0 0 1.886 1.955l.07.002h32.841a1.96 1.96 0 0 0 1.955-1.887l.001-.07V79.537a1.956 1.956 0 0 0-1.956-1.953m-28.15 35.972v2.344h-2.347v-2.344zm26.197 0v2.344h-25.022v-2.344zm-26.197-10.166v2.344h-2.347v-2.344zm26.197 0v2.344h-25.022v-2.344zm-26.197-9.775v2.344h-2.347v-2.344zm26.197 0v2.344h-25.022v-2.344zm0-8.993v2.347h-28.544v-2.347zm1.953 46.916v.024a3.52 3.52 0 0 1 3.517 3.406l.002.089v40.275a3.52 3.52 0 0 1-3.429 3.517l-.09.001h-32.841a3.517 3.517 0 0 1-3.517-3.411l-.001-.107v-40.275a3.52 3.52 0 0 1 3.429-3.518l.089-.001zm0 1.565h-32.841a1.956 1.956 0 0 0-1.954 1.884l-.002.07v40.275a1.96 1.96 0 0 0 1.886 1.955l.07.001h32.841a1.96 1.96 0 0 0 1.955-1.874l.001-.07v-40.275a1.956 1.956 0 0 0-1.886-1.952l-.07-.001zm-28.15 35.981v2.347h-2.347v-2.347zm26.197.019v2.31h-25.022v-2.31zm-26.197-10.184v2.347h-2.347v-2.347zm26.197.018v2.31h-25.022v-2.31zm-26.197-9.79v2.344h-2.347v-2.344zm26.197.018v2.307h-25.022v-2.307zm0-9.012v2.347h-28.544v-2.347zm11.424-40.478v1.953h11.728v53.123h-11.728v1.956h13.684V99.675z"/><path fill="#FE0902" d="M61.007 65.19c2.313-3.794 6.122-6.006 9.97-7.29l.525-.17.525-.159q.393-.114.784-.217l.52-.132.259-.063.515-.117.256-.055.508-.104.502-.095.496-.087.488-.078.48-.071.472-.064.462-.056.45-.05.44-.045.636-.055.606-.044.572-.032.623-.027.57-.016.347-.006.32-.002h.293l.383.005.217.004.394.014.174.008v9.388c-8.303-.79-12.008 1.717-13.641 4.39l-.148.251a8 8 0 0 0-.524 1.126l-.089.246-.04.122-.076.242-.067.238-.059.233-.026.116-.048.226-.021.111-.038.218-.031.211-.026.205-.03.291-.018.273-.01.214-.004.198v.18l.003.162.006.142.01.175.02.205v3.448l-.02 7.041-.024 5.075-.03 4.268-.03 3.607-.031 2.84-.036 2.765-.037 2.357-.048 2.498-.03 1.301-.03 1.229-.041 1.37-.015.429-.001.792-.004.486-.006.327-.013.496-.02.479-.015.292-.02.293-.023.295-.042.442-.034.296-.039.296-.044.296-.024.148-.053.296-.028.148-.062.295-.069.294-.075.294q-.04.146-.083.292l-.09.291-.099.289-.107.288c-1.202 3.107-3.925 5.874-10.09 7.156 5.998 1.245 8.737 3.894 9.989 6.894l.114.287q.165.432.294.871l.082.293q.079.294.143.59l.061.296.029.148.051.297.047.297.04.296.036.297.031.296.027.296.022.295.027.44.014.292.016.49.008.323.005.321.004.475.001.789.042 1.375.038 1.452.034 1.557.032 1.648.034 2.021.045 3.338.032 2.829.016 1.592.033 4.065.036 6.032.025 6.529.009-.006v5.79l-.01.082-.01.123-.008.111-.009.206-.003.162v.18l.004.198.01.214.018.269.018.19.036.299.031.208.037.215.043.22.024.113.054.228.03.116.064.234.073.238.04.121.086.242q.045.122.096.245l.105.246c1.304 2.924 4.743 6.082 13.64 5.358l.487-.043v9.388l-.25.012-.461.013-.38.007h-.452l-.338-.004-.367-.007-.393-.011-.51-.021-.36-.018-.374-.022-.389-.027-.401-.032-.414-.036-.425-.042-.437-.048-.446-.054-.456-.06-.231-.033-.469-.071-.237-.038-.48-.081-.242-.044-.489-.094-.246-.05-.496-.106-.501-.115a25 25 0 0 1-.504-.124l-.506-.133c-4.653-1.269-9.54-3.775-12.054-8.688.545-6.038 3.028-11.186 7.489-14.39q.314-.222.638-.43l.243-.155q-.453.28-.89.591c-4.452 3.198-6.935 8.346-7.48 14.36a16.5 16.5 0 0 1-1.714-7.268l-.056-2.588-.073-3.137-.09-3.672-.124-4.681-.114-4.059-.157-5.315-.176-5.693-.295-8.959-.072-2.077c-.174-4.703-2.062-6.994-4.026-8.099l-.232-.125-.116-.058-.231-.11-.23-.099-.23-.09-.227-.081-.225-.072-.221-.065-.176-.046-.173-.042-.17-.037-.166-.033-.243-.042-.157-.023-.152-.02-.22-.024-.193-.001-.396-.005a21 21 0 0 0-.62 0l-.214.006v-11.002c.515.018.975.009 1.423-.015l.22-.024.152-.02.157-.023.243-.042.166-.033.17-.037.173-.042.176-.046.221-.065.225-.072.227-.081c2.283-.854 4.86-3.048 5.065-8.581l.268-7.956.206-6.5.112-3.688.171-5.917.112-4.115.082-3.134.102-4.197.06-2.61.044-2.067c.068-3.26.872-5.907 2.147-8.055l.085-.142zm112.196.23v-9.388l.252-.012.351-.011.227-.005.401-.004h.306l.335.004.518.01.66.024.353.017.368.02.578.04.402.032.414.038.425.043.436.048.445.055.455.061.464.068.471.075.238.04.481.086.487.095.492.102.496.111.5.12q.377.093.755.198l.506.143c4.726 1.389 9.585 4.095 11.868 9.334a16.9 16.9 0 0 1 1.338 6.471l.056 2.589.073 3.137.051 2.1.08 3.142.112 4.138.085 3.034.156 5.315.177 5.693.295 8.959.072 2.077c.177 4.781 2.125 7.068 4.125 8.153l.23.12.116.056.23.104.23.095.114.044.227.082.112.038.223.069.11.031.327.084.213.048.207.04.202.035.157.023.152.02.22.025c.384.02.784.03 1.208.021l.215-.006v11.004a16 16 0 0 0-1.423.015l-.145.016-.15.018-.234.034-.243.042-.166.033-.17.037-.173.042-.176.046-.11.031-.223.069-.113.037-.227.081-.115.044-.23.094c-2.19.944-4.525 3.187-4.72 8.443l-.268 7.952-.206 6.499-.112 3.689-.171 5.917-.112 4.116-.082 3.134-.102 4.197-.06 2.609-.044 2.068a17.2 17.2 0 0 1-1.016 5.672l-.078.213.004.02c-2.341 6.047-8.004 8.889-13.232 10.212l-.513.126-.255.059-.507.111-.252.052-.499.098-.248.046-.49.086-.243.04-.479.074-.471.066-.462.06-.452.053-.441.047-.429.041-.621.051-.397.028-.569.033-.534.024-.653.02-.371.006-.341.003h-.309l-.277-.003-.241-.005-.294-.008-.255-.011-.088-.005v-9.387c8.692.827 12.345-1.96 13.858-4.767l.13-.251q.062-.126.119-.251l.108-.25q.051-.125.098-.248l.089-.246.079-.244.037-.12.067-.238.059-.234.051-.229.044-.224.038-.217.031-.212.026-.204.029-.292.014-.184.015-.303.004-.197v-.181l-.003-.162-.006-.142-.007-.121-.014-.176-.01-.082v-5.148l.015-4.793.024-4.946.027-4.168.037-4.255.042-3.819.03-2.22.028-1.789.037-2.051.027-1.298.028-1.235.031-1.164.041-1.345.001-.789.004-.481.006-.324.007-.326.018-.495.016-.332.018-.295.022-.297.025-.297.03-.298.035-.299.04-.299.022-.149.048-.299.054-.298.06-.298.067-.298q.122-.52.291-1.032l.101-.292q.209-.583.493-1.147l.147-.281c1.419-2.607 4.177-4.844 9.536-5.958-6.759-1.403-9.381-4.588-10.397-8.05l-.082-.293q-.079-.294-.143-.59l-.061-.296-.029-.148-.052-.297-.046-.297-.04-.296-.036-.297-.031-.296-.027-.296-.022-.295-.027-.44-.014-.292-.016-.489-.008-.323-.005-.321-.004-.475-.001-.79-.029-.917-.032-1.166-.036-1.501-.033-1.599-.03-1.683-.037-2.352-.043-3.383-.032-3.16-.03-3.662-.039-6.51-.026-7.056a17 17 0 0 0 1.551-.969c2.487-1.782 4.36-4.183 5.622-7.007l.087-.198c-1.264 2.91-3.168 5.383-5.718 7.208q-.624.439-1.285.82l-.266.15v-5.24l.01-.082.01-.123.008-.11.009-.206.003-.162v-.18l-.004-.198-.01-.214-.011-.177-.025-.282-.036-.3-.031-.208-.037-.215-.043-.22-.024-.112-.054-.228-.029-.116-.065-.235-.073-.238-.04-.12-.086-.243a7 7 0 0 0-.096-.244l-.105-.247c-1.304-2.923-4.743-6.081-13.64-5.358z"/><path fill="#FFAB00" d="M68.36 78.416q.14.102.286.196l.292.186v-3.45l-.01-.081-.01-.124-.008-.11-.009-.206-.003-.162v-.18l.004-.198.01-.214.011-.18.016-.188.021-.196.026-.205.031-.211.038-.218.044-.224.025-.114.055-.231.063-.236.034-.12.075-.241.041-.122.089-.246c.14-.371.313-.75.524-1.126l.148-.251c1.633-2.673 5.338-5.18 13.641-4.39v-9.388l-.174-.008-.299-.011-.2-.005-.495-.007h-.292l-.321.002-.532.01-.485.015-.523.023-.572.033-.606.044-.42.035-.656.064-.45.05-.462.057-.471.064-.48.07-.49.08-.495.086-.502.095-.508.104-.256.055-.515.117-.259.063-.52.132q-.39.102-.784.217l-.525.159-.525.17c-3.848 1.284-7.658 3.496-9.97 7.29.748 5.538 3.188 10.259 7.352 13.226m15.437 121.71v-9.388c-9.081.864-12.662-2.217-14.048-5.144l-.114-.25a8 8 0 0 1-.151-.373l-.089-.246-.04-.122-.076-.242-.067-.238-.058-.234-.052-.229-.044-.223-.038-.218-.031-.211-.026-.205-.03-.292-.018-.272-.01-.214-.004-.198v-.18l.003-.162.006-.143.007-.121.014-.176.01-.087v-5.785q-.49.303-.963.636c-4.46 3.204-6.944 8.352-7.489 14.39 2.514 4.912 7.401 7.419 12.054 8.688l.506.133q.253.064.504.124l.5.115.497.106.492.098.243.046.483.085.239.04.472.074.234.035.46.064.227.029.446.054.437.048.425.042.414.036.401.032.389.027.374.022.534.026.336.012.393.012.367.007.338.003.451-.001.38-.005.305-.008zm113.09-133.362c-2.428-5.573-7.771-8.28-12.768-9.583l-.499-.126-.495-.117-.247-.055-.489-.103-.243-.05-.482-.09-.476-.084-.47-.077-.462-.069-.454-.062-.445-.057-.436-.05-.425-.044-.414-.039-.6-.048-.57-.038-.539-.029-.506-.02-.317-.01-.382-.008-.353-.004-.322-.001-.29.002-.256.004-.318.008-.233.008-.193.01v9.387c9.081-.864 12.662 2.217 14.048 5.144l.114.25q.08.188.151.373l.089.246.041.122.075.242.067.238.058.234.052.229.044.224.038.218.031.21.026.205.029.292.019.273.01.214.004.197v.18l-.003.163-.006.142-.011.174-.02.207v5.237a17 17 0 0 0 1.551-.969c4.036-2.889 6.453-7.398 7.277-12.7m-6.877 110.093a17 17 0 0 0-1.942-1.19v5.148l.01.082.01.123.008.111.009.205.003.162v.181l-.004.197-.015.303-.014.184-.029.292-.026.204-.031.211-.038.218-.044.224-.051.229-.059.234-.067.238-.036.12-.08.244-.089.246-.098.248-.108.25-.119.251-.13.251c-1.513 2.807-5.166 5.594-13.858 4.767v9.387l.139.007.4.015.491.008.299.002.509-.003.378-.007.406-.011.504-.02.538-.028.377-.024.589-.044.408-.036.42-.041.431-.047.44-.052.45-.059.459-.065.466-.073q.118-.018.236-.039l.477-.083.483-.091.243-.049.491-.103.247-.055.496-.116c5.314-1.288 11.158-4.122 13.546-10.29-.945-4.927-3.325-9.094-7.125-11.816"/></svg>