<svg xmlns="http://www.w3.org/2000/svg" width="256" height="256" fill="none"><path fill="#F47421" d="M196 0H60C26.863 0 0 26.863 0 60v136c0 33.137 26.863 60 60 60h136c33.137 0 60-26.863 60-60V60c0-33.137-26.863-60-60-60"/><ellipse cx="167.152" cy="60.5" fill="#fff" rx="15.693" ry="15.5"/><ellipse cx="167.152" cy="195.5" fill="#fff" rx="15.693" ry="15.5"/><path fill="#fff" fill-rule="evenodd" d="M179.011 78.932A22.4 22.4 0 0 1 167.658 82c-12.302 0-22.274-9.85-22.274-22v-.03A71.4 71.4 0 0 0 128.678 58c-12.158 0-23.595 3.045-33.573 8.406l12.158 20.799C113.661 83.88 120.947 82 128.678 82c24.593 0 44.685 19.034 45.999 43H199c-.641-17.909-8.143-34.094-19.989-46.068m-4.4 52.068h24.346c-.879 17.511-8.321 33.317-19.946 45.068A22.4 22.4 0 0 0 167.658 173c-12.302 0-22.274 9.85-22.274 22v.03a71.4 71.4 0 0 1-16.706 1.97c-11.928 0-23.163-2.931-33.006-8.105l12.163-20.808c6.259 3.142 13.341 4.913 20.843 4.913 24.25 0 44.124-18.506 45.933-42M61.017 146.652c4.725 16.315 15.336 30.176 29.42 39.199l12.175-20.83c-12.08-8.202-20.001-21.948-20.001-37.521 0-15.643 7.992-29.442 20.163-37.63L90.601 69.044C76.19 78.22 65.392 92.452 60.776 109.2c6.415 3.862 10.698 10.836 10.698 18.799 0 7.862-4.176 14.762-10.457 18.652" clip-rule="evenodd"/><ellipse cx="48.693" cy="128.5" fill="#fff" rx="15.693" ry="15.5"/></svg>