<svg xmlns="http://www.w3.org/2000/svg" fill="none" viewBox="0 0 256 256"><rect width="256" height="256" fill="#F4F2ED" rx="60"/><path fill="#fff" d="m128.006 97.123-26.864 15.51v31.02l26.864 15.511 26.863-15.511v-31.02z"/><path fill="#FFBC00" d="M184.628 95.448h30.898l-15.453-26.753zm0 65.384 15.445 26.76 15.453-26.76zm-72.077 59.448h30.897l-15.446-26.753zm-72.067-59.448 15.446 26.76 15.452-26.76zm0-65.384h30.898L55.93 68.695zM112.551 36l15.451 26.76L143.448 36z"/><path fill="#F43BA6" d="m157.477 41.242-17.928 31.053 31.053 17.928L188.53 59.17zM218 110.217h-35.857v35.856H218zm-47.404 55.842-31.052 17.928 17.928 31.053 31.053-17.929zm-85.19.007-17.928 31.052 31.053 17.929 17.928-31.053zm-11.549-55.857H38v35.857h35.857zm24.668-68.981L67.472 59.156 85.4 90.21l31.053-17.928z"/></svg>