<svg xmlns="http://www.w3.org/2000/svg" fill="none" viewBox="0 0 256 256"><rect width="256" height="256" fill="#282828" rx="60"/><path fill="#858585" d="M134.429 177.994c0-23.849 19.333-43.182 43.182-43.182 23.848 0 43.182 19.333 43.182 43.182s-19.334 43.182-43.182 43.182-43.182-19.333-43.182-43.182"/><path fill="#CCC" d="M134.429 78.773c0-23.849 19.333-43.182 43.182-43.182 23.848 0 43.182 19.333 43.182 43.182v38.863a4.32 4.32 0 0 1-4.319 4.319h-77.727a4.32 4.32 0 0 1-4.318-4.319z"/><path fill="#4D4D4D" d="M121.091 177.994c0 23.849-19.333 43.182-43.182 43.182s-43.182-19.333-43.182-43.182v-38.863a4.32 4.32 0 0 1 4.319-4.319h77.727a4.32 4.32 0 0 1 4.318 4.319z"/></svg>