<svg xmlns="http://www.w3.org/2000/svg" fill="none" viewBox="0 0 256 256"><path fill="#282828" d="M196 0H60C26.863 0 0 26.863 0 60v136c0 33.137 26.863 60 60 60h136c33.137 0 60-26.863 60-60V60c0-33.137-26.863-60-60-60"/><path fill="#1868F2" d="m190.996 38-39.46 22.792v13.983L127.5 131.296l-24.036-56.521V60.792L64.004 38 40 51.885v16.078l53.443 130.858 34.057 19.648 34.057-19.648 53.41-130.858V51.885z"/><path fill="#0850C5" d="m215 51.852-39.46 22.76v14.015l-32.026 71.585-16.014 9.235v49.022l34.057-19.648L215 67.964zM103.497 74.743V60.76L79.493 74.612v14.016l32.059 71.584 16.014-9.234v-19.714l-24.037-56.521z"/></svg>