<svg xmlns="http://www.w3.org/2000/svg" fill="none" viewBox="0 0 256 256"><rect width="256" height="256" fill="#25C4F2" rx="60"/><path fill="#E9F9FD" fill-opacity=".1" fill-rule="evenodd" d="M49.725 73h52.75L76.09 128zm105.495 0h52.75l-26.38 55z" clip-rule="evenodd"/><path fill="#fff" fill-opacity=".22" fill-rule="evenodd" d="M76.1 128h52.745l-26.375 55z" clip-rule="evenodd"/><path fill="#fff" fill-opacity=".2" fill-rule="evenodd" d="M128.845 128h52.75l-26.375 55z" clip-rule="evenodd"/><path fill="#fff" fill-opacity=".4" fill-rule="evenodd" d="M128.845 128h-52.75l26.375-55z" clip-rule="evenodd"/><path fill="#fff" fill-opacity=".4" fill-rule="evenodd" d="M181.59 128h-52.75l26.38-55z" clip-rule="evenodd"/><path fill="#fff" fill-opacity=".5" fill-rule="evenodd" d="M155.22 183h-52.75l26.375-55z" clip-rule="evenodd"/><path fill="#fff" fill-rule="evenodd" d="M45.47 70.335A5 5 0 0 1 49.7 68h52.75a5 5 0 0 1 4.51 2.84l21.865 45.6 21.865-45.6A5 5 0 0 1 155.2 68h52.75a5 5 0 0 1 4.992 4.712 5 5 0 0 1-.482 2.448l-52.735 109.96A5.01 5.01 0 0 1 155.2 188h-52.75a5 5 0 0 1-4.51-2.84l-52.75-110a5 5 0 0 1 .28-4.825m109.75 14.23L173.65 123h-36.86zM57.67 78l18.43 38.435L94.53 78zm44.8 6.565L120.9 123H84.04zM163.16 78l18.43 38.435L200.025 78zm-7.94 93.435L136.79 133h36.86zM147.275 178l-18.43-38.435L110.415 178zm-44.8-6.565L84.035 133h36.86l-18.43 38.435z" clip-rule="evenodd"/></svg>