<svg xmlns="http://www.w3.org/2000/svg" fill="none" viewBox="0 0 256 256"><rect width="256" height="256" fill="#F4F2ED" rx="60"/><path fill="#F29111" d="m151.021 60-15.8 54.767H207V79.664c0-5.81-2.469-11.06-6.419-14.632a19 19 0 0 0-5.585-3.572c-2.284-.963-4.969-1.46-7.437-1.46zm13.887 18.639h22.897c.402 0 .741.341.741.745V96.16h-28.668z"/><path fill="#00758A" d="m49 60 34.13 121.12c.865 3.013 1.636 4.598 2.778 6.275.401.621.864 1.181 1.327 1.74a18 18 0 0 0 3.888 3.479c1.605 1.087 3.21 1.895 5.03 2.485 2.13.684 4.012.901 6.542.901h28.484l12.621-43.925h44.746v24.541a.753.753 0 0 1-.741.745h-32.124L150.311 196h37.217c5.061 0 9.443-1.802 12.837-4.815 4.074-3.603 6.635-8.698 6.635-14.818v-42.931h-77.148l-12.622 43.925h-15.954L73.472 78.639h19.225l10.183 36.128h19.195L106.645 60z"/></svg>