<svg xmlns="http://www.w3.org/2000/svg" width="256" height="256" fill="none"><g clip-path="url(#clip0_163_257)"><path fill="#F4F2ED" d="M196 0H60C26.863 0 0 26.863 0 60v136c0 33.137 26.863 60 60 60h136c33.137 0 60-26.863 60-60V60c0-33.137-26.863-60-60-60"/><g clip-path="url(#clip1_163_257)"><path fill="#004E8C" d="M127.5 216c48.325 0 87.5-39.175 87.5-87.5S175.825 41 127.5 41 40 80.175 40 128.5 79.175 216 127.5 216"/><path fill="#fff" d="M69.287 63a87.5 87.5 0 1 0 123.539 123.539z" opacity=".1"/><path fill="#fff" d="m131.027 94.047-25.402 68.906h-8.996L71.637 94.047h8.996l19.14 54.687a32.4 32.4 0 0 1 1.395 6.098h.191c.287-2.127.8-4.217 1.532-6.234l19.468-54.688zm9.926 68.906V94.047h19.606a21.44 21.44 0 0 1 14.164 4.375 14.14 14.14 0 0 1 5.25 11.402 16.77 16.77 0 0 1-3.254 10.172 17.1 17.1 0 0 1-8.75 6.152v.192a17.52 17.52 0 0 1 11.156 5.25 16.2 16.2 0 0 1 4.184 11.566 18.02 18.02 0 0 1-6.344 14.328 23.63 23.63 0 0 1-15.996 5.469zm8.203-61.633v22.258h8.203c3.735.176 7.41-.988 10.364-3.281a11.13 11.13 0 0 0 3.8-9.024q0-10.035-13.207-10.035zm0 29.504v24.801h10.938a16.4 16.4 0 0 0 10.937-3.363 11.5 11.5 0 0 0 3.91-9.215q0-12.196-16.625-12.196z"/></g></g><defs><clipPath id="clip0_163_257"><path fill="#fff" d="M0 0h256v256H0z"/></clipPath><clipPath id="clip1_163_257"><path fill="#fff" d="M40 41h175v175H40z"/></clipPath></defs></svg>