<svg xmlns="http://www.w3.org/2000/svg" width="256" height="256" fill="none"><rect width="256" height="256" fill="#F4F2ED" rx="60"/><path fill="#F38B00" d="M136.267 110.367q6.897 2.108 9.028 9.043v25.849h20.426v-.027h3.142v-.053h.293v-43.854q-3.514-11.445-14.886-14.939H62.844q-11.374 3.481-14.887 14.939v92.19Q51.473 204.959 63.163 208h90.787q11.691-3.041 15.206-14.485v-24.034h-23.861v5.788q-2.131 6.936-9.215 8.776h.613H80.42h.64q-7.084-1.84-9.215-8.776V119.41q2.13-6.935 9.028-9.043z"/><path fill="#0097D3" d="M208.065 62.938Q204.549 51.495 193.178 48h-91.426q-11.37 3.496-14.887 14.938v23.448h23.862v-5.362q2.13-6.935 9.028-9.043h55.393q6.898 2.108 9.029 9.043v55.859q-2.131 6.935-9.215 8.776h.639-56.272.613q-7.085-1.841-9.215-8.776v-26.516H86.865v44.761q3.516 11.445 15.207 14.485h90.786q11.692-3.04 15.207-14.485z"/><path fill="#C96D00" d="M169.156 179.724V169.48l-22.503.134z"/><path fill="#0077A9" d="M86.865 111.034v9.603l22.77-9.71z"/></svg>