<svg xmlns="http://www.w3.org/2000/svg" width="256" height="256" fill="none"><path fill="#F4F2ED" d="M196 0H60C26.863 0 0 26.863 0 60v136c0 33.137 26.863 60 60 60h136c33.137 0 60-26.863 60-60V60c0-33.137-26.863-60-60-60"/><path fill="#202222" d="m128.489 144.026-25.122 43.513 25.122 43.513 25.122-43.513z"/><path fill="#3B3D3D" d="m153.611 100.513-25.122 43.513 25.122 43.513 25.122-43.513z"/><path fill="#3B3D3D" d="m103.367 100.513-25.122 43.513 25.122 43.513 25.122-43.513z"/><path fill="#505252" d="m178.734 57-25.123 43.513 25.123 43.513 25.122-43.513zm-50.245 0-25.122 43.513 25.122 43.513 25.122-43.513zm-50.245 0-25.122 43.513 25.122 43.513 25.123-43.513z"/><path fill="#8E8F8F" d="M203.856 100.512 228.978 57h-50.245zm-150.734 0L78.245 57H28z"/></svg>