<svg xmlns="http://www.w3.org/2000/svg" width="256" height="256" fill="none"><path fill="#282828" d="M196 0H60C26.863 0 0 26.863 0 60v136c0 33.137 26.863 60 60 60h136c33.137 0 60-26.863 60-60V60c0-33.137-26.863-60-60-60"/><path fill="#FCBC32" d="M56.744 61.448c6.513 0 11.724-5.21 11.724-11.724S63.258 38 56.744 38A11.675 11.675 0 0 0 45.02 49.724c0 6.513 5.21 11.724 11.724 11.724m4.125 52.974c9.986-2.388 16.283-12.375 13.894-22.362-2.388-9.987-12.375-16.283-22.362-13.895S36.118 90.54 38.506 100.527c2.389 10.204 12.376 16.284 22.362 13.895m.001 93.14c9.986-2.388 16.283-12.375 13.894-22.362-2.388-9.987-12.375-16.283-22.362-13.894-9.987 2.387-16.283 12.375-13.895 22.362s12.376 16.283 22.362 13.894m7.382-64.7c0-6.513-5.21-11.724-11.723-11.724a11.675 11.675 0 0 0-11.724 11.724c0 6.513 5.21 11.724 11.724 11.724a11.675 11.675 0 0 0 11.723-11.724m59.921-1.301c-10.204 0-18.671 8.25-18.671 18.671 0 10.204 8.25 18.672 18.671 18.672 10.204 0 18.671-8.251 18.671-18.672-.217-10.421-8.467-18.671-18.671-18.671m-.001 53.409a11.676 11.676 0 0 0-11.723 11.725 11.675 11.675 0 0 0 11.723 11.723 11.676 11.676 0 0 0 11.725-11.723c-.218-6.514-5.428-11.725-11.725-11.725m0-69.692a11.676 11.676 0 0 0 11.725-11.724 11.676 11.676 0 0 0-11.725-11.724 11.675 11.675 0 0 0-11.723 11.724 11.675 11.675 0 0 0 11.723 11.724m1.738-46.678c6.296-1.086 10.638-6.948 9.553-13.244-1.086-6.296-6.948-10.639-13.244-9.553s-10.638 6.947-9.553 13.243c1.086 6.297 6.948 10.421 13.244 9.553m82.719 30.83c7.164-7.164 7.164-19.105 0-26.27-7.165-7.164-19.106-7.164-26.27 0-7.165 7.165-7.165 19.106 0 26.27 7.164 7.382 19.105 7.382 26.27 0m-13.028-47.981c6.514 0 11.724-5.21 11.724-11.724 0-6.513-5.21-11.724-11.724-11.724a11.675 11.675 0 0 0-11.724 11.724 11.675 11.675 0 0 0 11.724 11.724m0 69.907a11.676 11.676 0 0 0-11.724 11.725 11.675 11.675 0 0 0 11.724 11.723c6.514 0 11.724-5.21 11.724-11.723-.217-6.514-5.428-11.725-11.724-11.725m0 46.462a11.676 11.676 0 0 0-11.724 11.724 11.676 11.676 0 0 0 11.724 11.724 11.675 11.675 0 0 0 11.724-11.724c-.217-6.513-5.428-11.724-11.724-11.724"/></svg>