<svg xmlns="http://www.w3.org/2000/svg" fill="none" viewBox="0 0 256 256"><path fill="#F4F2ED" d="M196 0H60C26.863 0 0 26.863 0 60v136c0 33.137 26.863 60 60 60h136c33.137 0 60-26.863 60-60V60c0-33.137-26.863-60-60-60"/><path fill="#41A5EE" d="M90.1 50h121.288A7.564 7.564 0 0 1 219 57.474v140.853a7.5 7.5 0 0 1-2.268 5.29 7.5 7.5 0 0 1-5.344 2.138H90.101a7.85 7.85 0 0 1-5.398-2.169 7.3 7.3 0 0 1-2.214-5.259V57.474a7.38 7.38 0 0 1 2.214-5.305A8.3 8.3 0 0 1 90.101 50"/><path fill="#103F91" d="M219 166.862H82.489v31.465a7.525 7.525 0 0 0 4.727 6.891 7.5 7.5 0 0 0 2.885.537h121.287a7.524 7.524 0 0 0 7.612-7.428z"/><path fill="#185ABD" d="M82.489 127.924H219v38.938H82.489z"/><path fill="#2B7CD3" d="M82.489 88.984H219v38.939H82.489z"/><g fill="#000" opacity=".67"><path d="M130.884 81.834H91.3a2.815 2.815 0 0 0-2.86 2.769v86.689a2.907 2.907 0 0 0 2.86 2.768h39.584a5.63 5.63 0 0 0 5.628-5.583V87.601a5.53 5.53 0 0 0-1.638-3.977 5.52 5.52 0 0 0-3.99-1.605z" opacity=".05"/><path d="M120.319 96.46h-37.83v89.318h37.83a7.427 7.427 0 0 0 7.566-7.197v-75.155a7.383 7.383 0 0 0-7.566-6.966" opacity=".1"/><path d="M120.319 91.338h-37.83v89.273h37.83a7.43 7.43 0 0 0 7.566-7.197V98.489a7.384 7.384 0 0 0-7.566-7.15" opacity=".2"/><path d="M128.623 83.587H89.04a2.77 2.77 0 0 0-2.814 2.769v86.642a2.77 2.77 0 0 0 1.74 2.571 2.8 2.8 0 0 0 1.074.198h39.583a5.63 5.63 0 0 0 5.675-5.537V89.124a5.63 5.63 0 0 0-5.675-5.537" opacity=".1"/><path d="M128.485 85.894H88.947a2.814 2.814 0 0 0-2.86 2.768v85.767a2.77 2.77 0 0 0 2.86 2.768h39.538a5.59 5.59 0 0 0 5.269-3.382 5.6 5.6 0 0 0 .451-2.154v-80.23a5.63 5.63 0 0 0-5.72-5.537" opacity=".1"/><path d="M122.118 79.343H82.581v72.848h-.554v11.396a2.77 2.77 0 0 0 2.814 2.768l31.649-5.675c3.137 0 11.579-2.629 11.579-5.721v-70.08a5.58 5.58 0 0 0-3.584-5.17 5.6 5.6 0 0 0-2.182-.366z" opacity=".01"/><path d="M120.319 93.783h-37.83v89.272h37.83a7.38 7.38 0 0 0 7.566-7.151v-74.97a7.384 7.384 0 0 0-7.566-7.151" opacity=".2"/><path d="M120.319 85.94h-37.83v87.658h37.83a7.4 7.4 0 0 0 5.467-2.125 7.4 7.4 0 0 0 2.191-5.441V93.091a7.38 7.38 0 0 0-7.658-7.151" opacity=".3"/><path d="M120.319 85.94h-37.83v87.058h37.83a7.43 7.43 0 0 0 7.658-6.966V93.091a7.38 7.38 0 0 0-7.658-7.151" opacity=".3"/><path d="M120.319 87.601h-37.83v89.411h37.83a7.384 7.384 0 0 0 7.566-7.151v-74.97a7.38 7.38 0 0 0-7.566-7.29" opacity=".3"/><path d="M120.319 89.4h-37.83v89.319h37.83a7.43 7.43 0 0 0 7.566-7.198V96.828a7.386 7.386 0 0 0-7.566-7.428" opacity=".2"/><path d="M127.608 88.43H88.025a2.813 2.813 0 0 0-2.86 2.768v81.384a2.813 2.813 0 0 0 2.86 2.768h39.583a5.58 5.58 0 0 0 3.977-1.619 5.57 5.57 0 0 0 1.651-3.964V94.013a5.625 5.625 0 0 0-5.628-5.583" opacity=".1"/><path d="M123.179 88.431H83.642c-.35-.07-.71-.07-1.061 0v84.982a4 4 0 0 0 1.06 0h39.538a5.6 5.6 0 0 0 2.157-.411 5.6 5.6 0 0 0 3.071-3.021c.289-.68.44-1.411.447-2.15V94.014a5.64 5.64 0 0 0-3.518-5.172 5.6 5.6 0 0 0-2.157-.41" opacity=".2"/><path d="M113.214 83.634H84.472a2.86 2.86 0 0 0-2.86 2.768v81.337a2.814 2.814 0 0 0 2.86 2.768h39.538a5.626 5.626 0 0 0 5.674-5.536v-73.31c0-3.321-7.658-5.074-8.535-6.09a17.5 17.5 0 0 0-7.935-1.937" opacity=".3"/><path d="M125.67 92.446H86.133a2.86 2.86 0 0 0-2.86 2.768v81.384a2.86 2.86 0 0 0 2.86 2.768h39.537a5.62 5.62 0 0 0 3.994-1.616 5.63 5.63 0 0 0 1.681-3.966V98.029a5.63 5.63 0 0 0-5.628-5.583z" opacity=".1"/><path d="M122.118 80.865H82.581v72.756h-.554v11.396a2.77 2.77 0 0 0 2.814 2.768l31.649-5.629c3.137 0 11.579-2.676 11.579-5.767V86.355a5.673 5.673 0 0 0-5.813-5.49z" opacity=".1"/><path d="M122.118 82.434H82.581v72.571h-.554v11.396a2.77 2.77 0 0 0 2.814 2.768l31.649-5.629c3.137 0 11.579-2.675 11.579-5.766V87.832a5.627 5.627 0 0 0-5.905-5.398z" opacity=".15"/></g><path fill="#185ABD" d="M44.566 83.403h75.753a7.52 7.52 0 0 1 7.566 7.427v74.141a7.53 7.53 0 0 1-2.235 5.304 7.53 7.53 0 0 1-5.331 2.17H44.566a8 8 0 0 1-5.352-2.215A7.3 7.3 0 0 1 37 164.971V90.784a7.52 7.52 0 0 1 7.566-7.382"/><path fill="#fff" d="M105.786 155.743H95.591l-11.95-38.385-12.502 38.385H60.898l-11.396-55.639h10.242l7.935 38.938 11.95-37.831h8.534l11.395 37.831 7.935-38.938h9.689z"/></svg>