<svg xmlns="http://www.w3.org/2000/svg" width="256" height="256" fill="none"><path fill="#F4F2ED" d="M196 0H60C26.863 0 0 26.863 0 60v136c0 33.137 26.863 60 60 60h136c33.137 0 60-26.863 60-60V60c0-33.137-26.863-60-60-60"/><path fill="#0A5DA9" d="M46 100.5C46 54.937 82.936 18 128.5 18S211 54.937 211 100.5v130.266a7.234 7.234 0 0 1-7.234 7.234H53.234A7.234 7.234 0 0 1 46 230.766z"/><path fill="#FFC700" d="M66.842 134.947h123.895v16.211c0 34.212-27.735 61.947-61.947 61.947s-61.948-27.735-61.948-61.947z"/><path fill="#fff" d="M66.842 134.947h123.895v4.632c0 34.212-27.735 61.947-61.947 61.947s-61.948-27.735-61.948-61.947zm0-41.684c0-15.348 12.442-27.79 27.79-27.79s27.789 12.442 27.789 27.79v41.684H66.842zm68.316 0c0-15.348 12.441-27.79 27.789-27.79s27.79 12.442 27.79 27.79v41.684h-55.579z"/><circle cx="94.342" cy="100.5" r="13.026" fill="#000"/><circle cx="162.658" cy="100.5" r="13.026" fill="#000"/><g clip-path="url(#clip0_658_71)"><rect width="55" height="55" x="101" y="121.053" fill="#C36209" rx="27.5"/><circle cx="148.5" cy="168.553" r="47.5" fill="#C36209"/><circle cx="128.5" cy="-45.5" r="197.5" fill="#F2900C"/></g><defs><clipPath id="clip0_658_71"><rect width="55" height="55" x="101" y="121.053" fill="#fff" rx="27.5"/></clipPath></defs></svg>