<svg xmlns="http://www.w3.org/2000/svg" width="256" height="256" fill="none"><g clip-path="url(#clip0_151_177)"><path fill="#282828" d="M60 0h136c33.1 0 60 26.9 60 60v136c0 33.1-26.9 60-60 60H60c-33.1 0-60-26.9-60-60V60C0 26.9 26.9 0 60 0"/><path fill="url(#paint0_linear_151_177)" d="M73.3 29.9h110.8c23.7 0 42.9 19.2 42.9 42.9v110.8c0 23.7-19.2 42.9-42.9 42.9H73.3c-23.7 0-42.9-19.2-42.9-42.9V72.8c-.1-23.7 19.2-42.9 42.9-42.9"/><path fill="#fff" d="M180.7 40.5H76.6c-19.8 0-35.9 16.1-35.9 35.9v104.1c0 19.8 16.1 35.9 35.9 35.9h104.1c19.8 0 35.9-16.1 35.9-35.9V76.2c0-19.8-16-35.7-35.9-35.7m33 140.4c0 18-14.5 32.6-32.6 32.6H76.2c-17.8 0-32.6-14.5-32.6-32.6V75.8c0-18 14.5-32.6 32.6-32.6h105.1c17.8 0 32.6 14.5 32.6 32.6v105.1z"/><path fill="#69C5F3" d="M129 47.5c-44.3 0-80.4 36.1-80.4 80.4s36.1 80.4 80.4 80.4c44.5 0 80.4-36.1 80.4-80.4S173.3 47.5 129 47.5m0 159.7c-43.7 0-79.2-35.5-79.2-79.2S85.3 48.7 129 48.7s79.2 35.5 79.2 79.2-35.5 79.3-79.2 79.3"/><path fill="#68C5F4" d="M129 64c-35.5 0-64.1 28.6-64.1 64.1S93.5 192 129 192s64.1-28.6 64.1-64.1S164.3 64 129 64m0 126.7c-34.7 0-62.7-28-62.7-62.7s28-62.7 62.7-62.7 62.7 28 62.7 62.7-28.2 62.7-62.7 62.7"/><path fill="#fff" d="M67.568 142.668h122.4c5.1 0 9 4.1 9 9 0 5.1-4.1 9-9 9h-122.4c-5.1 0-9-4.1-9-9-.2-4.9 3.9-9 9-9"/><path fill="#0A93E9" d="M67.168 144.368h122.8c3.9 0 7.3 3.1 7.3 7.3v.2c0 3.9-3.1 7.3-7.3 7.3h-122.8c-3.9 0-7.3-3.1-7.3-7.3v-.4c.3-3.9 3.4-7.1 7.3-7.1"/><path fill="#1694EA" d="M64.268 158.368h128.8l1-.6h-130.8z"/><path fill="#319DEC" d="M61.368 155.968h134.5l.4-.6h-135.3z"/><path fill="#65B1EE" d="M60.168 152.268h137.1v-.8h-137.1z"/><path fill="#8EC6F3" d="M61.568 147.368h134.5l.2.4.2.4h-135.3l.2-.4z"/><path fill="#95CAF3" d="M64.468 144.968h128.6l.6.2.6.4h-131l.6-.4z"/><path fill="url(#paint1_linear_151_177)" d="M186.468 144.368h-1s3.3 2.4 3.3 7.6c0 4.9-3.3 7.1-3.3 7.1h1s3.3-1.6 3.3-7.1c0-5.8-3.3-7.6-3.3-7.6"/><path fill="url(#paint2_linear_151_177)" d="M177.068 144.368h-1s2.9 2.7 2.9 7.6c0 4.3-2.9 7.1-2.9 7.1h1s2.9-2.2 2.9-7.1c-.2-5.2-2.9-7.6-2.9-7.6"/><path fill="url(#paint3_linear_151_177)" d="M128.168 144.368h1v14.8h-1z"/><path fill="url(#paint4_linear_151_177)" d="M118.568 144.368h1s-.4 3.7-.4 7.6c0 3.5.4 7.1.4 7.1h-1s-.4-3.5-.4-7.1c0-3.8.4-7.6.4-7.6"/><path fill="url(#paint5_linear_151_177)" d="M109.168 144.368h1s-1 3.7-1 7.6c0 3.5 1 7.1 1 7.1h-1s-1-3.5-1-7.1c0-3.8 1-7.6 1-7.6"/><path fill="url(#paint6_linear_151_177)" d="M99.568 144.368h1s-1.4 3.7-1.4 7.6c0 3.5 1.4 7.1 1.4 7.1h-1s-1.4-3.5-1.4-7.1c0-3.8 1.4-7.6 1.4-7.6"/><path fill="url(#paint7_linear_151_177)" d="M89.968 144.368h1s-2 3.1-2 7.6c0 3.9 2 7.1 2 7.1h-1s-2-3.1-2-7.1c0-4.4 2-7.6 2-7.6"/><path fill="url(#paint8_linear_151_177)" d="M80.368 144.368h1s-2.9 2.7-2.9 7.6c0 4.3 2.9 7.1 2.9 7.1h-1s-2.9-2.2-2.9-7.1c.1-5.2 2.9-7.6 2.9-7.6"/><path fill="url(#paint9_linear_151_177)" d="M70.968 144.368h1s-3.3 2.4-3.3 7.6c0 4.9 3.3 7.1 3.3 7.1h-1s-3.3-1.6-3.3-7.1c-.1-5.8 3.3-7.6 3.3-7.6"/><path fill="#fff" d="m124.875 69.702 61.2 105.9c2.5 4.3 1 9.8-3.3 12.4-4.3 2.5-9.8 1-12.4-3.3l-61.2-106c-2.5-4.3-1-9.8 3.3-12.4s9.8-.9 12.4 3.4"/><path fill="url(#paint10_linear_151_177)" d="m123.275 70.502 61.4 106.3c2 3.3.8 7.8-2.5 9.8l-.4.2c-3.3 2-7.8.8-9.8-2.5l-61.4-106.6c-2-3.3-.8-7.8 2.5-9.8l.2-.2c3.5-1.9 8.1-.7 10 2.8"/><path fill="url(#paint11_linear_151_177)" d="m109.575 74.802 64.3 111.6.4.2.4.2.4.2-65.5-113.4z"/><path fill="url(#paint12_linear_151_177)" d="m110.175 71.102 67.2 116.5h.8l-67.6-117.1-.2.4z"/><path fill="url(#paint13_linear_151_177)" d="m112.875 68.102 68.7 118.7.5-.4-68.6-118.7z"/><path fill="url(#paint14_linear_151_177)" d="m117.775 67.003 67.1 116.199-.2.4-.2.4-67.7-117.2h.4z"/><path fill="url(#paint15_linear_151_177)" d="m121.375 68.102 64.3 111.4v1.2l-65.5-113.2.4.2.4.2z"/><path fill="#3C98EA" d="m182.675 173.202-.4-.8s-.4 3.9-4.7 6.7c-4.1 2.5-7.8.8-7.8.8l.4.8s3.1 2.2 7.8-.8c4.7-2.7 4.7-6.7 4.7-6.7m-4.9-8.2-.4-.8s-1 3.9-5.1 6.3c-3.7 2.4-7.5 1.2-7.5 1.2l.4.8s3.3 1.4 7.6-1.2c4.4-2.6 5-6.3 5-6.3"/><path fill="#4CA4ED" d="m173.075 156.802-.4-.8s-1.8 3.3-5.5 5.5c-3.3 2-7.1 2-7.1 2l.4.8s3.5 0 7.1-2c3.8-2.2 5.5-5.5 5.5-5.5"/><path fill="#4DA7EE" d="m168.375 148.502-.4-.8s-2.5 3.3-5.9 5.1c-3.1 1.8-6.9 2.4-6.9 2.4l.4.8s3.7-.6 6.9-2.4c3.2-1.7 5.9-5.1 5.9-5.1"/><path fill="url(#paint16_linear_151_177)" d="m148.975 115.202.4.8s-3.3 1.6-6.7 3.3c-3.1 1.8-5.9 4.1-5.9 4.1l-.4-.8s2.9-2.4 5.9-4.1c3.4-1.7 6.7-3.3 6.7-3.3"/><path fill="url(#paint17_linear_151_177)" d="m144.275 107.002.4.8s-3.7 1.2-6.9 3.1c-3.1 1.8-5.7 4.5-5.7 4.5l-.4-.8s2.5-2.7 5.7-4.5c3.2-2.2 6.9-3.1 6.9-3.1"/><path fill="#9DD4F7" d="M135.475 100.502c2.5-.8 4.5-1.2 4.5-1.2l-.4-.8s-1.8.2-3.7 1c-1.2.4-1.4 1.4-.4 1"/><path fill="url(#paint18_linear_151_177)" d="m129.975 82.303.4.8s-3.7-1-8 1.4c-3.7 2.4-4.5 6.1-4.5 6.1l-.4-.8s.4-3.3 4.5-5.9c4.3-2.8 8-1.6 8-1.6"/><path fill="url(#paint19_linear_151_177)" d="m125.275 73.802.6.8s-3.9-1.6-8.4 1c-4.4 2.7-4.4 6.5-4.4 6.5l-.6-.8s-.4-3.3 4.3-6.3c4.9-2.9 8.5-1.2 8.5-1.2"/><path fill="#fff" d="M112.128 142.658c17-29.4 36.7-63.5 36.7-63.5 2.5-4.3 1-9.8-3.3-12.4-4.3-2.5-9.8-1-12.4 3.3 0 0-23.9 41.6-42 72.6zm-10.6 18c-8.2 14.1-13.9 24.3-13.9 24.3-2.5 4.3-8 5.9-12.4 3.3-4.3-2.5-5.9-8-3.3-12.4 0 0 3.3-6.1 8.6-15.1 6.7-.1 18.8-.1 21-.1"/><path fill="url(#paint20_linear_151_177)" d="M109.928 142.658c17.3-29.8 37.3-64.5 37.3-64.5 2-3.3.8-7.8-2.5-9.8l-.2-.2c-3.3-2-7.8-.8-9.8 2.5 0 0-23.5 40.8-41.6 72zm-10.4 18c-7.8 13.8-13.5 23.6-13.5 23.6-2 3.3-6.3 4.5-9.8 2.5h-.4c-3.3-2-4.5-6.3-2.5-9.8 0 0 3.7-6.5 9.4-16.3z"/><path fill="url(#paint21_linear_151_177)" d="m109.328 142.658 39-67.5v-1.2s-21.6 37.5-39.6 68.6h.6zm-10.5 18-15 25.9-.6.4-.6.2s6.7-11.6 15.3-26.5z"/><path fill="url(#paint22_linear_151_177)" d="m106.428 142.658 41.2-71.2-.2-.4-.2-.4s-22.6 39-41.4 71.8zm-10.4 18-15.7 27.1h-.8s6.7-11.6 15.7-27.3c.4.2.8.2.8.2"/><path fill="url(#paint23_linear_151_177)" d="M102.128 142.658c19.4-33.5 42.7-74.1 42.7-74.1l-.6-.4-43.1 74.5zm-10.6 18.2c-8.6 15.1-15.1 26.3-15.1 26.3l-.6-.4s6.3-11 14.9-25.9c.4-.2.2-.2.8 0"/><path fill="url(#paint24_linear_151_177)" d="M97.429 142.658c19.399-33.5 43.499-75.5 43.499-75.5h-.8s-24.1 41.8-43.5 75.5zm-11.4 18c-7.8 13.5-13.1 22.7-13.1 22.7l.2.4.2.4s5.7-9.8 13.7-23.5z"/><path fill="url(#paint25_linear_151_177)" d="m94.428 142.658 43.2-74.7-.4.2-.4.2-.2.2s-23.9 41.4-42.7 74.1zm-10.4 18c-6.9 12-11.8 20.4-11.8 20.4v-1.6s4.3-7.5 11-19c.5.2.5.2.8.2"/><path fill="url(#paint26_linear_151_177)" d="m132.728 73.858-.4.8s3.5-1.8 8.2.8c4.3 2.4 4.5 6.5 4.5 6.5l.4-.8s.4-3.7-4.5-6.5-8.2-.8-8.2-.8"/><path fill="url(#paint27_linear_151_177)" d="m128.028 82.258-.4.8s3.9-1.2 8 1.2c3.9 2.2 4.7 5.9 4.7 5.9l.4-.8s-.4-3.5-4.7-5.9c-4.5-2.6-8-1.2-8-1.2"/><path fill="url(#paint28_linear_151_177)" d="m123.128 90.458-.4.8s3.5-.2 7.5 2.2c3.5 2 5.3 5.1 5.3 5.1l.4-.8s-1.8-3.1-5.3-5.1c-3.8-2.2-7.5-2.2-7.5-2.2"/><path fill="url(#paint29_linear_151_177)" d="m118.428 98.958-.4.8s3.9.6 7.3 2.5c3.1 1.8 5.5 4.7 5.5 4.7l.4-.8s-2.4-2.9-5.5-4.7c-3.4-1.9-7.3-2.5-7.3-2.5"/><path fill="url(#paint30_linear_151_177)" d="m113.528 107.158-.4.8s3.7 1 7.1 2.9c3.1 1.8 5.7 4.3 5.7 4.3l.4-.8s-2.5-2.5-5.7-4.3c-3.2-1.7-7.1-2.9-7.1-2.9"/><path fill="url(#paint31_linear_151_177)" d="m108.828 115.358-.6.8s3.5 1.4 6.9 3.3c3.1 1.8 5.9 3.9 5.9 3.9l.4-.8s-2.7-2.2-5.9-3.9-6.7-3.3-6.7-3.3"/><path fill="url(#paint32_linear_151_177)" d="m103.528 124.658.4-.8 12.7 7.2-.4.8z"/><path fill="url(#paint33_linear_151_177)" d="m98.828 133.058.4-.8s3.1 2.4 6.5 4.1c3.1 1.8 6.3 3.1 6.3 3.1l-.4.6s-3.3-1.4-6.5-3.1c-3.4-1.8-6.3-3.9-6.3-3.9"/><path fill="#73B9F1" d="M95.628 142.658c-1-.8-1.6-1.4-1.6-1.4l.4-.8s1.2 1 2.7 2.2z"/><path fill="url(#paint34_linear_151_177)" d="M88.028 160.658c.8.6 1.6 1.2 2.5 1.8 3.5 2 7.1 1.8 7.1 1.8l-.4.8s-3.5.2-7.1-1.8c-1.4-.8-2.5-1.8-3.3-2.5h1.2z"/><path fill="url(#paint35_linear_151_177)" d="m79.528 166.158.4-.8s1 3.9 5.3 6.3c3.9 2.2 7.5 1 7.5 1l-.4.8s-3.1 1.4-7.5-1c-4.5-2.5-5.3-6.3-5.3-6.3"/><path fill="url(#paint36_linear_151_177)" d="m74.628 174.658.4-.8s.4 4.1 5.1 6.7c4.3 2.4 7.6.6 7.6.6l-.6.8s-2.9 2.2-7.6-.6c-4.9-2.8-4.9-6.7-4.9-6.7"/><path fill="url(#paint37_linear_151_177)" d="m138.154 226.8 83.9-176.3-21.2-10-87.4 183.3s2.7 1.4 6.3 2.9h18.4z"/><path fill="url(#paint38_radial_151_177)" d="m187.854 29.9 39.2 18.6v56.3c-13.6-6.5-104.2-49.6-104.2-49.6s6.3-13.1 12.2-25.3z"/><path fill="url(#paint39_radial_151_177)" d="M90.554 218.9c-.6 1.2-1.6 2.5-1.4 4.7.2 8 13.3 15.5 21 15.5 5.3 0 7.1-2.2 9-6.1 2-3.9-26.5-18.8-28.6-14.1"/><path fill="url(#paint40_linear_151_177)" d="M180.954 52.1s20.2 4.9 21.8 6.3-2.5 9.2-3.3 10.4c-6.5 7.8-26.7 51.2-26.7 51.2l-18.6-10.6s16.7-31 22.6-42c3.6-7.5 4.2-15.3 4.2-15.3"/><path fill="url(#paint41_linear_151_177)" d="M227.654 41.9c3.5 2.5 8.2 2 12 1.4 2.5-.4-1.4 3.3-5.7 12-4.3 8.6-4.1 9.2-4.7 8.6s-20-11.6-19.4-12.5c.8-1 3.9-22.4 5.5-21.8 5.6 1.3 6.6 8.1 12.3 12.3"/><path fill="url(#paint42_linear_151_177)" d="M197.454 66c1.4-2.2 7.6-15.5 17.6-15.5 4.5 0 13.1 11.4 13.9 12.9.6 1.4-1.4 6.9-2.4 4.3-1.2-2.9-6.1-9.2-11.4-9.2s-12.6 6.1-14.3 8.2c-1.7 2-4.8 1.4-3.4-.7"/><path fill="url(#paint43_linear_151_177)" d="M197.054 65.2c1-1.6 5.5-8.4 7.6-10.6 2.2-2.2 7.6-7.8 12.4-8.6 4.7-.8 9.6 8.8 8 10.8-1.2 1.4-3.1-.2-5.5-2.2-2.4-1.8-3.9-5.3-11.4.4-2.5 2-5.1 3.5-11 12-1.5 2.1-1.1-.2-.1-1.8"/><path fill="url(#paint44_linear_151_177)" d="M172.754 122.5c.8-1.6 1.8-3.9-.4-5.7-2.4-1.8-13.3-7.6-15.3-8s-3.5 0-4.3 1.4-61 104.5-62.2 107.5c-1.2 2.9-1.4 5.1.4 5.7s22 10.2 23.9 12.4c2 2.2 2.9-.2 3.7-1.4 3.8-4.9 53.2-110.4 54.2-111.9"/><path fill="url(#paint45_linear_151_177)" d="M198.354 64.8c1-1.4 3.3-5.3 6.3-8.8 2-2.4 12.6-7.5 14.9-15.7 1.4-4.5-.8-9-3.7-11-10-6.1-27.3-15.7-52.6-15.7-17.1 0-24.3 5.7-24.3 5.7h8.6l30 11.8 3.7 15.7s.4 5.3-1.4 11.4c-1.2 4.9-1.6 7.8-3.3 12.7 1.4.6 4.5-1.6 8-.6 3.1.8 5.1 5.1 7.3 2.5 3.8-4.9 5-5.8 6.5-8"/><path fill="url(#paint46_linear_151_177)" d="M180.754 52.6c-1.6-14.5-5.1-28.2-42-28 2.4-2.4 8-4.7 8-4.7l-8-.6s1.2-1 3.5-1.2c21.6-1.8 40.8 2.7 39.4 30.8-.1 4.5-.5 6.5-.9 3.7"/><path fill="url(#paint47_linear_151_177)" d="M138.754 24.6c2.5-1 6.1-1.6 12.7-1.2 8.2.4 18.6 3.5 22.9 7.5 2.2 2 2 .4-.4-2.2-6.1-7.1-15.3-8.6-27.3-8.8-1.2-.2-5.7 2.3-7.9 4.7"/><path fill="url(#paint48_linear_151_177)" d="m239.954 43.2 10.8 5.5s-4.1 5.5-7.5 11.8c-3.5 6.7-5.9 13.9-5.9 13.9l-10.4-6.3s2.5-7.1 6.3-13.9c3-5.7 6.7-11 6.7-11"/><path fill="#BFC0D0" d="M250.754 48.7c.8.4-1.8 6.5-5.5 13.5-3.7 7.1-7.3 12.5-7.8 12.2-.8-.4 1.8-6.5 5.5-13.5 3.5-7.1 7-12.6 7.8-12.2"/><path fill="url(#paint49_linear_151_177)" d="M73.3 29.9h110.8c23.7 0 42.9 19.2 42.9 42.9v110.8c0 23.7-19.2 42.9-42.9 42.9H73.3c-23.7 0-42.9-19.2-42.9-42.9V72.8c-.1-23.7 19.2-42.9 42.9-42.9"/><path fill="#fff" d="M180.7 40.5H76.6c-19.8 0-35.9 16.1-35.9 35.9v104.1c0 19.8 16.1 35.9 35.9 35.9h104.1c19.8 0 35.9-16.1 35.9-35.9V76.2c0-19.8-16-35.7-35.9-35.7m33 140.4c0 18-14.5 32.6-32.6 32.6H76.2c-17.8 0-32.6-14.5-32.6-32.6V75.8c0-18 14.5-32.6 32.6-32.6h105.1c17.8 0 32.6 14.5 32.6 32.6v105.1z"/><path fill="#69C5F3" d="M129 47.5c-44.3 0-80.4 36.1-80.4 80.4s36.1 80.4 80.4 80.4c44.5 0 80.4-36.1 80.4-80.4S173.3 47.5 129 47.5m0 159.7c-43.7 0-79.2-35.5-79.2-79.2S85.3 48.7 129 48.7s79.2 35.5 79.2 79.2-35.5 79.3-79.2 79.3"/><path fill="#68C5F4" d="M129 64c-35.5 0-64.1 28.6-64.1 64.1S93.5 192 129 192s64.1-28.6 64.1-64.1S164.3 64 129 64m0 126.7c-34.7 0-62.7-28-62.7-62.7s28-62.7 62.7-62.7 62.7 28 62.7 62.7-28.2 62.7-62.7 62.7"/><path fill="#fff" d="M67.568 142.668h122.4c5.1 0 9 4.1 9 9 0 5.1-4.1 9-9 9h-122.4c-5.1 0-9-4.1-9-9-.2-4.9 3.9-9 9-9"/><path fill="#0A93E9" d="M67.168 144.368h122.8c3.9 0 7.3 3.1 7.3 7.3v.2c0 3.9-3.1 7.3-7.3 7.3h-122.8c-3.9 0-7.3-3.1-7.3-7.3v-.4c.3-3.9 3.4-7.1 7.3-7.1"/><path fill="#1694EA" d="M64.268 158.368h128.8l1-.6h-130.8z"/><path fill="#319DEC" d="M61.368 155.968h134.5l.4-.6h-135.3z"/><path fill="#65B1EE" d="M60.168 152.268h137.1v-.8h-137.1z"/><path fill="#8EC6F3" d="M61.568 147.368h134.5l.2.4.2.4h-135.3l.2-.4z"/><path fill="#95CAF3" d="M64.468 144.968h128.6l.6.2.6.4h-131l.6-.4z"/><path fill="url(#paint50_linear_151_177)" d="M186.468 144.368h-1s3.3 2.4 3.3 7.6c0 4.9-3.3 7.1-3.3 7.1h1s3.3-1.6 3.3-7.1c0-5.8-3.3-7.6-3.3-7.6"/><path fill="url(#paint51_linear_151_177)" d="M177.068 144.368h-1s2.9 2.7 2.9 7.6c0 4.3-2.9 7.1-2.9 7.1h1s2.9-2.2 2.9-7.1c-.2-5.2-2.9-7.6-2.9-7.6"/><path fill="url(#paint52_linear_151_177)" d="M128.168 144.368h1v14.8h-1z"/><path fill="url(#paint53_linear_151_177)" d="M118.568 144.368h1s-.4 3.7-.4 7.6c0 3.5.4 7.1.4 7.1h-1s-.4-3.5-.4-7.1c0-3.8.4-7.6.4-7.6"/><path fill="url(#paint54_linear_151_177)" d="M109.168 144.368h1s-1 3.7-1 7.6c0 3.5 1 7.1 1 7.1h-1s-1-3.5-1-7.1c0-3.8 1-7.6 1-7.6"/><path fill="url(#paint55_linear_151_177)" d="M99.568 144.368h1s-1.4 3.7-1.4 7.6c0 3.5 1.4 7.1 1.4 7.1h-1s-1.4-3.5-1.4-7.1c0-3.8 1.4-7.6 1.4-7.6"/><path fill="url(#paint56_linear_151_177)" d="M89.968 144.368h1s-2 3.1-2 7.6c0 3.9 2 7.1 2 7.1h-1s-2-3.1-2-7.1c0-4.4 2-7.6 2-7.6"/><path fill="url(#paint57_linear_151_177)" d="M80.368 144.368h1s-2.9 2.7-2.9 7.6c0 4.3 2.9 7.1 2.9 7.1h-1s-2.9-2.2-2.9-7.1c.1-5.2 2.9-7.6 2.9-7.6"/><path fill="url(#paint58_linear_151_177)" d="M70.968 144.368h1s-3.3 2.4-3.3 7.6c0 4.9 3.3 7.1 3.3 7.1h-1s-3.3-1.6-3.3-7.1c-.1-5.8 3.3-7.6 3.3-7.6"/><path fill="#fff" d="m124.875 69.702 61.2 105.9c2.5 4.3 1 9.8-3.3 12.4-4.3 2.5-9.8 1-12.4-3.3l-61.2-106c-2.5-4.3-1-9.8 3.3-12.4s9.8-.9 12.4 3.4"/><path fill="url(#paint59_linear_151_177)" d="m123.275 70.502 61.4 106.3c2 3.3.8 7.8-2.5 9.8l-.4.2c-3.3 2-7.8.8-9.8-2.5l-61.4-106.6c-2-3.3-.8-7.8 2.5-9.8l.2-.2c3.5-1.9 8.1-.7 10 2.8"/><path fill="url(#paint60_linear_151_177)" d="m109.575 74.802 64.3 111.6.4.2.4.2.4.2-65.5-113.4z"/><path fill="url(#paint61_linear_151_177)" d="m110.175 71.102 67.2 116.5h.8l-67.6-117.1-.2.4z"/><path fill="url(#paint62_linear_151_177)" d="m112.875 68.102 68.7 118.7.5-.4-68.6-118.7z"/><path fill="url(#paint63_linear_151_177)" d="m117.775 67.003 67.1 116.199-.2.4-.2.4-67.7-117.2h.4z"/><path fill="url(#paint64_linear_151_177)" d="m121.375 68.102 64.3 111.4v1.2l-65.5-113.2.4.2.4.2z"/><path fill="#3C98EA" d="m182.675 173.202-.4-.8s-.4 3.9-4.7 6.7c-4.1 2.5-7.8.8-7.8.8l.4.8s3.1 2.2 7.8-.8c4.7-2.7 4.7-6.7 4.7-6.7m-4.9-8.2-.4-.8s-1 3.9-5.1 6.3c-3.7 2.4-7.5 1.2-7.5 1.2l.4.8s3.3 1.4 7.6-1.2c4.4-2.6 5-6.3 5-6.3"/><path fill="#4CA4ED" d="m173.075 156.802-.4-.8s-1.8 3.3-5.5 5.5c-3.3 2-7.1 2-7.1 2l.4.8s3.5 0 7.1-2c3.8-2.2 5.5-5.5 5.5-5.5"/><path fill="#4DA7EE" d="m168.375 148.502-.4-.8s-2.5 3.3-5.9 5.1c-3.1 1.8-6.9 2.4-6.9 2.4l.4.8s3.7-.6 6.9-2.4c3.2-1.7 5.9-5.1 5.9-5.1"/><path fill="url(#paint65_linear_151_177)" d="m148.975 115.202.4.8s-3.3 1.6-6.7 3.3c-3.1 1.8-5.9 4.1-5.9 4.1l-.4-.8s2.9-2.4 5.9-4.1c3.4-1.7 6.7-3.3 6.7-3.3"/><path fill="url(#paint66_linear_151_177)" d="m144.275 107.002.4.8s-3.7 1.2-6.9 3.1c-3.1 1.8-5.7 4.5-5.7 4.5l-.4-.8s2.5-2.7 5.7-4.5c3.2-2.2 6.9-3.1 6.9-3.1"/><path fill="#9DD4F7" d="M135.475 100.502c2.5-.8 4.5-1.2 4.5-1.2l-.4-.8s-1.8.2-3.7 1c-1.2.4-1.4 1.4-.4 1"/><path fill="url(#paint67_linear_151_177)" d="m129.975 82.303.4.8s-3.7-1-8 1.4c-3.7 2.4-4.5 6.1-4.5 6.1l-.4-.8s.4-3.3 4.5-5.9c4.3-2.8 8-1.6 8-1.6"/><path fill="url(#paint68_linear_151_177)" d="m125.275 73.802.6.8s-3.9-1.6-8.4 1c-4.4 2.7-4.4 6.5-4.4 6.5l-.6-.8s-.4-3.3 4.3-6.3c4.9-2.9 8.5-1.2 8.5-1.2"/><path fill="#fff" d="M112.128 142.658c17-29.4 36.7-63.5 36.7-63.5 2.5-4.3 1-9.8-3.3-12.4-4.3-2.5-9.8-1-12.4 3.3 0 0-23.9 41.6-42 72.6zm-10.6 18c-8.2 14.1-13.9 24.3-13.9 24.3-2.5 4.3-8 5.9-12.4 3.3-4.3-2.5-5.9-8-3.3-12.4 0 0 3.3-6.1 8.6-15.1 6.7-.1 18.8-.1 21-.1"/><path fill="url(#paint69_linear_151_177)" d="M109.928 142.658c17.3-29.8 37.3-64.5 37.3-64.5 2-3.3.8-7.8-2.5-9.8l-.2-.2c-3.3-2-7.8-.8-9.8 2.5 0 0-23.5 40.8-41.6 72zm-10.4 18c-7.8 13.8-13.5 23.6-13.5 23.6-2 3.3-6.3 4.5-9.8 2.5h-.4c-3.3-2-4.5-6.3-2.5-9.8 0 0 3.7-6.5 9.4-16.3z"/><path fill="url(#paint70_linear_151_177)" d="m109.328 142.658 39-67.5v-1.2s-21.6 37.5-39.6 68.6h.6zm-10.5 18-15 25.9-.6.4-.6.2s6.7-11.6 15.3-26.5z"/><path fill="url(#paint71_linear_151_177)" d="m106.428 142.658 41.2-71.2-.2-.4-.2-.4s-22.6 39-41.4 71.8zm-10.4 18-15.7 27.1h-.8s6.7-11.6 15.7-27.3c.4.2.8.2.8.2"/><path fill="url(#paint72_linear_151_177)" d="M102.128 142.658c19.4-33.5 42.7-74.1 42.7-74.1l-.6-.4-43.1 74.5zm-10.6 18.2c-8.6 15.1-15.1 26.3-15.1 26.3l-.6-.4s6.3-11 14.9-25.9c.4-.2.2-.2.8 0"/><path fill="url(#paint73_linear_151_177)" d="M97.429 142.658c19.399-33.5 43.499-75.5 43.499-75.5h-.8s-24.1 41.8-43.5 75.5zm-11.4 18c-7.8 13.5-13.1 22.7-13.1 22.7l.2.4.2.4s5.7-9.8 13.7-23.5z"/><path fill="url(#paint74_linear_151_177)" d="m94.428 142.658 43.2-74.7-.4.2-.4.2-.2.2s-23.9 41.4-42.7 74.1zm-10.4 18c-6.9 12-11.8 20.4-11.8 20.4v-1.6s4.3-7.5 11-19c.5.2.5.2.8.2"/><path fill="url(#paint75_linear_151_177)" d="m132.728 73.858-.4.8s3.5-1.8 8.2.8c4.3 2.4 4.5 6.5 4.5 6.5l.4-.8s.4-3.7-4.5-6.5-8.2-.8-8.2-.8"/><path fill="url(#paint76_linear_151_177)" d="m128.028 82.258-.4.8s3.9-1.2 8 1.2c3.9 2.2 4.7 5.9 4.7 5.9l.4-.8s-.4-3.5-4.7-5.9c-4.5-2.6-8-1.2-8-1.2"/><path fill="url(#paint77_linear_151_177)" d="m123.128 90.458-.4.8s3.5-.2 7.5 2.2c3.5 2 5.3 5.1 5.3 5.1l.4-.8s-1.8-3.1-5.3-5.1c-3.8-2.2-7.5-2.2-7.5-2.2"/><path fill="url(#paint78_linear_151_177)" d="m118.428 98.958-.4.8s3.9.6 7.3 2.5c3.1 1.8 5.5 4.7 5.5 4.7l.4-.8s-2.4-2.9-5.5-4.7c-3.4-1.9-7.3-2.5-7.3-2.5"/><path fill="url(#paint79_linear_151_177)" d="m113.528 107.158-.4.8s3.7 1 7.1 2.9c3.1 1.8 5.7 4.3 5.7 4.3l.4-.8s-2.5-2.5-5.7-4.3c-3.2-1.7-7.1-2.9-7.1-2.9"/><path fill="url(#paint80_linear_151_177)" d="m108.828 115.358-.6.8s3.5 1.4 6.9 3.3c3.1 1.8 5.9 3.9 5.9 3.9l.4-.8s-2.7-2.2-5.9-3.9-6.7-3.3-6.7-3.3"/><path fill="url(#paint81_linear_151_177)" d="m103.528 124.658.4-.8 12.7 7.2-.4.8z"/><path fill="url(#paint82_linear_151_177)" d="m98.828 133.058.4-.8s3.1 2.4 6.5 4.1c3.1 1.8 6.3 3.1 6.3 3.1l-.4.6s-3.3-1.4-6.5-3.1c-3.4-1.8-6.3-3.9-6.3-3.9"/><path fill="#73B9F1" d="M95.628 142.658c-1-.8-1.6-1.4-1.6-1.4l.4-.8s1.2 1 2.7 2.2z"/><path fill="url(#paint83_linear_151_177)" d="M88.028 160.658c.8.6 1.6 1.2 2.5 1.8 3.5 2 7.1 1.8 7.1 1.8l-.4.8s-3.5.2-7.1-1.8c-1.4-.8-2.5-1.8-3.3-2.5h1.2z"/><path fill="url(#paint84_linear_151_177)" d="m79.528 166.158.4-.8s1 3.9 5.3 6.3c3.9 2.2 7.5 1 7.5 1l-.4.8s-3.1 1.4-7.5-1c-4.5-2.5-5.3-6.3-5.3-6.3"/><path fill="url(#paint85_linear_151_177)" d="m74.628 174.658.4-.8s.4 4.1 5.1 6.7c4.3 2.4 7.6.6 7.6.6l-.6.8s-2.9 2.2-7.6-.6c-4.9-2.8-4.9-6.7-4.9-6.7"/><path fill="url(#paint86_linear_151_177)" d="m138.154 226.8 83.9-176.3-21.2-10-87.4 183.3s2.7 1.4 6.3 2.9h18.4z"/><path fill="url(#paint87_radial_151_177)" d="m187.854 29.9 39.2 18.6v56.3c-13.6-6.5-104.2-49.6-104.2-49.6s6.3-13.1 12.2-25.3z"/><path fill="url(#paint88_radial_151_177)" d="M90.554 218.9c-.6 1.2-1.6 2.5-1.4 4.7.2 8 13.3 15.5 21 15.5 5.3 0 7.1-2.2 9-6.1 2-3.9-26.5-18.8-28.6-14.1"/><path fill="url(#paint89_linear_151_177)" d="M180.954 52.1s20.2 4.9 21.8 6.3-2.5 9.2-3.3 10.4c-6.5 7.8-26.7 51.2-26.7 51.2l-18.6-10.6s16.7-31 22.6-42c3.6-7.5 4.2-15.3 4.2-15.3"/><path fill="url(#paint90_linear_151_177)" d="M227.654 41.9c3.5 2.5 8.2 2 12 1.4 2.5-.4-1.4 3.3-5.7 12-4.3 8.6-4.1 9.2-4.7 8.6s-20-11.6-19.4-12.5c.8-1 3.9-22.4 5.5-21.8 5.6 1.3 6.6 8.1 12.3 12.3"/><path fill="url(#paint91_linear_151_177)" d="M197.454 66c1.4-2.2 7.6-15.5 17.6-15.5 4.5 0 13.1 11.4 13.9 12.9.6 1.4-1.4 6.9-2.4 4.3-1.2-2.9-6.1-9.2-11.4-9.2s-12.6 6.1-14.3 8.2c-1.7 2-4.8 1.4-3.4-.7"/><path fill="url(#paint92_linear_151_177)" d="M197.054 65.2c1-1.6 5.5-8.4 7.6-10.6 2.2-2.2 7.6-7.8 12.4-8.6 4.7-.8 9.6 8.8 8 10.8-1.2 1.4-3.1-.2-5.5-2.2-2.4-1.8-3.9-5.3-11.4.4-2.5 2-5.1 3.5-11 12-1.5 2.1-1.1-.2-.1-1.8"/><path fill="url(#paint93_linear_151_177)" d="M172.754 122.5c.8-1.6 1.8-3.9-.4-5.7-2.4-1.8-13.3-7.6-15.3-8s-3.5 0-4.3 1.4-61 104.5-62.2 107.5c-1.2 2.9-1.4 5.1.4 5.7s22 10.2 23.9 12.4c2 2.2 2.9-.2 3.7-1.4 3.8-4.9 53.2-110.4 54.2-111.9"/><path fill="url(#paint94_linear_151_177)" d="M198.354 64.8c1-1.4 3.3-5.3 6.3-8.8 2-2.4 12.6-7.5 14.9-15.7 1.4-4.5-.8-9-3.7-11-10-6.1-27.3-15.7-52.6-15.7-17.1 0-24.3 5.7-24.3 5.7h8.6l30 11.8 3.7 15.7s.4 5.3-1.4 11.4c-1.2 4.9-1.6 7.8-3.3 12.7 1.4.6 4.5-1.6 8-.6 3.1.8 5.1 5.1 7.3 2.5 3.8-4.9 5-5.8 6.5-8"/><path fill="url(#paint95_linear_151_177)" d="M180.754 52.6c-1.6-14.5-5.1-28.2-42-28 2.4-2.4 8-4.7 8-4.7l-8-.6s1.2-1 3.5-1.2c21.6-1.8 40.8 2.7 39.4 30.8-.1 4.5-.5 6.5-.9 3.7"/><path fill="url(#paint96_linear_151_177)" d="M138.754 24.6c2.5-1 6.1-1.6 12.7-1.2 8.2.4 18.6 3.5 22.9 7.5 2.2 2 2 .4-.4-2.2-6.1-7.1-15.3-8.6-27.3-8.8-1.2-.2-5.7 2.3-7.9 4.7"/><path fill="url(#paint97_linear_151_177)" d="m239.954 43.2 10.8 5.5s-4.1 5.5-7.5 11.8c-3.5 6.7-5.9 13.9-5.9 13.9l-10.4-6.3s2.5-7.1 6.3-13.9c3-5.7 6.7-11 6.7-11"/><path fill="#BFC0D0" d="M250.754 48.7c.8.4-1.8 6.5-5.5 13.5-3.7 7.1-7.3 12.5-7.8 12.2-.8-.4 1.8-6.5 5.5-13.5 3.5-7.1 7-12.6 7.8-12.2"/></g><defs><linearGradient id="paint0_linear_151_177" x1="128.688" x2="128.688" y1="226.606" y2="29.908" gradientUnits="userSpaceOnUse"><stop stop-color="#1578E4"/><stop offset="1" stop-color="#00C3F2"/></linearGradient><linearGradient id="paint1_linear_151_177" x1="187.614" x2="187.614" y1="159.068" y2="144.396" gradientUnits="userSpaceOnUse"><stop stop-color="#1492E7"/><stop offset="1" stop-color="#DBEDFB"/></linearGradient><linearGradient id="paint2_linear_151_177" x1="178.004" x2="178.004" y1="159.068" y2="144.396" gradientUnits="userSpaceOnUse"><stop stop-color="#1492E7"/><stop offset="1" stop-color="#DBEDFB"/></linearGradient><linearGradient id="paint3_linear_151_177" x1="128.684" x2="128.684" y1="159.068" y2="144.396" gradientUnits="userSpaceOnUse"><stop stop-color="#1492E7"/><stop offset="1" stop-color="#DBEDFB"/></linearGradient><linearGradient id="paint4_linear_151_177" x1="118.88" x2="118.88" y1="159.068" y2="144.396" gradientUnits="userSpaceOnUse"><stop stop-color="#1492E7"/><stop offset="1" stop-color="#DBEDFB"/></linearGradient><linearGradient id="paint5_linear_151_177" x1="109.174" x2="109.174" y1="159.068" y2="144.396" gradientUnits="userSpaceOnUse"><stop stop-color="#1492E7"/><stop offset="1" stop-color="#DBEDFB"/></linearGradient><linearGradient id="paint6_linear_151_177" x1="99.371" x2="99.371" y1="159.068" y2="144.396" gradientUnits="userSpaceOnUse"><stop stop-color="#1492E7"/><stop offset="1" stop-color="#DBEDFB"/></linearGradient><linearGradient id="paint7_linear_151_177" x1="89.465" x2="89.465" y1="159.068" y2="144.396" gradientUnits="userSpaceOnUse"><stop stop-color="#1492E7"/><stop offset="1" stop-color="#DBEDFB"/></linearGradient><linearGradient id="paint8_linear_151_177" x1="79.369" x2="79.369" y1="159.068" y2="144.396" gradientUnits="userSpaceOnUse"><stop stop-color="#1492E7"/><stop offset="1" stop-color="#DBEDFB"/></linearGradient><linearGradient id="paint9_linear_151_177" x1="69.761" x2="69.761" y1="159.068" y2="144.396" gradientUnits="userSpaceOnUse"><stop stop-color="#1492E7"/><stop offset="1" stop-color="#DBEDFB"/></linearGradient><linearGradient id="paint10_linear_151_177" x1="147.609" x2="147.609" y1="187.719" y2="66.784" gradientUnits="userSpaceOnUse"><stop stop-color="#1285E7"/><stop offset="1" stop-color="#00B5EF"/></linearGradient><linearGradient id="paint11_linear_151_177" x1="153.163" x2="98.592" y1="187.117" y2="92.613" gradientUnits="userSpaceOnUse"><stop stop-color="#2B90E7"/><stop offset="1" stop-color="#00B6EF"/></linearGradient><linearGradient id="paint12_linear_151_177" x1="155.582" x2="99.144" y1="187.805" y2="90.051" gradientUnits="userSpaceOnUse"><stop stop-color="#3795EA"/><stop offset="1" stop-color="#49C4F2"/></linearGradient><linearGradient id="paint13_linear_151_177" x1="159.1" x2="101.901" y1="186.642" y2="87.577" gradientUnits="userSpaceOnUse"><stop stop-color="#3696EA"/><stop offset="1" stop-color="#90D9F6"/></linearGradient><linearGradient id="paint14_linear_151_177" x1="162.294" x2="105.826" y1="183.886" y2="86.098" gradientUnits="userSpaceOnUse"><stop stop-color="#3097EA"/><stop offset="1" stop-color="#B5E5F9"/></linearGradient><linearGradient id="paint15_linear_151_177" x1="163.956" x2="109.44" y1="180.642" y2="86.222" gradientUnits="userSpaceOnUse"><stop stop-color="#3A98EA"/><stop offset="1" stop-color="#BCE7FA"/></linearGradient><linearGradient id="paint16_linear_151_177" x1="136.607" x2="147.416" y1="120.777" y2="114.536" gradientUnits="userSpaceOnUse"><stop stop-color="#00A4EC"/><stop offset="1" stop-color="#B9DFF6"/></linearGradient><linearGradient id="paint17_linear_151_177" x1="131.812" x2="142.682" y1="112.737" y2="106.462" gradientUnits="userSpaceOnUse"><stop stop-color="#00A4EC"/><stop offset="1" stop-color="#B9DFF6"/></linearGradient><linearGradient id="paint18_linear_151_177" x1="117.008" x2="127.828" y1="87.537" y2="81.291" gradientUnits="userSpaceOnUse"><stop stop-color="#00B4EF"/><stop offset="1" stop-color="#C3E9FA"/></linearGradient><linearGradient id="paint19_linear_151_177" x1="112.061" x2="122.954" y1="78.972" y2="72.683" gradientUnits="userSpaceOnUse"><stop stop-color="#00B4EF"/><stop offset="1" stop-color="#C3E9FA"/></linearGradient><linearGradient id="paint20_linear_151_177" x1="110.251" x2="110.251" y1="187.963" y2="67.161" gradientUnits="userSpaceOnUse"><stop stop-color="#1285E7"/><stop offset="1" stop-color="#00B5EF"/></linearGradient><linearGradient id="paint21_linear_151_177" x1="104.6" x2="159.213" y1="187.421" y2="92.835" gradientUnits="userSpaceOnUse"><stop stop-color="#3194E9"/><stop offset="1" stop-color="#71CFF4"/></linearGradient><linearGradient id="paint22_linear_151_177" x1="102.175" x2="158.628" y1="188.1" y2="90.342" gradientUnits="userSpaceOnUse"><stop stop-color="#5AA6EC"/><stop offset="1" stop-color="#A2DEF8"/></linearGradient><linearGradient id="paint23_linear_151_177" x1="98.839" x2="156.009" y1="186.959" y2="87.937" gradientUnits="userSpaceOnUse"><stop stop-color="#66ABEE"/><stop offset="1" stop-color="#BEE8FA"/></linearGradient><linearGradient id="paint24_linear_151_177" x1="95.431" x2="151.922" y1="184.165" y2="86.354" gradientUnits="userSpaceOnUse"><stop stop-color="#7BB6F0"/><stop offset="1" stop-color="#B1E3F9"/></linearGradient><linearGradient id="paint25_linear_151_177" x1="93.949" x2="148.449" y1="180.989" y2="86.575" gradientUnits="userSpaceOnUse"><stop stop-color="#5AA6EC"/><stop offset="1" stop-color="#AFE3F9"/></linearGradient><linearGradient id="paint26_linear_151_177" x1="133.347" x2="144.268" y1="75.576" y2="81.882" gradientUnits="userSpaceOnUse"><stop stop-color="#C1E7FA"/><stop offset="1" stop-color="#89D4F5"/></linearGradient><linearGradient id="paint27_linear_151_177" x1="128.43" x2="139.196" y1="84.295" y2="90.51" gradientUnits="userSpaceOnUse"><stop stop-color="#C1E7FA"/><stop offset="1" stop-color="#89D4F5"/></linearGradient><linearGradient id="paint28_linear_151_177" x1="123.301" x2="134.014" y1="93.086" y2="99.27" gradientUnits="userSpaceOnUse"><stop stop-color="#C1E7FA"/><stop offset="1" stop-color="#89D4F5"/></linearGradient><linearGradient id="paint29_linear_151_177" x1="118.358" x2="129.069" y1="101.575" y2="107.76" gradientUnits="userSpaceOnUse"><stop stop-color="#B0DFF8"/><stop offset="1" stop-color="#52BDF2"/></linearGradient><linearGradient id="paint30_linear_151_177" x1="113.486" x2="124.201" y1="109.83" y2="116.017" gradientUnits="userSpaceOnUse"><stop stop-color="#B4DEF8"/><stop offset="1" stop-color="#4EB5F0"/></linearGradient><linearGradient id="paint31_linear_151_177" x1="108.633" x2="119.345" y1="118.056" y2="124.24" gradientUnits="userSpaceOnUse"><stop stop-color="#B4DEF8"/><stop offset="1" stop-color="#4EB5F0"/></linearGradient><linearGradient id="paint32_linear_151_177" x1="103.753" x2="114.464" y1="126.472" y2="132.655" gradientUnits="userSpaceOnUse"><stop stop-color="#B5DDF8"/><stop offset="1" stop-color="#46AEEE"/></linearGradient><linearGradient id="paint33_linear_151_177" x1="98.894" x2="109.552" y1="134.868" y2="141.02" gradientUnits="userSpaceOnUse"><stop stop-color="#96CEF4"/><stop offset="1" stop-color="#46AAEE"/></linearGradient><linearGradient id="paint34_linear_151_177" x1="87.062" x2="94.75" y1="162.364" y2="166.802" gradientUnits="userSpaceOnUse"><stop stop-color="#8FC1F2"/><stop offset="1" stop-color="#3193EA"/></linearGradient><linearGradient id="paint35_linear_151_177" x1="79.137" x2="89.972" y1="168.373" y2="174.627" gradientUnits="userSpaceOnUse"><stop stop-color="#8FC1F2"/><stop offset="1" stop-color="#3193EA"/></linearGradient><linearGradient id="paint36_linear_151_177" x1="74.156" x2="85.118" y1="176.946" y2="183.274" gradientUnits="userSpaceOnUse"><stop stop-color="#8FC1F2"/><stop offset="1" stop-color="#3193EA"/></linearGradient><linearGradient id="paint37_linear_151_177" x1="162.987" x2="174.375" y1="130.23" y2="135.781" gradientUnits="userSpaceOnUse"><stop offset=".001"/><stop offset="1" stop-opacity="0"/></linearGradient><linearGradient id="paint40_linear_151_177" x1="173.939" x2="185.807" y1="79.454" y2="85.504" gradientUnits="userSpaceOnUse"><stop stop-color="#344351"/><stop offset=".1" stop-color="#9697A0"/><stop offset=".181" stop-color="#8B8C95"/><stop offset=".351" stop-color="#787A83"/><stop offset=".47" stop-color="#71747D"/><stop offset=".591" stop-color="#777982"/><stop offset=".749" stop-color="#87898F"/><stop offset=".8" stop-color="#8E8F94"/><stop offset=".849" stop-color="#3D3B42"/><stop offset=".9" stop-color="#606E84"/></linearGradient><linearGradient id="paint41_linear_151_177" x1="232.515" x2="212.521" y1="60.188" y2="33.172" gradientUnits="userSpaceOnUse"><stop offset=".27" stop-color="#262B33"/><stop offset=".45" stop-color="#74747E"/><stop offset=".54" stop-color="#B0B0BC"/><stop offset=".73" stop-color="#74747E"/></linearGradient><linearGradient id="paint42_linear_151_177" x1="196.525" x2="228.078" y1="60.438" y2="56.368" gradientUnits="userSpaceOnUse"><stop offset=".14" stop-color="#606E84"/><stop offset=".4" stop-color="#9899A5"/><stop offset=".73" stop-color="#475768"/><stop offset=".92" stop-color="#262B33"/></linearGradient><linearGradient id="paint43_linear_151_177" x1="210.889" x2="209.108" y1="61.648" y2="51.543" gradientUnits="userSpaceOnUse"><stop stop-color="#101215" stop-opacity=".1"/><stop offset=".46" stop-color="#101215" stop-opacity=".7"/><stop offset=".7" stop-color="#474951"/><stop offset=".91" stop-color="#7B7D88"/></linearGradient><linearGradient id="paint44_linear_151_177" x1="125.432" x2="141.488" y1="163.1" y2="171.004" gradientUnits="userSpaceOnUse"><stop offset=".115" stop-color="#2C3952"/><stop offset=".374" stop-color="#3D414E"/><stop offset=".55" stop-color="#474A54"/><stop offset=".754" stop-color="#4E5057"/><stop offset=".892" stop-color="#323945"/><stop offset="1" stop-color="#143052"/></linearGradient><linearGradient id="paint45_linear_151_177" x1="160.039" x2="174.389" y1="53.934" y2="22.453" gradientUnits="userSpaceOnUse"><stop offset=".118" stop-color="#6D7078" stop-opacity="0"/><stop offset=".2" stop-color="#6D7078" stop-opacity=".7"/><stop offset=".34" stop-color="#35363A"/><stop offset=".374" stop-color="#1D1F22"/><stop offset=".4" stop-color="#101215"/><stop offset=".5" stop-color="#16171A"/><stop offset=".56" stop-color="#292A2E"/><stop offset=".688" stop-color="#4B4D51"/><stop offset=".807" stop-color="#63666B"/><stop offset=".915" stop-color="#72757B"/><stop offset="1" stop-color="#777A80"/></linearGradient><linearGradient id="paint46_linear_151_177" x1="138.713" x2="181.78" y1="35.868" y2="35.868" gradientUnits="userSpaceOnUse"><stop stop-color="#4A4D56"/><stop offset="1" stop-color="#29292D"/></linearGradient><linearGradient id="paint47_linear_151_177" x1="138.717" x2="175.954" y1="25.842" y2="25.842" gradientUnits="userSpaceOnUse"><stop stop-color="#767880"/><stop offset=".41" stop-color="#0C0A0B"/></linearGradient><linearGradient id="paint48_linear_151_177" x1="234.663" x2="247.603" y1="71.05" y2="48.638" gradientUnits="userSpaceOnUse"><stop stop-color="#858997"/><stop offset=".23" stop-color="#244668"/><stop offset=".282" stop-color="#1A3249"/><stop offset=".4" stop-color="#040506"/><stop offset=".464" stop-color="#313236"/><stop offset=".546" stop-color="#65656E"/><stop offset=".607" stop-color="#868691"/><stop offset=".64" stop-color="#92929E"/></linearGradient><linearGradient id="paint49_linear_151_177" x1="128.688" x2="128.688" y1="226.606" y2="29.908" gradientUnits="userSpaceOnUse"><stop stop-color="#1578E4"/><stop offset="1" stop-color="#00C3F2"/></linearGradient><linearGradient id="paint50_linear_151_177" x1="187.614" x2="187.614" y1="159.068" y2="144.396" gradientUnits="userSpaceOnUse"><stop stop-color="#1492E7"/><stop offset="1" stop-color="#DBEDFB"/></linearGradient><linearGradient id="paint51_linear_151_177" x1="178.004" x2="178.004" y1="159.068" y2="144.396" gradientUnits="userSpaceOnUse"><stop stop-color="#1492E7"/><stop offset="1" stop-color="#DBEDFB"/></linearGradient><linearGradient id="paint52_linear_151_177" x1="128.684" x2="128.684" y1="159.068" y2="144.396" gradientUnits="userSpaceOnUse"><stop stop-color="#1492E7"/><stop offset="1" stop-color="#DBEDFB"/></linearGradient><linearGradient id="paint53_linear_151_177" x1="118.88" x2="118.88" y1="159.068" y2="144.396" gradientUnits="userSpaceOnUse"><stop stop-color="#1492E7"/><stop offset="1" stop-color="#DBEDFB"/></linearGradient><linearGradient id="paint54_linear_151_177" x1="109.174" x2="109.174" y1="159.068" y2="144.396" gradientUnits="userSpaceOnUse"><stop stop-color="#1492E7"/><stop offset="1" stop-color="#DBEDFB"/></linearGradient><linearGradient id="paint55_linear_151_177" x1="99.371" x2="99.371" y1="159.068" y2="144.396" gradientUnits="userSpaceOnUse"><stop stop-color="#1492E7"/><stop offset="1" stop-color="#DBEDFB"/></linearGradient><linearGradient id="paint56_linear_151_177" x1="89.465" x2="89.465" y1="159.068" y2="144.396" gradientUnits="userSpaceOnUse"><stop stop-color="#1492E7"/><stop offset="1" stop-color="#DBEDFB"/></linearGradient><linearGradient id="paint57_linear_151_177" x1="79.369" x2="79.369" y1="159.068" y2="144.396" gradientUnits="userSpaceOnUse"><stop stop-color="#1492E7"/><stop offset="1" stop-color="#DBEDFB"/></linearGradient><linearGradient id="paint58_linear_151_177" x1="69.761" x2="69.761" y1="159.068" y2="144.396" gradientUnits="userSpaceOnUse"><stop stop-color="#1492E7"/><stop offset="1" stop-color="#DBEDFB"/></linearGradient><linearGradient id="paint59_linear_151_177" x1="147.609" x2="147.609" y1="187.719" y2="66.784" gradientUnits="userSpaceOnUse"><stop stop-color="#1285E7"/><stop offset="1" stop-color="#00B5EF"/></linearGradient><linearGradient id="paint60_linear_151_177" x1="153.163" x2="98.592" y1="187.117" y2="92.613" gradientUnits="userSpaceOnUse"><stop stop-color="#2B90E7"/><stop offset="1" stop-color="#00B6EF"/></linearGradient><linearGradient id="paint61_linear_151_177" x1="155.582" x2="99.144" y1="187.805" y2="90.051" gradientUnits="userSpaceOnUse"><stop stop-color="#3795EA"/><stop offset="1" stop-color="#49C4F2"/></linearGradient><linearGradient id="paint62_linear_151_177" x1="159.1" x2="101.901" y1="186.642" y2="87.577" gradientUnits="userSpaceOnUse"><stop stop-color="#3696EA"/><stop offset="1" stop-color="#90D9F6"/></linearGradient><linearGradient id="paint63_linear_151_177" x1="162.294" x2="105.826" y1="183.886" y2="86.098" gradientUnits="userSpaceOnUse"><stop stop-color="#3097EA"/><stop offset="1" stop-color="#B5E5F9"/></linearGradient><linearGradient id="paint64_linear_151_177" x1="163.956" x2="109.44" y1="180.642" y2="86.222" gradientUnits="userSpaceOnUse"><stop stop-color="#3A98EA"/><stop offset="1" stop-color="#BCE7FA"/></linearGradient><linearGradient id="paint65_linear_151_177" x1="136.607" x2="147.416" y1="120.777" y2="114.536" gradientUnits="userSpaceOnUse"><stop stop-color="#00A4EC"/><stop offset="1" stop-color="#B9DFF6"/></linearGradient><linearGradient id="paint66_linear_151_177" x1="131.812" x2="142.682" y1="112.737" y2="106.462" gradientUnits="userSpaceOnUse"><stop stop-color="#00A4EC"/><stop offset="1" stop-color="#B9DFF6"/></linearGradient><linearGradient id="paint67_linear_151_177" x1="117.008" x2="127.828" y1="87.537" y2="81.291" gradientUnits="userSpaceOnUse"><stop stop-color="#00B4EF"/><stop offset="1" stop-color="#C3E9FA"/></linearGradient><linearGradient id="paint68_linear_151_177" x1="112.061" x2="122.954" y1="78.972" y2="72.683" gradientUnits="userSpaceOnUse"><stop stop-color="#00B4EF"/><stop offset="1" stop-color="#C3E9FA"/></linearGradient><linearGradient id="paint69_linear_151_177" x1="110.251" x2="110.251" y1="187.963" y2="67.161" gradientUnits="userSpaceOnUse"><stop stop-color="#1285E7"/><stop offset="1" stop-color="#00B5EF"/></linearGradient><linearGradient id="paint70_linear_151_177" x1="104.6" x2="159.213" y1="187.421" y2="92.835" gradientUnits="userSpaceOnUse"><stop stop-color="#3194E9"/><stop offset="1" stop-color="#71CFF4"/></linearGradient><linearGradient id="paint71_linear_151_177" x1="102.175" x2="158.628" y1="188.1" y2="90.342" gradientUnits="userSpaceOnUse"><stop stop-color="#5AA6EC"/><stop offset="1" stop-color="#A2DEF8"/></linearGradient><linearGradient id="paint72_linear_151_177" x1="98.839" x2="156.009" y1="186.959" y2="87.937" gradientUnits="userSpaceOnUse"><stop stop-color="#66ABEE"/><stop offset="1" stop-color="#BEE8FA"/></linearGradient><linearGradient id="paint73_linear_151_177" x1="95.431" x2="151.922" y1="184.165" y2="86.354" gradientUnits="userSpaceOnUse"><stop stop-color="#7BB6F0"/><stop offset="1" stop-color="#B1E3F9"/></linearGradient><linearGradient id="paint74_linear_151_177" x1="93.949" x2="148.449" y1="180.989" y2="86.575" gradientUnits="userSpaceOnUse"><stop stop-color="#5AA6EC"/><stop offset="1" stop-color="#AFE3F9"/></linearGradient><linearGradient id="paint75_linear_151_177" x1="133.347" x2="144.268" y1="75.576" y2="81.882" gradientUnits="userSpaceOnUse"><stop stop-color="#C1E7FA"/><stop offset="1" stop-color="#89D4F5"/></linearGradient><linearGradient id="paint76_linear_151_177" x1="128.43" x2="139.196" y1="84.295" y2="90.51" gradientUnits="userSpaceOnUse"><stop stop-color="#C1E7FA"/><stop offset="1" stop-color="#89D4F5"/></linearGradient><linearGradient id="paint77_linear_151_177" x1="123.301" x2="134.014" y1="93.086" y2="99.27" gradientUnits="userSpaceOnUse"><stop stop-color="#C1E7FA"/><stop offset="1" stop-color="#89D4F5"/></linearGradient><linearGradient id="paint78_linear_151_177" x1="118.358" x2="129.069" y1="101.575" y2="107.76" gradientUnits="userSpaceOnUse"><stop stop-color="#B0DFF8"/><stop offset="1" stop-color="#52BDF2"/></linearGradient><linearGradient id="paint79_linear_151_177" x1="113.486" x2="124.201" y1="109.83" y2="116.017" gradientUnits="userSpaceOnUse"><stop stop-color="#B4DEF8"/><stop offset="1" stop-color="#4EB5F0"/></linearGradient><linearGradient id="paint80_linear_151_177" x1="108.633" x2="119.345" y1="118.056" y2="124.24" gradientUnits="userSpaceOnUse"><stop stop-color="#B4DEF8"/><stop offset="1" stop-color="#4EB5F0"/></linearGradient><linearGradient id="paint81_linear_151_177" x1="103.753" x2="114.464" y1="126.472" y2="132.655" gradientUnits="userSpaceOnUse"><stop stop-color="#B5DDF8"/><stop offset="1" stop-color="#46AEEE"/></linearGradient><linearGradient id="paint82_linear_151_177" x1="98.894" x2="109.552" y1="134.868" y2="141.02" gradientUnits="userSpaceOnUse"><stop stop-color="#96CEF4"/><stop offset="1" stop-color="#46AAEE"/></linearGradient><linearGradient id="paint83_linear_151_177" x1="87.062" x2="94.75" y1="162.364" y2="166.802" gradientUnits="userSpaceOnUse"><stop stop-color="#8FC1F2"/><stop offset="1" stop-color="#3193EA"/></linearGradient><linearGradient id="paint84_linear_151_177" x1="79.137" x2="89.972" y1="168.373" y2="174.627" gradientUnits="userSpaceOnUse"><stop stop-color="#8FC1F2"/><stop offset="1" stop-color="#3193EA"/></linearGradient><linearGradient id="paint85_linear_151_177" x1="74.156" x2="85.118" y1="176.946" y2="183.274" gradientUnits="userSpaceOnUse"><stop stop-color="#8FC1F2"/><stop offset="1" stop-color="#3193EA"/></linearGradient><linearGradient id="paint86_linear_151_177" x1="162.987" x2="174.375" y1="130.23" y2="135.781" gradientUnits="userSpaceOnUse"><stop offset=".001"/><stop offset="1" stop-opacity="0"/></linearGradient><linearGradient id="paint89_linear_151_177" x1="173.939" x2="185.807" y1="79.454" y2="85.504" gradientUnits="userSpaceOnUse"><stop stop-color="#344351"/><stop offset=".1" stop-color="#9697A0"/><stop offset=".181" stop-color="#8B8C95"/><stop offset=".351" stop-color="#787A83"/><stop offset=".47" stop-color="#71747D"/><stop offset=".591" stop-color="#777982"/><stop offset=".749" stop-color="#87898F"/><stop offset=".8" stop-color="#8E8F94"/><stop offset=".849" stop-color="#3D3B42"/><stop offset=".9" stop-color="#606E84"/></linearGradient><linearGradient id="paint90_linear_151_177" x1="232.515" x2="212.521" y1="60.188" y2="33.172" gradientUnits="userSpaceOnUse"><stop offset=".27" stop-color="#262B33"/><stop offset=".45" stop-color="#74747E"/><stop offset=".54" stop-color="#B0B0BC"/><stop offset=".73" stop-color="#74747E"/></linearGradient><linearGradient id="paint91_linear_151_177" x1="196.525" x2="228.078" y1="60.438" y2="56.368" gradientUnits="userSpaceOnUse"><stop offset=".14" stop-color="#606E84"/><stop offset=".4" stop-color="#9899A5"/><stop offset=".73" stop-color="#475768"/><stop offset=".92" stop-color="#262B33"/></linearGradient><linearGradient id="paint92_linear_151_177" x1="210.889" x2="209.108" y1="61.648" y2="51.543" gradientUnits="userSpaceOnUse"><stop stop-color="#101215" stop-opacity=".1"/><stop offset=".46" stop-color="#101215" stop-opacity=".7"/><stop offset=".7" stop-color="#474951"/><stop offset=".91" stop-color="#7B7D88"/></linearGradient><linearGradient id="paint93_linear_151_177" x1="125.432" x2="141.488" y1="163.1" y2="171.004" gradientUnits="userSpaceOnUse"><stop offset=".115" stop-color="#2C3952"/><stop offset=".374" stop-color="#3D414E"/><stop offset=".55" stop-color="#474A54"/><stop offset=".754" stop-color="#4E5057"/><stop offset=".892" stop-color="#323945"/><stop offset="1" stop-color="#143052"/></linearGradient><linearGradient id="paint94_linear_151_177" x1="160.039" x2="174.389" y1="53.934" y2="22.453" gradientUnits="userSpaceOnUse"><stop offset=".118" stop-color="#6D7078" stop-opacity="0"/><stop offset=".2" stop-color="#6D7078" stop-opacity=".7"/><stop offset=".34" stop-color="#35363A"/><stop offset=".374" stop-color="#1D1F22"/><stop offset=".4" stop-color="#101215"/><stop offset=".5" stop-color="#16171A"/><stop offset=".56" stop-color="#292A2E"/><stop offset=".688" stop-color="#4B4D51"/><stop offset=".807" stop-color="#63666B"/><stop offset=".915" stop-color="#72757B"/><stop offset="1" stop-color="#777A80"/></linearGradient><linearGradient id="paint95_linear_151_177" x1="138.713" x2="181.78" y1="35.868" y2="35.868" gradientUnits="userSpaceOnUse"><stop stop-color="#4A4D56"/><stop offset="1" stop-color="#29292D"/></linearGradient><linearGradient id="paint96_linear_151_177" x1="138.717" x2="175.954" y1="25.842" y2="25.842" gradientUnits="userSpaceOnUse"><stop stop-color="#767880"/><stop offset=".41" stop-color="#0C0A0B"/></linearGradient><linearGradient id="paint97_linear_151_177" x1="234.663" x2="247.603" y1="71.05" y2="48.638" gradientUnits="userSpaceOnUse"><stop stop-color="#858997"/><stop offset=".23" stop-color="#244668"/><stop offset=".282" stop-color="#1A3249"/><stop offset=".4" stop-color="#040506"/><stop offset=".464" stop-color="#313236"/><stop offset=".546" stop-color="#65656E"/><stop offset=".607" stop-color="#868691"/><stop offset=".64" stop-color="#92929E"/></linearGradient><radialGradient id="paint38_radial_151_177" cx="0" cy="0" r="1" gradientTransform="rotate(116.706 78.964 84.636)scale(31.7271)" gradientUnits="userSpaceOnUse"><stop/><stop offset="1" stop-opacity="0"/></radialGradient><radialGradient id="paint39_radial_151_177" cx="0" cy="0" r="1" gradientTransform="rotate(26.117 -440.24 337.745)scale(15.4713)" gradientUnits="userSpaceOnUse"><stop offset=".417" stop-color="#0C0C12"/><stop offset="1" stop-color="#3D4651"/></radialGradient><radialGradient id="paint87_radial_151_177" cx="0" cy="0" r="1" gradientTransform="rotate(116.706 78.964 84.636)scale(31.7271)" gradientUnits="userSpaceOnUse"><stop/><stop offset="1" stop-opacity="0"/></radialGradient><radialGradient id="paint88_radial_151_177" cx="0" cy="0" r="1" gradientTransform="rotate(26.117 -440.24 337.745)scale(15.4713)" gradientUnits="userSpaceOnUse"><stop offset=".417" stop-color="#0C0C12"/><stop offset="1" stop-color="#3D4651"/></radialGradient><clipPath id="clip0_151_177"><path fill="#fff" d="M0 0h256v256H0z"/></clipPath></defs></svg>