<svg xmlns="http://www.w3.org/2000/svg" fill="none" viewBox="0 0 256 256"><path fill="#282828" d="M196 0H60C26.863 0 0 26.863 0 60v136c0 33.137 26.863 60 60 60h136c33.137 0 60-26.863 60-60V60c0-33.137-26.863-60-60-60"/><g clip-path="url(#clip0_497_7)"><path fill="#fff" d="M120.015 29 81.46 86.92v36.715H57.828V86.919L21 29h26.56l23.418 37.293L94.588 29z"/><path fill="#CB171E" d="M159.698 102.812h-42.774l-8.699 21.045H89.284l40.052-94.636h19.374l38.427 94.636h-20.24l-7.2-21.045zm-7.105-18.894L139.48 49.189l-14.629 34.729z"/><path fill="#fff" d="M57.828 134.249V227H77.69v-63.979l20.788 43.004h15.636l21.498-44.515v65.471h19.056v-92.732H128.65l-23.086 41.946-21.987-41.946zM236 206.844h-48.863v-72.617h-20.239v92.352H236z"/></g><defs><clipPath id="clip0_497_7"><path fill="#fff" d="M21 29h215v198H21z"/></clipPath></defs></svg>