<svg xmlns="http://www.w3.org/2000/svg" width="256" height="256" fill="none"><path fill="#F4F2ED" d="M196 0H60C26.863 0 0 26.863 0 60v136c0 33.137 26.863 60 60 60h136c33.137 0 60-26.863 60-60V60c0-33.137-26.863-60-60-60"/><path fill="#0C4F8F" d="M205.588 96.197a4.3 4.3 0 0 0-1.966-2.79 4.3 4.3 0 0 0-3.377-.485l-16.246 4.31a120.1 120.1 0 0 0-20.254-41.586 120 120 0 0 0-7.67-9.18 4.3 4.3 0 0 0-3.189-1.41 4.3 4.3 0 0 0-3.189 1.41l-45.29 45.378q-.209.188-.345.431a2.2 2.2 0 0 0 .302 2.63 49.04 49.04 0 0 1 11.419 20.641 49.9 49.9 0 0 1 0 25.856 51 51 0 0 1-11.333 20.556c-.202.2-.362.439-.472.701a2.17 2.17 0 0 0 0 1.658c.11.262.27.501.472.701l45.161 45.033c.414.423.911.756 1.46.978a4.3 4.3 0 0 0 1.729.315 4.3 4.3 0 0 0 3.146-1.422 119.86 119.86 0 0 0 27.924-50.42l16.159 4.309a4.3 4.3 0 0 0 3.404-.474c.508-.297.95-.695 1.299-1.169a4.3 4.3 0 0 0 .727-1.589 142.85 142.85 0 0 0 0-64.64z"/><path fill="#0078D4" d="M205.588 96.198a4.57 4.57 0 0 0-2.025-2.758 4.3 4.3 0 0 0-3.448-.475l-84.461 22.582a49.9 49.9 0 0 1 0 25.856l84.418 22.667a4.3 4.3 0 0 0 3.405-.474 4.32 4.32 0 0 0 2.025-2.758 142.85 142.85 0 0 0 0-64.64z"/><path fill="#28A8EA" d="M104.321 94.904a2.28 2.28 0 0 1-.302-2.629l.345-.43 45.333-45.55A4.3 4.3 0 0 1 152.886 45a4.3 4.3 0 0 1 3.189 1.38 110 110 0 0 1 7.627 9.178 119.4 119.4 0 0 1 20.254 41.586l-68.173 18.186a49.2 49.2 0 0 0-11.462-20.6z"/><path fill="#06509B" d="M115.783 141.101a49.95 49.95 0 0 1-11.161 20.685c-.202.2-.362.438-.471.701a2.14 2.14 0 0 0 0 1.657c.109.263.269.501.471.701l45.247 45.249a4.32 4.32 0 0 0 3.189 1.411 4.3 4.3 0 0 0 3.189-1.411 119.3 119.3 0 0 0 27.881-50.42z"/><g fill="#000" opacity=".67"><path d="M135.95 166.958v-77.57a5.21 5.21 0 0 0-5.257-5.257h-18.874l-7.197 7.67-.344.432a2.28 2.28 0 0 0 .301 2.628 49.05 49.05 0 0 1 11.42 20.642 49.9 49.9 0 0 1 0 25.857 49 49 0 0 1-2.198 6.378 50.1 50.1 0 0 1-9.093 14.178c-.202.2-.362.438-.471.701a2.14 2.14 0 0 0 0 1.657c.109.263.269.501.471.701l7.369 7.369h18.401a5.986 5.986 0 0 0 5.602-5.085z" opacity=".05"/><path d="M127.978 176.783v-71.622a6.98 6.98 0 0 0-7.067-6.809h-13.66a47.4 47.4 0 0 1 8.618 17.238 49.9 49.9 0 0 1 0 25.856 48 48 0 0 1-2.197 6.378 49.2 49.2 0 0 1-9.05 13.962 2.16 2.16 0 0 0 0 3.06l18.487 18.487a6.77 6.77 0 0 0 4.869-6.55" opacity=".1"/><path d="M127.978 171.827v-71.579a6.93 6.93 0 0 0-2.123-4.869 6.93 6.93 0 0 0-4.944-1.94h-17.237a2.24 2.24 0 0 0 .517 1.465 49.05 49.05 0 0 1 11.42 20.642 49.9 49.9 0 0 1 0 25.856 48.5 48.5 0 0 1-2.198 6.378 49.2 49.2 0 0 1-8.791 14.006c-.202.2-.362.438-.471.701a2.14 2.14 0 0 0 0 1.657c.109.263.269.501.471.701l13.833 13.833h2.542a6.9 6.9 0 0 0 4.972-1.942 6.9 6.9 0 0 0 2.096-4.909z" opacity=".2"/><path d="M133.882 168.766V91.413a5.34 5.34 0 0 0-5.3-5.3h-18.487l-5.774 5.817a1.5 1.5 0 0 0-.302.43 2.2 2.2 0 0 0 .259 2.63 47.96 47.96 0 0 1 11.419 20.599 49.43 49.43 0 0 1-11.075 46.239 2.2 2.2 0 0 0 0 3.103l9.222 9.265h14.781a5.3 5.3 0 0 0 3.786-1.46 5.3 5.3 0 0 0 1.643-3.711.55.55 0 0 0-.172-.259" opacity=".1"/><path d="M133.796 170.146V93.697a5.26 5.26 0 0 0-3.236-4.896 5.3 5.3 0 0 0-2.022-.404H107.94l-3.663 3.662a3.3 3.3 0 0 0-.344.475 2.24 2.24 0 0 0 .301 2.628 48.66 48.66 0 0 1 11.42 20.599 49.9 49.9 0 0 1 0 25.856 50.6 50.6 0 0 1-11.334 20.599 2.114 2.114 0 0 0 0 3.017l11.118 11.075h12.368a6.42 6.42 0 0 0 5.99-6.162" opacity=".1"/><path d="M127.978 174.196v-71.665a6.98 6.98 0 0 0-7.067-6.852h-15.815a51 51 0 0 1 8.619 13.402 55 55 0 0 1 2.111 6.335 49.9 49.9 0 0 1 0 25.857 46.4 46.4 0 0 1-2.197 6.377 49.4 49.4 0 0 1-9.093 14.221 2.12 2.12 0 0 0-.469 2.327c.109.259.268.493.469.69l16.203 16.16a6.934 6.934 0 0 0 7.239-6.852" opacity=".2"/><path d="M127.978 164.932V95.12a6.93 6.93 0 0 0-2.123-4.869 6.94 6.94 0 0 0-4.944-1.94h-12.928l-3.706 3.663q-.209.21-.344.474a2.24 2.24 0 0 0 .301 2.629 48.65 48.65 0 0 1 11.42 20.598 49.9 49.9 0 0 1 0 25.857 47 47 0 0 1-2.241 6.378 49.4 49.4 0 0 1-9.093 14.221 2.11 2.11 0 0 0 0 3.016l6.895 6.895h9.481a6.96 6.96 0 0 0 5.039-1.798 6.98 6.98 0 0 0 2.286-4.838z" opacity=".3"/><path d="M127.978 164.501V95.12a6.93 6.93 0 0 0-2.123-4.869 6.94 6.94 0 0 0-4.944-1.94h-12.928l-3.706 3.663q-.209.21-.344.474a2.24 2.24 0 0 0 .301 2.629 48.65 48.65 0 0 1 11.42 20.598 49.9 49.9 0 0 1 0 25.857 47 47 0 0 1-2.241 6.378 49.4 49.4 0 0 1-9.093 14.221 2.11 2.11 0 0 0 0 3.016l6.508 6.507h9.868a7.02 7.02 0 0 0 6.677-4.056 7 7 0 0 0 .648-2.666z" opacity=".3"/><path d="M127.978 168.422V96.886a7.02 7.02 0 0 0-7.067-6.895h-14.78l-1.853 1.853q-.209.188-.345.431a2.194 2.194 0 0 0 .301 2.63 49 49 0 0 1 11.42 20.641 49.9 49.9 0 0 1 0 25.856 51 51 0 0 1-11.333 20.556 2.15 2.15 0 0 0 0 3.06l10.385 10.429h5.99a7.03 7.03 0 0 0 7.11-6.852z" opacity=".3"/><path d="M127.979 170.016V98.437a6.93 6.93 0 0 0-2.124-4.868 6.93 6.93 0 0 0-4.944-1.94h-16.504l-.345.43a2.28 2.28 0 0 0 .302 2.629 49.04 49.04 0 0 1 11.419 20.642 49.9 49.9 0 0 1 0 25.856 48.5 48.5 0 0 1-2.197 6.378 49.2 49.2 0 0 1-8.964 14.221 2.15 2.15 0 0 0-.637 1.53 2.15 2.15 0 0 0 .637 1.53l12.023 12.023h4.309a6.9 6.9 0 0 0 4.972-1.943 6.9 6.9 0 0 0 2.096-4.909z" opacity=".2"/><path d="M132.891 168.379V96.024a5.343 5.343 0 0 0-5.257-5.343h-22.193l-1.164 1.163a4 4 0 0 0-.301.431 2.154 2.154 0 0 0 .301 2.629 49 49 0 0 1 11.42 20.642 49.17 49.17 0 0 1-11.333 46.196 2.197 2.197 0 0 0 0 3.103l8.618 8.834h14.307a5.26 5.26 0 0 0 3.706-1.551 5.34 5.34 0 0 0 1.551-3.663z" opacity=".1"/><path d="M128.797 166.655v-70.63a5.344 5.344 0 0 0-5.3-5.344h-17.97l-1.163 1.163-.345.431a2.28 2.28 0 0 0 .302 2.629 49.04 49.04 0 0 1 11.419 20.642 49.3 49.3 0 0 1-11.118 46.196 2.245 2.245 0 0 0 0 3.103l7.068 7.068h11.936a5.3 5.3 0 0 0 5.344-5.215z" opacity=".2"/><path d="M129.573 163.811V93.697c0-3.146-7.153-4.87-7.972-5.774a15.4 15.4 0 0 0-7.412-1.853h-4.309l-5.732 5.731-.344.431a2.28 2.28 0 0 0 .301 2.629 48.9 48.9 0 0 1 11.42 20.599 49.9 49.9 0 0 1 0 25.856 49.3 49.3 0 0 1-11.29 20.599 2.11 2.11 0 0 0 0 3.016l4.309 4.31h15.599c.72.024 1.437-.1 2.106-.365a5.25 5.25 0 0 0 2.96-2.959c.264-.67.388-1.386.364-2.106" opacity=".3"/><path d="M131.124 172.171V99.816a5.256 5.256 0 0 0-5.3-5.257h-21.546v.344a49.04 49.04 0 0 1 11.419 20.643 49.9 49.9 0 0 1 0 25.856 51 51 0 0 1-11.333 20.556 2.16 2.16 0 0 0-.472 2.358c.11.263.27.501.472.701l12.669 12.67h8.618a5.17 5.17 0 0 0 3.706-1.551 5.57 5.57 0 0 0 1.767-3.965" opacity=".1"/><path d="M127.978 155.58V88.828a5.3 5.3 0 0 0-1.537-3.776 5.3 5.3 0 0 0-3.763-1.568h-9.825l-8.231 8.36q-.208.188-.344.431a2.195 2.195 0 0 0 .301 2.63 49.05 49.05 0 0 1 11.42 20.641 49.9 49.9 0 0 1 0 25.857 51 51 0 0 1-11.377 20.383c-.382.41-.598.948-.603 1.508l12.928-2.37c3.016.129 11.031-2.586 11.031-5.344" opacity=".1"/><path d="M127.979 156.915V90.12a5.3 5.3 0 0 0-1.553-3.748 5.3 5.3 0 0 0-3.748-1.553H111.56l-6.938 7.025a4 4 0 0 0-.301.43 2.15 2.15 0 0 0 .301 2.629 49 49 0 0 1 11.42 20.642 49.9 49.9 0 0 1 0 25.857 51 51 0 0 1-11.42 20.383c-.382.41-.598.948-.603 1.508a2.16 2.16 0 0 0 .517 1.422l12.669-2.327c2.758 0 10.774-2.542 10.774-5.473" opacity=".15"/></g><path fill="#0078D4" d="M50.067 85.898h70.844a7.11 7.11 0 0 1 7.067 7.068v70.846a7.11 7.11 0 0 1-7.067 7.068H50.067A7.113 7.113 0 0 1 43 163.812V92.966a7.11 7.11 0 0 1 7.067-7.068"/><path fill="#F9F7F7" d="M85.015 125.027c.514.997.905 2.054 1.164 3.145a14.4 14.4 0 0 1 1.12-3.059l10.558-19.953a4.73 4.73 0 0 1 1.722-1.756 4.73 4.73 0 0 1 2.371-.657 4.615 4.615 0 0 1 4.682 4.612c0 .818-.218 1.62-.631 2.326l-14.608 25.426a4.9 4.9 0 0 0-.603 2.327v12.928a4.695 4.695 0 0 1-4.655 4.654h-.948a4.653 4.653 0 0 1-4.653-4.654v-12.713a4.3 4.3 0 0 0-.604-2.284l-14.306-25.856a4.567 4.567 0 0 1 1.723-6.292 4.8 4.8 0 0 1 2.327-.603h.905a4.65 4.65 0 0 1 4.31 2.499z"/></svg>