<svg xmlns="http://www.w3.org/2000/svg" fill="none" viewBox="0 0 256 256"><path fill="#282828" d="M196 0H60C26.863 0 0 26.863 0 60v136c0 33.137 26.863 60 60 60h136c33.137 0 60-26.863 60-60V60c0-33.137-26.863-60-60-60"/><path fill="#40B3D8" d="M167.565 155.362c-1.352-17.847-7.109-29.415-9.912-35.972-2.801-6.555-7.109-12.692-7.112-12.682-.008.028-3.879 20.884-10.837 35.974-1.162 2.52-2.704 5.666-4.261 8.2-4.804 8.482-11.775 16.597-15.929 24.821-4.119 8.152-4.884 16.225-4.501 25.402.386 9.229 2.519 18.281 4.566 27.253 7.716-1.664 14.432-4.513 20.242-8.155 15.29-9.586 24.529-24.917 27.154-41.435 0 0 .128-.671.185-1.489 1.184-12.766.793-16.793.405-21.917"/><path fill="#83C933" d="M167.565 155.362c-1.352-17.847-7.108-29.415-9.912-35.972-2.801-6.555-7.109-12.692-7.112-12.682l-.001.005.001-.005-1.028-1.53c-22.548-31.651-65.79-47.455-102.326-32.807-1.76 22.186 8.527 60.358 46.051 71.006 15.171 4.667 27.318 3.456 42.206 7.504l-.001.001s15.133 5.275 23.937 13.184c3.96 3.556 7.926 8.237 7.727 13.805 1.254-13.25.852-17.304.458-22.509"/><path fill="#F18A2A" fill-rule="evenodd" d="M151.179 88.134c-5.332-15.599-3.073-26.051 6.681-40.596 4.653-6.94 12.685-14.99 19.725-19.538 28.403 17.798 38.905 50.95 28.46 81.74-7.602 22.402-14.735 31.796-32.769 54.846 2.102-24.686-6.587-41.801-15.117-60.817-2.171-4.839-5.173-10.346-6.98-15.635" clip-rule="evenodd"/><path fill="#7FB93C" d="M167.107 177.871c.199-5.568-3.766-10.249-7.726-13.805-8.804-7.91-23.937-13.184-23.937-13.184 1.557-2.534 3.1-5.68 4.261-8.2 6.959-15.09 10.829-35.946 10.837-35.974.003-.009 4.31 6.127 7.113 12.682 2.803 6.557 8.558 18.124 9.911 35.972.394 5.205.795 9.259-.459 22.509"/></svg>