<svg xmlns="http://www.w3.org/2000/svg" viewBox="0 0 256 256"><g id="Page-1" fill="none" fill-rule="evenodd" stroke="none" stroke-width="1"><g id="youtube" fill-rule="nonzero"><path id="Path" fill="red" d="M196 0H60C26.863 0 0 26.863 0 60v136c0 33.137 26.863 60 60 60h136c33.137 0 60-26.863 60-60V60c0-33.137-26.863-60-60-60"/><g id="Group" fill="#FFF" transform="matrix(1 0 0 -1 27 201)"><path id="Shape" d="M83.837 147.615c-29.853-.422-56.145-2.39-63.334-4.781-6.847-2.32-13.42-8.93-15.748-15.75-5.34-15.89-6.436-71.013-1.986-97.59 1.575-9.281 3.355-13.289 8.08-18.21C15.914 6.08 20.16 4.253 30.43 2.917 48.438.527 96.23-.67 130.943.386c45.67 1.406 54.023 2.742 61.897 9.913 8.9 8.016 11.16 20.953 11.16 63.982 0 36.843-1.575 49.85-7.258 58.569-5.614 8.718-12.667 11.46-34.371 13.148-8.764.703-61.075 2.25-64.84 1.968-.96-.14-7.121-.281-13.694-.351M108.51 89.81c14.362-8.395 26.206-15.6 26.275-15.95.136-.49-49.486-29.942-52.21-30.922-.34-.14-.612 12.313-.612 30.922 0 17.14.136 31.2.273 31.2.068 0 11.98-6.855 26.274-15.25"/></g></g></g></svg>