<svg xmlns="http://www.w3.org/2000/svg" fill="none" viewBox="0 0 256 256"><path fill="#282828" d="M196 0H60C26.863 0 0 26.863 0 60v136c0 33.137 26.863 60 60 60h136c33.137 0 60-26.863 60-60V60c0-33.137-26.863-60-60-60"/><path fill="#fff" fill-rule="evenodd" d="M56.406 51.938a5.47 5.47 0 0 0-5.468 5.468V177.72H40V57.406C40 48.346 47.345 41 56.406 41H202.93c7.308 0 10.968 8.836 5.8 14.004l-90.244 90.244h25.421v-11.279h10.937v14.013a8.203 8.203 0 0 1-8.203 8.203h-39.093l-18.799 18.799h85.235v-68.359h10.938v68.359c0 6.041-4.897 10.938-10.938 10.938H77.812l-19.14 19.14h139.922a5.47 5.47 0 0 0 5.468-5.468V79.281H215v120.313c0 9.061-7.345 16.406-16.406 16.406H52.07c-7.308 0-10.968-8.836-5.8-14.004l89.902-89.902h-25.078v10.937h-10.938v-13.672a8.204 8.204 0 0 1 8.203-8.203h38.751l19.141-19.14H81.016v68.359H70.079v-68.36c0-6.04 4.897-10.937 10.937-10.937h96.172l19.14-19.14z" clip-rule="evenodd"/></svg>