<svg xmlns="http://www.w3.org/2000/svg" width="256" height="256" fill="none"><rect width="256" height="256" fill="#F4F2ED" rx="60"/><path fill="#EACB8B" fill-rule="evenodd" d="M181.742 69.204a1667 1667 0 0 1-5.58 2.865c-5.037 2.576-4.772 2.43-4.929 2.705-.079.136-.455.758-.836 1.382s-.679 1.143-.664 1.154 4.46 2.672 9.876 5.914 9.86 5.906 9.876 5.919c.015.013.13.404.254.87s.341 1.271.483 1.79c.7 2.565.857 3.146 1.082 3.98l.432 1.608.19.706 1.917-.523 1.918-.523 4.89-2.76 5.195-2.931c.168-.095.339-.264.38-.377l.378-1.067c.167-.474.41-1.157.541-1.518l.529-1.477c.161-.452.388-1.073.505-1.38l.211-.56-.217-.795-.509-1.86c-.491-1.802-.685-2.451-.749-2.513-.056-.053-1.731-1.05-8.227-4.895a476 476 0 0 1-2.585-1.539 343 343 0 0 0-2.421-1.434 293 293 0 0 1-2.421-1.438c-.456-.279-1.221-.56-3.733-1.375a438 438 0 0 0-3.324-1.07c-.11-.03-.915.343-2.462 1.142m21.459 30.302-4.853 2.235c-1.61.74-1.923.914-2.34 1.305l-2.138 1.996-1.658 1.544-.252.671c-.139.369-.323.838-.41 1.041s-.29.72-.453 1.149a66 66 0 0 1-.513 1.308c-.119.292-.212.605-.205.698.02.305.434 5.556.554 7.019l.117 1.435.926.886c.51.487 1.004.94 1.099 1.007.159.113.689-.018 6.647-1.644 3.561-.972 6.53-1.798 6.597-1.836.129-.072.889-1.658 1.795-3.745l.249-.574.086-5.047c.047-2.776.109-5.877.137-6.893l.052-1.846-1.117-1.047c-.615-.575-1.164-1.045-1.221-1.044s-1.451.622-3.099 1.382m-3.792 26.382-4.983 1.161-.508.902a98 98 0 0 1-.774 1.354c-.147.249-.572.987-.944 1.642l-.877 1.54c-.172.3-.193.418-.151.82.026.259.087 1.302.133 2.317s.175 3.287.285 5.047.24 4.06.29 5.111.115 2.209.146 2.574l.056.664 7.089 8.182 7.088 8.181.981-.266c.54-.147 1.004-.289 1.031-.316s.004-8.477-.052-18.778c-.095-17.451-.111-18.737-.241-18.862-.235-.225-3.44-2.452-3.516-2.442-.039.005-2.313.531-5.053 1.169" clip-rule="evenodd"/><path fill="#BE616B" fill-rule="evenodd" d="m67.518 68.412-16.89 9.746-2.169 3.397-2.168 3.396.045 1.929c.025 1.06.065 3.922.088 6.36.023 2.437.102 9.102.174 14.812.107 8.372.124 15.005.091 34.282l-.04 23.903 1.184 1.618c.651.891 1.232 1.667 1.29 1.726.086.088.388-.101 1.665-1.042l1.56-1.149 4.136-2.015 4.136-2.015 1.67-3.34 1.671-3.34-.093-7.964c-.05-4.38-.127-10.603-.17-13.831-.041-3.227-.084-13.843-.094-23.592l-.019-17.725.684-1.15 1.513-2.54.829-1.393 10.421-5.882 10.422-5.881.985-1.06a897 897 0 0 0 2.349-2.538l1.364-1.48-.228-.855c-.334-1.253-.761-2.827-2.036-7.502l-1.142-4.185-1.754-.178-2.168-.218-.414-.04zM182.23 101.24c0 1.422.011 2.004.025 1.293s.014-1.874 0-2.585-.025-.13-.025 1.292m26.419-.082c0 .565.013.795.029.513a11 11 0 0 0 0-1.025c-.016-.283-.029-.052-.029.512m-137.198 9.191c0 5.033.01 7.091.022 4.575s.012-6.634 0-9.15-.022-.457-.022 4.575m137.116-5.457c0 .587.013.816.029.51.016-.307.016-.787 0-1.067s-.029-.03-.029.557m-.406 24.701c0 1.308.012 1.832.025 1.164s.014-1.739 0-2.38c-.013-.64-.025-.093-.025 1.216m.084 14.114c0 2.031.01 2.85.024 1.82.013-1.03.013-2.691 0-3.692-.014-1.002-.024-.159-.024 1.872m-81.899 6.155c0 1.354.012 1.919.025 1.256a72 72 0 0 0 0-2.462c-.013-.691-.024-.148-.025 1.206m81.98 9.396c0 1.647.011 2.321.025 1.497.013-.823.013-2.171 0-2.995-.014-.824-.025-.15-.025 1.498" clip-rule="evenodd"/><path fill="#080317" fill-rule="evenodd" d="M116.34 26.245a9587 9587 0 0 1-11.776 6.874c-.609.352-2.456 1.426-4.103 2.387l-3.775 2.202a840 840 0 0 1-4.596 2.688 7026 7026 0 0 0-11.119 6.48c-.632.373-6.614 3.863-13.294 7.755s-13.234 7.714-14.565 8.493a8804 8804 0 0 1-16.196 9.44l-2.532 1.473.05 19.08c.136 51.756.285 88.401.361 88.477.07.07 1.297.779 7.895 4.56 2.64 1.514 6.61 3.793 8.821 5.066a2898 2898 0 0 0 6.401 3.672c1.31.747 2.97 1.699 3.693 2.116 1.233.711 10.11 5.807 17.479 10.034l6.072 3.485c4.6 2.64 11.928 6.844 16.987 9.745 2.618 1.501 6.089 3.494 7.714 4.429s4.616 2.652 6.647 3.815l7.496 4.3c2.092 1.201 3.835 2.184 3.873 2.184.07 0 2.201-1.213 3.238-1.842.316-.192 1.645-.969 2.954-1.728a822 822 0 0 0 3.57-2.079c.654-.385 2.722-1.592 4.595-2.682 3.177-1.849 5.276-3.073 8.904-5.19l3.446-2.011 3.447-2.01 2.133-1.246 2.749-1.598c1.151-.669 3.053-1.779 4.226-2.466s5.144-3.005 8.822-5.148c6.509-3.794 7.948-4.633 15.14-8.83a12775 12775 0 0 0 16.857-9.822l12.662-7.385-.05-19.161c-.162-61.834-.282-88.322-.401-88.43-.055-.05-.617-.384-1.249-.744a8805 8805 0 0 1-12.391-7.105 20026 20026 0 0 0-19.244-11.04c-2.324-1.33-5.167-2.963-6.318-3.628s-4.013-2.308-6.36-3.652a3375 3375 0 0 1-5.58-3.2c-.722-.416-2.846-1.635-4.719-2.709a9641 9641 0 0 1-8.288-4.758c-2.685-1.544-5.695-3.27-6.688-3.835-.993-.566-2.876-1.646-4.185-2.401s-4.171-2.4-6.36-3.653-5.692-3.263-7.784-4.464c-2.093-1.2-3.847-2.18-3.898-2.177s-4.894 2.81-10.761 6.239m14.976 10.533-1.518.424-.059 2.457c-.033 1.35-.092 4.69-.131 7.419l-.072 4.963.982 1.52c.539.836 1.281 1.99 1.648 2.566l.668 1.045 10.604 6.365 10.604 6.365 1.787.533 4.385 1.305 2.597.772.75-.206c.606-.166 2.016-.842 7.373-3.538 3.643-1.833 6.637-3.344 6.655-3.358.032-.026-1.021-3.96-1.076-4.015a1618 1618 0 0 0-7.494-4.31 98008 98008 0 0 0-28.471-16.324 3776 3776 0 0 0-7.386-4.226l-.328-.182zm-14.238 2.803c-5.605 3.284-8.905 5.216-15.181 8.888-2.482 1.453-4.575 2.704-4.65 2.78-.074.077-.747 1.014-1.495 2.083l-1.359 1.943.29 1.052c.16.579.339 1.236.4 1.462.145.545 1.545 5.677 1.847 6.77.13.474.335 1.231.455 1.682l.218.821 1.07.606 1.07.605 1.637-.441 1.637-.442 8.992-5.252 8.993-5.251.526-1.026a858 858 0 0 0 1.91-3.776l1.385-2.75-.118-.943c-.114-.907-.281-2.32-.894-7.549l-.34-2.891-.055-.472-.642-.37c-.353-.203-.689-.369-.748-.368-.058.001-2.285 1.279-4.948 2.839m-49.56 28.831-16.89 9.746-2.169 3.397-2.168 3.396.045 1.929c.025 1.06.065 3.922.088 6.36.023 2.437.102 9.102.174 14.812.107 8.372.124 15.005.091 34.282l-.04 23.903 1.184 1.618c.651.891 1.232 1.667 1.29 1.726.086.088.388-.101 1.665-1.042l1.56-1.149 4.136-2.015 4.136-2.015 1.67-3.34 1.671-3.34-.093-7.964c-.05-4.38-.127-10.603-.17-13.831-.041-3.227-.084-13.843-.094-23.592l-.019-17.725.684-1.15 1.513-2.54.829-1.393 10.421-5.882 10.422-5.881.985-1.06a897 897 0 0 0 2.349-2.538l1.364-1.48-.228-.855c-.334-1.253-.761-2.827-2.036-7.502l-1.142-4.185-1.754-.178-2.168-.218-.414-.04zM99.16 79.235 74.348 93.578l-.346.61a337 337 0 0 1-2.255 3.893l-.295.492-.023 28.667-.024 28.666.827 1.45a486 486 0 0 0 1.468 2.555l.64 1.104 24.767 14.344 24.766 14.343h5.888l9.25-5.346 21.56-12.461c1.85-1.071 6.004-3.471 9.231-5.336 3.228-1.864 6.68-3.859 7.673-4.434l1.806-1.044.335-.563c.185-.31.838-1.431 1.451-2.491l1.115-1.929.019-28.738.02-28.738-1.22-2.117a250 250 0 0 1-1.427-2.498c-.206-.38-.259-.411-25.018-14.75l-24.812-14.37-2.886.003-2.887.002zm83.526-10.566c-.7.362-3.522 1.81-6.272 3.219-4.312 2.206-5.028 2.599-5.197 2.846-.335.49-1.588 2.562-1.562 2.583.013.01 4.474 2.684 9.913 5.94l9.888 5.92.814 3.016c.802 2.972 1.258 4.653 1.492 5.498.066.237.146.431.179.431s.911-.232 1.951-.516l1.892-.517 4.345-2.453c2.389-1.35 4.735-2.674 5.213-2.943l.869-.49.542-1.526c.298-.839.8-2.246 1.115-3.128l.572-1.602-.691-2.538c-.38-1.396-.719-2.565-.753-2.597-.033-.033-3.717-2.23-8.185-4.881l-8.124-4.822-3.241-1.051c-1.783-.578-3.297-1.05-3.365-1.05s-.695.298-1.395.66m23.453 29.415c-.024.024-2.223 1.049-4.886 2.277l-4.842 2.233-2.123 1.985-2.124 1.985-.442 1.133a242 242 0 0 0-1.163 3.008l-.242.643.246 3.173c.135 1.745.289 3.68.341 4.299l.096 1.126 1.103 1.021 1.103 1.021.382-.111c.21-.061 3.169-.873 6.577-1.803 3.408-.931 6.238-1.737 6.29-1.79.085-.088 1.638-3.438 1.839-3.968.046-.119.133-2.383.199-5.106.064-2.691.14-5.816.169-6.945l.053-2.053-.48-.446-1.161-1.086c-.629-.59-.819-.712-.935-.596m-108.41 2.122a3.5 3.5 0 0 0-.636.339c-.177.123-1.662 1.583-3.298 3.245-3.292 3.341-3.343 3.408-3.344 4.344 0 1.07-.428.589 8.322 9.355 8.716 8.732 8.213 8.166 8.21 9.231-.003 1.07.504.499-8.243 9.273-8.86 8.887-8.339 8.295-8.277 9.396.022.376.094.666.235.932s1.363 1.547 3.935 4.118c2.052 2.052 3.78 3.731 3.84 3.731.34 0 1.207-.707 1.578-1.288.121-.19 5.697-5.84 12.39-12.556 13.306-13.35 12.568-12.555 12.578-13.551a3.5 3.5 0 0 0-.141-.917c-.141-.435-.577-.883-12.589-12.905-9.238-9.247-12.539-12.502-12.813-12.635-.456-.223-1.302-.277-1.748-.112m102.149 25.535c-2.392.559-4.608 1.075-4.924 1.147l-.574.13-.801 1.41-1.656 2.915-.856 1.504.038.548c.06.875.433 7.289.525 9.04.164 3.125.333 5.954.376 6.296.041.319.579.963 7.062 8.452 3.861 4.458 7.063 8.138 7.117 8.176.058.042.509-.045 1.121-.215l1.024-.285-.032-10.699c-.018-5.885-.055-14.354-.083-18.821l-.049-8.123-1.764-1.25q-1.766-1.251-1.97-1.246c-.113.003-2.162.462-4.554 1.021m-71.779 19.516a2.38 2.38 0 0 0-1.581 1.386c-.105.25-.126.777-.125 3.154 0 1.703.034 2.977.085 3.159.137.494.663 1.085 1.202 1.349l.476.234h33.235l.428-.193c.237-.107.592-.369.794-.585.595-.636.625-.824.625-3.952 0-2.487-.013-2.723-.164-3.128-.199-.53-.713-1.086-1.224-1.323l-.377-.174-16.494-.015c-13.12-.013-16.573.006-16.88.088m62.847 13.564c-.024.082-.126 1.009-.227 2.06l-.185 1.91-4.095 3.051-4.096 3.052-8.737 4.809-8.736 4.809-3.147 2.456-3.146 2.457-2.162 3.156-3.993 5.829-1.125 1.642c-.599.868-.992 1.442-3.938 5.744a6056 6056 0 0 1-4.049 5.908l-.958 1.395a1002 1002 0 0 0-3.603 5.269c-.134.207-.135.253-.014.677l.259.906c.071.249.161.452.2.452s1.763-.991 3.831-2.202c4.735-2.774 16.627-9.726 48.565-28.393l11.652-6.811 1.21-2.12c.666-1.166 1.21-2.166 1.211-2.221 0-.056-1.172-1.401-2.605-2.991a1913 1913 0 0 1-3.385-3.76c-.429-.479-1.894-2.106-3.255-3.616l-2.476-2.744-1.381-.401c-.76-.22-1.424-.417-1.477-.437-.052-.019-.114.032-.138.114M60.422 170.088l-6.678 3.43-.262.44c-1.122 1.884-1.602 2.813-1.501 2.908.058.054 5.293 3.062 11.634 6.684s13.044 7.455 14.895 8.518c1.85 1.062 3.425 1.928 3.5 1.922.074-.005.733-.165 1.464-.356l1.328-.347-.05-1.731a841 841 0 0 1-.133-5.957l-.082-4.226-.784-2.869c-.43-1.579-.8-2.896-.82-2.929s-.359-.242-.753-.466a5045 5045 0 0 0-14.833-8.324l-.248-.127zm30.731 11.44-.796.86.208 3.596c.115 1.977.248 4.352.295 5.277.204 3.986.241 4.393.487 5.313.658 2.466.838 3.102.891 3.147a608 608 0 0 0 4.858 2.842c2.64 1.536 9.915 5.776 16.166 9.421 6.251 3.646 11.421 6.626 11.489 6.623s.862-.21 1.764-.457c.903-.248 1.797-.491 1.988-.542.344-.091.366-.122 3.07-4.172l8.728-13.066c3.302-4.942 6.029-9.029 6.06-9.082.042-.071-.013-.076-.212-.02l-1.662.469-1.395.395-6.237 3.637-6.237 3.637-4.323-.617-4.324-.617-14.914-8.728c-8.202-4.8-14.957-8.738-15.01-8.752-.053-.013-.456.363-.894.836" clip-rule="evenodd"/><path fill="#A3BD8D" fill-rule="evenodd" d="m131.275 36.82-1.395.388-.057 1.305c-.031.718-.096 4.05-.143 7.404l-.087 6.1.208.342c.115.188.591.933 1.059 1.655s1.113 1.725 1.434 2.227l.583.915 10.606 6.365 10.605 6.366 4.347 1.29 4.348 1.289.715-.183c.592-.152 1.873-.766 7.388-3.542 3.669-1.847 6.663-3.394 6.652-3.438-.049-.203-.539-2.031-.78-2.907l-.268-.974-.779-.452c-.718-.416-4.91-2.82-16.453-9.437-2.438-1.397-7.09-4.065-10.34-5.93-13.905-7.975-16.041-9.19-16.142-9.181-.058.005-.734.184-1.501.397m-11.735 1.367-4.883 2.859-5.744 3.362-7.474 4.374-4.151 2.427-.444.649c-.245.357-.574.829-.732 1.049s-.597.848-.975 1.396l-.687.996.166.588c.09.324.285 1.032.431 1.574l.536 1.97.57 2.092c.166.61.387 1.422.493 1.805.106.384.327 1.196.492 1.806.164.609.35 1.292.413 1.518l.115.41 1.049.591 1.048.591 1.663-.468 1.662-.468 8.932-5.21 8.932-5.212 1.905-3.757 1.905-3.758-.051-.468a341 341 0 0 0-.288-2.438c-.252-2.092-.768-6.482-.906-7.714-.15-1.326-.1-1.228-.836-1.642a22 22 0 0 0-.667-.367c-.007.001-1.12.651-2.474 1.445m88.621 95.919c0 1.219.011 1.728.025 1.133s.014-1.592 0-2.215c-.014-.624-.025-.137-.025 1.082m.081 14.976c0 .97.012 1.367.026.882a35 35 0 0 0 0-1.764c-.014-.485-.026-.088-.026.882m-17.302 10.073c-.046.352-.08.736-.265 2.924-.065.773.159.543-2.368 2.424-6.478 4.822-5.657 4.268-9.273 6.257l-7.919 4.358c-2.55 1.404-5.005 2.754-5.457 2.999s-.986.584-1.189.751-1.145.908-2.093 1.645l-2.766 2.154c-.573.447-1.114.93-1.201 1.073a41 41 0 0 1-.753 1.121l-1.213 1.764-1.043 1.518-2.502 3.652-2.502 3.652-1.041 1.518c-.651.951-1.412 2.059-2.394 3.487l-1.323 1.929-1.263 1.846-.983 1.436-.873 1.272-1.069 1.559c-.637.933-.874 1.279-2.134 3.116l-.646.94.22.86c.121.473.248.886.283.918.034.031 1.742-.93 3.796-2.136a6010 6010 0 0 1 10.38-6.075c3.656-2.135 7.607-4.445 8.781-5.133 1.173-.688 6.731-3.937 12.35-7.221l25.562-14.939 3.118-1.82.297-.483c.163-.265.728-1.248 1.256-2.184l.96-1.703-1.379-1.528c-.759-.84-1.601-1.777-1.872-2.082s-.973-1.087-1.559-1.738l-5.122-5.689c-1.984-2.205-1.656-1.958-3.208-2.422-.744-.223-1.396-.406-1.448-.407-.053-.002-.118.173-.145.387m17.383 4.37c0 .745.012 1.049.027.677s.015-.982 0-1.354-.027-.068-.027.677m-142.45 3.802a840 840 0 0 1-3.078 1.588l-4.308 2.21a905 905 0 0 0-3.563 1.837l-1.182.615-.921 1.618-.922 1.617 1.283.728c.706.4 7.467 4.264 15.024 8.587l13.74 7.859 1.38-.354 1.38-.353-.004-1.111a504 504 0 0 0-.118-5.994c-.105-4.466-.13-4.935-.285-5.498l-.368-1.354c-.367-1.365-1.038-3.768-1.055-3.78-.01-.007-2.75-1.547-6.09-3.422l-7.837-4.402c-.97-.546-1.8-.992-1.846-.991-.045.001-.599.271-1.23.6m25.352 14.197-.783.834.049 1.149c.056 1.324.14 2.85.365 6.647.089 1.489.184 3.317.212 4.062.04 1.045.095 1.513.243 2.051.555 2.024.781 2.859.844 3.119.077.321-1.75-.772 16.184 9.679l11.935 6.959 4.426 2.583 2.054-.564 2.054-.565 1.238-1.845c8.615-12.84 16.269-24.377 16.149-24.341-.082.025-.806.23-1.608.456l-1.458.412-6.255 3.643-6.256 3.643-4.349-.626-4.349-.626-4.472-2.62c-2.46-1.441-5.525-3.235-6.812-3.986a9019 9019 0 0 1-7.918-4.634l-8.145-4.765-2.565-1.498z" clip-rule="evenodd"/><path fill="#7E9FBE" fill-rule="evenodd" d="M129.709 43.141c0 .88.012 1.24.027.8s.015-1.16 0-1.6-.027-.08-.027.8m-.083 5.252c0 .7.012.986.028.636.015-.35.015-.922 0-1.272-.016-.35-.028-.063-.028.636m-6.393 16.936c-.406.24-10.857 6.283-23.223 13.428l-24.06 13.9-1.574.91-.758 1.314-1.439 2.487-.68 1.175-.058 28.663-.057 28.664 1.177 2.042c.648 1.124 1.312 2.28 1.477 2.57l.3.528 24.776 14.345 24.775 14.346 2.927.001h2.927l3.105-1.793 9.464-5.469 9.027-5.218 15.304-8.843 12.638-7.302.849-1.463 1.456-2.507.608-1.042V98.571l-.311-.532c-.171-.293-.805-1.393-1.409-2.444-.631-1.1-1.187-1.975-1.309-2.06-.178-.124-20.449-11.871-43.825-25.397l-5.618-3.25-2.876.002-2.875.003zm-25.49 34.876a3.6 3.6 0 0 0-.574.279c-.153.095-1.632 1.532-3.288 3.193-3.369 3.38-3.43 3.459-3.43 4.457 0 1.07-.425.593 8.287 9.314 8.322 8.33 8.118 8.107 8.248 8.998.069.471-.129 1.217-.433 1.628-.117.158-3.686 3.768-7.932 8.021-5.494 5.503-7.78 7.845-7.925 8.122-.154.291-.212.543-.233 1.006-.024.552-.003.663.205 1.044.28.512 7.548 7.903 7.772 7.903.38 0 1.224-.681 1.627-1.313.129-.203 5.674-5.816 12.322-12.473s12.167-12.221 12.265-12.363c.254-.368.45-1.196.382-1.614-.141-.873.293-.415-12.823-13.536-11.457-11.461-12.484-12.467-12.884-12.617-.493-.185-1.15-.205-1.586-.049m30.414 45.015c-.7.171-1.306.69-1.633 1.396-.165.357-.173.498-.173 3.246 0 2.747.008 2.888.173 3.245a2.43 2.43 0 0 0 1.166 1.203l.467.229h33.316l.402-.199a2.6 2.6 0 0 0 1.136-1.096c.183-.341.186-.388.186-3.382v-3.037l-.255-.451a2.8 2.8 0 0 0-.599-.716c-.716-.551.515-.516-17.564-.506-9.007.004-16.487.035-16.622.068" clip-rule="evenodd"/></svg>