<svg xmlns="http://www.w3.org/2000/svg" width="256" height="256" fill="none"><path fill="#F4F2ED" d="M196 0H60C26.863 0 0 26.863 0 60v136c0 33.137 26.863 60 60 60h136c33.137 0 60-26.863 60-60V60c0-33.137-26.863-60-60-60"/><path fill="#131313" d="M202.997 184.57c-.171 10.281-8.773 18.43-19.056 18.43h-77.288c-3.006 0-5.046-3.056-3.894-5.832l.026-.063c5.082-12.27 13.329-22.625 23.859-30.178a7.7 7.7 0 0 1 4.503-1.427h53.103c10.462 0 18.923 8.568 18.747 19.07M149.347 53c3.006 0 5.046 3.055 3.894 5.831l-.026.063c-5.082 12.271-13.329 22.625-23.859 30.179a7.7 7.7 0 0 1-4.502 1.427H72.059c-10.283 0-18.885-8.15-19.056-18.43C52.828 61.568 61.288 53 71.75 53zm-77.6 150a18.7 18.7 0 0 1-7.168-1.432c-9.566-3.963-14.11-14.93-10.147-24.497 6.094-14.712 14.83-27.902 25.964-39.203 11.534-11.707 25.136-20.855 40.429-27.189 21.021-8.708 37.393-25.08 46.1-46.1 3.962-9.567 14.93-14.11 24.496-10.147 9.567 3.962 14.11 14.93 10.147 24.496-6.094 14.713-14.829 27.903-25.963 39.203-11.534 11.708-25.136 20.855-40.43 27.19-21.021 8.708-37.393 25.079-46.1 46.1C86.086 198.64 79.104 203 71.748 203"/></svg>