<svg xmlns="http://www.w3.org/2000/svg" fill="none" viewBox="0 0 256 256"><path fill="#F4F2ED" d="M196 0H60C26.863 0 0 26.863 0 60v136c0 33.137 26.863 60 60 60h136c33.137 0 60-26.863 60-60V60c0-33.137-26.863-60-60-60"/><path fill="#131313" fill-rule="evenodd" d="M150.877 52.698a12.1 12.1 0 0 1 4.455-5.594A12.1 12.1 0 0 1 162.17 45h41.543c16.374 0 28.047 15.866 23.166 31.483l-13.385 42.789a12.12 12.12 0 0 1-4.39 6.147 12.14 12.14 0 0 1-7.179 2.359h-58.393c-8.581 0-12.943 7.76-15.532 15.521-2.009 6.022-16.498 43.217-22.877 59.558a12.11 12.11 0 0 1-11.293 7.699H52.287c-16.374 0-28.047-15.866-23.166-31.484l13.385-42.789a12.13 12.13 0 0 1 11.576-8.505h58.386c8.581 0 12.943-7.761 15.532-15.521 2.009-6.022 16.498-43.217 22.877-59.559" clip-rule="evenodd"/><path fill="#131313" d="M157.504 140.712a12.95 12.95 0 0 0-12.125 8.395l-18.968 50.529a8.087 8.087 0 0 0 7.582 10.92h48.748c6.59 0 13.023-2.009 18.439-5.758a32.34 32.34 0 0 0 11.873-15.227l8.085-21.556c4.958-13.21-4.812-27.303-18.94-27.303zM75.474 45c-6.589 0-13.02 2.01-18.436 5.76a32.34 32.34 0 0 0-11.87 15.224l-8.085 21.557c-4.957 13.21 4.82 27.303 18.94 27.303h44.695c5.4 0 10.233-3.346 12.125-8.395l18.968-50.53a8.08 8.08 0 0 0-3.828-9.998 8.1 8.1 0 0 0-3.754-.921z"/></svg>